<svg width="24" height="24" viewBox="0 0 24 24" fill="none" xmlns="http://www.w3.org/2000/svg">
<path d="M10.0004 1.99247C9.44791 1.99247 9.00041 2.43972 9.00041 2.99247V7.57771L2.71191 1.29222C2.52337 1.10474 2.26829 0.999512 2.00241 0.999512C1.73653 0.999512 1.48145 1.10474 1.29291 1.29222C1.10532 1.48069 1 1.73579 1 2.00171C1 2.26764 1.10532 2.52274 1.29291 2.71122L7.57816 8.99997H2.99316C2.44041 8.99997 1.99316 9.44747 1.99316 9.99997C1.99316 10.5525 2.44041 11 2.99316 11H9.99316C10.5454 11 11.0004 10.545 11.0004 9.99272V2.99247C11.0004 2.43972 10.5529 1.99247 10.0004 1.99247ZM22.7074 21.289L16.4222 15H21.0074C21.2726 15 21.527 14.8946 21.7145 14.7071C21.9021 14.5195 22.0074 14.2652 22.0074 14C22.0074 13.7347 21.9021 13.4804 21.7145 13.2929C21.527 13.1053 21.2726 13 21.0074 13H14.0072C13.4544 13 13.0004 13.4555 13.0004 14.008V21.008C13.0004 21.5605 13.4479 22.008 14.0004 22.008C14.5529 22.008 15.0004 21.5605 15.0004 21.008V16.4227L21.2892 22.708C21.4775 22.8955 21.7325 23.0008 21.9983 23.0008C22.2641 23.0008 22.5191 22.8955 22.7074 22.708C22.895 22.5195 23.0003 22.2644 23.0003 21.9985C23.0003 21.7325 22.895 21.4774 22.7074 21.289Z" fill="black"/>
</svg>
