<svg width="68" height="84" viewBox="0 0 68 84" fill="none" xmlns="http://www.w3.org/2000/svg">
<path d="M5.54126 44.6958C5.54126 49.7394 9.62994 53.8281 14.6736 53.8281H53.3261C58.3697 53.8281 62.4584 49.7394 62.4584 44.6958V30.63C62.4584 14.9127 49.717 2.17141 33.9998 2.17141C18.2826 2.17141 5.54126 14.9127 5.54126 30.63V44.6958Z" fill="white" stroke="#DEEAEA"/>
<path fill-rule="evenodd" clip-rule="evenodd" d="M29.2716 31.3386C29.0693 31.3503 28.956 31.3797 28.9133 31.3991C28.4909 31.5917 27.1034 32.0953 26.1666 32.4307V37.1646C26.6469 37.1419 27.1869 37.1231 27.4902 37.1353C28.8377 37.1896 29.8559 37.5033 30.8075 37.8055C30.8355 37.8143 30.8634 37.8232 30.8913 37.8321C31.8099 38.124 32.6673 38.3964 33.7949 38.4819C34.1404 38.5081 34.4424 38.5388 34.7254 38.5675C35.0756 38.6032 35.3967 38.6359 35.7352 38.6533C36.3083 38.6829 36.7484 38.6511 37.1044 38.5207C37.5441 38.3595 39.1308 37.6173 40.7248 36.8087C41.5139 36.4084 42.2889 35.9999 42.9062 35.6497C43.2153 35.4743 43.4788 35.317 43.6823 35.185C43.9007 35.0434 44.0057 34.9589 44.0347 34.929C44.1535 34.8072 44.2379 34.4703 44.0827 34.1673C43.9743 33.9559 43.673 33.6465 42.8263 33.7866C41.8469 33.9486 40.6813 34.4265 39.5367 34.8961C38.9811 35.124 38.4287 35.3501 37.9396 35.5134C37.4709 35.6699 36.967 35.8027 36.5343 35.7766C35.9077 35.7388 34.8036 35.5733 33.8875 35.424C33.4226 35.3483 32.9949 35.2748 32.6837 35.2203C32.5279 35.193 32.4011 35.1705 32.3132 35.1547L32.2115 35.1364L32.1761 35.13L32.295 34.474L32.1754 35.1299L32.3031 33.8074L35.8771 33.8506C35.8799 33.8505 35.8846 33.8502 35.8911 33.8496C35.915 33.8475 35.9635 33.8413 36.0323 33.8234C36.1683 33.7881 36.3924 33.7051 36.6701 33.5067C36.766 33.4383 36.8829 33.3187 36.9892 33.164C37.0764 33.0373 37.1407 32.91 37.1787 32.8021C36.646 32.7869 36.1235 32.6971 35.7334 32.612C35.5165 32.5647 35.334 32.5173 35.2046 32.4815C35.1398 32.4635 35.0881 32.4483 35.0517 32.4374C35.0401 32.4339 35.03 32.4309 35.0216 32.4283L30.644 31.4461L30.6425 31.4458C30.6332 31.4441 30.6186 31.4416 30.5994 31.4383C30.5609 31.4319 30.5041 31.4227 30.4335 31.4124C30.2916 31.3918 30.0979 31.3673 29.8881 31.351C29.6763 31.3346 29.4607 31.3277 29.2716 31.3386ZM30.7765 30.7925L30.8987 30.1371L30.9106 30.1394L35.3691 31.1397L35.3969 31.1487L35.4045 31.1511L35.4353 31.1604C35.4633 31.1689 35.5059 31.1813 35.5608 31.1965C35.6709 31.2271 35.8291 31.2682 36.0177 31.3093C36.4009 31.393 36.8835 31.471 37.3337 31.471C37.7497 31.471 38.1798 31.6261 38.4099 32.0473C38.6073 32.409 38.5613 32.8061 38.4874 33.0811C38.3953 33.4233 38.2047 33.7835 37.9624 34.0895C38.2894 33.9661 38.6468 33.8199 39.0305 33.6625C39.0578 33.6513 39.0851 33.6401 39.1126 33.6289C40.1945 33.1848 41.4772 32.6583 42.6087 32.4711C43.9017 32.2572 44.8428 32.7266 45.2694 33.5594C45.6491 34.3007 45.5609 35.2735 44.9895 35.8597C44.846 36.0069 44.6274 36.1613 44.4079 36.3037C44.1735 36.4557 43.8848 36.6275 43.5641 36.8094C42.9217 37.1739 42.1264 37.5927 41.328 37.9978C39.747 38.7998 38.0896 39.5797 37.563 39.7726C36.9527 39.9962 36.2971 40.0173 35.6666 39.9849C35.3232 39.9672 34.9243 39.9275 34.5277 39.8881C34.2413 39.8596 33.9561 39.8313 33.6941 39.8114C32.4091 39.714 31.4229 39.4003 30.5144 39.1113C30.4775 39.0996 30.4407 39.0879 30.404 39.0763C29.4657 38.7783 28.5929 38.5142 27.4365 38.4676C27.0429 38.4517 26.0649 38.5025 25.5389 38.5332L24.8333 38.5745V31.4903L25.2765 31.3326C26.18 31.0111 27.9313 30.3814 28.3602 30.1859C28.6281 30.0638 28.9376 30.0223 29.1947 30.0075C29.4651 29.9919 29.7455 30.0027 29.991 30.0217C30.2386 30.0408 30.4633 30.0694 30.6255 30.093C30.707 30.1049 30.7736 30.1156 30.8206 30.1235C30.8441 30.1275 30.8628 30.1307 30.876 30.1331L30.8917 30.1359L30.8963 30.1367L30.8987 30.1371C30.8987 30.1371 30.8987 30.1371 30.7765 30.7925Z" fill="#545E5E"/>
<path fill-rule="evenodd" clip-rule="evenodd" d="M21.5 31.3338C21.5 30.5975 22.097 30.0005 22.8333 30.0005H24.8333C25.5697 30.0005 26.1667 30.5975 26.1667 31.3338V38.6641C26.1667 39.4004 25.5697 39.9974 24.8333 39.9974H22.8333C22.097 39.9974 21.5 39.4004 21.5 38.6641V31.3338ZM22.8333 31.3338V38.6641H24.8333V31.3338H22.8333ZM30.3659 24.719L30.3789 24.7057C30.5459 24.5378 30.5451 24.2663 30.3772 24.0993C30.2093 23.9323 29.9377 23.9331 29.7707 24.101L28.4634 25.4157C28.2131 25.6675 27.8729 25.8089 27.5179 25.8089H25.7941C25.5573 25.8089 25.3653 26.0009 25.3653 26.2378C25.3653 26.4747 25.5573 26.6667 25.7941 26.6667H27.6345C28.1765 26.6667 28.6953 26.4467 29.0721 26.0569L30.3659 24.719ZM27.5179 24.4756H25.7941C24.8209 24.4756 24.0319 25.2646 24.0319 26.2378C24.0319 27.2111 24.8209 28 25.7941 28H27.6345C28.5379 28 29.4025 27.6333 30.0306 26.9838L31.3244 25.6459C32.0106 24.9557 32.0075 23.84 31.3173 23.1538C30.6272 22.4675 29.5115 22.4707 28.8252 23.1609L27.5179 24.4756ZM39.3273 20.6656C40.2475 20.6656 40.9933 19.9197 40.9933 18.9995C40.9933 18.0793 40.2474 17.3333 39.3273 17.3333C38.4071 17.3333 37.6611 18.0793 37.6611 18.9995C37.6611 19.9197 38.4071 20.6656 39.3273 20.6656ZM42.3267 18.9995C42.3267 20.6561 40.9838 21.9989 39.3273 21.9989C37.6707 21.9989 36.3278 20.6561 36.3278 18.9995C36.3278 17.3429 37.6707 16 39.3273 16C40.9838 16 42.3267 17.3429 42.3267 18.9995ZM37.3119 27.5293C37.3277 27.5456 37.3439 27.5615 37.3603 27.577C37.4971 27.7058 37.6567 27.8084 37.8311 27.8795C38.0265 27.9591 38.2363 27.9973 38.4471 27.9919C38.4561 27.9919 38.4646 27.993 38.4731 27.9941C38.4815 27.9953 38.49 27.9964 38.4991 27.9964C38.8107 27.9964 39.7277 27.9953 40.5905 27.9942C41.5715 27.993 42.3659 27.1973 42.3659 26.2163C42.3659 25.2342 41.5697 24.4381 40.5876 24.4381H39.2836C39.1501 24.4381 38.1837 23.4201 37.4628 22.6399C36.9493 22.0843 36.2297 21.7624 35.4732 21.7624H32.2361L32.5479 27.9964H34.6032C35.0192 27.9957 35.4309 27.9115 35.8137 27.7486C36.1964 27.5857 36.7833 27.096 36.8313 27.048C36.8768 27.0025 37.2677 27.4755 37.3085 27.5251C37.3107 27.5279 37.3119 27.5293 37.3119 27.5293ZM35.2905 26.5222C35.2905 26.5222 35.3007 26.5176 35.3219 26.5059C35.3456 26.4929 35.376 26.4749 35.4129 26.4515C35.4873 26.4042 35.5706 26.3459 35.6537 26.2843C35.7357 26.2235 35.8095 26.1653 35.8637 26.1211C35.8908 26.0991 35.9108 26.0823 35.9227 26.0721C36.3761 25.6475 36.9129 25.6967 37.1233 25.7416C37.3415 25.7883 37.4967 25.8785 37.5531 25.9125C37.684 25.9911 37.7823 26.079 37.8221 26.1151C37.9205 26.2043 38.0153 26.3064 38.0789 26.3768C38.1495 26.4549 38.2153 26.5316 38.2619 26.5867C38.2715 26.5981 38.2804 26.6087 38.2886 26.6184C38.3024 26.6291 38.3177 26.638 38.3342 26.6447M35.2905 26.5222C35.0729 26.6147 34.8387 26.6626 34.602 26.6631H33.8162L33.6377 23.0957H35.4732C35.8495 23.0957 36.2167 23.2561 36.4835 23.5447C36.8467 23.9378 37.2809 24.4008 37.6457 24.7695C37.8257 24.9513 38.0046 25.1263 38.1565 25.2618C38.2295 25.3269 38.3203 25.4046 38.4154 25.4734C38.4612 25.5065 38.5363 25.5583 38.6301 25.6075C38.6313 25.6081 38.6327 25.6088 38.6342 25.6096C38.6889 25.6385 38.941 25.7715 39.2836 25.7715H40.5876C40.8335 25.7715 41.0326 25.9708 41.0326 26.2163C41.0326 26.4619 40.8338 26.6606 40.5888 26.6609C39.7774 26.6619 38.9195 26.6629 38.5614 26.663C38.5304 26.6606 38.4915 26.6585 38.4471 26.6585H38.4297L38.4123 26.659C38.3857 26.6597 38.359 26.6548 38.3342 26.6447" fill="#545E5E"/>
<path d="M1.072 77V65.56H5.92C7.12533 65.56 8.04267 65.8907 8.672 66.552C9.16267 67.064 9.408 67.7147 9.408 68.504C9.408 69.72 8.79467 70.52 7.568 70.904V70.952C8.25067 71.112 8.80533 71.432 9.232 71.912C9.65867 72.3813 9.872 72.984 9.872 73.72C9.872 74.5947 9.59467 75.3253 9.04 75.912C8.368 76.6373 7.41333 77 6.176 77H1.072ZM2.512 75.704H6.112C6.90133 75.704 7.49867 75.512 7.904 75.128C8.24533 74.7653 8.416 74.3227 8.416 73.8C8.416 73.1067 8.19733 72.5787 7.76 72.216C7.32267 71.8533 6.74133 71.672 6.016 71.672H2.512V75.704ZM2.512 70.456H5.744C6.43733 70.456 6.98133 70.2907 7.376 69.96C7.77067 69.6293 7.968 69.1707 7.968 68.584C7.968 68.0293 7.78667 67.5973 7.424 67.288C7.072 66.968 6.576 66.808 5.936 66.808H2.512V70.456ZM17.6729 77.08C16.8515 77.08 16.3769 76.6693 16.2489 75.848H16.2329C15.5502 76.7227 14.6329 77.16 13.4809 77.16C12.6595 77.16 11.9875 76.9627 11.4649 76.568C10.9422 76.1733 10.6809 75.6027 10.6809 74.856C10.6809 74.472 10.7395 74.1413 10.8569 73.864C10.9849 73.576 11.1449 73.3467 11.3369 73.176C11.5289 72.9947 11.7902 72.84 12.1209 72.712C12.4622 72.5733 12.7875 72.472 13.0969 72.408C13.4062 72.3333 13.8009 72.2587 14.2809 72.184C14.5902 72.1413 14.8089 72.1093 14.9369 72.088C15.0755 72.056 15.2515 72.0133 15.4649 71.96C15.6782 71.896 15.8275 71.8267 15.9129 71.752C15.9982 71.6773 16.0782 71.576 16.1529 71.448C16.2275 71.32 16.2649 71.1707 16.2649 71C16.2649 70.5307 16.0995 70.1733 15.7689 69.928C15.4489 69.672 14.9955 69.544 14.4089 69.544C13.0755 69.544 12.3875 70.152 12.3449 71.368H11.0969C11.1182 70.5253 11.4062 69.848 11.9609 69.336C12.5262 68.824 13.3369 68.568 14.3929 68.568C16.4302 68.568 17.4489 69.4427 17.4489 71.192V75.128C17.4489 75.4907 17.5075 75.7467 17.6249 75.896C17.7529 76.0453 17.9875 76.0827 18.3289 76.008H18.3769V76.952C18.1635 77.0373 17.9289 77.08 17.6729 77.08ZM13.7689 76.168C14.5689 76.168 15.1875 75.9387 15.6249 75.48C16.0622 75.0107 16.2809 74.4987 16.2809 73.944V72.536C15.8862 72.7813 15.2569 72.984 14.3929 73.144C14.0729 73.208 13.8222 73.2613 13.6409 73.304C13.4595 73.336 13.2515 73.4 13.0169 73.496C12.7822 73.5813 12.6062 73.6773 12.4889 73.784C12.3715 73.8907 12.2702 74.0347 12.1849 74.216C12.0995 74.3867 12.0569 74.5893 12.0569 74.824C12.0569 75.72 12.6275 76.168 13.7689 76.168ZM23.2691 77.24C22.1705 77.24 21.3011 76.7973 20.6611 75.912H20.6291V77H19.3331V65.56H20.6291V69.912H20.6611C21.3331 68.9947 22.2185 68.536 23.3171 68.536C24.3838 68.536 25.2371 68.9253 25.8771 69.704C26.5171 70.472 26.8371 71.5333 26.8371 72.888C26.8371 74.2213 26.5171 75.2827 25.8771 76.072C25.2478 76.8507 24.3785 77.24 23.2691 77.24ZM23.1731 76.152C23.9411 76.152 24.5225 75.8587 24.9171 75.272C25.3118 74.6747 25.5091 73.8853 25.5091 72.904C25.5091 71.9333 25.3118 71.1493 24.9171 70.552C24.5225 69.944 23.9465 69.64 23.1891 69.64C22.3251 69.64 21.6691 69.9493 21.2211 70.568C20.7731 71.176 20.5491 71.9547 20.5491 72.904C20.5491 73.8747 20.7731 74.6587 21.2211 75.256C21.6691 75.8533 22.3198 76.152 23.1731 76.152ZM29.0298 79.736C28.5391 79.736 28.1498 79.6773 27.8618 79.56V78.408H27.9258C28.1391 78.5253 28.4324 78.584 28.8058 78.584C29.0938 78.584 29.3338 78.5093 29.5258 78.36C29.7178 78.2213 29.8884 77.96 30.0378 77.576L30.3578 76.76L27.1258 68.728H28.5338L30.4858 73.88L31.0458 75.496H31.0778C31.2698 74.8773 31.4511 74.3387 31.6218 73.88L33.5098 68.728H34.8858L31.3498 77.672C31.0298 78.4827 30.6991 79.0267 30.3578 79.304C30.0164 79.592 29.5738 79.736 29.0298 79.736ZM41.8848 77.224C40.6794 77.224 39.7088 76.808 38.9728 75.976C38.2474 75.144 37.8848 74.1093 37.8848 72.872C37.8848 71.6347 38.2474 70.6 38.9728 69.768C39.7088 68.936 40.6794 68.52 41.8848 68.52C42.8554 68.52 43.6501 68.7813 44.2688 69.304C44.8874 69.816 45.2714 70.5147 45.4208 71.4H44.1088C44.0128 70.8347 43.7728 70.392 43.3888 70.072C43.0048 69.752 42.5034 69.592 41.8848 69.592C41.0314 69.592 40.3701 69.9013 39.9008 70.52C39.4421 71.1387 39.2128 71.9227 39.2128 72.872C39.2128 73.8213 39.4421 74.6053 39.9008 75.224C40.3701 75.832 41.0314 76.136 41.8848 76.136C42.5461 76.136 43.0741 75.96 43.4688 75.608C43.8634 75.2453 44.0874 74.7387 44.1408 74.088H45.4208C45.3354 75.08 44.9834 75.8533 44.3648 76.408C43.7461 76.952 42.9194 77.224 41.8848 77.224ZM53.2979 77.08C52.4765 77.08 52.0019 76.6693 51.8739 75.848H51.8579C51.1752 76.7227 50.2579 77.16 49.1059 77.16C48.2845 77.16 47.6125 76.9627 47.0899 76.568C46.5672 76.1733 46.3059 75.6027 46.3059 74.856C46.3059 74.472 46.3645 74.1413 46.4819 73.864C46.6099 73.576 46.7699 73.3467 46.9619 73.176C47.1539 72.9947 47.4152 72.84 47.7459 72.712C48.0872 72.5733 48.4125 72.472 48.7219 72.408C49.0312 72.3333 49.4259 72.2587 49.9059 72.184C50.2152 72.1413 50.4339 72.1093 50.5619 72.088C50.7005 72.056 50.8765 72.0133 51.0899 71.96C51.3032 71.896 51.4525 71.8267 51.5379 71.752C51.6232 71.6773 51.7032 71.576 51.7779 71.448C51.8525 71.32 51.8899 71.1707 51.8899 71C51.8899 70.5307 51.7245 70.1733 51.3939 69.928C51.0739 69.672 50.6205 69.544 50.0339 69.544C48.7005 69.544 48.0125 70.152 47.9699 71.368H46.7219C46.7432 70.5253 47.0312 69.848 47.5859 69.336C48.1512 68.824 48.9619 68.568 50.0179 68.568C52.0552 68.568 53.0739 69.4427 53.0739 71.192V75.128C53.0739 75.4907 53.1325 75.7467 53.2499 75.896C53.3779 76.0453 53.6125 76.0827 53.9539 76.008H54.0019V76.952C53.7885 77.0373 53.5539 77.08 53.2979 77.08ZM49.3939 76.168C50.1939 76.168 50.8125 75.9387 51.2499 75.48C51.6872 75.0107 51.9059 74.4987 51.9059 73.944V72.536C51.5112 72.7813 50.8819 72.984 50.0179 73.144C49.6979 73.208 49.4472 73.2613 49.2659 73.304C49.0845 73.336 48.8765 73.4 48.6419 73.496C48.4072 73.5813 48.2312 73.6773 48.1139 73.784C47.9965 73.8907 47.8952 74.0347 47.8099 74.216C47.7245 74.3867 47.6819 74.5893 47.6819 74.824C47.6819 75.72 48.2525 76.168 49.3939 76.168ZM56.2541 68.728V70.104H56.2861C56.5528 69.6667 56.8995 69.3147 57.3261 69.048C57.7528 68.7707 58.2275 68.632 58.7501 68.632C58.9421 68.632 59.1181 68.664 59.2781 68.728V69.976H59.2301C59.0701 69.9227 58.8781 69.896 58.6541 69.896C57.9928 69.896 57.4275 70.1307 56.9581 70.6C56.4888 71.0587 56.2541 71.6613 56.2541 72.408V77H54.9581V68.728H56.2541ZM63.666 77.224C62.4393 77.224 61.4633 76.8133 60.738 75.992C60.0233 75.16 59.666 74.12 59.666 72.872C59.666 71.6453 60.0287 70.616 60.754 69.784C61.49 68.9413 62.434 68.52 63.586 68.52C64.802 68.52 65.7407 68.9467 66.402 69.8C67.0633 70.6427 67.394 71.768 67.394 73.176H60.994C61.0473 74.0507 61.3033 74.7653 61.762 75.32C62.2313 75.864 62.866 76.136 63.666 76.136C64.9033 76.136 65.666 75.5707 65.954 74.44H67.218C67.026 75.3253 66.6207 76.0133 66.002 76.504C65.3833 76.984 64.6047 77.224 63.666 77.224ZM65.314 70.248C64.898 69.7787 64.322 69.544 63.586 69.544C62.85 69.544 62.2633 69.7893 61.826 70.28C61.3993 70.7707 61.1327 71.4107 61.026 72.2H66.002C65.9593 71.368 65.73 70.7173 65.314 70.248Z" fill="#838D8D"/>
</svg>
