<svg width="86" height="84" viewBox="0 0 86 84" fill="none" xmlns="http://www.w3.org/2000/svg">
<path d="M2.62231 44.6958C2.62231 49.7394 6.711 53.8281 11.7546 53.8281H50.4071C55.4508 53.8281 59.5394 49.7394 59.5394 44.6958V30.63C59.5394 14.9127 46.7981 2.17141 31.0809 2.17141C15.3636 2.17141 2.62231 14.9127 2.62231 30.63V44.6958Z" fill="white" stroke="#DEEAEA"/>
<path d="M41.2273 15.9664C41.6773 15.4714 41.7023 14.7465 41.2773 14.3165C40.8523 13.8815 40.1222 13.8965 39.6222 14.3515L35.6269 17.9363C35.3619 18.1713 35.0119 18.2913 34.7219 18.2413L33.6818 18.0713C33.3667 18.0163 33.0317 18.1313 32.7867 18.3763L32.6717 18.4913C30.1165 16.8364 26.8413 17.0714 25.5162 17.1713C24.3661 17.2563 23.526 17.6213 23.021 18.2563C22.556 18.8412 22.516 19.5012 22.536 19.8662C20.9659 21.3811 21.1059 23.281 21.2359 24.021L19.9858 25.0959C19.8858 25.1709 19.6708 25.3659 19.6008 25.7059C19.5358 26.0458 19.6308 26.4008 19.8958 26.7658C19.9408 26.8258 19.9608 26.8708 19.9708 26.8958C19.7008 27.3758 19.6108 27.8458 19.6958 28.2908V28.2957C19.7758 28.6957 19.9008 28.9907 20.0808 29.1907C20.1058 29.2307 20.0908 29.4307 19.9508 29.7107C19.8708 29.8606 19.8308 30.0256 19.8358 30.1906C19.8408 30.4706 19.9258 30.9956 20.4108 31.4056C20.9659 31.8755 21.8709 32.0205 23.096 31.8355C23.4461 31.7806 23.761 31.8705 24.0661 32.1055C25.4112 33.1405 25.9562 36.4253 26.1112 37.5652C25.6962 37.6102 25.3512 37.4902 25.1212 37.3702C24.8961 37.2453 24.6111 37.2853 24.4261 37.4652C24.2361 37.6452 24.1811 37.9302 24.2961 38.1652C24.9712 39.5851 26.2462 40.6551 28.0814 41.345C29.2314 41.78 30.4865 42 31.7766 42C32.2667 42 32.7617 41.965 33.2617 41.9C36.852 41.435 39.1272 40.4751 40.2222 38.9652C41.2373 37.5552 40.9423 36.0103 40.7673 35.0854C40.7423 34.9654 40.7223 34.8554 40.7023 34.7504C40.6573 34.4854 40.4522 34.2854 40.1872 34.2504C39.9172 34.2204 39.6622 34.3654 39.5522 34.6204C39.4772 34.8004 39.2272 34.8854 39.1121 34.9154C38.5971 34.8854 38.1921 34.7004 37.8771 34.3554C37.257 33.6754 36.962 32.3255 37.057 30.5606C37.097 29.7707 36.912 28.9507 36.507 28.1308C36.1219 27.3458 36.1519 26.4758 36.157 26.4408C36.1519 25.5459 36.0769 24.7159 35.9469 23.946L37.132 22.771C37.377 22.526 37.492 22.1861 37.442 21.8661L37.272 20.8561C37.222 20.5612 37.347 20.2112 37.5921 19.9412L41.2273 15.9664ZM36.0569 30.5056C35.9819 31.9456 36.1069 33.9004 37.137 35.0304C37.647 35.5853 38.3171 35.8853 39.1222 35.9153H39.1672L39.2072 35.9103C39.2622 35.9053 39.5572 35.8553 39.8572 35.6853C39.9972 36.4903 40.0622 37.4802 39.4122 38.3802C38.5021 39.6351 36.3869 40.4901 33.1317 40.9101C31.4966 41.125 29.8715 40.95 28.4314 40.4101C27.2413 39.9601 26.3312 39.3451 25.7162 38.5652C26.0112 38.5902 26.3513 38.5702 26.7163 38.4602C26.7413 38.4552 26.7563 38.4402 26.7813 38.4302C26.7863 38.4252 26.7913 38.4252 26.8013 38.4252C26.8713 38.4002 28.5264 37.8052 29.1714 36.0203C29.7415 34.4504 29.3465 32.5105 28.0064 30.2606C24.7111 24.7409 25.4262 22.386 25.4312 22.3711C25.5262 22.1161 25.3912 21.8261 25.1312 21.7311C24.8711 21.6361 24.5861 21.7711 24.4911 22.0311C24.4511 22.1361 23.556 24.7609 27.1463 30.7756C28.3214 32.7455 28.6914 34.3904 28.2364 35.6654C27.9714 36.4003 27.4663 36.8753 27.0663 37.1553C26.8363 35.5653 26.2112 32.4955 24.6761 31.3106C24.1511 30.9106 23.576 30.7556 22.951 30.8456C21.7359 31.0306 21.2409 30.7956 21.0559 30.6406C20.8809 30.4906 20.8409 30.3006 20.8409 30.1656C21.1759 29.5057 21.1709 28.9057 20.8258 28.5207C20.8159 28.5107 20.7408 28.4207 20.6808 28.1008C20.6358 27.8808 20.7008 27.6258 20.8659 27.3458C20.9809 27.1508 21.1109 26.7408 20.7058 26.1808C20.5908 26.0209 20.5758 25.9159 20.5658 25.9159L22.0609 24.6259C22.2359 24.4809 22.311 24.246 22.256 24.021C22.1709 23.666 21.8159 21.8361 23.351 20.4762C23.5061 20.3362 23.576 20.1312 23.546 19.9312C23.521 19.7862 23.4761 19.2962 23.8061 18.8763C24.1261 18.4713 24.7311 18.2313 25.5912 18.1663C26.7813 18.0813 29.6915 17.8663 31.9417 19.2112L30.7966 20.3462L30.1715 20.9661C29.9715 21.1611 29.9715 21.4761 30.1665 21.6761C30.2615 21.7711 30.3915 21.8211 30.5215 21.8211C30.6465 21.8211 30.7766 21.7761 30.8716 21.6761L31.4966 21.0611L31.7066 21.2711L31.0816 21.8861C30.8866 22.0811 30.8816 22.4011 31.0766 22.5961C31.1766 22.6961 31.3016 22.741 31.4316 22.741C31.5616 22.741 31.6866 22.6961 31.7866 22.5961L32.4067 21.9811L32.6167 22.1911L31.9916 22.811C31.7966 23.001 31.7917 23.321 31.9866 23.516C32.0867 23.616 32.2117 23.666 32.3417 23.666C32.4717 23.666 32.5967 23.616 32.6967 23.521L33.3218 22.901L33.5268 23.111L32.9017 23.731C32.7067 23.921 32.7017 24.241 32.8967 24.4359C32.9967 24.5359 33.1267 24.5859 33.2517 24.5859C33.3818 24.5859 33.5068 24.5359 33.6068 24.441L34.2318 23.821L34.4368 24.031L33.8118 24.6509C33.6168 24.8459 33.6168 25.1609 33.8118 25.3559C33.9068 25.4559 34.0368 25.5059 34.1668 25.5059C34.2918 25.5059 34.4218 25.4559 34.5168 25.3609L35.0619 24.8209C35.1169 25.3309 35.1569 25.8559 35.1569 26.4208C35.1519 26.4658 35.1069 27.5508 35.6119 28.5707C35.9419 29.2407 36.0919 29.8906 36.0569 30.5056ZM36.852 19.2662C36.397 19.7612 36.187 20.4162 36.287 21.0211L36.427 22.0611L35.1469 23.326L32.7667 20.9211L32.2067 20.3562L33.5218 19.0612L34.5568 19.2312C35.1519 19.3262 35.8019 19.1212 36.2969 18.6762L40.2923 15.0915C40.4073 14.9915 40.5323 14.9864 40.5673 15.0164C40.5973 15.0514 40.5923 15.1814 40.4872 15.2915L36.852 19.2662Z" fill="#545E5E"/>
<path d="M31.9715 24.6409C31.7515 24.3709 31.2915 24.3659 31.0765 24.6409C30.5014 25.3558 29.5364 26.6708 29.5364 27.4907C29.5364 28.5857 30.4264 29.4756 31.5215 29.4756C32.6166 29.4756 33.5067 28.5857 33.5067 27.4907C33.5067 26.6708 32.5416 25.3558 31.9715 24.6409ZM31.5215 28.4757C30.9815 28.4757 30.5364 28.0357 30.5364 27.4907C30.5364 27.2007 30.9365 26.4858 31.5215 25.6959C32.1065 26.4858 32.5066 27.2007 32.5066 27.4907C32.5066 28.0357 32.0666 28.4757 31.5215 28.4757Z" fill="#545E5E"/>
<path d="M7.65305 77V65.56H12.5011C13.7064 65.56 14.6237 65.8907 15.2531 66.552C15.7437 67.064 15.9891 67.7147 15.9891 68.504C15.9891 69.72 15.3757 70.52 14.1491 70.904V70.952C14.8317 71.112 15.3864 71.432 15.8131 71.912C16.2397 72.3813 16.4531 72.984 16.4531 73.72C16.4531 74.5947 16.1757 75.3253 15.6211 75.912C14.9491 76.6373 13.9944 77 12.7571 77H7.65305ZM9.09305 75.704H12.6931C13.4824 75.704 14.0797 75.512 14.4851 75.128C14.8264 74.7653 14.9971 74.3227 14.9971 73.8C14.9971 73.1067 14.7784 72.5787 14.3411 72.216C13.9037 71.8533 13.3224 71.672 12.5971 71.672H9.09305V75.704ZM9.09305 70.456H12.3251C13.0184 70.456 13.5624 70.2907 13.9571 69.96C14.3517 69.6293 14.5491 69.1707 14.5491 68.584C14.5491 68.0293 14.3677 67.5973 14.0051 67.288C13.6531 66.968 13.1571 66.808 12.5171 66.808H9.09305V70.456ZM21.2939 77.224C20.0673 77.224 19.0913 76.8133 18.3659 75.992C17.6513 75.16 17.2939 74.12 17.2939 72.872C17.2939 71.6453 17.6566 70.616 18.3819 69.784C19.1179 68.9413 20.0619 68.52 21.2139 68.52C22.4299 68.52 23.3686 68.9467 24.0299 69.8C24.6913 70.6427 25.0219 71.768 25.0219 73.176H18.6219C18.6753 74.0507 18.9313 74.7653 19.3899 75.32C19.8593 75.864 20.4939 76.136 21.2939 76.136C22.5313 76.136 23.2939 75.5707 23.5819 74.44H24.8459C24.6539 75.3253 24.2486 76.0133 23.6299 76.504C23.0113 76.984 22.2326 77.224 21.2939 77.224ZM22.9419 70.248C22.5259 69.7787 21.9499 69.544 21.2139 69.544C20.4779 69.544 19.8913 69.7893 19.4539 70.28C19.0273 70.7707 18.7606 71.4107 18.6539 72.2H23.6299C23.5873 71.368 23.3579 70.7173 22.9419 70.248ZM32.7852 77.08C31.9638 77.08 31.4892 76.6693 31.3612 75.848H31.3452C30.6625 76.7227 29.7452 77.16 28.5932 77.16C27.7718 77.16 27.0998 76.9627 26.5772 76.568C26.0545 76.1733 25.7932 75.6027 25.7932 74.856C25.7932 74.472 25.8518 74.1413 25.9692 73.864C26.0972 73.576 26.2572 73.3467 26.4492 73.176C26.6412 72.9947 26.9025 72.84 27.2332 72.712C27.5745 72.5733 27.8998 72.472 28.2092 72.408C28.5185 72.3333 28.9132 72.2587 29.3932 72.184C29.7025 72.1413 29.9212 72.1093 30.0492 72.088C30.1878 72.056 30.3638 72.0133 30.5772 71.96C30.7905 71.896 30.9398 71.8267 31.0252 71.752C31.1105 71.6773 31.1905 71.576 31.2652 71.448C31.3398 71.32 31.3772 71.1707 31.3772 71C31.3772 70.5307 31.2118 70.1733 30.8812 69.928C30.5612 69.672 30.1078 69.544 29.5212 69.544C28.1878 69.544 27.4998 70.152 27.4572 71.368H26.2092C26.2305 70.5253 26.5185 69.848 27.0732 69.336C27.6385 68.824 28.4492 68.568 29.5052 68.568C31.5425 68.568 32.5612 69.4427 32.5612 71.192V75.128C32.5612 75.4907 32.6198 75.7467 32.7372 75.896C32.8652 76.0453 33.0998 76.0827 33.4412 76.008H33.4892V76.952C33.2758 77.0373 33.0412 77.08 32.7852 77.08ZM28.8812 76.168C29.6812 76.168 30.2998 75.9387 30.7372 75.48C31.1745 75.0107 31.3932 74.4987 31.3932 73.944V72.536C30.9985 72.7813 30.3692 72.984 29.5052 73.144C29.1852 73.208 28.9345 73.2613 28.7532 73.304C28.5718 73.336 28.3638 73.4 28.1292 73.496C27.8945 73.5813 27.7185 73.6773 27.6012 73.784C27.4838 73.8907 27.3825 74.0347 27.2972 74.216C27.2118 74.3867 27.1692 74.5893 27.1692 74.824C27.1692 75.72 27.7398 76.168 28.8812 76.168ZM41.0054 77H39.7094V75.864H39.6774C39.0268 76.7493 38.1948 77.192 37.1814 77.192C36.3281 77.192 35.6508 76.952 35.1494 76.472C34.6481 75.9813 34.3974 75.3093 34.3974 74.456V68.728H35.6934V74.424C35.6934 74.9573 35.8534 75.3733 36.1734 75.672C36.5041 75.9707 36.9628 76.12 37.5494 76.12C38.2001 76.12 38.7228 75.9013 39.1174 75.464C39.5121 75.0267 39.7094 74.4773 39.7094 73.816V68.728H41.0054V77ZM42.2299 69.784V68.728H43.4299V66.12H44.7259V68.728H46.3259V69.784H44.7259V75.16C44.7259 75.672 45.0033 75.928 45.5579 75.928C45.7926 75.928 46.0219 75.8907 46.2459 75.816H46.2939V76.936C45.9419 77.0107 45.5953 77.048 45.2539 77.048C44.0379 77.048 43.4299 76.5147 43.4299 75.448V69.784H42.2299ZM48.7202 79.736C48.2295 79.736 47.8402 79.6773 47.5522 79.56V78.408H47.6162C47.8295 78.5253 48.1228 78.584 48.4962 78.584C48.7842 78.584 49.0242 78.5093 49.2162 78.36C49.4082 78.2213 49.5788 77.96 49.7282 77.576L50.0482 76.76L46.8162 68.728H48.2242L50.1762 73.88L50.7362 75.496H50.7682C50.9602 74.8773 51.1415 74.3387 51.3122 73.88L53.2002 68.728H54.5762L51.0402 77.672C50.7202 78.4827 50.3895 79.0267 50.0482 79.304C49.7068 79.592 49.2642 79.736 48.7202 79.736Z" fill="#838D8D"/>
</svg>
