<svg width="63" height="84" viewBox="0 0 63 84" fill="none" xmlns="http://www.w3.org/2000/svg">
<path d="M2.56836 44.6958C2.56836 49.7394 6.65704 53.8281 11.7007 53.8281H50.3532C55.3968 53.8281 59.4855 49.7394 59.4855 44.6958V30.63C59.4855 14.9127 46.7441 2.17141 31.0269 2.17141C15.3097 2.17141 2.56836 14.9127 2.56836 30.63V44.6958Z" fill="white" stroke="#DEEAEA"/>
<path d="M42.1069 18.8122C42.5856 18.799 42.9716 18.4076 42.9716 17.9258V15.5554C42.9716 15.0652 42.5728 14.6665 42.0827 14.6665H22.5272C22.037 14.6665 21.6383 15.0652 21.6383 15.5554V17.9258C21.6383 18.4076 22.0242 18.799 22.503 18.8122L21.8 27.7035H18.0827C17.5926 27.7035 17.1938 28.1023 17.1938 28.5924V29.185C17.1938 29.6752 17.5926 30.0739 18.0827 30.0739V32.7406C18.0827 35.2571 19.1723 37.5218 20.9023 39.094L20.8006 40.3743C20.7817 40.6214 20.8672 40.8673 21.0351 41.0487C21.2025 41.2296 21.4396 41.3332 21.6857 41.3332H43.5642C43.6468 41.3332 43.7256 41.2987 43.7818 41.238C43.8379 41.1772 43.8661 41.0959 43.8596 41.0134L42.1069 18.8122ZM41.6516 20.5769L43.231 40.581L41.9959 39.3459C41.8875 39.2377 41.7143 39.2299 41.5967 39.3277L40.3496 40.367L41.6516 20.5769ZM41.7682 39.9561L42.5526 40.7406H40.827L41.7682 39.9561ZM22.5272 15.2591H42.0827C42.246 15.2591 42.379 15.3919 42.379 15.5554V16.4443H22.2309V15.5554C22.2309 15.3919 22.3638 15.2591 22.5272 15.2591ZM22.2309 17.9258V17.0369H42.379V17.9258C42.379 18.0892 42.246 18.2221 42.0827 18.2221H22.5272C22.3638 18.2221 22.2309 18.0892 22.2309 17.9258ZM23.0972 18.8147H41.1736L39.7311 40.7406H33.9344C37.1373 39.491 39.416 36.3804 39.416 32.7406V30.0739C39.9062 30.0739 40.3049 29.6752 40.3049 29.185V28.5924C40.3049 28.1023 39.9062 27.7035 39.416 27.7035H32.3049V26.5491C32.4736 26.5732 32.6443 26.5895 32.8175 26.5895C33.576 26.5895 34.376 26.3702 35.1079 25.9465C36.1331 25.3539 36.8797 24.4502 37.1612 23.4665C37.182 23.3895 37.1731 23.3065 37.1316 23.2384C37.0931 23.1672 37.0249 23.1169 36.9479 23.0991C35.9553 22.8502 34.7998 23.0458 33.7746 23.6354C33.1767 23.9823 32.6751 24.4352 32.3049 24.947V23.2898C32.4736 23.314 32.6443 23.3302 32.8175 23.3302C33.576 23.3302 34.376 23.1109 35.1079 22.6872C36.1331 22.0947 36.8797 21.1909 37.1612 20.2072C37.182 20.1302 37.1731 20.0472 37.1316 19.9791C37.0931 19.908 37.0249 19.8576 36.9479 19.8398C35.9553 19.5909 34.7998 19.7865 33.7746 20.3761C33.1767 20.723 32.6751 21.1759 32.3049 21.6877V20.8887C32.3049 20.725 32.1723 20.5924 32.0086 20.5924C31.845 20.5924 31.7123 20.725 31.7123 20.8887V21.6877C31.3421 21.1759 30.8406 20.723 30.2427 20.3761C29.2175 19.7865 28.062 19.5909 27.0694 19.8398C26.9923 19.8576 26.9242 19.908 26.8857 19.9791C26.8442 20.0472 26.8353 20.1302 26.856 20.2072C26.9953 20.6991 27.2531 21.1702 27.6027 21.5939C27.9553 22.0176 28.3968 22.391 28.9094 22.6872C29.6412 23.1109 30.4412 23.3302 31.1998 23.3302C31.373 23.3302 31.5437 23.314 31.7123 23.2898V24.947C31.3421 24.4352 30.8406 23.9823 30.2427 23.6354C29.2175 23.0458 28.062 22.8502 27.0694 23.0991C26.9923 23.1169 26.9242 23.1672 26.8857 23.2384C26.8442 23.3065 26.8353 23.3895 26.856 23.4665C26.9953 23.9584 27.2531 24.4295 27.6027 24.8532C27.9553 25.2769 28.3968 25.6502 28.9094 25.9465C29.6412 26.3702 30.4412 26.5895 31.1998 26.5895C31.373 26.5895 31.5437 26.5732 31.7123 26.5491V27.7035H22.3946L23.0972 18.8147ZM32.3997 25.9702C32.696 25.2532 33.2916 24.6013 34.0709 24.151C34.8531 23.6976 35.7123 23.5109 36.4827 23.6117C36.1864 24.3317 35.5938 24.9806 34.8116 25.4339C34.0323 25.8843 33.1701 26.0739 32.3997 25.9702ZM32.3997 22.7109C32.696 21.9939 33.2916 21.3421 34.0709 20.8917C34.8531 20.4384 35.7123 20.2517 36.4827 20.3524C36.1864 21.0724 35.5938 21.7213 34.8116 22.1746C34.0323 22.625 33.1701 22.8147 32.3997 22.7109ZM31.6175 22.7109C30.8472 22.8147 29.9849 22.625 29.2057 22.1746C28.4235 21.7213 27.8309 21.0724 27.5346 20.3524C28.3049 20.2517 29.1642 20.4413 29.9464 20.8917C30.7257 21.3421 31.3212 21.9939 31.6175 22.7109ZM31.6175 25.9702C30.8472 26.0739 29.9849 25.8843 29.2057 25.4339C28.4235 24.9806 27.8309 24.3317 27.5346 23.6117C28.3049 23.5109 29.1642 23.6976 29.9464 24.151C30.7257 24.6013 31.3212 25.2532 31.6175 25.9702ZM17.7864 29.185V28.5924C17.7864 28.4289 17.9194 28.2961 18.0827 28.2961H39.416C39.5794 28.2961 39.7123 28.4289 39.7123 28.5924V29.185C39.7123 29.3485 39.5794 29.4813 39.416 29.4813H18.0827C17.9194 29.4813 17.7864 29.3485 17.7864 29.185ZM18.6753 32.7406V30.0739H38.8234V32.7406C38.8234 37.1517 35.2346 40.7406 30.8235 40.7406H26.6753C22.2642 40.7406 18.6753 37.1517 18.6753 32.7406ZM21.4699 40.646C21.4129 40.5843 21.385 40.5039 21.3915 40.4203L21.4598 39.5603C22.0967 40.0482 22.8054 40.4445 23.5644 40.7406H21.6857C21.603 40.7406 21.5263 40.707 21.4699 40.646Z" fill="#545E5E"/>
<path d="M10.5271 77.224C8.91643 77.224 7.62043 76.6693 6.6391 75.56C5.65777 74.4507 5.1671 73.0213 5.1671 71.272C5.1671 69.544 5.65243 68.12 6.6231 67C7.60443 65.8693 8.9271 65.304 10.5911 65.304C11.8924 65.304 12.9431 65.64 13.7431 66.312C14.5431 66.984 15.0231 67.864 15.1831 68.952H13.7751C13.6364 68.2267 13.2844 67.6453 12.7191 67.208C12.1644 66.7707 11.4444 66.552 10.5591 66.552C9.33243 66.552 8.37243 66.9947 7.6791 67.88C6.98577 68.7547 6.6391 69.8853 6.6391 71.272C6.6391 72.68 6.99643 73.816 7.7111 74.68C8.43643 75.5333 9.3911 75.96 10.5751 75.96C11.5991 75.96 12.3884 75.6613 12.9431 75.064C13.5084 74.4667 13.8284 73.7147 13.9031 72.808H15.3271C15.3164 73.3733 15.1831 73.9547 14.9271 74.552C14.6818 75.1387 14.3564 75.6293 13.9511 76.024C13.1298 76.824 11.9884 77.224 10.5271 77.224ZM20.2868 77.224C19.0602 77.224 18.0842 76.8133 17.3588 75.992C16.6442 75.16 16.2868 74.12 16.2868 72.872C16.2868 71.6453 16.6495 70.616 17.3748 69.784C18.1108 68.9413 19.0548 68.52 20.2069 68.52C21.4228 68.52 22.3615 68.9467 23.0229 69.8C23.6842 70.6427 24.0148 71.768 24.0148 73.176H17.6148C17.6682 74.0507 17.9242 74.7653 18.3828 75.32C18.8522 75.864 19.4868 76.136 20.2868 76.136C21.5242 76.136 22.2868 75.5707 22.5749 74.44H23.8389C23.6468 75.3253 23.2415 76.0133 22.6228 76.504C22.0042 76.984 21.2255 77.224 20.2868 77.224ZM21.9348 70.248C21.5188 69.7787 20.9428 69.544 20.2069 69.544C19.4708 69.544 18.8842 69.7893 18.4468 70.28C18.0202 70.7707 17.7535 71.4107 17.6468 72.2H22.6228C22.5802 71.368 22.3508 70.7173 21.9348 70.248ZM26.5781 68.728V70.104H26.6101C26.8768 69.6667 27.2234 69.3147 27.6501 69.048C28.0768 68.7707 28.5514 68.632 29.0741 68.632C29.2661 68.632 29.4421 68.664 29.6021 68.728V69.976H29.5541C29.3941 69.9227 29.2021 69.896 28.9781 69.896C28.3168 69.896 27.7514 70.1307 27.2821 70.6C26.8128 71.0587 26.5781 71.6613 26.5781 72.408V77H25.2821V68.728H26.5781ZM33.99 77.224C32.7633 77.224 31.7873 76.8133 31.062 75.992C30.3473 75.16 29.99 74.12 29.99 72.872C29.99 71.6453 30.3526 70.616 31.078 69.784C31.814 68.9413 32.758 68.52 33.91 68.52C35.126 68.52 36.0646 68.9467 36.726 69.8C37.3873 70.6427 37.718 71.768 37.718 73.176H31.318C31.3713 74.0507 31.6273 74.7653 32.086 75.32C32.5553 75.864 33.19 76.136 33.99 76.136C35.2273 76.136 35.99 75.5707 36.278 74.44H37.542C37.35 75.3253 36.9446 76.0133 36.326 76.504C35.7073 76.984 34.9286 77.224 33.99 77.224ZM35.638 70.248C35.222 69.7787 34.646 69.544 33.91 69.544C33.174 69.544 32.5873 69.7893 32.15 70.28C31.7233 70.7707 31.4566 71.4107 31.35 72.2H36.326C36.2833 71.368 36.054 70.7173 35.638 70.248ZM45.4812 77.08C44.6599 77.08 44.1852 76.6693 44.0572 75.848H44.0412C43.3586 76.7227 42.4412 77.16 41.2892 77.16C40.4679 77.16 39.7959 76.9627 39.2732 76.568C38.7506 76.1733 38.4892 75.6027 38.4892 74.856C38.4892 74.472 38.5479 74.1413 38.6652 73.864C38.7932 73.576 38.9532 73.3467 39.1452 73.176C39.3372 72.9947 39.5986 72.84 39.9292 72.712C40.2706 72.5733 40.5959 72.472 40.9052 72.408C41.2146 72.3333 41.6092 72.2587 42.0892 72.184C42.3986 72.1413 42.6172 72.1093 42.7452 72.088C42.8839 72.056 43.0599 72.0133 43.2732 71.96C43.4866 71.896 43.6359 71.8267 43.7212 71.752C43.8066 71.6773 43.8866 71.576 43.9612 71.448C44.0359 71.32 44.0732 71.1707 44.0732 71C44.0732 70.5307 43.9079 70.1733 43.5772 69.928C43.2572 69.672 42.8039 69.544 42.2172 69.544C40.8839 69.544 40.1959 70.152 40.1532 71.368H38.9052C38.9266 70.5253 39.2146 69.848 39.7692 69.336C40.3346 68.824 41.1452 68.568 42.2012 68.568C44.2386 68.568 45.2572 69.4427 45.2572 71.192V75.128C45.2572 75.4907 45.3159 75.7467 45.4332 75.896C45.5612 76.0453 45.7959 76.0827 46.1372 76.008H46.1852V76.952C45.9719 77.0373 45.7372 77.08 45.4812 77.08ZM41.5772 76.168C42.3772 76.168 42.9959 75.9387 43.4332 75.48C43.8706 75.0107 44.0892 74.4987 44.0892 73.944V72.536C43.6946 72.7813 43.0652 72.984 42.2012 73.144C41.8812 73.208 41.6306 73.2613 41.4492 73.304C41.2679 73.336 41.0599 73.4 40.8252 73.496C40.5906 73.5813 40.4146 73.6773 40.2972 73.784C40.1799 73.8907 40.0786 74.0347 39.9932 74.216C39.9079 74.3867 39.8652 74.5893 39.8652 74.824C39.8652 75.72 40.4359 76.168 41.5772 76.168ZM47.1895 77V65.56H48.4855V77H47.1895ZM53.4337 77.24C52.3031 77.24 51.4231 76.9893 50.7937 76.488C50.1751 75.976 49.8337 75.2507 49.7697 74.312H51.0977C51.2471 75.5387 52.0364 76.152 53.4657 76.152C54.1164 76.152 54.5964 76.0293 54.9057 75.784C55.2257 75.528 55.3857 75.1973 55.3857 74.792C55.3857 74.3547 55.2311 74.04 54.9217 73.848C54.6124 73.656 54.0471 73.4747 53.2257 73.304C52.8844 73.2293 52.6124 73.1707 52.4097 73.128C52.2177 73.0747 51.9831 73.0053 51.7057 72.92C51.4284 72.824 51.2097 72.7227 51.0497 72.616C50.9004 72.4987 50.7457 72.36 50.5857 72.2C50.4257 72.04 50.3084 71.8427 50.2337 71.608C50.1697 71.3733 50.1377 71.112 50.1377 70.824C50.1377 70.12 50.3937 69.5653 50.9057 69.16C51.4284 68.7547 52.1644 68.552 53.1137 68.552C55.0764 68.552 56.1591 69.416 56.3617 71.144H55.0337C54.9697 70.6 54.7831 70.2053 54.4737 69.96C54.1644 69.704 53.7004 69.576 53.0817 69.576C52.5164 69.576 52.0951 69.688 51.8177 69.912C51.5511 70.1253 51.4177 70.408 51.4177 70.76C51.4177 71.1653 51.5777 71.4533 51.8977 71.624C52.2177 71.784 52.7991 71.9493 53.6417 72.12C54.1537 72.2267 54.5537 72.328 54.8417 72.424C55.1404 72.5093 55.4497 72.648 55.7697 72.84C56.0897 73.0213 56.3244 73.2667 56.4737 73.576C56.6231 73.8853 56.6977 74.2693 56.6977 74.728C56.6977 75.5387 56.3991 76.1627 55.8017 76.6C55.2044 77.0267 54.4151 77.24 53.4337 77.24Z" fill="#838D8D"/>
</svg>
