<svg width="86" height="84" viewBox="0 0 86 84" fill="none" xmlns="http://www.w3.org/2000/svg">
<path d="M2.73047 44.6958C2.73047 49.7394 6.81915 53.8281 11.8628 53.8281H50.5153C55.5589 53.8281 59.6476 49.7394 59.6476 44.6958V30.63C59.6476 14.9127 46.9063 2.17141 31.189 2.17141C15.4718 2.17141 2.73047 14.9127 2.73047 30.63V44.6958Z" fill="white" stroke="#DEEAEA"/>
<path d="M44.0226 25.7589C44.0226 25.7325 44.0184 25.7071 44.0123 25.6826V22.862C44.0121 22.8419 44.0101 22.822 44.006 22.8023C44.0017 22.7792 43.9949 22.7567 43.9857 22.735C43.9849 22.7332 43.9838 22.7316 43.983 22.7299C43.9781 22.7188 43.9724 22.7079 43.9662 22.6974L41.6744 18.9201V18.2292C41.6744 17.7353 41.253 17.3335 40.735 17.3335H33.4325C32.9146 17.3335 32.4933 17.7353 32.4933 18.2292V18.9209L30.2019 22.6974C30.196 22.7076 30.1906 22.718 30.1858 22.7286C30.1847 22.7309 30.1833 22.7331 30.1823 22.7354C30.1749 22.7526 30.1691 22.7704 30.165 22.7886C30.1638 22.7933 30.1629 22.7981 30.1619 22.8029C30.1581 22.8221 30.156 22.8415 30.1558 22.8611V30.8399H28.7476V28.0455C28.7476 27.3008 28.4485 26.596 27.9051 26.0611C27.4882 25.6505 27.3022 25.3209 27.2636 24.9025H27.2654C27.3563 24.9025 27.4434 24.8681 27.5077 24.8068C27.572 24.7455 27.6081 24.6624 27.6081 24.5757V23.3291C27.6081 22.8942 27.237 22.5404 26.781 22.5404H24.3484C23.8923 22.5404 23.5213 22.8942 23.5213 23.3291V24.5757C23.5213 24.6624 23.5574 24.7455 23.6217 24.8068C23.686 24.8681 23.7731 24.9025 23.864 24.9025H23.8976C23.8592 25.3209 23.6731 25.6505 23.2561 26.061C22.7127 26.596 22.4136 27.3008 22.4136 28.0455V30.8399H21.0971C19.7475 30.8399 18.6496 31.8869 18.6496 33.1738V36.5792H18.6256C17.9256 36.5792 17.356 37.1224 17.356 37.79V38.3333C17.356 38.42 17.3921 38.5031 17.4563 38.5644C17.5206 38.6257 17.6078 38.6602 17.6987 38.6602H35.0012V38.6668H43.6695C43.7604 38.6668 43.8475 38.6324 43.9118 38.5711C43.9761 38.5098 44.0122 38.4267 44.0122 38.34V35.5042C44.0184 35.4796 44.0226 35.4542 44.0226 35.4278V25.7589H44.0226ZM30.8414 23.188H38.651V25.4321H30.8414V23.188ZM41.3317 19.6605L43.0753 22.5343H39.5881L41.3317 19.6605ZM39.3365 26.0857H43.3267V35.101H39.3365V26.0857ZM39.3365 25.4321V23.1879H43.3267V25.4321H39.3365ZM33.1788 18.2292C33.1788 18.1651 33.2056 18.1036 33.2532 18.0582C33.3007 18.0128 33.3652 17.9873 33.4325 17.9872H40.735C40.8023 17.9873 40.8669 18.0128 40.9144 18.0582C40.962 18.1035 40.9888 18.1651 40.9889 18.2292V18.6818H33.1788V18.2292ZM33.0337 19.3355H40.7369L38.7961 22.5343H31.093L33.0337 19.3355ZM30.8414 26.0857H38.651V35.101H34.2535V33.2426C34.4162 33.27 34.581 33.2839 34.7462 33.2839C36.302 33.2839 37.5677 32.077 37.5677 30.5934C37.5677 29.1098 36.302 27.9028 34.7462 27.9028C33.1905 27.9028 31.9247 29.1098 31.9247 30.5934C31.9247 30.6771 31.9303 30.7604 31.9383 30.8433C31.8942 30.841 31.8501 30.8399 31.8059 30.8398H30.8413L30.8414 26.0857ZM31.806 31.4935C32.7775 31.4935 33.568 32.2472 33.568 33.1737V36.5792H29.1713V33.1737C29.1713 32.5143 28.8826 31.9184 28.4199 31.4935H31.806ZM32.6102 30.5934C32.6102 29.4702 33.5685 28.5565 34.7462 28.5565C35.924 28.5565 36.8822 29.4703 36.8822 30.5934C36.8822 31.7165 35.924 32.6302 34.7462 32.6302C34.5478 32.6302 34.353 32.6031 34.1647 32.5524C33.9541 31.8264 33.3846 31.2412 32.6501 30.983C32.6238 30.8546 32.6105 30.7242 32.6102 30.5934ZM24.2067 23.329C24.2067 23.2545 24.2703 23.194 24.3483 23.194H26.7809C26.8591 23.194 26.9225 23.2546 26.9225 23.329V24.2488H24.2067V23.329ZM23.7485 26.5157C24.1548 26.1156 24.5325 25.6426 24.5844 24.9024H26.5768C26.6287 25.6426 27.0064 26.1156 27.4127 26.5157C27.8314 26.9282 28.0621 27.4714 28.0621 28.0454V30.8398H23.099V28.0454C23.0978 27.4742 23.3309 26.9252 23.7485 26.5157ZM19.3351 33.1737C19.3351 32.2472 20.1255 31.4935 21.0971 31.4935H26.7238C27.6954 31.4935 28.4858 32.2472 28.4858 33.1737V36.5792H19.3351V33.1737ZM34.6584 38.0065H18.0415V37.79C18.0415 37.4828 18.3035 37.2329 18.6256 37.2329H34.0742C34.3963 37.2329 34.6583 37.4828 34.6583 37.79V38.0065H34.6584ZM34.2535 36.5927V35.7547H38.651V38.0131H35.3439V37.79C35.3439 37.1805 34.8688 36.6762 34.2535 36.5927ZM39.3365 38.0131V35.7547H43.3267V38.0131H39.3365Z" fill="#545E5E"/>
<path d="M14.2612 77V65.56H18.4212C20.0959 65.56 21.3599 66.0773 22.2132 67.112C23.0665 68.1467 23.4932 69.5493 23.4932 71.32C23.4932 73.08 23.0505 74.4667 22.1652 75.48C21.2799 76.4933 19.9945 77 18.3092 77H14.2612ZM15.7012 75.736H18.2612C20.7679 75.736 22.0212 74.264 22.0212 71.32C22.0212 68.312 20.8052 66.808 18.3732 66.808H15.7012V75.736ZM31.3465 77.08C30.5251 77.08 30.0505 76.6693 29.9225 75.848H29.9065C29.2238 76.7227 28.3065 77.16 27.1545 77.16C26.3331 77.16 25.6611 76.9627 25.1385 76.568C24.6158 76.1733 24.3545 75.6027 24.3545 74.856C24.3545 74.472 24.4131 74.1413 24.5305 73.864C24.6585 73.576 24.8185 73.3467 25.0105 73.176C25.2025 72.9947 25.4638 72.84 25.7945 72.712C26.1358 72.5733 26.4611 72.472 26.7705 72.408C27.0798 72.3333 27.4745 72.2587 27.9545 72.184C28.2638 72.1413 28.4825 72.1093 28.6105 72.088C28.7491 72.056 28.9251 72.0133 29.1385 71.96C29.3518 71.896 29.5011 71.8267 29.5865 71.752C29.6718 71.6773 29.7518 71.576 29.8265 71.448C29.9011 71.32 29.9385 71.1707 29.9385 71C29.9385 70.5307 29.7731 70.1733 29.4425 69.928C29.1225 69.672 28.6691 69.544 28.0825 69.544C26.7491 69.544 26.0611 70.152 26.0185 71.368H24.7705C24.7918 70.5253 25.0798 69.848 25.6345 69.336C26.1998 68.824 27.0105 68.568 28.0665 68.568C30.1038 68.568 31.1225 69.4427 31.1225 71.192V75.128C31.1225 75.4907 31.1811 75.7467 31.2985 75.896C31.4265 76.0453 31.6611 76.0827 32.0025 76.008H32.0505V76.952C31.8371 77.0373 31.6025 77.08 31.3465 77.08ZM27.4425 76.168C28.2425 76.168 28.8611 75.9387 29.2985 75.48C29.7358 75.0107 29.9545 74.4987 29.9545 73.944V72.536C29.5598 72.7813 28.9305 72.984 28.0665 73.144C27.7465 73.208 27.4958 73.2613 27.3145 73.304C27.1331 73.336 26.9251 73.4 26.6905 73.496C26.4558 73.5813 26.2798 73.6773 26.1625 73.784C26.0451 73.8907 25.9438 74.0347 25.8585 74.216C25.7731 74.3867 25.7305 74.5893 25.7305 74.824C25.7305 75.72 26.3011 76.168 27.4425 76.168ZM33.0067 77V68.728H34.3027V77H33.0067ZM33.0067 67.16V65.56H34.3027V67.16H33.0067ZM37.3652 68.728V70.104H37.3972C37.6639 69.6667 38.0105 69.3147 38.4372 69.048C38.8639 68.7707 39.3385 68.632 39.8612 68.632C40.0532 68.632 40.2292 68.664 40.3892 68.728V69.976H40.3412C40.1812 69.9227 39.9892 69.896 39.7652 69.896C39.1039 69.896 38.5385 70.1307 38.0692 70.6C37.5999 71.0587 37.3652 71.6613 37.3652 72.408V77H36.0692V68.728H37.3652ZM42.6096 79.736C42.1189 79.736 41.7296 79.6773 41.4416 79.56V78.408H41.5056C41.7189 78.5253 42.0123 78.584 42.3856 78.584C42.6736 78.584 42.9136 78.5093 43.1056 78.36C43.2976 78.2213 43.4683 77.96 43.6176 77.576L43.9376 76.76L40.7056 68.728H42.1136L44.0656 73.88L44.6256 75.496H44.6576C44.8496 74.8773 45.0309 74.3387 45.2016 73.88L47.0896 68.728H48.4656L44.9296 77.672C44.6096 78.4827 44.2789 79.0267 43.9376 79.304C43.5963 79.592 43.1536 79.736 42.6096 79.736Z" fill="#838D8D"/>
</svg>
