<svg width="63" height="84" viewBox="0 0 63 84" fill="none" xmlns="http://www.w3.org/2000/svg">
<path d="M2.67651 44.6958C2.67651 49.7394 6.7652 53.8281 11.8088 53.8281H50.4613C55.505 53.8281 59.5936 49.7394 59.5936 44.6958V30.63C59.5936 14.9127 46.8523 2.17141 31.1351 2.17141C15.4178 2.17141 2.67651 14.9127 2.67651 30.63V44.6958Z" fill="white" stroke="#DEEAEA"/>
<path d="M30.6352 32.3332C31.5552 32.3332 32.3018 31.5866 32.3018 30.6666C32.3018 29.8666 31.1418 28.1466 30.9085 27.8132C30.7818 27.6332 30.4818 27.6332 30.3618 27.8132C30.1285 28.1466 28.9685 29.8666 28.9685 30.6666C28.9685 31.5866 29.7152 32.3332 30.6352 32.3332ZM30.6352 28.5999C31.1152 29.3466 31.6352 30.2999 31.6352 30.6666C31.6352 31.2199 31.1885 31.6666 30.6352 31.6666C30.0818 31.6666 29.6352 31.2199 29.6352 30.6666C29.6352 30.2999 30.1552 29.3532 30.6352 28.5999Z" fill="#545E5E"/>
<path d="M26.3753 22.0735C25.682 22.7668 25.302 23.6868 25.302 24.6668V26.0002V34.0002V40.0002C25.302 40.9202 26.0487 41.6668 26.9687 41.6668H34.302C35.222 41.6668 35.9687 40.9202 35.9687 40.0002V34.0002V26.0002V24.6668C35.9687 23.6868 35.5887 22.7668 34.8953 22.0735C33.4353 20.6202 32.6353 18.8068 32.6353 16.9802V16.9402C33.022 16.8002 33.302 16.4335 33.302 16.0002V15.3335C33.302 14.7802 32.8553 14.3335 32.302 14.3335H28.9687C28.4153 14.3335 27.9687 14.7802 27.9687 15.3335V16.0002C27.9687 16.4335 28.2487 16.8002 28.6353 16.9402V16.9868C28.6353 18.8068 27.8353 20.6202 26.3753 22.0735ZM35.302 40.0002C35.302 40.5535 34.8553 41.0002 34.302 41.0002H26.9687C26.4153 41.0002 25.9687 40.5535 25.9687 40.0002V34.3335H35.302V40.0002ZM35.302 27.6668H32.302C32.1153 27.6668 31.9687 27.8135 31.9687 28.0002C31.9687 28.1868 32.1153 28.3335 32.302 28.3335H35.302V29.6668H32.9687C32.782 29.6668 32.6353 29.8135 32.6353 30.0002C32.6353 30.1868 32.782 30.3335 32.9687 30.3335H35.302V31.6668H32.9687C32.782 31.6668 32.6353 31.8135 32.6353 32.0002C32.6353 32.1868 32.782 32.3335 32.9687 32.3335H35.302V33.6668H25.9687V32.3335H28.302C28.4887 32.3335 28.6353 32.1868 28.6353 32.0002C28.6353 31.8135 28.4887 31.6668 28.302 31.6668H25.9687V30.3335H28.302C28.4887 30.3335 28.6353 30.1868 28.6353 30.0002C28.6353 29.8135 28.4887 29.6668 28.302 29.6668H25.9687V28.3335H28.9687C29.1553 28.3335 29.302 28.1868 29.302 28.0002C29.302 27.8135 29.1553 27.6668 28.9687 27.6668H25.9687V26.3335H35.302V27.6668ZM28.6353 15.3335C28.6353 15.1468 28.782 15.0002 28.9687 15.0002H32.302C32.4887 15.0002 32.6353 15.1468 32.6353 15.3335V16.0002C32.6353 16.1868 32.4887 16.3335 32.302 16.3335H28.9687C28.782 16.3335 28.6353 16.1868 28.6353 16.0002V15.3335ZM29.302 17.0002H31.9687C31.9753 19.0002 32.842 20.9668 34.422 22.5468C34.9887 23.1135 35.302 23.8668 35.302 24.6668V25.6668H25.9687V24.6668C25.9687 23.8668 26.282 23.1135 26.8487 22.5468C28.4287 20.9668 29.2953 19.0002 29.302 17.0002Z" fill="#545E5E"/>
<path d="M10.2073 77V65.56H14.3673C16.0419 65.56 17.3059 66.0773 18.1593 67.112C19.0126 68.1467 19.4393 69.5493 19.4393 71.32C19.4393 73.08 18.9966 74.4667 18.1113 75.48C17.2259 76.4933 15.9406 77 14.2553 77H10.2073ZM11.6473 75.736H14.2073C16.7139 75.736 17.9673 74.264 17.9673 71.32C17.9673 68.312 16.7513 66.808 14.3193 66.808H11.6473V75.736ZM22.2488 68.728V70.104H22.2808C22.5474 69.6667 22.8941 69.3147 23.3208 69.048C23.7474 68.7707 24.2221 68.632 24.7448 68.632C24.9368 68.632 25.1128 68.664 25.2728 68.728V69.976H25.2248C25.0648 69.9227 24.8728 69.896 24.6488 69.896C23.9874 69.896 23.4221 70.1307 22.9528 70.6C22.4834 71.0587 22.2488 71.6613 22.2488 72.408V77H20.9528V68.728H22.2488ZM26.4371 77V68.728H27.7331V77H26.4371ZM26.4371 67.16V65.56H27.7331V67.16H26.4371ZM30.7956 68.728V69.816H30.8276C31.4676 68.9627 32.3423 68.536 33.4516 68.536C34.3263 68.536 35.009 68.7653 35.4996 69.224C35.9903 69.6827 36.2356 70.3387 36.2356 71.192V77H34.9396V71.304C34.9396 70.7707 34.7743 70.36 34.4436 70.072C34.113 69.7733 33.6543 69.624 33.0676 69.624C32.4063 69.624 31.8623 69.8373 31.4356 70.264C31.009 70.6907 30.7956 71.24 30.7956 71.912V77H29.4996V68.728H30.7956ZM43.3928 77L40.4648 72.536L39.2488 73.688V77H37.9528V65.56H39.2488V72.264L42.8808 68.728H44.5288L41.3608 71.704L44.9128 77H43.3928ZM48.6825 77.24C47.5518 77.24 46.6718 76.9893 46.0425 76.488C45.4238 75.976 45.0825 75.2507 45.0185 74.312H46.3465C46.4958 75.5387 47.2852 76.152 48.7145 76.152C49.3652 76.152 49.8452 76.0293 50.1545 75.784C50.4745 75.528 50.6345 75.1973 50.6345 74.792C50.6345 74.3547 50.4798 74.04 50.1705 73.848C49.8612 73.656 49.2958 73.4747 48.4745 73.304C48.1332 73.2293 47.8612 73.1707 47.6585 73.128C47.4665 73.0747 47.2318 73.0053 46.9545 72.92C46.6772 72.824 46.4585 72.7227 46.2985 72.616C46.1492 72.4987 45.9945 72.36 45.8345 72.2C45.6745 72.04 45.5572 71.8427 45.4825 71.608C45.4185 71.3733 45.3865 71.112 45.3865 70.824C45.3865 70.12 45.6425 69.5653 46.1545 69.16C46.6772 68.7547 47.4132 68.552 48.3625 68.552C50.3252 68.552 51.4078 69.416 51.6105 71.144H50.2825C50.2185 70.6 50.0318 70.2053 49.7225 69.96C49.4132 69.704 48.9492 69.576 48.3305 69.576C47.7652 69.576 47.3438 69.688 47.0665 69.912C46.7998 70.1253 46.6665 70.408 46.6665 70.76C46.6665 71.1653 46.8265 71.4533 47.1465 71.624C47.4665 71.784 48.0478 71.9493 48.8905 72.12C49.4025 72.2267 49.8025 72.328 50.0905 72.424C50.3892 72.5093 50.6985 72.648 51.0185 72.84C51.3385 73.0213 51.5732 73.2667 51.7225 73.576C51.8718 73.8853 51.9465 74.2693 51.9465 74.728C51.9465 75.5387 51.6478 76.1627 51.0505 76.6C50.4532 77.0267 49.6638 77.24 48.6825 77.24Z" fill="#838D8D"/>
</svg>
