<svg width="63" height="84" viewBox="0 0 63 84" fill="none" xmlns="http://www.w3.org/2000/svg">
<path d="M2.62231 44.6958C2.62231 49.7394 6.711 53.8281 11.7546 53.8281H50.4071C55.4508 53.8281 59.5394 49.7394 59.5394 44.6958V30.63C59.5394 14.9127 46.7981 2.17141 31.0809 2.17141C15.3636 2.17141 2.62231 14.9127 2.62231 30.63V44.6958Z" fill="white" stroke="#DEEAEA"/>
<path d="M28.2623 22.7233C23.2324 22.7233 19.4754 25.3866 17.5531 27.1049C17.361 27.2759 17.36 27.5829 17.5514 27.755L18.7432 28.8316C18.346 29.1905 17.9487 29.5495 17.5514 29.9083C17.3603 30.0802 17.3609 30.3873 17.5531 30.5583C19.4754 32.2767 23.2324 34.9399 28.2623 34.9399C30.7166 34.9399 32.7221 33.7888 34.4244 32.86C35.2755 32.3956 36.0547 31.9865 36.7567 31.78C37.4587 31.5732 38.0616 31.5583 38.6691 31.8431L43.3237 34.027C43.731 34.2166 44.1025 33.7015 43.8096 33.3531C42.5586 31.8712 41.8542 30.4034 41.7997 28.9356C41.7452 27.4678 42.3244 25.952 43.7997 24.3203C44.1061 23.9767 43.737 23.4462 43.3237 23.6361L38.6691 25.82C37.9381 26.163 37.2784 26.1628 36.5633 25.9667C35.8482 25.7706 35.0901 25.3605 34.269 24.8849C32.6269 23.9337 30.7226 22.7233 28.2623 22.7233ZM28.2623 23.5832C30.4567 23.5832 32.1984 24.6729 33.8607 25.6358C34.6919 26.1172 35.501 26.5667 36.35 26.7995C37.1991 27.0322 38.1015 27.0293 39.0129 26.6018L42.1044 25.1567C41.2426 26.469 40.9185 27.6742 40.9666 28.97C41.0136 30.2333 41.406 31.3579 42.1643 32.5374L39.0129 31.0619C38.1972 30.6792 37.348 30.7111 36.5269 30.9527C35.7058 31.1942 34.8902 31.634 34.0343 32.1009C32.3225 33.0349 30.4627 34.0802 28.2623 34.0802C23.7632 34.0802 20.4224 31.8228 18.5101 30.1865C18.8903 29.843 19.2705 29.4993 19.6507 29.1559C19.8412 28.9846 19.8412 28.679 19.6507 28.5076L18.5101 27.4771C20.4224 25.8408 23.7632 23.5832 28.2623 23.5832Z" fill="#545E5E"/>
<path d="M22.1057 28.2966C22.1057 28.3669 22.0923 28.4366 22.0662 28.5015C22.0401 28.5665 22.0019 28.6254 21.9537 28.6751C21.9056 28.7248 21.8484 28.7643 21.7855 28.7912C21.7226 28.8181 21.6551 28.8319 21.587 28.8319C21.5189 28.8319 21.4514 28.8181 21.3885 28.7912C21.3256 28.7643 21.2684 28.7248 21.2203 28.6751C21.1721 28.6254 21.1339 28.5665 21.1079 28.5015C21.0818 28.4366 21.0684 28.3669 21.0684 28.2966C21.0684 28.2263 21.0818 28.1567 21.1079 28.0917C21.1339 28.0268 21.1721 27.9678 21.2203 27.9181C21.2684 27.8684 21.3256 27.8289 21.3885 27.802C21.4514 27.7751 21.5189 27.7612 21.587 27.7612C21.6551 27.7612 21.7226 27.7751 21.7855 27.802C21.8484 27.8289 21.9056 27.8684 21.9537 27.9181C22.0019 27.9678 22.0401 28.0268 22.0662 28.0917C22.0923 28.1567 22.1057 28.2263 22.1057 28.2966Z" fill="#545E5E"/>
<path d="M24.0931 23.5364C24.0017 23.5331 23.9117 23.5609 23.8371 23.6157C23.7626 23.6704 23.7075 23.7491 23.6805 23.8393C23.6535 23.9296 23.656 24.0264 23.6876 24.115C23.7193 24.2037 23.7783 24.2791 23.8556 24.3296C25.3186 25.3676 26.1775 27.0893 26.1488 28.9215C26.1204 30.7536 25.2068 32.4475 23.712 33.4359C23.6624 33.4646 23.619 33.5034 23.5845 33.55C23.55 33.5967 23.5252 33.6502 23.5114 33.7071C23.4977 33.764 23.4953 33.8232 23.5046 33.8811C23.5138 33.939 23.5344 33.9943 23.5652 34.0436C23.5959 34.093 23.6361 34.1353 23.6833 34.1681C23.7305 34.2008 23.7837 34.2232 23.8395 34.2339C23.8954 34.2447 23.9529 34.2435 24.0083 34.2305C24.0637 34.2174 24.116 34.1929 24.1618 34.1582C25.8909 33.0149 26.9527 31.0537 26.986 28.9344C27.0194 26.8151 26.0228 24.8209 24.3306 23.6202C24.2616 23.5677 24.1788 23.5385 24.0931 23.5364Z" fill="#545E5E"/>
<path d="M30.5343 26.7155C28.8893 26.3444 27.4388 27.1369 26.3986 27.6183L26.7422 28.4051C27.8223 27.7578 28.9653 27.3386 30.0933 27.579C30.3541 28.3499 30.4545 29.3004 30.1248 30.1205C29.0563 30.1497 27.979 30.086 26.7743 29.3853L26.3683 30.1334C27.8515 30.9965 29.1797 31.1455 30.4727 31.062C30.6342 31.0522 30.7753 30.9465 30.835 30.7911C31.3673 29.4186 31.3106 28.1212 30.8287 26.967C30.7758 26.8393 30.6656 26.7454 30.5343 26.7155ZM34.1514 32.2923V36.0713C33.3683 35.991 32.6212 35.9357 32.0336 35.7359C31.3178 35.4924 30.7255 35.0905 30.1469 34.1947L29.4535 34.6719C30.1195 35.7032 30.9114 36.2628 31.7712 36.5549C32.631 36.8472 33.5398 36.8941 34.5262 36.9999C34.5843 37.0065 34.6431 37.0004 34.6987 36.982C34.7543 36.9637 34.8056 36.9335 34.8492 36.8933C34.8928 36.8532 34.9277 36.8041 34.9517 36.7491C34.9757 36.6941 34.9883 36.6346 34.9885 36.5743V32.2923H34.1514ZM32.4709 27.3088C32.3654 27.3204 32.2682 27.3732 32.1991 27.4562C32.13 27.5393 32.0942 27.6464 32.0989 27.7557C32.1037 27.8651 32.1487 27.9685 32.2248 28.0448C32.3009 28.1212 32.4023 28.1647 32.5084 28.1665C32.8674 28.1665 33.1518 28.46 33.1518 28.8307C33.1518 29.2014 32.8675 29.4949 32.5084 29.4949C32.4512 29.4904 32.3936 29.4981 32.3394 29.5176C32.2852 29.5372 32.2355 29.568 32.1934 29.6082C32.1514 29.6485 32.1178 29.6973 32.0948 29.7516C32.0718 29.8059 32.06 29.8645 32.06 29.9237C32.06 29.983 32.0718 30.0416 32.0948 30.0959C32.1178 30.1501 32.1514 30.1989 32.1934 30.2392C32.2355 30.2795 32.2852 30.3104 32.3394 30.3299C32.3936 30.3494 32.4512 30.3571 32.5084 30.3526C33.3178 30.3526 33.9827 29.6662 33.9827 28.8307C33.9826 27.9952 33.3178 27.3088 32.5084 27.3088C32.4959 27.3082 32.4834 27.3082 32.4709 27.3088ZM37.9372 27.6506C37.8403 27.6518 37.7467 27.6878 37.6728 27.7526C37.5988 27.8173 37.549 27.9066 37.532 28.0052C37.515 28.1037 37.5318 28.2054 37.5796 28.2925C37.6274 28.3796 37.703 28.4468 37.7936 28.4825C37.8456 28.502 37.8935 28.5368 37.931 28.5729C38.0056 28.6447 38.0433 28.7315 38.0433 28.8306C38.0433 28.9301 38.0059 29.0163 37.931 29.0885C37.8938 29.1242 37.8468 29.1567 37.7936 29.1784C37.7412 29.198 37.6931 29.2282 37.6523 29.2673C37.6114 29.3064 37.5785 29.3537 37.5556 29.4061C37.5327 29.4586 37.5201 29.5152 37.5188 29.5727C37.5175 29.6302 37.5274 29.6875 37.5479 29.741C37.5684 29.7945 37.599 29.8432 37.6381 29.8842C37.6771 29.9253 37.7238 29.9579 37.7752 29.98C37.8267 30.0021 37.8819 30.0133 37.9376 30.013C37.9934 30.0127 38.0485 30.0009 38.0997 29.9782C38.2474 29.9174 38.3847 29.8309 38.4995 29.7203C38.7288 29.4996 38.8743 29.1786 38.8743 28.8304C38.8743 28.4823 38.7289 28.1681 38.4995 27.9469C38.3849 27.8367 38.2488 27.7431 38.0997 27.6823C38.0482 27.6602 37.993 27.6503 37.9372 27.6506ZM30.3406 24.581C30.2347 24.5929 30.1373 24.6462 30.0683 24.7299C29.9993 24.8136 29.964 24.9214 29.9696 25.0312C29.9752 25.141 30.0213 25.2443 30.0985 25.3201C30.1756 25.3959 30.2779 25.4383 30.3844 25.4387C30.7388 25.4387 31.0216 25.7309 31.0216 26.1029C31.0172 26.162 31.0247 26.2213 31.0436 26.2773C31.0625 26.3332 31.0924 26.3845 31.1314 26.428C31.1704 26.4715 31.2176 26.5062 31.2702 26.5299C31.3228 26.5536 31.3796 26.5658 31.437 26.5658C31.4944 26.5658 31.5512 26.5536 31.6038 26.5299C31.6564 26.5062 31.7037 26.4715 31.7427 26.428C31.7817 26.3845 31.8116 26.3332 31.8305 26.2773C31.8494 26.2213 31.8569 26.162 31.8525 26.1029C31.8524 25.2687 31.1917 24.581 30.3844 24.581C30.3698 24.5802 30.3552 24.5802 30.3406 24.581ZM31.3964 31.2361C31.2929 31.2469 31.1971 31.2971 31.1278 31.3771C31.0584 31.457 31.0205 31.5609 31.0215 31.6682C31.0215 32.0388 30.7435 32.3324 30.3843 32.3324C30.3271 32.3278 30.2695 32.3355 30.2153 32.355C30.161 32.3745 30.1113 32.4053 30.0692 32.4456C30.027 32.4858 29.9934 32.5346 29.9704 32.5889C29.9474 32.6433 29.9355 32.7019 29.9355 32.7612C29.9355 32.8204 29.9474 32.8791 29.9704 32.9334C29.9934 32.9877 30.027 33.0366 30.0692 33.0769C30.1113 33.1171 30.161 33.148 30.2153 33.1674C30.2695 33.1869 30.3271 33.1945 30.3843 33.19C31.1937 33.19 31.8587 32.5037 31.8587 31.6682C31.8593 31.6073 31.8474 31.547 31.8238 31.4913C31.8002 31.4355 31.7654 31.3856 31.7217 31.3447C31.678 31.3039 31.6264 31.2731 31.5703 31.2543C31.5142 31.2356 31.455 31.2294 31.3964 31.2361ZM28.3977 31.3134C28.3329 31.32 28.2706 31.3423 28.2156 31.3783C28.1606 31.4143 28.1145 31.463 28.0811 31.5207C28.0477 31.5784 28.0279 31.6434 28.0232 31.7104C28.0185 31.7775 28.0291 31.8447 28.0541 31.9068C28.1146 32.0651 28.113 32.2396 28.0415 32.4098C27.9704 32.5798 27.845 32.702 27.6917 32.7644C27.6391 32.7839 27.5909 32.8141 27.5499 32.8531C27.5089 32.8922 27.4759 32.9394 27.4529 32.9919C27.4299 33.0444 27.4173 33.1012 27.416 33.1588C27.4146 33.2164 27.4245 33.2737 27.445 33.3273C27.4655 33.3809 27.4962 33.4296 27.5354 33.4707C27.5745 33.5118 27.6212 33.5444 27.6728 33.5665C27.7243 33.5886 27.7797 33.5997 27.8355 33.5993C27.8913 33.5989 27.9465 33.5868 27.9978 33.564C28.348 33.4209 28.6491 33.1349 28.8099 32.7515C28.9705 32.3683 28.9673 31.9524 28.8288 31.5908C28.7966 31.502 28.7369 31.4266 28.6589 31.3765C28.5809 31.3263 28.4891 31.3041 28.3977 31.3134ZM27.7917 24.0522C27.698 24.0622 27.6103 24.1047 27.543 24.1728C27.4757 24.2409 27.4327 24.3305 27.4211 24.4271C27.4096 24.5236 27.43 24.6214 27.4792 24.7044C27.5284 24.7874 27.6034 24.8507 27.6919 24.8841C27.8453 24.9465 27.9706 25.0622 28.0418 25.2323C28.1129 25.4023 28.1148 25.5837 28.0544 25.7418C28.0324 25.7946 28.0209 25.8515 28.0206 25.909C28.0203 25.9666 28.0312 26.0236 28.0526 26.0767C28.074 26.1298 28.1056 26.178 28.1453 26.2183C28.1851 26.2586 28.2323 26.2902 28.2841 26.3113C28.336 26.3325 28.3914 26.3426 28.4471 26.3413C28.5028 26.3399 28.5577 26.327 28.6085 26.3034C28.6594 26.2797 28.705 26.2459 28.7429 26.2037C28.7808 26.1615 28.8101 26.1118 28.829 26.0577C28.9676 25.6961 28.9708 25.2737 28.8102 24.8905C28.6492 24.5071 28.3483 24.2275 27.998 24.0844C27.9331 24.0555 27.8621 24.045 27.7917 24.0522ZM34.5262 20.6593C33.5398 20.765 32.631 20.8183 31.7712 21.1107C30.9114 21.403 30.1195 21.9624 29.4535 22.9938L30.1469 23.471C30.7255 22.5751 31.3178 22.1729 32.0336 21.9297C32.6213 21.7301 33.3682 21.668 34.1514 21.588V25.3733H34.9885V21.0914C34.9892 21.0306 34.9773 20.9703 34.9537 20.9145C34.93 20.8588 34.8952 20.8088 34.8515 20.768C34.8078 20.7271 34.7563 20.6963 34.7002 20.6776C34.6441 20.6589 34.5848 20.6527 34.5262 20.6593ZM34.6262 26.7929C34.5152 26.7929 34.4087 26.8384 34.3302 26.9194C34.2517 27.0004 34.2076 27.1104 34.2076 27.225C34.2076 27.3396 34.2517 27.4494 34.3302 27.5304C34.4087 27.6115 34.5152 27.657 34.6262 27.657C35.1826 27.657 35.657 28.1599 35.657 28.8307C35.657 29.5015 35.1826 30.0044 34.6262 30.0044C34.5712 30.0044 34.5168 30.0155 34.466 30.0372C34.4152 30.0589 34.3691 30.0908 34.3302 30.1309C34.2914 30.171 34.2605 30.2186 34.2395 30.2711C34.2184 30.3235 34.2076 30.3797 34.2076 30.4364C34.2076 30.4932 34.2184 30.5493 34.2395 30.6017C34.2605 30.6542 34.2914 30.7018 34.3302 30.7419C34.3691 30.782 34.4152 30.8139 34.466 30.8356C34.5168 30.8573 34.5712 30.8685 34.6262 30.8685C35.667 30.8685 36.4879 29.9336 36.4879 28.8307C36.4878 27.7278 35.667 26.7929 34.6262 26.7929ZM18.4689 40.0766C20.0924 41.7526 22.7342 41.7526 24.3576 40.0766C24.522 39.9082 24.5217 39.6342 24.3576 39.466L19.0561 33.993C18.8933 33.8236 18.6277 33.8233 18.4646 33.993C16.8412 35.6689 16.8467 38.4007 18.4689 40.0766ZM19.0561 39.4706C17.8654 38.2414 17.7745 36.2884 18.7761 34.9256L23.4597 39.7562C22.1526 40.7699 20.2467 40.6997 19.0561 39.4706Z" fill="#545E5E"/>
<path d="M20.0831 39.4633C20.1307 39.5097 20.1883 39.5439 20.2511 39.5631C20.3139 39.5822 20.3802 39.5857 20.4446 39.5735C20.509 39.5612 20.5697 39.5335 20.6217 39.4925C20.6738 39.4515 20.7158 39.3984 20.7443 39.3375L20.8312 39.1578C20.8591 39.1074 20.8769 39.0518 20.8834 38.9941C20.8899 38.9365 20.8851 38.8781 20.8692 38.8225C20.8533 38.7668 20.8267 38.715 20.7909 38.6703C20.7552 38.6255 20.711 38.5887 20.6611 38.562C20.6112 38.5354 20.5565 38.5194 20.5005 38.5151C20.4444 38.5108 20.3882 38.5182 20.335 38.5369C20.2818 38.5557 20.2328 38.5854 20.191 38.6242C20.1492 38.6629 20.1154 38.7101 20.0917 38.7627L20.0004 38.9467C19.9573 39.0302 19.942 39.1259 19.957 39.2193C19.972 39.3126 20.0162 39.3987 20.0831 39.4633ZM21.4924 39.6968C21.557 39.756 21.6379 39.7931 21.7238 39.8028C21.8097 39.8125 21.8964 39.7944 21.9719 39.751C22.0474 39.7076 22.1079 39.6411 22.1451 39.5606C22.1824 39.4801 22.1944 39.3896 22.1797 39.3017L22.1482 39.0998C22.1456 39.0393 22.1306 38.98 22.1042 38.9259C22.0778 38.8718 22.0406 38.8241 21.9951 38.7858C21.9496 38.7475 21.8969 38.7196 21.8402 38.7038C21.7835 38.6881 21.7242 38.6849 21.6663 38.6944C21.6083 38.7039 21.553 38.726 21.5039 38.7592C21.4548 38.7923 21.413 38.8358 21.3812 38.8868C21.3495 38.9378 21.3286 38.9951 21.3199 39.055C21.3111 39.1149 21.3147 39.1761 21.3304 39.2345L21.3619 39.4364C21.3746 39.5363 21.4206 39.6285 21.4924 39.6968ZM19.0696 38.4172C19.1327 38.4827 19.2146 38.5255 19.3031 38.5392C19.3916 38.553 19.482 38.537 19.561 38.4936L19.7393 38.3993C19.7902 38.3748 19.8358 38.3399 19.8733 38.2967C19.9108 38.2536 19.9395 38.2031 19.9577 38.1482C19.9758 38.0933 19.983 38.0352 19.9788 37.9774C19.9746 37.9195 19.9592 37.8632 19.9333 37.8117C19.9075 37.7602 19.8718 37.7146 19.8285 37.6777C19.7852 37.6408 19.7351 37.6133 19.6812 37.5968C19.6274 37.5804 19.5708 37.5755 19.515 37.5822C19.4592 37.5889 19.4053 37.6072 19.3565 37.6359L19.1827 37.7256C19.1229 37.7555 19.0708 37.7998 19.0309 37.8547C18.9909 37.9096 18.9644 37.9736 18.9533 38.0412C18.9422 38.1089 18.947 38.1784 18.9673 38.2438C18.9875 38.3091 19.0226 38.3687 19.0696 38.4172ZM18.8434 36.9623C18.9086 37.0312 18.9944 37.0755 19.0869 37.0882L19.2825 37.1207C19.339 37.1369 19.3982 37.1407 19.4563 37.1316C19.5143 37.1226 19.5698 37.1009 19.6192 37.0682C19.6686 37.0355 19.7108 36.9924 19.7429 36.9417C19.775 36.891 19.7964 36.8339 19.8056 36.774C19.8148 36.7142 19.8117 36.653 19.7965 36.5945C19.7812 36.536 19.7542 36.4815 19.7171 36.4345C19.68 36.3875 19.6337 36.3492 19.5813 36.322C19.5289 36.2948 19.4715 36.2793 19.4129 36.2765L19.2173 36.244C19.1312 36.2288 19.0427 36.2419 18.9642 36.2814C18.8857 36.3209 18.8212 36.385 18.7799 36.4644C18.7385 36.5438 18.7224 36.6345 18.7338 36.7239C18.7451 36.8133 18.7836 36.8966 18.8434 36.9623ZM23.45 14.6702C23.3476 14.6824 23.2533 14.7332 23.1851 14.813C23.117 14.8927 23.0798 14.9957 23.0809 15.102C23.0809 15.8209 22.5325 16.3911 21.8321 16.3911H21.0017C19.8554 16.3911 18.9163 17.3555 18.9163 18.5374V19.3946C18.9115 19.4539 18.9186 19.5137 18.9373 19.57C18.9559 19.6264 18.9857 19.6781 19.0247 19.7219C19.0638 19.7658 19.1112 19.8007 19.164 19.8246C19.2168 19.8486 19.2739 19.8609 19.3316 19.8609C19.3892 19.8609 19.4463 19.8486 19.4991 19.8246C19.5519 19.8007 19.5993 19.7658 19.6384 19.7219C19.6774 19.6781 19.7072 19.6264 19.7258 19.57C19.7445 19.5137 19.7516 19.4539 19.7468 19.3946V18.5374C19.7468 17.8185 20.3013 17.2483 21.0017 17.2483H21.8321C22.9784 17.2483 23.9175 16.2839 23.9175 15.102C23.9181 15.0407 23.9061 14.9799 23.8822 14.9238C23.8582 14.8677 23.8229 14.8175 23.7786 14.7766C23.7344 14.7357 23.6822 14.705 23.6255 14.6867C23.5688 14.6683 23.5089 14.6627 23.45 14.6702ZM21.7829 18.9692C21.6795 18.9814 21.5843 19.0331 21.516 19.1142C21.4476 19.1953 21.4112 19.2999 21.4138 19.4073C21.4138 20.1262 20.8654 20.69 20.1651 20.69H19.3346C18.1883 20.69 17.2493 21.6544 17.2493 22.8363V23.6935C17.2444 23.7529 17.2516 23.8126 17.2702 23.869C17.2889 23.9253 17.3187 23.977 17.3577 24.0209C17.3967 24.0647 17.4442 24.0997 17.497 24.1237C17.5498 24.1476 17.6068 24.1599 17.6645 24.1599C17.7222 24.1599 17.7792 24.1476 17.832 24.1237C17.8848 24.0997 17.9323 24.0647 17.9713 24.0209C18.0103 23.977 18.0401 23.9253 18.0588 23.869C18.0774 23.8126 18.0846 23.7529 18.0797 23.6935V22.8363C18.0797 22.1174 18.6343 21.5472 19.3346 21.5472H20.1651C21.3114 21.5472 22.2504 20.5892 22.2504 19.4073C22.252 19.3454 22.2406 19.2839 22.2171 19.227C22.1935 19.1701 22.1584 19.1192 22.114 19.0776C22.0696 19.036 22.0171 19.0047 21.9599 18.986C21.9028 18.9673 21.8424 18.9616 21.7829 18.9692Z" fill="#545E5E"/>
<path d="M17.6531 77V65.56H25.4131V66.824H19.0931V70.392H24.3571V71.608H19.0931V77H17.6531ZM26.7111 77V68.728H28.0071V77H26.7111ZM26.7111 67.16V65.56H28.0071V67.16H26.7111ZM32.9096 77.24C31.7789 77.24 30.8989 76.9893 30.2696 76.488C29.6509 75.976 29.3096 75.2507 29.2456 74.312H30.5736C30.7229 75.5387 31.5122 76.152 32.9416 76.152C33.5922 76.152 34.0722 76.0293 34.3816 75.784C34.7016 75.528 34.8616 75.1973 34.8616 74.792C34.8616 74.3547 34.7069 74.04 34.3976 73.848C34.0882 73.656 33.5229 73.4747 32.7016 73.304C32.3602 73.2293 32.0882 73.1707 31.8856 73.128C31.6936 73.0747 31.4589 73.0053 31.1816 72.92C30.9042 72.824 30.6856 72.7227 30.5256 72.616C30.3762 72.4987 30.2216 72.36 30.0616 72.2C29.9016 72.04 29.7842 71.8427 29.7096 71.608C29.6456 71.3733 29.6136 71.112 29.6136 70.824C29.6136 70.12 29.8696 69.5653 30.3816 69.16C30.9042 68.7547 31.6402 68.552 32.5896 68.552C34.5522 68.552 35.6349 69.416 35.8376 71.144H34.5096C34.4456 70.6 34.2589 70.2053 33.9496 69.96C33.6402 69.704 33.1762 69.576 32.5576 69.576C31.9922 69.576 31.5709 69.688 31.2936 69.912C31.0269 70.1253 30.8936 70.408 30.8936 70.76C30.8936 71.1653 31.0536 71.4533 31.3736 71.624C31.6936 71.784 32.2749 71.9493 33.1176 72.12C33.6296 72.2267 34.0296 72.328 34.3176 72.424C34.6162 72.5093 34.9256 72.648 35.2456 72.84C35.5656 73.0213 35.8002 73.2667 35.9496 73.576C36.0989 73.8853 36.1736 74.2693 36.1736 74.728C36.1736 75.5387 35.8749 76.1627 35.2776 76.6C34.6802 77.0267 33.8909 77.24 32.9096 77.24ZM38.7102 65.56V69.816H38.7422C39.3822 68.9627 40.2568 68.536 41.3662 68.536C42.2408 68.536 42.9235 68.7653 43.4142 69.224C43.9048 69.6827 44.1502 70.3387 44.1502 71.192V77H42.8542V71.304C42.8542 70.7707 42.6888 70.36 42.3582 70.072C42.0275 69.7733 41.5688 69.624 40.9822 69.624C40.3208 69.624 39.7768 69.8373 39.3502 70.264C38.9235 70.6907 38.7102 71.24 38.7102 71.912V77H37.4142V65.56H38.7102Z" fill="#838D8D"/>
</svg>
