<svg width="86" height="84" viewBox="0 0 86 84" fill="none" xmlns="http://www.w3.org/2000/svg">
<path d="M2.56836 44.6958C2.56836 49.7394 6.65704 53.8281 11.7007 53.8281H50.3532C55.3968 53.8281 59.4855 49.7394 59.4855 44.6958V30.63C59.4855 14.9127 46.7441 2.17141 31.0269 2.17141C15.3097 2.17141 2.56836 14.9127 2.56836 30.63V44.6958Z" fill="white" stroke="#DEEAEA"/>
<path d="M27.5064 18.5089C27.5773 18.5248 27.6499 18.5182 27.7184 18.4894C27.7869 18.4607 27.8491 18.4108 27.8999 18.3438C27.9507 18.2768 27.9886 18.1948 28.0104 18.1046C28.0322 18.0143 28.0372 17.9185 28.0251 17.8251C27.9946 17.5799 27.8446 17.3822 27.6585 17.3419C27.5877 17.326 27.515 17.3327 27.4466 17.3614C27.3781 17.3901 27.3159 17.4401 27.2651 17.507C27.2143 17.574 27.1764 17.656 27.1547 17.7462C27.1329 17.8365 27.1278 17.9323 27.1399 18.0256C27.1703 18.2709 27.3204 18.4687 27.5064 18.5089ZM25.5668 19.6923C25.6376 19.7083 25.7103 19.7016 25.7788 19.6729C25.8472 19.6441 25.9094 19.5942 25.9602 19.5273C26.011 19.4603 26.0489 19.3783 26.0707 19.288C26.0925 19.1978 26.0976 19.102 26.0855 19.0086C26.055 18.7634 25.9049 18.5657 25.7189 18.5254C25.6481 18.5095 25.5754 18.5162 25.507 18.5449C25.4385 18.5736 25.3763 18.6236 25.3255 18.6905C25.2747 18.7575 25.2368 18.8395 25.215 18.9297C25.1932 19.02 25.1882 19.1158 25.2002 19.2091C25.2308 19.4543 25.3808 19.6521 25.5668 19.6923ZM29.1874 19.4138C29.1995 19.3204 29.1945 19.2246 29.1727 19.1344C29.1509 19.0442 29.113 18.9622 29.0622 18.8952C29.0114 18.8282 28.9492 18.7783 28.8807 18.7496C28.8123 18.7209 28.7396 18.7142 28.6688 18.7301C28.4828 18.7703 28.3328 18.9681 28.3022 19.2134C28.2901 19.3067 28.2952 19.4025 28.317 19.4928C28.3388 19.583 28.3766 19.665 28.4274 19.732C28.4782 19.7989 28.5405 19.8489 28.6089 19.8776C28.6774 19.9063 28.7501 19.913 28.8209 19.8971C29.0069 19.8568 29.1569 19.659 29.1874 19.4138ZM26.3908 20.6413C26.3787 20.7347 26.3837 20.8305 26.4055 20.9207C26.4273 21.0109 26.4652 21.093 26.516 21.1599C26.5668 21.2269 26.629 21.2768 26.6975 21.3056C26.7659 21.3343 26.8386 21.341 26.9094 21.3251C27.0955 21.2848 27.2455 21.087 27.276 20.8418C27.2881 20.7485 27.283 20.6527 27.2613 20.5625C27.2395 20.4722 27.2016 20.3902 27.1508 20.3232C27.1 20.2563 27.0378 20.2063 26.9693 20.1776C26.9009 20.1489 26.8282 20.1422 26.7574 20.1581C26.5713 20.1983 26.4213 20.396 26.3908 20.6413Z" fill="#545E5E"/>
<path d="M43.8368 22.1035C43.8672 22.0201 43.8684 21.9286 43.8403 21.8443C43.8122 21.7601 43.7566 21.6883 43.6826 21.641C43.6562 21.6241 43.0221 21.2214 42.0682 20.8498C42.0178 20.8302 41.9639 20.8217 41.91 20.825C41.8561 20.8283 41.8036 20.8433 41.7558 20.8689C41.7081 20.8945 41.6663 20.9303 41.6332 20.9737C41.6 21.0171 41.5764 21.0673 41.5638 21.1208C41.5176 21.3125 41.6306 21.5074 41.8114 21.5782C42.3277 21.7802 42.7451 21.9935 43.001 22.1347C42.682 22.8598 41.7487 24.7174 40.1895 25.7308C39.5582 25.0116 38.8157 24.4071 37.9857 23.9489C38.6431 23.136 38.9942 22.0188 39.0704 21.0093C39.4978 21.0078 39.9479 21.0562 40.4192 21.1559C40.4718 21.167 40.5261 21.1666 40.5785 21.1548C40.631 21.1429 40.6804 21.1198 40.7234 21.087C40.7664 21.0542 40.8022 21.0125 40.8282 20.9646C40.8543 20.9167 40.8701 20.8637 40.8745 20.8092C40.8916 20.6111 40.7488 20.435 40.5577 20.3949C40.0483 20.2882 39.5587 20.2359 39.0901 20.2358C39.043 18.2907 38.3083 16.6254 38.2626 16.5235C38.2262 16.4426 38.1637 16.377 38.0854 16.3377C38.0071 16.2984 37.918 16.2877 37.8329 16.3076C37.7338 16.3308 36.2326 16.693 34.7874 17.6567C34.0503 16.7488 32.8149 16.4222 31.7415 16.8292C28.6956 15.3232 24.9965 15.9735 22.1823 17.9342C22.0327 18.0384 21.9629 18.2348 22.0322 18.4056C22.1282 18.6423 22.4042 18.7173 22.5993 18.5809C25.4601 16.5819 28.8908 16.2054 31.553 17.5979C31.6038 17.6245 31.6598 17.6391 31.7169 17.6405C31.774 17.642 31.8307 17.6302 31.8827 17.6062C32.667 17.2435 33.6069 17.4521 34.1716 18.1109C32.6341 19.366 31.6967 21.2094 32.3105 23.2541C28.188 23.9763 25.1501 27.8117 25.4682 32.1918C24.926 32.7952 24.7002 33.654 24.8818 34.4525C23.7654 34.414 22.6828 34.1473 21.704 33.6352C21.6532 33.6087 21.5972 33.5942 21.5401 33.5927C21.4831 33.5913 21.4264 33.603 21.3744 33.6269C20.6331 33.9691 19.7485 33.8048 19.1733 33.2181C18.598 32.6316 18.4369 31.7297 18.7723 30.9738C18.7958 30.9208 18.8073 30.863 18.8059 30.8048C18.8045 30.7466 18.7902 30.6895 18.7642 30.6377C17.1181 27.3666 18.0468 22.9613 21.0221 19.9202C21.1495 19.79 21.1831 19.5856 21.0856 19.431C21.0552 19.3818 21.0144 19.3401 20.966 19.3091C20.9177 19.2782 20.8632 19.2587 20.8065 19.2522C20.7498 19.2456 20.6923 19.2522 20.6385 19.2714C20.5846 19.2906 20.5356 19.3219 20.4953 19.363C17.5587 22.3561 16.2021 27.0175 18.0102 30.8297C17.6422 31.8387 17.8832 32.997 18.6366 33.7652C19.3899 34.5333 20.5258 34.7789 21.5155 34.4039C22.6238 34.9505 23.8814 35.2301 25.1853 35.2301C25.1904 35.2301 25.1954 35.2299 25.2004 35.2299C25.5759 35.8357 26.1977 36.2711 26.9254 36.3807C28.4751 38.6505 31.0005 40 33.7172 40C34.7952 40 35.8255 39.7882 36.7708 39.4039C37.0508 39.3484 37.3272 39.2748 37.598 39.1835C39.1502 38.6592 40.4347 37.597 41.3128 36.1117C41.3638 36.0238 41.3787 35.919 41.3543 35.82C41.3298 35.7209 41.2679 35.6358 41.1822 35.5831C41.0964 35.5304 40.9937 35.5144 40.8964 35.5386C40.7991 35.5628 40.7151 35.6252 40.6628 35.7122C39.8795 37.0372 38.7373 37.9836 37.3594 38.4491C35.6994 39.0097 33.8961 38.798 32.2815 37.8526C28.8943 35.8693 27.4394 31.3103 28.9801 27.6924C29.7216 25.9511 31.0442 24.6833 32.7042 24.1225C34.3642 23.5618 36.1675 23.7736 37.7821 24.719C39.4105 25.6726 40.651 27.2557 41.2752 29.1767C41.7812 30.7337 41.8341 32.3589 41.4282 33.8767C41.3661 34.1094 41.526 34.3504 41.7765 34.3653C41.9574 34.3761 42.1167 34.2449 42.1641 34.0666C42.6054 32.4054 42.5472 30.6307 41.9956 28.9333C41.6866 27.9822 41.238 27.1066 40.6741 26.3353C42.7899 24.9182 43.7885 22.236 43.8368 22.1035ZM37.6935 17.1487C38.1527 18.292 38.9838 21.7282 37.2764 23.6034C35.8272 22.9794 34.5566 23.0247 33.0768 23.1566C32.0095 19.6928 35.9128 17.6928 37.6935 17.1487ZM33.4826 39.2224C31.051 39.1457 28.8117 37.8792 27.4567 35.8013C27.4245 35.752 27.3817 35.7109 27.3315 35.6811C27.2812 35.6513 27.225 35.6337 27.167 35.6295C25.6509 35.5216 25.0651 33.6241 26.1216 32.6178C26.2069 32.5365 26.2497 32.4184 26.2387 32.2998C25.9553 29.2427 27.4758 26.4218 29.9169 24.9598C25.5891 29.2131 27.7047 37.4405 33.4826 39.2224Z" fill="#545E5E"/>
<path d="M40.8938 33.6264C41.2406 32.6005 41.2878 31.48 41.03 30.3859C40.9829 30.1878 40.8622 30.0097 40.6877 29.8806C40.6763 29.8722 40.6679 29.861 40.6636 29.8484C40.6593 29.8357 40.6593 29.8223 40.6636 29.8096C40.7284 29.6155 40.7179 29.4076 40.6339 29.2194C40.1678 28.1814 39.4318 27.2734 38.5056 26.5933C38.3172 26.4549 38.0862 26.3837 37.8492 26.3869C37.8343 26.3872 37.8196 26.3835 37.807 26.3761C37.7945 26.3688 37.7847 26.3583 37.779 26.3459C37.6872 26.1492 37.5197 25.9885 37.3068 25.8927C36.2299 25.4072 35.0672 25.2331 33.9444 25.389C33.7005 25.4228 33.4815 25.5364 33.3258 25.7052C33.3165 25.7155 33.3039 25.723 33.2897 25.7269C33.2755 25.7307 33.2604 25.7307 33.2462 25.7268C33.0119 25.664 32.7593 25.6784 32.5355 25.7716C32.3067 25.8669 32.0859 25.9769 31.8747 26.1005C31.6847 26.2118 31.6173 26.4423 31.7387 26.614C31.768 26.6555 31.8063 26.6914 31.8513 26.7195C31.8963 26.7476 31.9471 26.7674 32.0007 26.7778C32.0544 26.7881 32.1098 26.7888 32.1638 26.7797C32.2177 26.7707 32.2691 26.7521 32.315 26.7251C32.4965 26.618 32.6867 26.523 32.8838 26.4407C32.9984 26.393 33.0947 26.4396 33.1365 26.5461L34.3311 30.064C34.3797 30.2272 34.2158 30.3389 34.0526 30.2541L30.8397 28.4433C30.7566 28.3965 30.7267 28.2987 30.7732 28.2253C30.8929 28.0353 31.0275 27.853 31.1758 27.6799C31.3047 27.5297 31.3035 27.3133 31.1534 27.1799C31.112 27.1427 31.0622 27.1139 31.0073 27.0953C30.9525 27.0767 30.8938 27.0688 30.8353 27.0721C30.7767 27.0754 30.7196 27.0898 30.6678 27.1144C30.616 27.139 30.5706 27.1732 30.5347 27.2147C30.3574 27.42 30.1969 27.6364 30.0545 27.8623C29.9368 28.0481 29.8976 28.2656 29.9441 28.475C29.947 28.4882 29.9455 28.5018 29.9396 28.5142C29.9338 28.5265 29.9239 28.537 29.9113 28.5442C29.7105 28.6599 29.5625 28.8359 29.4939 29.0405C29.1469 30.066 29.0999 31.1868 29.358 32.2818C29.4052 32.4799 29.5258 32.6579 29.7003 32.787C29.7238 32.8044 29.7331 32.8319 29.7244 32.858C29.6596 33.0521 29.6701 33.2601 29.7541 33.4482C30.2201 34.4861 30.9561 35.394 31.8824 36.074C32.0068 36.1656 32.1539 36.2293 32.3114 36.2597C32.3465 36.2665 32.3738 36.2906 32.3859 36.3208C32.4172 36.3982 32.4764 36.4641 32.5542 36.5081C33.742 37.1776 35.1102 37.4633 36.443 37.2783C36.6868 37.2444 36.9057 37.1309 37.0614 36.9622C37.0708 36.9519 37.0834 36.9443 37.0976 36.9405C37.1119 36.9366 37.127 36.9367 37.1413 36.9406C37.3762 37.0043 37.6292 36.9883 37.8519 36.8957C39.0491 36.3973 40.027 35.4831 40.6055 34.3216C40.6488 34.2355 40.6527 34.1377 40.6165 34.0491C40.6143 34.0438 40.6139 34.0382 40.6152 34.0328C40.6166 34.0273 40.6197 34.0224 40.6242 34.0185C40.7505 33.9109 40.8434 33.7758 40.8938 33.6264ZM37.691 27.2244C37.7534 27.1082 37.8869 27.094 37.9819 27.1637C38.8114 27.7728 39.4696 28.5914 39.8833 29.529C39.9174 29.6061 39.8725 29.6847 39.7823 29.704C39.7563 29.7096 36.3612 30.6321 36.3301 30.6395C36.1613 30.6793 36.0391 30.558 36.1049 30.4115L37.691 27.2244ZM33.9264 26.3316C33.8948 26.2227 33.9476 26.1355 34.071 26.1184C35.0497 25.9824 36.02 26.1388 36.9353 26.5518C37.0195 26.5898 37.0555 26.686 37.0156 26.7662L35.471 29.8694C35.3882 30.0212 35.1823 30.0098 35.1212 29.85L35.121 29.8495L33.9264 26.3316ZM35.3946 32.0237C35.0135 32.1366 34.5901 31.9192 34.4489 31.538C34.3077 31.1569 34.5022 30.7563 34.8833 30.6434C35.2644 30.5305 35.6877 30.748 35.8289 31.1291C35.9701 31.5103 35.7757 31.9108 35.3946 32.0237ZM30.1657 32.1295C29.9361 31.1556 29.977 30.1614 30.2839 29.2542C30.3255 29.1314 30.4607 29.1023 30.5634 29.1601C31.0012 29.4063 33.5555 30.8318 33.8634 31.0199C34.0093 31.109 33.9838 31.2702 33.8181 31.3215L30.4017 32.2496C30.2834 32.2771 30.1906 32.2351 30.1657 32.1295ZM32.4062 35.5034C31.5869 34.902 30.9347 34.0961 30.5201 33.1731C30.4754 33.0734 30.5259 32.9917 30.6417 32.9559L34.0579 32.0281C34.2092 31.9889 34.3518 32.1084 34.2832 32.2561L32.697 35.4428C32.6354 35.5545 32.5149 35.5833 32.4062 35.5034ZM36.3165 36.5489C35.3372 36.6846 34.3023 36.5161 33.3614 36.0732C33.345 36.0654 33.3325 36.0523 33.3265 36.0366C33.3204 36.0208 33.3213 36.0037 33.3288 35.9885L34.9167 32.7983C35.0012 32.6475 35.2077 32.6661 35.2664 32.8177L36.461 36.3356C36.4938 36.447 36.4405 36.5317 36.3165 36.5489ZM37.5036 36.2265C37.3904 36.2736 37.2924 36.2282 37.2508 36.1211L37.2507 36.121L36.0562 32.6032L36.0561 32.6031C36.0049 32.431 36.1918 32.3326 36.3348 32.413L39.4949 34.1937C39.6091 34.2581 39.6472 34.3922 39.579 34.4964C39.0745 35.2682 38.3528 35.8729 37.5036 36.2265ZM40.1038 33.4128C40.0633 33.5326 39.9459 33.5696 39.8243 33.507L36.5247 31.6473C36.3817 31.5599 36.4028 31.3972 36.5701 31.3458L39.9863 30.418C40.0903 30.3913 40.1954 30.4343 40.2224 30.5382C40.4516 31.5112 40.4106 32.5052 40.1038 33.4128Z" fill="#545E5E"/>
<path d="M12.5991 77V65.56H20.3591V66.824H14.0391V70.392H19.3031V71.608H14.0391V77H12.5991ZM22.3906 68.728V70.104H22.4226C22.6893 69.6667 23.0359 69.3147 23.4626 69.048C23.8893 68.7707 24.3639 68.632 24.8866 68.632C25.0786 68.632 25.2546 68.664 25.4146 68.728V69.976H25.3666C25.2066 69.9227 25.0146 69.896 24.7906 69.896C24.1293 69.896 23.5639 70.1307 23.0946 70.6C22.6253 71.0587 22.3906 71.6613 22.3906 72.408V77H21.0946V68.728H22.3906ZM33.139 77H31.843V75.864H31.811C31.1603 76.7493 30.3283 77.192 29.315 77.192C28.4616 77.192 27.7843 76.952 27.283 76.472C26.7816 75.9813 26.531 75.3093 26.531 74.456V68.728H27.827V74.424C27.827 74.9573 27.987 75.3733 28.307 75.672C28.6376 75.9707 29.0963 76.12 29.683 76.12C30.3336 76.12 30.8563 75.9013 31.251 75.464C31.6456 75.0267 31.843 74.4773 31.843 73.816V68.728H33.139V77ZM34.8915 77V68.728H36.1875V77H34.8915ZM34.8915 67.16V65.56H36.1875V67.16H34.8915ZM37.426 69.784V68.728H38.626V66.12H39.922V68.728H41.522V69.784H39.922V75.16C39.922 75.672 40.1993 75.928 40.754 75.928C40.9886 75.928 41.218 75.8907 41.442 75.816H41.49V76.936C41.138 77.0107 40.7913 77.048 40.45 77.048C39.234 77.048 38.626 76.5147 38.626 75.448V69.784H37.426ZM45.9962 77.24C44.8656 77.24 43.9856 76.9893 43.3562 76.488C42.7376 75.976 42.3962 75.2507 42.3322 74.312H43.6602C43.8096 75.5387 44.5989 76.152 46.0282 76.152C46.6789 76.152 47.1589 76.0293 47.4682 75.784C47.7882 75.528 47.9482 75.1973 47.9482 74.792C47.9482 74.3547 47.7936 74.04 47.4842 73.848C47.1749 73.656 46.6096 73.4747 45.7882 73.304C45.4469 73.2293 45.1749 73.1707 44.9722 73.128C44.7802 73.0747 44.5456 73.0053 44.2682 72.92C43.9909 72.824 43.7722 72.7227 43.6122 72.616C43.4629 72.4987 43.3082 72.36 43.1482 72.2C42.9882 72.04 42.8709 71.8427 42.7962 71.608C42.7322 71.3733 42.7002 71.112 42.7002 70.824C42.7002 70.12 42.9562 69.5653 43.4682 69.16C43.9909 68.7547 44.7269 68.552 45.6762 68.552C47.6389 68.552 48.7216 69.416 48.9242 71.144H47.5962C47.5322 70.6 47.3456 70.2053 47.0362 69.96C46.7269 69.704 46.2629 69.576 45.6442 69.576C45.0789 69.576 44.6576 69.688 44.3802 69.912C44.1136 70.1253 43.9802 70.408 43.9802 70.76C43.9802 71.1653 44.1402 71.4533 44.4602 71.624C44.7802 71.784 45.3616 71.9493 46.2042 72.12C46.7162 72.2267 47.1162 72.328 47.4042 72.424C47.7029 72.5093 48.0122 72.648 48.3322 72.84C48.6522 73.0213 48.8869 73.2667 49.0362 73.576C49.1856 73.8853 49.2602 74.2693 49.2602 74.728C49.2602 75.5387 48.9616 76.1627 48.3642 76.6C47.7669 77.0267 46.9776 77.24 45.9962 77.24Z" fill="#838D8D"/>
</svg>
