<svg width="63" height="84" viewBox="0 0 63 84" fill="none" xmlns="http://www.w3.org/2000/svg">
<path d="M2.67651 44.6958C2.67651 49.7394 6.7652 53.8281 11.8088 53.8281H50.4613C55.505 53.8281 59.5936 49.7394 59.5936 44.6958V30.63C59.5936 14.9127 46.8523 2.17141 31.1351 2.17141C15.4178 2.17141 2.67651 14.9127 2.67651 30.63V44.6958Z" fill="white" stroke="#DEEAEA"/>
<path d="M37.1698 24.4197C36.9594 24.3462 35.8659 24 33.9759 24C32.8374 24 31.619 24.1248 30.3549 24.3708C28.0219 24.8245 26.8875 24.9196 26.3461 24.9196C26.2834 24.9196 26.2294 24.9181 26.2038 24.9172C26.1899 24.9166 25.8472 24.8893 25.3123 24.8893C23.6144 24.8893 20.5277 25.1557 18.9351 26.9409C18.3477 27.5983 18.0223 28.3925 17.9566 29.3052C17.4149 30.1237 17.2059 31.0571 17.3427 32.0863C18.195 38.4788 31.7546 40.8578 32.3001 40.9502C32.4339 40.9799 34.0661 41.3333 36.0596 41.3333C38.0961 41.3327 40.5111 40.9643 42.0911 39.5037C43.3864 38.3069 43.9219 36.5796 43.697 34.3761C43.7757 34.1085 43.8332 33.8421 43.8712 33.5813C44.8794 26.6748 37.7477 24.577 37.1698 24.4197ZM41.2387 38.5445C38.598 40.9877 32.6317 39.6996 32.5412 39.6798C28.9335 39.0666 19.5504 36.5316 18.648 32.1469C21.1299 36.2084 29.4042 37.7554 30.0033 37.8628C30.2698 37.9252 32.8344 38.5115 35.698 38.5115C39.1044 38.5115 41.1409 37.6912 42.3372 36.5772C42.1533 37.3723 41.7913 38.0335 41.2387 38.5445ZM42.6142 33.3908C42.2437 35.9312 39.916 37.219 35.6968 37.219C32.889 37.219 30.301 36.6063 30.2748 36.6C30.2624 36.597 30.2503 36.594 30.2373 36.5925C27.2987 36.0743 19.5926 33.8877 19.2298 30.0385C19.1437 29.1219 19.3539 28.3934 19.8743 27.8098C21.1856 26.3409 24.1136 26.1825 25.312 26.1825C25.7912 26.1825 26.1 26.2065 26.1248 26.2077C26.1885 26.2104 26.261 26.2131 26.3458 26.2131C27.2123 26.2131 28.6417 26.0204 30.5931 25.6409C31.7785 25.4102 32.917 25.2935 33.9759 25.2935C35.789 25.2935 36.7545 25.6421 36.761 25.6439C36.7843 25.6526 36.8082 25.6604 36.8323 25.6664C37.1044 25.7342 43.4886 27.4045 42.6142 33.3908Z" fill="#545E5E"/>
<path d="M24.8943 28.0597C24.3933 27.8697 23.8744 27.7689 23.3939 27.7689C22.3746 27.7689 21.5988 28.2277 21.3703 28.9655C21.0308 30.0595 21.9858 31.3428 23.591 31.9518C24.092 32.1418 24.6103 32.2429 25.0911 32.2429C26.1111 32.2429 26.8868 31.7841 27.1156 31.0467C27.4537 29.9518 26.4995 28.6681 24.8943 28.0597ZM25.8708 30.672C25.8177 30.8418 25.4971 30.961 25.0908 30.961C24.7688 30.961 24.4117 30.89 24.0582 30.7556C23.0459 30.372 22.5188 29.6488 22.6148 29.3396C22.668 29.1701 22.9885 29.0499 23.3942 29.0499C23.7169 29.0499 24.0733 29.121 24.4268 29.2548C25.4398 29.6402 25.9665 30.3625 25.8708 30.672ZM29.1515 28.0125L28.4042 26.0841C28.3738 26.0055 28.328 25.9335 28.2694 25.8723C28.2108 25.8112 28.1405 25.762 28.0625 25.7276C27.9846 25.6932 27.9005 25.6743 27.8152 25.6719C27.7298 25.6696 27.6448 25.6838 27.565 25.7139C27.4041 25.7747 27.2741 25.896 27.2037 26.051C27.1332 26.2061 27.128 26.3823 27.1893 26.5411L27.9366 28.4698C27.9836 28.5911 28.0668 28.6954 28.1753 28.7691C28.2838 28.8427 28.4125 28.8822 28.5442 28.8822C28.6209 28.8822 28.6994 28.8682 28.7757 28.8394C28.8555 28.8094 28.9286 28.7643 28.9906 28.7065C29.0527 28.6487 29.1026 28.5794 29.1375 28.5026C29.1724 28.4258 29.1916 28.343 29.194 28.2589C29.1964 28.1748 29.182 28.0911 29.1515 28.0125ZM31.0906 31.9777L30.1355 29.9604C30.0995 29.8842 30.0485 29.8157 29.9855 29.7588C29.9226 29.7019 29.8489 29.6578 29.7686 29.629C29.6884 29.6003 29.6032 29.5873 29.5179 29.5909C29.4325 29.5946 29.3488 29.6148 29.2714 29.6503C29.1939 29.6858 29.1244 29.736 29.0667 29.7981C29.009 29.8601 28.9642 29.9327 28.935 30.0117C28.9057 30.0908 28.8926 30.1747 28.8963 30.2588C28.9 30.3428 28.9205 30.4254 28.9565 30.5016L29.9116 32.5195C29.9475 32.5958 29.9984 32.6645 30.0614 32.7214C30.1243 32.7783 30.198 32.8224 30.2783 32.8512C30.3586 32.88 30.4439 32.8929 30.5293 32.8891C30.6146 32.8854 30.6984 32.8651 30.7757 32.8293C30.9321 32.7575 31.0531 32.6274 31.1121 32.4677C31.1711 32.308 31.1634 32.1318 31.0906 31.9777ZM31.8968 33.7592C31.8679 33.6783 31.8228 33.6039 31.7643 33.5405C31.7057 33.4771 31.6348 33.4259 31.5557 33.3899C31.4767 33.354 31.3912 33.3341 31.3042 33.3313C31.2172 33.3285 31.1305 33.343 31.0493 33.3738C30.9681 33.4046 30.8939 33.4512 30.8313 33.5108C30.7687 33.5703 30.7189 33.6417 30.6847 33.7206C30.6506 33.7995 30.6329 33.8843 30.6327 33.97C30.6325 34.0558 30.6497 34.1407 30.6834 34.2198L31.2188 35.5897C31.281 35.7481 31.4044 35.8758 31.562 35.9447C31.7196 36.0136 31.8985 36.0181 32.0595 35.9572C32.2203 35.8961 32.3498 35.7746 32.4198 35.6195C32.4897 35.4643 32.4943 35.2882 32.4326 35.1297L31.8968 33.7592ZM33.4585 29.1439L31.9659 25.589C31.9333 25.5112 31.8854 25.4405 31.825 25.381C31.7646 25.3214 31.6929 25.2742 31.6139 25.242C31.535 25.2098 31.4503 25.1932 31.3649 25.1933C31.2794 25.1933 31.1948 25.21 31.1159 25.2423C30.9567 25.3074 30.8302 25.4321 30.7642 25.5889C30.6982 25.7458 30.698 25.922 30.7637 26.079L32.2569 29.6342C32.3232 29.791 32.4498 29.9155 32.609 29.9804C32.7683 30.0454 32.9472 30.0456 33.1066 29.981C33.1856 29.9489 33.2574 29.9018 33.3179 29.8423C33.3784 29.7829 33.4263 29.7122 33.459 29.6344C33.4917 29.5567 33.5085 29.4733 33.5084 29.3891C33.5083 29.3049 33.4914 29.2216 33.4585 29.1439ZM34.2913 30.859C34.2265 30.7016 34.101 30.576 33.9423 30.5096C33.7836 30.4432 33.6046 30.4415 33.4446 30.5049C33.2846 30.5687 33.1569 30.6925 33.0895 30.8491C33.0221 31.0057 33.0205 31.1822 33.0851 31.3399L34.7241 35.3325C34.756 35.4107 34.8032 35.4819 34.863 35.542C34.9229 35.6021 34.9942 35.65 35.073 35.6829C35.1517 35.7157 35.2362 35.7329 35.3217 35.7335C35.4072 35.734 35.492 35.7179 35.5711 35.686C35.6503 35.6545 35.7225 35.6079 35.7834 35.5489C35.8443 35.4899 35.8929 35.4197 35.9262 35.3422C35.9595 35.2647 35.977 35.1814 35.9777 35.0973C35.9783 35.0131 35.9621 34.9296 35.93 34.8517L34.2913 30.859ZM37.1069 27.8201L36.1455 25.6407C36.1115 25.5636 36.0624 25.4937 36.0009 25.4353C35.9395 25.3768 35.867 25.3308 35.7875 25.2999C35.7081 25.2691 35.6232 25.2539 35.5378 25.2553C35.4524 25.2568 35.3681 25.2748 35.2898 25.3083C35.2114 25.3418 35.1406 25.3902 35.0812 25.4507C35.0219 25.5112 34.9752 25.5827 34.9438 25.6609C34.9125 25.7392 34.8971 25.8228 34.8986 25.907C34.9 25.9911 34.9183 26.0741 34.9523 26.1513L35.9134 28.3306C35.9821 28.4865 36.1109 28.6092 36.2714 28.6715C36.4319 28.7339 36.611 28.7309 36.7693 28.6632C36.9275 28.5955 37.052 28.4686 37.1153 28.3105C37.1787 28.1524 37.1756 27.976 37.1069 27.8201ZM38.7891 31.402L37.9976 29.6078C37.9637 29.5305 37.9146 29.4606 37.8532 29.4021C37.7918 29.3435 37.7193 29.2975 37.6398 29.2666C37.5603 29.2357 37.4754 29.2206 37.39 29.2221C37.3045 29.2236 37.2202 29.2417 37.1419 29.2753C37.0636 29.3088 36.9927 29.3573 36.9334 29.4178C36.874 29.4783 36.8274 29.5497 36.7961 29.628C36.7648 29.7063 36.7495 29.7899 36.751 29.8741C36.7526 29.9582 36.7709 30.0412 36.805 30.1183L37.5959 31.9123C37.6647 32.0682 37.7935 32.1908 37.954 32.2532C38.1145 32.3156 38.2936 32.3126 38.4519 32.245C38.6101 32.1773 38.7344 32.0504 38.7977 31.8923C38.8609 31.7342 38.8578 31.5579 38.7891 31.402ZM39.6774 33.5275C39.6455 33.4494 39.5982 33.3781 39.5384 33.318C39.4785 33.2578 39.4072 33.2099 39.3285 33.1769C39.2497 33.144 39.1652 33.1266 39.0797 33.1259C38.9942 33.1252 38.9093 33.1411 38.8301 33.1727C38.7508 33.2043 38.6786 33.2511 38.6177 33.3102C38.5568 33.3693 38.5083 33.4397 38.4751 33.5174C38.4418 33.595 38.4245 33.6783 38.424 33.7626C38.4234 33.8468 38.4398 33.9303 38.4721 34.0084L38.898 35.042C38.9279 35.1229 38.9741 35.197 39.0337 35.2599C39.0934 35.3229 39.1653 35.3733 39.2452 35.4083C39.325 35.4433 39.4112 35.4621 39.4986 35.4635C39.586 35.4649 39.6728 35.449 39.7538 35.4167C39.8348 35.3843 39.9084 35.3363 39.9701 35.2753C40.0319 35.2144 40.0805 35.1418 40.1131 35.0619C40.1458 34.982 40.1618 34.8965 40.1601 34.8104C40.1585 34.7243 40.1392 34.6394 40.1036 34.5608L39.6774 33.5275ZM39.908 28.3077C39.7471 28.3688 39.6174 28.4902 39.5472 28.6453C39.477 28.8004 39.472 28.9766 39.5334 29.1353L40.0447 30.4469C40.1065 30.6055 40.2296 30.7335 40.387 30.8027C40.5445 30.872 40.7234 30.8768 40.8844 30.8162C41.0455 30.7552 41.1754 30.6337 41.2456 30.4785C41.3158 30.3232 41.3207 30.1469 41.259 29.9881L40.7489 28.6767C40.7183 28.5981 40.6723 28.5262 40.6135 28.4651C40.5546 28.404 40.4842 28.3549 40.4061 28.3206C40.328 28.2863 40.2438 28.2676 40.1583 28.2653C40.0729 28.2631 39.9878 28.2775 39.908 28.3077ZM28.0552 32.3988C28.0246 32.3202 27.9786 32.2483 27.9197 32.1873C27.8609 32.1263 27.7904 32.0773 27.7123 32.0431C27.6343 32.009 27.5501 31.9903 27.4647 31.9882C27.3793 31.9861 27.2943 32.0006 27.2146 32.0309C27.0537 32.0921 26.9239 32.2137 26.8539 32.369C26.7838 32.5243 26.7792 32.7007 26.8409 32.8594L27.3764 34.2281C27.4385 34.3866 27.5619 34.5143 27.7195 34.5832C27.8771 34.6521 28.0561 34.6566 28.217 34.5956C28.2968 34.5656 28.3698 34.5203 28.4318 34.4623C28.4937 34.4044 28.5435 34.335 28.5781 34.258C28.6127 34.1811 28.6316 34.0982 28.6336 34.0141C28.6356 33.9299 28.6207 33.8462 28.5898 33.7678L28.0552 32.3988ZM24.7537 27.5052C24.8054 27.6633 24.9175 27.7954 25.0661 27.8738C25.2148 27.9522 25.3885 27.9707 25.5508 27.9254C25.713 27.8801 25.8511 27.7746 25.9359 27.6311C26.0208 27.4875 26.0458 27.3171 26.0057 27.1558L25.7935 26.4157C25.7463 26.2521 25.6351 26.1138 25.4844 26.031C25.3337 25.9482 25.1558 25.9277 24.9897 25.9741C24.9075 25.997 24.8307 26.0357 24.7636 26.0879C24.6966 26.1401 24.6407 26.2048 24.599 26.2783C24.5574 26.3518 24.5309 26.4327 24.521 26.5163C24.5112 26.6 24.5181 26.6847 24.5415 26.7656L24.7537 27.5052ZM28.6918 17.1405C28.7606 17.0907 28.8188 17.028 28.863 16.956C28.9072 16.884 28.9365 16.8041 28.9494 16.721C28.9623 16.6378 28.9584 16.5529 28.9379 16.4712C28.9175 16.3896 28.881 16.3126 28.8304 16.2449C28.7798 16.1771 28.7161 16.1198 28.643 16.0763C28.57 16.0327 28.4889 16.0038 28.4045 15.9911C28.3201 15.9785 28.2339 15.9823 28.151 16.0024C28.0681 16.0225 27.99 16.0585 27.9212 16.1084C26.1569 17.3867 26.9429 18.7855 27.463 19.7109C28.0284 20.7156 28.224 21.1501 27.3803 21.815C27.2525 21.9232 27.1723 22.0762 27.1566 22.2416C27.141 22.407 27.1911 22.5719 27.2964 22.7016C27.4017 22.8313 27.5541 22.9157 27.7213 22.9369C27.8885 22.9582 28.0576 22.9147 28.1929 22.8156C29.9273 21.4492 29.1298 20.0296 28.6016 19.0903C28.0299 18.073 27.8877 17.7233 28.6918 17.1405ZM32.2723 14.8491C32.2112 14.7902 32.139 14.7438 32.0597 14.7125C31.9804 14.6812 31.8956 14.6656 31.8102 14.6665C31.7248 14.6675 31.6404 14.685 31.5619 14.7182C31.4834 14.7513 31.4122 14.7993 31.3526 14.8595C29.6755 16.5497 30.5128 17.7997 31.0664 18.6264C31.5883 19.4049 31.8038 19.7275 30.9173 20.5232C30.8203 20.6104 30.7523 20.7245 30.7223 20.8504C30.6923 20.9763 30.7016 21.1083 30.7491 21.2289C30.7967 21.3495 30.8801 21.4531 30.9885 21.5261C31.0969 21.5991 31.2252 21.6382 31.3565 21.638C31.5134 21.638 31.6701 21.583 31.7945 21.4703C33.5017 19.9363 32.6903 18.7239 32.1521 17.9211C31.6287 17.1381 31.3393 16.7064 32.2834 15.7554C32.4038 15.6337 32.4702 15.4699 32.4681 15.3C32.466 15.1301 32.3956 14.9679 32.2723 14.8491Z" fill="#545E5E"/>
<path d="M14.7073 77V65.56H16.5473L20.2593 75.064H20.2913L23.9713 65.56H25.8433V77H24.4673V67.592H24.4353C24.2326 68.1893 24.0619 68.6693 23.9233 69.032L20.7873 77H19.6833L16.5473 69.032L16.0353 67.592H16.0033V77H14.7073ZM31.3325 77.224C30.1058 77.224 29.1298 76.8133 28.4045 75.992C27.6898 75.16 27.3325 74.12 27.3325 72.872C27.3325 71.6453 27.6952 70.616 28.4205 69.784C29.1565 68.9413 30.1005 68.52 31.2525 68.52C32.4685 68.52 33.4072 68.9467 34.0685 69.8C34.7298 70.6427 35.0605 71.768 35.0605 73.176H28.6605C28.7138 74.0507 28.9698 74.7653 29.4285 75.32C29.8978 75.864 30.5325 76.136 31.3325 76.136C32.5698 76.136 33.3325 75.5707 33.6205 74.44H34.8845C34.6925 75.3253 34.2872 76.0133 33.6685 76.504C33.0498 76.984 32.2712 77.224 31.3325 77.224ZM32.9805 70.248C32.5645 69.7787 31.9885 69.544 31.2525 69.544C30.5165 69.544 29.9298 69.7893 29.4925 70.28C29.0658 70.7707 28.7992 71.4107 28.6925 72.2H33.6685C33.6258 71.368 33.3965 70.7173 32.9805 70.248ZM42.8238 77.08C42.0024 77.08 41.5278 76.6693 41.3998 75.848H41.3838C40.7011 76.7227 39.7838 77.16 38.6318 77.16C37.8104 77.16 37.1384 76.9627 36.6158 76.568C36.0931 76.1733 35.8318 75.6027 35.8318 74.856C35.8318 74.472 35.8904 74.1413 36.0078 73.864C36.1358 73.576 36.2958 73.3467 36.4878 73.176C36.6798 72.9947 36.9411 72.84 37.2718 72.712C37.6131 72.5733 37.9384 72.472 38.2478 72.408C38.5571 72.3333 38.9518 72.2587 39.4318 72.184C39.7411 72.1413 39.9598 72.1093 40.0878 72.088C40.2264 72.056 40.4024 72.0133 40.6158 71.96C40.8291 71.896 40.9784 71.8267 41.0638 71.752C41.1491 71.6773 41.2291 71.576 41.3038 71.448C41.3784 71.32 41.4158 71.1707 41.4158 71C41.4158 70.5307 41.2504 70.1733 40.9198 69.928C40.5998 69.672 40.1464 69.544 39.5598 69.544C38.2264 69.544 37.5384 70.152 37.4958 71.368H36.2478C36.2691 70.5253 36.5571 69.848 37.1118 69.336C37.6771 68.824 38.4878 68.568 39.5438 68.568C41.5811 68.568 42.5998 69.4427 42.5998 71.192V75.128C42.5998 75.4907 42.6584 75.7467 42.7758 75.896C42.9038 76.0453 43.1384 76.0827 43.4798 76.008H43.5278V76.952C43.3144 77.0373 43.0798 77.08 42.8238 77.08ZM38.9198 76.168C39.7198 76.168 40.3384 75.9387 40.7758 75.48C41.2131 75.0107 41.4318 74.4987 41.4318 73.944V72.536C41.0371 72.7813 40.4078 72.984 39.5438 73.144C39.2238 73.208 38.9731 73.2613 38.7918 73.304C38.6104 73.336 38.4024 73.4 38.1678 73.496C37.9331 73.5813 37.7571 73.6773 37.6398 73.784C37.5224 73.8907 37.4211 74.0347 37.3358 74.216C37.2504 74.3867 37.2078 74.5893 37.2078 74.824C37.2078 75.72 37.7784 76.168 38.9198 76.168ZM43.7998 69.784V68.728H44.9998V66.12H46.2958V68.728H47.8958V69.784H46.2958V75.16C46.2958 75.672 46.5731 75.928 47.1278 75.928C47.3624 75.928 47.5918 75.8907 47.8158 75.816H47.8638V76.936C47.5118 77.0107 47.1651 77.048 46.8238 77.048C45.6078 77.048 44.9998 76.5147 44.9998 75.448V69.784H43.7998Z" fill="#838D8D"/>
</svg>
