<svg width="86" height="84" viewBox="0 0 86 84" fill="none" xmlns="http://www.w3.org/2000/svg">
<path d="M14.1494 44.6958C14.1494 49.7394 18.2381 53.8281 23.2817 53.8281H61.9342C66.9779 53.8281 71.0665 49.7394 71.0665 44.6958V30.63C71.0665 14.9127 58.3252 2.17141 42.608 2.17141C26.8907 2.17141 14.1494 14.9127 14.1494 30.63V44.6958Z" fill="white" stroke="#DEEAEA"/>
<path d="M29.9909 41.3331H35.5589C35.8775 41.3363 36.1843 41.2078 36.4122 40.9759C36.6401 40.744 36.7705 40.4275 36.7749 40.0956V25.5373C36.7755 24.9818 36.6595 24.4329 36.4349 23.929C35.7169 22.3123 35.3889 20.9832 35.4049 19.7478C35.4063 19.6295 35.3848 19.5121 35.3419 19.4026C35.299 19.2931 35.2354 19.1937 35.1549 19.1103C35.0006 18.9475 34.7941 18.8496 34.5749 18.8353V17.8957C34.5719 17.734 34.5282 17.576 34.448 17.4376C34.3678 17.2991 34.254 17.1851 34.1181 17.107L33.7146 15.402C33.6678 15.1916 33.5536 15.0041 33.3908 14.8703C33.228 14.7366 33.0263 14.6647 32.8189 14.6665C32.6116 14.6648 32.4098 14.7366 32.2469 14.8703C32.0841 15.0041 31.9698 15.1916 31.923 15.402L31.5318 17.0552C31.3707 17.1238 31.2322 17.2399 31.1333 17.3891C31.0344 17.5384 30.9794 17.7144 30.9749 17.8957V18.8353C30.7557 18.8496 30.5492 18.9475 30.3949 19.1103C30.3144 19.1937 30.2508 19.2931 30.2079 19.4026C30.165 19.5121 30.1435 19.6295 30.1449 19.7478C30.1609 20.9832 29.8329 22.3123 29.1149 23.929C28.8903 24.4329 28.7743 24.9818 28.7749 25.5373V40.0956C28.7793 40.4275 28.9097 40.744 29.1376 40.9759C29.3655 41.2078 29.6723 41.3363 29.9909 41.3331ZM32.6998 15.6014C32.7053 15.5728 32.7202 15.547 32.7419 15.5285C32.7636 15.51 32.7908 15.4999 32.8188 15.4999C32.8468 15.4999 32.874 15.51 32.8957 15.5285C32.9174 15.547 32.9323 15.5728 32.9378 15.6014L33.2589 16.9582H32.3787L32.6998 15.6014ZM31.7749 17.8957C31.7749 17.8582 31.8449 17.7915 31.9589 17.7915H33.5909C33.7049 17.7915 33.7749 17.8582 33.7749 17.8957V18.8332H31.7749V17.8957ZM29.5749 25.5373C29.5748 25.1027 29.6656 24.6734 29.8409 24.279C30.2397 23.4088 30.5461 22.4957 30.7545 21.5562H33.4001C33.5062 21.5562 33.6079 21.5123 33.6829 21.4341C33.758 21.356 33.8001 21.25 33.8001 21.1395C33.8001 21.029 33.758 20.923 33.6829 20.8449C33.6079 20.7667 33.5062 20.7228 33.4001 20.7228H30.8923C30.9303 20.3959 30.9479 20.0667 30.9449 19.7374C30.9449 19.7295 30.9465 19.7217 30.9496 19.7145C30.9527 19.7073 30.9572 19.7009 30.9629 19.6957C30.9808 19.6779 31.0042 19.6675 31.0289 19.6665H34.5209C34.5456 19.6675 34.5691 19.6779 34.5869 19.6957C34.5926 19.7009 34.5971 19.7073 34.6002 19.7145C34.6033 19.7217 34.6049 19.7295 34.6049 19.7374C34.5889 21.1019 34.9389 22.5436 35.7089 24.279C35.8842 24.6734 35.975 25.1027 35.9749 25.5373V35.9165H29.5749V25.5373ZM29.5749 36.7498H35.9749V37.5831H29.5749V36.7498ZM29.5749 38.4165H35.9749V40.0956C35.9711 40.2066 35.9251 40.3115 35.8471 40.3873C35.7691 40.4631 35.6655 40.5035 35.5589 40.4998H29.9909C29.8843 40.5035 29.7807 40.4631 29.7027 40.3873C29.6247 40.3115 29.5788 40.2066 29.5749 40.0956V38.4165Z" fill="#545E5E"/>
<path d="M32.6415 24C32.1404 24 31.6506 24.147 31.234 24.4223C30.8174 24.6977 30.4927 25.0891 30.301 25.547C30.1093 26.0049 30.0591 26.5088 30.1568 26.9949C30.2546 27.481 30.4959 27.9276 30.8502 28.2781C31.2044 28.6285 31.6558 28.8672 32.1473 28.9639C32.6387 29.0606 33.148 29.011 33.611 28.8213C34.0739 28.6316 34.4695 28.3104 34.7479 27.8983C35.0262 27.4862 35.1748 27.0017 35.1748 26.506C35.1741 25.8416 34.9069 25.2046 34.432 24.7348C33.9571 24.265 33.3131 24.0007 32.6415 24ZM32.6415 28.1767C32.3075 28.1767 31.9809 28.0787 31.7032 27.8951C31.4255 27.7116 31.209 27.4506 31.0812 27.1454C30.9533 26.8401 30.9199 26.5042 30.9851 26.1801C31.0502 25.856 31.2111 25.5583 31.4473 25.3247C31.6835 25.091 31.9844 24.9319 32.312 24.8674C32.6396 24.803 32.9792 24.8361 33.2878 24.9625C33.5964 25.089 33.8602 25.3031 34.0457 25.5778C34.2313 25.8526 34.3304 26.1756 34.3304 26.506C34.3299 26.949 34.1518 27.3736 33.8351 27.6868C33.5185 28 33.0893 28.1762 32.6415 28.1767ZM55.0193 32.7711H53.4815C53.4441 32.467 53.3111 32.1823 53.1011 31.9572C52.8755 31.7274 52.5865 31.5684 52.2702 31.4999C52.2383 30.9941 52.0157 30.5185 51.6463 30.1672C51.2671 29.8396 50.7917 29.6412 50.2899 29.601C50.2259 29.2319 49.9639 28.7433 49.1423 28.327C48.3593 27.9305 48.6585 27.1686 48.7253 27.0224C48.7572 26.9551 48.7703 26.8806 48.7634 26.8066C48.7564 26.7327 48.7296 26.6618 48.6858 26.6015C48.6419 26.5412 48.5826 26.4935 48.5139 26.4634C48.4452 26.4333 48.3697 26.4219 48.2951 26.4304C47.7028 26.4892 47.1408 26.7178 46.6779 27.088C46.2151 27.4583 45.8715 27.9541 45.6894 28.5146C45.2913 28.4004 44.8664 28.4188 44.4799 28.5668C43.9266 28.8153 43.478 29.2467 43.2114 29.7868C41.9922 29.9587 41.1626 30.4082 40.7437 31.1249C40.4668 31.6274 40.3823 32.2119 40.5057 32.7711H38.5526C38.4406 32.7711 38.3332 32.8151 38.254 32.8934C38.1749 32.9718 38.1304 33.078 38.1304 33.1888C38.1304 37.6797 42.0133 41.3333 46.7859 41.3333C51.5586 41.3333 55.4415 37.6797 55.4415 33.1888C55.4415 33.078 55.397 32.9718 55.3178 32.8934C55.2386 32.8151 55.1312 32.7711 55.0193 32.7711ZM47.7753 27.407C47.7444 27.7508 47.8223 28.0956 47.9983 28.3937C48.1742 28.6917 48.4395 28.9283 48.7574 29.0706C49.0149 29.1816 49.2371 29.3599 49.4001 29.5863C47.5817 29.5501 46.774 29.169 46.4465 28.9335C46.5315 28.5939 46.6961 28.2787 46.9269 28.0136C47.1578 27.7484 47.4484 27.5406 47.7753 27.407ZM44.7873 29.3449C44.9349 29.2933 45.0916 29.2717 45.2478 29.2815C45.4041 29.2913 45.5568 29.3322 45.6967 29.4017C46.0793 29.7974 47.0924 30.4247 49.6719 30.4247C49.7772 30.4247 49.8855 30.4237 49.9961 30.4217C50.0009 30.4216 50.0053 30.4203 50.01 30.42C50.395 30.4125 50.7705 30.5393 51.0704 30.7782C51.2699 30.9738 51.3938 31.2325 51.4204 31.5092C47.4808 31.8799 44.8737 30.5424 44.0412 30.0323C44.2103 29.731 44.4715 29.4904 44.7873 29.3449ZM41.4747 31.5432C41.7627 31.0504 42.4077 30.7381 43.3847 30.6093C43.9827 31.0156 46.3093 32.4122 50.0353 32.4122C50.6758 32.411 51.3157 32.3707 51.9512 32.2913C52.1508 32.3093 52.3386 32.3927 52.4849 32.5282C52.5485 32.5976 52.5947 32.6808 52.6198 32.7711H41.3708C41.2437 32.3639 41.2809 31.9238 41.4747 31.5432ZM46.7859 40.498C43.4194 40.498 40.5441 38.4944 39.4486 35.6948H54.1233C53.0278 38.4944 50.1525 40.498 46.7859 40.498ZM54.3889 34.8594H39.183C39.0791 34.4486 39.0136 34.0291 38.9874 33.6064H54.5845C54.5582 34.0291 54.4928 34.4486 54.3889 34.8594Z" fill="#545E5E"/>
<path d="M44.2171 38.6483C44.3246 38.6791 44.4416 38.6709 44.5423 38.6255C44.643 38.5801 44.7191 38.5012 44.7541 38.4062C44.789 38.3112 44.7798 38.2078 44.7284 38.1187C44.6771 38.0297 44.5879 37.9623 44.4804 37.9314C43.3205 37.6049 42.2958 36.9825 41.5351 36.1426C41.5003 36.1038 41.4572 36.0715 41.4083 36.0474C41.3594 36.0234 41.3056 36.0081 41.2499 36.0025C41.1943 35.9968 41.138 36.0009 41.0842 36.0145C41.0303 36.0281 40.98 36.0509 40.9362 36.0817C40.8923 36.1124 40.8558 36.1505 40.8286 36.1938C40.8014 36.237 40.7841 36.2846 40.7777 36.3337C40.7713 36.3829 40.7759 36.4327 40.7913 36.4803C40.8067 36.5278 40.8325 36.5723 40.8673 36.611C41.732 37.5674 42.8975 38.2762 44.2171 38.6483Z" fill="#545E5E"/>
<path d="M10.4122 75.56C9.39882 76.68 8.04415 77.24 6.34815 77.24C4.65215 77.24 3.29215 76.68 2.26815 75.56C1.25482 74.44 0.748154 73.0107 0.748154 71.272C0.748154 69.5333 1.25482 68.104 2.26815 66.984C3.29215 65.864 4.65215 65.304 6.34815 65.304C8.04415 65.304 9.39882 65.864 10.4122 66.984C11.4362 68.104 11.9482 69.5333 11.9482 71.272C11.9482 73.0107 11.4362 74.44 10.4122 75.56ZM3.30815 74.664C4.03349 75.5387 5.04682 75.976 6.34815 75.976C7.64949 75.976 8.66282 75.5387 9.38815 74.664C10.1135 73.7893 10.4762 72.6587 10.4762 71.272C10.4762 69.8853 10.1135 68.7547 9.38815 67.88C8.66282 66.9947 7.64949 66.552 6.34815 66.552C5.04682 66.552 4.03349 66.9947 3.30815 67.88C2.58282 68.7547 2.22015 69.8853 2.22015 71.272C2.22015 72.6587 2.58282 73.7893 3.30815 74.664ZM13.4725 77V68.728H14.7685V77H13.4725ZM13.4725 67.16V65.56H14.7685V67.16H13.4725ZM16.583 77V65.56H17.879V77H16.583ZM25.2622 77.224C24.3875 77.224 23.6195 76.9413 22.9582 76.376C22.3075 75.8 21.9822 75.064 21.9822 74.168C21.9822 73.3893 22.1848 72.7493 22.5902 72.248C23.0062 71.7467 23.6302 71.24 24.4622 70.728L24.1422 70.312C23.5555 69.5547 23.2622 68.7707 23.2622 67.96C23.2622 67.3093 23.4968 66.7653 23.9662 66.328C24.4462 65.8907 25.0328 65.672 25.7262 65.672C26.4088 65.672 26.9902 65.88 27.4702 66.296C27.9608 66.712 28.2062 67.2987 28.2062 68.056C28.2062 68.6853 28.0248 69.2133 27.6622 69.64C27.2995 70.056 26.7822 70.4827 26.1102 70.92L28.3822 73.816C28.6382 73.1547 28.7662 72.4507 28.7662 71.704H29.8862C29.8862 72.8347 29.6408 73.864 29.1502 74.792L30.8782 77H29.3262L28.4302 75.848C27.5875 76.7653 26.5315 77.224 25.2622 77.224ZM25.3422 76.088C26.2808 76.088 27.0755 75.704 27.7262 74.936L25.1022 71.56C24.4942 71.9653 24.0355 72.36 23.7262 72.744C23.4275 73.1173 23.2782 73.592 23.2782 74.168C23.2782 74.7227 23.4755 75.1813 23.8702 75.544C24.2755 75.9067 24.7662 76.088 25.3422 76.088ZM24.4782 67.976C24.4782 68.5307 24.7128 69.112 25.1822 69.72L25.4862 70.12C25.9982 69.7893 26.3715 69.464 26.6062 69.144C26.8408 68.824 26.9582 68.4507 26.9582 68.024C26.9582 67.6293 26.8462 67.32 26.6222 67.096C26.3982 66.8613 26.0995 66.744 25.7262 66.744C25.3528 66.744 25.0488 66.8613 24.8142 67.096C24.5902 67.32 24.4782 67.6133 24.4782 67.976ZM38.5277 77.224C36.9917 77.224 35.8077 76.8453 34.9757 76.088C34.1543 75.3307 33.7117 74.344 33.6477 73.128H35.0557C35.2477 75.0907 36.4263 76.072 38.5917 76.072C39.413 76.072 40.069 75.8907 40.5597 75.528C41.061 75.1547 41.3117 74.6213 41.3117 73.928C41.3117 73.6187 41.253 73.3467 41.1357 73.112C41.0183 72.8773 40.8743 72.6853 40.7037 72.536C40.5437 72.3867 40.2983 72.248 39.9677 72.12C39.637 71.992 39.3277 71.8907 39.0397 71.816C38.7623 71.7413 38.3783 71.6507 37.8877 71.544C37.301 71.416 36.8157 71.288 36.4317 71.16C36.0477 71.0213 35.6637 70.8347 35.2797 70.6C34.8957 70.3653 34.6077 70.0667 34.4157 69.704C34.2343 69.3307 34.1437 68.8827 34.1437 68.36C34.1437 67.4213 34.4957 66.6853 35.1997 66.152C35.9143 65.608 36.8583 65.336 38.0317 65.336C40.6023 65.336 42.0477 66.5253 42.3677 68.904H41.0077C40.901 68.0933 40.597 67.4853 40.0957 67.08C39.5943 66.664 38.917 66.456 38.0637 66.456C37.2743 66.456 36.645 66.616 36.1757 66.936C35.717 67.256 35.4877 67.7093 35.4877 68.296C35.4877 68.552 35.5357 68.7813 35.6317 68.984C35.7383 69.176 35.8717 69.3413 36.0317 69.48C36.2023 69.608 36.421 69.7253 36.6877 69.832C36.965 69.9387 37.237 70.0293 37.5037 70.104C37.7703 70.168 38.0957 70.2373 38.4797 70.312C39.013 70.4187 39.4503 70.52 39.7917 70.616C40.133 70.7013 40.5117 70.8347 40.9277 71.016C41.3437 71.1973 41.6637 71.4053 41.8877 71.64C42.1223 71.8747 42.3197 72.184 42.4797 72.568C42.6503 72.9413 42.7357 73.3787 42.7357 73.88C42.7357 74.9253 42.3463 75.7467 41.5677 76.344C40.7997 76.9307 39.7863 77.224 38.5277 77.224ZM50.6873 77.08C49.8659 77.08 49.3913 76.6693 49.2633 75.848H49.2473C48.5646 76.7227 47.6473 77.16 46.4953 77.16C45.6739 77.16 45.0019 76.9627 44.4793 76.568C43.9566 76.1733 43.6953 75.6027 43.6953 74.856C43.6953 74.472 43.7539 74.1413 43.8713 73.864C43.9993 73.576 44.1593 73.3467 44.3513 73.176C44.5433 72.9947 44.8046 72.84 45.1353 72.712C45.4766 72.5733 45.8019 72.472 46.1113 72.408C46.4206 72.3333 46.8153 72.2587 47.2953 72.184C47.6046 72.1413 47.8233 72.1093 47.9513 72.088C48.0899 72.056 48.2659 72.0133 48.4793 71.96C48.6926 71.896 48.8419 71.8267 48.9273 71.752C49.0126 71.6773 49.0926 71.576 49.1673 71.448C49.2419 71.32 49.2793 71.1707 49.2793 71C49.2793 70.5307 49.1139 70.1733 48.7833 69.928C48.4633 69.672 48.0099 69.544 47.4233 69.544C46.0899 69.544 45.4019 70.152 45.3593 71.368H44.1113C44.1326 70.5253 44.4206 69.848 44.9753 69.336C45.5406 68.824 46.3513 68.568 47.4073 68.568C49.4446 68.568 50.4633 69.4427 50.4633 71.192V75.128C50.4633 75.4907 50.5219 75.7467 50.6393 75.896C50.7673 76.0453 51.0019 76.0827 51.3433 76.008H51.3913V76.952C51.1779 77.0373 50.9433 77.08 50.6873 77.08ZM46.7833 76.168C47.5833 76.168 48.2019 75.9387 48.6393 75.48C49.0766 75.0107 49.2953 74.4987 49.2953 73.944V72.536C48.9006 72.7813 48.2713 72.984 47.4073 73.144C47.0873 73.208 46.8366 73.2613 46.6553 73.304C46.4739 73.336 46.2659 73.4 46.0313 73.496C45.7966 73.5813 45.6206 73.6773 45.5033 73.784C45.3859 73.8907 45.2846 74.0347 45.1993 74.216C45.1139 74.3867 45.0713 74.5893 45.0713 74.824C45.0713 75.72 45.6419 76.168 46.7833 76.168ZM58.9075 77H57.6115V75.864H57.5795C56.9289 76.7493 56.0969 77.192 55.0835 77.192C54.2302 77.192 53.5529 76.952 53.0515 76.472C52.5502 75.9813 52.2995 75.3093 52.2995 74.456V68.728H53.5955V74.424C53.5955 74.9573 53.7555 75.3733 54.0755 75.672C54.4062 75.9707 54.8649 76.12 55.4515 76.12C56.1022 76.12 56.6249 75.9013 57.0195 75.464C57.4142 75.0267 57.6115 74.4773 57.6115 73.816V68.728H58.9075V77ZM64.196 77.224C62.9907 77.224 62.02 76.808 61.284 75.976C60.5587 75.144 60.196 74.1093 60.196 72.872C60.196 71.6347 60.5587 70.6 61.284 69.768C62.02 68.936 62.9907 68.52 64.196 68.52C65.1667 68.52 65.9614 68.7813 66.58 69.304C67.1987 69.816 67.5827 70.5147 67.732 71.4H66.42C66.324 70.8347 66.084 70.392 65.7 70.072C65.316 69.752 64.8147 69.592 64.196 69.592C63.3427 69.592 62.6814 69.9013 62.212 70.52C61.7534 71.1387 61.524 71.9227 61.524 72.872C61.524 73.8213 61.7534 74.6053 62.212 75.224C62.6814 75.832 63.3427 76.136 64.196 76.136C64.8574 76.136 65.3854 75.96 65.78 75.608C66.1747 75.2453 66.3987 74.7387 66.452 74.088H67.732C67.6467 75.08 67.2947 75.8533 66.676 76.408C66.0574 76.952 65.2307 77.224 64.196 77.224ZM72.4929 77.224C71.2662 77.224 70.2902 76.8133 69.5649 75.992C68.8502 75.16 68.4929 74.12 68.4929 72.872C68.4929 71.6453 68.8556 70.616 69.5809 69.784C70.3169 68.9413 71.2609 68.52 72.4129 68.52C73.6289 68.52 74.5676 68.9467 75.2289 69.8C75.8902 70.6427 76.2209 71.768 76.2209 73.176H69.8209C69.8742 74.0507 70.1302 74.7653 70.5889 75.32C71.0582 75.864 71.6929 76.136 72.4929 76.136C73.7302 76.136 74.4929 75.5707 74.7809 74.44H76.0449C75.8529 75.3253 75.4476 76.0133 74.8289 76.504C74.2102 76.984 73.4316 77.224 72.4929 77.224ZM74.1409 70.248C73.7249 69.7787 73.1489 69.544 72.4129 69.544C71.6769 69.544 71.0902 69.7893 70.6529 70.28C70.2262 70.7707 69.9596 71.4107 69.8529 72.2H74.8289C74.7862 71.368 74.5569 70.7173 74.1409 70.248ZM80.6242 77.24C79.4935 77.24 78.6135 76.9893 77.9842 76.488C77.3655 75.976 77.0242 75.2507 76.9602 74.312H78.2882C78.4375 75.5387 79.2268 76.152 80.6562 76.152C81.3068 76.152 81.7868 76.0293 82.0962 75.784C82.4162 75.528 82.5762 75.1973 82.5762 74.792C82.5762 74.3547 82.4215 74.04 82.1122 73.848C81.8028 73.656 81.2375 73.4747 80.4162 73.304C80.0748 73.2293 79.8028 73.1707 79.6002 73.128C79.4082 73.0747 79.1735 73.0053 78.8962 72.92C78.6188 72.824 78.4002 72.7227 78.2402 72.616C78.0908 72.4987 77.9362 72.36 77.7762 72.2C77.6162 72.04 77.4988 71.8427 77.4242 71.608C77.3602 71.3733 77.3282 71.112 77.3282 70.824C77.3282 70.12 77.5842 69.5653 78.0962 69.16C78.6188 68.7547 79.3548 68.552 80.3042 68.552C82.2668 68.552 83.3495 69.416 83.5522 71.144H82.2242C82.1602 70.6 81.9735 70.2053 81.6642 69.96C81.3548 69.704 80.8908 69.576 80.2722 69.576C79.7068 69.576 79.2855 69.688 79.0082 69.912C78.7415 70.1253 78.6082 70.408 78.6082 70.76C78.6082 71.1653 78.7682 71.4533 79.0882 71.624C79.4082 71.784 79.9895 71.9493 80.8322 72.12C81.3442 72.2267 81.7442 72.328 82.0322 72.424C82.3308 72.5093 82.6402 72.648 82.9602 72.84C83.2802 73.0213 83.5148 73.2667 83.6642 73.576C83.8135 73.8853 83.8882 74.2693 83.8882 74.728C83.8882 75.5387 83.5895 76.1627 82.9922 76.6C82.3948 77.0267 81.6055 77.24 80.6242 77.24Z" fill="#838D8D"/>
</svg>
