<svg width="63" height="84" viewBox="0 0 63 84" fill="none" xmlns="http://www.w3.org/2000/svg">
<path d="M2.62231 44.6958C2.62231 49.7394 6.711 53.8281 11.7546 53.8281H50.4071C55.4508 53.8281 59.5394 49.7394 59.5394 44.6958V30.63C59.5394 14.9127 46.7981 2.17141 31.0809 2.17141C15.3636 2.17141 2.62231 14.9127 2.62231 30.63V44.6958Z" fill="white" stroke="#DEEAEA"/>
<path d="M43.4844 34.0213V29.4824C43.4579 29.0653 43.2678 28.6755 42.9554 28.3979C42.6431 28.1202 42.2337 27.9772 41.8164 27.9998C41.5017 27.9984 41.192 28.0786 40.9175 28.2325L38.3287 29.6991L37.6431 28.4888C37.421 28.0791 37.0476 27.7725 36.6026 27.6342V24.7524C36.5765 24.3351 36.3865 23.9451 36.0741 23.6671C35.7617 23.3892 35.3522 23.246 34.9347 23.2686C34.62 23.2672 34.3103 23.3474 34.0358 23.5012L30.5811 25.4587V23.0931C30.5517 22.6569 30.3513 22.2499 30.0236 21.9606C29.6958 21.6713 29.2671 21.5231 28.8306 21.5481C28.5005 21.5468 28.1756 21.6302 27.8869 21.7903L23.8065 24.0858C23.6243 24.1889 23.4591 24.3195 23.3166 24.4729C23.0503 24.2525 22.716 24.131 22.3704 24.1288C22.1158 24.1328 21.866 24.199 21.6429 24.3217C21.4198 24.4445 21.2301 24.6199 21.0904 24.8329L18.6921 28.1241C18.5972 28.1618 18.5061 28.2086 18.4203 28.2639C18.1868 28.4252 17.997 28.642 17.8679 28.8947C17.7388 29.1475 17.6744 29.4283 17.6805 29.712L17.6779 34.0213C17.5638 34.0213 17.4544 34.0666 17.3738 34.1473C17.2931 34.2279 17.2478 34.3373 17.2478 34.4514V36.602C17.2493 37.8563 17.7482 39.0588 18.6352 39.9458C19.5221 40.8328 20.7247 41.3317 21.979 41.3332H39.1833C40.4376 41.3317 41.6402 40.8328 42.5271 39.9458C43.4141 39.0588 43.913 37.8563 43.9145 36.602V34.4514C43.9145 34.3373 43.8692 34.2279 43.7885 34.1473C43.7078 34.0666 43.5984 34.0213 43.4844 34.0213ZM41.3416 28.9808C41.4863 28.9005 41.6492 28.8589 41.8147 28.86C42.0036 28.8408 42.1926 28.8946 42.3431 29.0103C42.4936 29.126 42.5942 29.2949 42.6241 29.4824V34.0213H39.85C39.9836 33.7553 40.0499 33.4606 40.043 33.1631C40.0362 32.8655 39.9565 32.5742 39.8108 32.3146L38.7532 30.4475L41.3416 28.9808ZM43.0543 36.1719H18.108V34.8815H43.0543V36.1719ZM21.5489 33.2505C21.5474 33.0734 21.5973 32.8997 21.6925 32.7503L24.2732 28.8449C24.3457 28.7228 24.4477 28.6209 24.5698 28.5484C24.6919 28.4759 24.8302 28.4351 24.9721 28.4299C25.1273 28.4374 25.2776 28.4861 25.4077 28.5711C25.5377 28.6561 25.6427 28.7742 25.7119 28.9133L26.013 29.4475C25.8668 29.6999 25.7457 29.966 25.6512 30.2419L25.5398 30.5804H25.4198C25.3058 30.5804 25.1964 30.6257 25.1157 30.7064C25.0351 30.7871 24.9897 30.8965 24.9897 31.0105V32.731C24.9897 32.845 25.0351 32.9544 25.1157 33.0351C25.1964 33.1158 25.3058 33.1611 25.4198 33.1611V34.0213H22.1394C21.9614 33.9921 21.8012 33.8961 21.6914 33.7529C21.5817 33.6097 21.5307 33.43 21.5489 33.2505ZM29.9575 27.9998H31.2048C31.9766 27.9998 32.7288 28.2427 33.3549 28.694C33.981 29.1452 34.4493 29.782 34.6934 30.5142L34.7153 30.5804H26.4469L26.4689 30.5142C26.713 29.782 27.1813 29.1452 27.8074 28.694C28.4335 28.2427 29.1857 27.9998 29.9575 27.9998ZM26.2801 34.0213V33.1611H34.8822V34.0213H26.2801ZM35.3123 31.4406V32.3009H25.85V31.4406H35.3123ZM36.8947 28.9133L39.0624 32.7387C39.1427 32.8834 39.1844 33.0464 39.1833 33.2118C39.2025 33.4007 39.1487 33.5898 39.033 33.7403C38.9173 33.8908 38.7484 33.9913 38.5609 34.0213H35.7424V33.1611C35.8565 33.1611 35.9659 33.1158 36.0466 33.0351C36.1272 32.9544 36.1725 32.845 36.1725 32.731V31.0105C36.1725 30.8965 36.1272 30.7871 36.0466 30.7064C35.9659 30.6257 35.8565 30.5804 35.7424 30.5804H35.6224L35.5093 30.2424C35.4068 29.9394 35.2721 29.6482 35.1076 29.374L35.4573 28.8449C35.5297 28.723 35.6314 28.6212 35.7533 28.5487C35.8752 28.4762 36.0132 28.4353 36.1549 28.4299C36.3101 28.4374 36.4604 28.4861 36.5905 28.5711C36.7205 28.6561 36.8255 28.7742 36.8947 28.9133ZM34.4598 24.2496C34.6045 24.1693 34.7675 24.1277 34.933 24.1288C35.1218 24.1096 35.3109 24.1634 35.4614 24.2791C35.6119 24.3948 35.7124 24.5637 35.7424 24.7511V27.6256C35.329 27.7442 34.9728 28.0089 34.7398 28.3705L34.5622 28.6393C34.14 28.1667 33.6226 27.7887 33.044 27.5302C32.4653 27.2717 31.8385 27.1386 31.2048 27.1395H30.1536C30.1641 26.9878 30.214 26.8414 30.2983 26.7147C30.3826 26.5881 30.4985 26.4856 30.6345 26.4174L34.4598 24.2496ZM24.228 24.8359L28.3089 22.5404C28.4686 22.4523 28.6482 22.4068 28.8306 22.4083C29.0383 22.387 29.2463 22.4461 29.4119 22.5734C29.5775 22.7006 29.688 22.8864 29.7209 23.0926V26.0643C29.4472 26.3626 29.2939 26.7519 29.2908 27.1568C29.2908 27.1679 29.2938 27.1787 29.2938 27.1899C28.2359 27.3424 27.2681 27.87 26.5665 28.6763L26.4603 28.4884C26.3372 28.2594 26.1648 28.0606 25.9555 27.9064C25.7461 27.7522 25.5052 27.6464 25.25 27.5968L23.8517 25.1739C23.9497 25.034 24.0784 24.9183 24.228 24.8359ZM21.7927 25.3262C21.8533 25.2268 21.9376 25.1439 22.038 25.0851C22.1384 25.0262 22.2519 24.9932 22.3682 24.989C22.4956 24.9948 22.6191 25.0341 22.7263 25.1031C22.8335 25.1721 22.9205 25.2682 22.9786 25.3817L24.3235 27.7129C24.0107 27.8548 23.7448 28.0829 23.5571 28.3705L22.7829 29.5439L20.17 28.2105C20.0509 28.1507 19.9261 28.1032 19.7975 28.0686L21.7927 25.3262ZM18.5407 29.7133C18.5338 29.5716 18.5626 29.4304 18.6243 29.3027C18.6861 29.175 18.7789 29.0647 18.8943 28.9821C19.0279 28.9031 19.1801 28.861 19.3353 28.8601C19.4906 28.8593 19.6433 28.8998 19.7777 28.9774L22.3041 30.2677L20.9751 32.2776C20.8084 32.5344 20.711 32.8299 20.6924 33.1355C20.6738 33.441 20.7346 33.7462 20.8689 34.0213H18.5381L18.5407 29.7133ZM39.1833 40.473H21.979C21.0274 40.4716 20.1095 40.1201 19.4003 39.4856C18.6911 38.851 18.2402 37.9777 18.1334 37.0321H43.0289C42.9221 37.9777 42.4712 38.851 41.762 39.4856C41.0528 40.1201 40.1349 40.4716 39.1833 40.473ZM22.6241 23.2686C22.9083 23.2692 23.1876 23.195 23.434 23.0535L26.7493 21.1408C26.9881 21.0173 27.1899 20.8328 27.3343 20.6059C27.4786 20.3791 27.5604 20.1182 27.5712 19.8495C27.582 19.5809 27.5214 19.3142 27.3957 19.0765C27.27 18.8389 27.0837 18.6388 26.8555 18.4965L23.471 16.2169C23.2092 16.0454 22.9027 15.9549 22.5897 15.9567C22.2186 15.9395 21.8556 16.0697 21.5801 16.319C21.3045 16.5683 21.1387 16.9164 21.1188 17.2874V21.9098C21.1394 22.2892 21.3092 22.6451 21.5913 22.8996C21.8733 23.1542 22.2446 23.2868 22.6241 23.2686ZM21.979 17.2874C22.0016 17.1459 22.0775 17.0184 22.191 16.931C22.3045 16.8435 22.4471 16.8027 22.5897 16.8169C22.7312 16.8157 22.8699 16.8563 22.9884 16.9335L26.373 19.2131C26.4721 19.2734 26.5548 19.3574 26.6137 19.4575C26.6725 19.5577 26.7057 19.6708 26.7102 19.7868C26.7044 19.9142 26.665 20.0377 26.5961 20.1449C26.5271 20.2521 26.431 20.3391 26.3175 20.3971L23.0018 22.3098C22.8867 22.3751 22.7565 22.4091 22.6241 22.4083C22.4733 22.4235 22.3223 22.3802 22.2023 22.2875C22.0823 22.1948 22.0024 22.0597 21.979 21.9098V17.2874ZM31.0517 21.118H35.674C36.053 21.0974 36.4085 20.9279 36.663 20.6463C36.9176 20.3647 37.0504 19.9939 37.0327 19.6148C37.0334 19.3306 36.9592 19.0513 36.8177 18.8049L34.9063 15.4896C34.7828 15.2508 34.5982 15.049 34.3714 14.9046C34.1446 14.7603 33.8837 14.6785 33.615 14.6677C33.3464 14.6569 33.0797 14.7175 32.8421 14.8432C32.6044 14.9689 32.4043 15.1552 32.262 15.3834L29.9824 18.7679C29.8109 19.0289 29.7199 19.3347 29.7209 19.647C29.7037 20.0182 29.8339 20.3812 30.0832 20.6567C30.3325 20.9323 30.6806 21.0981 31.0517 21.118ZM30.6977 19.2483L32.9773 15.8638C33.0377 15.7646 33.1216 15.6819 33.2218 15.6231C33.3219 15.5642 33.435 15.5311 33.551 15.5266C33.6784 15.5323 33.8019 15.5717 33.9091 15.6407C34.0163 15.7097 34.1033 15.8058 34.1614 15.9193L36.074 19.235C36.1397 19.3507 36.1737 19.4817 36.1725 19.6148C36.1871 19.7653 36.1436 19.9157 36.0509 20.0352C35.9583 20.1547 35.8234 20.2344 35.674 20.2578H31.0517C30.9102 20.2351 30.7827 20.1593 30.6952 20.0458C30.6077 19.9323 30.5669 19.7896 30.5811 19.647C30.5799 19.5056 30.6205 19.3669 30.6977 19.2483ZM42.4112 19.8277C42.1271 19.827 41.8478 19.9012 41.6014 20.0427L38.2861 21.9554C38.0473 22.0789 37.8455 22.2635 37.7011 22.4903C37.5567 22.7171 37.475 22.9781 37.4642 23.2467C37.4534 23.5153 37.514 23.782 37.6397 24.0197C37.7654 24.2573 37.9517 24.4575 38.1798 24.5997L41.5644 26.8793C41.8255 27.0504 42.1313 27.1409 42.4435 27.1395C42.8147 27.1568 43.1776 27.0265 43.4532 26.7772C43.7287 26.528 43.8945 26.1798 43.9145 25.8088V21.1864C43.8939 20.8074 43.7243 20.4519 43.4427 20.1974C43.1612 19.9429 42.7904 19.81 42.4112 19.8277ZM43.0543 25.8088C43.0316 25.9503 42.9558 26.0778 42.8423 26.1653C42.7287 26.2527 42.5861 26.2935 42.4435 26.2793C42.302 26.2805 42.1633 26.24 42.0448 26.1628L38.6603 23.8832C38.5614 23.823 38.4789 23.7393 38.4201 23.6396C38.3612 23.5399 38.3279 23.4272 38.3231 23.3116C38.3288 23.1842 38.3682 23.0607 38.4372 22.9535C38.5061 22.8463 38.6023 22.7593 38.7158 22.7012L42.0315 20.7885C42.147 20.7222 42.278 20.6874 42.4112 20.6879C42.5618 20.6734 42.7122 20.7169 42.8317 20.8095C42.9512 20.9022 43.0308 21.037 43.0543 21.1864V25.8088Z" fill="#545E5E"/>
<path d="M26.5811 25.3335H25.2478V26.6668H26.5811V25.3335Z" fill="#545E5E"/>
<path d="M34.5811 25.3335H33.2478V26.6668H34.5811V25.3335Z" fill="#545E5E"/>
<path d="M42.5811 24H41.2478V25.3333H42.5811V24Z" fill="#545E5E"/>
<path d="M33.2476 18.6665H31.9143V19.9998H33.2476V18.6665Z" fill="#545E5E"/>
<path d="M23.9144 18.6665H22.5811V19.9998H23.9144V18.6665Z" fill="#545E5E"/>
<path d="M23.9144 20H22.5811V21.3333H23.9144V20Z" fill="#545E5E"/>
<path d="M22.5811 26.6665H21.2478V27.9998H22.5811V26.6665Z" fill="#545E5E"/>
<path d="M10.8131 77.224C9.27705 77.224 8.09305 76.8453 7.26105 76.088C6.43972 75.3307 5.99705 74.344 5.93305 73.128H7.34105C7.53305 75.0907 8.71172 76.072 10.8771 76.072C11.6984 76.072 12.3544 75.8907 12.8451 75.528C13.3464 75.1547 13.5971 74.6213 13.5971 73.928C13.5971 73.6187 13.5384 73.3467 13.4211 73.112C13.3037 72.8773 13.1597 72.6853 12.9891 72.536C12.8291 72.3867 12.5837 72.248 12.2531 72.12C11.9224 71.992 11.6131 71.8907 11.3251 71.816C11.0477 71.7413 10.6637 71.6507 10.1731 71.544C9.58639 71.416 9.10105 71.288 8.71705 71.16C8.33305 71.0213 7.94905 70.8347 7.56505 70.6C7.18105 70.3653 6.89305 70.0667 6.70105 69.704C6.51972 69.3307 6.42905 68.8827 6.42905 68.36C6.42905 67.4213 6.78105 66.6853 7.48505 66.152C8.19972 65.608 9.14372 65.336 10.3171 65.336C12.8877 65.336 14.3331 66.5253 14.6531 68.904H13.2931C13.1864 68.0933 12.8824 67.4853 12.3811 67.08C11.8797 66.664 11.2024 66.456 10.3491 66.456C9.55972 66.456 8.93039 66.616 8.46105 66.936C8.00239 67.256 7.77305 67.7093 7.77305 68.296C7.77305 68.552 7.82105 68.7813 7.91705 68.984C8.02372 69.176 8.15705 69.3413 8.31705 69.48C8.48772 69.608 8.70639 69.7253 8.97305 69.832C9.25039 69.9387 9.52239 70.0293 9.78905 70.104C10.0557 70.168 10.3811 70.2373 10.7651 70.312C11.2984 70.4187 11.7357 70.52 12.0771 70.616C12.4184 70.7013 12.7971 70.8347 13.2131 71.016C13.6291 71.1973 13.9491 71.4053 14.1731 71.64C14.4077 71.8747 14.6051 72.184 14.7651 72.568C14.9357 72.9413 15.0211 73.3787 15.0211 73.88C15.0211 74.9253 14.6317 75.7467 13.8531 76.344C13.0851 76.9307 12.0717 77.224 10.8131 77.224ZM17.7727 68.728V69.816H17.8047C18.4447 68.9627 19.3193 68.536 20.4287 68.536C21.3033 68.536 21.986 68.7653 22.4767 69.224C22.9673 69.6827 23.2127 70.3387 23.2127 71.192V77H21.9167V71.304C21.9167 70.7707 21.7513 70.36 21.4207 70.072C21.09 69.7733 20.6313 69.624 20.0447 69.624C19.3833 69.624 18.8393 69.8373 18.4127 70.264C17.986 70.6907 17.7727 71.24 17.7727 71.912V77H16.4767V68.728H17.7727ZM31.4258 77.08C30.6045 77.08 30.1298 76.6693 30.0018 75.848H29.9858C29.3031 76.7227 28.3858 77.16 27.2338 77.16C26.4125 77.16 25.7405 76.9627 25.2178 76.568C24.6951 76.1733 24.4338 75.6027 24.4338 74.856C24.4338 74.472 24.4925 74.1413 24.6098 73.864C24.7378 73.576 24.8978 73.3467 25.0898 73.176C25.2818 72.9947 25.5431 72.84 25.8738 72.712C26.2151 72.5733 26.5405 72.472 26.8498 72.408C27.1591 72.3333 27.5538 72.2587 28.0338 72.184C28.3431 72.1413 28.5618 72.1093 28.6898 72.088C28.8285 72.056 29.0045 72.0133 29.2178 71.96C29.4311 71.896 29.5805 71.8267 29.6658 71.752C29.7511 71.6773 29.8311 71.576 29.9058 71.448C29.9805 71.32 30.0178 71.1707 30.0178 71C30.0178 70.5307 29.8525 70.1733 29.5218 69.928C29.2018 69.672 28.7485 69.544 28.1618 69.544C26.8285 69.544 26.1405 70.152 26.0978 71.368H24.8498C24.8711 70.5253 25.1591 69.848 25.7138 69.336C26.2791 68.824 27.0898 68.568 28.1458 68.568C30.1831 68.568 31.2018 69.4427 31.2018 71.192V75.128C31.2018 75.4907 31.2605 75.7467 31.3778 75.896C31.5058 76.0453 31.7405 76.0827 32.0818 76.008H32.1298V76.952C31.9165 77.0373 31.6818 77.08 31.4258 77.08ZM27.5218 76.168C28.3218 76.168 28.9405 75.9387 29.3778 75.48C29.8151 75.0107 30.0338 74.4987 30.0338 73.944V72.536C29.6391 72.7813 29.0098 72.984 28.1458 73.144C27.8258 73.208 27.5751 73.2613 27.3938 73.304C27.2125 73.336 27.0045 73.4 26.7698 73.496C26.5351 73.5813 26.3591 73.6773 26.2418 73.784C26.1245 73.8907 26.0231 74.0347 25.9378 74.216C25.8525 74.3867 25.8098 74.5893 25.8098 74.824C25.8098 75.72 26.3805 76.168 27.5218 76.168ZM36.6221 77.224C35.4167 77.224 34.4461 76.808 33.7101 75.976C32.9847 75.144 32.6221 74.1093 32.6221 72.872C32.6221 71.6347 32.9847 70.6 33.7101 69.768C34.4461 68.936 35.4167 68.52 36.6221 68.52C37.5927 68.52 38.3874 68.7813 39.0061 69.304C39.6247 69.816 40.0087 70.5147 40.1581 71.4H38.8461C38.7501 70.8347 38.5101 70.392 38.1261 70.072C37.7421 69.752 37.2407 69.592 36.6221 69.592C35.7687 69.592 35.1074 69.9013 34.6381 70.52C34.1794 71.1387 33.9501 71.9227 33.9501 72.872C33.9501 73.8213 34.1794 74.6053 34.6381 75.224C35.1074 75.832 35.7687 76.136 36.6221 76.136C37.2834 76.136 37.8114 75.96 38.2061 75.608C38.6007 75.2453 38.8247 74.7387 38.8781 74.088H40.1581C40.0727 75.08 39.7207 75.8533 39.1021 76.408C38.4834 76.952 37.6567 77.224 36.6221 77.224ZM46.8229 77L43.8949 72.536L42.6789 73.688V77H41.3829V65.56H42.6789V72.264L46.3109 68.728H47.9589L44.7909 71.704L48.3429 77H46.8229ZM52.1127 77.24C50.982 77.24 50.102 76.9893 49.4727 76.488C48.854 75.976 48.5127 75.2507 48.4487 74.312H49.7767C49.926 75.5387 50.7153 76.152 52.1447 76.152C52.7953 76.152 53.2753 76.0293 53.5847 75.784C53.9047 75.528 54.0647 75.1973 54.0647 74.792C54.0647 74.3547 53.91 74.04 53.6007 73.848C53.2913 73.656 52.726 73.4747 51.9047 73.304C51.5633 73.2293 51.2913 73.1707 51.0887 73.128C50.8967 73.0747 50.662 73.0053 50.3847 72.92C50.1073 72.824 49.8887 72.7227 49.7287 72.616C49.5793 72.4987 49.4247 72.36 49.2647 72.2C49.1047 72.04 48.9873 71.8427 48.9127 71.608C48.8487 71.3733 48.8167 71.112 48.8167 70.824C48.8167 70.12 49.0727 69.5653 49.5847 69.16C50.1073 68.7547 50.8433 68.552 51.7927 68.552C53.7553 68.552 54.838 69.416 55.0407 71.144H53.7127C53.6487 70.6 53.462 70.2053 53.1527 69.96C52.8433 69.704 52.3793 69.576 51.7607 69.576C51.1953 69.576 50.774 69.688 50.4967 69.912C50.23 70.1253 50.0967 70.408 50.0967 70.76C50.0967 71.1653 50.2567 71.4533 50.5767 71.624C50.8967 71.784 51.478 71.9493 52.3207 72.12C52.8327 72.2267 53.2327 72.328 53.5207 72.424C53.8193 72.5093 54.1287 72.648 54.4487 72.84C54.7687 73.0213 55.0033 73.2667 55.1527 73.576C55.302 73.8853 55.3767 74.2693 55.3767 74.728C55.3767 75.5387 55.078 76.1627 54.4807 76.6C53.8833 77.0267 53.094 77.24 52.1127 77.24Z" fill="#838D8D"/>
</svg>
