<svg width="86" height="84" viewBox="0 0 86 84" fill="none" xmlns="http://www.w3.org/2000/svg">
<path d="M2.56836 44.6958C2.56836 49.7394 6.65704 53.8281 11.7007 53.8281H50.3532C55.3968 53.8281 59.4855 49.7394 59.4855 44.6958V30.63C59.4855 14.9127 46.7441 2.17141 31.0269 2.17141C15.3097 2.17141 2.56836 14.9127 2.56836 30.63V44.6958Z" fill="white" stroke="#DEEAEA"/>
<path d="M39.8076 33.2061C40.8703 33.1771 41.8818 32.7412 42.6349 31.9877C43.388 31.2343 43.8257 30.2202 43.8584 29.1533C43.8911 28.0863 43.5163 27.0471 42.8107 26.2486C42.1052 25.4501 41.1223 24.9527 40.0633 24.8581V22.5882H27.2766V23.6153H32.1356V26.1985L30.3454 27.996V32.6026H34.9487V27.9806L33.1585 26.1831V23.6153H39.0404V31.4163C39.0242 32.8087 38.516 34.1501 37.6064 35.2012C36.6968 36.2523 35.4449 36.9449 34.074 37.1554C33.7711 37.2019 33.465 37.225 33.1585 37.2247H28.2996C27.9956 37.2247 27.6922 37.2015 27.3917 37.1554C26.0133 36.9605 24.7512 36.2728 23.8374 35.2184C22.9236 34.1641 22.4195 32.814 22.4177 31.4163V23.6153H24.2078V22.5882H21.3948V31.4137C21.392 32.5814 21.6898 33.7301 22.2593 34.7482C22.8288 35.7663 23.6506 36.6194 24.6451 37.2247H21.8525C21.3242 37.2247 20.8174 37.4354 20.4438 37.8106C20.0702 38.1857 19.8604 38.6945 19.8604 39.225V39.338C19.8617 39.8676 20.0722 40.3751 20.4456 40.7491C20.8191 41.1231 21.325 41.3332 21.8525 41.3332H39.6056C40.133 41.3332 40.639 41.1231 41.0124 40.7491C41.3859 40.3751 41.5964 39.8676 41.5977 39.338V39.225C41.5977 38.6945 41.3878 38.1857 41.0142 37.8106C40.6406 37.4354 40.1339 37.2247 39.6056 37.2247H36.7925C38.2622 36.3104 39.3378 34.8768 39.8076 33.2061ZM40.0633 31.4266V25.8827C40.8373 25.9711 41.5514 26.3438 42.0681 26.9291C42.5848 27.5144 42.8677 28.2709 42.8623 29.053C42.8569 29.8351 42.5636 30.5876 42.0389 31.1657C41.5141 31.7437 40.795 32.1065 40.0199 32.1841C40.0485 31.9326 40.063 31.6797 40.0633 31.4266ZM33.9257 28.3991V31.5755H31.3684V28.3991L32.647 27.1152L33.9257 28.3991ZM39.6056 38.2518C39.8626 38.2518 40.1092 38.3543 40.2909 38.5368C40.4727 38.7194 40.5748 38.9669 40.5748 39.225V39.3328C40.5748 39.591 40.4727 39.8385 40.2909 40.021C40.1092 40.2035 39.8626 40.306 39.6056 40.306H21.8525C21.7252 40.306 21.5992 40.2809 21.4816 40.232C21.364 40.1831 21.2572 40.1114 21.1672 40.021C21.0772 39.9306 21.0058 39.8234 20.9571 39.7053C20.9084 39.5872 20.8833 39.4607 20.8833 39.3328V39.225C20.8833 38.9669 20.9854 38.7194 21.1672 38.5368C21.3489 38.3543 21.5955 38.2518 21.8525 38.2518H39.6056ZM25.2308 20.9987C25.0951 20.9987 24.965 20.9446 24.8691 20.8483C24.7732 20.752 24.7193 20.6214 24.7193 20.4852C24.7193 20.0229 25.0262 19.684 25.2742 19.4092C25.3449 19.3342 25.4115 19.2553 25.4737 19.173C25.3985 19.0567 25.3129 18.9476 25.218 18.8469C24.9878 18.5901 24.727 18.3051 24.727 17.9148C24.727 17.5245 24.9827 17.2266 25.2231 16.9698C25.3274 16.865 25.4161 16.7457 25.4865 16.6155C25.4865 16.4793 25.5404 16.3486 25.6363 16.2523C25.7322 16.156 25.8623 16.1019 25.998 16.1019C26.1336 16.1019 26.2637 16.156 26.3596 16.2523C26.4555 16.3486 26.5094 16.4793 26.5094 16.6155C26.5094 17.0571 26.2128 17.3858 25.9749 17.6426C25.8992 17.7239 25.8283 17.8096 25.7627 17.8994C25.8263 17.9844 25.8946 18.0659 25.9673 18.1433C26.2077 18.4001 26.5094 18.7416 26.5094 19.1884C26.5094 19.5607 26.2537 19.8406 26.0338 20.0871C25.9147 20.2032 25.8162 20.3386 25.7422 20.4877C25.7416 20.6235 25.6874 20.7534 25.5915 20.8492C25.4957 20.945 25.366 20.9987 25.2308 20.9987ZM35.6724 20.9987C35.5367 20.9987 35.4066 20.9446 35.3107 20.8483C35.2148 20.752 35.1609 20.6214 35.1609 20.4852C35.1609 20.0229 35.4678 19.684 35.7159 19.4092C35.7864 19.3341 35.853 19.2552 35.9153 19.173C35.8401 19.0567 35.7545 18.9476 35.6596 18.8469C35.4294 18.5901 35.1686 18.3051 35.1686 17.9148C35.1686 17.5245 35.4243 17.2266 35.6673 16.9698C35.7732 16.8662 35.8636 16.7477 35.9358 16.618C35.9358 16.4818 35.9897 16.3512 36.0856 16.2549C36.1815 16.1586 36.3116 16.1045 36.4473 16.1045C36.5829 16.1045 36.713 16.1586 36.8089 16.2549C36.9048 16.3512 36.9587 16.4818 36.9587 16.618C36.9587 17.0597 36.6621 17.3884 36.4242 17.6452C36.3485 17.7264 36.2776 17.8122 36.212 17.9019C36.2756 17.987 36.3439 18.0685 36.4166 18.1459C36.657 18.4027 36.9587 18.7442 36.9587 19.191C36.9205 19.5428 36.7504 19.8668 36.4831 20.0974C36.3659 20.2106 36.2683 20.3425 36.1941 20.4877C36.1938 20.5558 36.1799 20.6232 36.1535 20.6859C36.127 20.7486 36.0883 20.8053 36.0398 20.8529C35.9912 20.9004 35.9337 20.9378 35.8707 20.9628C35.8076 20.9879 35.7402 21.0001 35.6724 20.9987ZM30.3071 20.9987C30.1714 20.9987 30.0413 20.9446 29.9454 20.8483C29.8495 20.752 29.7956 20.6214 29.7956 20.4852C29.7956 19.9947 30.146 19.6018 30.4529 19.2577C30.6183 19.1025 30.7551 18.919 30.8569 18.7159C30.7569 18.5145 30.6228 18.332 30.4605 18.1767C30.146 17.83 29.7956 17.4526 29.7956 16.939C29.7956 16.4255 30.146 16.0583 30.4529 15.7116C30.6175 15.5595 30.7542 15.3796 30.8569 15.1801C30.8569 15.0439 30.9108 14.9132 31.0067 14.8169C31.1026 14.7206 31.2327 14.6665 31.3684 14.6665C31.504 14.6665 31.6341 14.7206 31.73 14.8169C31.826 14.9132 31.8798 15.0439 31.8798 15.1801C31.8798 15.6705 31.5295 16.0608 31.2226 16.4075C31.058 16.5596 30.9212 16.7395 30.8186 16.939C30.9186 17.1404 31.0528 17.3229 31.2149 17.4783C31.5218 17.8352 31.8798 18.2229 31.8798 18.7159C31.8798 19.209 31.5218 19.5993 31.2149 19.9433C31.0522 20.0992 30.918 20.2826 30.8186 20.4852C30.8186 20.6214 30.7647 20.752 30.6687 20.8483C30.5728 20.9446 30.4427 20.9987 30.3071 20.9987Z" fill="#545E5E"/>
<path d="M18.8791 66.824V65.56H27.9351V66.824H24.1271V77H22.6871V66.824H18.8791ZM30.9431 77.224C29.7164 77.224 28.7404 76.8133 28.0151 75.992C27.3004 75.16 26.9431 74.12 26.9431 72.872C26.9431 71.6453 27.3058 70.616 28.0311 69.784C28.7671 68.9413 29.7111 68.52 30.8631 68.52C32.0791 68.52 33.0178 68.9467 33.6791 69.8C34.3404 70.6427 34.6711 71.768 34.6711 73.176H28.2711C28.3244 74.0507 28.5804 74.7653 29.0391 75.32C29.5084 75.864 30.1431 76.136 30.9431 76.136C32.1804 76.136 32.9431 75.5707 33.2311 74.44H34.4951C34.3031 75.3253 33.8978 76.0133 33.2791 76.504C32.6604 76.984 31.8818 77.224 30.9431 77.224ZM32.5911 70.248C32.1751 69.7787 31.5991 69.544 30.8631 69.544C30.1271 69.544 29.5404 69.7893 29.1031 70.28C28.6764 70.7707 28.4098 71.4107 28.3031 72.2H33.2791C33.2364 71.368 33.0071 70.7173 32.5911 70.248ZM42.4344 77.08C41.613 77.08 41.1383 76.6693 41.0103 75.848H40.9943C40.3117 76.7227 39.3943 77.16 38.2423 77.16C37.421 77.16 36.749 76.9627 36.2263 76.568C35.7037 76.1733 35.4423 75.6027 35.4423 74.856C35.4423 74.472 35.501 74.1413 35.6183 73.864C35.7463 73.576 35.9063 73.3467 36.0983 73.176C36.2903 72.9947 36.5517 72.84 36.8823 72.712C37.2237 72.5733 37.549 72.472 37.8583 72.408C38.1677 72.3333 38.5623 72.2587 39.0423 72.184C39.3517 72.1413 39.5704 72.1093 39.6983 72.088C39.837 72.056 40.013 72.0133 40.2263 71.96C40.4397 71.896 40.589 71.8267 40.6743 71.752C40.7597 71.6773 40.8397 71.576 40.9144 71.448C40.989 71.32 41.0264 71.1707 41.0264 71C41.0264 70.5307 40.861 70.1733 40.5303 69.928C40.2103 69.672 39.757 69.544 39.1703 69.544C37.837 69.544 37.149 70.152 37.1063 71.368H35.8583C35.8797 70.5253 36.1677 69.848 36.7223 69.336C37.2877 68.824 38.0983 68.568 39.1543 68.568C41.1917 68.568 42.2104 69.4427 42.2104 71.192V75.128C42.2104 75.4907 42.269 75.7467 42.3864 75.896C42.5144 76.0453 42.749 76.0827 43.0904 76.008H43.1383V76.952C42.925 77.0373 42.6903 77.08 42.4344 77.08ZM38.5303 76.168C39.3303 76.168 39.949 75.9387 40.3863 75.48C40.8237 75.0107 41.0423 74.4987 41.0423 73.944V72.536C40.6477 72.7813 40.0183 72.984 39.1543 73.144C38.8343 73.208 38.5837 73.2613 38.4023 73.304C38.221 73.336 38.013 73.4 37.7783 73.496C37.5437 73.5813 37.3677 73.6773 37.2503 73.784C37.133 73.8907 37.0317 74.0347 36.9463 74.216C36.861 74.3867 36.8183 74.5893 36.8183 74.824C36.8183 75.72 37.389 76.168 38.5303 76.168Z" fill="#838D8D"/>
</svg>
