<svg width="77" height="84" viewBox="0 0 77 84" fill="none" xmlns="http://www.w3.org/2000/svg">
<path d="M9.59521 44.6958C9.59521 49.7394 13.6839 53.8281 18.7275 53.8281H57.38C62.4237 53.8281 66.5123 49.7394 66.5123 44.6958V30.63C66.5123 14.9127 53.771 2.17141 38.0538 2.17141C22.3365 2.17141 9.59521 14.9127 9.59521 30.63V44.6958Z" fill="white" stroke="#DEEAEA"/>
<path d="M30.2291 20.728C30.229 20.6439 30.2455 20.5607 30.2777 20.483C30.3098 20.4053 30.357 20.3348 30.4164 20.2753C30.4759 20.2159 30.5464 20.1687 30.6241 20.1366C30.7018 20.1045 30.785 20.0879 30.8691 20.088H31.0116V19.6886C31.0116 19.5189 31.079 19.3561 31.199 19.2361C31.3191 19.116 31.4818 19.0486 31.6516 19.0486C31.8213 19.0486 31.9841 19.116 32.1041 19.2361C32.2241 19.3561 32.2916 19.5189 32.2916 19.6886V20.088H32.4341C32.6038 20.088 32.7666 20.1554 32.8866 20.2754C33.0066 20.3955 33.0741 20.5582 33.0741 20.728C33.0741 20.8977 33.0066 21.0605 32.8866 21.1805C32.7666 21.3006 32.6038 21.368 32.4341 21.368H32.2916V21.7673C32.2916 21.9371 32.2241 22.0999 32.1041 22.2199C31.9841 22.3399 31.8213 22.4073 31.6516 22.4073C31.4818 22.4073 31.3191 22.3399 31.199 22.2199C31.079 22.0999 31.0116 21.9371 31.0116 21.7673V21.368H30.8691C30.785 21.368 30.7018 21.3515 30.6241 21.3194C30.5464 21.2872 30.4759 21.2401 30.4164 21.1806C30.357 21.1212 30.3098 21.0506 30.2777 20.973C30.2455 20.8953 30.229 20.812 30.2291 20.728ZM44.9003 34.1494V34.1174C44.9003 33.9476 44.8329 33.7849 44.7129 33.6648C44.5928 33.5448 44.4301 33.4774 44.2603 33.4774C44.0906 33.4774 43.9278 33.5448 43.8078 33.6648C43.6877 33.7849 43.6203 33.9476 43.6203 34.1174V34.1491C43.483 34.1812 43.3606 34.2587 43.273 34.3691C43.1854 34.4796 43.1377 34.6164 43.1377 34.7574C43.1377 34.8984 43.1854 35.0352 43.273 35.1456C43.3606 35.2561 43.483 35.3336 43.6203 35.3657V35.3974C43.6203 35.5671 43.6877 35.7299 43.8078 35.8499C43.9278 35.97 44.0906 36.0374 44.2603 36.0374C44.4301 36.0374 44.5928 35.97 44.7129 35.8499C44.8329 35.7299 44.9003 35.5671 44.9003 35.3974V35.3654C45.0373 35.3331 45.1594 35.2555 45.2467 35.1451C45.3341 35.0348 45.3816 34.8982 45.3816 34.7574C45.3816 34.6167 45.3341 34.4801 45.2467 34.3697C45.1594 34.2594 45.0373 34.1817 44.9003 34.1494ZM34.8346 19.8652C34.9144 19.8652 34.9924 19.8416 35.0588 19.7972C35.1252 19.7529 35.1769 19.6898 35.2074 19.6161C35.238 19.5424 35.246 19.4612 35.2304 19.3829C35.2148 19.3047 35.1764 19.2328 35.1199 19.1763C35.0635 19.1199 34.9916 19.0815 34.9133 19.0659C34.835 19.0503 34.7539 19.0583 34.6802 19.0888C34.6064 19.1194 34.5434 19.1711 34.499 19.2375C34.4547 19.3038 34.431 19.3818 34.431 19.4616C34.431 19.5147 34.4414 19.5671 34.4617 19.6161C34.482 19.6651 34.5117 19.7096 34.5492 19.747C34.5867 19.7845 34.6312 19.8143 34.6802 19.8345C34.7291 19.8548 34.7816 19.8653 34.8346 19.8652ZM41.1277 33.7136C41.0478 33.7136 40.9698 33.7372 40.9034 33.7816C40.8371 33.8259 40.7853 33.889 40.7548 33.9627C40.7242 34.0365 40.7162 34.1176 40.7318 34.1959C40.7474 34.2742 40.7858 34.3461 40.8423 34.4026C40.8987 34.459 40.9706 34.4974 41.0489 34.513C41.1272 34.5286 41.2084 34.5206 41.2821 34.49C41.3559 34.4595 41.4189 34.4078 41.4632 34.3414C41.5076 34.275 41.5313 34.197 41.5313 34.1171C41.5312 34.0101 41.4887 33.9075 41.413 33.8318C41.3374 33.7561 41.2347 33.7136 41.1277 33.7136ZM42.1305 31.2918C42.0119 31.2918 41.8961 31.3269 41.7975 31.3928C41.699 31.4586 41.6222 31.5522 41.5768 31.6617C41.5314 31.7712 41.5196 31.8917 41.5427 32.008C41.5658 32.1242 41.6229 32.231 41.7067 32.3148C41.7905 32.3986 41.8973 32.4557 42.0135 32.4788C42.1298 32.5019 42.2503 32.4901 42.3598 32.4447C42.4693 32.3993 42.5629 32.3225 42.6287 32.224C42.6946 32.1254 42.7297 32.0096 42.7297 31.891C42.7297 31.7321 42.6665 31.5797 42.5541 31.4674C42.4418 31.355 42.2894 31.2918 42.1305 31.2918ZM37.6341 28.6193C37.6479 28.4503 37.594 28.2827 37.4843 28.1535C37.3746 28.0242 37.2181 27.9438 37.0491 27.9299C36.8818 27.9235 36.7182 27.98 36.5904 28.0883C36.4627 28.1966 36.3802 28.3488 36.3591 28.5149C36.3345 28.7686 36.2907 29.0202 36.228 29.2673C35.538 28.6032 34.7951 27.9963 34.0067 27.4526C34.0335 26.9928 34.0066 26.5315 33.9266 26.078C33.912 25.9952 33.8812 25.9162 33.836 25.8454C33.7908 25.7746 33.7321 25.7133 33.6632 25.6652C33.5943 25.617 33.5167 25.5829 33.4346 25.5648C33.3526 25.5467 33.2678 25.5449 33.185 25.5596C33.1023 25.5742 33.0233 25.605 32.9524 25.6502C32.8816 25.6954 32.8204 25.7541 32.7722 25.823C32.7241 25.8918 32.69 25.9695 32.6719 26.0515C32.6538 26.1336 32.652 26.2184 32.6666 26.3011C32.6836 26.3976 32.6989 26.514 32.7114 26.6378C31.8345 26.1219 30.9155 25.6814 29.9641 25.3211C29.8039 25.2656 29.6283 25.2759 29.4757 25.3497C29.3232 25.4235 29.2061 25.5548 29.1502 25.7148C29.0943 25.8748 29.1041 26.0505 29.1774 26.2032C29.2508 26.356 29.3817 26.4735 29.5416 26.5298C30.637 26.9593 31.6867 27.4973 32.6749 28.1358L31.569 28.2792C31.4079 28.3001 31.2607 28.3815 31.1573 28.5069C31.054 28.6323 31.0022 28.7923 31.0126 28.9545C31.0229 29.1167 31.0946 29.2688 31.213 29.3801C31.3314 29.4914 31.4878 29.5534 31.6503 29.5536C31.6783 29.5536 31.7063 29.5517 31.734 29.548L34.2074 29.2272C34.69 29.6114 35.1495 30.0238 35.5834 30.4623L34.6128 30.628C34.5299 30.6421 34.4507 30.6724 34.3796 30.7171C34.3085 30.7619 34.2469 30.8202 34.1983 30.8887C34.1498 30.9572 34.1152 31.0347 34.0965 31.1166C34.0779 31.1985 34.0755 31.2833 34.0896 31.3661C34.1038 31.4489 34.1341 31.5282 34.1788 31.5993C34.2235 31.6704 34.2818 31.732 34.3504 31.7805C34.4189 31.8291 34.4964 31.8637 34.5783 31.8824C34.6602 31.901 34.745 31.9033 34.8278 31.8892L36.5871 31.5889C37.9687 33.2876 38.8051 35.364 38.9866 37.5461C39.0045 37.6366 38.9986 37.7302 38.9695 37.8178C38.9403 37.9053 38.8889 37.9838 38.8203 38.0455C38.7872 38.0693 38.7485 38.0841 38.708 38.0885C38.6674 38.0928 38.6265 38.0866 38.589 38.0705C38.5181 38.0131 38.4622 37.9393 38.4263 37.8554C38.3903 37.7715 38.3754 37.6802 38.3828 37.5892L38.3615 37.1855C38.274 35.5486 38.184 33.8561 37.1715 32.9067C37.0605 32.8035 36.9167 32.7428 36.7653 32.7353C36.6139 32.7277 36.4648 32.7738 36.344 32.8654C35.8195 33.2948 35.1565 33.5185 34.4791 33.4948C34.3178 33.4529 34.0816 33.3442 33.8841 32.8892C33.0503 30.9666 31.9553 30.9629 31.1566 30.9598C31.0078 30.9592 30.8578 30.9598 30.7078 30.9442C29.8766 30.8561 29.7678 30.4029 29.6891 29.2242C29.6741 28.9961 29.6591 28.7742 29.6303 28.5692C29.564 28.2313 29.4083 27.9173 29.1795 27.66C28.9506 27.4026 28.657 27.2114 28.3291 27.1061C28.0182 27.0193 27.7439 26.8341 27.5474 26.5781C27.3508 26.3222 27.2427 26.0094 27.2391 25.6867C27.2093 25.4603 27.2531 25.2303 27.3641 25.0308C27.4751 24.8312 27.6473 24.6727 27.8554 24.5786C28.257 24.3711 28.7007 24.2577 29.1526 24.2471C29.6046 24.2365 30.0531 24.3289 30.464 24.5174C30.8012 24.7877 31.2007 24.9691 31.6261 25.0451C32.0515 25.1211 32.4891 25.0892 32.899 24.9524C33.1632 24.8494 33.4544 24.8388 33.7253 24.9223C33.9448 25.0133 34.1401 25.154 34.2961 25.3333C34.452 25.5125 34.5643 25.7255 34.624 25.9555C34.7041 26.2433 34.8506 26.5084 35.0516 26.7295C35.2526 26.9506 35.5026 27.1215 35.7815 27.2286C36.0062 27.2907 36.2352 27.3363 36.4665 27.3649C36.7965 27.3691 37.1225 27.4382 37.4257 27.5684C37.729 27.6986 38.0037 27.8873 38.234 28.1236C38.6155 28.8754 38.6907 29.7457 38.444 30.5518C38.4129 30.7186 38.4493 30.8909 38.5452 31.031C38.641 31.171 38.7885 31.2673 38.9553 31.2986C39.1218 31.3271 39.2928 31.2895 39.4322 31.194C39.5715 31.0984 39.6681 30.9524 39.7015 30.7868C39.8656 30.22 39.9125 29.6257 39.8394 29.0402C39.7664 28.4547 39.5749 27.8902 39.2765 27.3811C38.9532 26.9968 38.5531 26.6843 38.1019 26.4636C37.6507 26.2428 37.1584 26.1187 36.6565 26.0993C36.4934 26.0811 36.3317 26.0512 36.1728 26.0099C36.0353 25.9655 35.9703 25.8524 35.804 25.4574C35.6784 25.0701 35.4695 24.7149 35.192 24.4169C34.9145 24.1189 34.5752 23.8852 34.1978 23.7324C33.6827 23.5475 33.1208 23.5389 32.6003 23.7079C32.3712 23.7995 32.1213 23.8269 31.8777 23.7872C31.6342 23.7474 31.406 23.642 31.2178 23.4823C30.6071 23.1458 29.9218 22.9678 29.2246 22.9645C28.5274 22.9612 27.8404 23.1328 27.2266 23.4635C26.805 23.6788 26.4586 24.0168 26.2332 24.4331C26.0078 24.8493 25.914 25.3241 25.9641 25.7948C25.9853 26.3377 26.168 26.8618 26.4889 27.3002C26.8098 27.7386 27.2542 28.0712 27.7653 28.2554C28.244 28.4904 28.3391 28.5673 28.3628 28.7404C28.3866 28.9185 28.3991 29.1116 28.4116 29.3098C28.4791 30.3185 28.5928 32.0079 30.5728 32.2167C30.7652 32.2343 30.9584 32.242 31.1516 32.2398C31.8328 32.2424 32.2091 32.2436 32.7091 33.3979C32.8278 33.7192 33.021 34.0078 33.2729 34.2399C33.5247 34.4721 33.828 34.6413 34.1578 34.7336C35.0005 34.8745 35.8655 34.6965 36.5841 34.2342C36.9348 35.2011 37.1039 36.2246 37.0828 37.2529L37.1053 37.6623C37.1038 37.9801 37.1881 38.2924 37.3494 38.5662C37.5107 38.84 37.7429 39.0652 38.0216 39.2179C38.2257 39.3185 38.4503 39.3707 38.6778 39.3704C38.9849 39.3701 39.2849 39.2778 39.5391 39.1055C39.7987 38.92 40.0031 38.6675 40.1304 38.3749C40.2576 38.0823 40.303 37.7606 40.2616 37.4442C40.0449 34.801 38.9761 32.2994 37.216 30.3155C37.44 29.7744 37.581 29.2025 37.6341 28.6193ZM47.4091 27.3636L47.1391 26.5492C46.9956 26.1123 46.8319 25.6655 46.6554 25.2241C46.6506 25.2081 46.6431 25.1941 46.6372 25.1786C46.4317 24.4495 46.0815 23.7693 45.6076 23.1784C45.1338 22.5874 44.5458 22.0979 43.8788 21.7389C44.3853 20.7114 44.5111 19.5376 44.234 18.4261C44.1551 18.2623 44.0407 18.1181 43.899 18.004C43.7574 17.89 43.5922 17.8089 43.4153 17.7667C43.2095 17.7129 42.9945 17.7045 42.7851 17.7421C42.5757 17.7796 42.377 17.8623 42.2028 17.9842C41.8244 18.2759 41.5337 18.6662 41.3628 19.1123C40.7328 18.0955 39.8528 16.9349 38.9965 16.6855C38.8315 16.6328 38.6571 16.616 38.485 16.6362C38.313 16.6564 38.1472 16.7131 37.9988 16.8025C37.8504 16.8919 37.7228 17.0119 37.6246 17.1546C37.5263 17.2973 37.4596 17.4593 37.429 17.6299C37.432 18.787 37.795 19.9146 38.4679 20.8561C37.9932 20.7986 37.5118 20.873 37.0766 21.0711C36.8876 21.168 36.722 21.3048 36.5912 21.4721C36.4604 21.6394 36.3675 21.8331 36.3191 22.0399C36.2778 22.1991 36.2692 22.3651 36.294 22.5277C36.3187 22.6904 36.3761 22.8463 36.4629 22.9861C36.9585 23.5948 37.671 23.9872 38.4504 24.0805C38.4987 24.0922 38.5482 24.0981 38.5979 24.098C38.7547 24.098 38.9061 24.0404 39.0232 23.9361C39.1404 23.8319 39.2152 23.6882 39.2334 23.5324C39.2516 23.3766 39.2119 23.2196 39.122 23.0911C39.032 22.9626 38.898 22.8717 38.7454 22.8355C38.3141 22.7817 37.9052 22.6129 37.5616 22.3468C37.5669 22.3162 37.5796 22.2873 37.5986 22.2627C37.6175 22.2381 37.6422 22.2185 37.6704 22.2055C38.3339 22.0808 39.0196 22.159 39.6379 22.4299C39.7664 22.4785 39.9071 22.4844 40.0392 22.4469C40.1713 22.4093 40.2879 22.3302 40.3716 22.2213C40.4552 22.1124 40.5017 21.9794 40.5039 21.8421C40.5062 21.7047 40.4642 21.5703 40.3841 21.4587C39.544 20.4184 38.9412 19.2073 38.6179 17.9099C39.0404 17.9361 40.1967 19.4812 40.9991 21.088C41.0593 21.2119 41.1583 21.3127 41.2811 21.3749C41.4039 21.4372 41.5437 21.4576 41.6791 21.433C41.8146 21.4099 41.9389 21.3438 42.0339 21.2445C42.1289 21.1452 42.1895 21.0181 42.2066 20.8818C42.2562 20.2088 42.5076 19.5665 42.9279 19.0386C42.949 19.0196 42.9741 19.0054 43.0013 18.9972C43.0285 18.989 43.0572 18.9869 43.0853 18.9911C43.1635 20.0151 42.9357 21.0392 42.4307 21.9334C42.3906 22.0182 42.3688 22.1104 42.3666 22.2042L42.3678 22.2105C42.3666 22.2957 42.3825 22.3804 42.4147 22.4593C42.4469 22.5383 42.4945 22.61 42.5549 22.6702C42.6154 22.7304 42.6872 22.7778 42.7663 22.8097C42.8454 22.8416 42.9301 22.8572 43.0154 22.8557C43.8311 22.8767 44.4901 23.7027 44.9849 24.6361C44.4934 24.7137 44.0221 24.8875 43.5978 25.1473C43.4806 25.2215 43.3907 25.3318 43.3416 25.4616C43.2926 25.5913 43.287 25.7335 43.3258 25.8667C43.3646 25.9999 43.4456 26.1168 43.5567 26.1999C43.6678 26.283 43.8029 26.3277 43.9416 26.3274C44.0608 26.3271 44.1777 26.2938 44.2791 26.2311C44.6656 25.9955 45.1181 25.8918 45.5686 25.9355C45.7243 26.3431 45.8448 26.7065 45.9241 26.948L46.1953 27.7673C46.6191 29.0442 47.4966 31.6798 47.7853 33.0511C46.8814 32.2994 45.3921 30.7723 44.3861 29.7254C44.7519 29.4917 45.1373 29.2901 45.5378 29.123C45.6937 29.0591 45.8182 28.9364 45.8842 28.7814C45.9502 28.6264 45.9524 28.4517 45.8904 28.2951C45.8283 28.1384 45.7071 28.0126 45.5529 27.9448C45.3986 27.877 45.2239 27.8728 45.0666 27.933C44.5119 28.1619 43.9827 28.4485 43.4878 28.788L43.2616 28.5517C42.6441 27.9117 40.7666 25.9643 40.8642 24.5724C40.8867 24.3468 40.9584 24.129 41.0744 23.9343C41.1904 23.7395 41.3478 23.5727 41.5354 23.4455C41.6683 23.3405 41.7541 23.1871 41.7742 23.0189C41.7942 22.8508 41.7468 22.6815 41.6423 22.5482C41.5378 22.415 41.3847 22.3285 41.2166 22.3079C41.0485 22.2872 40.8791 22.334 40.7454 22.438C40.4154 22.6743 40.1408 22.9797 39.9407 23.3328C39.7406 23.686 39.6198 24.0784 39.5866 24.483C39.4653 26.2198 40.9941 28.0449 42.3391 29.4405L42.9403 30.0667L42.9727 30.1003C46.4801 33.7662 47.6439 34.768 48.3416 34.768C48.4849 34.7665 48.6249 34.7245 48.7453 34.6467C49.4578 34.2173 49.3716 33.2624 47.4091 27.3636Z" fill="#545E5E"/>
<path d="M4.19796 77L0.213955 65.56H1.76596L4.58196 74.072L5.02996 75.608H5.06196C5.24329 74.9253 5.39262 74.4133 5.50996 74.072L8.29396 65.56H9.79796L5.78196 77H4.19796ZM13.3293 77.224C12.1027 77.224 11.1267 76.8133 10.4013 75.992C9.68666 75.16 9.32933 74.12 9.32933 72.872C9.32933 71.6453 9.692 70.616 10.4173 69.784C11.1533 68.9413 12.0973 68.52 13.2493 68.52C14.4653 68.52 15.404 68.9467 16.0653 69.8C16.7267 70.6427 17.0573 71.768 17.0573 73.176H10.6573C10.7107 74.0507 10.9667 74.7653 11.4253 75.32C11.8947 75.864 12.5293 76.136 13.3293 76.136C14.5667 76.136 15.3293 75.5707 15.6173 74.44H16.8813C16.6893 75.3253 16.284 76.0133 15.6653 76.504C15.0467 76.984 14.268 77.224 13.3293 77.224ZM14.9773 70.248C14.5613 69.7787 13.9853 69.544 13.2493 69.544C12.5133 69.544 11.9267 69.7893 11.4893 70.28C11.0627 70.7707 10.796 71.4107 10.6893 72.2H15.6653C15.6227 71.368 15.3933 70.7173 14.9773 70.248ZM21.6206 79.752C20.5646 79.752 19.7326 79.5493 19.1246 79.144C18.5272 78.7493 18.1912 78.1893 18.1166 77.464H19.3166C19.4339 78.3067 20.1912 78.728 21.5886 78.728C23.1672 78.728 23.9566 78.0187 23.9566 76.6V75.432H23.9246C23.5939 75.8587 23.2419 76.1787 22.8686 76.392C22.4952 76.6053 22.0312 76.712 21.4766 76.712C20.4099 76.712 19.5406 76.328 18.8686 75.56C18.1966 74.792 17.8606 73.8107 17.8606 72.616C17.8606 71.368 18.1966 70.376 18.8686 69.64C19.5512 68.904 20.3939 68.536 21.3966 68.536C22.4846 68.536 23.3272 68.952 23.9246 69.784H23.9566V68.728H25.2526V76.552C25.2526 77.608 24.9272 78.4027 24.2766 78.936C23.6366 79.48 22.7512 79.752 21.6206 79.752ZM21.5406 75.624C23.2152 75.624 24.0526 74.6 24.0526 72.552C24.0526 70.6 23.2099 69.624 21.5246 69.624C20.7672 69.624 20.1859 69.896 19.7806 70.44C19.3859 70.984 19.1886 71.7147 19.1886 72.632C19.1886 73.5493 19.3912 74.28 19.7966 74.824C20.2019 75.3573 20.7832 75.624 21.5406 75.624ZM30.5481 77.224C29.3214 77.224 28.3454 76.8133 27.6201 75.992C26.9054 75.16 26.5481 74.12 26.5481 72.872C26.5481 71.6453 26.9107 70.616 27.6361 69.784C28.3721 68.9413 29.3161 68.52 30.4681 68.52C31.6841 68.52 32.6227 68.9467 33.2841 69.8C33.9454 70.6427 34.2761 71.768 34.2761 73.176H27.8761C27.9294 74.0507 28.1854 74.7653 28.6441 75.32C29.1134 75.864 29.7481 76.136 30.5481 76.136C31.7854 76.136 32.5481 75.5707 32.8361 74.44H34.1001C33.9081 75.3253 33.5027 76.0133 32.8841 76.504C32.2654 76.984 31.4867 77.224 30.5481 77.224ZM32.1961 70.248C31.7801 69.7787 31.2041 69.544 30.4681 69.544C29.7321 69.544 29.1454 69.7893 28.7081 70.28C28.2814 70.7707 28.0147 71.4107 27.9081 72.2H32.8841C32.8414 71.368 32.6121 70.7173 32.1961 70.248ZM34.8591 69.784V68.728H36.0591V66.12H37.3551V68.728H38.9551V69.784H37.3551V75.16C37.3551 75.672 37.6324 75.928 38.1871 75.928C38.4217 75.928 38.6511 75.8907 38.8751 75.816H38.9231V76.936C38.5711 77.0107 38.2244 77.048 37.8831 77.048C36.6671 77.048 36.0591 76.5147 36.0591 75.448V69.784H34.8591ZM46.7893 77.08C45.968 77.08 45.4933 76.6693 45.3653 75.848H45.3493C44.6667 76.7227 43.7493 77.16 42.5973 77.16C41.776 77.16 41.104 76.9627 40.5813 76.568C40.0587 76.1733 39.7973 75.6027 39.7973 74.856C39.7973 74.472 39.856 74.1413 39.9733 73.864C40.1013 73.576 40.2613 73.3467 40.4533 73.176C40.6453 72.9947 40.9067 72.84 41.2373 72.712C41.5787 72.5733 41.904 72.472 42.2133 72.408C42.5227 72.3333 42.9173 72.2587 43.3973 72.184C43.7067 72.1413 43.9253 72.1093 44.0533 72.088C44.192 72.056 44.368 72.0133 44.5813 71.96C44.7947 71.896 44.944 71.8267 45.0293 71.752C45.1147 71.6773 45.1947 71.576 45.2693 71.448C45.344 71.32 45.3813 71.1707 45.3813 71C45.3813 70.5307 45.216 70.1733 44.8853 69.928C44.5653 69.672 44.112 69.544 43.5253 69.544C42.192 69.544 41.504 70.152 41.4613 71.368H40.2133C40.2347 70.5253 40.5227 69.848 41.0773 69.336C41.6427 68.824 42.4533 68.568 43.5093 68.568C45.5467 68.568 46.5653 69.4427 46.5653 71.192V75.128C46.5653 75.4907 46.624 75.7467 46.7413 75.896C46.8693 76.0453 47.104 76.0827 47.4453 76.008H47.4933V76.952C47.28 77.0373 47.0453 77.08 46.7893 77.08ZM42.8853 76.168C43.6853 76.168 44.304 75.9387 44.7413 75.48C45.1787 75.0107 45.3973 74.4987 45.3973 73.944V72.536C45.0027 72.7813 44.3733 72.984 43.5093 73.144C43.1893 73.208 42.9387 73.2613 42.7573 73.304C42.576 73.336 42.368 73.4 42.1333 73.496C41.8987 73.5813 41.7227 73.6773 41.6053 73.784C41.488 73.8907 41.3867 74.0347 41.3013 74.216C41.216 74.3867 41.1733 74.5893 41.1733 74.824C41.1733 75.72 41.744 76.168 42.8853 76.168ZM52.3856 77.24C51.2869 77.24 50.4176 76.7973 49.7776 75.912H49.7456V77H48.4496V65.56H49.7456V69.912H49.7776C50.4496 68.9947 51.3349 68.536 52.4336 68.536C53.5002 68.536 54.3536 68.9253 54.9936 69.704C55.6336 70.472 55.9536 71.5333 55.9536 72.888C55.9536 74.2213 55.6336 75.2827 54.9936 76.072C54.3642 76.8507 53.4949 77.24 52.3856 77.24ZM52.2896 76.152C53.0576 76.152 53.6389 75.8587 54.0336 75.272C54.4282 74.6747 54.6256 73.8853 54.6256 72.904C54.6256 71.9333 54.4282 71.1493 54.0336 70.552C53.6389 69.944 53.0629 69.64 52.3056 69.64C51.4416 69.64 50.7856 69.9493 50.3376 70.568C49.8896 71.176 49.6656 71.9547 49.6656 72.904C49.6656 73.8747 49.8896 74.6587 50.3376 75.256C50.7856 75.8533 51.4362 76.152 52.2896 76.152ZM57.2945 77V65.56H58.5905V77H57.2945ZM63.9387 77.224C62.712 77.224 61.736 76.8133 61.0107 75.992C60.296 75.16 59.9387 74.12 59.9387 72.872C59.9387 71.6453 60.3014 70.616 61.0267 69.784C61.7627 68.9413 62.7067 68.52 63.8587 68.52C65.0747 68.52 66.0134 68.9467 66.6747 69.8C67.336 70.6427 67.6667 71.768 67.6667 73.176H61.2667C61.32 74.0507 61.576 74.7653 62.0347 75.32C62.504 75.864 63.1387 76.136 63.9387 76.136C65.176 76.136 65.9387 75.5707 66.2267 74.44H67.4907C67.2987 75.3253 66.8934 76.0133 66.2747 76.504C65.656 76.984 64.8774 77.224 63.9387 77.224ZM65.5867 70.248C65.1707 69.7787 64.5947 69.544 63.8587 69.544C63.1227 69.544 62.536 69.7893 62.0987 70.28C61.672 70.7707 61.4054 71.4107 61.2987 72.2H66.2747C66.232 71.368 66.0027 70.7173 65.5867 70.248ZM72.07 77.24C70.9393 77.24 70.0593 76.9893 69.43 76.488C68.8113 75.976 68.47 75.2507 68.406 74.312H69.734C69.8833 75.5387 70.6726 76.152 72.102 76.152C72.7526 76.152 73.2326 76.0293 73.542 75.784C73.862 75.528 74.022 75.1973 74.022 74.792C74.022 74.3547 73.8673 74.04 73.558 73.848C73.2486 73.656 72.6833 73.4747 71.862 73.304C71.5206 73.2293 71.2486 73.1707 71.046 73.128C70.854 73.0747 70.6193 73.0053 70.342 72.92C70.0646 72.824 69.846 72.7227 69.686 72.616C69.5366 72.4987 69.382 72.36 69.222 72.2C69.062 72.04 68.9446 71.8427 68.87 71.608C68.806 71.3733 68.774 71.112 68.774 70.824C68.774 70.12 69.03 69.5653 69.542 69.16C70.0646 68.7547 70.8006 68.552 71.75 68.552C73.7126 68.552 74.7953 69.416 74.998 71.144H73.67C73.606 70.6 73.4193 70.2053 73.11 69.96C72.8006 69.704 72.3366 69.576 71.718 69.576C71.1526 69.576 70.7313 69.688 70.454 69.912C70.1873 70.1253 70.054 70.408 70.054 70.76C70.054 71.1653 70.214 71.4533 70.534 71.624C70.854 71.784 71.4353 71.9493 72.278 72.12C72.79 72.2267 73.19 72.328 73.478 72.424C73.7766 72.5093 74.086 72.648 74.406 72.84C74.726 73.0213 74.9606 73.2667 75.11 73.576C75.2593 73.8853 75.334 74.2693 75.334 74.728C75.334 75.5387 75.0353 76.1627 74.438 76.6C73.8406 77.0267 73.0513 77.24 72.07 77.24Z" fill="#838D8D"/>
</svg>
