<svg width="48" height="24" viewBox="0 0 48 24" fill="none" xmlns="http://www.w3.org/2000/svg">
    <rect width="48" height="24" rx="12" fill="#E9F6F9" />
    <path
        d="M8.12 16L11.276 7.42H12.488L15.656 16H14.48L13.568 13.384H10.148L9.224 16H8.12ZM11.48 9.628L10.46 12.508H13.268L12.284 9.628L11.9 8.416H11.876C11.724 8.896 11.592 9.3 11.48 9.628ZM18.8589 16.168C17.9549 16.168 17.2269 15.856 16.6749 15.232C16.1309 14.608 15.8589 13.832 15.8589 12.904C15.8589 11.976 16.1309 11.2 16.6749 10.576C17.2269 9.952 17.9549 9.64 18.8589 9.64C19.5869 9.64 20.1829 9.836 20.6469 10.228C21.1109 10.612 21.3989 11.136 21.5109 11.8H20.5269C20.4549 11.376 20.2749 11.044 19.9869 10.804C19.6989 10.564 19.3229 10.444 18.8589 10.444C18.2189 10.444 17.7229 10.676 17.3709 11.14C17.0269 11.604 16.8549 12.192 16.8549 12.904C16.8549 13.616 17.0269 14.204 17.3709 14.668C17.7229 15.124 18.2189 15.352 18.8589 15.352C19.3549 15.352 19.7509 15.22 20.0469 14.956C20.3429 14.684 20.5109 14.304 20.5509 13.816H21.5109C21.4469 14.56 21.1829 15.14 20.7189 15.556C20.2549 15.964 19.6349 16.168 18.8589 16.168ZM22.0335 10.588V9.796H22.9335V7.84H23.9055V9.796H25.1055V10.588H23.9055V14.62C23.9055 15.004 24.1135 15.196 24.5295 15.196C24.7055 15.196 24.8775 15.168 25.0455 15.112H25.0815V15.952C24.8175 16.008 24.5575 16.036 24.3015 16.036C23.3895 16.036 22.9335 15.636 22.9335 14.836V10.588H22.0335ZM26.1092 16V9.796H27.0812V16H26.1092ZM26.1092 8.62V7.42H27.0812V8.62H26.1092ZM29.9421 16L27.7701 9.796H28.8141L30.0981 13.732L30.5061 15.04H30.5301C30.6821 14.528 30.8181 14.092 30.9381 13.732L32.2461 9.796H33.2541L31.0221 16H29.9421ZM36.4722 16.168C35.5522 16.168 34.8202 15.86 34.2762 15.244C33.7402 14.62 33.4722 13.84 33.4722 12.904C33.4722 11.984 33.7442 11.212 34.2882 10.588C34.8402 9.956 35.5482 9.64 36.4122 9.64C37.3242 9.64 38.0282 9.96 38.5242 10.6C39.0202 11.232 39.2682 12.076 39.2682 13.132H34.4682C34.5082 13.788 34.7002 14.324 35.0442 14.74C35.3962 15.148 35.8722 15.352 36.4722 15.352C37.4002 15.352 37.9722 14.928 38.1882 14.08H39.1362C38.9922 14.744 38.6882 15.26 38.2242 15.628C37.7602 15.988 37.1762 16.168 36.4722 16.168ZM37.7082 10.936C37.3962 10.584 36.9642 10.408 36.4122 10.408C35.8602 10.408 35.4202 10.592 35.0922 10.96C34.7722 11.328 34.5722 11.808 34.4922 12.4H38.2242C38.1922 11.776 38.0202 11.288 37.7082 10.936Z"
        fill="#127A99" />
</svg>