<svg width="32" height="32" viewBox="0 0 32 32" fill="none" xmlns="http://www.w3.org/2000/svg">
<rect width="32" height="32" rx="4" fill="#F7F7F7"/>
<path d="M25 14C25.1313 14 25.2614 13.9742 25.3827 13.9239C25.5041 13.8737 25.6143 13.8 25.7072 13.7072C25.8 13.6143 25.8737 13.5041 25.9239 13.3827C25.9742 13.2614 26 13.1313 26 13V10C26.0001 9.79017 25.9341 9.58565 25.8114 9.41544C25.6887 9.24524 25.5155 9.11799 25.3164 9.05176L16.3164 6.05176C16.111 5.9834 15.889 5.9834 15.6836 6.05176L6.68359 9.05176C6.48449 9.11799 6.31131 9.24524 6.18861 9.41544C6.0659 9.58565 5.99991 9.79017 6 10V13C5.99997 13.1313 6.02581 13.2614 6.07605 13.3827C6.12629 13.5041 6.19995 13.6143 6.29282 13.7072C6.38568 13.8 6.49594 13.8737 6.61728 13.9239C6.73862 13.9742 6.86867 14 7 14H8V21.1843C7.41674 21.3897 6.91137 21.7707 6.55327 22.2748C6.19517 22.779 6.0019 23.3816 6 24V26C5.99997 26.1313 6.02581 26.2614 6.07605 26.3827C6.12629 26.5041 6.19995 26.6143 6.29282 26.7072C6.38568 26.8 6.49594 26.8737 6.61728 26.9239C6.73862 26.9742 6.86867 27 7 27H25C25.1313 27 25.2614 26.9742 25.3827 26.9239C25.5041 26.8737 25.6143 26.8 25.7072 26.7072C25.8 26.6143 25.8737 26.5041 25.9239 26.3827C25.9742 26.2614 26 26.1313 26 26V24C25.9981 23.3816 25.8048 22.779 25.4467 22.2748C25.0886 21.7707 24.5833 21.3897 24 21.1843V14H25ZM24 25H8V24C8.00026 23.7349 8.10571 23.4807 8.29319 23.2932C8.48066 23.1057 8.73486 23.0003 9 23H23C23.2651 23.0003 23.5193 23.1057 23.7068 23.2932C23.8943 23.4807 23.9997 23.7349 24 24V25ZM10 21V14H12V21H10ZM14 21V14H18V21H14ZM20 21V14H22V21H20ZM8 12V10.7207L16 8.0537L24 10.7207V12H8Z" fill="#3CBCE3"/>
</svg>
