<svg width="68" height="24" viewBox="0 0 68 24" fill="none" xmlns="http://www.w3.org/2000/svg">
    <rect width="68" height="24" rx="12" fill="#F9E9E9" />
    <path
        d="M12.5 16.168C11.292 16.168 10.32 15.752 9.584 14.92C8.848 14.088 8.48 13.016 8.48 11.704C8.48 10.408 8.844 9.34 9.572 8.5C10.308 7.652 11.3 7.228 12.548 7.228C13.524 7.228 14.312 7.48 14.912 7.984C15.512 8.488 15.872 9.148 15.992 9.964H14.936C14.832 9.42 14.568 8.984 14.144 8.656C13.728 8.328 13.188 8.164 12.524 8.164C11.604 8.164 10.884 8.496 10.364 9.16C9.844 9.816 9.584 10.664 9.584 11.704C9.584 12.76 9.852 13.612 10.388 14.26C10.932 14.9 11.648 15.22 12.536 15.22C13.304 15.22 13.896 14.996 14.312 14.548C14.736 14.1 14.976 13.536 15.032 12.856H16.1C16.092 13.28 15.992 13.716 15.8 14.164C15.616 14.604 15.372 14.972 15.068 15.268C14.452 15.868 13.596 16.168 12.5 16.168ZM22.0398 16.06C21.4238 16.06 21.0678 15.752 20.9718 15.136H20.9598C20.4478 15.792 19.7598 16.12 18.8958 16.12C18.2798 16.12 17.7758 15.972 17.3838 15.676C16.9918 15.38 16.7958 14.952 16.7958 14.392C16.7958 14.104 16.8398 13.856 16.9278 13.648C17.0238 13.432 17.1438 13.26 17.2878 13.132C17.4318 12.996 17.6278 12.88 17.8758 12.784C18.1318 12.68 18.3758 12.604 18.6078 12.556C18.8398 12.5 19.1358 12.444 19.4958 12.388C19.7278 12.356 19.8918 12.332 19.9878 12.316C20.0918 12.292 20.2238 12.26 20.3838 12.22C20.5438 12.172 20.6558 12.12 20.7198 12.064C20.7838 12.008 20.8438 11.932 20.8998 11.836C20.9558 11.74 20.9838 11.628 20.9838 11.5C20.9838 11.148 20.8598 10.88 20.6118 10.696C20.3718 10.504 20.0318 10.408 19.5918 10.408C18.5918 10.408 18.0758 10.864 18.0438 11.776H17.1078C17.1238 11.144 17.3398 10.636 17.7558 10.252C18.1798 9.868 18.7878 9.676 19.5798 9.676C21.1078 9.676 21.8718 10.332 21.8718 11.644V14.596C21.8718 14.868 21.9158 15.06 22.0038 15.172C22.0998 15.284 22.2758 15.312 22.5318 15.256H22.5678V15.964C22.4078 16.028 22.2318 16.06 22.0398 16.06ZM19.1118 15.376C19.7118 15.376 20.1758 15.204 20.5038 14.86C20.8318 14.508 20.9958 14.124 20.9958 13.708V12.652C20.6998 12.836 20.2278 12.988 19.5798 13.108C19.3398 13.156 19.1518 13.196 19.0158 13.228C18.8798 13.252 18.7238 13.3 18.5478 13.372C18.3718 13.436 18.2398 13.508 18.1518 13.588C18.0638 13.668 17.9878 13.776 17.9238 13.912C17.8598 14.04 17.8278 14.192 17.8278 14.368C17.8278 15.04 18.2558 15.376 19.1118 15.376ZM24.257 9.796V10.612H24.281C24.761 9.972 25.417 9.652 26.249 9.652C26.905 9.652 27.417 9.824 27.785 10.168C28.153 10.512 28.337 11.004 28.337 11.644V16H27.365V11.728C27.365 11.328 27.241 11.02 26.993 10.804C26.745 10.58 26.401 10.468 25.961 10.468C25.465 10.468 25.057 10.628 24.737 10.948C24.417 11.268 24.257 11.68 24.257 12.184V16H23.285V9.796H24.257ZM32.2768 16.168C31.3728 16.168 30.6448 15.856 30.0928 15.232C29.5488 14.608 29.2768 13.832 29.2768 12.904C29.2768 11.976 29.5488 11.2 30.0928 10.576C30.6448 9.952 31.3728 9.64 32.2768 9.64C33.0048 9.64 33.6008 9.836 34.0648 10.228C34.5288 10.612 34.8168 11.136 34.9288 11.8H33.9448C33.8728 11.376 33.6928 11.044 33.4048 10.804C33.1168 10.564 32.7408 10.444 32.2768 10.444C31.6368 10.444 31.1408 10.676 30.7888 11.14C30.4448 11.604 30.2728 12.192 30.2728 12.904C30.2728 13.616 30.4448 14.204 30.7888 14.668C31.1408 15.124 31.6368 15.352 32.2768 15.352C32.7728 15.352 33.1688 15.22 33.4648 14.956C33.7608 14.684 33.9288 14.304 33.9688 13.816H34.9288C34.8648 14.56 34.6008 15.14 34.1368 15.556C33.6728 15.964 33.0528 16.168 32.2768 16.168ZM38.4995 16.168C37.5795 16.168 36.8475 15.86 36.3035 15.244C35.7675 14.62 35.4995 13.84 35.4995 12.904C35.4995 11.984 35.7715 11.212 36.3155 10.588C36.8675 9.956 37.5755 9.64 38.4395 9.64C39.3515 9.64 40.0555 9.96 40.5515 10.6C41.0475 11.232 41.2955 12.076 41.2955 13.132H36.4955C36.5355 13.788 36.7275 14.324 37.0715 14.74C37.4235 15.148 37.8995 15.352 38.4995 15.352C39.4275 15.352 39.9995 14.928 40.2155 14.08H41.1635C41.0195 14.744 40.7155 15.26 40.2515 15.628C39.7875 15.988 39.2035 16.168 38.4995 16.168ZM39.7355 10.936C39.4235 10.584 38.9915 10.408 38.4395 10.408C37.8875 10.408 37.4475 10.592 37.1195 10.96C36.7995 11.328 36.5995 11.808 36.5195 12.4H40.2515C40.2195 11.776 40.0475 11.288 39.7355 10.936ZM42.2819 16V7.42H43.2539V16H42.2819ZM44.6491 16V7.42H45.6211V16H44.6491ZM49.6323 16.168C48.7123 16.168 47.9803 15.86 47.4363 15.244C46.9003 14.62 46.6323 13.84 46.6323 12.904C46.6323 11.984 46.9043 11.212 47.4483 10.588C48.0003 9.956 48.7083 9.64 49.5723 9.64C50.4843 9.64 51.1883 9.96 51.6843 10.6C52.1803 11.232 52.4283 12.076 52.4283 13.132H47.6283C47.6683 13.788 47.8603 14.324 48.2043 14.74C48.5563 15.148 49.0323 15.352 49.6323 15.352C50.5603 15.352 51.1323 14.928 51.3483 14.08H52.2963C52.1523 14.744 51.8483 15.26 51.3843 15.628C50.9203 15.988 50.3363 16.168 49.6323 16.168ZM50.8683 10.936C50.5563 10.584 50.1243 10.408 49.5723 10.408C49.0203 10.408 48.5803 10.592 48.2523 10.96C47.9323 11.328 47.7323 11.808 47.6523 12.4H51.3843C51.3523 11.776 51.1803 11.288 50.8683 10.936ZM55.7788 16.18C54.9308 16.18 54.2588 15.888 53.7628 15.304C53.2748 14.712 53.0308 13.916 53.0308 12.916C53.0308 11.908 53.2868 11.112 53.7988 10.528C54.3108 9.944 54.9628 9.652 55.7548 9.652C56.5948 9.652 57.2428 9.992 57.6988 10.672H57.7228V7.42H58.6948V16H57.7228V15.244H57.6988C57.2108 15.868 56.5708 16.18 55.7788 16.18ZM55.8148 15.364C56.4788 15.364 56.9708 15.144 57.2908 14.704C57.6188 14.264 57.7828 13.672 57.7828 12.928C57.7828 12.192 57.6068 11.6 57.2548 11.152C56.9108 10.704 56.4268 10.48 55.8027 10.48C55.2348 10.48 54.7948 10.708 54.4827 11.164C54.1788 11.612 54.0268 12.2 54.0268 12.928C54.0268 13.656 54.1788 14.244 54.4827 14.692C54.7948 15.14 55.2388 15.364 55.8148 15.364Z"
        fill="#E72529" />
</svg>