<svg width="73" height="24" viewBox="0 0 73 24" fill="none" xmlns="http://www.w3.org/2000/svg">
<rect width="73" height="24" rx="12" fill="#E6FCED"/>
<path d="M12.5 16.168C11.292 16.168 10.32 15.752 9.584 14.92C8.848 14.088 8.48 13.016 8.48 11.704C8.48 10.408 8.844 9.34 9.572 8.5C10.308 7.652 11.3 7.228 12.548 7.228C13.524 7.228 14.312 7.48 14.912 7.984C15.512 8.488 15.872 9.148 15.992 9.964H14.936C14.832 9.42 14.568 8.984 14.144 8.656C13.728 8.328 13.188 8.164 12.524 8.164C11.604 8.164 10.884 8.496 10.364 9.16C9.844 9.816 9.584 10.664 9.584 11.704C9.584 12.76 9.852 13.612 10.388 14.26C10.932 14.9 11.648 15.22 12.536 15.22C13.304 15.22 13.896 14.996 14.312 14.548C14.736 14.1 14.976 13.536 15.032 12.856H16.1C16.092 13.28 15.992 13.716 15.8 14.164C15.616 14.604 15.372 14.972 15.068 15.268C14.452 15.868 13.596 16.168 12.5 16.168ZM21.9918 15.232C21.4478 15.856 20.7238 16.168 19.8198 16.168C18.9158 16.168 18.1878 15.856 17.6358 15.232C17.0918 14.608 16.8198 13.832 16.8198 12.904C16.8198 11.976 17.0918 11.2 17.6358 10.576C18.1878 9.952 18.9158 9.64 19.8198 9.64C20.7238 9.64 21.4478 9.952 21.9918 10.576C22.5358 11.2 22.8078 11.976 22.8078 12.904C22.8078 13.832 22.5358 14.608 21.9918 15.232ZM18.3318 14.668C18.6838 15.124 19.1798 15.352 19.8198 15.352C20.4598 15.352 20.9518 15.124 21.2958 14.668C21.6398 14.204 21.8118 13.616 21.8118 12.904C21.8118 12.184 21.6358 11.596 21.2838 11.14C20.9398 10.676 20.4518 10.444 19.8198 10.444C19.1798 10.444 18.6838 10.676 18.3318 11.14C17.9878 11.604 17.8158 12.192 17.8158 12.904C17.8158 13.616 17.9878 14.204 18.3318 14.668ZM23.7772 16V9.796H24.7492V10.684H24.7732C24.9732 10.372 25.2332 10.124 25.5532 9.94C25.8732 9.748 26.2212 9.652 26.5972 9.652C27.4052 9.652 27.9452 10.02 28.2172 10.756H28.2412C28.4332 10.412 28.7012 10.144 29.0452 9.952C29.3892 9.752 29.7532 9.652 30.1372 9.652C30.7052 9.652 31.1612 9.828 31.5052 10.18C31.8492 10.524 32.0212 11.012 32.0212 11.644V16H31.0492V11.692C31.0492 11.316 30.9372 11.02 30.7132 10.804C30.4972 10.58 30.2292 10.468 29.9092 10.468C29.5012 10.468 29.1452 10.628 28.8412 10.948C28.5372 11.268 28.3852 11.664 28.3852 12.136V16H27.4132V11.692C27.4132 11.316 27.3132 11.02 27.1132 10.804C26.9212 10.58 26.6652 10.468 26.3452 10.468C25.9452 10.468 25.5772 10.632 25.2412 10.96C24.9132 11.28 24.7492 11.672 24.7492 12.136V16H23.7772ZM33.3045 17.992V9.796H34.2765V10.672H34.3005C34.8045 9.992 35.4685 9.652 36.2925 9.652C37.0925 9.652 37.7365 9.944 38.2245 10.528C38.7125 11.104 38.9565 11.9 38.9565 12.916C38.9565 13.916 38.7165 14.712 38.2365 15.304C37.7565 15.888 37.0965 16.18 36.2565 16.18C35.4245 16.18 34.7725 15.876 34.3005 15.268H34.2765V17.992H33.3045ZM36.1845 15.364C36.7605 15.364 37.2005 15.14 37.5045 14.692C37.8085 14.244 37.9605 13.656 37.9605 12.928C37.9605 12.2 37.8085 11.612 37.5045 11.164C37.2005 10.708 36.7645 10.48 36.1965 10.48C35.5485 10.48 35.0565 10.712 34.7205 11.176C34.3845 11.632 34.2165 12.216 34.2165 12.928C34.2165 13.656 34.3765 14.244 34.6965 14.692C35.0165 15.14 35.5125 15.364 36.1845 15.364ZM39.9616 16V7.42H40.9336V16H39.9616ZM44.9448 16.168C44.0248 16.168 43.2928 15.86 42.7488 15.244C42.2128 14.62 41.9448 13.84 41.9448 12.904C41.9448 11.984 42.2168 11.212 42.7608 10.588C43.3128 9.956 44.0208 9.64 44.8848 9.64C45.7968 9.64 46.5008 9.96 46.9968 10.6C47.4928 11.232 47.7408 12.076 47.7408 13.132H42.9408C42.9808 13.788 43.1728 14.324 43.5168 14.74C43.8688 15.148 44.3448 15.352 44.9448 15.352C45.8728 15.352 46.4448 14.928 46.6608 14.08H47.6088C47.4648 14.744 47.1608 15.26 46.6968 15.628C46.2328 15.988 45.6488 16.168 44.9448 16.168ZM46.1808 10.936C45.8688 10.584 45.4368 10.408 44.8848 10.408C44.3328 10.408 43.8928 10.592 43.5648 10.96C43.2448 11.328 43.0448 11.808 42.9648 12.4H46.6968C46.6648 11.776 46.4928 11.288 46.1808 10.936ZM48.1781 10.588V9.796H49.0781V7.84H50.0501V9.796H51.2501V10.588H50.0501V14.62C50.0501 15.004 50.2581 15.196 50.6741 15.196C50.8501 15.196 51.0221 15.168 51.1901 15.112H51.2261V15.952C50.9621 16.008 50.7021 16.036 50.4461 16.036C49.5341 16.036 49.0781 15.636 49.0781 14.836V10.588H48.1781ZM54.8472 16.168C53.9272 16.168 53.1952 15.86 52.6512 15.244C52.1152 14.62 51.8472 13.84 51.8472 12.904C51.8472 11.984 52.1192 11.212 52.6632 10.588C53.2152 9.956 53.9232 9.64 54.7872 9.64C55.6992 9.64 56.4032 9.96 56.8992 10.6C57.3952 11.232 57.6432 12.076 57.6432 13.132H52.8432C52.8832 13.788 53.0752 14.324 53.4192 14.74C53.7712 15.148 54.2472 15.352 54.8472 15.352C55.7752 15.352 56.3472 14.928 56.5632 14.08H57.5112C57.3672 14.744 57.0632 15.26 56.5992 15.628C56.1352 15.988 55.5512 16.168 54.8472 16.168ZM56.0832 10.936C55.7712 10.584 55.3392 10.408 54.7872 10.408C54.2352 10.408 53.7952 10.592 53.4672 10.96C53.1472 11.328 52.9472 11.808 52.8672 12.4H56.5992C56.5672 11.776 56.3952 11.288 56.0832 10.936ZM60.9936 16.18C60.1456 16.18 59.4736 15.888 58.9776 15.304C58.4896 14.712 58.2456 13.916 58.2456 12.916C58.2456 11.908 58.5016 11.112 59.0136 10.528C59.5256 9.944 60.1776 9.652 60.9696 9.652C61.8096 9.652 62.4576 9.992 62.9136 10.672H62.9376V7.42H63.9096V16H62.9376V15.244H62.9136C62.4256 15.868 61.7856 16.18 60.9936 16.18ZM61.0296 15.364C61.6936 15.364 62.1856 15.144 62.5056 14.704C62.8336 14.264 62.9976 13.672 62.9976 12.928C62.9976 12.192 62.8216 11.6 62.4696 11.152C62.1256 10.704 61.6416 10.48 61.0176 10.48C60.4496 10.48 60.0096 10.708 59.6976 11.164C59.3936 11.612 59.2416 12.2 59.2416 12.928C59.2416 13.656 59.3936 14.244 59.6976 14.692C60.0096 15.14 60.4536 15.364 61.0296 15.364Z" fill="#0B9843"/>
</svg>
