<svg width="97" height="24" viewBox="0 0 97 24" fill="none" xmlns="http://www.w3.org/2000/svg">
<circle cx="6.40039" cy="12" r="6" fill="#22BB5F"/>
<path d="M26.4004 17.224C24.7897 17.224 23.4937 16.6693 22.5124 15.56C21.5311 14.4507 21.0404 13.0213 21.0404 11.272C21.0404 9.544 21.5257 8.12 22.4964 7C23.4777 5.86933 24.8004 5.304 26.4644 5.304C27.7657 5.304 28.8164 5.64 29.6164 6.312C30.4164 6.984 30.8964 7.864 31.0564 8.952H29.6484C29.5097 8.22667 29.1577 7.64533 28.5924 7.208C28.0377 6.77067 27.3177 6.552 26.4324 6.552C25.2057 6.552 24.2457 6.99467 23.5524 7.88C22.8591 8.75467 22.5124 9.88533 22.5124 11.272C22.5124 12.68 22.8697 13.816 23.5844 14.68C24.3097 15.5333 25.2644 15.96 26.4484 15.96C27.4724 15.96 28.2617 15.6613 28.8164 15.064C29.3817 14.4667 29.7017 13.7147 29.7764 12.808H31.2004C31.1897 13.3733 31.0564 13.9547 30.8004 14.552C30.5551 15.1387 30.2297 15.6293 29.8244 16.024C29.0031 16.824 27.8617 17.224 26.4004 17.224ZM39.0561 15.976C38.3308 16.808 37.3655 17.224 36.1601 17.224C34.9548 17.224 33.9841 16.808 33.2481 15.976C32.5228 15.144 32.1601 14.1093 32.1601 12.872C32.1601 11.6347 32.5228 10.6 33.2481 9.768C33.9841 8.936 34.9548 8.52 36.1601 8.52C37.3655 8.52 38.3308 8.936 39.0561 9.768C39.7815 10.6 40.1441 11.6347 40.1441 12.872C40.1441 14.1093 39.7815 15.144 39.0561 15.976ZM34.1761 15.224C34.6455 15.832 35.3068 16.136 36.1601 16.136C37.0135 16.136 37.6695 15.832 38.1281 15.224C38.5868 14.6053 38.8161 13.8213 38.8161 12.872C38.8161 11.912 38.5815 11.128 38.1121 10.52C37.6535 9.90133 37.0028 9.592 36.1601 9.592C35.3068 9.592 34.6455 9.90133 34.1761 10.52C33.7175 11.1387 33.4881 11.9227 33.4881 12.872C33.4881 13.8213 33.7175 14.6053 34.1761 15.224ZM41.4366 17V8.728H42.7326V9.912H42.7646C43.0313 9.496 43.378 9.16533 43.8046 8.92C44.2313 8.664 44.6953 8.536 45.1966 8.536C46.274 8.536 46.994 9.02667 47.3566 10.008H47.3886C47.6446 9.54933 48.002 9.192 48.4606 8.936C48.9193 8.66933 49.4046 8.536 49.9166 8.536C50.674 8.536 51.282 8.77067 51.7406 9.24C52.1993 9.69867 52.4286 10.3493 52.4286 11.192V17H51.1326V11.256C51.1326 10.7547 50.9833 10.36 50.6846 10.072C50.3966 9.77333 50.0393 9.624 49.6126 9.624C49.0686 9.624 48.594 9.83733 48.1886 10.264C47.7833 10.6907 47.5806 11.2187 47.5806 11.848V17H46.2846V11.256C46.2846 10.7547 46.1513 10.36 45.8846 10.072C45.6286 9.77333 45.2873 9.624 44.8606 9.624C44.3273 9.624 43.8366 9.84267 43.3886 10.28C42.9513 10.7067 42.7326 11.2293 42.7326 11.848V17H41.4366ZM54.1398 19.656V8.728H55.4358V9.896H55.4678C56.1398 8.98933 57.0251 8.536 58.1238 8.536C59.1904 8.536 60.0491 8.92533 60.6998 9.704C61.3504 10.472 61.6758 11.5333 61.6758 12.888C61.6758 14.2213 61.3558 15.2827 60.7158 16.072C60.0758 16.8507 59.1958 17.24 58.0758 17.24C56.9664 17.24 56.0971 16.8347 55.4678 16.024H55.4358V19.656H54.1398ZM57.9798 16.152C58.7478 16.152 59.3344 15.8533 59.7398 15.256C60.1451 14.6587 60.3478 13.8747 60.3478 12.904C60.3478 11.9333 60.1451 11.1493 59.7398 10.552C59.3344 9.944 58.7531 9.64 57.9958 9.64C57.1318 9.64 56.4758 9.94933 56.0278 10.568C55.5798 11.176 55.3558 11.9547 55.3558 12.904C55.3558 13.8747 55.5691 14.6587 55.9958 15.256C56.4224 15.8533 57.0838 16.152 57.9798 16.152ZM63.0159 17V5.56H64.3119V17H63.0159ZM69.6601 17.224C68.4335 17.224 67.4575 16.8133 66.7321 15.992C66.0175 15.16 65.6601 14.12 65.6601 12.872C65.6601 11.6453 66.0228 10.616 66.7481 9.784C67.4841 8.94133 68.4281 8.52 69.5801 8.52C70.7961 8.52 71.7348 8.94667 72.3961 9.8C73.0575 10.6427 73.3881 11.768 73.3881 13.176H66.9881C67.0415 14.0507 67.2975 14.7653 67.7561 15.32C68.2255 15.864 68.8601 16.136 69.6601 16.136C70.8975 16.136 71.6601 15.5707 71.9481 14.44H73.2121C73.0201 15.3253 72.6148 16.0133 71.9961 16.504C71.3775 16.984 70.5988 17.224 69.6601 17.224ZM71.3081 10.248C70.8921 9.77867 70.3161 9.544 69.5801 9.544C68.8441 9.544 68.2575 9.78933 67.8201 10.28C67.3935 10.7707 67.1268 11.4107 67.0201 12.2H71.9961C71.9535 11.368 71.7241 10.7173 71.3081 10.248ZM73.9711 9.784V8.728H75.1711V6.12H76.4671V8.728H78.0671V9.784H76.4671V15.16C76.4671 15.672 76.7445 15.928 77.2991 15.928C77.5338 15.928 77.7631 15.8907 77.9871 15.816H78.0351V16.936C77.6831 17.0107 77.3365 17.048 76.9951 17.048C75.7791 17.048 75.1711 16.5147 75.1711 15.448V9.784H73.9711ZM82.8633 17.224C81.6366 17.224 80.6606 16.8133 79.9353 15.992C79.2206 15.16 78.8633 14.12 78.8633 12.872C78.8633 11.6453 79.2259 10.616 79.9513 9.784C80.6873 8.94133 81.6313 8.52 82.7833 8.52C83.9993 8.52 84.9379 8.94667 85.5993 9.8C86.2606 10.6427 86.5913 11.768 86.5913 13.176H80.1913C80.2446 14.0507 80.5006 14.7653 80.9593 15.32C81.4286 15.864 82.0633 16.136 82.8633 16.136C84.1006 16.136 84.8633 15.5707 85.1513 14.44H86.4153C86.2233 15.3253 85.8179 16.0133 85.1993 16.504C84.5806 16.984 83.8019 17.224 82.8633 17.224ZM84.5113 10.248C84.0953 9.77867 83.5193 9.544 82.7833 9.544C82.0473 9.544 81.4606 9.78933 81.0233 10.28C80.5966 10.7707 80.3299 11.4107 80.2233 12.2H85.1993C85.1566 11.368 84.9273 10.7173 84.5113 10.248ZM91.0585 17.24C89.9278 17.24 89.0318 16.8507 88.3705 16.072C87.7198 15.2827 87.3945 14.2213 87.3945 12.888C87.3945 11.544 87.7358 10.4827 88.4185 9.704C89.1012 8.92533 89.9705 8.536 91.0265 8.536C92.1465 8.536 93.0105 8.98933 93.6185 9.896H93.6505V5.56H94.9465V17H93.6505V15.992H93.6185C92.9678 16.824 92.1145 17.24 91.0585 17.24ZM91.1065 16.152C91.9918 16.152 92.6478 15.8587 93.0745 15.272C93.5118 14.6853 93.7305 13.896 93.7305 12.904C93.7305 11.9227 93.4958 11.1333 93.0265 10.536C92.5678 9.93867 91.9225 9.64 91.0905 9.64C90.3332 9.64 89.7465 9.944 89.3305 10.552C88.9252 11.1493 88.7225 11.9333 88.7225 12.904C88.7225 13.8747 88.9252 14.6587 89.3305 15.256C89.7465 15.8533 90.3385 16.152 91.1065 16.152Z" fill="#0B9843"/>
</svg>
