<svg width="48" height="48" viewBox="0 0 48 48" fill="none" xmlns="http://www.w3.org/2000/svg">
<rect width="48" height="48" rx="4" fill="#F7F7F7"/>
<path d="M17.3643 34.0972C17.335 33.1494 17.3203 32.2399 17.3203 31.3687C17.3203 29.7986 17.3692 28.3769 17.4669 27.1036C17.5647 25.8303 17.7064 24.7485 17.8921 23.8581C17.9801 23.4465 18.1022 23.0491 18.2586 22.6662C18.4248 22.2832 18.6545 21.9721 18.9477 21.7328C19.2507 21.4838 19.6466 21.3594 20.1353 21.3594C20.6142 21.3594 21.0198 21.4838 21.3522 21.7328C21.6845 21.9721 21.9533 22.2641 22.1585 22.6087C22.3736 22.9534 22.53 23.2837 22.6277 23.5996C22.8818 24.3464 23.0969 25.0931 23.2728 25.8399C23.4487 26.5866 23.6051 27.2999 23.742 27.9796C23.8397 27.4818 23.9521 26.96 24.0792 26.4143C24.2062 25.859 24.3333 25.3373 24.4604 24.849C24.5874 24.3512 24.7047 23.9395 24.8122 23.614C25.3107 22.1109 26.078 21.3594 27.1141 21.3594C27.6907 21.3594 28.1794 21.5652 28.5802 21.9769C28.9809 22.379 29.2741 22.963 29.4599 23.7289C29.5478 24.0735 29.6358 24.5762 29.7238 25.2367C29.8215 25.8973 29.9095 26.6824 29.9877 27.5919C30.0756 28.4918 30.1489 29.4875 30.2076 30.5789C30.276 31.6703 30.3298 32.8287 30.3689 34.0542L27.7885 33.9967C27.7885 33.4893 27.7738 32.9005 27.7445 32.2304C27.7249 31.5602 27.6907 30.8661 27.6419 30.1481C27.6028 29.4205 27.5539 28.712 27.4952 28.0227C27.4464 27.3334 27.3926 26.7111 27.334 26.1558C27.2851 25.6005 27.2362 25.1602 27.1874 24.8346C27.1385 24.4996 27.0945 24.332 27.0554 24.332C27.0456 24.332 26.9919 24.5043 26.8941 24.849C26.8062 25.1841 26.6938 25.6341 26.5569 26.1989C26.4299 26.7638 26.2881 27.386 26.1317 28.0658C25.9754 28.7455 25.819 29.43 25.6626 30.1193C25.516 30.7991 25.384 31.431 25.2667 32.0149C25.1494 32.5894 25.0566 33.0585 24.9882 33.4223L22.6863 33.4797C22.5691 32.9436 22.4273 32.3548 22.2612 31.7134C22.1048 31.0624 21.9386 30.4018 21.7627 29.7316C21.5965 29.0519 21.4304 28.4009 21.2642 27.7786C21.098 27.1467 20.9417 26.5819 20.795 26.084C20.6582 25.5862 20.5458 25.1937 20.4578 24.9064C20.3699 24.6097 20.3161 24.4613 20.2966 24.4613C20.2575 24.4613 20.2135 24.6719 20.1646 25.0931C20.1255 25.5048 20.0864 26.0649 20.0473 26.7733C20.0082 27.4818 19.974 28.2812 19.9447 29.1715C19.9251 30.0619 19.9154 30.981 19.9154 31.9288C19.9154 32.3788 19.9154 32.7904 19.9154 33.1638C19.9251 33.5372 19.9349 33.8435 19.9447 34.0829L17.3643 34.0972Z" fill="#034147"/>
<path fill-rule="evenodd" clip-rule="evenodd" d="M22.7785 8C19.5588 8 17.5464 10.4164 17.5464 12.8328V16.8696C17.2256 17.0552 17.0098 17.4023 17.0098 17.7998C17.0098 18.393 17.4903 18.8738 18.083 18.8738C18.6758 18.8738 19.1563 18.393 19.1563 17.7998C19.1563 17.2994 18.8142 16.8789 18.3513 16.7597V13.2355C18.3513 10.863 20.2734 8.93971 22.6444 8.93971H23.181C25.552 8.93971 27.474 10.863 27.474 13.2355V16.7597C27.0111 16.8789 26.6691 17.2994 26.6691 17.7998C26.6691 18.393 27.1496 18.8738 27.7423 18.8738C28.3351 18.8738 28.8156 18.393 28.8156 17.7998C28.8156 17.4023 28.5998 17.0552 28.279 16.8696V12.8328C28.279 10.4603 25.9983 8 22.7785 8Z" fill="#034147"/>
<path fill-rule="evenodd" clip-rule="evenodd" d="M26.9594 14.1632L18.8873 13.4752V14.4499H26.9594V14.1632ZM12.9677 12.9707L17.0038 13.3147V14.4499H15.5239L14.1785 38.5206C16.0943 38.2903 17.8312 38.0749 19.4582 37.8731L19.4607 37.8728L19.4617 37.8727C26.2427 37.0318 31.1146 36.4276 39.0676 35.9656C28.6524 36.9568 22.8214 37.8938 12.4296 39.9998C11.2126 39.0456 10.4583 38.589 8.93164 37.9827L12.9677 12.9707ZM12.5641 38.924L13.9095 13.5086H13.3713L9.87339 37.3104L10.5461 37.5793L12.026 29.6454L11.4878 38.2517L12.5641 38.924Z" fill="#034147"/>
</svg>
