<svg width="32" height="32" viewBox="0 0 32 32" fill="none" xmlns="http://www.w3.org/2000/svg">
<rect width="32" height="32" rx="4" fill="#F7F7F7"/>
<path d="M11.0232 23.5729C11.0012 22.8621 10.9902 22.1799 10.9902 21.5265C10.9902 20.349 11.0269 19.2827 11.1002 18.3277C11.1735 17.3727 11.2798 16.5614 11.4191 15.8936C11.4851 15.5848 11.5767 15.2869 11.694 14.9996C11.8186 14.7124 11.9909 14.4791 12.2108 14.2996C12.438 14.1129 12.7349 14.0195 13.1015 14.0195C13.4607 14.0195 13.7649 14.1129 14.0141 14.2996C14.2634 14.4791 14.465 14.6981 14.6189 14.9566C14.7802 15.2151 14.8975 15.4628 14.9708 15.6997C15.1614 16.2598 15.3226 16.8199 15.4546 17.3799C15.5865 17.94 15.7038 18.4749 15.8065 18.9847C15.8798 18.6113 15.9641 18.22 16.0594 17.8107C16.1547 17.3943 16.25 17.0029 16.3453 16.6368C16.4406 16.2634 16.5285 15.9546 16.6092 15.7105C16.983 14.5832 17.5585 14.0195 18.3355 14.0195C18.768 14.0195 19.1346 14.1739 19.4351 14.4827C19.7357 14.7842 19.9556 15.2222 20.0949 15.7967C20.1609 16.0551 20.2268 16.4321 20.2928 16.9276C20.3661 17.423 20.4321 18.0118 20.4907 18.6939C20.5567 19.3689 20.6117 20.1156 20.6557 20.9342C20.707 21.7527 20.7473 22.6215 20.7766 23.5406L18.8414 23.4975C18.8414 23.117 18.8304 22.6754 18.8084 22.1728C18.7937 21.6701 18.768 21.1496 18.7314 20.6111C18.7021 20.0653 18.6654 19.534 18.6214 19.017C18.5848 18.5 18.5445 18.0333 18.5005 17.6169C18.4638 17.2004 18.4272 16.8701 18.3905 16.626C18.3539 16.3747 18.3209 16.249 18.2916 16.249C18.2842 16.249 18.2439 16.3783 18.1706 16.6368C18.1046 16.8881 18.0203 17.2255 17.9177 17.6492C17.8224 18.0728 17.7161 18.5395 17.5988 19.0493C17.4815 19.5591 17.3642 20.0725 17.2469 20.5895C17.137 21.0993 17.038 21.5732 16.95 22.0112C16.8621 22.442 16.7924 22.7939 16.7411 23.0667L15.0148 23.1098C14.9268 22.7077 14.8205 22.2661 14.6959 21.785C14.5786 21.2968 14.454 20.8013 14.322 20.2987C14.1974 19.7889 14.0728 19.3006 13.9481 18.8339C13.8235 18.36 13.7062 17.9364 13.5963 17.563C13.4936 17.1896 13.4093 16.8952 13.3434 16.6798C13.2774 16.4572 13.2371 16.346 13.2224 16.346C13.1931 16.346 13.1601 16.5039 13.1235 16.8199C13.0941 17.1286 13.0648 17.5487 13.0355 18.08C13.0062 18.6113 12.9805 19.2109 12.9585 19.8787C12.9439 20.5464 12.9365 21.2357 12.9365 21.9466C12.9365 22.2841 12.9365 22.5928 12.9365 22.8728C12.9439 23.1529 12.9512 23.3827 12.9585 23.5622L11.0232 23.5729Z" fill="#034147"/>
<path fill-rule="evenodd" clip-rule="evenodd" d="M15.0844 4C12.6696 4 11.1603 5.8123 11.1603 7.6246V10.6522C10.9197 10.7914 10.7578 11.0517 10.7578 11.3499C10.7578 11.7947 11.1182 12.1553 11.5628 12.1553C12.0073 12.1553 12.3677 11.7947 12.3677 11.3499C12.3677 10.9746 12.1112 10.6592 11.764 10.5698V7.92665C11.764 6.14726 13.2055 4.70478 14.9838 4.70478H15.3862C17.1645 4.70478 18.606 6.14726 18.606 7.92665V10.5698C18.2588 10.6592 18.0023 10.9746 18.0023 11.3499C18.0023 11.7947 18.3627 12.1553 18.8072 12.1553C19.2518 12.1553 19.6122 11.7947 19.6122 11.3499C19.6122 11.0517 19.4503 10.7914 19.2097 10.6522V7.6246C19.2097 5.84521 17.4992 4 15.0844 4Z" fill="#034147"/>
<path fill-rule="evenodd" clip-rule="evenodd" d="M18.22 8.62243L12.1659 8.10643V8.83743H18.22V8.62243ZM7.72626 7.72803L10.7533 7.98603V8.83743H9.64339L8.63438 26.8905C10.0712 26.7177 11.3739 26.5562 12.5941 26.4049L12.596 26.4046L12.5968 26.4045C17.6825 25.7738 21.3365 25.3207 27.3012 24.9742C19.4898 25.7176 15.1165 26.4204 7.32266 27.9999C6.40994 27.2842 5.8442 26.9418 4.69922 26.487L7.72626 7.72803ZM7.42356 27.193L8.43258 8.13145H8.02897L5.40553 25.9828L5.91004 26.1845L7.01995 20.234L6.61635 26.6888L7.42356 27.193Z" fill="#034147"/>
</svg>
