<svg width="24" height="24" viewBox="0 0 24 24" fill="none" xmlns="http://www.w3.org/2000/svg">
<path d="M7.02322 19.5729C7.00123 18.8621 6.99023 18.1799 6.99023 17.5265C6.99023 16.349 7.02689 15.2827 7.10019 14.3277C7.1735 13.3727 7.27979 12.5614 7.41908 11.8936C7.48505 11.5848 7.57669 11.2869 7.69398 10.9996C7.8186 10.7124 7.99087 10.4791 8.21079 10.2996C8.43804 10.1129 8.73493 10.0195 9.10146 10.0195C9.46066 10.0195 9.76488 10.1129 10.0141 10.2996C10.2634 10.4791 10.465 10.6981 10.6189 10.9566C10.7802 11.2151 10.8975 11.4628 10.9708 11.6997C11.1614 12.2598 11.3226 12.8199 11.4546 13.3799C11.5865 13.94 11.7038 14.4749 11.8065 14.9847C11.8798 14.6113 11.9641 14.22 12.0594 13.8107C12.1547 13.3943 12.25 13.0029 12.3453 12.6368C12.4406 12.2634 12.5285 11.9546 12.6092 11.7105C12.983 10.5832 13.5585 10.0195 14.3355 10.0195C14.768 10.0195 15.1346 10.1739 15.4351 10.4827C15.7357 10.7842 15.9556 11.2222 16.0949 11.7967C16.1609 12.0551 16.2268 12.4321 16.2928 12.9276C16.3661 13.423 16.4321 14.0118 16.4907 14.6939C16.5567 15.3689 16.6117 16.1156 16.6557 16.9342C16.707 17.7527 16.7473 18.6215 16.7766 19.5406L14.8414 19.4975C14.8414 19.117 14.8304 18.6754 14.8084 18.1728C14.7937 17.6701 14.768 17.1496 14.7314 16.6111C14.7021 16.0653 14.6654 15.534 14.6214 15.017C14.5848 14.5 14.5445 14.0333 14.5005 13.6169C14.4638 13.2004 14.4272 12.8701 14.3905 12.626C14.3539 12.3747 14.3209 12.249 14.2916 12.249C14.2842 12.249 14.2439 12.3783 14.1706 12.6368C14.1046 12.8881 14.0203 13.2255 13.9177 13.6492C13.8224 14.0728 13.7161 14.5395 13.5988 15.0493C13.4815 15.5591 13.3642 16.0725 13.2469 16.5895C13.137 17.0993 13.038 17.5732 12.95 18.0112C12.8621 18.442 12.7924 18.7939 12.7411 19.0667L11.0148 19.1098C10.9268 18.7077 10.8205 18.2661 10.6959 17.785C10.5786 17.2968 10.454 16.8013 10.322 16.2987C10.1974 15.7889 10.0728 15.3006 9.94815 14.8339C9.82353 14.36 9.70624 13.9364 9.59628 13.563C9.49365 13.1896 9.40935 12.8952 9.34337 12.6798C9.2774 12.4572 9.23708 12.346 9.22242 12.346C9.19309 12.346 9.1601 12.5039 9.12345 12.8199C9.09413 13.1286 9.06481 13.5487 9.03548 14.08C9.00616 14.6113 8.9805 15.2109 8.95851 15.8787C8.94385 16.5464 8.93652 17.2357 8.93652 17.9466C8.93652 18.2841 8.93652 18.5928 8.93652 18.8728C8.94385 19.1529 8.95118 19.3827 8.95851 19.5622L7.02322 19.5729Z" fill="#034147"/>
<path fill-rule="evenodd" clip-rule="evenodd" d="M11.0844 0C8.66955 0 7.16028 1.8123 7.16028 3.6246V6.65217C6.91969 6.79143 6.75781 7.05174 6.75781 7.34987C6.75781 7.79472 7.1182 8.15534 7.56276 8.15534C8.00731 8.15534 8.3677 7.79472 8.3677 7.34987C8.3677 6.97456 8.11117 6.6592 7.76399 6.56978V3.92665C7.76399 2.14726 9.20553 0.704782 10.9838 0.704782H11.3862C13.1645 0.704782 14.606 2.14726 14.606 3.92665V6.56978C14.2588 6.6592 14.0023 6.97456 14.0023 7.34987C14.0023 7.79472 14.3627 8.15534 14.8072 8.15534C15.2518 8.15534 15.6122 7.79472 15.6122 7.34987C15.6122 7.05174 15.4503 6.79143 15.2097 6.65217V3.6246C15.2097 1.84521 13.4992 0 11.0844 0Z" fill="#034147"/>
<path fill-rule="evenodd" clip-rule="evenodd" d="M14.22 4.62243L8.16593 4.10643V4.83743H14.22V4.62243ZM3.72626 3.72803L6.75331 3.98603V4.83743H5.64339L4.63438 22.8905C6.07118 22.7177 7.37387 22.5562 8.5941 22.4049L8.596 22.4046L8.59678 22.4045C13.6825 21.7738 17.3365 21.3207 23.3012 20.9742C15.4898 21.7176 11.1165 22.4204 3.32266 23.9999C2.40994 23.2842 1.8442 22.9418 0.699219 22.487L3.72626 3.72803ZM3.42356 23.193L4.43258 4.13145H4.02897L1.40553 21.9828L1.91004 22.1845L3.01995 16.234L2.61635 22.6888L3.42356 23.193Z" fill="#034147"/>
</svg>
