<svg width="58" height="24" viewBox="0 0 58 24" fill="none" xmlns="http://www.w3.org/2000/svg">
    <rect width="58" height="24" rx="12" fill="#F9F2E9" />
    <path
        d="M8.804 16V7.42H12.38C13.276 7.42 13.956 7.696 14.42 8.248C14.804 8.696 14.996 9.24 14.996 9.88C14.996 10.68 14.764 11.3 14.3 11.74C13.836 12.18 13.144 12.4 12.224 12.4H9.884V16H8.804ZM9.884 8.356V11.524H12.14C12.732 11.524 13.176 11.384 13.472 11.104C13.776 10.824 13.928 10.432 13.928 9.928C13.928 9.416 13.776 9.028 13.472 8.764C13.176 8.492 12.752 8.356 12.2 8.356H9.884ZM18.3667 16.168C17.4467 16.168 16.7147 15.86 16.1707 15.244C15.6347 14.62 15.3667 13.84 15.3667 12.904C15.3667 11.984 15.6387 11.212 16.1827 10.588C16.7347 9.956 17.4427 9.64 18.3067 9.64C19.2187 9.64 19.9227 9.96 20.4187 10.6C20.9147 11.232 21.1627 12.076 21.1627 13.132H16.3627C16.4027 13.788 16.5947 14.324 16.9387 14.74C17.2907 15.148 17.7667 15.352 18.3667 15.352C19.2947 15.352 19.8667 14.928 20.0827 14.08H21.0307C20.8867 14.744 20.5827 15.26 20.1187 15.628C19.6547 15.988 19.0707 16.168 18.3667 16.168ZM19.6027 10.936C19.2907 10.584 18.8587 10.408 18.3067 10.408C17.7547 10.408 17.3147 10.592 16.9867 10.96C16.6667 11.328 16.4667 11.808 16.3867 12.4H20.1187C20.0867 11.776 19.9147 11.288 19.6027 10.936ZM23.0851 9.796V10.612H23.1091C23.5891 9.972 24.2451 9.652 25.0771 9.652C25.7331 9.652 26.2451 9.824 26.6131 10.168C26.9811 10.512 27.1651 11.004 27.1651 11.644V16H26.1931V11.728C26.1931 11.328 26.0691 11.02 25.8211 10.804C25.5731 10.58 25.2291 10.468 24.7891 10.468C24.2931 10.468 23.8851 10.628 23.5651 10.948C23.2451 11.268 23.0851 11.68 23.0851 12.184V16H22.1131V9.796H23.0851ZM30.853 16.18C30.005 16.18 29.333 15.888 28.837 15.304C28.349 14.712 28.105 13.916 28.105 12.916C28.105 11.908 28.361 11.112 28.873 10.528C29.385 9.944 30.037 9.652 30.829 9.652C31.669 9.652 32.317 9.992 32.773 10.672H32.797V7.42H33.769V16H32.797V15.244H32.773C32.285 15.868 31.645 16.18 30.853 16.18ZM30.889 15.364C31.553 15.364 32.045 15.144 32.365 14.704C32.693 14.264 32.857 13.672 32.857 12.928C32.857 12.192 32.681 11.6 32.329 11.152C31.985 10.704 31.501 10.48 30.877 10.48C30.309 10.48 29.869 10.708 29.557 11.164C29.253 11.612 29.101 12.2 29.101 12.928C29.101 13.656 29.253 14.244 29.557 14.692C29.869 15.14 30.313 15.364 30.889 15.364ZM35.0858 16V9.796H36.0578V16H35.0858ZM35.0858 8.62V7.42H36.0578V8.62H35.0858ZM38.3547 9.796V10.612H38.3787C38.8587 9.972 39.5147 9.652 40.3467 9.652C41.0027 9.652 41.5147 9.824 41.8827 10.168C42.2507 10.512 42.4347 11.004 42.4347 11.644V16H41.4627V11.728C41.4627 11.328 41.3387 11.02 41.0907 10.804C40.8427 10.58 40.4987 10.468 40.0587 10.468C39.5627 10.468 39.1547 10.628 38.8347 10.948C38.5147 11.268 38.3547 11.68 38.3547 12.184V16H37.3827V9.796H38.3547ZM46.1945 18.064C45.4025 18.064 44.7785 17.912 44.3225 17.608C43.8745 17.312 43.6225 16.892 43.5665 16.348H44.4665C44.5545 16.98 45.1225 17.296 46.1705 17.296C47.3545 17.296 47.9465 16.764 47.9465 15.7V14.824H47.9225C47.6745 15.144 47.4105 15.384 47.1305 15.544C46.8505 15.704 46.5025 15.784 46.0865 15.784C45.2865 15.784 44.6345 15.496 44.1305 14.92C43.6265 14.344 43.3745 13.608 43.3745 12.712C43.3745 11.776 43.6265 11.032 44.1305 10.48C44.6425 9.928 45.2745 9.652 46.0265 9.652C46.8425 9.652 47.4745 9.964 47.9225 10.588H47.9465V9.796H48.9185V15.664C48.9185 16.456 48.6745 17.052 48.1865 17.452C47.7065 17.86 47.0425 18.064 46.1945 18.064ZM46.1345 14.968C47.3905 14.968 48.0185 14.2 48.0185 12.664C48.0185 11.2 47.3865 10.468 46.1225 10.468C45.5545 10.468 45.1185 10.672 44.8145 11.08C44.5185 11.488 44.3705 12.036 44.3705 12.724C44.3705 13.412 44.5225 13.96 44.8265 14.368C45.1305 14.768 45.5665 14.968 46.1345 14.968Z"
        fill="#D76514" />
</svg>