<svg width="66" height="24" viewBox="0 0 66 24" fill="none" xmlns="http://www.w3.org/2000/svg">
    <rect width="66" height="24" rx="12" fill="#F0F0F0" />
    <path
        d="M8.804 16V7.42H12.812C13.564 7.42 14.172 7.636 14.636 8.068C15.108 8.5 15.344 9.068 15.344 9.772C15.344 10.868 14.848 11.576 13.856 11.896V11.932C14.28 12.084 14.58 12.324 14.756 12.652C14.94 12.972 15.052 13.46 15.092 14.116C15.172 15.212 15.304 15.824 15.488 15.952V16H14.324C14.236 15.928 14.172 15.776 14.132 15.544C14.1 15.312 14.06 14.824 14.012 14.08C13.972 13.456 13.816 13.016 13.544 12.76C13.28 12.504 12.856 12.376 12.272 12.376H9.884V16H8.804ZM9.884 8.356V11.5H12.428C13.02 11.5 13.468 11.364 13.772 11.092C14.076 10.812 14.228 10.424 14.228 9.928C14.228 9.392 14.092 8.996 13.82 8.74C13.548 8.484 13.104 8.356 12.488 8.356H9.884ZM19.105 16.168C18.185 16.168 17.453 15.86 16.909 15.244C16.373 14.62 16.105 13.84 16.105 12.904C16.105 11.984 16.377 11.212 16.921 10.588C17.473 9.956 18.181 9.64 19.045 9.64C19.957 9.64 20.661 9.96 21.157 10.6C21.653 11.232 21.901 12.076 21.901 13.132H17.101C17.141 13.788 17.333 14.324 17.677 14.74C18.029 15.148 18.505 15.352 19.105 15.352C20.033 15.352 20.605 14.928 20.821 14.08H21.769C21.625 14.744 21.321 15.26 20.857 15.628C20.393 15.988 19.809 16.168 19.105 16.168ZM20.341 10.936C20.029 10.584 19.597 10.408 19.045 10.408C18.493 10.408 18.053 10.592 17.725 10.96C17.405 11.328 17.205 11.808 17.125 12.4H20.857C20.825 11.776 20.653 11.288 20.341 10.936ZM22.3382 10.588V9.796H23.1902V8.8C23.1902 8.288 23.3302 7.92 23.6102 7.696C23.8902 7.464 24.2982 7.348 24.8342 7.348C24.9862 7.348 25.1502 7.356 25.3262 7.372V8.2C25.2142 8.192 25.1102 8.188 25.0142 8.188C24.7022 8.188 24.4822 8.236 24.3542 8.332C24.2262 8.428 24.1622 8.6 24.1622 8.848V9.796H25.3142V10.588H24.1622V16H23.1902V10.588H22.3382ZM31.1816 16H30.2096V15.148H30.1856C29.6976 15.812 29.0736 16.144 28.3136 16.144C27.6736 16.144 27.1656 15.964 26.7896 15.604C26.4136 15.236 26.2256 14.732 26.2256 14.092V9.796H27.1976V14.068C27.1976 14.468 27.3176 14.78 27.5576 15.004C27.8056 15.228 28.1496 15.34 28.5896 15.34C29.0776 15.34 29.4696 15.176 29.7656 14.848C30.0616 14.52 30.2096 14.108 30.2096 13.612V9.796H31.1816V16ZM33.4679 9.796V10.612H33.4919C33.9719 9.972 34.6279 9.652 35.4599 9.652C36.1159 9.652 36.6279 9.824 36.9959 10.168C37.3639 10.512 37.5479 11.004 37.5479 11.644V16H36.5759V11.728C36.5759 11.328 36.4519 11.02 36.2039 10.804C35.9559 10.58 35.6119 10.468 35.1719 10.468C34.6759 10.468 34.2679 10.628 33.9479 10.948C33.6279 11.268 33.4679 11.68 33.4679 12.184V16H32.4959V9.796H33.4679ZM41.2358 16.18C40.3878 16.18 39.7158 15.888 39.2198 15.304C38.7318 14.712 38.4878 13.916 38.4878 12.916C38.4878 11.908 38.7438 11.112 39.2558 10.528C39.7678 9.944 40.4198 9.652 41.2118 9.652C42.0518 9.652 42.6998 9.992 43.1558 10.672H43.1798V7.42H44.1518V16H43.1798V15.244H43.1558C42.6678 15.868 42.0278 16.18 41.2358 16.18ZM41.2718 15.364C41.9358 15.364 42.4278 15.144 42.7478 14.704C43.0758 14.264 43.2398 13.672 43.2398 12.928C43.2398 12.192 43.0638 11.6 42.7118 11.152C42.3678 10.704 41.8838 10.48 41.2598 10.48C40.6918 10.48 40.2518 10.708 39.9398 11.164C39.6358 11.612 39.4838 12.2 39.4838 12.928C39.4838 13.656 39.6358 14.244 39.9398 14.692C40.2518 15.14 40.6958 15.364 41.2718 15.364ZM48.1206 16.168C47.2006 16.168 46.4686 15.86 45.9246 15.244C45.3886 14.62 45.1206 13.84 45.1206 12.904C45.1206 11.984 45.3926 11.212 45.9366 10.588C46.4886 9.956 47.1966 9.64 48.0606 9.64C48.9726 9.64 49.6766 9.96 50.1726 10.6C50.6686 11.232 50.9166 12.076 50.9166 13.132H46.1166C46.1566 13.788 46.3486 14.324 46.6926 14.74C47.0446 15.148 47.5206 15.352 48.1206 15.352C49.0486 15.352 49.6206 14.928 49.8366 14.08H50.7846C50.6406 14.744 50.3366 15.26 49.8726 15.628C49.4086 15.988 48.8246 16.168 48.1206 16.168ZM49.3566 10.936C49.0446 10.584 48.6126 10.408 48.0606 10.408C47.5086 10.408 47.0686 10.592 46.7406 10.96C46.4206 11.328 46.2206 11.808 46.1406 12.4H49.8726C49.8406 11.776 49.6686 11.288 49.3566 10.936ZM54.267 16.18C53.419 16.18 52.747 15.888 52.251 15.304C51.763 14.712 51.519 13.916 51.519 12.916C51.519 11.908 51.775 11.112 52.287 10.528C52.799 9.944 53.451 9.652 54.243 9.652C55.083 9.652 55.731 9.992 56.187 10.672H56.211V7.42H57.183V16H56.211V15.244H56.187C55.699 15.868 55.059 16.18 54.267 16.18ZM54.303 15.364C54.967 15.364 55.459 15.144 55.779 14.704C56.107 14.264 56.271 13.672 56.271 12.928C56.271 12.192 56.095 11.6 55.743 11.152C55.399 10.704 54.915 10.48 54.291 10.48C53.723 10.48 53.283 10.708 52.971 11.164C52.667 11.612 52.515 12.2 52.515 12.928C52.515 13.656 52.667 14.244 52.971 14.692C53.283 15.14 53.727 15.364 54.303 15.364Z"
        fill="#2A2F2F" />
</svg>