<svg width="15" height="17" viewBox="0 0 15 17" fill="none" xmlns="http://www.w3.org/2000/svg">
    <path
        d="M7.7257 17C7.346 17 7.03221 16.7178 6.98255 16.3518L6.9757 16.25L6.9757 1.25C6.9757 0.835787 7.31149 0.5 7.7257 0.5C8.1054 0.5 8.41919 0.782154 8.46885 1.14823L8.4757 1.25L8.4757 16.25C8.4757 16.6642 8.13991 17 7.7257 17Z"
        fill="#22BB5F" />
    <path
        d="M2.23277 7.82899C1.94051 8.12251 1.46563 8.12354 1.17211 7.83127C0.905272 7.56558 0.880169 7.14897 1.09739 6.85489L1.16983 6.77062L7.19383 0.720617C7.46031 0.452981 7.87843 0.428634 8.1725 0.647588L8.25672 0.720574L14.2817 6.77057C14.574 7.06407 14.573 7.53895 14.2795 7.83123C14.0127 8.09695 13.596 8.12029 13.3028 7.90183L13.2189 7.82904L7.725 2.313L2.23277 7.82899Z"
        fill="#22BB5F" />
</svg>