<svg width="30" height="24" viewBox="0 0 30 28" fill="none" xmlns="http://www.w3.org/2000/svg">
    <path fill-rule="evenodd" clip-rule="evenodd"
        d="M8.99283 17.1189L7.96904 12.9826L7.79122 12.213C7.77213 12.0474 7.78064 11.8793 7.81682 11.7156C7.86628 11.4918 7.96619 11.2819 8.10905 11.1018C8.25191 10.9217 8.43403 10.776 8.64176 10.6755C8.84949 10.5751 9.07745 10.5226 9.30857 10.5219H18.9737C19.2052 10.5214 19.4337 10.5732 19.642 10.6733C19.8504 10.7734 20.033 10.9192 20.1761 11.0996C20.3192 11.28 20.419 11.4903 20.468 11.7147C20.517 11.939 20.5138 12.1714 20.4589 12.3943L19.2895 17.1189C19.2103 17.45 19.0204 17.7448 18.7507 17.9553C18.4811 18.1658 18.1475 18.2797 17.8043 18.2784H10.4822C10.4769 18.2783 10.4716 18.2782 10.4663 18.2782H10.4484C10.1156 18.2731 9.79344 18.1598 9.53155 17.9553C9.2619 17.7448 9.07203 17.45 8.99283 17.1189ZM8.03812 18.4533C7.82799 18.1515 7.67499 17.8114 7.58954 17.4494L6.62554 13.5642C6.59869 13.5096 6.57869 13.4516 6.56629 13.3913L5.51967 8.88697C5.42302 8.47665 5.18878 8.11099 4.85526 7.84982C4.52174 7.58865 4.10869 7.44744 3.6837 7.44929H2.73063C2.53679 7.44929 2.35089 7.37295 2.21383 7.23705C2.07676 7.10116 1.99976 6.91684 1.99976 6.72466C1.99976 6.53247 2.07676 6.34816 2.21383 6.21226C2.35089 6.07637 2.53679 6.00002 2.73063 6.00002H3.6837C4.43902 5.9974 5.17292 6.2488 5.76551 6.71314C6.35811 7.17748 6.77438 7.82733 6.94634 8.55654L7.25582 9.89593C7.48348 9.67966 7.74486 9.49987 8.03069 9.36392C8.44031 9.1691 8.88935 9.06946 9.34365 9.07258H18.9913C19.4456 9.06946 19.8946 9.1691 20.3042 9.36392C20.7138 9.55874 21.0732 9.84361 21.3551 10.1969C21.637 10.5501 21.8339 10.9624 21.9309 11.4025C22.0279 11.8425 22.0224 12.2987 21.9148 12.7363L20.7454 17.461C20.5875 18.1137 20.2102 18.6937 19.6757 19.1056C19.1412 19.5176 18.4812 19.7369 17.8043 19.7276H10.4663C10.4605 19.7276 10.4548 19.7275 10.449 19.7275H8.91683C8.70128 19.7275 8.49455 19.8124 8.34214 19.9635C8.18972 20.1146 8.10409 20.3196 8.10409 20.5333C8.10409 20.747 8.18972 20.9519 8.34214 21.1031C8.49455 21.2542 8.70128 21.3391 8.91683 21.3391H18.658C18.7332 21.3391 18.8073 21.3506 18.8777 21.3726C19.1087 21.3942 19.3363 21.4499 19.553 21.5388C19.9803 21.7143 20.3456 22.0116 20.6026 22.3929C20.8596 22.7742 20.9968 23.2225 20.9968 23.6812C20.9968 24.2962 20.7504 24.886 20.3117 25.3208C19.8731 25.7557 19.2782 26 18.6579 26C18.1954 26 17.7432 25.864 17.3586 25.6092C16.974 25.3544 16.6742 24.9923 16.4972 24.5685C16.3201 24.1448 16.2738 23.6786 16.3641 23.2288C16.3945 23.0771 16.44 22.9297 16.4994 22.7883H12.7359C12.8543 23.0699 12.9162 23.3732 12.9162 23.6812C12.9162 24.2962 12.6698 24.886 12.2311 25.3208C11.7925 25.7557 11.1976 26 10.5774 26C10.1148 26 9.66259 25.864 9.27798 25.6092C8.89336 25.3544 8.59359 24.9923 8.41657 24.5685C8.23955 24.1448 8.19324 23.6786 8.28348 23.2288C8.31751 23.0592 8.37038 22.8948 8.44058 22.7384C8.01502 22.648 7.62099 22.4377 7.30852 22.1278C6.88197 21.7049 6.64233 21.1313 6.64233 20.5333C6.64233 19.9352 6.88197 19.3616 7.30852 18.9387C7.51964 18.7294 7.76798 18.5655 8.03812 18.4533ZM10.5774 22.7884C10.4016 22.7884 10.2297 22.8401 10.0836 22.9369C9.93744 23.0337 9.82352 23.1714 9.75626 23.3324C9.68899 23.4934 9.67139 23.6705 9.70568 23.8415C9.73997 24.0124 9.82462 24.1694 9.94891 24.2926C10.0732 24.4159 10.2316 24.4998 10.404 24.5338C10.5764 24.5678 10.7551 24.5503 10.9175 24.4837C11.0799 24.417 11.2187 24.304 11.3163 24.1591C11.414 24.0142 11.4661 23.8438 11.4661 23.6696C11.4661 23.4359 11.3725 23.2117 11.2058 23.0465C11.0391 22.8812 10.8131 22.7884 10.5774 22.7884ZM18.6579 22.7884C18.4824 22.7896 18.3112 22.8422 18.1658 22.9397C18.0204 23.0372 17.9074 23.1753 17.841 23.3364C17.7747 23.4975 17.7579 23.6745 17.7928 23.845C17.8278 24.0155 17.9129 24.172 18.0374 24.2947C18.1619 24.4173 18.3203 24.5007 18.4925 24.5342C18.6648 24.5677 18.8432 24.5499 19.0052 24.4831C19.1673 24.4162 19.3058 24.3033 19.4032 24.1585C19.5006 24.0137 19.5525 23.8436 19.5525 23.6696C19.5525 23.5534 19.5294 23.4383 19.4843 23.331C19.4393 23.2237 19.3733 23.1263 19.2902 23.0444C19.207 22.9625 19.1084 22.8978 18.9999 22.8538C18.8914 22.8099 18.7752 22.7876 18.6579 22.7884Z"
        fill="#1F2323" />
    <rect x="13.9998" y="0.000244141" width="16" height="16" rx="8" fill="#E72529" />
    <path d="M24.3171 3.89087V4.64771L21.5681 11.0002H20.0837L22.8328 4.9895H19.2927V3.89087H24.3171Z" fill="white" />
</svg>