<svg width="20" height="20" viewBox="0 0 20 20" fill="none" xmlns="http://www.w3.org/2000/svg">
    <path fill-rule="evenodd" clip-rule="evenodd"
        d="M6.99283 11.1189L5.96904 6.98263L5.79122 6.21304C5.77213 6.04738 5.78064 5.87931 5.81682 5.71561C5.86628 5.49178 5.96619 5.28195 6.10905 5.10183C6.25191 4.9217 6.43403 4.77597 6.64176 4.67553C6.84949 4.57509 7.07745 4.52255 7.30857 4.52185H16.9737C17.2052 4.52144 17.4337 4.57324 17.642 4.67334C17.8504 4.77344 18.033 4.91921 18.1761 5.09962C18.3192 5.28002 18.419 5.49034 18.468 5.71465C18.517 5.93896 18.5138 6.17138 18.4589 6.39432L17.2895 11.1189C17.2103 11.45 17.0204 11.7448 16.7507 11.9553C16.4811 12.1658 16.1475 12.2797 15.8043 12.2784H8.48217C8.47688 12.2783 8.47159 12.2782 8.46629 12.2782H8.44837C8.11562 12.2731 7.79344 12.1598 7.53155 11.9553C7.2619 11.7448 7.07203 11.45 6.99283 11.1189ZM6.03812 12.4533C5.82799 12.1515 5.67499 11.8114 5.58954 11.4494L4.62554 7.56417C4.59869 7.50962 4.57869 7.45159 4.56629 7.39132L3.51967 2.88697C3.42302 2.47665 3.18878 2.11099 2.85526 1.84982C2.52174 1.58865 2.10869 1.44744 1.6837 1.44929H0.730635C0.536794 1.44929 0.350892 1.37295 0.213825 1.23705C0.076759 1.10116 -0.000244141 0.916843 -0.000244141 0.724657C-0.000244141 0.532471 0.076759 0.348157 0.213825 0.212261C0.350892 0.0763657 0.536794 2.02128e-05 0.730635 2.02128e-05H1.6837C2.43902 -0.00259585 3.17292 0.248798 3.76551 0.713141C4.35811 1.17748 4.77438 1.82733 4.94634 2.55654L5.25582 3.89593C5.48348 3.67966 5.74486 3.49987 6.03069 3.36392C6.44031 3.1691 6.88935 3.06946 7.34365 3.07258H16.9913C17.4456 3.06946 17.8946 3.1691 18.3042 3.36392C18.7138 3.55874 19.0732 3.84361 19.3551 4.19686C19.637 4.55011 19.8339 4.96244 19.9309 5.40249C20.0279 5.84254 20.0224 6.29873 19.9148 6.73635L18.7454 11.461C18.5875 12.1137 18.2102 12.6937 17.6757 13.1056C17.1412 13.5176 16.4812 13.7369 15.8043 13.7276H8.46628C8.46053 13.7276 8.45478 13.7275 8.44904 13.7275H6.91683C6.70128 13.7275 6.49455 13.8124 6.34214 13.9635C6.18972 14.1146 6.10409 14.3196 6.10409 14.5333C6.10409 14.747 6.18972 14.9519 6.34214 15.1031C6.49455 15.2542 6.70128 15.3391 6.91683 15.3391H16.658C16.7332 15.3391 16.8073 15.3506 16.8777 15.3726C17.1087 15.3942 17.3363 15.4499 17.553 15.5388C17.9803 15.7143 18.3456 16.0116 18.6026 16.3929C18.8596 16.7742 18.9968 17.2225 18.9968 17.6812C18.9968 18.2962 18.7504 18.886 18.3117 19.3208C17.8731 19.7557 17.2782 20 16.6579 20C16.1954 20 15.7432 19.864 15.3586 19.6092C14.974 19.3544 14.6742 18.9923 14.4972 18.5685C14.3201 18.1448 14.2738 17.6786 14.3641 17.2288C14.3945 17.0771 14.44 16.9297 14.4994 16.7883H10.7359C10.8543 17.0699 10.9162 17.3732 10.9162 17.6812C10.9162 18.2962 10.6698 18.886 10.2311 19.3208C9.79253 19.7557 9.19764 20 8.57735 20C8.11478 20 7.66259 19.864 7.27798 19.6092C6.89336 19.3544 6.59359 18.9923 6.41657 18.5685C6.23955 18.1448 6.19324 17.6786 6.28348 17.2288C6.31751 17.0592 6.37038 16.8948 6.44058 16.7384C6.01502 16.648 5.62099 16.4377 5.30852 16.1278C4.88197 15.7049 4.64233 15.1313 4.64233 14.5333C4.64233 13.9352 4.88197 13.3616 5.30852 12.9387C5.51964 12.7294 5.76798 12.5655 6.03812 12.4533ZM8.57735 16.7884C8.40157 16.7884 8.22974 16.8401 8.08359 16.9369C7.93744 17.0337 7.82352 17.1714 7.75626 17.3324C7.68899 17.4934 7.67139 17.6705 7.70568 17.8415C7.73997 18.0124 7.82462 18.1694 7.94891 18.2926C8.0732 18.4159 8.23157 18.4998 8.40397 18.5338C8.57637 18.5678 8.75506 18.5503 8.91746 18.4837C9.07986 18.417 9.21866 18.304 9.31632 18.1591C9.41398 18.0142 9.4661 17.8438 9.4661 17.6696C9.4661 17.4359 9.37247 17.2117 9.20579 17.0465C9.03912 16.8812 8.81306 16.7884 8.57735 16.7884ZM16.6579 16.7884C16.4824 16.7896 16.3112 16.8422 16.1658 16.9397C16.0204 17.0372 15.9074 17.1753 15.841 17.3364C15.7747 17.4975 15.7579 17.6745 15.7928 17.845C15.8278 18.0155 15.9129 18.172 16.0374 18.2947C16.1619 18.4173 16.3203 18.5007 16.4925 18.5342C16.6648 18.5677 16.8432 18.5499 17.0052 18.4831C17.1673 18.4162 17.3058 18.3033 17.4032 18.1585C17.5006 18.0137 17.5525 17.8436 17.5525 17.6696C17.5525 17.5534 17.5294 17.4383 17.4843 17.331C17.4393 17.2237 17.3733 17.1263 17.2902 17.0444C17.207 16.9625 17.1084 16.8978 16.9999 16.8538C16.8914 16.8099 16.7752 16.7876 16.6579 16.7884Z"
        fill="#1F2323" />
</svg>