<svg width="100" height="100" viewBox="0 0 100 100" fill="none" xmlns="http://www.w3.org/2000/svg">
<circle cx="50.0004" cy="49.727" r="49.727" fill="#E2F5F7"/>
<g clip-path="url(#clip0_3566_30071)">
<path d="M48.8172 38.0304L44.2212 35.8923L35.4971 42.6345L35.7611 48.1219L48.8172 38.0304Z" fill="#F58B3F"/>
<path d="M56.9773 41.8267L52.4438 39.7177L35.9691 52.4517L36.2287 57.8632L56.9773 41.8267Z" fill="#055961"/>
<path d="M35.2901 38.3052L40.5946 34.2051L34.9668 31.5869L35.2901 38.3052Z" fill="#055961"/>
<path d="M65.1378 45.6231L60.6043 43.514L36.4371 62.193L36.6976 67.6049L65.1378 45.6231Z" fill="#F58B3F"/>
<path d="M73.0481 49.3031L68.7649 47.3104L36.9061 71.9348L37.1353 76.7123L73.0481 49.3031Z" fill="#055961"/>
<path d="M56.0538 33.6762L55.2101 35.4896C55.0983 35.73 55.0865 36.0051 55.1774 36.2542C55.2684 36.5034 55.4546 36.7062 55.695 36.8181C55.9355 36.9299 56.2105 36.9417 56.4597 36.8508C56.7088 36.7599 56.9116 36.5737 57.0235 36.3332L57.8671 34.5198C57.979 34.2794 57.9908 34.0043 57.8998 33.7552C57.8089 33.506 57.6227 33.3032 57.3823 33.1913C57.1418 33.0795 56.8667 33.0677 56.6176 33.1586C56.3685 33.2496 56.1656 33.4357 56.0538 33.6762Z" fill="#055961"/>
<path d="M62.4541 25.2199L62.4441 22.3113L60.2128 24.1772L57.5283 23.3948L58.477 26.0972L56.8283 28.522L59.6462 28.3253L61.3109 30.6075L62.1037 27.7844L64.7818 26.7693L62.4541 25.2199Z" fill="#ED9922"/>
<path d="M85.6585 36.4202L83.985 37.8199L81.9717 37.2329L82.6834 39.2592L81.4467 41.0783L83.56 40.931L84.8086 42.6424L85.4034 40.5246L87.4118 39.7638L85.6659 38.6019L85.6585 36.4202Z" fill="#055961"/>
<path d="M74.5168 39.5871C74.9066 39.8333 75.3489 39.9841 75.8079 40.0273C76.2669 40.0705 76.7296 40.0048 77.1585 39.8356C77.3984 39.7321 77.5883 39.5388 77.6875 39.2971C77.7867 39.0554 77.7873 38.7844 77.6893 38.5422C77.5912 38.3 77.4023 38.1058 77.1629 38.0012C76.9235 37.8965 76.6526 37.8897 76.4083 37.9822C76.072 38.117 75.9149 38.0494 75.4198 37.8025C75.0303 37.5558 74.5881 37.4046 74.1291 37.3613C73.6701 37.3179 73.2073 37.3837 72.7785 37.5531C72.3524 37.7369 71.9705 38.0098 71.6585 38.3533C71.3465 38.6968 71.1116 39.1031 70.9696 39.5449C70.7377 40.0812 70.6189 40.3248 70.2442 40.4758C69.9111 40.611 69.7509 40.5452 69.2593 40.2956C68.8696 40.0496 68.4275 39.8988 67.9688 39.8553C67.51 39.8118 67.0474 39.8769 66.6185 40.0453C66.4939 40.0925 66.38 40.1641 66.2834 40.2559C66.1869 40.3477 66.1096 40.4579 66.0563 40.58C66.0029 40.702 65.9745 40.8335 65.9726 40.9668C65.9708 41.1 65.9956 41.2322 66.0456 41.3557C66.0956 41.4792 66.1698 41.5915 66.2637 41.6859C66.3577 41.7803 66.4696 41.8551 66.5929 41.9056C66.7161 41.9562 66.8483 41.9817 66.9815 41.9805C67.1147 41.9793 67.2464 41.9515 67.3687 41.8987C67.7027 41.764 67.8607 41.832 68.3536 42.0789C68.7426 42.3265 69.1848 42.4783 69.6439 42.5218C70.103 42.5653 70.5658 42.4993 70.9944 42.3292C71.4204 42.1455 71.8022 41.8729 72.1141 41.5295C72.426 41.1861 72.6609 40.78 72.803 40.3383C73.0348 39.8021 73.1528 39.5581 73.5274 39.407C73.8637 39.2723 74.0212 39.3389 74.5168 39.5871Z" fill="#E72529"/>
<path d="M32.4857 18.3005L34.5991 18.1531L35.8477 19.8645L36.4425 17.7468L38.4508 16.9859L36.705 15.8241L36.6976 13.6424L35.024 15.0421L33.0107 14.4551L33.7224 16.4814L32.4857 18.3005Z" fill="#22BB5F"/>
<path d="M42.2356 22.3642C41.727 22.1464 41.5736 22.0684 41.4614 21.7239C41.3748 21.4774 41.1951 21.2746 40.9608 21.1589C40.7266 21.0432 40.4563 21.0238 40.2079 21.1048C39.9595 21.1858 39.7527 21.3609 39.6317 21.5925C39.5107 21.824 39.4851 22.0938 39.5605 22.344C39.7072 22.7811 39.955 23.1774 40.2837 23.5007C40.6124 23.824 41.0127 24.0651 41.4522 24.2045C41.9644 24.4241 42.1138 24.5013 42.2264 24.8448C42.3522 25.2287 42.2415 25.4761 41.9806 25.9989C41.7344 26.392 41.575 26.8333 41.5133 27.2931C41.4516 27.7528 41.4889 28.2205 41.6228 28.6647C41.7688 29.1021 42.0165 29.4986 42.3455 29.8217C42.6745 30.1448 43.0754 30.3853 43.5153 30.5234C44.0217 30.7414 44.1755 30.8184 44.2876 31.1607C44.3743 31.4072 44.5539 31.61 44.7882 31.7257C45.0225 31.8414 45.2927 31.8608 45.5411 31.7798C45.7895 31.6988 45.9964 31.5237 46.1174 31.2921C46.2384 31.0606 46.2639 30.7908 46.1885 30.5406C46.0412 30.104 45.793 29.7082 45.4642 29.3852C45.1354 29.0623 44.7352 28.8214 44.296 28.6819C43.7893 28.4671 43.6349 28.3865 43.5237 28.0447C43.3979 27.6608 43.5077 27.413 43.7685 26.8902C44.0149 26.497 44.1744 26.0555 44.2362 25.5956C44.298 25.1357 44.2607 24.6678 44.1268 24.2235C43.9803 23.7865 43.7326 23.3904 43.4039 23.0673C43.0753 22.7442 42.675 22.5033 42.2356 22.3642ZM62.743 37.5683L65.4 36.5986C65.6447 36.5044 65.8426 36.3179 65.9512 36.0792C66.0597 35.8405 66.0701 35.5687 65.9802 35.3224C65.8903 35.0761 65.7073 34.875 65.4705 34.7623C65.2338 34.6496 64.9622 34.6345 64.7144 34.7201L62.0574 35.6898C61.9319 35.7332 61.8163 35.8011 61.7173 35.8896C61.6183 35.9781 61.5379 36.0854 61.4809 36.2053C61.4238 36.3252 61.3912 36.4553 61.385 36.5879C61.3787 36.7206 61.3989 36.8531 61.4445 36.9779C61.49 37.1026 61.5599 37.217 61.6501 37.3145C61.7404 37.4119 61.8491 37.4904 61.9699 37.5453C62.0908 37.6003 62.2214 37.6306 62.3542 37.6346C62.4869 37.6385 62.6191 37.616 62.743 37.5683ZM73.529 29.9975L70.872 30.9672C70.7465 31.0106 70.6309 31.0785 70.5319 31.167C70.4329 31.2555 70.3525 31.3629 70.2955 31.4828C70.2384 31.6027 70.2058 31.7327 70.1996 31.8654C70.1933 31.998 70.2135 32.1305 70.2591 32.2553C70.3046 32.38 70.3745 32.4944 70.4647 32.5919C70.5549 32.6893 70.6637 32.7678 70.7845 32.8227C70.9054 32.8777 71.036 32.908 71.1688 32.912C71.3015 32.9159 71.4337 32.8934 71.5576 32.8457L74.2146 31.876C74.3401 31.8326 74.4557 31.7647 74.5547 31.6762C74.6537 31.5877 74.734 31.4803 74.7911 31.3604C74.8481 31.2405 74.8807 31.1105 74.887 30.9778C74.8932 30.8452 74.873 30.7126 74.8275 30.5879C74.782 30.4632 74.712 30.3488 74.6218 30.2513C74.5316 30.1539 74.4229 30.0754 74.302 30.0205C74.1811 29.9655 74.0505 29.9352 73.9178 29.9312C73.7851 29.9273 73.6529 29.9498 73.529 29.9975ZM51.0982 32.474C51.2775 32.5574 51.4775 32.5857 51.6729 32.5554C51.8683 32.5252 52.0504 32.4376 52.1961 32.3039C52.3417 32.1701 52.4445 31.9962 52.4913 31.8041C52.5382 31.612 52.527 31.4103 52.4592 31.2245L51.4895 28.5675C51.3953 28.3228 51.2088 28.1249 50.9701 28.0163C50.7314 27.9078 50.4597 27.8974 50.2133 27.9873C49.967 28.0772 49.7659 28.2602 49.6532 28.497C49.5406 28.7337 49.5254 29.0053 49.611 29.2531L50.5807 31.9101C50.6716 32.1593 50.8578 32.3621 51.0982 32.474ZM48.5151 22.1258C48.6093 22.3705 48.7958 22.5684 49.0345 22.677C49.2732 22.7855 49.545 22.7959 49.7913 22.706C50.0376 22.6161 50.2387 22.4331 50.3514 22.1963C50.4641 21.9596 50.4792 21.688 50.3936 21.4402L49.4239 18.7832C49.3297 18.5385 49.1432 18.3405 48.9045 18.232C48.6658 18.1235 48.3941 18.113 48.1477 18.2029C47.9014 18.2928 47.7003 18.4759 47.5876 18.7126C47.475 18.9494 47.4598 19.221 47.5454 19.4688L48.5151 22.1258Z" fill="#00D6D9"/>
</g>
<defs>
<clipPath id="clip0_3566_30071">
<rect width="64" height="64" fill="white" transform="translate(34.2734 7) rotate(24.949)"/>
</clipPath>
</defs>
</svg>
