<svg width="16" height="22" viewBox="0 0 16 22" fill="none" xmlns="http://www.w3.org/2000/svg">
    <path fill-rule="evenodd" clip-rule="evenodd"
        d="M3.5 14.75C3.5 14.3358 3.83579 14 4.25 14H11.75C12.1642 14 12.5 14.3358 12.5 14.75V20.75C12.5 21.1642 12.1642 21.5 11.75 21.5H4.25C3.83579 21.5 3.5 21.1642 3.5 20.75V14.75ZM5 15.5V20H11V15.5H5Z"
        fill="#545E5E" />
    <path fill-rule="evenodd" clip-rule="evenodd"
        d="M8 14C8.41421 14 8.75 14.3358 8.75 14.75V17C8.75 17.4142 8.41421 17.75 8 17.75C7.58579 17.75 7.25 17.4142 7.25 17V14.75C7.25 14.3358 7.58579 14 8 14Z"
        fill="#545E5E" />
    <path fill-rule="evenodd" clip-rule="evenodd"
        d="M8 11.75C6.4087 11.75 4.88258 12.3821 3.75736 13.5074C2.63214 14.6326 2 16.1587 2 17.75C2 18.1642 1.66421 18.5 1.25 18.5C0.835786 18.5 0.5 18.1642 0.5 17.75C0.5 15.7609 1.29018 13.8532 2.6967 12.4467C4.10322 11.0402 6.01088 10.25 8 10.25C9.98912 10.25 11.8968 11.0402 13.3033 12.4467C14.7098 13.8532 15.5 15.7609 15.5 17.75C15.5 18.1642 15.1642 18.5 14.75 18.5C14.3358 18.5 14 18.1642 14 17.75C14 16.1587 13.3679 14.6326 12.2426 13.5074C11.1174 12.3821 9.5913 11.75 8 11.75Z"
        fill="#545E5E" />
    <path fill-rule="evenodd" clip-rule="evenodd"
        d="M8 2C6.34315 2 5 3.34315 5 5C5 6.65685 6.34315 8 8 8C9.65685 8 11 6.65685 11 5C11 3.34315 9.65685 2 8 2ZM3.5 5C3.5 2.51472 5.51472 0.5 8 0.5C10.4853 0.5 12.5 2.51472 12.5 5C12.5 7.48528 10.4853 9.5 8 9.5C5.51472 9.5 3.5 7.48528 3.5 5Z"
        fill="#545E5E" />
    <path d="M1.25 17.75H4.25" stroke="#545E5E" stroke-width="2" stroke-linecap="round" stroke-linejoin="round" />
    <path d="M14.75 17.75H11.75" stroke="#545E5E" stroke-width="2" stroke-linecap="round" stroke-linejoin="round" />
</svg>