<svg width="24" height="24" viewBox="0 0 24 24" fill="none" xmlns="http://www.w3.org/2000/svg">
<path fill-rule="evenodd" clip-rule="evenodd" d="M7.5 15.75C7.5 15.3358 7.83579 15 8.25 15H15.75C16.1642 15 16.5 15.3358 16.5 15.75V21.75C16.5 22.1642 16.1642 22.5 15.75 22.5H8.25C7.83579 22.5 7.5 22.1642 7.5 21.75V15.75ZM9 16.5V21H15V16.5H9Z" fill="#545E5E"/>
<path fill-rule="evenodd" clip-rule="evenodd" d="M12 15C12.4142 15 12.75 15.3358 12.75 15.75V18C12.75 18.4142 12.4142 18.75 12 18.75C11.5858 18.75 11.25 18.4142 11.25 18V15.75C11.25 15.3358 11.5858 15 12 15Z" fill="#545E5E"/>
<path fill-rule="evenodd" clip-rule="evenodd" d="M12 12.75C10.4087 12.75 8.88258 13.3821 7.75736 14.5074C6.63214 15.6326 6 17.1587 6 18.75C6 19.1642 5.66421 19.5 5.25 19.5C4.83579 19.5 4.5 19.1642 4.5 18.75C4.5 16.7609 5.29018 14.8532 6.6967 13.4467C8.10322 12.0402 10.0109 11.25 12 11.25C13.9891 11.25 15.8968 12.0402 17.3033 13.4467C18.7098 14.8532 19.5 16.7609 19.5 18.75C19.5 19.1642 19.1642 19.5 18.75 19.5C18.3358 19.5 18 19.1642 18 18.75C18 17.1587 17.3679 15.6326 16.2426 14.5074C15.1174 13.3821 13.5913 12.75 12 12.75Z" fill="#545E5E"/>
<path fill-rule="evenodd" clip-rule="evenodd" d="M12 3C10.3431 3 9 4.34315 9 6C9 7.65685 10.3431 9 12 9C13.6569 9 15 7.65685 15 6C15 4.34315 13.6569 3 12 3ZM7.5 6C7.5 3.51472 9.51472 1.5 12 1.5C14.4853 1.5 16.5 3.51472 16.5 6C16.5 8.48528 14.4853 10.5 12 10.5C9.51472 10.5 7.5 8.48528 7.5 6Z" fill="#545E5E"/>
<path d="M5.25 18.75H8.25" stroke="#545E5E" stroke-width="2" stroke-linecap="round" stroke-linejoin="round"/>
<path d="M18.75 18.75H15.75" stroke="#545E5E" stroke-width="2" stroke-linecap="round" stroke-linejoin="round"/>
</svg>
