<svg width="24" height="24" viewBox="0 0 24 24" fill="none" xmlns="http://www.w3.org/2000/svg">
<path fill-rule="evenodd" clip-rule="evenodd" d="M9 15H15C15.8284 15 16.5 15.6716 16.5 16.5V21C16.5 21.8284 15.8284 22.5 15 22.5H9C8.17157 22.5 7.5 21.8284 7.5 21V16.5C7.5 15.6716 8.17157 15 9 15ZM11.25 18V16.5H12.75V18C12.75 18.4142 12.4142 18.75 12 18.75C11.5858 18.75 11.25 18.4142 11.25 18Z" fill="#034147"/>
<path fill-rule="evenodd" clip-rule="evenodd" d="M12 12.75C10.4087 12.75 8.88258 13.3821 7.75736 14.5074C6.63214 15.6326 6 17.1587 6 18.75C6 19.1642 5.66421 19.5 5.25 19.5C4.83579 19.5 4.5 19.1642 4.5 18.75C4.5 16.7609 5.29018 14.8532 6.6967 13.4467C8.10322 12.0402 10.0109 11.25 12 11.25C13.9891 11.25 15.8968 12.0402 17.3033 13.4467C18.7098 14.8532 19.5 16.7609 19.5 18.75C19.5 19.1642 19.1642 19.5 18.75 19.5C18.3358 19.5 18 19.1642 18 18.75C18 17.1587 17.3679 15.6326 16.2426 14.5074C15.1174 13.3821 13.5913 12.75 12 12.75Z" fill="#034147"/>
<path d="M12 10.5C14.4853 10.5 16.5 8.48528 16.5 6C16.5 3.51472 14.4853 1.5 12 1.5C9.51472 1.5 7.5 3.51472 7.5 6C7.5 8.48528 9.51472 10.5 12 10.5Z" fill="#034147"/>
<path fill-rule="evenodd" clip-rule="evenodd" d="M4.5 18.75C4.5 18.3358 4.83579 18 5.25 18H8.25C8.66421 18 9 18.3358 9 18.75C9 19.1642 8.66421 19.5 8.25 19.5H5.25C4.83579 19.5 4.5 19.1642 4.5 18.75Z" fill="#034147"/>
<path fill-rule="evenodd" clip-rule="evenodd" d="M15 18.75C15 18.3358 15.3358 18 15.75 18H18.75C19.1642 18 19.5 18.3358 19.5 18.75C19.5 19.1642 19.1642 19.5 18.75 19.5H15.75C15.3358 19.5 15 19.1642 15 18.75Z" fill="#034147"/>
</svg>
