<svg width="24" height="24" viewBox="0 0 24 24" fill="none" xmlns="http://www.w3.org/2000/svg">
<path fill-rule="evenodd" clip-rule="evenodd" d="M7.2 22C4.9 22 3 20.2 3 18V14C3 11.8 4.9 10 7.2 10H16.8C19.1 10 21 11.8 21 14V18C21 20.2 19.1 22 16.8 22H7.2ZM15 16C15 17.7 13.7 19 12 19C10.3 19 9 17.7 9 16C9 14.3 10.3 13 12 13C13.7 13 15 14.3 15 16ZM13 16C13 15.4 12.6 15 12 15C11.4 15 11 15.4 11 16C11 16.6 11.4 17 12 17C12.6 17 13 16.6 13 16ZM7 18.5C7 18.7761 6.77614 19 6.5 19C6.22386 19 6 18.7761 6 18.5C6 18.2239 6.22386 18 6.5 18C6.77614 18 7 18.2239 7 18.5ZM6.5 14C6.77614 14 7 13.7761 7 13.5C7 13.2239 6.77614 13 6.5 13C6.22386 13 6 13.2239 6 13.5C6 13.7761 6.22386 14 6.5 14ZM18 13.5C18 13.7761 17.7761 14 17.5 14C17.2239 14 17 13.7761 17 13.5C17 13.2239 17.2239 13 17.5 13C17.7761 13 18 13.2239 18 13.5ZM17.5 19C17.7761 19 18 18.7761 18 18.5C18 18.2239 17.7761 18 17.5 18C17.2239 18 17 18.2239 17 18.5C17 18.7761 17.2239 19 17.5 19Z" fill="#034147"/>
<path d="M16.4001 3.09985L14.4001 2.09985C14.1001 1.89985 13.7001 1.99985 13.4001 2.09985C13.2001 2.29985 13.0001 2.69985 13.0001 2.99985V7.99985C13.0001 8.59984 13.4001 8.99985 14.0001 8.99985C14.6001 8.99985 15.0001 8.59984 15.0001 7.99985V4.59985L15.6001 4.89985C16.1001 5.09985 16.7001 4.89985 16.9001 4.49985C17.1001 3.99985 16.9001 3.39985 16.4001 3.09985ZM9.00008 2.99985V6.39985L8.40008 6.09984C8.00008 5.89984 7.40008 6.09984 7.10008 6.59984C6.90008 6.99985 7.10008 7.59984 7.60008 7.89985L9.60008 8.89984C9.70008 8.99984 9.80008 8.99985 10.0001 8.99985C10.2001 8.99985 10.4001 8.89984 10.5001 8.89984C10.8001 8.69984 11.0001 8.29985 11.0001 7.99985V2.99985C11.0001 2.39985 10.6001 1.99985 10.0001 1.99985C9.40008 1.99985 9.00008 2.39985 9.00008 2.99985Z" fill="#034147"/>
</svg>
