<svg width="18" height="21" viewBox="0 0 18 21" fill="none" xmlns="http://www.w3.org/2000/svg">
    <path
        d="M0 17C0 19.2 1.9 21 4.2 21H13.8C16.1 21 18 19.2 18 17V13C18 10.8 16.1 9 13.8 9H4.2C1.9 9 0 10.8 0 13V17ZM2 13C2 11.9 3 11 4.2 11H13.8C15 11 16 11.9 16 13V17C16 18.1 15 19 13.8 19H4.2C3 19 2 18.1 2 17V13Z"
        fill="#545E5E" />
    <path
        d="M9 18C10.7 18 12 16.7 12 15C12 13.3 10.7 12 9 12C7.3 12 6 13.3 6 15C6 16.7 7.3 18 9 18ZM9 14C9.6 14 10 14.4 10 15C10 15.6 9.6 16 9 16C8.4 16 8 15.6 8 15C8 14.4 8.4 14 9 14Z"
        fill="#545E5E" />
    <path
        d="M3.5 18C3.77614 18 4 17.7761 4 17.5C4 17.2239 3.77614 17 3.5 17C3.22386 17 3 17.2239 3 17.5C3 17.7761 3.22386 18 3.5 18Z"
        fill="#545E5E" />
    <path
        d="M3.5 13C3.77614 13 4 12.7761 4 12.5C4 12.2239 3.77614 12 3.5 12C3.22386 12 3 12.2239 3 12.5C3 12.7761 3.22386 13 3.5 13Z"
        fill="#545E5E" />
    <path
        d="M14.5 13C14.7761 13 15 12.7761 15 12.5C15 12.2239 14.7761 12 14.5 12C14.2239 12 14 12.2239 14 12.5C14 12.7761 14.2239 13 14.5 13Z"
        fill="#545E5E" />
    <path
        d="M14.5 18C14.7761 18 15 17.7761 15 17.5C15 17.2239 14.7761 17 14.5 17C14.2239 17 14 17.2239 14 17.5C14 17.7761 14.2239 18 14.5 18Z"
        fill="#545E5E" />
    <path
        d="M13.4 2.10009L11.4 1.10009C11.1 0.900089 10.7 1.00009 10.4 1.10009C10.2 1.30009 9.99996 1.70009 9.99996 2.00009V7.00009C9.99996 7.60009 10.4 8.00009 11 8.00009C11.6 8.00009 12 7.60009 12 7.00009V3.60009L12.6 3.90009C13.1 4.10009 13.7 3.90009 13.9 3.50009C14.1 3.00009 13.9 2.40009 13.4 2.10009ZM5.99996 2.00009V5.40009L5.39996 5.10009C4.99996 4.90009 4.39996 5.10009 4.09996 5.60009C3.89996 6.00009 4.09996 6.60009 4.59996 6.90009L6.59996 7.90009C6.69996 8.00009 6.79996 8.00009 6.99996 8.00009C7.19996 8.00009 7.39996 7.90009 7.49996 7.90009C7.79996 7.70009 7.99996 7.30009 7.99996 7.00009V2.00009C7.99996 1.40009 7.59996 1.00009 6.99996 1.00009C6.39996 1.00009 5.99996 1.40009 5.99996 2.00009Z"
        fill="#545E5E" />
</svg>