<svg width="24" height="24" viewBox="0 0 24 24" fill="none" xmlns="http://www.w3.org/2000/svg">
<path d="M3 18C3 20.2 4.9 22 7.2 22H16.8C19.1 22 21 20.2 21 18V14C21 11.8 19.1 10 16.8 10H7.2C4.9 10 3 11.8 3 14V18ZM5 14C5 12.9 6 12 7.2 12H16.8C18 12 19 12.9 19 14V18C19 19.1 18 20 16.8 20H7.2C6 20 5 19.1 5 18V14Z" fill="#545E5E"/>
<path d="M12 19C13.7 19 15 17.7 15 16C15 14.3 13.7 13 12 13C10.3 13 9 14.3 9 16C9 17.7 10.3 19 12 19ZM12 15C12.6 15 13 15.4 13 16C13 16.6 12.6 17 12 17C11.4 17 11 16.6 11 16C11 15.4 11.4 15 12 15Z" fill="#545E5E"/>
<path d="M6.5 19C6.77614 19 7 18.7761 7 18.5C7 18.2239 6.77614 18 6.5 18C6.22386 18 6 18.2239 6 18.5C6 18.7761 6.22386 19 6.5 19Z" fill="#545E5E"/>
<path d="M6.5 14C6.77614 14 7 13.7761 7 13.5C7 13.2239 6.77614 13 6.5 13C6.22386 13 6 13.2239 6 13.5C6 13.7761 6.22386 14 6.5 14Z" fill="#545E5E"/>
<path d="M17.5 14C17.7761 14 18 13.7761 18 13.5C18 13.2239 17.7761 13 17.5 13C17.2239 13 17 13.2239 17 13.5C17 13.7761 17.2239 14 17.5 14Z" fill="#545E5E"/>
<path d="M17.5 19C17.7761 19 18 18.7761 18 18.5C18 18.2239 17.7761 18 17.5 18C17.2239 18 17 18.2239 17 18.5C17 18.7761 17.2239 19 17.5 19Z" fill="#545E5E"/>
<path d="M16.4 3.09985L14.4 2.09985C14.1 1.89985 13.7 1.99985 13.4 2.09985C13.2 2.29985 13 2.69985 13 2.99985V7.99985C13 8.59984 13.4 8.99985 14 8.99985C14.6 8.99985 15 8.59984 15 7.99985V4.59985L15.6 4.89985C16.1 5.09985 16.7 4.89985 16.9 4.49985C17.1 3.99985 16.9 3.39985 16.4 3.09985ZM8.99996 2.99985V6.39985L8.39996 6.09984C7.99996 5.89984 7.39996 6.09984 7.09996 6.59984C6.89996 6.99985 7.09996 7.59984 7.59996 7.89985L9.59996 8.89984C9.69996 8.99984 9.79996 8.99985 9.99996 8.99985C10.2 8.99985 10.4 8.89984 10.5 8.89984C10.8 8.69984 11 8.29985 11 7.99985V2.99985C11 2.39985 10.6 1.99985 9.99996 1.99985C9.39996 1.99985 8.99996 2.39985 8.99996 2.99985Z" fill="#545E5E"/>
</svg>
