<svg width="24" height="24" viewBox="0 0 24 24" fill="none" xmlns="http://www.w3.org/2000/svg">
<path d="M17.1327 10.9342C17.1656 10.9665 17.1981 10.9992 17.2302 11.0322C17.2485 11.0509 17.2725 11.0779 17.2915 11.0993C17.3016 11.1106 17.3103 11.1204 17.316 11.1265L17.2062 11.2288M17.1327 10.9342L18.4733 13.0092C18.4734 13.0093 18.4734 13.0094 18.4734 13.0095C18.4233 12.8716 18.3678 12.7358 18.3069 12.6023L18.3066 12.6017C18.285 12.5549 18.2625 12.5085 18.2392 12.4626M17.1327 10.9342C19.3188 11.2055 21.0167 13.075 21.0167 15.3333V19.35H18.8167V14.9167C18.8167 14.7126 18.8042 14.5122 18.7829 14.3151L18.7829 14.3148C18.7798 14.2875 18.7755 14.2613 18.7718 14.239L18.7707 14.2323L17.1327 10.9342ZM17.2062 11.2288L17.3155 11.126C17.4191 11.2361 17.5181 11.3504 17.6123 11.4686L17.6126 11.469C17.6361 11.4987 17.6596 11.5307 17.6809 11.5598C17.6899 11.572 17.6985 11.5837 17.7065 11.5946L17.5863 11.6842M17.2062 11.2288C17.307 11.3358 17.4034 11.4471 17.495 11.5621C17.5168 11.5896 17.5373 11.6177 17.558 11.6458C17.5673 11.6586 17.5767 11.6714 17.5863 11.6842M17.2062 11.2288C17.1946 11.2163 17.1834 11.2035 17.1721 11.1908C17.1559 11.1725 17.1397 11.1541 17.1225 11.1367L18.1704 12.6646C18.1495 12.6192 18.1276 12.5742 18.105 12.5296C17.9591 12.2321 17.7854 11.949 17.5863 11.6842M17.5863 11.6842L17.7061 11.594C17.9108 11.8661 18.0893 12.1569 18.2392 12.4626M18.2392 12.4626C18.2394 12.4629 18.2395 12.4632 18.2397 12.4635L18.105 12.5296L18.2387 12.4617C18.2389 12.462 18.2391 12.4623 18.2392 12.4626ZM18.7621 14.1774C18.7426 14.0254 18.7169 13.8742 18.6851 13.7243L18.6849 13.7233C18.6782 13.6931 18.6681 13.6555 18.6595 13.6238C18.6548 13.6064 18.6506 13.5908 18.6477 13.5792C18.6477 13.5791 18.6477 13.579 18.6477 13.5789L18.5021 13.615M18.7621 14.1774L18.3825 13.1975C18.428 13.335 18.4678 13.4743 18.5021 13.615M18.7621 14.1774C18.7621 14.1775 18.7621 14.1775 18.7621 14.1776L18.6133 14.1967L18.7621 14.1774ZM18.5021 13.615C18.5068 13.634 18.5119 13.6528 18.517 13.6715C18.5246 13.6993 18.5321 13.7271 18.5383 13.7554L18.5021 13.615ZM15.8657 4.25037C15.9657 4.23906 16.066 4.23333 16.1667 4.23333C17.6918 4.23333 18.9333 5.47452 18.9333 7C18.9333 8.52548 17.6918 9.76667 16.1667 9.76667C15.693 9.76667 15.2353 9.6463 14.8291 9.42021C15.1394 9.14996 15.4099 8.83668 15.6321 8.48966L15.6322 8.48968L15.6338 8.48697L15.6558 8.45092C15.656 8.45068 15.6561 8.45045 15.6563 8.45022C15.7308 8.33123 15.7993 8.20886 15.8622 8.08273L15.8622 8.08274L15.8632 8.08065L15.8919 8.02076C15.8919 8.02073 15.8919 8.0207 15.8919 8.02067C15.8919 8.02066 15.8919 8.02066 15.8919 8.02065C15.9495 7.90067 16.0009 7.77796 16.047 7.6526L16.0471 7.65247L16.0746 7.57747L16.0746 7.57748L16.0755 7.5748C16.1174 7.45354 16.1537 7.33042 16.1844 7.20585L16.0387 7.17M15.8657 4.25037L15.5288 8.37125C15.6008 8.25625 15.6671 8.13792 15.7279 8.01583L15.7567 7.95583C15.8121 7.84042 15.8617 7.72208 15.9062 7.60083L15.9338 7.52583C15.9741 7.40888 16.0092 7.29015 16.0387 7.17M15.8657 4.25037C15.8134 4.25629 15.7611 4.26375 15.709 4.27272C15.7621 4.37623 15.8108 4.48194 15.855 4.58958C15.862 4.60687 15.8682 4.62452 15.8744 4.64221C15.8796 4.65693 15.8847 4.67168 15.8904 4.68625M15.8657 4.25037L15.8904 4.68625M16.0387 7.17C16.0416 7.15851 16.0447 7.14708 16.0477 7.13567C16.0526 7.11728 16.0576 7.09893 16.0617 7.08042M16.0387 7.17L16.1843 7.20638C16.1859 7.1998 16.1883 7.19083 16.191 7.18066C16.1965 7.15994 16.2033 7.13423 16.208 7.1135M16.0617 7.08042L16.208 7.1135M16.0617 7.08042C16.0883 6.9625 16.1083 6.8425 16.1246 6.72083C16.1263 6.70855 16.1284 6.69634 16.1305 6.68411C16.1338 6.66439 16.1371 6.64465 16.1392 6.62458M16.0617 7.08042L16.2081 7.11296C16.2081 7.11314 16.208 7.11332 16.208 7.1135M16.208 7.1135C16.2358 6.99032 16.2565 6.86598 16.2732 6.7415C16.2739 6.73656 16.2752 6.72879 16.2767 6.71944C16.2805 6.69676 16.2858 6.66475 16.2883 6.64103M16.1125 5.52833C16.0871 5.36368 16.0521 5.20063 16.0079 5.04M16.1125 5.52833C16.115 5.54445 16.1177 5.56049 16.1204 5.5765C16.1261 5.61096 16.1318 5.64529 16.1358 5.68M16.1125 5.52833L16.2607 5.50542C16.2607 5.50537 16.2607 5.50531 16.2607 5.50525L16.1125 5.52833ZM16.0079 5.04L16.2883 6.64103M16.0079 5.04C15.9742 4.92034 15.935 4.8023 15.8904 4.68625M16.0079 5.04L15.8904 4.68625M16.1358 5.68C16.1546 5.84 16.1667 6.00167 16.1667 6.16667C16.1667 6.32167 16.1567 6.47458 16.1392 6.62458M16.1358 5.68L16.2849 5.6629C16.2848 5.66278 16.2848 5.66266 16.2848 5.66254L16.1358 5.68ZM16.1392 6.62458L16.2882 6.64197C16.2882 6.64165 16.2882 6.64134 16.2883 6.64103M16.1392 6.62458L16.2884 6.63989C16.2883 6.64026 16.2883 6.64064 16.2883 6.64103M7.96948 4.63307L7.96958 4.63282C7.97397 4.6214 7.97795 4.61006 7.98277 4.59629C7.9837 4.59363 7.98467 4.59088 7.98567 4.58803C7.99147 4.57154 7.99844 4.55199 8.00678 4.53188C8.04613 4.43612 8.08886 4.3423 8.13467 4.25041C8.03462 4.23908 7.93415 4.23333 7.83333 4.23333C6.30825 4.23333 5.06667 5.47452 5.06667 7C5.06667 8.52548 6.30825 9.76667 7.83333 9.76667H7.83348C8.30242 9.76712 8.7625 9.64757 9.17047 9.42091C8.86038 9.15056 8.58996 8.83738 8.36749 8.49057L8.36573 8.48782L8.36576 8.4878L8.34329 8.45104C8.26874 8.33205 8.20026 8.20969 8.13741 8.08357L8.13657 8.08188L8.13658 8.08188L8.10742 8.02146L8.10709 8.02078C8.05015 7.90129 7.99837 7.77875 7.95219 7.65359L7.95181 7.65256L7.95181 7.65256C7.94932 7.64565 7.94619 7.6372 7.94278 7.62802L7.96948 4.63307ZM7.96948 4.63307C7.90339 4.80584 7.8487 4.98276 7.80576 5.16268L7.80573 5.16283L7.96948 4.63307ZM7.71519 5.66254L7.71527 5.66184C7.72007 5.6225 7.72675 5.58196 7.73277 5.54541C7.73509 5.53128 7.73732 5.51775 7.73931 5.50511C7.73931 5.50509 7.73931 5.50508 7.73932 5.50507L7.8875 5.52833L7.71519 5.66254ZM7.71519 5.66254C7.69595 5.82669 7.68333 5.99438 7.68333 6.16667C7.68333 6.32809 7.69375 6.4866 7.71091 6.64152L7.71099 6.64219M7.71519 5.66254L7.71099 6.64219M7.71099 6.64219C7.71335 6.66265 7.71654 6.68198 7.71919 6.69781L7.71977 6.7013C7.72232 6.71649 7.7243 6.72833 7.72583 6.74015L7.7259 6.74069M7.71099 6.64219L7.7259 6.74069M7.7259 6.74069C7.74261 6.86575 7.76372 6.99049 7.79107 7.11337L7.7259 6.74069ZM6.38727 11.4691L6.3877 11.4686C6.48196 11.3503 6.58102 11.236 6.68463 11.1259C6.69033 11.1197 6.69892 11.1101 6.70888 11.0989C6.72813 11.0772 6.75248 11.0498 6.7709 11.0311M6.38727 11.4691L6.87792 11.1362M6.38727 11.4691C6.36432 11.4982 6.34121 11.5297 6.32004 11.5586M6.38727 11.4691L6.32004 11.5586M6.7709 11.0311C6.77097 11.0311 6.77103 11.031 6.7711 11.0309L6.87792 11.1362M6.7709 11.0311C6.77083 11.0312 6.77076 11.0313 6.77069 11.0314L6.87792 11.1362M6.7709 11.0311C6.80289 10.9984 6.83527 10.966 6.86806 10.9338M6.87792 11.1362C6.9534 11.0591 7.03081 10.9836 7.11045 10.9105C7.02903 10.9161 6.94822 10.9239 6.86806 10.9338M6.86806 10.9338C4.68142 11.2052 2.98333 13.0748 2.98333 15.3333V19.35H5.18333M6.86806 10.9338L5.18333 19.35M5.18333 19.35V14.9167C5.18333 14.7126 5.19579 14.5122 5.21712 14.3155L5.21715 14.3153C5.22025 14.2871 5.22663 14.2482 5.23172 14.2171C5.23437 14.201 5.23668 14.1869 5.23798 14.1777C5.25746 14.0256 5.28313 13.8743 5.31493 13.7243L5.3152 13.723C5.3221 13.6918 5.33182 13.6555 5.34024 13.6241C5.34474 13.6073 5.34886 13.5919 5.35198 13.5795C5.38798 13.4355 5.42777 13.2919 5.4752 13.1501C5.47521 13.15 5.47523 13.15 5.47524 13.1499L5.18333 19.35ZM6.32004 11.5586C6.31094 11.571 6.3022 11.583 6.29399 11.594M6.32004 11.5586L6.29399 11.594M6.29399 11.594C6.17612 11.7511 6.06681 11.9144 5.96652 12.0833L6.29399 11.594ZM5.18333 22V22.15H5.33333H18.6667H18.8167V22V20.4833H22H22.15V20.3333V15.3333C22.15 12.9405 20.6328 10.8968 18.5105 10.1113C19.4537 9.39952 20.0667 8.2711 20.0667 7C20.0667 4.84967 18.3174 3.1 16.1667 3.1C15.8268 3.1 15.4899 3.14659 15.1606 3.23577C14.3725 2.38636 13.2491 1.85 12 1.85C10.751 1.85 9.6276 2.38629 8.83951 3.23561C8.51179 3.14636 8.17358 3.10073 7.83365 3.1H7.83333C5.68256 3.1 3.93333 4.84967 3.93333 7C3.93333 8.2711 4.5463 9.39952 5.48947 10.1113C3.36725 10.8968 1.85 12.9405 1.85 15.3333V20.3333V20.4833H2H5.18333V22ZM7.81493 7.20612C7.84583 7.33053 7.88161 7.4539 7.92363 7.57521L7.80857 7.18215C7.81111 7.19157 7.81334 7.19987 7.81493 7.20612ZM7.04779 10.7647C7.12865 10.7583 7.21011 10.7539 7.29208 10.7517L7.04779 10.7647ZM7.87458 6.72083C7.89083 6.8425 7.91125 6.96292 7.9375 7.08083L7.86 6.625C7.86203 6.64262 7.86492 6.65987 7.86781 6.67709C7.87024 6.69163 7.87268 6.70615 7.87458 6.72083Z" fill="#034147" stroke="#034147" stroke-width="0.3"/>
</svg>
