<svg width="24" height="24" viewBox="0 0 24 24" fill="none" xmlns="http://www.w3.org/2000/svg">
<mask id="path-1-outside-1_4857_9852" maskUnits="userSpaceOnUse" x="1" y="1" width="22" height="22" fill="black">
<rect fill="white" x="1" y="1" width="22" height="22"/>
<path d="M5.33333 22H18.6667V20.3333H22V15.3333C22 12.9025 20.3904 10.8413 18.1812 10.1579C19.2229 9.49083 19.9167 8.32583 19.9167 7C19.9167 4.9325 18.2346 3.25 16.1667 3.25C15.8104 3.25 15.4571 3.30333 15.1121 3.40542C14.3483 2.54583 13.2379 2 12 2C10.7621 2 9.65167 2.54583 8.88792 3.40542C8.5457 3.30311 8.19051 3.25077 7.83333 3.25C5.76542 3.25 4.08333 4.9325 4.08333 7C4.08333 8.32583 4.77708 9.49083 5.81875 10.1579C3.60958 10.8413 2 12.9025 2 15.3333V20.3333H5.33333V22ZM17.8333 21.1667H6.16667V14.9167C6.16667 14.7775 6.17542 14.64 6.1875 14.5037C6.19167 14.4592 6.19708 14.415 6.20208 14.3704C6.21333 14.2762 6.22792 14.1833 6.245 14.0912C6.25375 14.0446 6.26083 13.9975 6.27083 13.9513C6.29667 13.8317 6.32708 13.7142 6.36167 13.5979C6.37917 13.5404 6.4 13.4846 6.41958 13.4279C6.46361 13.2991 6.51338 13.1723 6.56875 13.0479C6.59542 12.9883 6.62458 12.93 6.65375 12.8717C6.69625 12.7867 6.74125 12.7033 6.78875 12.6212C6.83042 12.55 6.87208 12.4788 6.91708 12.41C6.95208 12.3567 6.98958 12.305 7.02667 12.2529C7.06583 12.1979 7.10625 12.1438 7.14792 12.0908C7.18625 12.0421 7.22458 11.9937 7.265 11.9467C7.3175 11.8854 7.37208 11.8263 7.4275 11.7679C7.54164 11.6469 7.66209 11.532 7.78833 11.4237C7.83417 11.385 7.88167 11.3479 7.92917 11.3108C7.98375 11.2683 8.03875 11.2267 8.09542 11.1867C8.14792 11.1492 8.20042 11.1121 8.255 11.0767C8.31 11.0408 8.36667 11.0079 8.42292 10.9746C8.52917 10.9117 8.63833 10.8529 8.75042 10.7983C8.80667 10.7708 8.86208 10.7421 8.91958 10.7167L8.98667 10.6867C9.54517 10.453 10.1446 10.3329 10.75 10.3333H13.25C13.8746 10.3333 14.47 10.4596 15.0129 10.6871L15.08 10.7171C15.1375 10.7421 15.1929 10.7712 15.2492 10.7987C15.3612 10.8533 15.4704 10.9121 15.5767 10.975C15.6333 11.0083 15.69 11.0412 15.7446 11.0771C15.8565 11.1505 15.9652 11.2286 16.0704 11.3112C16.1179 11.3483 16.1654 11.3854 16.2112 11.4242C16.3378 11.5321 16.4583 11.647 16.5721 11.7683C16.6275 11.8267 16.6825 11.8858 16.7346 11.9471C16.818 12.046 16.8975 12.1481 16.9729 12.2533C17.01 12.3054 17.0479 12.3567 17.0825 12.4104C17.1787 12.5594 17.2666 12.7135 17.3458 12.8721C17.375 12.9304 17.4042 12.9887 17.4308 13.0483C17.4867 13.1725 17.5364 13.2993 17.58 13.4283C17.5996 13.485 17.6204 13.5413 17.6379 13.5983C17.6729 13.7142 17.7033 13.8321 17.7288 13.9517C17.7388 13.9979 17.7463 14.045 17.7546 14.0917C17.8049 14.3638 17.8312 14.6399 17.8333 14.9167V21.1667ZM21.1667 15.3333V19.5H18.6667V14.9167C18.6667 14.7187 18.6546 14.5237 18.6338 14.3312C18.6288 14.2858 18.6192 14.2417 18.6133 14.1967C18.5944 14.0486 18.5693 13.9014 18.5383 13.7554C18.5279 13.7079 18.5138 13.6621 18.5021 13.615C18.4678 13.4743 18.428 13.335 18.3825 13.1975C18.3671 13.1512 18.3492 13.1062 18.3325 13.0608C18.2837 12.9267 18.2297 12.7945 18.1704 12.6646C18.1495 12.6192 18.1276 12.5742 18.105 12.5296C17.9591 12.2321 17.7854 11.949 17.5863 11.6842C17.5558 11.6433 17.5267 11.6021 17.495 11.5621C17.4034 11.4471 17.307 11.3358 17.2062 11.2288C17.1779 11.1983 17.1517 11.1662 17.1225 11.1367C16.9913 11.0013 16.853 10.8729 16.7083 10.7521C19.1779 10.8183 21.1667 12.8479 21.1667 15.3333ZM15.6346 4.13375C15.8104 4.10042 15.9879 4.08333 16.1667 4.08333C17.7746 4.08333 19.0833 5.39167 19.0833 7C19.0833 8.60833 17.7746 9.91667 16.1667 9.91667C15.5946 9.91667 15.0442 9.75 14.5725 9.44C14.5787 9.43542 14.5837 9.42958 14.5896 9.42458C14.9487 9.13853 15.2582 8.79533 15.5058 8.40875L15.5288 8.37125C15.6008 8.25625 15.6671 8.13792 15.7279 8.01583L15.7567 7.95583C15.8121 7.84042 15.8617 7.72208 15.9062 7.60083L15.9338 7.52583C15.9741 7.40888 16.0092 7.29015 16.0387 7.17C16.0462 7.14 16.055 7.11042 16.0617 7.08042C16.0883 6.9625 16.1083 6.8425 16.1246 6.72083C16.1292 6.68875 16.1358 6.65708 16.1392 6.62458C16.1567 6.47458 16.1667 6.32167 16.1667 6.16667C16.1667 6.00167 16.1546 5.84 16.1358 5.68C16.13 5.62917 16.1204 5.57917 16.1125 5.52833C16.0871 5.36368 16.0521 5.20063 16.0079 5.04C15.9742 4.92034 15.935 4.8023 15.8904 4.68625C15.8779 4.65417 15.8679 4.62125 15.855 4.58958C15.792 4.43608 15.7197 4.28651 15.6388 4.14167C15.6367 4.13875 15.6358 4.13625 15.6346 4.13375ZM14.5679 4.04375L14.5933 4.07667C14.6137 4.10208 14.6321 4.12875 14.6517 4.15458C14.8642 4.43417 15.0267 4.73875 15.1408 5.06C15.1483 5.08083 15.1567 5.10125 15.1637 5.1225C15.2133 5.27208 15.2508 5.425 15.2787 5.58083C15.2846 5.61333 15.2892 5.64667 15.2937 5.67958C15.3171 5.84 15.3333 6.00208 15.3333 6.16667C15.3333 6.30333 15.3229 6.43833 15.3063 6.57208C15.3025 6.60333 15.2967 6.63417 15.2921 6.66542C15.2755 6.77536 15.2534 6.88439 15.2258 6.99208C15.22 7.01458 15.2146 7.0375 15.2083 7.06C15.1335 7.32763 15.0256 7.58489 14.8871 7.82583L14.8796 7.83833C14.8121 7.95387 14.7377 8.06519 14.6567 8.17167L14.6346 8.20125C14.4637 8.42233 14.2658 8.62111 14.0454 8.79292L14.0058 8.8225C13.9025 8.9009 13.7947 8.97324 13.6829 9.03917C13.6629 9.05083 13.6442 9.06375 13.6237 9.075L13.5763 9.1025C13.1062 9.35583 12.57 9.5 12 9.5C11.43 9.5 10.8938 9.35583 10.4242 9.1025L10.3767 9.075C10.3567 9.06375 10.3375 9.05083 10.3175 9.03917C10.2058 8.97324 10.0979 8.9009 9.99458 8.8225L9.955 8.79292C9.73484 8.62089 9.53693 8.42214 9.36583 8.20125L9.34375 8.17167C9.26288 8.06509 9.18844 7.95378 9.12083 7.83833L9.11333 7.82583C8.97463 7.58481 8.86657 7.3274 8.79167 7.05958C8.78542 7.0375 8.78 7.01458 8.77417 6.9925C8.74661 6.88465 8.7245 6.77549 8.70792 6.66542C8.70333 6.63417 8.6975 6.60375 8.69375 6.57208C8.67634 6.43763 8.66729 6.30224 8.66667 6.16667C8.66667 6.00208 8.68292 5.84 8.70625 5.68C8.71125 5.64708 8.71542 5.61417 8.72125 5.58125C8.74917 5.42583 8.78667 5.2725 8.83625 5.12292C8.84333 5.10167 8.85167 5.08125 8.85917 5.06042C8.97438 4.73511 9.1394 4.42967 9.34833 4.155C9.36792 4.12917 9.38625 4.10208 9.40667 4.07708L9.43208 4.04417C9.74423 3.66532 10.1363 3.36022 10.5803 3.15075C11.0242 2.94129 11.509 2.83264 11.9999 2.8326C12.4908 2.83256 12.9756 2.94113 13.4196 3.15052C13.8636 3.35992 14.2557 3.66495 14.5679 4.04375ZM4.91667 7C4.91667 5.39167 6.22542 4.08333 7.83333 4.08333C8.01208 4.08333 8.18958 4.10042 8.36542 4.13375L8.36167 4.14167C8.28125 4.28583 8.20875 4.435 8.14542 4.58917C8.13208 4.62125 8.12208 4.65417 8.10958 4.68667C8.04583 4.85331 7.99308 5.02395 7.95167 5.1975C7.92583 5.30625 7.905 5.41667 7.8875 5.52833C7.87958 5.57875 7.87042 5.62875 7.86417 5.68C7.84542 5.84 7.83333 6.00167 7.83333 6.16667C7.83333 6.32167 7.84333 6.47458 7.86 6.625C7.86375 6.6575 7.87042 6.68875 7.87458 6.72083C7.89083 6.8425 7.91125 6.96292 7.9375 7.08083C7.94417 7.11083 7.95292 7.14 7.96042 7.16958C7.99042 7.29042 8.025 7.40958 8.06542 7.52625C8.07417 7.55167 8.08375 7.57625 8.09292 7.60167C8.1375 7.7225 8.1875 7.84083 8.2425 7.95625L8.27167 8.01667C8.3325 8.13875 8.39875 8.25708 8.47083 8.37208L8.49375 8.40958C8.74161 8.79598 9.05113 9.13914 9.41 9.42542L9.42708 9.44083C8.95375 9.75179 8.39967 9.91722 7.83333 9.91667C6.22542 9.91667 4.91667 8.60833 4.91667 7ZM2.83333 19.5V15.3333C2.83333 12.8479 4.82208 10.8183 7.29208 10.7517C7.14708 10.8721 7.00958 11.0017 6.87792 11.1362C6.84875 11.1658 6.8225 11.1979 6.79417 11.2283C6.69326 11.3356 6.59679 11.4469 6.505 11.5621C6.47375 11.6017 6.44458 11.6429 6.41417 11.6837C6.29943 11.8367 6.19303 11.9956 6.09542 12.16C6.02375 12.2804 5.95708 12.4033 5.895 12.5296C5.87292 12.5746 5.85083 12.6192 5.82958 12.6646C5.77 12.7937 5.71667 12.9262 5.6675 13.0608C5.65083 13.1067 5.63292 13.1512 5.6175 13.1975C5.57167 13.3346 5.53292 13.4742 5.4975 13.6158C5.48583 13.6625 5.47208 13.7083 5.46167 13.7554C5.43066 13.9017 5.40564 14.0492 5.38667 14.1975C5.38042 14.2425 5.37125 14.2863 5.36625 14.3317C5.34542 14.5238 5.33333 14.7187 5.33333 14.9167V19.5H2.83333Z"/>
</mask>
<path d="M5.33333 22H18.6667V20.3333H22V15.3333C22 12.9025 20.3904 10.8413 18.1812 10.1579C19.2229 9.49083 19.9167 8.32583 19.9167 7C19.9167 4.9325 18.2346 3.25 16.1667 3.25C15.8104 3.25 15.4571 3.30333 15.1121 3.40542C14.3483 2.54583 13.2379 2 12 2C10.7621 2 9.65167 2.54583 8.88792 3.40542C8.5457 3.30311 8.19051 3.25077 7.83333 3.25C5.76542 3.25 4.08333 4.9325 4.08333 7C4.08333 8.32583 4.77708 9.49083 5.81875 10.1579C3.60958 10.8413 2 12.9025 2 15.3333V20.3333H5.33333V22ZM17.8333 21.1667H6.16667V14.9167C6.16667 14.7775 6.17542 14.64 6.1875 14.5037C6.19167 14.4592 6.19708 14.415 6.20208 14.3704C6.21333 14.2762 6.22792 14.1833 6.245 14.0912C6.25375 14.0446 6.26083 13.9975 6.27083 13.9513C6.29667 13.8317 6.32708 13.7142 6.36167 13.5979C6.37917 13.5404 6.4 13.4846 6.41958 13.4279C6.46361 13.2991 6.51338 13.1723 6.56875 13.0479C6.59542 12.9883 6.62458 12.93 6.65375 12.8717C6.69625 12.7867 6.74125 12.7033 6.78875 12.6212C6.83042 12.55 6.87208 12.4788 6.91708 12.41C6.95208 12.3567 6.98958 12.305 7.02667 12.2529C7.06583 12.1979 7.10625 12.1438 7.14792 12.0908C7.18625 12.0421 7.22458 11.9937 7.265 11.9467C7.3175 11.8854 7.37208 11.8263 7.4275 11.7679C7.54164 11.6469 7.66209 11.532 7.78833 11.4237C7.83417 11.385 7.88167 11.3479 7.92917 11.3108C7.98375 11.2683 8.03875 11.2267 8.09542 11.1867C8.14792 11.1492 8.20042 11.1121 8.255 11.0767C8.31 11.0408 8.36667 11.0079 8.42292 10.9746C8.52917 10.9117 8.63833 10.8529 8.75042 10.7983C8.80667 10.7708 8.86208 10.7421 8.91958 10.7167L8.98667 10.6867C9.54517 10.453 10.1446 10.3329 10.75 10.3333H13.25C13.8746 10.3333 14.47 10.4596 15.0129 10.6871L15.08 10.7171C15.1375 10.7421 15.1929 10.7712 15.2492 10.7987C15.3612 10.8533 15.4704 10.9121 15.5767 10.975C15.6333 11.0083 15.69 11.0412 15.7446 11.0771C15.8565 11.1505 15.9652 11.2286 16.0704 11.3112C16.1179 11.3483 16.1654 11.3854 16.2112 11.4242C16.3378 11.5321 16.4583 11.647 16.5721 11.7683C16.6275 11.8267 16.6825 11.8858 16.7346 11.9471C16.818 12.046 16.8975 12.1481 16.9729 12.2533C17.01 12.3054 17.0479 12.3567 17.0825 12.4104C17.1787 12.5594 17.2666 12.7135 17.3458 12.8721C17.375 12.9304 17.4042 12.9887 17.4308 13.0483C17.4867 13.1725 17.5364 13.2993 17.58 13.4283C17.5996 13.485 17.6204 13.5413 17.6379 13.5983C17.6729 13.7142 17.7033 13.8321 17.7288 13.9517C17.7388 13.9979 17.7463 14.045 17.7546 14.0917C17.8049 14.3638 17.8312 14.6399 17.8333 14.9167V21.1667ZM21.1667 15.3333V19.5H18.6667V14.9167C18.6667 14.7187 18.6546 14.5237 18.6338 14.3312C18.6288 14.2858 18.6192 14.2417 18.6133 14.1967C18.5944 14.0486 18.5693 13.9014 18.5383 13.7554C18.5279 13.7079 18.5138 13.6621 18.5021 13.615C18.4678 13.4743 18.428 13.335 18.3825 13.1975C18.3671 13.1512 18.3492 13.1062 18.3325 13.0608C18.2837 12.9267 18.2297 12.7945 18.1704 12.6646C18.1495 12.6192 18.1276 12.5742 18.105 12.5296C17.9591 12.2321 17.7854 11.949 17.5863 11.6842C17.5558 11.6433 17.5267 11.6021 17.495 11.5621C17.4034 11.4471 17.307 11.3358 17.2062 11.2288C17.1779 11.1983 17.1517 11.1662 17.1225 11.1367C16.9913 11.0013 16.853 10.8729 16.7083 10.7521C19.1779 10.8183 21.1667 12.8479 21.1667 15.3333ZM15.6346 4.13375C15.8104 4.10042 15.9879 4.08333 16.1667 4.08333C17.7746 4.08333 19.0833 5.39167 19.0833 7C19.0833 8.60833 17.7746 9.91667 16.1667 9.91667C15.5946 9.91667 15.0442 9.75 14.5725 9.44C14.5787 9.43542 14.5837 9.42958 14.5896 9.42458C14.9487 9.13853 15.2582 8.79533 15.5058 8.40875L15.5288 8.37125C15.6008 8.25625 15.6671 8.13792 15.7279 8.01583L15.7567 7.95583C15.8121 7.84042 15.8617 7.72208 15.9062 7.60083L15.9338 7.52583C15.9741 7.40888 16.0092 7.29015 16.0387 7.17C16.0462 7.14 16.055 7.11042 16.0617 7.08042C16.0883 6.9625 16.1083 6.8425 16.1246 6.72083C16.1292 6.68875 16.1358 6.65708 16.1392 6.62458C16.1567 6.47458 16.1667 6.32167 16.1667 6.16667C16.1667 6.00167 16.1546 5.84 16.1358 5.68C16.13 5.62917 16.1204 5.57917 16.1125 5.52833C16.0871 5.36368 16.0521 5.20063 16.0079 5.04C15.9742 4.92034 15.935 4.8023 15.8904 4.68625C15.8779 4.65417 15.8679 4.62125 15.855 4.58958C15.792 4.43608 15.7197 4.28651 15.6388 4.14167C15.6367 4.13875 15.6358 4.13625 15.6346 4.13375ZM14.5679 4.04375L14.5933 4.07667C14.6137 4.10208 14.6321 4.12875 14.6517 4.15458C14.8642 4.43417 15.0267 4.73875 15.1408 5.06C15.1483 5.08083 15.1567 5.10125 15.1637 5.1225C15.2133 5.27208 15.2508 5.425 15.2787 5.58083C15.2846 5.61333 15.2892 5.64667 15.2937 5.67958C15.3171 5.84 15.3333 6.00208 15.3333 6.16667C15.3333 6.30333 15.3229 6.43833 15.3063 6.57208C15.3025 6.60333 15.2967 6.63417 15.2921 6.66542C15.2755 6.77536 15.2534 6.88439 15.2258 6.99208C15.22 7.01458 15.2146 7.0375 15.2083 7.06C15.1335 7.32763 15.0256 7.58489 14.8871 7.82583L14.8796 7.83833C14.8121 7.95387 14.7377 8.06519 14.6567 8.17167L14.6346 8.20125C14.4637 8.42233 14.2658 8.62111 14.0454 8.79292L14.0058 8.8225C13.9025 8.9009 13.7947 8.97324 13.6829 9.03917C13.6629 9.05083 13.6442 9.06375 13.6237 9.075L13.5763 9.1025C13.1062 9.35583 12.57 9.5 12 9.5C11.43 9.5 10.8938 9.35583 10.4242 9.1025L10.3767 9.075C10.3567 9.06375 10.3375 9.05083 10.3175 9.03917C10.2058 8.97324 10.0979 8.9009 9.99458 8.8225L9.955 8.79292C9.73484 8.62089 9.53693 8.42214 9.36583 8.20125L9.34375 8.17167C9.26288 8.06509 9.18844 7.95378 9.12083 7.83833L9.11333 7.82583C8.97463 7.58481 8.86657 7.3274 8.79167 7.05958C8.78542 7.0375 8.78 7.01458 8.77417 6.9925C8.74661 6.88465 8.7245 6.77549 8.70792 6.66542C8.70333 6.63417 8.6975 6.60375 8.69375 6.57208C8.67634 6.43763 8.66729 6.30224 8.66667 6.16667C8.66667 6.00208 8.68292 5.84 8.70625 5.68C8.71125 5.64708 8.71542 5.61417 8.72125 5.58125C8.74917 5.42583 8.78667 5.2725 8.83625 5.12292C8.84333 5.10167 8.85167 5.08125 8.85917 5.06042C8.97438 4.73511 9.1394 4.42967 9.34833 4.155C9.36792 4.12917 9.38625 4.10208 9.40667 4.07708L9.43208 4.04417C9.74423 3.66532 10.1363 3.36022 10.5803 3.15075C11.0242 2.94129 11.509 2.83264 11.9999 2.8326C12.4908 2.83256 12.9756 2.94113 13.4196 3.15052C13.8636 3.35992 14.2557 3.66495 14.5679 4.04375ZM4.91667 7C4.91667 5.39167 6.22542 4.08333 7.83333 4.08333C8.01208 4.08333 8.18958 4.10042 8.36542 4.13375L8.36167 4.14167C8.28125 4.28583 8.20875 4.435 8.14542 4.58917C8.13208 4.62125 8.12208 4.65417 8.10958 4.68667C8.04583 4.85331 7.99308 5.02395 7.95167 5.1975C7.92583 5.30625 7.905 5.41667 7.8875 5.52833C7.87958 5.57875 7.87042 5.62875 7.86417 5.68C7.84542 5.84 7.83333 6.00167 7.83333 6.16667C7.83333 6.32167 7.84333 6.47458 7.86 6.625C7.86375 6.6575 7.87042 6.68875 7.87458 6.72083C7.89083 6.8425 7.91125 6.96292 7.9375 7.08083C7.94417 7.11083 7.95292 7.14 7.96042 7.16958C7.99042 7.29042 8.025 7.40958 8.06542 7.52625C8.07417 7.55167 8.08375 7.57625 8.09292 7.60167C8.1375 7.7225 8.1875 7.84083 8.2425 7.95625L8.27167 8.01667C8.3325 8.13875 8.39875 8.25708 8.47083 8.37208L8.49375 8.40958C8.74161 8.79598 9.05113 9.13914 9.41 9.42542L9.42708 9.44083C8.95375 9.75179 8.39967 9.91722 7.83333 9.91667C6.22542 9.91667 4.91667 8.60833 4.91667 7ZM2.83333 19.5V15.3333C2.83333 12.8479 4.82208 10.8183 7.29208 10.7517C7.14708 10.8721 7.00958 11.0017 6.87792 11.1362C6.84875 11.1658 6.8225 11.1979 6.79417 11.2283C6.69326 11.3356 6.59679 11.4469 6.505 11.5621C6.47375 11.6017 6.44458 11.6429 6.41417 11.6837C6.29943 11.8367 6.19303 11.9956 6.09542 12.16C6.02375 12.2804 5.95708 12.4033 5.895 12.5296C5.87292 12.5746 5.85083 12.6192 5.82958 12.6646C5.77 12.7937 5.71667 12.9262 5.6675 13.0608C5.65083 13.1067 5.63292 13.1512 5.6175 13.1975C5.57167 13.3346 5.53292 13.4742 5.4975 13.6158C5.48583 13.6625 5.47208 13.7083 5.46167 13.7554C5.43066 13.9017 5.40564 14.0492 5.38667 14.1975C5.38042 14.2425 5.37125 14.2863 5.36625 14.3317C5.34542 14.5238 5.33333 14.7187 5.33333 14.9167V19.5H2.83333Z" fill="#545E5E"/>
<path d="M5.33333 22H18.6667V20.3333H22V15.3333C22 12.9025 20.3904 10.8413 18.1812 10.1579C19.2229 9.49083 19.9167 8.32583 19.9167 7C19.9167 4.9325 18.2346 3.25 16.1667 3.25C15.8104 3.25 15.4571 3.30333 15.1121 3.40542C14.3483 2.54583 13.2379 2 12 2C10.7621 2 9.65167 2.54583 8.88792 3.40542C8.5457 3.30311 8.19051 3.25077 7.83333 3.25C5.76542 3.25 4.08333 4.9325 4.08333 7C4.08333 8.32583 4.77708 9.49083 5.81875 10.1579C3.60958 10.8413 2 12.9025 2 15.3333V20.3333H5.33333V22ZM17.8333 21.1667H6.16667V14.9167C6.16667 14.7775 6.17542 14.64 6.1875 14.5037C6.19167 14.4592 6.19708 14.415 6.20208 14.3704C6.21333 14.2762 6.22792 14.1833 6.245 14.0912C6.25375 14.0446 6.26083 13.9975 6.27083 13.9513C6.29667 13.8317 6.32708 13.7142 6.36167 13.5979C6.37917 13.5404 6.4 13.4846 6.41958 13.4279C6.46361 13.2991 6.51338 13.1723 6.56875 13.0479C6.59542 12.9883 6.62458 12.93 6.65375 12.8717C6.69625 12.7867 6.74125 12.7033 6.78875 12.6212C6.83042 12.55 6.87208 12.4788 6.91708 12.41C6.95208 12.3567 6.98958 12.305 7.02667 12.2529C7.06583 12.1979 7.10625 12.1438 7.14792 12.0908C7.18625 12.0421 7.22458 11.9937 7.265 11.9467C7.3175 11.8854 7.37208 11.8263 7.4275 11.7679C7.54164 11.6469 7.66209 11.532 7.78833 11.4237C7.83417 11.385 7.88167 11.3479 7.92917 11.3108C7.98375 11.2683 8.03875 11.2267 8.09542 11.1867C8.14792 11.1492 8.20042 11.1121 8.255 11.0767C8.31 11.0408 8.36667 11.0079 8.42292 10.9746C8.52917 10.9117 8.63833 10.8529 8.75042 10.7983C8.80667 10.7708 8.86208 10.7421 8.91958 10.7167L8.98667 10.6867C9.54517 10.453 10.1446 10.3329 10.75 10.3333H13.25C13.8746 10.3333 14.47 10.4596 15.0129 10.6871L15.08 10.7171C15.1375 10.7421 15.1929 10.7712 15.2492 10.7987C15.3612 10.8533 15.4704 10.9121 15.5767 10.975C15.6333 11.0083 15.69 11.0412 15.7446 11.0771C15.8565 11.1505 15.9652 11.2286 16.0704 11.3112C16.1179 11.3483 16.1654 11.3854 16.2112 11.4242C16.3378 11.5321 16.4583 11.647 16.5721 11.7683C16.6275 11.8267 16.6825 11.8858 16.7346 11.9471C16.818 12.046 16.8975 12.1481 16.9729 12.2533C17.01 12.3054 17.0479 12.3567 17.0825 12.4104C17.1787 12.5594 17.2666 12.7135 17.3458 12.8721C17.375 12.9304 17.4042 12.9887 17.4308 13.0483C17.4867 13.1725 17.5364 13.2993 17.58 13.4283C17.5996 13.485 17.6204 13.5413 17.6379 13.5983C17.6729 13.7142 17.7033 13.8321 17.7288 13.9517C17.7388 13.9979 17.7463 14.045 17.7546 14.0917C17.8049 14.3638 17.8312 14.6399 17.8333 14.9167V21.1667ZM21.1667 15.3333V19.5H18.6667V14.9167C18.6667 14.7187 18.6546 14.5237 18.6338 14.3312C18.6288 14.2858 18.6192 14.2417 18.6133 14.1967C18.5944 14.0486 18.5693 13.9014 18.5383 13.7554C18.5279 13.7079 18.5138 13.6621 18.5021 13.615C18.4678 13.4743 18.428 13.335 18.3825 13.1975C18.3671 13.1512 18.3492 13.1062 18.3325 13.0608C18.2837 12.9267 18.2297 12.7945 18.1704 12.6646C18.1495 12.6192 18.1276 12.5742 18.105 12.5296C17.9591 12.2321 17.7854 11.949 17.5863 11.6842C17.5558 11.6433 17.5267 11.6021 17.495 11.5621C17.4034 11.4471 17.307 11.3358 17.2062 11.2288C17.1779 11.1983 17.1517 11.1662 17.1225 11.1367C16.9913 11.0013 16.853 10.8729 16.7083 10.7521C19.1779 10.8183 21.1667 12.8479 21.1667 15.3333ZM15.6346 4.13375C15.8104 4.10042 15.9879 4.08333 16.1667 4.08333C17.7746 4.08333 19.0833 5.39167 19.0833 7C19.0833 8.60833 17.7746 9.91667 16.1667 9.91667C15.5946 9.91667 15.0442 9.75 14.5725 9.44C14.5787 9.43542 14.5837 9.42958 14.5896 9.42458C14.9487 9.13853 15.2582 8.79533 15.5058 8.40875L15.5288 8.37125C15.6008 8.25625 15.6671 8.13792 15.7279 8.01583L15.7567 7.95583C15.8121 7.84042 15.8617 7.72208 15.9062 7.60083L15.9338 7.52583C15.9741 7.40888 16.0092 7.29015 16.0387 7.17C16.0462 7.14 16.055 7.11042 16.0617 7.08042C16.0883 6.9625 16.1083 6.8425 16.1246 6.72083C16.1292 6.68875 16.1358 6.65708 16.1392 6.62458C16.1567 6.47458 16.1667 6.32167 16.1667 6.16667C16.1667 6.00167 16.1546 5.84 16.1358 5.68C16.13 5.62917 16.1204 5.57917 16.1125 5.52833C16.0871 5.36368 16.0521 5.20063 16.0079 5.04C15.9742 4.92034 15.935 4.8023 15.8904 4.68625C15.8779 4.65417 15.8679 4.62125 15.855 4.58958C15.792 4.43608 15.7197 4.28651 15.6388 4.14167C15.6367 4.13875 15.6358 4.13625 15.6346 4.13375ZM14.5679 4.04375L14.5933 4.07667C14.6137 4.10208 14.6321 4.12875 14.6517 4.15458C14.8642 4.43417 15.0267 4.73875 15.1408 5.06C15.1483 5.08083 15.1567 5.10125 15.1637 5.1225C15.2133 5.27208 15.2508 5.425 15.2787 5.58083C15.2846 5.61333 15.2892 5.64667 15.2937 5.67958C15.3171 5.84 15.3333 6.00208 15.3333 6.16667C15.3333 6.30333 15.3229 6.43833 15.3063 6.57208C15.3025 6.60333 15.2967 6.63417 15.2921 6.66542C15.2755 6.77536 15.2534 6.88439 15.2258 6.99208C15.22 7.01458 15.2146 7.0375 15.2083 7.06C15.1335 7.32763 15.0256 7.58489 14.8871 7.82583L14.8796 7.83833C14.8121 7.95387 14.7377 8.06519 14.6567 8.17167L14.6346 8.20125C14.4637 8.42233 14.2658 8.62111 14.0454 8.79292L14.0058 8.8225C13.9025 8.9009 13.7947 8.97324 13.6829 9.03917C13.6629 9.05083 13.6442 9.06375 13.6237 9.075L13.5763 9.1025C13.1062 9.35583 12.57 9.5 12 9.5C11.43 9.5 10.8938 9.35583 10.4242 9.1025L10.3767 9.075C10.3567 9.06375 10.3375 9.05083 10.3175 9.03917C10.2058 8.97324 10.0979 8.9009 9.99458 8.8225L9.955 8.79292C9.73484 8.62089 9.53693 8.42214 9.36583 8.20125L9.34375 8.17167C9.26288 8.06509 9.18844 7.95378 9.12083 7.83833L9.11333 7.82583C8.97463 7.58481 8.86657 7.3274 8.79167 7.05958C8.78542 7.0375 8.78 7.01458 8.77417 6.9925C8.74661 6.88465 8.7245 6.77549 8.70792 6.66542C8.70333 6.63417 8.6975 6.60375 8.69375 6.57208C8.67634 6.43763 8.66729 6.30224 8.66667 6.16667C8.66667 6.00208 8.68292 5.84 8.70625 5.68C8.71125 5.64708 8.71542 5.61417 8.72125 5.58125C8.74917 5.42583 8.78667 5.2725 8.83625 5.12292C8.84333 5.10167 8.85167 5.08125 8.85917 5.06042C8.97438 4.73511 9.1394 4.42967 9.34833 4.155C9.36792 4.12917 9.38625 4.10208 9.40667 4.07708L9.43208 4.04417C9.74423 3.66532 10.1363 3.36022 10.5803 3.15075C11.0242 2.94129 11.509 2.83264 11.9999 2.8326C12.4908 2.83256 12.9756 2.94113 13.4196 3.15052C13.8636 3.35992 14.2557 3.66495 14.5679 4.04375ZM4.91667 7C4.91667 5.39167 6.22542 4.08333 7.83333 4.08333C8.01208 4.08333 8.18958 4.10042 8.36542 4.13375L8.36167 4.14167C8.28125 4.28583 8.20875 4.435 8.14542 4.58917C8.13208 4.62125 8.12208 4.65417 8.10958 4.68667C8.04583 4.85331 7.99308 5.02395 7.95167 5.1975C7.92583 5.30625 7.905 5.41667 7.8875 5.52833C7.87958 5.57875 7.87042 5.62875 7.86417 5.68C7.84542 5.84 7.83333 6.00167 7.83333 6.16667C7.83333 6.32167 7.84333 6.47458 7.86 6.625C7.86375 6.6575 7.87042 6.68875 7.87458 6.72083C7.89083 6.8425 7.91125 6.96292 7.9375 7.08083C7.94417 7.11083 7.95292 7.14 7.96042 7.16958C7.99042 7.29042 8.025 7.40958 8.06542 7.52625C8.07417 7.55167 8.08375 7.57625 8.09292 7.60167C8.1375 7.7225 8.1875 7.84083 8.2425 7.95625L8.27167 8.01667C8.3325 8.13875 8.39875 8.25708 8.47083 8.37208L8.49375 8.40958C8.74161 8.79598 9.05113 9.13914 9.41 9.42542L9.42708 9.44083C8.95375 9.75179 8.39967 9.91722 7.83333 9.91667C6.22542 9.91667 4.91667 8.60833 4.91667 7ZM2.83333 19.5V15.3333C2.83333 12.8479 4.82208 10.8183 7.29208 10.7517C7.14708 10.8721 7.00958 11.0017 6.87792 11.1362C6.84875 11.1658 6.8225 11.1979 6.79417 11.2283C6.69326 11.3356 6.59679 11.4469 6.505 11.5621C6.47375 11.6017 6.44458 11.6429 6.41417 11.6837C6.29943 11.8367 6.19303 11.9956 6.09542 12.16C6.02375 12.2804 5.95708 12.4033 5.895 12.5296C5.87292 12.5746 5.85083 12.6192 5.82958 12.6646C5.77 12.7937 5.71667 12.9262 5.6675 13.0608C5.65083 13.1067 5.63292 13.1512 5.6175 13.1975C5.57167 13.3346 5.53292 13.4742 5.4975 13.6158C5.48583 13.6625 5.47208 13.7083 5.46167 13.7554C5.43066 13.9017 5.40564 14.0492 5.38667 14.1975C5.38042 14.2425 5.37125 14.2863 5.36625 14.3317C5.34542 14.5238 5.33333 14.7187 5.33333 14.9167V19.5H2.83333Z" stroke="#545E5E" stroke-width="0.6" mask="url(#path-1-outside-1_4857_9852)"/>
</svg>
