<svg width="22" height="22" viewBox="0 0 22 5" fill="none" xmlns="http://www.w3.org/2000/svg">
    <mask id="path-1-outside-1_4249_1968" maskUnits="userSpaceOnUse" x="0" y="0" width="22" height="22" fill="black">
        <rect fill="white" width="22" height="22" />
        <path
            d="M4.33333 21H17.6667V19.3333H21V14.3333C21 11.9025 19.3904 9.84125 17.1812 9.15792C18.2229 8.49083 18.9167 7.32583 18.9167 6C18.9167 3.9325 17.2346 2.25 15.1667 2.25C14.8104 2.25 14.4571 2.30333 14.1121 2.40542C13.3483 1.54583 12.2379 1 11 1C9.76208 1 8.65167 1.54583 7.88792 2.40542C7.5457 2.30311 7.19051 2.25077 6.83333 2.25C4.76542 2.25 3.08333 3.9325 3.08333 6C3.08333 7.32583 3.77708 8.49083 4.81875 9.15792C2.60958 9.84125 1 11.9025 1 14.3333V19.3333H4.33333V21ZM16.8333 20.1667H5.16667V13.9167C5.16667 13.7775 5.17542 13.64 5.1875 13.5037C5.19167 13.4592 5.19708 13.415 5.20208 13.3704C5.21333 13.2762 5.22792 13.1833 5.245 13.0912C5.25375 13.0446 5.26083 12.9975 5.27083 12.9513C5.29667 12.8317 5.32708 12.7142 5.36167 12.5979C5.37917 12.5404 5.4 12.4846 5.41958 12.4279C5.46361 12.2991 5.51338 12.1723 5.56875 12.0479C5.59542 11.9883 5.62458 11.93 5.65375 11.8717C5.69625 11.7867 5.74125 11.7033 5.78875 11.6212C5.83042 11.55 5.87208 11.4788 5.91708 11.41C5.95208 11.3567 5.98958 11.305 6.02667 11.2529C6.06583 11.1979 6.10625 11.1438 6.14792 11.0908C6.18625 11.0421 6.22458 10.9937 6.265 10.9467C6.3175 10.8854 6.37208 10.8263 6.4275 10.7679C6.54164 10.6469 6.66209 10.532 6.78833 10.4237C6.83417 10.385 6.88167 10.3479 6.92917 10.3108C6.98375 10.2683 7.03875 10.2267 7.09542 10.1867C7.14792 10.1492 7.20042 10.1121 7.255 10.0767C7.31 10.0408 7.36667 10.0079 7.42292 9.97458C7.52917 9.91167 7.63833 9.85292 7.75042 9.79833C7.80667 9.77083 7.86208 9.74208 7.91958 9.71667L7.98667 9.68667C8.54517 9.45304 9.1446 9.33293 9.75 9.33333H12.25C12.8746 9.33333 13.47 9.45958 14.0129 9.68708L14.08 9.71708C14.1375 9.74208 14.1929 9.77125 14.2492 9.79875C14.3612 9.85333 14.4704 9.91208 14.5767 9.975C14.6333 10.0083 14.69 10.0412 14.7446 10.0771C14.8565 10.1505 14.9652 10.2286 15.0704 10.3112C15.1179 10.3483 15.1654 10.3854 15.2112 10.4242C15.3378 10.5321 15.4583 10.647 15.5721 10.7683C15.6275 10.8267 15.6825 10.8858 15.7346 10.9471C15.818 11.046 15.8975 11.1481 15.9729 11.2533C16.01 11.3054 16.0479 11.3567 16.0825 11.4104C16.1787 11.5594 16.2666 11.7135 16.3458 11.8721C16.375 11.9304 16.4042 11.9887 16.4308 12.0483C16.4867 12.1725 16.5364 12.2993 16.58 12.4283C16.5996 12.485 16.6204 12.5413 16.6379 12.5983C16.6729 12.7142 16.7033 12.8321 16.7288 12.9517C16.7388 12.9979 16.7463 13.045 16.7546 13.0917C16.8049 13.3638 16.8312 13.6399 16.8333 13.9167V20.1667ZM20.1667 14.3333V18.5H17.6667V13.9167C17.6667 13.7187 17.6546 13.5237 17.6338 13.3312C17.6288 13.2858 17.6192 13.2417 17.6133 13.1967C17.5944 13.0486 17.5693 12.9014 17.5383 12.7554C17.5279 12.7079 17.5138 12.6621 17.5021 12.615C17.4678 12.4743 17.428 12.335 17.3825 12.1975C17.3671 12.1512 17.3492 12.1062 17.3325 12.0608C17.2837 11.9267 17.2297 11.7945 17.1704 11.6646C17.1495 11.6192 17.1276 11.5742 17.105 11.5296C16.9591 11.2321 16.7854 10.949 16.5863 10.6842C16.5558 10.6433 16.5267 10.6021 16.495 10.5621C16.4034 10.4471 16.307 10.3358 16.2062 10.2288C16.1779 10.1983 16.1517 10.1662 16.1225 10.1367C15.9913 10.0013 15.853 9.87295 15.7083 9.75208C18.1779 9.81833 20.1667 11.8479 20.1667 14.3333ZM14.6346 3.13375C14.8104 3.10042 14.9879 3.08333 15.1667 3.08333C16.7746 3.08333 18.0833 4.39167 18.0833 6C18.0833 7.60833 16.7746 8.91667 15.1667 8.91667C14.5946 8.91667 14.0442 8.75 13.5725 8.44C13.5787 8.43542 13.5837 8.42958 13.5896 8.42458C13.9487 8.13853 14.2582 7.79533 14.5058 7.40875L14.5288 7.37125C14.6008 7.25625 14.6671 7.13792 14.7279 7.01583L14.7567 6.95583C14.8121 6.84042 14.8617 6.72208 14.9062 6.60083L14.9338 6.52583C14.9741 6.40888 15.0092 6.29015 15.0387 6.17C15.0462 6.14 15.055 6.11042 15.0617 6.08042C15.0883 5.9625 15.1083 5.8425 15.1246 5.72083C15.1292 5.68875 15.1358 5.65708 15.1392 5.62458C15.1567 5.47458 15.1667 5.32167 15.1667 5.16667C15.1667 5.00167 15.1546 4.84 15.1358 4.68C15.13 4.62917 15.1204 4.57917 15.1125 4.52833C15.0871 4.36368 15.0521 4.20063 15.0079 4.04C14.9742 3.92034 14.935 3.8023 14.8904 3.68625C14.8779 3.65417 14.8679 3.62125 14.855 3.58958C14.792 3.43608 14.7197 3.28651 14.6388 3.14167C14.6367 3.13875 14.6358 3.13625 14.6346 3.13375ZM13.5679 3.04375L13.5933 3.07667C13.6137 3.10208 13.6321 3.12875 13.6517 3.15458C13.8642 3.43417 14.0267 3.73875 14.1408 4.06C14.1483 4.08083 14.1567 4.10125 14.1637 4.1225C14.2133 4.27208 14.2508 4.425 14.2787 4.58083C14.2846 4.61333 14.2892 4.64667 14.2937 4.67958C14.3171 4.84 14.3333 5.00208 14.3333 5.16667C14.3333 5.30333 14.3229 5.43833 14.3063 5.57208C14.3025 5.60333 14.2967 5.63417 14.2921 5.66542C14.2755 5.77536 14.2534 5.88439 14.2258 5.99208C14.22 6.01458 14.2146 6.0375 14.2083 6.06C14.1335 6.32763 14.0256 6.58489 13.8871 6.82583L13.8796 6.83833C13.8121 6.95387 13.7377 7.06519 13.6567 7.17167L13.6346 7.20125C13.4637 7.42233 13.2658 7.62111 13.0454 7.79292L13.0058 7.8225C12.9025 7.9009 12.7947 7.97324 12.6829 8.03917C12.6629 8.05083 12.6442 8.06375 12.6237 8.075L12.5763 8.1025C12.1062 8.35583 11.57 8.5 11 8.5C10.43 8.5 9.89375 8.35583 9.42417 8.1025L9.37667 8.075C9.35667 8.06375 9.3375 8.05083 9.3175 8.03917C9.20576 7.97324 9.09795 7.9009 8.99458 7.8225L8.955 7.79292C8.73484 7.62089 8.53693 7.42214 8.36583 7.20125L8.34375 7.17167C8.26288 7.06509 8.18844 6.95378 8.12083 6.83833L8.11333 6.82583C7.97463 6.58481 7.86657 6.3274 7.79167 6.05958C7.78542 6.0375 7.78 6.01458 7.77417 5.9925C7.74661 5.88465 7.7245 5.77549 7.70792 5.66542C7.70333 5.63417 7.6975 5.60375 7.69375 5.57208C7.67634 5.43763 7.66729 5.30224 7.66667 5.16667C7.66667 5.00208 7.68292 4.84 7.70625 4.68C7.71125 4.64708 7.71542 4.61417 7.72125 4.58125C7.74917 4.42583 7.78667 4.2725 7.83625 4.12292C7.84333 4.10167 7.85167 4.08125 7.85917 4.06042C7.97438 3.73511 8.1394 3.42967 8.34833 3.155C8.36792 3.12917 8.38625 3.10208 8.40667 3.07708L8.43208 3.04417C8.74423 2.66532 9.13633 2.36022 9.58028 2.15075C10.0242 1.94129 10.509 1.83264 10.9999 1.8326C11.4908 1.83256 11.9756 1.94113 12.4196 2.15052C12.8636 2.35992 13.2557 2.66495 13.5679 3.04375ZM3.91667 6C3.91667 4.39167 5.22542 3.08333 6.83333 3.08333C7.01208 3.08333 7.18958 3.10042 7.36542 3.13375L7.36167 3.14167C7.28125 3.28583 7.20875 3.435 7.14542 3.58917C7.13208 3.62125 7.12208 3.65417 7.10958 3.68667C7.04583 3.85331 6.99308 4.02395 6.95167 4.1975C6.92583 4.30625 6.905 4.41667 6.8875 4.52833C6.87958 4.57875 6.87042 4.62875 6.86417 4.68C6.84542 4.84 6.83333 5.00167 6.83333 5.16667C6.83333 5.32167 6.84333 5.47458 6.86 5.625C6.86375 5.6575 6.87042 5.68875 6.87458 5.72083C6.89083 5.8425 6.91125 5.96292 6.9375 6.08083C6.94417 6.11083 6.95292 6.14 6.96042 6.16958C6.99042 6.29042 7.025 6.40958 7.06542 6.52625C7.07417 6.55167 7.08375 6.57625 7.09292 6.60167C7.1375 6.7225 7.1875 6.84083 7.2425 6.95625L7.27167 7.01667C7.3325 7.13875 7.39875 7.25708 7.47083 7.37208L7.49375 7.40958C7.74161 7.79598 8.05113 8.13914 8.41 8.42542L8.42708 8.44083C7.95375 8.75179 7.39967 8.91722 6.83333 8.91667C5.22542 8.91667 3.91667 7.60833 3.91667 6ZM1.83333 18.5V14.3333C1.83333 11.8479 3.82208 9.81833 6.29208 9.75167C6.14708 9.87208 6.00958 10.0017 5.87792 10.1362C5.84875 10.1658 5.8225 10.1979 5.79417 10.2283C5.69326 10.3356 5.59679 10.4469 5.505 10.5621C5.47375 10.6017 5.44458 10.6429 5.41417 10.6837C5.29943 10.8367 5.19303 10.9956 5.09542 11.16C5.02375 11.2804 4.95708 11.4033 4.895 11.5296C4.87292 11.5746 4.85083 11.6192 4.82958 11.6646C4.77 11.7937 4.71667 11.9262 4.6675 12.0608C4.65083 12.1067 4.63292 12.1512 4.6175 12.1975C4.57167 12.3346 4.53292 12.4742 4.4975 12.6158C4.48583 12.6625 4.47208 12.7083 4.46167 12.7554C4.43066 12.9017 4.40564 13.0492 4.38667 13.1975C4.38042 13.2425 4.37125 13.2863 4.36625 13.3317C4.34542 13.5238 4.33333 13.7187 4.33333 13.9167V18.5H1.83333Z" />
    </mask>
    <path
        d="M4.33333 21H17.6667V19.3333H21V14.3333C21 11.9025 19.3904 9.84125 17.1812 9.15792C18.2229 8.49083 18.9167 7.32583 18.9167 6C18.9167 3.9325 17.2346 2.25 15.1667 2.25C14.8104 2.25 14.4571 2.30333 14.1121 2.40542C13.3483 1.54583 12.2379 1 11 1C9.76208 1 8.65167 1.54583 7.88792 2.40542C7.5457 2.30311 7.19051 2.25077 6.83333 2.25C4.76542 2.25 3.08333 3.9325 3.08333 6C3.08333 7.32583 3.77708 8.49083 4.81875 9.15792C2.60958 9.84125 1 11.9025 1 14.3333V19.3333H4.33333V21ZM16.8333 20.1667H5.16667V13.9167C5.16667 13.7775 5.17542 13.64 5.1875 13.5037C5.19167 13.4592 5.19708 13.415 5.20208 13.3704C5.21333 13.2762 5.22792 13.1833 5.245 13.0912C5.25375 13.0446 5.26083 12.9975 5.27083 12.9513C5.29667 12.8317 5.32708 12.7142 5.36167 12.5979C5.37917 12.5404 5.4 12.4846 5.41958 12.4279C5.46361 12.2991 5.51338 12.1723 5.56875 12.0479C5.59542 11.9883 5.62458 11.93 5.65375 11.8717C5.69625 11.7867 5.74125 11.7033 5.78875 11.6212C5.83042 11.55 5.87208 11.4788 5.91708 11.41C5.95208 11.3567 5.98958 11.305 6.02667 11.2529C6.06583 11.1979 6.10625 11.1438 6.14792 11.0908C6.18625 11.0421 6.22458 10.9937 6.265 10.9467C6.3175 10.8854 6.37208 10.8263 6.4275 10.7679C6.54164 10.6469 6.66209 10.532 6.78833 10.4237C6.83417 10.385 6.88167 10.3479 6.92917 10.3108C6.98375 10.2683 7.03875 10.2267 7.09542 10.1867C7.14792 10.1492 7.20042 10.1121 7.255 10.0767C7.31 10.0408 7.36667 10.0079 7.42292 9.97458C7.52917 9.91167 7.63833 9.85292 7.75042 9.79833C7.80667 9.77083 7.86208 9.74208 7.91958 9.71667L7.98667 9.68667C8.54517 9.45304 9.1446 9.33293 9.75 9.33333H12.25C12.8746 9.33333 13.47 9.45958 14.0129 9.68708L14.08 9.71708C14.1375 9.74208 14.1929 9.77125 14.2492 9.79875C14.3612 9.85333 14.4704 9.91208 14.5767 9.975C14.6333 10.0083 14.69 10.0412 14.7446 10.0771C14.8565 10.1505 14.9652 10.2286 15.0704 10.3112C15.1179 10.3483 15.1654 10.3854 15.2112 10.4242C15.3378 10.5321 15.4583 10.647 15.5721 10.7683C15.6275 10.8267 15.6825 10.8858 15.7346 10.9471C15.818 11.046 15.8975 11.1481 15.9729 11.2533C16.01 11.3054 16.0479 11.3567 16.0825 11.4104C16.1787 11.5594 16.2666 11.7135 16.3458 11.8721C16.375 11.9304 16.4042 11.9887 16.4308 12.0483C16.4867 12.1725 16.5364 12.2993 16.58 12.4283C16.5996 12.485 16.6204 12.5413 16.6379 12.5983C16.6729 12.7142 16.7033 12.8321 16.7288 12.9517C16.7388 12.9979 16.7463 13.045 16.7546 13.0917C16.8049 13.3638 16.8312 13.6399 16.8333 13.9167V20.1667ZM20.1667 14.3333V18.5H17.6667V13.9167C17.6667 13.7187 17.6546 13.5237 17.6338 13.3312C17.6288 13.2858 17.6192 13.2417 17.6133 13.1967C17.5944 13.0486 17.5693 12.9014 17.5383 12.7554C17.5279 12.7079 17.5138 12.6621 17.5021 12.615C17.4678 12.4743 17.428 12.335 17.3825 12.1975C17.3671 12.1512 17.3492 12.1062 17.3325 12.0608C17.2837 11.9267 17.2297 11.7945 17.1704 11.6646C17.1495 11.6192 17.1276 11.5742 17.105 11.5296C16.9591 11.2321 16.7854 10.949 16.5863 10.6842C16.5558 10.6433 16.5267 10.6021 16.495 10.5621C16.4034 10.4471 16.307 10.3358 16.2062 10.2288C16.1779 10.1983 16.1517 10.1662 16.1225 10.1367C15.9913 10.0013 15.853 9.87295 15.7083 9.75208C18.1779 9.81833 20.1667 11.8479 20.1667 14.3333ZM14.6346 3.13375C14.8104 3.10042 14.9879 3.08333 15.1667 3.08333C16.7746 3.08333 18.0833 4.39167 18.0833 6C18.0833 7.60833 16.7746 8.91667 15.1667 8.91667C14.5946 8.91667 14.0442 8.75 13.5725 8.44C13.5787 8.43542 13.5837 8.42958 13.5896 8.42458C13.9487 8.13853 14.2582 7.79533 14.5058 7.40875L14.5288 7.37125C14.6008 7.25625 14.6671 7.13792 14.7279 7.01583L14.7567 6.95583C14.8121 6.84042 14.8617 6.72208 14.9062 6.60083L14.9338 6.52583C14.9741 6.40888 15.0092 6.29015 15.0387 6.17C15.0462 6.14 15.055 6.11042 15.0617 6.08042C15.0883 5.9625 15.1083 5.8425 15.1246 5.72083C15.1292 5.68875 15.1358 5.65708 15.1392 5.62458C15.1567 5.47458 15.1667 5.32167 15.1667 5.16667C15.1667 5.00167 15.1546 4.84 15.1358 4.68C15.13 4.62917 15.1204 4.57917 15.1125 4.52833C15.0871 4.36368 15.0521 4.20063 15.0079 4.04C14.9742 3.92034 14.935 3.8023 14.8904 3.68625C14.8779 3.65417 14.8679 3.62125 14.855 3.58958C14.792 3.43608 14.7197 3.28651 14.6388 3.14167C14.6367 3.13875 14.6358 3.13625 14.6346 3.13375ZM13.5679 3.04375L13.5933 3.07667C13.6137 3.10208 13.6321 3.12875 13.6517 3.15458C13.8642 3.43417 14.0267 3.73875 14.1408 4.06C14.1483 4.08083 14.1567 4.10125 14.1637 4.1225C14.2133 4.27208 14.2508 4.425 14.2787 4.58083C14.2846 4.61333 14.2892 4.64667 14.2937 4.67958C14.3171 4.84 14.3333 5.00208 14.3333 5.16667C14.3333 5.30333 14.3229 5.43833 14.3063 5.57208C14.3025 5.60333 14.2967 5.63417 14.2921 5.66542C14.2755 5.77536 14.2534 5.88439 14.2258 5.99208C14.22 6.01458 14.2146 6.0375 14.2083 6.06C14.1335 6.32763 14.0256 6.58489 13.8871 6.82583L13.8796 6.83833C13.8121 6.95387 13.7377 7.06519 13.6567 7.17167L13.6346 7.20125C13.4637 7.42233 13.2658 7.62111 13.0454 7.79292L13.0058 7.8225C12.9025 7.9009 12.7947 7.97324 12.6829 8.03917C12.6629 8.05083 12.6442 8.06375 12.6237 8.075L12.5763 8.1025C12.1062 8.35583 11.57 8.5 11 8.5C10.43 8.5 9.89375 8.35583 9.42417 8.1025L9.37667 8.075C9.35667 8.06375 9.3375 8.05083 9.3175 8.03917C9.20576 7.97324 9.09795 7.9009 8.99458 7.8225L8.955 7.79292C8.73484 7.62089 8.53693 7.42214 8.36583 7.20125L8.34375 7.17167C8.26288 7.06509 8.18844 6.95378 8.12083 6.83833L8.11333 6.82583C7.97463 6.58481 7.86657 6.3274 7.79167 6.05958C7.78542 6.0375 7.78 6.01458 7.77417 5.9925C7.74661 5.88465 7.7245 5.77549 7.70792 5.66542C7.70333 5.63417 7.6975 5.60375 7.69375 5.57208C7.67634 5.43763 7.66729 5.30224 7.66667 5.16667C7.66667 5.00208 7.68292 4.84 7.70625 4.68C7.71125 4.64708 7.71542 4.61417 7.72125 4.58125C7.74917 4.42583 7.78667 4.2725 7.83625 4.12292C7.84333 4.10167 7.85167 4.08125 7.85917 4.06042C7.97438 3.73511 8.1394 3.42967 8.34833 3.155C8.36792 3.12917 8.38625 3.10208 8.40667 3.07708L8.43208 3.04417C8.74423 2.66532 9.13633 2.36022 9.58028 2.15075C10.0242 1.94129 10.509 1.83264 10.9999 1.8326C11.4908 1.83256 11.9756 1.94113 12.4196 2.15052C12.8636 2.35992 13.2557 2.66495 13.5679 3.04375ZM3.91667 6C3.91667 4.39167 5.22542 3.08333 6.83333 3.08333C7.01208 3.08333 7.18958 3.10042 7.36542 3.13375L7.36167 3.14167C7.28125 3.28583 7.20875 3.435 7.14542 3.58917C7.13208 3.62125 7.12208 3.65417 7.10958 3.68667C7.04583 3.85331 6.99308 4.02395 6.95167 4.1975C6.92583 4.30625 6.905 4.41667 6.8875 4.52833C6.87958 4.57875 6.87042 4.62875 6.86417 4.68C6.84542 4.84 6.83333 5.00167 6.83333 5.16667C6.83333 5.32167 6.84333 5.47458 6.86 5.625C6.86375 5.6575 6.87042 5.68875 6.87458 5.72083C6.89083 5.8425 6.91125 5.96292 6.9375 6.08083C6.94417 6.11083 6.95292 6.14 6.96042 6.16958C6.99042 6.29042 7.025 6.40958 7.06542 6.52625C7.07417 6.55167 7.08375 6.57625 7.09292 6.60167C7.1375 6.7225 7.1875 6.84083 7.2425 6.95625L7.27167 7.01667C7.3325 7.13875 7.39875 7.25708 7.47083 7.37208L7.49375 7.40958C7.74161 7.79598 8.05113 8.13914 8.41 8.42542L8.42708 8.44083C7.95375 8.75179 7.39967 8.91722 6.83333 8.91667C5.22542 8.91667 3.91667 7.60833 3.91667 6ZM1.83333 18.5V14.3333C1.83333 11.8479 3.82208 9.81833 6.29208 9.75167C6.14708 9.87208 6.00958 10.0017 5.87792 10.1362C5.84875 10.1658 5.8225 10.1979 5.79417 10.2283C5.69326 10.3356 5.59679 10.4469 5.505 10.5621C5.47375 10.6017 5.44458 10.6429 5.41417 10.6837C5.29943 10.8367 5.19303 10.9956 5.09542 11.16C5.02375 11.2804 4.95708 11.4033 4.895 11.5296C4.87292 11.5746 4.85083 11.6192 4.82958 11.6646C4.77 11.7937 4.71667 11.9262 4.6675 12.0608C4.65083 12.1067 4.63292 12.1512 4.6175 12.1975C4.57167 12.3346 4.53292 12.4742 4.4975 12.6158C4.48583 12.6625 4.47208 12.7083 4.46167 12.7554C4.43066 12.9017 4.40564 13.0492 4.38667 13.1975C4.38042 13.2425 4.37125 13.2863 4.36625 13.3317C4.34542 13.5238 4.33333 13.7187 4.33333 13.9167V18.5H1.83333Z"
        fill="#545E5E" />
    <path
        d="M4.33333 21H17.6667V19.3333H21V14.3333C21 11.9025 19.3904 9.84125 17.1812 9.15792C18.2229 8.49083 18.9167 7.32583 18.9167 6C18.9167 3.9325 17.2346 2.25 15.1667 2.25C14.8104 2.25 14.4571 2.30333 14.1121 2.40542C13.3483 1.54583 12.2379 1 11 1C9.76208 1 8.65167 1.54583 7.88792 2.40542C7.5457 2.30311 7.19051 2.25077 6.83333 2.25C4.76542 2.25 3.08333 3.9325 3.08333 6C3.08333 7.32583 3.77708 8.49083 4.81875 9.15792C2.60958 9.84125 1 11.9025 1 14.3333V19.3333H4.33333V21ZM16.8333 20.1667H5.16667V13.9167C5.16667 13.7775 5.17542 13.64 5.1875 13.5037C5.19167 13.4592 5.19708 13.415 5.20208 13.3704C5.21333 13.2762 5.22792 13.1833 5.245 13.0912C5.25375 13.0446 5.26083 12.9975 5.27083 12.9513C5.29667 12.8317 5.32708 12.7142 5.36167 12.5979C5.37917 12.5404 5.4 12.4846 5.41958 12.4279C5.46361 12.2991 5.51338 12.1723 5.56875 12.0479C5.59542 11.9883 5.62458 11.93 5.65375 11.8717C5.69625 11.7867 5.74125 11.7033 5.78875 11.6212C5.83042 11.55 5.87208 11.4788 5.91708 11.41C5.95208 11.3567 5.98958 11.305 6.02667 11.2529C6.06583 11.1979 6.10625 11.1438 6.14792 11.0908C6.18625 11.0421 6.22458 10.9937 6.265 10.9467C6.3175 10.8854 6.37208 10.8263 6.4275 10.7679C6.54164 10.6469 6.66209 10.532 6.78833 10.4237C6.83417 10.385 6.88167 10.3479 6.92917 10.3108C6.98375 10.2683 7.03875 10.2267 7.09542 10.1867C7.14792 10.1492 7.20042 10.1121 7.255 10.0767C7.31 10.0408 7.36667 10.0079 7.42292 9.97458C7.52917 9.91167 7.63833 9.85292 7.75042 9.79833C7.80667 9.77083 7.86208 9.74208 7.91958 9.71667L7.98667 9.68667C8.54517 9.45304 9.1446 9.33293 9.75 9.33333H12.25C12.8746 9.33333 13.47 9.45958 14.0129 9.68708L14.08 9.71708C14.1375 9.74208 14.1929 9.77125 14.2492 9.79875C14.3612 9.85333 14.4704 9.91208 14.5767 9.975C14.6333 10.0083 14.69 10.0412 14.7446 10.0771C14.8565 10.1505 14.9652 10.2286 15.0704 10.3112C15.1179 10.3483 15.1654 10.3854 15.2112 10.4242C15.3378 10.5321 15.4583 10.647 15.5721 10.7683C15.6275 10.8267 15.6825 10.8858 15.7346 10.9471C15.818 11.046 15.8975 11.1481 15.9729 11.2533C16.01 11.3054 16.0479 11.3567 16.0825 11.4104C16.1787 11.5594 16.2666 11.7135 16.3458 11.8721C16.375 11.9304 16.4042 11.9887 16.4308 12.0483C16.4867 12.1725 16.5364 12.2993 16.58 12.4283C16.5996 12.485 16.6204 12.5413 16.6379 12.5983C16.6729 12.7142 16.7033 12.8321 16.7288 12.9517C16.7388 12.9979 16.7463 13.045 16.7546 13.0917C16.8049 13.3638 16.8312 13.6399 16.8333 13.9167V20.1667ZM20.1667 14.3333V18.5H17.6667V13.9167C17.6667 13.7187 17.6546 13.5237 17.6338 13.3312C17.6288 13.2858 17.6192 13.2417 17.6133 13.1967C17.5944 13.0486 17.5693 12.9014 17.5383 12.7554C17.5279 12.7079 17.5138 12.6621 17.5021 12.615C17.4678 12.4743 17.428 12.335 17.3825 12.1975C17.3671 12.1512 17.3492 12.1062 17.3325 12.0608C17.2837 11.9267 17.2297 11.7945 17.1704 11.6646C17.1495 11.6192 17.1276 11.5742 17.105 11.5296C16.9591 11.2321 16.7854 10.949 16.5863 10.6842C16.5558 10.6433 16.5267 10.6021 16.495 10.5621C16.4034 10.4471 16.307 10.3358 16.2062 10.2288C16.1779 10.1983 16.1517 10.1662 16.1225 10.1367C15.9913 10.0013 15.853 9.87295 15.7083 9.75208C18.1779 9.81833 20.1667 11.8479 20.1667 14.3333ZM14.6346 3.13375C14.8104 3.10042 14.9879 3.08333 15.1667 3.08333C16.7746 3.08333 18.0833 4.39167 18.0833 6C18.0833 7.60833 16.7746 8.91667 15.1667 8.91667C14.5946 8.91667 14.0442 8.75 13.5725 8.44C13.5787 8.43542 13.5837 8.42958 13.5896 8.42458C13.9487 8.13853 14.2582 7.79533 14.5058 7.40875L14.5288 7.37125C14.6008 7.25625 14.6671 7.13792 14.7279 7.01583L14.7567 6.95583C14.8121 6.84042 14.8617 6.72208 14.9062 6.60083L14.9338 6.52583C14.9741 6.40888 15.0092 6.29015 15.0387 6.17C15.0462 6.14 15.055 6.11042 15.0617 6.08042C15.0883 5.9625 15.1083 5.8425 15.1246 5.72083C15.1292 5.68875 15.1358 5.65708 15.1392 5.62458C15.1567 5.47458 15.1667 5.32167 15.1667 5.16667C15.1667 5.00167 15.1546 4.84 15.1358 4.68C15.13 4.62917 15.1204 4.57917 15.1125 4.52833C15.0871 4.36368 15.0521 4.20063 15.0079 4.04C14.9742 3.92034 14.935 3.8023 14.8904 3.68625C14.8779 3.65417 14.8679 3.62125 14.855 3.58958C14.792 3.43608 14.7197 3.28651 14.6388 3.14167C14.6367 3.13875 14.6358 3.13625 14.6346 3.13375ZM13.5679 3.04375L13.5933 3.07667C13.6137 3.10208 13.6321 3.12875 13.6517 3.15458C13.8642 3.43417 14.0267 3.73875 14.1408 4.06C14.1483 4.08083 14.1567 4.10125 14.1637 4.1225C14.2133 4.27208 14.2508 4.425 14.2787 4.58083C14.2846 4.61333 14.2892 4.64667 14.2937 4.67958C14.3171 4.84 14.3333 5.00208 14.3333 5.16667C14.3333 5.30333 14.3229 5.43833 14.3063 5.57208C14.3025 5.60333 14.2967 5.63417 14.2921 5.66542C14.2755 5.77536 14.2534 5.88439 14.2258 5.99208C14.22 6.01458 14.2146 6.0375 14.2083 6.06C14.1335 6.32763 14.0256 6.58489 13.8871 6.82583L13.8796 6.83833C13.8121 6.95387 13.7377 7.06519 13.6567 7.17167L13.6346 7.20125C13.4637 7.42233 13.2658 7.62111 13.0454 7.79292L13.0058 7.8225C12.9025 7.9009 12.7947 7.97324 12.6829 8.03917C12.6629 8.05083 12.6442 8.06375 12.6237 8.075L12.5763 8.1025C12.1062 8.35583 11.57 8.5 11 8.5C10.43 8.5 9.89375 8.35583 9.42417 8.1025L9.37667 8.075C9.35667 8.06375 9.3375 8.05083 9.3175 8.03917C9.20576 7.97324 9.09795 7.9009 8.99458 7.8225L8.955 7.79292C8.73484 7.62089 8.53693 7.42214 8.36583 7.20125L8.34375 7.17167C8.26288 7.06509 8.18844 6.95378 8.12083 6.83833L8.11333 6.82583C7.97463 6.58481 7.86657 6.3274 7.79167 6.05958C7.78542 6.0375 7.78 6.01458 7.77417 5.9925C7.74661 5.88465 7.7245 5.77549 7.70792 5.66542C7.70333 5.63417 7.6975 5.60375 7.69375 5.57208C7.67634 5.43763 7.66729 5.30224 7.66667 5.16667C7.66667 5.00208 7.68292 4.84 7.70625 4.68C7.71125 4.64708 7.71542 4.61417 7.72125 4.58125C7.74917 4.42583 7.78667 4.2725 7.83625 4.12292C7.84333 4.10167 7.85167 4.08125 7.85917 4.06042C7.97438 3.73511 8.1394 3.42967 8.34833 3.155C8.36792 3.12917 8.38625 3.10208 8.40667 3.07708L8.43208 3.04417C8.74423 2.66532 9.13633 2.36022 9.58028 2.15075C10.0242 1.94129 10.509 1.83264 10.9999 1.8326C11.4908 1.83256 11.9756 1.94113 12.4196 2.15052C12.8636 2.35992 13.2557 2.66495 13.5679 3.04375ZM3.91667 6C3.91667 4.39167 5.22542 3.08333 6.83333 3.08333C7.01208 3.08333 7.18958 3.10042 7.36542 3.13375L7.36167 3.14167C7.28125 3.28583 7.20875 3.435 7.14542 3.58917C7.13208 3.62125 7.12208 3.65417 7.10958 3.68667C7.04583 3.85331 6.99308 4.02395 6.95167 4.1975C6.92583 4.30625 6.905 4.41667 6.8875 4.52833C6.87958 4.57875 6.87042 4.62875 6.86417 4.68C6.84542 4.84 6.83333 5.00167 6.83333 5.16667C6.83333 5.32167 6.84333 5.47458 6.86 5.625C6.86375 5.6575 6.87042 5.68875 6.87458 5.72083C6.89083 5.8425 6.91125 5.96292 6.9375 6.08083C6.94417 6.11083 6.95292 6.14 6.96042 6.16958C6.99042 6.29042 7.025 6.40958 7.06542 6.52625C7.07417 6.55167 7.08375 6.57625 7.09292 6.60167C7.1375 6.7225 7.1875 6.84083 7.2425 6.95625L7.27167 7.01667C7.3325 7.13875 7.39875 7.25708 7.47083 7.37208L7.49375 7.40958C7.74161 7.79598 8.05113 8.13914 8.41 8.42542L8.42708 8.44083C7.95375 8.75179 7.39967 8.91722 6.83333 8.91667C5.22542 8.91667 3.91667 7.60833 3.91667 6ZM1.83333 18.5V14.3333C1.83333 11.8479 3.82208 9.81833 6.29208 9.75167C6.14708 9.87208 6.00958 10.0017 5.87792 10.1362C5.84875 10.1658 5.8225 10.1979 5.79417 10.2283C5.69326 10.3356 5.59679 10.4469 5.505 10.5621C5.47375 10.6017 5.44458 10.6429 5.41417 10.6837C5.29943 10.8367 5.19303 10.9956 5.09542 11.16C5.02375 11.2804 4.95708 11.4033 4.895 11.5296C4.87292 11.5746 4.85083 11.6192 4.82958 11.6646C4.77 11.7937 4.71667 11.9262 4.6675 12.0608C4.65083 12.1067 4.63292 12.1512 4.6175 12.1975C4.57167 12.3346 4.53292 12.4742 4.4975 12.6158C4.48583 12.6625 4.47208 12.7083 4.46167 12.7554C4.43066 12.9017 4.40564 13.0492 4.38667 13.1975C4.38042 13.2425 4.37125 13.2863 4.36625 13.3317C4.34542 13.5238 4.33333 13.7187 4.33333 13.9167V18.5H1.83333Z"
        stroke="#545E5E" stroke-width="0.6" mask="url(#path-1-outside-1_4249_1968)" />
</svg>