<svg width="15" height="17" viewBox="0 0 15 17" fill="none" xmlns="http://www.w3.org/2000/svg">
    <path
        d="M7.72571 3.27835e-08C7.34601 4.93806e-08 7.03222 0.282154 6.98255 0.648229L6.97571 0.75L6.97571 15.75C6.97571 16.1642 7.3115 16.5 7.72571 16.5C8.1054 16.5 8.4192 16.2178 8.46886 15.8518L8.47571 15.75L8.47571 0.75C8.47571 0.335786 8.13992 1.46777e-08 7.72571 3.27835e-08Z"
        fill="#E72529" />
    <path
        d="M2.23278 9.17101C1.94051 8.87749 1.46564 8.87646 1.17212 9.16873C0.905279 9.43442 0.880177 9.85103 1.0974 10.1451L1.16983 10.2294L7.19383 16.2794C7.46032 16.547 7.87843 16.5714 8.17251 16.3524L8.25673 16.2794L14.2817 10.2294C14.574 9.93593 14.573 9.46105 14.2795 9.16877C14.0127 8.90305 13.596 8.87971 13.3028 9.09817L13.2189 9.17096L7.72501 14.687L2.23278 9.17101Z"
        fill="#E72529" />
</svg>