<svg width="32" height="32" viewBox="0 0 32 32" fill="none" xmlns="http://www.w3.org/2000/svg">
    <path
        d="M26.88 6.14658C25.4644 4.73059 23.5876 3.86968 21.591 3.72042C19.5943 3.57116 17.6104 4.14346 16 5.33325C14.3035 4.07143 12.192 3.49926 10.0906 3.73196C7.98912 3.96467 6.05391 4.98495 4.67462 6.58736C3.29533 8.18977 2.57442 10.2553 2.65706 12.3679C2.7397 14.4806 3.61975 16.4835 5.11999 17.9732L15.0533 27.9066C15.1773 28.0316 15.3247 28.1307 15.4872 28.1984C15.6497 28.2661 15.824 28.301 16 28.301C16.176 28.301 16.3503 28.2661 16.5128 28.1984C16.6752 28.1307 16.8227 28.0316 16.9467 27.9066L26.88 17.9732C27.6569 17.1969 28.2731 16.275 28.6936 15.2604C29.1141 14.2458 29.3305 13.1582 29.3305 12.0599C29.3305 10.9616 29.1141 9.87406 28.6936 8.85943C28.2731 7.84479 27.6569 6.92295 26.88 6.14658ZM25 16.0932L16 25.0799L6.99999 16.0932C6.20689 15.2968 5.66662 14.284 5.44696 13.1817C5.2273 12.0794 5.33803 10.9368 5.76526 9.89724C6.19249 8.85765 6.91719 7.96737 7.84845 7.33808C8.77972 6.70878 9.87607 6.3685 11 6.35991C12.5015 6.36359 13.9401 6.96303 15 8.02658C15.1239 8.15155 15.2714 8.25075 15.4339 8.31844C15.5964 8.38613 15.7706 8.42098 15.9467 8.42098C16.1227 8.42098 16.2969 8.38613 16.4594 8.31844C16.6219 8.25075 16.7694 8.15155 16.8933 8.02658C17.9844 7.08109 19.394 6.58544 20.8367 6.63995C22.2794 6.69445 23.6476 7.29505 24.6642 8.32017C25.6809 9.34529 26.2701 10.7184 26.3126 12.1615C26.3552 13.6046 25.8478 15.01 24.8933 16.0932H25Z"
        fill="#E72529" />
</svg>