<svg width="34" height="32" viewBox="0 0 34 32" fill="none" xmlns="http://www.w3.org/2000/svg">
<path d="M7.78192 25.1165C7.50596 25.0613 7.2852 25.0061 7.00924 24.8957C6.73329 24.7853 6.51253 24.7301 6.29176 24.6198C5.79504 24.399 5.35352 24.123 4.91199 23.7919C4.02894 23.1848 3.31145 22.3569 2.75955 21.3635C2.20764 20.4253 1.87649 19.3214 1.8213 18.2728C1.76611 17.7209 1.8213 17.2242 1.87649 16.6723C1.93168 16.3963 1.98687 16.1756 2.04206 15.8996C2.09725 15.6236 2.20764 15.4029 2.26283 15.1269L2.31802 15.8996C2.31802 16.1756 2.37321 16.3963 2.4284 16.6723C2.48359 17.169 2.59397 17.6657 2.70435 18.1072C2.92512 19.0455 3.25626 19.9285 3.75298 20.7564C4.2497 21.5843 4.80161 22.3569 5.51909 23.0744C5.85024 23.4056 6.23657 23.7367 6.62291 24.0679C6.78848 24.2334 7.00924 24.399 7.23001 24.5646L7.78192 25.1165ZM7.61634 27.1034C7.45077 27.2137 7.23001 27.2689 7.00924 27.3241C6.78848 27.3793 6.62291 27.4345 6.40214 27.4345C6.01581 27.4897 5.57428 27.5449 5.13275 27.4897C4.30489 27.4345 3.42184 27.2137 2.70435 26.8274C1.93168 26.4411 1.26939 25.834 0.827864 25.1165C0.6071 24.7853 0.386336 24.399 0.220764 24.0127C0.165573 23.8471 0.110382 23.6263 0.0551909 23.4056C0.0551909 23.24 0 23.0744 0 22.8537C0.165573 23.0192 0.275955 23.1848 0.386336 23.2952C0.551909 23.4608 0.662291 23.6263 0.772673 23.7367C1.04863 24.0127 1.26939 24.2886 1.54535 24.5094C2.09725 25.0061 2.64916 25.4476 3.31145 25.7788C3.91855 26.1099 4.63604 26.3859 5.29833 26.6066C5.62947 26.717 6.01581 26.7722 6.40214 26.8826C6.56772 26.9378 6.78848 26.9378 6.95405 26.993C7.23001 27.0482 7.39558 27.0482 7.61634 27.1034ZM20.0895 0.280578C20.3654 0.335769 20.5862 0.446151 20.8622 0.556533C21.1381 0.666914 21.3589 0.777296 21.5796 0.887678C22.0764 1.16363 22.5179 1.43959 22.9594 1.77073C23.8425 2.43302 24.56 3.31608 25.0567 4.30951C25.5534 5.30295 25.8293 6.40677 25.8293 7.45539C25.8293 8.0073 25.7742 8.50402 25.6638 9.05593C25.6086 9.33188 25.5534 9.55265 25.443 9.8286C25.3326 10.1046 25.2774 10.3253 25.1671 10.5461L25.1119 9.77341C25.1119 9.49746 25.1119 9.27669 25.0567 9.00074L24.8911 7.51059C24.7255 6.57234 24.3944 5.6341 23.9529 4.75104C23.5113 3.86799 22.9594 3.09531 22.2971 2.37783C21.966 1.9915 21.5796 1.66035 21.2485 1.27401C21.0829 1.10844 20.8622 0.942869 20.6414 0.777296L20.0895 0.280578ZM24.8911 0.0598145C25.1119 0.115005 25.2774 0.170196 25.443 0.280578C25.6086 0.335769 25.8293 0.446151 25.9949 0.556533C26.3261 0.777296 26.6572 0.99806 26.9884 1.27401C27.5955 1.82592 28.0922 2.48821 28.3681 3.26089C28.6993 4.03356 28.8097 4.86142 28.6993 5.68929C28.6441 6.07562 28.5337 6.46196 28.4233 6.84829C28.3681 7.01387 28.2577 7.23463 28.2026 7.4002C28.0922 7.56578 28.037 7.73135 27.8714 7.89692V7.34501V6.7931C27.8714 6.40677 27.8162 6.07562 27.8162 5.74448C27.7058 5.02699 27.5955 4.3647 27.3195 3.7576C27.0435 3.09531 26.7124 2.5434 26.3261 1.93631C26.1053 1.66035 25.8845 1.32921 25.6638 1.05325C25.5534 0.887678 25.443 0.777296 25.2774 0.611723C25.1671 0.335769 25.0015 0.170196 24.8911 0.0598145Z" fill="#42ADE2"/>
<path d="M4.4152 8.28329C3.31138 8.78001 2.92505 10.1046 3.42176 11.2084L10.3758 25.7236L14.2392 23.9023L7.28513 9.33192C6.78841 8.2281 5.51902 7.73139 4.4152 8.28329ZM22.6834 19.8182L26.7675 17.8865L18.82 1.32924C18.2681 0.225423 16.9435 -0.271295 15.7845 0.280614C14.6807 0.832523 14.184 2.1571 14.7359 3.31611L22.6834 19.8182Z" fill="#FFDD67"/>
<path d="M15.8396 0.225468C15.7292 0.280658 15.6189 0.335849 15.5085 0.446231C16.5571 0.170277 17.6609 0.666995 18.1576 1.66043L26.1051 18.2177L26.8226 17.8866L18.8751 1.32929C18.3232 0.170277 16.9986 -0.326441 15.8396 0.225468Z" fill="#EBA352"/>
<path d="M14.2389 23.8472L18.4886 21.8051L10.3756 4.91671C9.82368 3.7577 8.38872 3.20579 7.22971 3.7577C6.0707 4.30961 5.57398 5.74458 6.12589 6.90358L14.2389 23.8472Z" fill="#FFDD67"/>
<path d="M7.23004 3.81293C7.11966 3.86812 7.00928 3.92331 6.8989 4.03369C7.94752 3.75774 9.16172 4.25446 9.65844 5.30308L14.6808 15.8445L15.895 16.562L10.3759 4.97194C9.82401 3.75774 8.44424 3.26102 7.23004 3.81293Z" fill="#EBA352"/>
<path d="M17.8263 20.4806L22.076 18.4385L13.963 1.55008C13.411 0.391068 11.9761 -0.160841 10.8171 0.446259C9.65807 0.998168 9.16135 2.43313 9.71326 3.59214L17.8263 20.4806Z" fill="#FFDD67"/>
<path d="M10.8175 0.391052C10.7071 0.446243 10.5967 0.556625 10.4863 0.611816C11.5349 0.335862 12.7491 0.83258 13.2459 1.88121L18.9305 13.8024L20.1447 14.5199L13.9633 1.55006C13.4114 0.335862 11.9765 -0.160856 10.8175 0.391052ZM4.41531 8.28335C4.30493 8.33854 4.19455 8.39373 4.08417 8.50411C5.0776 8.22816 6.12623 8.72488 6.56776 9.71831L10.7071 18.3833L11.9213 19.1008L7.28524 9.38717C6.78852 8.22816 5.51913 7.73144 4.41531 8.28335Z" fill="#EBA352"/>
<path d="M32.4524 6.62751C30.9623 5.4685 28.5339 6.73789 27.3197 10.7116C26.4918 13.4712 26.3814 14.299 24.6153 15.1269L23.6219 13.0848C23.6219 13.0848 7.94766 20.646 8.55476 21.8602C8.55476 21.8602 10.4312 27.7104 13.6323 30.4148C18.3787 34.4989 29.4721 30.1388 29.9688 19.5974C30.2448 13.4712 34.053 7.8969 32.4524 6.62751Z" fill="#FFDD67"/>
<path d="M32.4521 6.62755C32.1761 6.40678 31.845 6.2964 31.5138 6.24121C31.569 6.2964 31.6794 6.2964 31.7346 6.35159C33.3903 7.62098 31.6794 10.5461 30.7412 13.1953C29.9685 15.2925 29.3062 17.445 29.4166 19.5422C29.8581 28.7039 20.6412 33.064 15.1221 31.4083C20.5308 33.6711 30.5756 29.3662 30.1341 19.8182C30.0237 17.7209 30.6308 15.6789 31.4586 13.4712C32.3417 10.8221 34.0526 7.89694 32.4521 6.62755Z" fill="#EBA352"/>
<path d="M25.1113 14.9062C21.6895 15.2926 16.6671 20.2046 20.1994 25.5581C17.6054 20.1494 21.8551 16.5068 24.5594 15.2374C24.8354 15.0166 25.1113 14.9062 25.1113 14.9062Z" fill="#EBA352"/>
</svg>
