<svg width="24" height="24" viewBox="0 0 24 24" fill="none" xmlns="http://www.w3.org/2000/svg">
<path d="M15.3601 11.0065C15.6155 10.5667 15.7105 10.0518 15.6289 9.54974C15.5138 8.83977 15.1496 8.19399 14.6017 7.72814C13.5505 6.82574 12.1249 6.72014 11.2393 7.44014L15.3601 11.0065Z" fill="white"/>
<path d="M8.95437 19.207L7.41357 20.9806L16.632 22.5406L18.2088 20.7238L8.95437 19.207Z" fill="#EC6568"/>
<path d="M7.23098 4.89111L4.99658 15.0335L8.69018 18.2447L18.4222 14.6207L7.23098 4.89111Z" fill="#70C8F2"/>
<path d="M15.8904 11.479C16.2799 10.8787 16.4329 10.1553 16.32 9.44863C16.1796 8.57236 15.7311 7.77495 15.0552 7.19983C13.716 6.03583 11.8368 5.96143 10.6944 6.95983L7.24559 3.96223C7.19908 3.9216 7.14278 3.89379 7.08224 3.88155C7.02171 3.86932 6.95902 3.87308 6.90039 3.89246C6.84175 3.91185 6.78917 3.94619 6.74786 3.99209C6.70654 4.038 6.67791 4.09388 6.66479 4.15423L4.35599 14.6398C4.27127 14.6494 4.19328 14.6905 4.13759 14.755L1.97759 17.2342C1.94696 17.2695 1.9236 17.3105 1.90884 17.3548C1.89407 17.3991 1.88819 17.4459 1.89154 17.4925C1.89488 17.5391 1.90738 17.5846 1.92832 17.6263C1.94927 17.6681 1.97824 17.7053 2.01359 17.7358L6.42479 21.5758C6.49167 21.6328 6.57696 21.6635 6.66479 21.6622H6.69118C6.74727 21.6567 6.8014 21.6387 6.84959 21.6094L16.7112 23.2894H16.7712C16.823 23.2887 16.8739 23.2764 16.9204 23.2536C16.9669 23.2308 17.0077 23.1979 17.04 23.1574L19.1688 20.7094C19.2109 20.6621 19.2396 20.6043 19.2517 20.5421C19.2638 20.4799 19.2589 20.4155 19.2375 20.3559C19.2161 20.2962 19.1791 20.2434 19.1303 20.203C19.0814 20.1626 19.0226 20.136 18.96 20.1262L9.74158 18.6142L19.2312 15.079C19.2888 15.0572 19.3398 15.0209 19.3793 14.9736C19.4188 14.9263 19.4454 14.8696 19.4565 14.809C19.4676 14.7484 19.4628 14.686 19.4427 14.6277C19.4226 14.5695 19.3877 14.5174 19.3416 14.4766L15.8904 11.479ZM4.43999 15.4894L8.31599 18.8494L6.63599 20.791L2.75999 17.431L4.43999 15.4894ZM7.41359 20.9806L8.95439 19.1998L18.2088 20.7166L16.632 22.5406L7.41359 20.9806ZM4.99679 15.0334L7.23118 4.89103L18.4224 14.6206L8.69039 18.2398L4.99679 15.0334ZM14.5968 7.72783C15.1448 8.19368 15.5089 8.83946 15.624 9.54943C15.7071 10.051 15.6138 10.5658 15.36 11.0062L11.2392 7.43983C12.1248 6.71983 13.5504 6.82543 14.5896 7.72783H14.5968Z" fill="#333333"/>
<path d="M4.44084 15.4909L2.75293 17.4326L6.62912 20.8021L8.31703 18.8604L4.44084 15.4909Z" fill="#EC6568"/>
<path d="M11.7361 2.98311C11.7779 3.02248 11.8094 3.07153 11.8278 3.12593C11.8462 3.18034 11.851 3.23844 11.8417 3.29511L11.7601 3.80871L12.2161 3.56871C12.2672 3.5422 12.324 3.52836 12.3817 3.52836C12.4393 3.52836 12.4961 3.5422 12.5473 3.56871L13.0081 3.80871L12.9169 3.29751C12.906 3.24069 12.9093 3.18207 12.9265 3.12683C12.9437 3.07158 12.9741 3.0214 13.0153 2.98071L13.3825 2.61351L12.8689 2.54631C12.8115 2.53845 12.757 2.5169 12.7098 2.48347C12.6626 2.45005 12.6241 2.40575 12.5977 2.35431L12.3577 1.89111L12.1321 2.35911C12.1066 2.41085 12.0692 2.45572 12.0228 2.48997C11.9765 2.52422 11.9226 2.54683 11.8657 2.55591L11.3521 2.63511L11.7361 2.98311Z" fill="#FECB37"/>
<path d="M11.1098 3.35981L10.9442 4.39901C10.9331 4.46434 10.9407 4.53149 10.9662 4.59266C10.9917 4.65383 11.034 4.70652 11.0882 4.74461C11.142 4.78369 11.2057 4.80669 11.272 4.81094C11.3382 4.81519 11.4044 4.80051 11.4626 4.76861L12.389 4.26941L13.325 4.74941C13.3841 4.77921 13.4503 4.79204 13.5162 4.78646C13.5822 4.78088 13.6453 4.75712 13.6985 4.71782C13.7517 4.67852 13.793 4.62522 13.8178 4.56385C13.8425 4.50248 13.8497 4.43545 13.8386 4.37021L13.649 3.33341L14.4002 2.59901C14.4475 2.55224 14.4807 2.49313 14.4961 2.42841C14.5114 2.36369 14.5083 2.29596 14.4871 2.23293C14.4658 2.1699 14.4273 2.11411 14.3758 2.07191C14.3244 2.0297 14.2622 2.00278 14.1962 1.99421L13.1522 1.85261L12.6722 0.914213C12.6426 0.854615 12.5967 0.804682 12.5397 0.770255C12.4828 0.735828 12.4172 0.718332 12.3506 0.719813C12.2844 0.721011 12.2198 0.740466 12.1639 0.776036C12.108 0.811607 12.063 0.861912 12.0338 0.921413L11.5802 1.88141L10.5386 2.04461C10.474 2.05487 10.4134 2.08267 10.3635 2.12499C10.3135 2.16731 10.2762 2.22252 10.2554 2.28461C10.2369 2.34671 10.2359 2.4127 10.2524 2.47536C10.2689 2.53801 10.3023 2.59491 10.349 2.63981L11.1098 3.35981ZM12.1394 2.33981L12.365 1.87181L12.605 2.33501C12.6315 2.38645 12.67 2.43075 12.7172 2.46417C12.7644 2.4976 12.8189 2.51915 12.8762 2.52701L13.3898 2.59421L13.0226 2.96141C12.9815 3.0021 12.951 3.05228 12.9339 3.10753C12.9167 3.16277 12.9134 3.22139 12.9242 3.27821L13.0154 3.78941L12.5546 3.54941C12.5035 3.5229 12.4467 3.50906 12.389 3.50906C12.3314 3.50906 12.2746 3.5229 12.2234 3.54941L11.7674 3.78941L11.849 3.27581C11.8584 3.21914 11.8536 3.16104 11.8352 3.10663C11.8168 3.05223 11.7853 3.00318 11.7434 2.96381L11.3666 2.60381L11.8802 2.52461C11.9341 2.51653 11.9853 2.49635 12.0302 2.46558C12.0751 2.43482 12.1125 2.39428 12.1394 2.34701V2.33981Z" fill="#333333"/>
<path d="M17.8226 3.02872C17.8645 3.06809 17.896 3.11713 17.9144 3.17154C17.9328 3.22595 17.9376 3.28404 17.9282 3.34072L17.8466 3.85432L18.3026 3.61432C18.3538 3.58781 18.4106 3.57397 18.4682 3.57397C18.5259 3.57397 18.5827 3.58781 18.6338 3.61432L19.097 3.85432L19.0034 3.34312C18.993 3.2863 18.9965 3.22779 19.0137 3.17262C19.0308 3.11745 19.0611 3.06725 19.1018 3.02632L19.469 2.63992L18.9602 2.57992C18.9034 2.57151 18.8494 2.54971 18.8027 2.51633C18.756 2.48295 18.7178 2.43894 18.6914 2.38792L18.4514 1.91992L18.2258 2.39992C18.2008 2.4519 18.1634 2.49698 18.117 2.53127C18.0706 2.56556 18.0165 2.58803 17.9594 2.59672L17.4482 2.67592L17.8226 3.02872Z" fill="#FECB37"/>
<path d="M17.1959 3.41285L17.0399 4.45205C17.0287 4.51737 17.0364 4.58452 17.0619 4.64569C17.0873 4.70686 17.1297 4.75955 17.1839 4.79765C17.2376 4.83672 17.3013 4.85973 17.3676 4.86398C17.4339 4.86823 17.5 4.85355 17.5583 4.82165L18.4799 4.32005L19.4183 4.80005C19.4773 4.83064 19.5437 4.84395 19.61 4.83843C19.6762 4.83291 19.7396 4.80879 19.7927 4.76885C19.8436 4.72799 19.8824 4.67396 19.9049 4.61261C19.9273 4.55126 19.9325 4.48494 19.9199 4.42085L19.7303 3.38645L20.4815 2.64005C20.5288 2.59328 20.562 2.53416 20.5773 2.46944C20.5927 2.40472 20.5896 2.33699 20.5683 2.27396C20.547 2.21093 20.5085 2.15514 20.4571 2.11294C20.4057 2.07074 20.3434 2.04382 20.2775 2.03525L19.2359 1.89365L18.7583 0.960047C18.7288 0.901372 18.6835 0.852089 18.6276 0.817744C18.5716 0.7834 18.5071 0.765357 18.4415 0.765647C18.3754 0.764908 18.3105 0.782738 18.254 0.817108C18.1976 0.851477 18.1519 0.901004 18.1223 0.960047L17.6663 1.92005L16.6247 2.08325C16.56 2.0935 16.4994 2.1213 16.4495 2.16362C16.3996 2.20594 16.3622 2.26116 16.3415 2.32325C16.3212 2.38632 16.3193 2.45385 16.3358 2.51799C16.3524 2.58213 16.3868 2.64027 16.4351 2.68565L17.1959 3.41285ZM18.2255 2.40005L18.4511 1.92005L18.6911 2.38325C18.7175 2.43426 18.7556 2.47827 18.8023 2.51165C18.8491 2.54504 18.9031 2.56683 18.9599 2.57525L19.4735 2.64245L19.1063 3.00965C19.0655 3.05058 19.0353 3.10078 19.0181 3.15595C19.001 3.21112 18.9975 3.26962 19.0079 3.32645L19.0967 3.84005L18.6335 3.60005C18.5823 3.57354 18.5255 3.5597 18.4679 3.5597C18.4102 3.5597 18.3535 3.57354 18.3023 3.60005L17.8463 3.84005L17.9279 3.32645C17.9372 3.26977 17.9324 3.21167 17.914 3.15727C17.8956 3.10286 17.8641 3.05381 17.8223 3.01445L17.4479 2.65445L17.9591 2.57525C18.0141 2.56882 18.0668 2.54964 18.113 2.51922C18.1593 2.4888 18.1978 2.44799 18.2255 2.40005Z" fill="#333333"/>
<path d="M20.2032 7.86701L19.9632 7.40381L19.74 7.87181C19.7146 7.92354 19.6771 7.96842 19.6307 8.00266C19.5844 8.03691 19.5305 8.05953 19.4736 8.06861L18.96 8.15981L19.3368 8.51981C19.3781 8.55954 19.4092 8.60863 19.4276 8.66293C19.446 8.71723 19.4511 8.77515 19.4424 8.83181L19.3584 9.34541L19.8168 9.10541C19.8679 9.0787 19.9247 9.06475 19.9824 9.06475C20.04 9.06475 20.0968 9.0787 20.148 9.10541L20.6088 9.34541L20.5152 8.83661C20.5053 8.77959 20.5093 8.72102 20.5268 8.66588C20.5443 8.61073 20.5749 8.56062 20.616 8.51981L20.9832 8.15261L20.4672 8.08301C20.4085 8.07226 20.3535 8.04681 20.3073 8.00903C20.2612 7.97126 20.2253 7.92239 20.2032 7.86701Z" fill="#FECB37"/>
<path d="M22.0802 7.75669C22.0599 7.69352 22.022 7.63742 21.971 7.59493C21.92 7.55245 21.858 7.52531 21.7922 7.51669L20.7482 7.37509L20.2682 6.43669C20.239 6.37689 20.1936 6.3265 20.1372 6.29125C20.0807 6.256 20.0155 6.2373 19.949 6.2373C19.8825 6.2373 19.8173 6.256 19.7608 6.29125C19.7044 6.3265 19.659 6.37689 19.6298 6.43669L19.1738 7.38469L18.1346 7.54789C18.0691 7.55911 18.0081 7.58847 17.9584 7.63264C17.9088 7.67681 17.8725 7.73402 17.8538 7.79777C17.835 7.86152 17.8345 7.92924 17.8524 7.99326C17.8702 8.05727 17.9056 8.115 17.9546 8.15989L18.7154 8.87989L18.5474 9.91909C18.5368 9.98464 18.5449 10.0518 18.5708 10.113C18.5967 10.1741 18.6394 10.2267 18.6938 10.2647C18.7534 10.3091 18.8259 10.3328 18.9002 10.3319C18.9589 10.3318 19.0167 10.3169 19.0682 10.2887L19.9946 9.78949L20.9306 10.2695C20.9898 10.2995 21.0561 10.3125 21.1222 10.307C21.1883 10.3015 21.2516 10.2777 21.305 10.2383C21.3585 10.1987 21.3998 10.1448 21.424 10.0828C21.4482 10.0208 21.4544 9.95325 21.4418 9.88789L21.2546 8.85349L22.001 8.11189C22.0448 8.06519 22.0752 8.0076 22.0892 7.94512C22.1031 7.88264 22.1 7.81756 22.0802 7.75669ZM20.6162 8.49349C20.5752 8.5343 20.5446 8.58441 20.527 8.63956C20.5095 8.69471 20.5055 8.75327 20.5154 8.81029L20.609 9.31909L20.1482 9.07909C20.0971 9.05238 20.0403 9.03844 19.9826 9.03844C19.9249 9.03844 19.8681 9.05238 19.817 9.07909L19.3586 9.31909L19.4402 8.81989C19.4489 8.76323 19.4438 8.70531 19.4255 8.65101C19.4071 8.59671 19.3759 8.54762 19.3346 8.50789L18.9602 8.15989L19.4738 8.08069C19.5307 8.07161 19.5846 8.04899 19.631 8.01475C19.6773 7.9805 19.7148 7.93562 19.7402 7.88389L19.9634 7.41589L20.2034 7.87909C20.2294 7.93015 20.2675 7.9741 20.3144 8.00713C20.3612 8.04017 20.4154 8.0613 20.4722 8.06869L20.9882 8.13829L20.6162 8.49349Z" fill="#333333"/>
</svg>
