<svg width="48" height="48" viewBox="0 0 48 48" fill="none" xmlns="http://www.w3.org/2000/svg">
<rect width="48" height="48" rx="8" fill="#FEEEEE"/>
<path d="M34.88 14.1466C33.4644 12.7306 31.5876 11.8697 29.591 11.7204C27.5943 11.5712 25.6104 12.1435 24 13.3332C22.3035 12.0714 20.192 11.4993 18.0906 11.732C15.9891 11.9647 14.0539 12.985 12.6746 14.5874C11.2953 16.1898 10.5744 18.2553 10.6571 20.3679C10.7397 22.4806 11.6197 24.4835 13.12 25.9732L23.0533 35.9066C23.1773 36.0316 23.3247 36.1307 23.4872 36.1984C23.6497 36.2661 23.824 36.301 24 36.301C24.176 36.301 24.3503 36.2661 24.5128 36.1984C24.6752 36.1307 24.8227 36.0316 24.9467 35.9066L34.88 25.9732C35.6569 25.1969 36.2731 24.275 36.6936 23.2604C37.1141 22.2458 37.3305 21.1582 37.3305 20.0599C37.3305 18.9616 37.1141 17.8741 36.6936 16.8594C36.2731 15.8448 35.6569 14.923 34.88 14.1466ZM33 24.0932L24 33.0799L15 24.0932C14.2069 23.2968 13.6666 22.284 13.447 21.1817C13.2273 20.0794 13.338 18.9368 13.7653 17.8972C14.1925 16.8577 14.9172 15.9674 15.8485 15.3381C16.7797 14.7088 17.8761 14.3685 19 14.3599C20.5015 14.3636 21.9401 14.963 23 16.0266C23.1239 16.1516 23.2714 16.2507 23.4339 16.3184C23.5964 16.3861 23.7706 16.421 23.9467 16.421C24.1227 16.421 24.2969 16.3861 24.4594 16.3184C24.6219 16.2507 24.7694 16.1516 24.8933 16.0266C25.9844 15.0811 27.394 14.5854 28.8367 14.6399C30.2794 14.6945 31.6476 15.295 32.6642 16.3202C33.6809 17.3453 34.2701 18.7184 34.3126 20.1615C34.3552 21.6046 33.8478 23.01 32.8933 24.0932H33Z" fill="#E72529"/>
</svg>
