<svg width="142" height="56" viewBox="0 0 142 56" fill="none" xmlns="http://www.w3.org/2000/svg">
    <rect x="0.5" y="0.5" width="141" height="55" rx="7.5" fill="#F1F5F5" />
    <rect x="0.5" y="0.5" width="141" height="55" rx="7.5" stroke="#DEEAEA" />
    <rect x="24" y="8" width="40" height="40" rx="20" fill="#DFF4DC" />
    <path
        d="M44 28C43.4067 28 42.8266 28.1759 42.3333 28.5056C41.8399 28.8352 41.4554 29.3038 41.2284 29.8519C41.0013 30.4001 40.9419 31.0033 41.0576 31.5853C41.1734 32.1672 41.4591 32.7018 41.8787 33.1213C42.2982 33.5409 42.8328 33.8266 43.4147 33.9424C43.9967 34.0581 44.5999 33.9987 45.1481 33.7716C45.6962 33.5446 46.1648 33.1601 46.4944 32.6667C46.8241 32.1734 47 31.5933 47 31C47 30.2044 46.6839 29.4413 46.1213 28.8787C45.5587 28.3161 44.7956 28 44 28ZM44 32C43.8022 32 43.6089 31.9414 43.4444 31.8315C43.28 31.7216 43.1518 31.5654 43.0761 31.3827C43.0004 31.2 42.9806 30.9989 43.0192 30.8049C43.0578 30.6109 43.153 30.4327 43.2929 30.2929C43.4327 30.153 43.6109 30.0578 43.8049 30.0192C43.9989 29.9806 44.2 30.0004 44.3827 30.0761C44.5654 30.1518 44.7216 30.28 44.8315 30.4444C44.9414 30.6089 45 30.8022 45 31C45 31.2652 44.8946 31.5196 44.7071 31.7071C44.5196 31.8946 44.2652 32 44 32ZM43.29 25.71C43.3851 25.801 43.4972 25.8724 43.62 25.92C43.7397 25.9729 43.8691 26.0002 44 26.0002C44.1309 26.0002 44.2603 25.9729 44.38 25.92C44.5028 25.8724 44.6149 25.801 44.71 25.71L47 23.46C47.1936 23.2664 47.3024 23.0038 47.3024 22.73C47.3024 22.4562 47.1936 22.1936 47 22C46.8064 21.8064 46.5438 21.6976 46.27 21.6976C45.9962 21.6976 45.7336 21.8064 45.54 22L45 22.59V19C45 18.7348 44.8946 18.4804 44.7071 18.2929C44.5196 18.1054 44.2652 18 44 18C43.7348 18 43.4804 18.1054 43.2929 18.2929C43.1054 18.4804 43 18.7348 43 19V22.59L42.46 22C42.2664 21.8064 42.0038 21.6976 41.73 21.6976C41.4562 21.6976 41.1936 21.8064 41 22C40.8064 22.1936 40.6976 22.4562 40.6976 22.73C40.6976 23.0038 40.8064 23.2664 41 23.46L43.29 25.71ZM51 31C51 30.8022 50.9414 30.6089 50.8315 30.4444C50.7216 30.28 50.5654 30.1518 50.3827 30.0761C50.2 30.0004 49.9989 29.9806 49.8049 30.0192C49.6109 30.0578 49.4327 30.153 49.2929 30.2929C49.153 30.4327 49.0578 30.6109 49.0192 30.8049C48.9806 30.9989 49.0004 31.2 49.0761 31.3827C49.1518 31.5654 49.28 31.7216 49.4444 31.8315C49.6089 31.9414 49.8022 32 50 32C50.2652 32 50.5196 31.8946 50.7071 31.7071C50.8946 31.5196 51 31.2652 51 31ZM52 24H49C48.7348 24 48.4804 24.1054 48.2929 24.2929C48.1054 24.4804 48 24.7348 48 25C48 25.2652 48.1054 25.5196 48.2929 25.7071C48.4804 25.8946 48.7348 26 49 26H52C52.2652 26 52.5196 26.1054 52.7071 26.2929C52.8946 26.4804 53 26.7348 53 27V35C53 35.2652 52.8946 35.5196 52.7071 35.7071C52.5196 35.8946 52.2652 36 52 36H36C35.7348 36 35.4804 35.8946 35.2929 35.7071C35.1054 35.5196 35 35.2652 35 35V27C35 26.7348 35.1054 26.4804 35.2929 26.2929C35.4804 26.1054 35.7348 26 36 26H39C39.2652 26 39.5196 25.8946 39.7071 25.7071C39.8946 25.5196 40 25.2652 40 25C40 24.7348 39.8946 24.4804 39.7071 24.2929C39.5196 24.1054 39.2652 24 39 24H36C35.2044 24 34.4413 24.3161 33.8787 24.8787C33.3161 25.4413 33 26.2044 33 27V35C33 35.7956 33.3161 36.5587 33.8787 37.1213C34.4413 37.6839 35.2044 38 36 38H52C52.7956 38 53.5587 37.6839 54.1213 37.1213C54.6839 36.5587 55 35.7956 55 35V27C55 26.2044 54.6839 25.4413 54.1213 24.8787C53.5587 24.3161 52.7956 24 52 24ZM37 31C37 31.1978 37.0586 31.3911 37.1685 31.5556C37.2784 31.72 37.4346 31.8482 37.6173 31.9239C37.8 31.9996 38.0011 32.0194 38.1951 31.9808C38.3891 31.9422 38.5673 31.847 38.7071 31.7071C38.847 31.5673 38.9422 31.3891 38.9808 31.1951C39.0194 31.0011 38.9996 30.8 38.9239 30.6173C38.8482 30.4346 38.72 30.2784 38.5556 30.1685C38.3911 30.0586 38.1978 30 38 30C37.7348 30 37.4804 30.1054 37.2929 30.2929C37.1054 30.4804 37 30.7348 37 31Z"
        fill="#22BB5F" />
    <path
        d="M71.104 33.5V22.06H72.544V33.5H71.104ZM75.8166 25.228V26.316H75.8486C76.4886 25.4627 77.3633 25.036 78.4726 25.036C79.3473 25.036 80.03 25.2653 80.5206 25.724C81.0113 26.1827 81.2566 26.8387 81.2566 27.692V33.5H79.9606V27.804C79.9606 27.2707 79.7953 26.86 79.4646 26.572C79.134 26.2733 78.6753 26.124 78.0886 26.124C77.4273 26.124 76.8833 26.3373 76.4566 26.764C76.03 27.1907 75.8166 27.74 75.8166 28.412V33.5H74.5206V25.228H75.8166ZM87.4876 33.5V22.06H88.7836V33.5H87.4876ZM82.3676 26.284V25.228H83.5036V23.9C83.5036 23.2173 83.6903 22.7267 84.0636 22.428C84.437 22.1187 84.981 21.964 85.6956 21.964C85.8983 21.964 86.117 21.9747 86.3516 21.996V23.1C86.2023 23.0893 86.0636 23.084 85.9356 23.084C85.5196 23.084 85.2263 23.148 85.0556 23.276C84.885 23.404 84.7996 23.6333 84.7996 23.964V25.228H86.3356V26.284H84.7996V33.5H83.5036V26.284H82.3676ZM97.0308 32.476C96.3054 33.308 95.3401 33.724 94.1348 33.724C92.9294 33.724 91.9588 33.308 91.2228 32.476C90.4974 31.644 90.1348 30.6093 90.1348 29.372C90.1348 28.1347 90.4974 27.1 91.2228 26.268C91.9588 25.436 92.9294 25.02 94.1348 25.02C95.3401 25.02 96.3054 25.436 97.0308 26.268C97.7561 27.1 98.1188 28.1347 98.1188 29.372C98.1188 30.6093 97.7561 31.644 97.0308 32.476ZM92.1508 31.724C92.6201 32.332 93.2814 32.636 94.1348 32.636C94.9881 32.636 95.6441 32.332 96.1028 31.724C96.5614 31.1053 96.7908 30.3213 96.7908 29.372C96.7908 28.412 96.5561 27.628 96.0868 27.02C95.6281 26.4013 94.9774 26.092 94.1348 26.092C93.2814 26.092 92.6201 26.4013 92.1508 27.02C91.6921 27.6387 91.4628 28.4227 91.4628 29.372C91.4628 30.3213 91.6921 31.1053 92.1508 31.724ZM101.063 33.5L98.439 25.228H99.831L101.287 30.332L101.735 32.108H101.767C101.927 31.3827 102.066 30.8013 102.183 30.364L103.575 25.228H104.935L106.279 30.364L106.679 32.108H106.711C106.882 31.3827 107.036 30.7907 107.175 30.332L108.711 25.228H110.055L107.351 33.5H106.023L104.647 28.492L104.247 26.764H104.215C104.066 27.4573 103.927 28.0333 103.799 28.492L102.407 33.5H101.063Z"
        fill="#545E5E" />
</svg>