<svg width="58" height="25" viewBox="0 0 58 40" fill="none" xmlns="http://www.w3.org/2000/svg">
    <path
        d="M54.2909 20.0559C54.2909 19.9465 54.2845 19.8371 54.2716 19.7277C54.2716 19.6062 54.2716 19.4725 54.2716 19.3267C54.2716 18.9377 54.2845 18.5245 54.3101 18.0869C54.3358 17.6494 54.3615 17.2787 54.3872 16.9749L57.815 17.0295C57.7765 17.4428 57.7316 17.9107 57.6802 18.4333C57.6417 18.956 57.616 19.4968 57.6032 20.0559H54.2909ZM54.2138 33.1093C54.1753 32.3558 54.1496 31.5536 54.1368 30.7028C54.124 29.8399 54.1176 28.9769 54.1176 28.114C54.1176 26.9837 54.1304 25.8837 54.1561 24.8142C54.1817 23.7446 54.2138 22.7723 54.2524 21.8972L57.5647 21.879C57.5133 22.4381 57.4812 23.1309 57.4684 23.9573C57.4556 24.7717 57.4491 25.6285 57.4491 26.5279C57.4491 27.4151 57.4556 28.2902 57.4684 29.1532C57.4812 30.0161 57.4941 30.8 57.5069 31.505C57.5326 32.1978 57.5518 32.7325 57.5647 33.1093H54.2138Z"
        fill="#034147" />
    <path
        d="M42.4762 33.1092L42.0168 30.7562C43.3245 30.2467 44.4293 29.0862 45.4344 28.139C45.9611 27.6426 46.4695 27.1524 46.9594 26.6684C47.4494 26.172 47.8781 25.7252 48.2456 25.3281C48.6131 24.931 48.8826 24.6207 49.0541 24.3973C49.1153 24.3105 49.1582 24.2484 49.1827 24.2112C49.2072 24.1616 49.2194 24.1305 49.2194 24.1181C49.2194 24.1305 49.1337 24.1367 48.9622 24.1367C48.7907 24.1367 48.6376 24.1367 48.5028 24.1367C48.0619 24.1367 47.5229 24.174 46.8859 24.2484C46.2612 24.3105 45.5875 24.4098 44.8648 24.5463C44.1421 24.6828 43.4194 24.8689 42.6967 25.1047L42.8572 22.1077C44.1189 21.8595 44.6076 21.6733 45.7467 21.5492C46.8982 21.4127 47.9822 21.3445 48.9989 21.3445C49.3909 21.3445 49.8074 21.3569 50.2484 21.3817C50.7016 21.4065 51.1303 21.481 51.5345 21.6051C51.9388 21.7168 52.2695 21.9091 52.5267 22.1822C52.784 22.4428 52.9126 22.8089 52.9126 23.2804C52.9126 23.6155 52.7717 24.0313 52.49 24.5277C52.2205 25.0116 51.8346 25.5515 51.3324 26.1472C50.8424 26.7304 50.2667 27.3447 49.6053 27.9901C48.9561 28.6354 48.2517 29.2807 47.4923 29.926C48.166 29.8888 48.8336 29.8702 49.495 29.8702C50.4382 29.8702 51.2712 29.8888 51.9939 29.926C52.7166 29.9632 53.1943 30.0129 53.427 30.0749L53.4454 32.9789C53.1024 32.9541 52.5512 32.9292 51.7918 32.9044C51.0323 32.892 50.1932 32.8858 49.2745 32.8858C48.4171 32.8858 47.5413 32.892 46.6471 32.9044C45.7651 32.9292 44.9505 32.9541 44.2033 32.9789C43.4684 33.0161 42.8927 33.0595 42.4762 33.1092Z"
        fill="#034147" />
    <path
        d="M33.2472 33.0721C32.3122 33.0721 31.4644 32.8304 30.7038 32.3471C29.9433 31.8762 29.3386 31.238 28.8898 30.4326C28.4534 29.6147 28.2352 28.7039 28.2352 27.7001C28.2352 26.7583 28.4098 25.9095 28.7589 25.1536C29.108 24.3852 29.5817 23.7285 30.1802 23.1832C30.7911 22.638 31.4831 22.2228 32.256 21.9378C33.029 21.6404 33.8394 21.4917 34.6872 21.4917C35.3979 21.4917 36.0961 21.5908 36.7818 21.7891C37.9831 22.0168 39.8319 22.6031 39.8319 22.6891C39.7446 23.16 39.6868 23.6045 39.6244 24.187C39.5746 24.7694 39.5309 25.3518 39.4935 25.9342C39.4561 26.5167 39.4374 27.0433 39.4374 27.5142C39.4374 27.8984 39.4623 28.2763 39.5122 28.6481C39.6214 29.2773 39.984 30.7563 40.8403 30.7563H41.1021L41.5125 33.1092C40.6897 33.1092 39.0384 32.9667 38.5023 32.6817C37.9662 32.4091 37.5361 32.0373 37.2119 31.5664C36.6758 32.1613 36.0649 32.5578 35.3792 32.7561C34.6935 32.9667 33.9828 33.0721 33.2472 33.0721ZM31.3023 28.0719C31.3646 28.6667 31.6077 29.1438 32.0316 29.5032C32.468 29.8501 33.0166 30.0236 33.6774 30.0236C34.3132 30.0236 34.8431 29.8563 35.267 29.5217C35.6909 29.1748 36.04 28.7039 36.3143 28.1091C36.3018 27.9108 36.2956 27.7063 36.2956 27.4956C36.2956 27.0619 36.308 26.6158 36.333 26.1573C36.3579 25.6988 36.3891 25.2465 36.4265 24.8004C35.9028 24.6021 35.3543 24.503 34.7807 24.503C34.1075 24.503 33.5028 24.6393 32.9667 24.9119C32.4431 25.1721 32.0316 25.5377 31.7324 26.0086C31.4332 26.4795 31.2836 27.0248 31.2836 27.6444C31.2836 27.7187 31.2836 27.7931 31.2836 27.8674C31.2836 27.9418 31.2898 28.0099 31.3023 28.0719Z"
        fill="#034147" />
    <path
        d="M10.4757 32.7731C10.4387 31.5726 10.4202 30.4206 10.4202 29.317C10.4202 27.3283 10.4819 25.5275 10.6052 23.9146C10.7286 22.3018 10.9075 20.9315 11.1419 19.8037C11.2529 19.2823 11.4072 18.779 11.6046 18.294C11.8143 17.8089 12.1042 17.4148 12.4744 17.1116C12.8568 16.7963 13.3565 16.6387 13.9734 16.6387C14.5779 16.6387 15.0899 16.7963 15.5094 17.1116C15.9289 17.4148 16.2681 17.7846 16.5272 18.2212C16.7987 18.6578 16.9961 19.0761 17.1194 19.4763C17.4402 20.4222 17.7116 21.368 17.9337 22.3139C18.1558 23.2598 18.3532 24.1632 18.5259 25.0242C18.6493 24.3936 18.7912 23.7327 18.9516 23.0415C19.1119 22.3382 19.2723 21.6773 19.4327 21.0588C19.5931 20.4282 19.7412 19.9068 19.8769 19.4945C20.5061 17.5906 21.4746 16.6387 22.7824 16.6387C23.5103 16.6387 24.1271 16.8994 24.633 17.4208C25.1388 17.9302 25.509 18.6699 25.7434 19.64C25.8544 20.0766 25.9654 20.7132 26.0765 21.5499C26.1999 22.3867 26.3109 23.3811 26.4096 24.5331C26.5206 25.673 26.6132 26.9342 26.6872 28.3166C26.7735 29.699 26.8414 31.1663 26.8908 32.7186L23.6336 32.6458C23.6336 32.0031 23.6151 31.2573 23.5781 30.4084C23.5535 29.5596 23.5103 28.6804 23.4486 27.7709C23.3992 26.8493 23.3375 25.9519 23.2635 25.0788C23.2018 24.2057 23.134 23.4174 23.06 22.7141C22.9983 22.0108 22.9366 21.4529 22.8749 21.0406C22.8132 20.6162 22.7577 20.404 22.7083 20.404C22.696 20.404 22.6281 20.6223 22.5048 21.0588C22.3937 21.4833 22.2518 22.0532 22.0791 22.7687C21.9187 23.4841 21.7398 24.2724 21.5424 25.1334C21.345 25.9943 21.1476 26.8614 20.9502 27.7345C20.7652 28.5955 20.5986 29.3959 20.4506 30.1356C20.3025 30.8632 20.1853 31.4574 20.0989 31.9182L17.1935 31.991C17.0454 31.3119 16.8665 30.5661 16.6568 29.7536C16.4594 28.929 16.2496 28.0923 16.0276 27.2434C15.8178 26.3824 15.6081 25.5578 15.3984 24.7696C15.1886 23.9692 14.9912 23.2537 14.8062 22.6232C14.6334 21.9926 14.4915 21.4954 14.3805 21.1316C14.2695 20.7557 14.2016 20.5677 14.1769 20.5677C14.1276 20.5677 14.0721 20.8345 14.0104 21.368C13.961 21.8895 13.9117 22.5989 13.8623 23.4963C13.813 24.3936 13.7698 25.4062 13.7328 26.534C13.7081 27.6618 13.6958 28.8259 13.6958 30.0264C13.6958 30.5964 13.6958 31.1178 13.6958 31.5908C13.7081 32.0637 13.7205 32.4518 13.7328 32.7549L10.4757 32.7731Z"
        fill="#034147" />
    <path fill-rule="evenodd" clip-rule="evenodd"
        d="M17.311 0C13.2774 0 10.7564 3.02521 10.7564 6.05042V11.1042C10.3545 11.3367 10.0841 11.7712 10.0841 12.2689C10.0841 13.0115 10.6861 13.6134 11.4286 13.6134C12.1712 13.6134 12.7732 13.0115 12.7732 12.2689C12.7732 11.6424 12.3447 11.116 11.7648 10.9667V6.55462C11.7648 3.58435 14.1727 1.17647 17.1429 1.17647H17.8152C20.7855 1.17647 23.1933 3.58435 23.1933 6.55462V10.9667C22.6134 11.116 22.1849 11.6424 22.1849 12.2689C22.1849 13.0115 22.7869 13.6134 23.5295 13.6134C24.2721 13.6134 24.874 13.0115 24.874 12.2689C24.874 11.7712 24.6036 11.3367 24.2018 11.1042V6.05042C24.2018 3.08015 21.3446 0 17.311 0Z"
        fill="#F58B3F" />
    <path fill-rule="evenodd" clip-rule="evenodd"
        d="M22.521 7.70896L12.437 6.84908V8.06725H22.521V7.70896ZM5.04202 6.21851L10.084 6.64845V8.06725H8.23529L6.55462 38.1513C8.94784 37.8634 11.1177 37.5942 13.1502 37.342L13.1533 37.3417L13.1546 37.3415C21.6257 36.2905 27.7119 35.5354 37.6471 34.958C24.636 36.1968 17.3516 37.3679 4.36975 40C2.84946 38.8074 1.90714 38.2368 0 37.479L5.04202 6.21851ZM4.53781 38.6555L6.21849 6.89077H5.54622L1.17647 36.6387L2.01681 36.9748L3.86555 27.0588L3.19328 37.8151L4.53781 38.6555Z"
        fill="#034147" />
</svg>