<svg width="58" height="40" viewBox="0 0 58 40" fill="none" xmlns="http://www.w3.org/2000/svg">
<path d="M54.2905 20.0557C54.2905 19.9463 54.2841 19.8369 54.2712 19.7275C54.2712 19.606 54.2712 19.4723 54.2712 19.3264C54.2712 18.9375 54.2841 18.5242 54.3098 18.0867C54.3354 17.6492 54.3611 17.2785 54.3868 16.9746L57.8147 17.0293C57.7762 17.4425 57.7312 17.9105 57.6799 18.4331C57.6414 18.9557 57.6157 19.4966 57.6028 20.0557H54.2905ZM54.2135 33.1091C54.175 32.3555 54.1493 31.5533 54.1364 30.7026C54.1236 29.8396 54.1172 28.9767 54.1172 28.1138C54.1172 26.9834 54.13 25.8835 54.1557 24.8139C54.1814 23.7444 54.2135 22.7721 54.252 21.897L57.5643 21.8788C57.513 22.4378 57.4809 23.1306 57.468 23.9571C57.4552 24.7714 57.4488 25.6283 57.4488 26.5277C57.4488 27.4149 57.4552 28.29 57.468 29.1529C57.4809 30.0159 57.4937 30.7998 57.5065 31.5047C57.5322 32.1975 57.5515 32.7323 57.5643 33.1091H54.2135Z" fill="#034147"/>
<path d="M42.4759 33.1094L42.0166 30.7565C43.3242 30.247 44.4291 29.0864 45.4341 28.1392C45.9609 27.6428 46.4692 27.1526 46.9592 26.6686C47.4492 26.1722 47.8779 25.7255 48.2454 25.3283C48.6128 24.9312 48.8823 24.621 49.0538 24.3976C49.1151 24.3107 49.1579 24.2487 49.1824 24.2114C49.2069 24.1618 49.2192 24.1308 49.2192 24.1184C49.2192 24.1308 49.1334 24.137 48.9619 24.137C48.7904 24.137 48.6373 24.137 48.5026 24.137C48.0616 24.137 47.5226 24.1742 46.8857 24.2487C46.261 24.3107 45.5873 24.41 44.8646 24.5465C44.1419 24.683 43.4191 24.8692 42.6964 25.105L42.8569 22.1079C44.1186 21.8597 44.6073 21.6736 45.7465 21.5495C46.8979 21.413 47.982 21.3447 48.9987 21.3447C49.3907 21.3447 49.8071 21.3571 50.2481 21.382C50.7013 21.4068 51.1301 21.4812 51.5343 21.6053C51.9385 21.717 52.2692 21.9094 52.5265 22.1824C52.7837 22.443 52.9123 22.8091 52.9123 23.2807C52.9123 23.6158 52.7715 24.0315 52.4897 24.5279C52.2202 25.0119 51.8344 25.5517 51.3322 26.1474C50.8422 26.7307 50.2665 27.345 49.605 27.9903C48.9558 28.6356 48.2515 29.2809 47.492 29.9263C48.1657 29.889 48.8333 29.8704 49.4948 29.8704C50.438 29.8704 51.2709 29.889 51.9936 29.9263C52.7163 29.9635 53.1941 30.0131 53.4268 30.0752L53.4452 32.9791C53.1022 32.9543 52.551 32.9295 51.7915 32.9047C51.0321 32.8923 50.193 32.8861 49.2743 32.8861C48.4168 32.8861 47.541 32.8923 46.6468 32.9047C45.7649 32.9295 44.9503 32.9543 44.2031 32.9791C43.4681 33.0164 42.8924 33.0598 42.4759 33.1094Z" fill="#034147"/>
<path d="M33.2473 33.0721C32.3123 33.0721 31.4645 32.8304 30.7039 32.3471C29.9434 31.8762 29.3387 31.238 28.8899 30.4326C28.4535 29.6147 28.2354 28.7039 28.2354 27.7001C28.2354 26.7583 28.4099 25.9095 28.759 25.1536C29.1081 24.3852 29.5819 23.7285 30.1803 23.1832C30.7912 22.638 31.4832 22.2228 32.2562 21.9378C33.0292 21.6404 33.8396 21.4917 34.6874 21.4917C35.398 21.4917 36.0962 21.5908 36.7819 21.7891C37.9832 22.0168 39.832 22.6031 39.832 22.6891C39.7447 23.16 39.6869 23.6045 39.6245 24.187C39.5747 24.7694 39.531 25.3518 39.4936 25.9342C39.4562 26.5167 39.4375 27.0433 39.4375 27.5142C39.4375 27.8984 39.4625 28.2763 39.5123 28.6481C39.6215 29.2773 39.9841 30.7563 40.8404 30.7563H41.1022L41.5127 33.1092C40.6898 33.1092 39.0386 32.9667 38.5025 32.6817C37.9663 32.4091 37.5362 32.0373 37.2121 31.5664C36.676 32.1613 36.065 32.5578 35.3793 32.7561C34.6936 32.9667 33.9829 33.0721 33.2473 33.0721ZM31.3024 28.0719C31.3647 28.6667 31.6079 29.1438 32.0318 29.5032C32.4681 29.8501 33.0167 30.0236 33.6775 30.0236C34.3133 30.0236 34.8432 29.8563 35.2671 29.5217C35.691 29.1748 36.0401 28.7039 36.3144 28.1091C36.3019 27.9108 36.2957 27.7063 36.2957 27.4956C36.2957 27.0619 36.3082 26.6158 36.3331 26.1573C36.358 25.6988 36.3892 25.2465 36.4266 24.8004C35.903 24.6021 35.3544 24.503 34.7809 24.503C34.1076 24.503 33.5029 24.6393 32.9668 24.9119C32.4432 25.1721 32.0318 25.5377 31.7325 26.0086C31.4333 26.4795 31.2837 27.0248 31.2837 27.6444C31.2837 27.7187 31.2837 27.7931 31.2837 27.8674C31.2837 27.9418 31.2899 28.0099 31.3024 28.0719Z" fill="#034147"/>
<path d="M10.4754 32.7731C10.4384 31.5726 10.4199 30.4206 10.4199 29.317C10.4199 27.3283 10.4816 25.5275 10.605 23.9146C10.7284 22.3018 10.9073 20.9315 11.1417 19.8037C11.2527 19.2823 11.4069 18.779 11.6043 18.294C11.8141 17.8089 12.104 17.4148 12.4741 17.1116C12.8566 16.7963 13.3563 16.6387 13.9731 16.6387C14.5777 16.6387 15.0897 16.7963 15.5091 17.1116C15.9286 17.4148 16.2679 17.7846 16.527 18.2212C16.7984 18.6578 16.9958 19.0761 17.1192 19.4763C17.44 20.4222 17.7114 21.368 17.9335 22.3139C18.1555 23.2598 18.3529 24.1632 18.5257 25.0242C18.649 24.3936 18.7909 23.7327 18.9513 23.0415C19.1117 22.3382 19.2721 21.6773 19.4325 21.0588C19.5929 20.4282 19.7409 19.9068 19.8766 19.4945C20.5058 17.5906 21.4743 16.6387 22.7821 16.6387C23.51 16.6387 24.1269 16.8994 24.6327 17.4208C25.1386 17.9302 25.5087 18.6699 25.7431 19.64C25.8542 20.0766 25.9652 20.7132 26.0762 21.5499C26.1996 22.3867 26.3106 23.3811 26.4093 24.5331C26.5204 25.673 26.6129 26.9342 26.6869 28.3166C26.7733 29.699 26.8412 31.1663 26.8905 32.7186L23.6334 32.6458C23.6334 32.0031 23.6149 31.2573 23.5779 30.4084C23.5532 29.5596 23.51 28.6804 23.4483 27.7709C23.399 26.8493 23.3373 25.9519 23.2633 25.0788C23.2016 24.2057 23.1337 23.4174 23.0597 22.7141C22.998 22.0108 22.9363 21.4529 22.8746 21.0406C22.813 20.6162 22.7574 20.404 22.7081 20.404C22.6958 20.404 22.6279 20.6223 22.5045 21.0588C22.3935 21.4833 22.2516 22.0532 22.0789 22.7687C21.9185 23.4841 21.7396 24.2724 21.5422 25.1334C21.3448 25.9943 21.1474 26.8614 20.95 27.7345C20.7649 28.5955 20.5984 29.3959 20.4503 30.1356C20.3023 30.8632 20.1851 31.4574 20.0987 31.9182L17.1932 31.991C17.0452 31.3119 16.8663 30.5661 16.6565 29.7536C16.4591 28.929 16.2494 28.0923 16.0273 27.2434C15.8176 26.3824 15.6078 25.5578 15.3981 24.7696C15.1884 23.9692 14.991 23.2537 14.8059 22.6232C14.6332 21.9926 14.4913 21.4954 14.3803 21.1316C14.2692 20.7557 14.2014 20.5677 14.1767 20.5677C14.1273 20.5677 14.0718 20.8345 14.0101 21.368C13.9608 21.8895 13.9114 22.5989 13.8621 23.4963C13.8127 24.3936 13.7696 25.4062 13.7325 26.534C13.7079 27.6618 13.6955 28.8259 13.6955 30.0264C13.6955 30.5964 13.6955 31.1178 13.6955 31.5908C13.7079 32.0637 13.7202 32.4518 13.7325 32.7549L10.4754 32.7731Z" fill="#034147"/>
<path fill-rule="evenodd" clip-rule="evenodd" d="M17.3109 0C13.2773 0 10.7563 3.02521 10.7563 6.05042V11.1042C10.3544 11.3367 10.084 11.7712 10.084 12.2689C10.084 13.0115 10.686 13.6134 11.4285 13.6134C12.1711 13.6134 12.7731 13.0115 12.7731 12.2689C12.7731 11.6424 12.3446 11.116 11.7647 10.9667V6.55462C11.7647 3.58435 14.1725 1.17647 17.1428 1.17647H17.8151C20.7853 1.17647 23.1932 3.58435 23.1932 6.55462V10.9667C22.6133 11.116 22.1848 11.6424 22.1848 12.2689C22.1848 13.0115 22.7868 13.6134 23.5294 13.6134C24.2719 13.6134 24.8739 13.0115 24.8739 12.2689C24.8739 11.7712 24.6035 11.3367 24.2016 11.1042V6.05042C24.2016 3.08015 21.3445 0 17.3109 0Z" fill="#F58B3F"/>
<path fill-rule="evenodd" clip-rule="evenodd" d="M22.521 7.70872L12.437 6.84884V8.067H22.521V7.70872ZM5.04202 6.21826L10.084 6.6482V8.067H8.23529L6.55462 38.151C8.94784 37.8632 11.1177 37.594 13.1502 37.3418L13.1533 37.3414L13.1546 37.3412C21.6257 36.2903 27.7119 35.5351 37.6471 34.9578C24.636 36.1965 17.3516 37.3677 4.36975 39.9998C2.84946 38.8072 1.90714 38.2365 0 37.4788L5.04202 6.21826ZM4.53781 38.6552L6.21849 6.89053H5.54622L1.17647 36.6384L2.01681 36.9746L3.86555 27.0586L3.19328 37.8149L4.53781 38.6552Z" fill="#034147"/>
</svg>
