<svg width="460" height="72" viewBox="0 0 460 72" fill="none" xmlns="http://www.w3.org/2000/svg">
    <mask id="path-1-inside-1_4227_3910" fill="white">
        <path d="M0 0H272V72H0V0Z" />
    </mask>
    <path d="M271 0V72H273V0H271Z" fill="#DEEAEA" mask="url(#path-1-inside-1_4227_3910)" />
    <rect width="88" height="72" fill="#034147" />
    <path fill-rule="evenodd" clip-rule="evenodd"
        d="M51 37H48C46.3429 37 45 38.343 45 40V43C45 44.657 46.3429 46 48 46H51C52.6571 46 54 44.657 54 43V40C54 38.343 52.6571 37 51 37ZM40 37H37C35.3429 37 34 38.343 34 40V43C34 44.657 35.3429 46 37 46H40C41.6571 46 43 44.657 43 43V40C43 38.343 41.6571 37 40 37ZM51 26H48C46.3429 26 45 27.343 45 29V32C45 33.657 46.3429 35 48 35H51C52.6571 35 54 33.657 54 32V29C54 27.343 52.6571 26 51 26ZM43 29V32C43 33.657 41.6571 35 40 35H37C35.3429 35 34 33.657 34 32V29C34 27.343 35.3429 26 37 26H40C41.6571 26 43 27.343 43 29Z"
        fill="#F58B3F" />
    <path
        d="M166.291 36.0559C166.291 35.9465 166.284 35.8371 166.272 35.7277C166.272 35.6062 166.272 35.4725 166.272 35.3267C166.272 34.9377 166.284 34.5245 166.31 34.0869C166.336 33.6494 166.361 33.2787 166.387 32.9749L169.815 33.0295C169.777 33.4428 169.732 33.9107 169.68 34.4333C169.642 34.956 169.616 35.4968 169.603 36.0559H166.291ZM166.214 49.1093C166.175 48.3558 166.15 47.5536 166.137 46.7028C166.124 45.8399 166.118 44.9769 166.118 44.114C166.118 42.9837 166.13 41.8837 166.156 40.8142C166.182 39.7446 166.214 38.7723 166.252 37.8972L169.565 37.879C169.513 38.4381 169.481 39.1309 169.468 39.9573C169.456 40.7717 169.449 41.6285 169.449 42.5279C169.449 43.4151 169.456 44.2902 169.468 45.1532C169.481 46.0161 169.494 46.8 169.507 47.505C169.533 48.1978 169.552 48.7325 169.565 49.1093H166.214Z"
        fill="#034147" />
    <path
        d="M154.476 49.1092L154.017 46.7562C155.324 46.2467 156.429 45.0862 157.434 44.139C157.961 43.6426 158.469 43.1524 158.959 42.6684C159.449 42.172 159.878 41.7252 160.246 41.3281C160.613 40.931 160.883 40.6207 161.054 40.3973C161.115 40.3105 161.158 40.2484 161.183 40.2112C161.207 40.1616 161.219 40.1305 161.219 40.1181C161.219 40.1305 161.134 40.1367 160.962 40.1367C160.791 40.1367 160.638 40.1367 160.503 40.1367C160.062 40.1367 159.523 40.174 158.886 40.2484C158.261 40.3105 157.588 40.4098 156.865 40.5463C156.142 40.6828 155.419 40.8689 154.697 41.1047L154.857 38.1077C156.119 37.8595 156.608 37.6733 157.747 37.5492C158.898 37.4127 159.982 37.3445 160.999 37.3445C161.391 37.3445 161.807 37.3569 162.248 37.3817C162.702 37.4065 163.13 37.481 163.535 37.6051C163.939 37.7168 164.269 37.9091 164.527 38.1822C164.784 38.4428 164.913 38.8089 164.913 39.2804C164.913 39.6155 164.772 40.0313 164.49 40.5277C164.22 41.0116 163.835 41.5515 163.332 42.1472C162.842 42.7304 162.267 43.3447 161.605 43.9901C160.956 44.6354 160.252 45.2807 159.492 45.926C160.166 45.8888 160.834 45.8702 161.495 45.8702C162.438 45.8702 163.271 45.8888 163.994 45.926C164.717 45.9632 165.194 46.0129 165.427 46.0749L165.445 48.9789C165.102 48.9541 164.551 48.9292 163.792 48.9044C163.032 48.892 162.193 48.8858 161.275 48.8858C160.417 48.8858 159.541 48.892 158.647 48.9044C157.765 48.9292 156.951 48.9541 156.203 48.9789C155.468 49.0161 154.893 49.0595 154.476 49.1092Z"
        fill="#034147" />
    <path
        d="M145.247 49.0721C144.312 49.0721 143.464 48.8304 142.704 48.3471C141.943 47.8762 141.339 47.238 140.89 46.4326C140.453 45.6147 140.235 44.7039 140.235 43.7001C140.235 42.7583 140.41 41.9095 140.759 41.1536C141.108 40.3852 141.582 39.7285 142.18 39.1832C142.791 38.638 143.483 38.2228 144.256 37.9378C145.029 37.6404 145.839 37.4917 146.687 37.4917C147.398 37.4917 148.096 37.5908 148.782 37.7891C149.983 38.0168 151.832 38.6031 151.832 38.6891C151.745 39.16 151.687 39.6045 151.624 40.187C151.575 40.7694 151.531 41.3518 151.494 41.9342C151.456 42.5167 151.437 43.0433 151.437 43.5142C151.437 43.8984 151.462 44.2763 151.512 44.6481C151.621 45.2773 151.984 46.7563 152.84 46.7563H153.102L153.513 49.1092C152.69 49.1092 151.038 48.9667 150.502 48.6817C149.966 48.4091 149.536 48.0373 149.212 47.5664C148.676 48.1613 148.065 48.5578 147.379 48.7561C146.693 48.9667 145.983 49.0721 145.247 49.0721ZM143.302 44.0719C143.365 44.6667 143.608 45.1438 144.032 45.5032C144.468 45.8501 145.017 46.0236 145.677 46.0236C146.313 46.0236 146.843 45.8563 147.267 45.5217C147.691 45.1748 148.04 44.7039 148.314 44.1091C148.302 43.9108 148.296 43.7063 148.296 43.4956C148.296 43.0619 148.308 42.6158 148.333 42.1573C148.358 41.6988 148.389 41.2465 148.426 40.8004C147.903 40.6021 147.354 40.503 146.781 40.503C146.107 40.503 145.503 40.6393 144.967 40.9119C144.443 41.1721 144.032 41.5377 143.732 42.0086C143.433 42.4795 143.284 43.0248 143.284 43.6444C143.284 43.7187 143.284 43.7931 143.284 43.8674C143.284 43.9418 143.29 44.0099 143.302 44.0719Z"
        fill="#034147" />
    <path
        d="M122.476 48.7731C122.439 47.5726 122.42 46.4206 122.42 45.317C122.42 43.3283 122.482 41.5275 122.605 39.9146C122.729 38.3018 122.907 36.9315 123.142 35.8037C123.253 35.2823 123.407 34.779 123.605 34.294C123.814 33.8089 124.104 33.4148 124.474 33.1116C124.857 32.7963 125.356 32.6387 125.973 32.6387C126.578 32.6387 127.09 32.7963 127.509 33.1116C127.929 33.4148 128.268 33.7846 128.527 34.2212C128.799 34.6578 128.996 35.0761 129.119 35.4763C129.44 36.4222 129.712 37.368 129.934 38.3139C130.156 39.2598 130.353 40.1632 130.526 41.0242C130.649 40.3936 130.791 39.7327 130.952 39.0415C131.112 38.3382 131.272 37.6773 131.433 37.0588C131.593 36.4282 131.741 35.9068 131.877 35.4945C132.506 33.5906 133.475 32.6387 134.782 32.6387C135.51 32.6387 136.127 32.8994 136.633 33.4208C137.139 33.9302 137.509 34.6699 137.743 35.64C137.854 36.0766 137.965 36.7132 138.076 37.5499C138.2 38.3867 138.311 39.3811 138.41 40.5331C138.521 41.673 138.613 42.9342 138.687 44.3166C138.774 45.699 138.841 47.1663 138.891 48.7186L135.634 48.6458C135.634 48.0031 135.615 47.2573 135.578 46.4084C135.553 45.5596 135.51 44.6804 135.449 43.7709C135.399 42.8493 135.338 41.9519 135.264 41.0788C135.202 40.2057 135.134 39.4174 135.06 38.7141C134.998 38.0108 134.937 37.4529 134.875 37.0406C134.813 36.6162 134.758 36.404 134.708 36.404C134.696 36.404 134.628 36.6223 134.505 37.0588C134.394 37.4833 134.252 38.0532 134.079 38.7687C133.919 39.4841 133.74 40.2724 133.542 41.1334C133.345 41.9943 133.148 42.8614 132.95 43.7345C132.765 44.5955 132.599 45.3959 132.451 46.1356C132.303 46.8632 132.185 47.4574 132.099 47.9182L129.193 47.991C129.045 47.3119 128.867 46.5661 128.657 45.7536C128.459 44.929 128.25 44.0923 128.028 43.2434C127.818 42.3824 127.608 41.5578 127.398 40.7696C127.189 39.9692 126.991 39.2537 126.806 38.6232C126.633 37.9926 126.492 37.4954 126.381 37.1316C126.269 36.7557 126.202 36.5677 126.177 36.5677C126.128 36.5677 126.072 36.8345 126.01 37.368C125.961 37.8895 125.912 38.5989 125.862 39.4963C125.813 40.3936 125.77 41.4062 125.733 42.534C125.708 43.6618 125.696 44.8259 125.696 46.0264C125.696 46.5964 125.696 47.1178 125.696 47.5908C125.708 48.0637 125.72 48.4518 125.733 48.7549L122.476 48.7731Z"
        fill="#034147" />
    <path fill-rule="evenodd" clip-rule="evenodd"
        d="M129.311 16C125.277 16 122.756 19.0252 122.756 22.0504V27.1042C122.354 27.3367 122.084 27.7712 122.084 28.2689C122.084 29.0115 122.686 29.6134 123.429 29.6134C124.171 29.6134 124.773 29.0115 124.773 28.2689C124.773 27.6424 124.345 27.116 123.765 26.9667V22.5546C123.765 19.5844 126.173 17.1765 129.143 17.1765H129.815C132.785 17.1765 135.193 19.5844 135.193 22.5546V26.9667C134.613 27.116 134.185 27.6424 134.185 28.2689C134.185 29.0115 134.787 29.6134 135.529 29.6134C136.272 29.6134 136.874 29.0115 136.874 28.2689C136.874 27.7712 136.604 27.3367 136.202 27.1042V22.0504C136.202 19.0801 133.345 16 129.311 16Z"
        fill="#F58B3F" />
    <path fill-rule="evenodd" clip-rule="evenodd"
        d="M134.521 23.709L124.437 22.8491V24.0672H134.521V23.709ZM117.042 22.2185L122.084 22.6484V24.0672H120.235L118.555 54.1513C120.948 53.8634 123.118 53.5942 125.15 53.342L125.153 53.3417L125.155 53.3415C133.626 52.2905 139.712 51.5354 149.647 50.958C136.636 52.1968 129.352 53.3679 116.37 56C114.849 54.8074 113.907 54.2368 112 53.479L117.042 22.2185ZM116.538 54.6555L118.218 22.8908H117.546L113.176 52.6387L114.017 52.9748L115.866 43.0588L115.193 53.8151L116.538 54.6555Z"
        fill="#034147" />
    <rect x="304.5" y="16.5" width="155" height="39" rx="7.5" fill="#F8FBFB" />
    <rect x="304.5" y="16.5" width="155" height="39" rx="7.5" stroke="#DEEAEA" />
    <g clip-path="url(#clip0_4227_3910)">
        <rect x="312" y="24" width="24" height="24" rx="2" fill="white" />
        <rect x="312" y="24" width="8" height="24" fill="#006C59" />
        <rect x="328" y="24" width="8" height="24" fill="#006C59" />
    </g>
    <path
        d="M345.072 41V29.56H346.592L351.808 37.512L352.64 38.984H352.672V29.56H354.016V41H352.544L347.296 33.032L346.448 31.608H346.416V41H345.072ZM355.974 41V32.728H357.27V41H355.974ZM355.974 31.16V29.56H357.27V31.16H355.974ZM362.332 43.752C361.276 43.752 360.444 43.5493 359.836 43.144C359.239 42.7493 358.903 42.1893 358.828 41.464H360.028C360.146 42.3067 360.903 42.728 362.3 42.728C363.879 42.728 364.668 42.0187 364.668 40.6V39.432H364.636C364.306 39.8587 363.954 40.1787 363.58 40.392C363.207 40.6053 362.743 40.712 362.188 40.712C361.122 40.712 360.252 40.328 359.58 39.56C358.908 38.792 358.572 37.8107 358.572 36.616C358.572 35.368 358.908 34.376 359.58 33.64C360.263 32.904 361.106 32.536 362.108 32.536C363.196 32.536 364.039 32.952 364.636 33.784H364.668V32.728H365.964V40.552C365.964 41.608 365.639 42.4027 364.988 42.936C364.348 43.48 363.463 43.752 362.332 43.752ZM362.252 39.624C363.927 39.624 364.764 38.6 364.764 36.552C364.764 34.6 363.922 33.624 362.236 33.624C361.479 33.624 360.898 33.896 360.492 34.44C360.098 34.984 359.9 35.7147 359.9 36.632C359.9 37.5493 360.103 38.28 360.508 38.824C360.914 39.3573 361.495 39.624 362.252 39.624ZM371.26 41.224C370.033 41.224 369.057 40.8133 368.332 39.992C367.617 39.16 367.26 38.12 367.26 36.872C367.26 35.6453 367.622 34.616 368.348 33.784C369.084 32.9413 370.028 32.52 371.18 32.52C372.396 32.52 373.334 32.9467 373.996 33.8C374.657 34.6427 374.988 35.768 374.988 37.176H368.588C368.641 38.0507 368.897 38.7653 369.356 39.32C369.825 39.864 370.46 40.136 371.26 40.136C372.497 40.136 373.26 39.5707 373.548 38.44H374.812C374.62 39.3253 374.214 40.0133 373.596 40.504C372.977 40.984 372.198 41.224 371.26 41.224ZM372.908 34.248C372.492 33.7787 371.916 33.544 371.18 33.544C370.444 33.544 369.857 33.7893 369.42 34.28C368.993 34.7707 368.726 35.4107 368.62 36.2H373.596C373.553 35.368 373.324 34.7173 372.908 34.248ZM377.551 32.728V34.104H377.583C377.85 33.6667 378.196 33.3147 378.623 33.048C379.05 32.7707 379.524 32.632 380.047 32.632C380.239 32.632 380.415 32.664 380.575 32.728V33.976H380.527C380.367 33.9227 380.175 33.896 379.951 33.896C379.29 33.896 378.724 34.1307 378.255 34.6C377.786 35.0587 377.551 35.6613 377.551 36.408V41H376.255V32.728H377.551ZM381.739 41V32.728H383.035V41H381.739ZM381.739 31.16V29.56H383.035V31.16H381.739ZM391.298 41.08C390.477 41.08 390.002 40.6693 389.874 39.848H389.858C389.175 40.7227 388.258 41.16 387.106 41.16C386.285 41.16 385.613 40.9627 385.09 40.568C384.567 40.1733 384.306 39.6027 384.306 38.856C384.306 38.472 384.365 38.1413 384.482 37.864C384.61 37.576 384.77 37.3467 384.962 37.176C385.154 36.9947 385.415 36.84 385.746 36.712C386.087 36.5733 386.413 36.472 386.722 36.408C387.031 36.3333 387.426 36.2587 387.906 36.184C388.215 36.1413 388.434 36.1093 388.562 36.088C388.701 36.056 388.877 36.0133 389.09 35.96C389.303 35.896 389.453 35.8267 389.538 35.752C389.623 35.6773 389.703 35.576 389.778 35.448C389.853 35.32 389.89 35.1707 389.89 35C389.89 34.5307 389.725 34.1733 389.394 33.928C389.074 33.672 388.621 33.544 388.034 33.544C386.701 33.544 386.013 34.152 385.97 35.368H384.722C384.743 34.5253 385.031 33.848 385.586 33.336C386.151 32.824 386.962 32.568 388.018 32.568C390.055 32.568 391.074 33.4427 391.074 35.192V39.128C391.074 39.4907 391.133 39.7467 391.25 39.896C391.378 40.0453 391.613 40.0827 391.954 40.008H392.002V40.952C391.789 41.0373 391.554 41.08 391.298 41.08ZM387.394 40.168C388.194 40.168 388.813 39.9387 389.25 39.48C389.687 39.0107 389.906 38.4987 389.906 37.944V36.536C389.511 36.7813 388.882 36.984 388.018 37.144C387.698 37.208 387.447 37.2613 387.266 37.304C387.085 37.336 386.877 37.4 386.642 37.496C386.407 37.5813 386.231 37.6773 386.114 37.784C385.997 37.8907 385.895 38.0347 385.81 38.216C385.725 38.3867 385.682 38.5893 385.682 38.824C385.682 39.72 386.253 40.168 387.394 40.168Z"
        fill="#121515" />
    <path
        d="M440.753 39.5515L446.403 33.8915C446.497 33.7985 446.572 33.6879 446.622 33.566C446.673 33.4442 446.699 33.3135 446.699 33.1815C446.699 33.0494 446.673 32.9187 446.622 32.7969C446.572 32.675 446.497 32.5644 446.403 32.4715C446.216 32.2852 445.963 32.1807 445.698 32.1807C445.434 32.1807 445.181 32.2852 444.993 32.4715L439.993 37.4215L435.043 32.4715C434.856 32.2852 434.603 32.1807 434.338 32.1807C434.074 32.1807 433.821 32.2852 433.633 32.4715C433.539 32.5641 433.464 32.6745 433.412 32.7964C433.361 32.9183 433.334 33.0491 433.333 33.1815C433.334 33.3138 433.361 33.4446 433.412 33.5665C433.464 33.6884 433.539 33.7988 433.633 33.8915L439.283 39.5515C439.377 39.653 439.491 39.734 439.617 39.7894C439.744 39.8448 439.88 39.8734 440.018 39.8734C440.156 39.8734 440.293 39.8448 440.42 39.7894C440.546 39.734 440.66 39.653 440.753 39.5515Z"
        fill="#545E5E" />
    <defs>
        <clipPath id="clip0_4227_3910">
            <rect x="312" y="24" width="24" height="24" rx="2" fill="white" />
        </clipPath>
    </defs>
</svg>