<svg width="88" height="50" viewBox="0 0 88 72" fill="none" xmlns="http://www.w3.org/2000/svg">
    <rect width="88" height="100" fill="#034147" />
    <path fill-rule="evenodd" clip-rule="evenodd"
        d="M51 37H48C46.3429 37 45 38.343 45 40V43C45 44.657 46.3429 46 48 46H51C52.6571 46 54 44.657 54 43V40C54 38.343 52.6571 37 51 37ZM40 37H37C35.3429 37 34 38.343 34 40V43C34 44.657 35.3429 46 37 46H40C41.6571 46 43 44.657 43 43V40C43 38.343 41.6571 37 40 37ZM51 26H48C46.3429 26 45 27.343 45 29V32C45 33.657 46.3429 35 48 35H51C52.6571 35 54 33.657 54 32V29C54 27.343 52.6571 26 51 26ZM43 29V32C43 33.657 41.6571 35 40 35H37C35.3429 35 34 33.657 34 32V29C34 27.343 35.3429 26 37 26H40C41.6571 26 43 27.343 43 29Z"
        fill="#F58B3F" />
</svg>