<svg width="16" height="20" viewBox="0 0 16 20" fill="none" xmlns="http://www.w3.org/2000/svg">
<path d="M13.9998 11.2288V8.04883C13.9983 6.63195 13.4955 5.2613 12.5804 4.1796C11.6652 3.09791 10.3968 2.37497 8.99976 2.13883V1.04883C8.99976 0.783612 8.8944 0.529258 8.70686 0.341721C8.51933 0.154185 8.26497 0.0488281 7.99976 0.0488281C7.73454 0.0488281 7.48019 0.154185 7.29265 0.341721C7.10511 0.529258 6.99976 0.783612 6.99976 1.04883V2.13883C5.6027 2.37497 4.33428 3.09791 3.41914 4.1796C2.504 5.2613 2.00119 6.63195 1.99976 8.04883V11.2288C1.41621 11.4351 0.910754 11.8169 0.552694 12.3218C0.194634 12.8266 0.00149537 13.4299 -0.000244141 14.0488V16.0488C-0.000244141 16.314 0.105113 16.5684 0.292649 16.7559C0.480186 16.9435 0.734539 17.0488 0.999756 17.0488H4.13976C4.37004 17.8962 4.87276 18.6442 5.57035 19.1776C6.26795 19.7109 7.12165 19.9998 7.99976 19.9998C8.87786 19.9998 9.73156 19.7109 10.4292 19.1776C11.1268 18.6442 11.6295 17.8962 11.8598 17.0488H14.9998C15.265 17.0488 15.5193 16.9435 15.7069 16.7559C15.8944 16.5684 15.9998 16.314 15.9998 16.0488V14.0488C15.998 13.4299 15.8049 12.8266 15.4468 12.3218C15.0888 11.8169 14.5833 11.4351 13.9998 11.2288ZM3.99976 8.04883C3.99976 6.98796 4.42118 5.97055 5.17133 5.2204C5.92147 4.47026 6.93889 4.04883 7.99976 4.04883C9.06062 4.04883 10.078 4.47026 10.8282 5.2204C11.5783 5.97055 11.9998 6.98796 11.9998 8.04883V11.0488H3.99976V8.04883ZM7.99976 18.0488C7.65073 18.0467 7.30833 17.9533 7.00659 17.7779C6.70484 17.6024 6.45427 17.3511 6.27976 17.0488H9.71976C9.54525 17.3511 9.29467 17.6024 8.99292 17.7779C8.69118 17.9533 8.34878 18.0467 7.99976 18.0488ZM13.9998 15.0488H1.99976V14.0488C1.99976 13.7836 2.10511 13.5293 2.29265 13.3417C2.48019 13.1542 2.73454 13.0488 2.99976 13.0488H12.9998C13.265 13.0488 13.5193 13.1542 13.7069 13.3417C13.8944 13.5293 13.9998 13.7836 13.9998 14.0488V15.0488Z" fill="#1F2323"/>
</svg>
