<svg width="24" height="24" viewBox="0 0 24 24" fill="none" xmlns="http://www.w3.org/2000/svg">
<path fill-rule="evenodd" clip-rule="evenodd" d="M6.56653 9.39132C6.57894 9.45159 6.59894 9.50962 6.62578 9.56417L7.58978 13.4494C7.67524 13.8114 7.82827 14.1515 8.03843 14.4534C7.76827 14.5656 7.5199 14.7295 7.30876 14.9388C6.88221 15.3617 6.64258 15.9353 6.64258 16.5334C6.64258 17.1315 6.88221 17.7051 7.30876 18.128C7.62123 18.4378 8.01524 18.6481 8.44078 18.7385C8.3706 18.8948 8.31774 19.0592 8.28372 19.2288C8.19348 19.6786 8.2398 20.1448 8.41682 20.5685C8.59383 20.9923 8.89361 21.3544 9.27822 21.6092C9.66284 21.864 10.115 22 10.5776 22C11.1979 22 11.7928 21.7557 12.2314 21.3208C12.67 20.886 12.9164 20.2962 12.9164 19.6812C12.9164 19.3732 12.8546 19.0699 12.7361 18.7885H16.4996C16.4402 18.9297 16.3947 19.0772 16.3643 19.2288C16.2741 19.6786 16.3204 20.1448 16.4974 20.5685C16.6744 20.9923 16.9742 21.3544 17.3588 21.6092C17.7434 21.864 18.1956 22 18.6582 22C19.2785 22 19.8734 21.7557 20.312 21.3208C20.7506 20.886 20.997 20.2962 20.997 19.6812C20.997 19.2225 20.8598 18.7742 20.6028 18.3929C20.3459 18.0116 19.9806 17.7143 19.5532 17.5388C19.3364 17.4498 19.1085 17.3941 18.8774 17.3725C18.8071 17.3506 18.7333 17.3392 18.6582 17.3392H8.91707C8.70152 17.3392 8.4948 17.2543 8.34238 17.1032C8.18996 16.9521 8.10434 16.7471 8.10434 16.5334C8.10434 16.3197 8.18996 16.1147 8.34238 15.9636C8.4948 15.8125 8.70152 15.7276 8.91707 15.7276H10.4606C10.4626 15.7276 10.4645 15.7276 10.4665 15.7276H17.8045C18.4815 15.7369 19.1415 15.5176 19.676 15.1056C20.2105 14.6937 20.5877 14.1137 20.7456 13.461L21.915 8.73634C22.0226 8.29873 22.0281 7.84254 21.9311 7.40249C21.8342 6.96244 21.6372 6.55011 21.3554 6.19686C21.0735 5.84361 20.7141 5.55874 20.3045 5.36392C19.8948 5.1691 19.4458 5.06946 18.9915 5.07258H9.34389C8.88959 5.06946 8.44056 5.1691 8.03094 5.36392C7.74511 5.49987 7.48372 5.67966 7.25607 5.89593L6.94659 4.55654C6.77463 3.82733 6.35835 3.17748 5.76576 2.71314C5.17316 2.2488 4.43927 1.9974 3.68395 2.00002H2.73088C2.53704 2.00002 2.35114 2.07637 2.21407 2.21226C2.077 2.34816 2 2.53247 2 2.72466C2 2.91684 2.077 3.10116 2.21407 3.23705C2.35114 3.37295 2.53704 3.44929 2.73088 3.44929H3.68395C4.10894 3.44744 4.52198 3.58865 4.8555 3.84982C5.18902 4.11099 5.42327 4.47665 5.51991 4.88697L6.56653 9.39132Z" fill="#034147"/>
</svg>
