<svg width="24" height="24" viewBox="0 0 24 24" fill="none" xmlns="http://www.w3.org/2000/svg">
<path fill-rule="evenodd" clip-rule="evenodd" d="M8.99307 13.1189L7.96928 8.98263L7.79146 8.21304C7.77238 8.04738 7.78089 7.87931 7.81706 7.71561C7.86653 7.49178 7.96643 7.28195 8.1093 7.10183C8.25216 6.9217 8.43428 6.77597 8.64201 6.67553C8.84974 6.57509 9.0777 6.52255 9.30881 6.52185H18.974C19.2054 6.52144 19.434 6.57324 19.6423 6.67334C19.8506 6.77344 20.0332 6.91921 20.1763 7.09962C20.3194 7.28002 20.4192 7.49034 20.4682 7.71465C20.5172 7.93896 20.5141 8.17138 20.4591 8.39432L19.2897 13.1189C19.2105 13.45 19.0206 13.7448 18.751 13.9553C18.4813 14.1658 18.1478 14.2797 17.8045 14.2784H10.4824C10.4771 14.2783 10.4718 14.2782 10.4665 14.2782H10.4486C10.1159 14.2731 9.79369 14.1598 9.53179 13.9553C9.26214 13.7448 9.07227 13.45 8.99307 13.1189ZM8.03837 14.4533C7.82824 14.1515 7.67523 13.8114 7.58978 13.4494L6.62578 9.56417C6.59894 9.50962 6.57894 9.45159 6.56653 9.39132L5.51991 4.88697C5.42327 4.47665 5.18902 4.11099 4.8555 3.84982C4.52198 3.58865 4.10894 3.44744 3.68395 3.44929H2.73088C2.53704 3.44929 2.35114 3.37295 2.21407 3.23705C2.077 3.10116 2 2.91684 2 2.72466C2 2.53247 2.077 2.34816 2.21407 2.21226C2.35114 2.07637 2.53704 2.00002 2.73088 2.00002H3.68395C4.43927 1.9974 5.17316 2.2488 5.76576 2.71314C6.35835 3.17748 6.77463 3.82733 6.94659 4.55654L7.25607 5.89593C7.48372 5.67966 7.74511 5.49987 8.03094 5.36392C8.44056 5.1691 8.88959 5.06946 9.34389 5.07258H18.9915C19.4458 5.06946 19.8948 5.1691 20.3045 5.36392C20.7141 5.55874 21.0735 5.84361 21.3554 6.19686C21.6372 6.55011 21.8342 6.96244 21.9311 7.40249C22.0281 7.84254 22.0226 8.29873 21.915 8.73635L20.7456 13.461C20.5877 14.1137 20.2105 14.6937 19.676 15.1056C19.1415 15.5176 18.4815 15.7369 17.8045 15.7276H10.4665C10.4608 15.7276 10.455 15.7275 10.4493 15.7275H8.91707C8.70152 15.7275 8.4948 15.8124 8.34238 15.9635C8.18996 16.1146 8.10434 16.3196 8.10434 16.5333C8.10434 16.747 8.18996 16.9519 8.34238 17.1031C8.4948 17.2542 8.70152 17.3391 8.91707 17.3391H18.6582C18.7335 17.3391 18.8075 17.3506 18.8779 17.3726C19.1089 17.3942 19.3366 17.4499 19.5532 17.5388C19.9806 17.7143 20.3459 18.0116 20.6028 18.3929C20.8598 18.7742 20.997 19.2225 20.997 19.6812C20.997 20.2962 20.7506 20.886 20.312 21.3208C19.8734 21.7557 19.2785 22 18.6582 22C18.1956 22 17.7434 21.864 17.3588 21.6092C16.9742 21.3544 16.6744 20.9923 16.4974 20.5685C16.3204 20.1448 16.2741 19.6786 16.3643 19.2288C16.3947 19.0771 16.4402 18.9297 16.4997 18.7883H12.7361C12.8546 19.0699 12.9164 19.3732 12.9164 19.6812C12.9164 20.2962 12.67 20.886 12.2314 21.3208C11.7928 21.7557 11.1979 22 10.5776 22C10.115 22 9.66284 21.864 9.27822 21.6092C8.89361 21.3544 8.59383 20.9923 8.41682 20.5685C8.2398 20.1448 8.19348 19.6786 8.28372 19.2288C8.31775 19.0592 8.37062 18.8948 8.44083 18.7384C8.01527 18.648 7.62124 18.4377 7.30876 18.1278C6.88221 17.7049 6.64258 17.1313 6.64258 16.5333C6.64258 15.9352 6.88221 15.3616 7.30876 14.9387C7.51988 14.7294 7.76822 14.5655 8.03837 14.4533ZM10.5776 18.7884C10.4018 18.7884 10.23 18.8401 10.0838 18.9369C9.93768 19.0337 9.82377 19.1714 9.7565 19.3324C9.68923 19.4934 9.67163 19.6705 9.70592 19.8415C9.74022 20.0124 9.82486 20.1694 9.94916 20.2926C10.0734 20.4159 10.2318 20.4998 10.4042 20.5338C10.5766 20.5678 10.7553 20.5503 10.9177 20.4837C11.0801 20.417 11.2189 20.304 11.3166 20.1591C11.4142 20.0142 11.4663 19.8438 11.4663 19.6696C11.4663 19.4359 11.3727 19.2117 11.206 19.0465C11.0394 18.8812 10.8133 18.7884 10.5776 18.7884ZM18.6582 18.7884C18.4827 18.7896 18.3114 18.8422 18.166 18.9397C18.0207 19.0372 17.9076 19.1753 17.8413 19.3364C17.7749 19.4975 17.7581 19.6745 17.7931 19.845C17.828 20.0155 17.9131 20.172 18.0377 20.2947C18.1622 20.4173 18.3206 20.5007 18.4928 20.5342C18.665 20.5677 18.8434 20.5499 19.0055 20.4831C19.1675 20.4162 19.306 20.3033 19.4034 20.1585C19.5008 20.0137 19.5528 19.8436 19.5528 19.6696C19.5528 19.5534 19.5296 19.4383 19.4846 19.331C19.4396 19.2237 19.3736 19.1263 19.2904 19.0444C19.2073 18.9625 19.1086 18.8978 19.0001 18.8538C18.8916 18.8099 18.7754 18.7876 18.6582 18.7884Z" fill="#545E5E"/>
</svg>
