<svg width="20" height="20" viewBox="0 0 20 20" fill="none" xmlns="http://www.w3.org/2000/svg">
    <path fill-rule="evenodd" clip-rule="evenodd"
        d="M6.99307 11.1189L5.96928 6.98263L5.79146 6.21304C5.77238 6.04738 5.78089 5.87931 5.81706 5.71561C5.86653 5.49178 5.96643 5.28195 6.1093 5.10183C6.25216 4.9217 6.43428 4.77597 6.64201 4.67553C6.84974 4.57509 7.0777 4.52255 7.30881 4.52185H16.974C17.2054 4.52144 17.434 4.57324 17.6423 4.67334C17.8506 4.77344 18.0332 4.91921 18.1763 5.09962C18.3194 5.28002 18.4192 5.49034 18.4682 5.71465C18.5172 5.93896 18.5141 6.17138 18.4591 6.39432L17.2897 11.1189C17.2105 11.45 17.0206 11.7448 16.751 11.9553C16.4813 12.1658 16.1478 12.2797 15.8045 12.2784H8.48241C8.47713 12.2783 8.47184 12.2782 8.46654 12.2782H8.44862C8.11587 12.2731 7.79369 12.1598 7.53179 11.9553C7.26214 11.7448 7.07227 11.45 6.99307 11.1189ZM6.03837 12.4533C5.82824 12.1515 5.67523 11.8114 5.58978 11.4494L4.62578 7.56417C4.59894 7.50962 4.57894 7.45159 4.56653 7.39132L3.51991 2.88697C3.42327 2.47665 3.18902 2.11099 2.8555 1.84982C2.52198 1.58865 2.10894 1.44744 1.68395 1.44929H0.730879C0.537038 1.44929 0.351136 1.37295 0.21407 1.23705C0.0770031 1.10116 0 0.916843 0 0.724657C0 0.532471 0.0770031 0.348157 0.21407 0.212261C0.351136 0.0763657 0.537038 2.02128e-05 0.730879 2.02128e-05H1.68395C2.43927 -0.00259585 3.17316 0.248798 3.76576 0.713141C4.35835 1.17748 4.77463 1.82733 4.94659 2.55654L5.25607 3.89593C5.48372 3.67966 5.74511 3.49987 6.03094 3.36392C6.44056 3.1691 6.88959 3.06946 7.34389 3.07258H16.9915C17.4458 3.06946 17.8948 3.1691 18.3045 3.36392C18.7141 3.55874 19.0735 3.84361 19.3554 4.19686C19.6372 4.55011 19.8342 4.96244 19.9311 5.40249C20.0281 5.84254 20.0226 6.29873 19.915 6.73635L18.7456 11.461C18.5877 12.1137 18.2105 12.6937 17.676 13.1056C17.1415 13.5176 16.4815 13.7369 15.8045 13.7276H8.46652C8.46077 13.7276 8.45503 13.7275 8.44928 13.7275H6.91707C6.70152 13.7275 6.4948 13.8124 6.34238 13.9635C6.18996 14.1146 6.10434 14.3196 6.10434 14.5333C6.10434 14.747 6.18996 14.9519 6.34238 15.1031C6.4948 15.2542 6.70152 15.3391 6.91707 15.3391H16.6582C16.7335 15.3391 16.8075 15.3506 16.8779 15.3726C17.1089 15.3942 17.3366 15.4499 17.5532 15.5388C17.9806 15.7143 18.3459 16.0116 18.6028 16.3929C18.8598 16.7742 18.997 17.2225 18.997 17.6812C18.997 18.2962 18.7506 18.886 18.312 19.3208C17.8734 19.7557 17.2785 20 16.6582 20C16.1956 20 15.7434 19.864 15.3588 19.6092C14.9742 19.3544 14.6744 18.9923 14.4974 18.5685C14.3204 18.1448 14.2741 17.6786 14.3643 17.2288C14.3947 17.0771 14.4402 16.9297 14.4997 16.7883H10.7361C10.8546 17.0699 10.9164 17.3732 10.9164 17.6812C10.9164 18.2962 10.67 18.886 10.2314 19.3208C9.79277 19.7557 9.19789 20 8.5776 20C8.11502 20 7.66284 19.864 7.27822 19.6092C6.89361 19.3544 6.59383 18.9923 6.41682 18.5685C6.2398 18.1448 6.19348 17.6786 6.28372 17.2288C6.31775 17.0592 6.37062 16.8948 6.44083 16.7384C6.01527 16.648 5.62124 16.4377 5.30876 16.1278C4.88221 15.7049 4.64258 15.1313 4.64258 14.5333C4.64258 13.9352 4.88221 13.3616 5.30876 12.9387C5.51988 12.7294 5.76822 12.5655 6.03837 12.4533ZM8.5776 16.7884C8.40182 16.7884 8.22999 16.8401 8.08383 16.9369C7.93768 17.0337 7.82377 17.1714 7.7565 17.3324C7.68923 17.4934 7.67163 17.6705 7.70592 17.8415C7.74022 18.0124 7.82486 18.1694 7.94916 18.2926C8.07345 18.4159 8.23181 18.4998 8.40421 18.5338C8.57661 18.5678 8.75531 18.5503 8.91771 18.4837C9.0801 18.417 9.21891 18.304 9.31656 18.1591C9.41422 18.0142 9.46634 17.8438 9.46634 17.6696C9.46634 17.4359 9.37271 17.2117 9.20604 17.0465C9.03936 16.8812 8.81331 16.7884 8.5776 16.7884ZM16.6582 16.7884C16.4827 16.7896 16.3114 16.8422 16.166 16.9397C16.0207 17.0372 15.9076 17.1753 15.8413 17.3364C15.7749 17.4975 15.7581 17.6745 15.7931 17.845C15.828 18.0155 15.9131 18.172 16.0377 18.2947C16.1622 18.4173 16.3206 18.5007 16.4928 18.5342C16.665 18.5677 16.8434 18.5499 17.0055 18.4831C17.1675 18.4162 17.306 18.3033 17.4034 18.1585C17.5008 18.0137 17.5528 17.8436 17.5528 17.6696C17.5528 17.5534 17.5296 17.4383 17.4846 17.331C17.4396 17.2237 17.3736 17.1263 17.2904 17.0444C17.2073 16.9625 17.1086 16.8978 17.0001 16.8538C16.8916 16.8099 16.7754 16.7876 16.6582 16.7884Z"
        fill="#545E5E" />
</svg>