<svg width="142" height="56" viewBox="0 0 142 56" fill="none" xmlns="http://www.w3.org/2000/svg">
    <rect x="0.5" y="0.5" width="141" height="55" rx="7.5" fill="#F1F5F5" />
    <rect x="0.5" y="0.5" width="141" height="55" rx="7.5" stroke="#DEEAEA" />
    <rect x="24" y="8" width="40" height="40" rx="20" fill="#F4E3E8" />
    <path
        d="M42.46 21.9999L43 21.4099V24.9999C43 25.2651 43.1054 25.5195 43.2929 25.707C43.4804 25.8945 43.7348 25.9999 44 25.9999C44.2652 25.9999 44.5196 25.8945 44.7071 25.707C44.8946 25.5195 45 25.2651 45 24.9999V21.4099L45.54 21.9599C45.6308 22.0624 45.7416 22.1452 45.8657 22.2031C45.9898 22.2611 46.1244 22.2929 46.2613 22.2966C46.3982 22.3004 46.5344 22.276 46.6615 22.2249C46.7885 22.1739 46.9038 22.0973 47 21.9999C47.0937 21.9069 47.1681 21.7963 47.2189 21.6745C47.2697 21.5526 47.2958 21.4219 47.2958 21.2899C47.2958 21.1579 47.2697 21.0272 47.2189 20.9053C47.1681 20.7835 47.0937 20.6729 47 20.5799L44.71 18.2899C44.6149 18.1989 44.5028 18.1275 44.38 18.0799C44.1365 17.9799 43.8635 17.9799 43.62 18.0799C43.4972 18.1275 43.3851 18.1989 43.29 18.2899L41 20.5399C40.8064 20.7335 40.6976 20.9961 40.6976 21.2699C40.6976 21.5437 40.8064 21.8063 41 21.9999C41.1936 22.1935 41.4562 22.3023 41.73 22.3023C42.0038 22.3023 42.2664 22.1935 42.46 21.9999ZM44 27.9999C43.4067 27.9999 42.8266 28.1758 42.3333 28.5055C41.8399 28.8351 41.4554 29.3037 41.2284 29.8518C41.0013 30.4 40.9419 31.0032 41.0576 31.5852C41.1734 32.1671 41.4591 32.7017 41.8787 33.1212C42.2982 33.5408 42.8328 33.8265 43.4147 33.9423C43.9967 34.058 44.5999 33.9986 45.1481 33.7715C45.6962 33.5445 46.1648 33.16 46.4944 32.6666C46.8241 32.1733 47 31.5932 47 30.9999C47 30.2042 46.6839 29.4412 46.1213 28.8786C45.5587 28.316 44.7956 27.9999 44 27.9999ZM44 31.9999C43.8022 31.9999 43.6089 31.9412 43.4444 31.8314C43.28 31.7215 43.1518 31.5653 43.0761 31.3826C43.0004 31.1999 42.9806 30.9988 43.0192 30.8048C43.0578 30.6108 43.153 30.4326 43.2929 30.2928C43.4327 30.1529 43.6109 30.0577 43.8049 30.0191C43.9989 29.9805 44.2 30.0003 44.3827 30.076C44.5654 30.1517 44.7216 30.2799 44.8315 30.4443C44.9414 30.6088 45 30.8021 45 30.9999C45 31.2651 44.8946 31.5195 44.7071 31.707C44.5196 31.8945 44.2652 31.9999 44 31.9999ZM37 30.9999C37 31.1977 37.0586 31.391 37.1685 31.5555C37.2784 31.7199 37.4346 31.8481 37.6173 31.9238C37.8 31.9995 38.0011 32.0193 38.1951 31.9807C38.3891 31.9421 38.5673 31.8469 38.7071 31.707C38.847 31.5672 38.9422 31.389 38.9808 31.195C39.0194 31.001 38.9996 30.7999 38.9239 30.6172C38.8482 30.4345 38.72 30.2783 38.5556 30.1684C38.3911 30.0585 38.1978 29.9999 38 29.9999C37.7348 29.9999 37.4804 30.1053 37.2929 30.2928C37.1054 30.4803 37 30.7347 37 30.9999ZM51 30.9999C51 30.8021 50.9414 30.6088 50.8315 30.4443C50.7216 30.2799 50.5654 30.1517 50.3827 30.076C50.2 30.0003 49.9989 29.9805 49.8049 30.0191C49.6109 30.0577 49.4327 30.1529 49.2929 30.2928C49.153 30.4326 49.0578 30.6108 49.0192 30.8048C48.9806 30.9988 49.0004 31.1999 49.0761 31.3826C49.1518 31.5653 49.28 31.7215 49.4444 31.8314C49.6089 31.9412 49.8022 31.9999 50 31.9999C50.2652 31.9999 50.5196 31.8945 50.7071 31.707C50.8946 31.5195 51 31.2651 51 30.9999ZM52 23.9999H48C47.7348 23.9999 47.4804 24.1053 47.2929 24.2928C47.1054 24.4803 47 24.7347 47 24.9999C47 25.2651 47.1054 25.5195 47.2929 25.707C47.4804 25.8945 47.7348 25.9999 48 25.9999H52C52.2652 25.9999 52.5196 26.1053 52.7071 26.2928C52.8946 26.4803 53 26.7347 53 26.9999V34.9999C53 35.2651 52.8946 35.5195 52.7071 35.707C52.5196 35.8945 52.2652 35.9999 52 35.9999H36C35.7348 35.9999 35.4804 35.8945 35.2929 35.707C35.1054 35.5195 35 35.2651 35 34.9999V26.9999C35 26.7347 35.1054 26.4803 35.2929 26.2928C35.4804 26.1053 35.7348 25.9999 36 25.9999H40C40.2652 25.9999 40.5196 25.8945 40.7071 25.707C40.8946 25.5195 41 25.2651 41 24.9999C41 24.7347 40.8946 24.4803 40.7071 24.2928C40.5196 24.1053 40.2652 23.9999 40 23.9999H36C35.2044 23.9999 34.4413 24.316 33.8787 24.8786C33.3161 25.4412 33 26.2042 33 26.9999V34.9999C33 35.7955 33.3161 36.5586 33.8787 37.1212C34.4413 37.6838 35.2044 37.9999 36 37.9999H52C52.7956 37.9999 53.5587 37.6838 54.1213 37.1212C54.6839 36.5586 55 35.7955 55 34.9999V26.9999C55 26.2042 54.6839 25.4412 54.1213 24.8786C53.5587 24.316 52.7956 23.9999 52 23.9999Z"
        fill="#E72529" />
    <path
        d="M80.304 32.06C79.2907 33.18 77.936 33.74 76.24 33.74C74.544 33.74 73.184 33.18 72.16 32.06C71.1467 30.94 70.64 29.5107 70.64 27.772C70.64 26.0333 71.1467 24.604 72.16 23.484C73.184 22.364 74.544 21.804 76.24 21.804C77.936 21.804 79.2907 22.364 80.304 23.484C81.328 24.604 81.84 26.0333 81.84 27.772C81.84 29.5107 81.328 30.94 80.304 32.06ZM73.2 31.164C73.9253 32.0387 74.9387 32.476 76.24 32.476C77.5413 32.476 78.5547 32.0387 79.28 31.164C80.0053 30.2893 80.368 29.1587 80.368 27.772C80.368 26.3853 80.0053 25.2547 79.28 24.38C78.5547 23.4947 77.5413 23.052 76.24 23.052C74.9387 23.052 73.9253 23.4947 73.2 24.38C72.4747 25.2547 72.112 26.3853 72.112 27.772C72.112 29.1587 72.4747 30.2893 73.2 31.164ZM89.9244 33.5H88.6284V32.364H88.5964C87.9457 33.2493 87.1137 33.692 86.1004 33.692C85.247 33.692 84.5697 33.452 84.0684 32.972C83.567 32.4813 83.3164 31.8093 83.3164 30.956V25.228H84.6124V30.924C84.6124 31.4573 84.7724 31.8733 85.0924 32.172C85.423 32.4707 85.8817 32.62 86.4684 32.62C87.119 32.62 87.6417 32.4013 88.0364 31.964C88.431 31.5267 88.6284 30.9773 88.6284 30.316V25.228H89.9244V33.5ZM91.1489 26.284V25.228H92.3489V22.62H93.6449V25.228H95.2449V26.284H93.6449V31.66C93.6449 32.172 93.9222 32.428 94.4769 32.428C94.7115 32.428 94.9409 32.3907 95.1649 32.316H95.2129V33.436C94.8609 33.5107 94.5142 33.548 94.1729 33.548C92.9569 33.548 92.3489 33.0147 92.3489 31.948V26.284H91.1489ZM100.941 33.5V22.06H102.237V33.5H100.941ZM95.8208 26.284V25.228H96.9568V23.9C96.9568 23.2173 97.1434 22.7267 97.5168 22.428C97.8901 22.1187 98.4341 21.964 99.1488 21.964C99.3514 21.964 99.5701 21.9747 99.8048 21.996V23.1C99.6554 23.0893 99.5168 23.084 99.3888 23.084C98.9728 23.084 98.6794 23.148 98.5088 23.276C98.3381 23.404 98.2528 23.6333 98.2528 23.964V25.228H99.7888V26.284H98.2528V33.5H96.9568V26.284H95.8208ZM110.484 32.476C109.759 33.308 108.793 33.724 107.588 33.724C106.383 33.724 105.412 33.308 104.676 32.476C103.951 31.644 103.588 30.6093 103.588 29.372C103.588 28.1347 103.951 27.1 104.676 26.268C105.412 25.436 106.383 25.02 107.588 25.02C108.793 25.02 109.759 25.436 110.484 26.268C111.209 27.1 111.572 28.1347 111.572 29.372C111.572 30.6093 111.209 31.644 110.484 32.476ZM105.604 31.724C106.073 32.332 106.735 32.636 107.588 32.636C108.441 32.636 109.097 32.332 109.556 31.724C110.015 31.1053 110.244 30.3213 110.244 29.372C110.244 28.412 110.009 27.628 109.54 27.02C109.081 26.4013 108.431 26.092 107.588 26.092C106.735 26.092 106.073 26.4013 105.604 27.02C105.145 27.6387 104.916 28.4227 104.916 29.372C104.916 30.3213 105.145 31.1053 105.604 31.724ZM114.516 33.5L111.892 25.228H113.284L114.74 30.332L115.188 32.108H115.22C115.38 31.3827 115.519 30.8013 115.636 30.364L117.028 25.228H118.388L119.732 30.364L120.132 32.108H120.164C120.335 31.3827 120.489 30.7907 120.628 30.332L122.164 25.228H123.508L120.804 33.5H119.476L118.1 28.492L117.7 26.764H117.668C117.519 27.4573 117.38 28.0333 117.252 28.492L115.86 33.5H114.516Z"
        fill="#545E5E" />
</svg>