<svg width="32" height="32" viewBox="0 0 32 32" fill="none" xmlns="http://www.w3.org/2000/svg">
    <mask id="path-1-outside-1_2911_17073" maskUnits="userSpaceOnUse" x="1.66666" y="1.66675" width="28" height="28"
        fill="black">
        <rect fill="white" x="1.66666" y="1.66675" width="28" height="28" />
        <path
            d="M7.11111 29.3334H24.8889V27.1112H29.3333V20.4445C29.3333 17.2034 27.1872 14.4551 24.2417 13.544C25.6306 12.6545 26.5556 11.1012 26.5556 9.33342C26.5556 6.57675 24.3128 4.33341 21.5556 4.33341C21.0806 4.33341 20.6094 4.40453 20.1494 4.54064C19.1311 3.39453 17.6506 2.66675 16 2.66675C14.3494 2.66675 12.8689 3.39453 11.8506 4.54064C11.3943 4.40423 10.9207 4.33443 10.4444 4.33341C7.68722 4.33341 5.44444 6.57675 5.44444 9.33342C5.44444 11.1012 6.36944 12.6545 7.75833 13.544C4.81278 14.4551 2.66666 17.2034 2.66666 20.4445V27.1112H7.11111V29.3334ZM23.7778 28.2223H8.22222V19.889C8.22222 19.7034 8.23389 19.5201 8.25 19.3384C8.25555 19.279 8.26277 19.2201 8.26944 19.1606C8.28444 19.0351 8.30389 18.9112 8.32666 18.7884C8.33833 18.7262 8.34777 18.6634 8.36111 18.6017C8.39555 18.4423 8.43611 18.2856 8.48222 18.1306C8.50555 18.054 8.53333 17.9795 8.55944 17.904C8.61814 17.7322 8.6845 17.5631 8.75833 17.3973C8.79389 17.3179 8.83278 17.2401 8.87166 17.1623C8.92833 17.049 8.98833 16.9379 9.05166 16.8284C9.10722 16.7334 9.16278 16.6384 9.22278 16.5467C9.26944 16.4756 9.31944 16.4067 9.36889 16.3373C9.42111 16.264 9.475 16.1917 9.53055 16.1212C9.58166 16.0562 9.63278 15.9917 9.68666 15.929C9.75666 15.8473 9.82944 15.7684 9.90333 15.6906C10.0555 15.5293 10.2161 15.3761 10.3844 15.2317C10.4456 15.1801 10.5089 15.1306 10.5722 15.0812C10.645 15.0245 10.7183 14.969 10.7939 14.9156C10.8639 14.8656 10.9339 14.8162 11.0067 14.769C11.08 14.7212 11.1556 14.6773 11.2306 14.6329C11.3722 14.549 11.5178 14.4706 11.6672 14.3979C11.7422 14.3612 11.8161 14.3229 11.8928 14.289L11.9822 14.249C12.7269 13.9375 13.5261 13.7773 14.3333 13.7779H17.6667C18.4994 13.7779 19.2933 13.9462 20.0172 14.2495L20.1067 14.2895C20.1833 14.3229 20.2572 14.3617 20.3322 14.3984C20.4817 14.4712 20.6272 14.5495 20.7689 14.6334C20.8444 14.6779 20.92 14.7217 20.9928 14.7695C21.142 14.8674 21.2869 14.9715 21.4272 15.0817C21.4906 15.1312 21.5539 15.1806 21.615 15.2323C21.7837 15.3762 21.9444 15.5294 22.0961 15.6912C22.17 15.769 22.2433 15.8479 22.3128 15.9295C22.424 16.0614 22.5301 16.1976 22.6306 16.3379C22.68 16.4073 22.7306 16.4756 22.7767 16.5473C22.9049 16.7459 23.0221 16.9514 23.1278 17.1629C23.1667 17.2406 23.2056 17.3184 23.2411 17.3979C23.3156 17.5634 23.3819 17.7325 23.44 17.9045C23.4661 17.9801 23.4939 18.0551 23.5172 18.1312C23.5639 18.2856 23.6044 18.4429 23.6383 18.6023C23.6517 18.664 23.6617 18.7267 23.6728 18.789C23.7398 19.1519 23.7749 19.5199 23.7778 19.889V28.2223ZM28.2222 20.4445V26.0001H24.8889V19.889C24.8889 19.6251 24.8728 19.3651 24.845 19.1084C24.8383 19.0479 24.8256 18.989 24.8178 18.929C24.7925 18.7316 24.7591 18.5353 24.7178 18.3406C24.7039 18.2773 24.685 18.2162 24.6694 18.1534C24.6238 17.9658 24.5706 17.7801 24.51 17.5967C24.4894 17.5351 24.4656 17.4751 24.4433 17.4145C24.3783 17.2356 24.3062 17.0594 24.2272 16.8862C24.1993 16.8257 24.1702 16.7656 24.14 16.7062C23.9455 16.3095 23.7139 15.9321 23.4483 15.579C23.4078 15.5245 23.3689 15.4695 23.3267 15.4162C23.2045 15.2628 23.076 15.1145 22.9417 14.9717C22.9039 14.9312 22.8689 14.8884 22.83 14.849C22.655 14.6685 22.4707 14.4973 22.2778 14.3362C25.5706 14.4245 28.2222 17.1306 28.2222 20.4445ZM20.8461 5.51175C21.0806 5.4673 21.3172 5.44453 21.5556 5.44453C23.6994 5.44453 25.4444 7.18897 25.4444 9.33342C25.4444 11.4779 23.6994 13.2223 21.5556 13.2223C20.7928 13.2223 20.0589 13.0001 19.43 12.5867C19.4383 12.5806 19.445 12.5729 19.4528 12.5662C19.9315 12.1848 20.3443 11.7272 20.6744 11.2117L20.705 11.1617C20.8011 11.0084 20.8894 10.8506 20.9706 10.6879L21.0089 10.6079C21.0828 10.454 21.1489 10.2962 21.2083 10.1345L21.245 10.0345C21.2989 9.87859 21.3456 9.72028 21.385 9.56008C21.395 9.52008 21.4067 9.48064 21.4156 9.44064C21.4511 9.28341 21.4778 9.12341 21.4994 8.96119C21.5056 8.91842 21.5144 8.87619 21.5189 8.83286C21.5422 8.63286 21.5556 8.42897 21.5556 8.2223C21.5556 8.0023 21.5394 7.78675 21.5144 7.57341C21.5067 7.50564 21.4939 7.43897 21.4833 7.37119C21.4494 7.15166 21.4028 6.93426 21.3439 6.72008C21.2989 6.56053 21.2467 6.40314 21.1872 6.24841C21.1706 6.20564 21.1572 6.16175 21.14 6.11953C21.0559 5.91486 20.9597 5.71542 20.8517 5.5223C20.8489 5.51841 20.8478 5.51508 20.8461 5.51175ZM19.4239 5.39175L19.4578 5.43564C19.485 5.46953 19.5094 5.50508 19.5356 5.53953C19.8189 5.9123 20.0356 6.31841 20.1878 6.74675C20.1978 6.77453 20.2089 6.80175 20.2183 6.83008C20.2844 7.02953 20.3344 7.23341 20.3717 7.44119C20.3794 7.48453 20.3856 7.52897 20.3917 7.57286C20.4228 7.78675 20.4444 8.00286 20.4444 8.2223C20.4444 8.40453 20.4306 8.58453 20.4083 8.76286C20.4033 8.80453 20.3956 8.84564 20.3894 8.8873C20.3674 9.03389 20.3379 9.17926 20.3011 9.32286C20.2933 9.35286 20.2861 9.38341 20.2778 9.41341C20.178 9.77025 20.0341 10.1133 19.8494 10.4345L19.8394 10.4512C19.7495 10.6052 19.6502 10.7537 19.5422 10.8956L19.5128 10.9351C19.2849 11.2299 19.021 11.4949 18.7272 11.724L18.6744 11.7634C18.5366 11.8679 18.3929 11.9644 18.2439 12.0523C18.2172 12.0679 18.1922 12.0851 18.165 12.1001L18.1017 12.1367C17.475 12.4745 16.76 12.6667 16 12.6667C15.24 12.6667 14.525 12.4745 13.8989 12.1367L13.8356 12.1001C13.8089 12.0851 13.7833 12.0679 13.7567 12.0523C13.6077 11.9644 13.4639 11.8679 13.3261 11.7634L13.2733 11.724C12.9798 11.4946 12.7159 11.2296 12.4878 10.9351L12.4583 10.8956C12.3505 10.7535 12.2513 10.6051 12.1611 10.4512L12.1511 10.4345C11.9662 10.1132 11.8221 9.76994 11.7222 9.41286C11.7139 9.38341 11.7067 9.35286 11.6989 9.32341C11.6621 9.17962 11.6327 9.03406 11.6106 8.8873C11.6044 8.84564 11.5967 8.80508 11.5917 8.76286C11.5684 8.5836 11.5564 8.40306 11.5556 8.2223C11.5556 8.00286 11.5772 7.78675 11.6083 7.57341C11.615 7.52953 11.6206 7.48564 11.6283 7.44175C11.6656 7.23453 11.7156 7.03008 11.7817 6.83064C11.7911 6.8023 11.8022 6.77508 11.8122 6.7473C11.9658 6.31357 12.1859 5.90631 12.4644 5.54008C12.4906 5.50564 12.515 5.46953 12.5422 5.43619L12.5761 5.3923C12.9923 4.88717 13.5151 4.48038 14.107 4.20109C14.699 3.9218 15.3454 3.77694 15.9999 3.77688C16.6544 3.77683 17.3008 3.92159 17.8928 4.20078C18.4847 4.47997 19.0076 4.88668 19.4239 5.39175ZM6.55555 9.33342C6.55555 7.18897 8.30055 5.44453 10.4444 5.44453C10.6828 5.44453 10.9194 5.4673 11.1539 5.51175L11.1489 5.5223C11.0417 5.71453 10.945 5.91341 10.8606 6.11897C10.8428 6.16175 10.8294 6.20564 10.8128 6.24897C10.7278 6.47116 10.6574 6.69869 10.6022 6.93008C10.5678 7.07508 10.54 7.2223 10.5167 7.37119C10.5061 7.43842 10.4939 7.50508 10.4856 7.57341C10.4606 7.78675 10.4444 8.0023 10.4444 8.2223C10.4444 8.42897 10.4578 8.63286 10.48 8.83342C10.485 8.87675 10.4939 8.91842 10.4994 8.96119C10.5211 9.12341 10.5483 9.28397 10.5833 9.44119C10.5922 9.48119 10.6039 9.52008 10.6139 9.55953C10.6539 9.72064 10.7 9.87953 10.7539 10.0351C10.7656 10.069 10.7783 10.1017 10.7906 10.1356C10.85 10.2967 10.9167 10.4545 10.99 10.6084L11.0289 10.689C11.11 10.8517 11.1983 11.0095 11.2944 11.1629L11.325 11.2129C11.6555 11.7281 12.0682 12.1856 12.5467 12.5673L12.5694 12.5879C11.9383 13.0025 11.1996 13.223 10.4444 13.2223C8.30055 13.2223 6.55555 11.4779 6.55555 9.33342ZM3.77778 26.0001V20.4445C3.77778 17.1306 6.42944 14.4245 9.72278 14.3356C9.52944 14.4962 9.34611 14.669 9.17055 14.8484C9.13166 14.8879 9.09666 14.9306 9.05889 14.9712C8.92434 15.1142 8.79571 15.2627 8.67333 15.4162C8.63166 15.469 8.59278 15.524 8.55222 15.5784C8.39924 15.7823 8.25737 15.9943 8.12722 16.2134C8.03166 16.374 7.94278 16.5379 7.86 16.7062C7.83055 16.7662 7.80111 16.8256 7.77278 16.8862C7.69333 17.0584 7.62222 17.2351 7.55666 17.4145C7.53444 17.4756 7.51055 17.5351 7.49 17.5967C7.42889 17.7795 7.37722 17.9656 7.33 18.1545C7.31444 18.2167 7.29611 18.2779 7.28222 18.3406C7.24088 18.5357 7.20752 18.7323 7.18222 18.9301C7.17389 18.9901 7.16166 19.0484 7.155 19.109C7.12722 19.3651 7.11111 19.6251 7.11111 19.889V26.0001H3.77778Z" />
    </mask>
    <path
        d="M7.11111 29.3334H24.8889V27.1112H29.3333V20.4445C29.3333 17.2034 27.1872 14.4551 24.2417 13.544C25.6306 12.6545 26.5556 11.1012 26.5556 9.33342C26.5556 6.57675 24.3128 4.33341 21.5556 4.33341C21.0806 4.33341 20.6094 4.40453 20.1494 4.54064C19.1311 3.39453 17.6506 2.66675 16 2.66675C14.3494 2.66675 12.8689 3.39453 11.8506 4.54064C11.3943 4.40423 10.9207 4.33443 10.4444 4.33341C7.68722 4.33341 5.44444 6.57675 5.44444 9.33342C5.44444 11.1012 6.36944 12.6545 7.75833 13.544C4.81278 14.4551 2.66666 17.2034 2.66666 20.4445V27.1112H7.11111V29.3334ZM23.7778 28.2223H8.22222V19.889C8.22222 19.7034 8.23389 19.5201 8.25 19.3384C8.25555 19.279 8.26277 19.2201 8.26944 19.1606C8.28444 19.0351 8.30389 18.9112 8.32666 18.7884C8.33833 18.7262 8.34777 18.6634 8.36111 18.6017C8.39555 18.4423 8.43611 18.2856 8.48222 18.1306C8.50555 18.054 8.53333 17.9795 8.55944 17.904C8.61814 17.7322 8.6845 17.5631 8.75833 17.3973C8.79389 17.3179 8.83278 17.2401 8.87166 17.1623C8.92833 17.049 8.98833 16.9379 9.05166 16.8284C9.10722 16.7334 9.16278 16.6384 9.22278 16.5467C9.26944 16.4756 9.31944 16.4067 9.36889 16.3373C9.42111 16.264 9.475 16.1917 9.53055 16.1212C9.58166 16.0562 9.63278 15.9917 9.68666 15.929C9.75666 15.8473 9.82944 15.7684 9.90333 15.6906C10.0555 15.5293 10.2161 15.3761 10.3844 15.2317C10.4456 15.1801 10.5089 15.1306 10.5722 15.0812C10.645 15.0245 10.7183 14.969 10.7939 14.9156C10.8639 14.8656 10.9339 14.8162 11.0067 14.769C11.08 14.7212 11.1556 14.6773 11.2306 14.6329C11.3722 14.549 11.5178 14.4706 11.6672 14.3979C11.7422 14.3612 11.8161 14.3229 11.8928 14.289L11.9822 14.249C12.7269 13.9375 13.5261 13.7773 14.3333 13.7779H17.6667C18.4994 13.7779 19.2933 13.9462 20.0172 14.2495L20.1067 14.2895C20.1833 14.3229 20.2572 14.3617 20.3322 14.3984C20.4817 14.4712 20.6272 14.5495 20.7689 14.6334C20.8444 14.6779 20.92 14.7217 20.9928 14.7695C21.142 14.8674 21.2869 14.9715 21.4272 15.0817C21.4906 15.1312 21.5539 15.1806 21.615 15.2323C21.7837 15.3762 21.9444 15.5294 22.0961 15.6912C22.17 15.769 22.2433 15.8479 22.3128 15.9295C22.424 16.0614 22.5301 16.1976 22.6306 16.3379C22.68 16.4073 22.7306 16.4756 22.7767 16.5473C22.9049 16.7459 23.0221 16.9514 23.1278 17.1629C23.1667 17.2406 23.2056 17.3184 23.2411 17.3979C23.3156 17.5634 23.3819 17.7325 23.44 17.9045C23.4661 17.9801 23.4939 18.0551 23.5172 18.1312C23.5639 18.2856 23.6044 18.4429 23.6383 18.6023C23.6517 18.664 23.6617 18.7267 23.6728 18.789C23.7398 19.1519 23.7749 19.5199 23.7778 19.889V28.2223ZM28.2222 20.4445V26.0001H24.8889V19.889C24.8889 19.6251 24.8728 19.3651 24.845 19.1084C24.8383 19.0479 24.8256 18.989 24.8178 18.929C24.7925 18.7316 24.7591 18.5353 24.7178 18.3406C24.7039 18.2773 24.685 18.2162 24.6694 18.1534C24.6238 17.9658 24.5706 17.7801 24.51 17.5967C24.4894 17.5351 24.4656 17.4751 24.4433 17.4145C24.3783 17.2356 24.3062 17.0594 24.2272 16.8862C24.1993 16.8257 24.1702 16.7656 24.14 16.7062C23.9455 16.3095 23.7139 15.9321 23.4483 15.579C23.4078 15.5245 23.3689 15.4695 23.3267 15.4162C23.2045 15.2628 23.076 15.1145 22.9417 14.9717C22.9039 14.9312 22.8689 14.8884 22.83 14.849C22.655 14.6685 22.4707 14.4973 22.2778 14.3362C25.5706 14.4245 28.2222 17.1306 28.2222 20.4445ZM20.8461 5.51175C21.0806 5.4673 21.3172 5.44453 21.5556 5.44453C23.6994 5.44453 25.4444 7.18897 25.4444 9.33342C25.4444 11.4779 23.6994 13.2223 21.5556 13.2223C20.7928 13.2223 20.0589 13.0001 19.43 12.5867C19.4383 12.5806 19.445 12.5729 19.4528 12.5662C19.9315 12.1848 20.3443 11.7272 20.6744 11.2117L20.705 11.1617C20.8011 11.0084 20.8894 10.8506 20.9706 10.6879L21.0089 10.6079C21.0828 10.454 21.1489 10.2962 21.2083 10.1345L21.245 10.0345C21.2989 9.87859 21.3456 9.72028 21.385 9.56008C21.395 9.52008 21.4067 9.48064 21.4156 9.44064C21.4511 9.28341 21.4778 9.12341 21.4994 8.96119C21.5056 8.91842 21.5144 8.87619 21.5189 8.83286C21.5422 8.63286 21.5556 8.42897 21.5556 8.2223C21.5556 8.0023 21.5394 7.78675 21.5144 7.57341C21.5067 7.50564 21.4939 7.43897 21.4833 7.37119C21.4494 7.15166 21.4028 6.93426 21.3439 6.72008C21.2989 6.56053 21.2467 6.40314 21.1872 6.24841C21.1706 6.20564 21.1572 6.16175 21.14 6.11953C21.0559 5.91486 20.9597 5.71542 20.8517 5.5223C20.8489 5.51841 20.8478 5.51508 20.8461 5.51175ZM19.4239 5.39175L19.4578 5.43564C19.485 5.46953 19.5094 5.50508 19.5356 5.53953C19.8189 5.9123 20.0356 6.31841 20.1878 6.74675C20.1978 6.77453 20.2089 6.80175 20.2183 6.83008C20.2844 7.02953 20.3344 7.23341 20.3717 7.44119C20.3794 7.48453 20.3856 7.52897 20.3917 7.57286C20.4228 7.78675 20.4444 8.00286 20.4444 8.2223C20.4444 8.40453 20.4306 8.58453 20.4083 8.76286C20.4033 8.80453 20.3956 8.84564 20.3894 8.8873C20.3674 9.03389 20.3379 9.17926 20.3011 9.32286C20.2933 9.35286 20.2861 9.38341 20.2778 9.41341C20.178 9.77025 20.0341 10.1133 19.8494 10.4345L19.8394 10.4512C19.7495 10.6052 19.6502 10.7537 19.5422 10.8956L19.5128 10.9351C19.2849 11.2299 19.021 11.4949 18.7272 11.724L18.6744 11.7634C18.5366 11.8679 18.3929 11.9644 18.2439 12.0523C18.2172 12.0679 18.1922 12.0851 18.165 12.1001L18.1017 12.1367C17.475 12.4745 16.76 12.6667 16 12.6667C15.24 12.6667 14.525 12.4745 13.8989 12.1367L13.8356 12.1001C13.8089 12.0851 13.7833 12.0679 13.7567 12.0523C13.6077 11.9644 13.4639 11.8679 13.3261 11.7634L13.2733 11.724C12.9798 11.4946 12.7159 11.2296 12.4878 10.9351L12.4583 10.8956C12.3505 10.7535 12.2513 10.6051 12.1611 10.4512L12.1511 10.4345C11.9662 10.1132 11.8221 9.76994 11.7222 9.41286C11.7139 9.38341 11.7067 9.35286 11.6989 9.32341C11.6621 9.17962 11.6327 9.03406 11.6106 8.8873C11.6044 8.84564 11.5967 8.80508 11.5917 8.76286C11.5684 8.5836 11.5564 8.40306 11.5556 8.2223C11.5556 8.00286 11.5772 7.78675 11.6083 7.57341C11.615 7.52953 11.6206 7.48564 11.6283 7.44175C11.6656 7.23453 11.7156 7.03008 11.7817 6.83064C11.7911 6.8023 11.8022 6.77508 11.8122 6.7473C11.9658 6.31357 12.1859 5.90631 12.4644 5.54008C12.4906 5.50564 12.515 5.46953 12.5422 5.43619L12.5761 5.3923C12.9923 4.88717 13.5151 4.48038 14.107 4.20109C14.699 3.9218 15.3454 3.77694 15.9999 3.77688C16.6544 3.77683 17.3008 3.92159 17.8928 4.20078C18.4847 4.47997 19.0076 4.88668 19.4239 5.39175ZM6.55555 9.33342C6.55555 7.18897 8.30055 5.44453 10.4444 5.44453C10.6828 5.44453 10.9194 5.4673 11.1539 5.51175L11.1489 5.5223C11.0417 5.71453 10.945 5.91341 10.8606 6.11897C10.8428 6.16175 10.8294 6.20564 10.8128 6.24897C10.7278 6.47116 10.6574 6.69869 10.6022 6.93008C10.5678 7.07508 10.54 7.2223 10.5167 7.37119C10.5061 7.43842 10.4939 7.50508 10.4856 7.57341C10.4606 7.78675 10.4444 8.0023 10.4444 8.2223C10.4444 8.42897 10.4578 8.63286 10.48 8.83342C10.485 8.87675 10.4939 8.91842 10.4994 8.96119C10.5211 9.12341 10.5483 9.28397 10.5833 9.44119C10.5922 9.48119 10.6039 9.52008 10.6139 9.55953C10.6539 9.72064 10.7 9.87953 10.7539 10.0351C10.7656 10.069 10.7783 10.1017 10.7906 10.1356C10.85 10.2967 10.9167 10.4545 10.99 10.6084L11.0289 10.689C11.11 10.8517 11.1983 11.0095 11.2944 11.1629L11.325 11.2129C11.6555 11.7281 12.0682 12.1856 12.5467 12.5673L12.5694 12.5879C11.9383 13.0025 11.1996 13.223 10.4444 13.2223C8.30055 13.2223 6.55555 11.4779 6.55555 9.33342ZM3.77778 26.0001V20.4445C3.77778 17.1306 6.42944 14.4245 9.72278 14.3356C9.52944 14.4962 9.34611 14.669 9.17055 14.8484C9.13166 14.8879 9.09666 14.9306 9.05889 14.9712C8.92434 15.1142 8.79571 15.2627 8.67333 15.4162C8.63166 15.469 8.59278 15.524 8.55222 15.5784C8.39924 15.7823 8.25737 15.9943 8.12722 16.2134C8.03166 16.374 7.94278 16.5379 7.86 16.7062C7.83055 16.7662 7.80111 16.8256 7.77278 16.8862C7.69333 17.0584 7.62222 17.2351 7.55666 17.4145C7.53444 17.4756 7.51055 17.5351 7.49 17.5967C7.42889 17.7795 7.37722 17.9656 7.33 18.1545C7.31444 18.2167 7.29611 18.2779 7.28222 18.3406C7.24088 18.5357 7.20752 18.7323 7.18222 18.9301C7.17389 18.9901 7.16166 19.0484 7.155 19.109C7.12722 19.3651 7.11111 19.6251 7.11111 19.889V26.0001H3.77778Z"
        fill="#CD7D0D" />
    <path
        d="M7.11111 29.3334H24.8889V27.1112H29.3333V20.4445C29.3333 17.2034 27.1872 14.4551 24.2417 13.544C25.6306 12.6545 26.5556 11.1012 26.5556 9.33342C26.5556 6.57675 24.3128 4.33341 21.5556 4.33341C21.0806 4.33341 20.6094 4.40453 20.1494 4.54064C19.1311 3.39453 17.6506 2.66675 16 2.66675C14.3494 2.66675 12.8689 3.39453 11.8506 4.54064C11.3943 4.40423 10.9207 4.33443 10.4444 4.33341C7.68722 4.33341 5.44444 6.57675 5.44444 9.33342C5.44444 11.1012 6.36944 12.6545 7.75833 13.544C4.81278 14.4551 2.66666 17.2034 2.66666 20.4445V27.1112H7.11111V29.3334ZM23.7778 28.2223H8.22222V19.889C8.22222 19.7034 8.23389 19.5201 8.25 19.3384C8.25555 19.279 8.26277 19.2201 8.26944 19.1606C8.28444 19.0351 8.30389 18.9112 8.32666 18.7884C8.33833 18.7262 8.34777 18.6634 8.36111 18.6017C8.39555 18.4423 8.43611 18.2856 8.48222 18.1306C8.50555 18.054 8.53333 17.9795 8.55944 17.904C8.61814 17.7322 8.6845 17.5631 8.75833 17.3973C8.79389 17.3179 8.83278 17.2401 8.87166 17.1623C8.92833 17.049 8.98833 16.9379 9.05166 16.8284C9.10722 16.7334 9.16278 16.6384 9.22278 16.5467C9.26944 16.4756 9.31944 16.4067 9.36889 16.3373C9.42111 16.264 9.475 16.1917 9.53055 16.1212C9.58166 16.0562 9.63278 15.9917 9.68666 15.929C9.75666 15.8473 9.82944 15.7684 9.90333 15.6906C10.0555 15.5293 10.2161 15.3761 10.3844 15.2317C10.4456 15.1801 10.5089 15.1306 10.5722 15.0812C10.645 15.0245 10.7183 14.969 10.7939 14.9156C10.8639 14.8656 10.9339 14.8162 11.0067 14.769C11.08 14.7212 11.1556 14.6773 11.2306 14.6329C11.3722 14.549 11.5178 14.4706 11.6672 14.3979C11.7422 14.3612 11.8161 14.3229 11.8928 14.289L11.9822 14.249C12.7269 13.9375 13.5261 13.7773 14.3333 13.7779H17.6667C18.4994 13.7779 19.2933 13.9462 20.0172 14.2495L20.1067 14.2895C20.1833 14.3229 20.2572 14.3617 20.3322 14.3984C20.4817 14.4712 20.6272 14.5495 20.7689 14.6334C20.8444 14.6779 20.92 14.7217 20.9928 14.7695C21.142 14.8674 21.2869 14.9715 21.4272 15.0817C21.4906 15.1312 21.5539 15.1806 21.615 15.2323C21.7837 15.3762 21.9444 15.5294 22.0961 15.6912C22.17 15.769 22.2433 15.8479 22.3128 15.9295C22.424 16.0614 22.5301 16.1976 22.6306 16.3379C22.68 16.4073 22.7306 16.4756 22.7767 16.5473C22.9049 16.7459 23.0221 16.9514 23.1278 17.1629C23.1667 17.2406 23.2056 17.3184 23.2411 17.3979C23.3156 17.5634 23.3819 17.7325 23.44 17.9045C23.4661 17.9801 23.4939 18.0551 23.5172 18.1312C23.5639 18.2856 23.6044 18.4429 23.6383 18.6023C23.6517 18.664 23.6617 18.7267 23.6728 18.789C23.7398 19.1519 23.7749 19.5199 23.7778 19.889V28.2223ZM28.2222 20.4445V26.0001H24.8889V19.889C24.8889 19.6251 24.8728 19.3651 24.845 19.1084C24.8383 19.0479 24.8256 18.989 24.8178 18.929C24.7925 18.7316 24.7591 18.5353 24.7178 18.3406C24.7039 18.2773 24.685 18.2162 24.6694 18.1534C24.6238 17.9658 24.5706 17.7801 24.51 17.5967C24.4894 17.5351 24.4656 17.4751 24.4433 17.4145C24.3783 17.2356 24.3062 17.0594 24.2272 16.8862C24.1993 16.8257 24.1702 16.7656 24.14 16.7062C23.9455 16.3095 23.7139 15.9321 23.4483 15.579C23.4078 15.5245 23.3689 15.4695 23.3267 15.4162C23.2045 15.2628 23.076 15.1145 22.9417 14.9717C22.9039 14.9312 22.8689 14.8884 22.83 14.849C22.655 14.6685 22.4707 14.4973 22.2778 14.3362C25.5706 14.4245 28.2222 17.1306 28.2222 20.4445ZM20.8461 5.51175C21.0806 5.4673 21.3172 5.44453 21.5556 5.44453C23.6994 5.44453 25.4444 7.18897 25.4444 9.33342C25.4444 11.4779 23.6994 13.2223 21.5556 13.2223C20.7928 13.2223 20.0589 13.0001 19.43 12.5867C19.4383 12.5806 19.445 12.5729 19.4528 12.5662C19.9315 12.1848 20.3443 11.7272 20.6744 11.2117L20.705 11.1617C20.8011 11.0084 20.8894 10.8506 20.9706 10.6879L21.0089 10.6079C21.0828 10.454 21.1489 10.2962 21.2083 10.1345L21.245 10.0345C21.2989 9.87859 21.3456 9.72028 21.385 9.56008C21.395 9.52008 21.4067 9.48064 21.4156 9.44064C21.4511 9.28341 21.4778 9.12341 21.4994 8.96119C21.5056 8.91842 21.5144 8.87619 21.5189 8.83286C21.5422 8.63286 21.5556 8.42897 21.5556 8.2223C21.5556 8.0023 21.5394 7.78675 21.5144 7.57341C21.5067 7.50564 21.4939 7.43897 21.4833 7.37119C21.4494 7.15166 21.4028 6.93426 21.3439 6.72008C21.2989 6.56053 21.2467 6.40314 21.1872 6.24841C21.1706 6.20564 21.1572 6.16175 21.14 6.11953C21.0559 5.91486 20.9597 5.71542 20.8517 5.5223C20.8489 5.51841 20.8478 5.51508 20.8461 5.51175ZM19.4239 5.39175L19.4578 5.43564C19.485 5.46953 19.5094 5.50508 19.5356 5.53953C19.8189 5.9123 20.0356 6.31841 20.1878 6.74675C20.1978 6.77453 20.2089 6.80175 20.2183 6.83008C20.2844 7.02953 20.3344 7.23341 20.3717 7.44119C20.3794 7.48453 20.3856 7.52897 20.3917 7.57286C20.4228 7.78675 20.4444 8.00286 20.4444 8.2223C20.4444 8.40453 20.4306 8.58453 20.4083 8.76286C20.4033 8.80453 20.3956 8.84564 20.3894 8.8873C20.3674 9.03389 20.3379 9.17926 20.3011 9.32286C20.2933 9.35286 20.2861 9.38341 20.2778 9.41341C20.178 9.77025 20.0341 10.1133 19.8494 10.4345L19.8394 10.4512C19.7495 10.6052 19.6502 10.7537 19.5422 10.8956L19.5128 10.9351C19.2849 11.2299 19.021 11.4949 18.7272 11.724L18.6744 11.7634C18.5366 11.8679 18.3929 11.9644 18.2439 12.0523C18.2172 12.0679 18.1922 12.0851 18.165 12.1001L18.1017 12.1367C17.475 12.4745 16.76 12.6667 16 12.6667C15.24 12.6667 14.525 12.4745 13.8989 12.1367L13.8356 12.1001C13.8089 12.0851 13.7833 12.0679 13.7567 12.0523C13.6077 11.9644 13.4639 11.8679 13.3261 11.7634L13.2733 11.724C12.9798 11.4946 12.7159 11.2296 12.4878 10.9351L12.4583 10.8956C12.3505 10.7535 12.2513 10.6051 12.1611 10.4512L12.1511 10.4345C11.9662 10.1132 11.8221 9.76994 11.7222 9.41286C11.7139 9.38341 11.7067 9.35286 11.6989 9.32341C11.6621 9.17962 11.6327 9.03406 11.6106 8.8873C11.6044 8.84564 11.5967 8.80508 11.5917 8.76286C11.5684 8.5836 11.5564 8.40306 11.5556 8.2223C11.5556 8.00286 11.5772 7.78675 11.6083 7.57341C11.615 7.52953 11.6206 7.48564 11.6283 7.44175C11.6656 7.23453 11.7156 7.03008 11.7817 6.83064C11.7911 6.8023 11.8022 6.77508 11.8122 6.7473C11.9658 6.31357 12.1859 5.90631 12.4644 5.54008C12.4906 5.50564 12.515 5.46953 12.5422 5.43619L12.5761 5.3923C12.9923 4.88717 13.5151 4.48038 14.107 4.20109C14.699 3.9218 15.3454 3.77694 15.9999 3.77688C16.6544 3.77683 17.3008 3.92159 17.8928 4.20078C18.4847 4.47997 19.0076 4.88668 19.4239 5.39175ZM6.55555 9.33342C6.55555 7.18897 8.30055 5.44453 10.4444 5.44453C10.6828 5.44453 10.9194 5.4673 11.1539 5.51175L11.1489 5.5223C11.0417 5.71453 10.945 5.91341 10.8606 6.11897C10.8428 6.16175 10.8294 6.20564 10.8128 6.24897C10.7278 6.47116 10.6574 6.69869 10.6022 6.93008C10.5678 7.07508 10.54 7.2223 10.5167 7.37119C10.5061 7.43842 10.4939 7.50508 10.4856 7.57341C10.4606 7.78675 10.4444 8.0023 10.4444 8.2223C10.4444 8.42897 10.4578 8.63286 10.48 8.83342C10.485 8.87675 10.4939 8.91842 10.4994 8.96119C10.5211 9.12341 10.5483 9.28397 10.5833 9.44119C10.5922 9.48119 10.6039 9.52008 10.6139 9.55953C10.6539 9.72064 10.7 9.87953 10.7539 10.0351C10.7656 10.069 10.7783 10.1017 10.7906 10.1356C10.85 10.2967 10.9167 10.4545 10.99 10.6084L11.0289 10.689C11.11 10.8517 11.1983 11.0095 11.2944 11.1629L11.325 11.2129C11.6555 11.7281 12.0682 12.1856 12.5467 12.5673L12.5694 12.5879C11.9383 13.0025 11.1996 13.223 10.4444 13.2223C8.30055 13.2223 6.55555 11.4779 6.55555 9.33342ZM3.77778 26.0001V20.4445C3.77778 17.1306 6.42944 14.4245 9.72278 14.3356C9.52944 14.4962 9.34611 14.669 9.17055 14.8484C9.13166 14.8879 9.09666 14.9306 9.05889 14.9712C8.92434 15.1142 8.79571 15.2627 8.67333 15.4162C8.63166 15.469 8.59278 15.524 8.55222 15.5784C8.39924 15.7823 8.25737 15.9943 8.12722 16.2134C8.03166 16.374 7.94278 16.5379 7.86 16.7062C7.83055 16.7662 7.80111 16.8256 7.77278 16.8862C7.69333 17.0584 7.62222 17.2351 7.55666 17.4145C7.53444 17.4756 7.51055 17.5351 7.49 17.5967C7.42889 17.7795 7.37722 17.9656 7.33 18.1545C7.31444 18.2167 7.29611 18.2779 7.28222 18.3406C7.24088 18.5357 7.20752 18.7323 7.18222 18.9301C7.17389 18.9901 7.16166 19.0484 7.155 19.109C7.12722 19.3651 7.11111 19.6251 7.11111 19.889V26.0001H3.77778Z"
        stroke="#CD7D0D" stroke-width="0.6" mask="url(#path-1-outside-1_2911_17073)" />
</svg>