<svg width="48" height="48" viewBox="0 0 48 48" fill="none" xmlns="http://www.w3.org/2000/svg">
<rect width="48" height="48" rx="8" fill="#F6E9D7"/>
<mask id="path-2-outside-1_2911_17072" maskUnits="userSpaceOnUse" x="8.66666" y="9.66675" width="28" height="28" fill="black">
<rect fill="white" x="8.66666" y="9.66675" width="28" height="28"/>
<path d="M14.1111 37.3334H31.8889V35.1112H36.3333V28.4445C36.3333 25.2034 34.1872 22.4551 31.2417 21.544C32.6306 20.6545 33.5556 19.1012 33.5556 17.3334C33.5556 14.5767 31.3128 12.3334 28.5556 12.3334C28.0806 12.3334 27.6094 12.4045 27.1494 12.5406C26.1311 11.3945 24.6506 10.6667 23 10.6667C21.3494 10.6667 19.8689 11.3945 18.8506 12.5406C18.3943 12.4042 17.9207 12.3344 17.4444 12.3334C14.6872 12.3334 12.4444 14.5767 12.4444 17.3334C12.4444 19.1012 13.3694 20.6545 14.7583 21.544C11.8128 22.4551 9.66666 25.2034 9.66666 28.4445V35.1112H14.1111V37.3334ZM30.7778 36.2223H15.2222V27.889C15.2222 27.7034 15.2339 27.5201 15.25 27.3384C15.2556 27.279 15.2628 27.2201 15.2694 27.1606C15.2844 27.0351 15.3039 26.9112 15.3267 26.7884C15.3383 26.7262 15.3478 26.6634 15.3611 26.6017C15.3956 26.4423 15.4361 26.2856 15.4822 26.1306C15.5056 26.054 15.5333 25.9795 15.5594 25.904C15.6181 25.7322 15.6845 25.5631 15.7583 25.3973C15.7939 25.3179 15.8328 25.2401 15.8717 25.1623C15.9283 25.049 15.9883 24.9379 16.0517 24.8284C16.1072 24.7334 16.1628 24.6384 16.2228 24.5467C16.2694 24.4756 16.3194 24.4067 16.3689 24.3373C16.4211 24.264 16.475 24.1917 16.5306 24.1212C16.5817 24.0562 16.6328 23.9917 16.6867 23.929C16.7567 23.8473 16.8294 23.7684 16.9033 23.6906C17.0555 23.5293 17.2161 23.3761 17.3844 23.2317C17.4456 23.1801 17.5089 23.1306 17.5722 23.0812C17.645 23.0245 17.7183 22.969 17.7939 22.9156C17.8639 22.8656 17.9339 22.8162 18.0067 22.769C18.08 22.7212 18.1556 22.6773 18.2306 22.6329C18.3722 22.549 18.5178 22.4706 18.6672 22.3979C18.7422 22.3612 18.8161 22.3229 18.8928 22.289L18.9822 22.249C19.7269 21.9375 20.5261 21.7773 21.3333 21.7779H24.6667C25.4994 21.7779 26.2933 21.9462 27.0172 22.2495L27.1067 22.2895C27.1833 22.3229 27.2572 22.3617 27.3322 22.3984C27.4817 22.4712 27.6272 22.5495 27.7689 22.6334C27.8444 22.6779 27.92 22.7217 27.9928 22.7695C28.142 22.8674 28.2869 22.9715 28.4272 23.0817C28.4906 23.1312 28.5539 23.1806 28.615 23.2323C28.7837 23.3762 28.9444 23.5294 29.0961 23.6912C29.17 23.769 29.2433 23.8479 29.3128 23.9295C29.424 24.0614 29.5301 24.1976 29.6306 24.3379C29.68 24.4073 29.7306 24.4756 29.7767 24.5473C29.9049 24.7459 30.0221 24.9514 30.1278 25.1629C30.1667 25.2406 30.2056 25.3184 30.2411 25.3979C30.3156 25.5634 30.3819 25.7325 30.44 25.9045C30.4661 25.9801 30.4939 26.0551 30.5172 26.1312C30.5639 26.2856 30.6044 26.4429 30.6383 26.6023C30.6517 26.664 30.6617 26.7267 30.6728 26.789C30.7398 27.1519 30.7749 27.5199 30.7778 27.889V36.2223ZM35.2222 28.4445V34.0001H31.8889V27.889C31.8889 27.6251 31.8728 27.3651 31.845 27.1084C31.8383 27.0479 31.8256 26.989 31.8178 26.929C31.7925 26.7316 31.7591 26.5353 31.7178 26.3406C31.7039 26.2773 31.685 26.2162 31.6694 26.1534C31.6238 25.9658 31.5706 25.7801 31.51 25.5967C31.4894 25.5351 31.4656 25.4751 31.4433 25.4145C31.3783 25.2356 31.3062 25.0594 31.2272 24.8862C31.1993 24.8257 31.1702 24.7656 31.14 24.7062C30.9455 24.3095 30.7139 23.9321 30.4483 23.579C30.4078 23.5245 30.3689 23.4695 30.3267 23.4162C30.2045 23.2628 30.076 23.1145 29.9417 22.9717C29.9039 22.9312 29.8689 22.8884 29.83 22.849C29.655 22.6685 29.4707 22.4973 29.2778 22.3362C32.5706 22.4245 35.2222 25.1306 35.2222 28.4445ZM27.8461 13.5117C28.0806 13.4673 28.3172 13.4445 28.5556 13.4445C30.6994 13.4445 32.4444 15.189 32.4444 17.3334C32.4444 19.4779 30.6994 21.2223 28.5556 21.2223C27.7928 21.2223 27.0589 21.0001 26.43 20.5867C26.4383 20.5806 26.445 20.5729 26.4528 20.5662C26.9315 20.1848 27.3443 19.7272 27.6744 19.2117L27.705 19.1617C27.8011 19.0084 27.8894 18.8506 27.9706 18.6879L28.0089 18.6079C28.0828 18.454 28.1489 18.2962 28.2083 18.1345L28.245 18.0345C28.2989 17.8786 28.3456 17.7203 28.385 17.5601C28.395 17.5201 28.4067 17.4806 28.4156 17.4406C28.4511 17.2834 28.4778 17.1234 28.4994 16.9612C28.5056 16.9184 28.5144 16.8762 28.5189 16.8329C28.5422 16.6329 28.5556 16.429 28.5556 16.2223C28.5556 16.0023 28.5394 15.7867 28.5144 15.5734C28.5067 15.5056 28.4939 15.439 28.4833 15.3712C28.4494 15.1517 28.4028 14.9343 28.3439 14.7201C28.2989 14.5605 28.2467 14.4031 28.1872 14.2484C28.1706 14.2056 28.1572 14.1617 28.14 14.1195C28.0559 13.9149 27.9597 13.7154 27.8517 13.5223C27.8489 13.5184 27.8478 13.5151 27.8461 13.5117ZM26.4239 13.3917L26.4578 13.4356C26.485 13.4695 26.5094 13.5051 26.5356 13.5395C26.8189 13.9123 27.0356 14.3184 27.1878 14.7467C27.1978 14.7745 27.2089 14.8017 27.2183 14.8301C27.2844 15.0295 27.3344 15.2334 27.3717 15.4412C27.3794 15.4845 27.3856 15.529 27.3917 15.5729C27.4228 15.7867 27.4444 16.0029 27.4444 16.2223C27.4444 16.4045 27.4306 16.5845 27.4083 16.7629C27.4033 16.8045 27.3956 16.8456 27.3894 16.8873C27.3674 17.0339 27.3379 17.1793 27.3011 17.3229C27.2933 17.3529 27.2861 17.3834 27.2778 17.4134C27.178 17.7703 27.0341 18.1133 26.8494 18.4345L26.8394 18.4512C26.7495 18.6052 26.6502 18.7537 26.5422 18.8956L26.5128 18.9351C26.2849 19.2299 26.021 19.4949 25.7272 19.724L25.6744 19.7634C25.5366 19.8679 25.3929 19.9644 25.2439 20.0523C25.2172 20.0679 25.1922 20.0851 25.165 20.1001L25.1017 20.1367C24.475 20.4745 23.76 20.6667 23 20.6667C22.24 20.6667 21.525 20.4745 20.8989 20.1367L20.8356 20.1001C20.8089 20.0851 20.7833 20.0679 20.7567 20.0523C20.6077 19.9644 20.4639 19.8679 20.3261 19.7634L20.2733 19.724C19.9798 19.4946 19.7159 19.2296 19.4878 18.9351L19.4583 18.8956C19.3505 18.7535 19.2513 18.6051 19.1611 18.4512L19.1511 18.4345C18.9662 18.1132 18.8221 17.7699 18.7222 17.4129C18.7139 17.3834 18.7067 17.3529 18.6989 17.3234C18.6621 17.1796 18.6327 17.0341 18.6106 16.8873C18.6044 16.8456 18.5967 16.8051 18.5917 16.7629C18.5684 16.5836 18.5564 16.4031 18.5556 16.2223C18.5556 16.0029 18.5772 15.7867 18.6083 15.5734C18.615 15.5295 18.6206 15.4856 18.6283 15.4417C18.6656 15.2345 18.7156 15.0301 18.7817 14.8306C18.7911 14.8023 18.8022 14.7751 18.8122 14.7473C18.9658 14.3136 19.1859 13.9063 19.4644 13.5401C19.4906 13.5056 19.515 13.4695 19.5422 13.4362L19.5761 13.3923C19.9923 12.8872 20.5151 12.4804 21.107 12.2011C21.699 11.9218 22.3454 11.7769 22.9999 11.7769C23.6544 11.7768 24.3008 11.9216 24.8928 12.2008C25.4847 12.48 26.0076 12.8867 26.4239 13.3917ZM13.5556 17.3334C13.5556 15.189 15.3006 13.4445 17.4444 13.4445C17.6828 13.4445 17.9194 13.4673 18.1539 13.5117L18.1489 13.5223C18.0417 13.7145 17.945 13.9134 17.8606 14.119C17.8428 14.1617 17.8294 14.2056 17.8128 14.249C17.7278 14.4712 17.6574 14.6987 17.6022 14.9301C17.5678 15.0751 17.54 15.2223 17.5167 15.3712C17.5061 15.4384 17.4939 15.5051 17.4856 15.5734C17.4606 15.7867 17.4444 16.0023 17.4444 16.2223C17.4444 16.429 17.4578 16.6329 17.48 16.8334C17.485 16.8767 17.4939 16.9184 17.4994 16.9612C17.5211 17.1234 17.5483 17.284 17.5833 17.4412C17.5922 17.4812 17.6039 17.5201 17.6139 17.5595C17.6539 17.7206 17.7 17.8795 17.7539 18.0351C17.7656 18.069 17.7783 18.1017 17.7906 18.1356C17.85 18.2967 17.9167 18.4545 17.99 18.6084L18.0289 18.689C18.11 18.8517 18.1983 19.0095 18.2944 19.1629L18.325 19.2129C18.6555 19.7281 19.0682 20.1856 19.5467 20.5673L19.5694 20.5879C18.9383 21.0025 18.1996 21.223 17.4444 21.2223C15.3006 21.2223 13.5556 19.4779 13.5556 17.3334ZM10.7778 34.0001V28.4445C10.7778 25.1306 13.4294 22.4245 16.7228 22.3356C16.5294 22.4962 16.3461 22.669 16.1706 22.8484C16.1317 22.8879 16.0967 22.9306 16.0589 22.9712C15.9243 23.1142 15.7957 23.2627 15.6733 23.4162C15.6317 23.469 15.5928 23.524 15.5522 23.5784C15.3992 23.7823 15.2574 23.9943 15.1272 24.2134C15.0317 24.374 14.9428 24.5379 14.86 24.7062C14.8306 24.7662 14.8011 24.8256 14.7728 24.8862C14.6933 25.0584 14.6222 25.2351 14.5567 25.4145C14.5344 25.4756 14.5106 25.5351 14.49 25.5967C14.4289 25.7795 14.3772 25.9656 14.33 26.1545C14.3144 26.2167 14.2961 26.2779 14.2822 26.3406C14.2409 26.5357 14.2075 26.7323 14.1822 26.9301C14.1739 26.9901 14.1617 27.0484 14.155 27.109C14.1272 27.3651 14.1111 27.6251 14.1111 27.889V34.0001H10.7778Z"/>
</mask>
<path d="M14.1111 37.3334H31.8889V35.1112H36.3333V28.4445C36.3333 25.2034 34.1872 22.4551 31.2417 21.544C32.6306 20.6545 33.5556 19.1012 33.5556 17.3334C33.5556 14.5767 31.3128 12.3334 28.5556 12.3334C28.0806 12.3334 27.6094 12.4045 27.1494 12.5406C26.1311 11.3945 24.6506 10.6667 23 10.6667C21.3494 10.6667 19.8689 11.3945 18.8506 12.5406C18.3943 12.4042 17.9207 12.3344 17.4444 12.3334C14.6872 12.3334 12.4444 14.5767 12.4444 17.3334C12.4444 19.1012 13.3694 20.6545 14.7583 21.544C11.8128 22.4551 9.66666 25.2034 9.66666 28.4445V35.1112H14.1111V37.3334ZM30.7778 36.2223H15.2222V27.889C15.2222 27.7034 15.2339 27.5201 15.25 27.3384C15.2556 27.279 15.2628 27.2201 15.2694 27.1606C15.2844 27.0351 15.3039 26.9112 15.3267 26.7884C15.3383 26.7262 15.3478 26.6634 15.3611 26.6017C15.3956 26.4423 15.4361 26.2856 15.4822 26.1306C15.5056 26.054 15.5333 25.9795 15.5594 25.904C15.6181 25.7322 15.6845 25.5631 15.7583 25.3973C15.7939 25.3179 15.8328 25.2401 15.8717 25.1623C15.9283 25.049 15.9883 24.9379 16.0517 24.8284C16.1072 24.7334 16.1628 24.6384 16.2228 24.5467C16.2694 24.4756 16.3194 24.4067 16.3689 24.3373C16.4211 24.264 16.475 24.1917 16.5306 24.1212C16.5817 24.0562 16.6328 23.9917 16.6867 23.929C16.7567 23.8473 16.8294 23.7684 16.9033 23.6906C17.0555 23.5293 17.2161 23.3761 17.3844 23.2317C17.4456 23.1801 17.5089 23.1306 17.5722 23.0812C17.645 23.0245 17.7183 22.969 17.7939 22.9156C17.8639 22.8656 17.9339 22.8162 18.0067 22.769C18.08 22.7212 18.1556 22.6773 18.2306 22.6329C18.3722 22.549 18.5178 22.4706 18.6672 22.3979C18.7422 22.3612 18.8161 22.3229 18.8928 22.289L18.9822 22.249C19.7269 21.9375 20.5261 21.7773 21.3333 21.7779H24.6667C25.4994 21.7779 26.2933 21.9462 27.0172 22.2495L27.1067 22.2895C27.1833 22.3229 27.2572 22.3617 27.3322 22.3984C27.4817 22.4712 27.6272 22.5495 27.7689 22.6334C27.8444 22.6779 27.92 22.7217 27.9928 22.7695C28.142 22.8674 28.2869 22.9715 28.4272 23.0817C28.4906 23.1312 28.5539 23.1806 28.615 23.2323C28.7837 23.3762 28.9444 23.5294 29.0961 23.6912C29.17 23.769 29.2433 23.8479 29.3128 23.9295C29.424 24.0614 29.5301 24.1976 29.6306 24.3379C29.68 24.4073 29.7306 24.4756 29.7767 24.5473C29.9049 24.7459 30.0221 24.9514 30.1278 25.1629C30.1667 25.2406 30.2056 25.3184 30.2411 25.3979C30.3156 25.5634 30.3819 25.7325 30.44 25.9045C30.4661 25.9801 30.4939 26.0551 30.5172 26.1312C30.5639 26.2856 30.6044 26.4429 30.6383 26.6023C30.6517 26.664 30.6617 26.7267 30.6728 26.789C30.7398 27.1519 30.7749 27.5199 30.7778 27.889V36.2223ZM35.2222 28.4445V34.0001H31.8889V27.889C31.8889 27.6251 31.8728 27.3651 31.845 27.1084C31.8383 27.0479 31.8256 26.989 31.8178 26.929C31.7925 26.7316 31.7591 26.5353 31.7178 26.3406C31.7039 26.2773 31.685 26.2162 31.6694 26.1534C31.6238 25.9658 31.5706 25.7801 31.51 25.5967C31.4894 25.5351 31.4656 25.4751 31.4433 25.4145C31.3783 25.2356 31.3062 25.0594 31.2272 24.8862C31.1993 24.8257 31.1702 24.7656 31.14 24.7062C30.9455 24.3095 30.7139 23.9321 30.4483 23.579C30.4078 23.5245 30.3689 23.4695 30.3267 23.4162C30.2045 23.2628 30.076 23.1145 29.9417 22.9717C29.9039 22.9312 29.8689 22.8884 29.83 22.849C29.655 22.6685 29.4707 22.4973 29.2778 22.3362C32.5706 22.4245 35.2222 25.1306 35.2222 28.4445ZM27.8461 13.5117C28.0806 13.4673 28.3172 13.4445 28.5556 13.4445C30.6994 13.4445 32.4444 15.189 32.4444 17.3334C32.4444 19.4779 30.6994 21.2223 28.5556 21.2223C27.7928 21.2223 27.0589 21.0001 26.43 20.5867C26.4383 20.5806 26.445 20.5729 26.4528 20.5662C26.9315 20.1848 27.3443 19.7272 27.6744 19.2117L27.705 19.1617C27.8011 19.0084 27.8894 18.8506 27.9706 18.6879L28.0089 18.6079C28.0828 18.454 28.1489 18.2962 28.2083 18.1345L28.245 18.0345C28.2989 17.8786 28.3456 17.7203 28.385 17.5601C28.395 17.5201 28.4067 17.4806 28.4156 17.4406C28.4511 17.2834 28.4778 17.1234 28.4994 16.9612C28.5056 16.9184 28.5144 16.8762 28.5189 16.8329C28.5422 16.6329 28.5556 16.429 28.5556 16.2223C28.5556 16.0023 28.5394 15.7867 28.5144 15.5734C28.5067 15.5056 28.4939 15.439 28.4833 15.3712C28.4494 15.1517 28.4028 14.9343 28.3439 14.7201C28.2989 14.5605 28.2467 14.4031 28.1872 14.2484C28.1706 14.2056 28.1572 14.1617 28.14 14.1195C28.0559 13.9149 27.9597 13.7154 27.8517 13.5223C27.8489 13.5184 27.8478 13.5151 27.8461 13.5117ZM26.4239 13.3917L26.4578 13.4356C26.485 13.4695 26.5094 13.5051 26.5356 13.5395C26.8189 13.9123 27.0356 14.3184 27.1878 14.7467C27.1978 14.7745 27.2089 14.8017 27.2183 14.8301C27.2844 15.0295 27.3344 15.2334 27.3717 15.4412C27.3794 15.4845 27.3856 15.529 27.3917 15.5729C27.4228 15.7867 27.4444 16.0029 27.4444 16.2223C27.4444 16.4045 27.4306 16.5845 27.4083 16.7629C27.4033 16.8045 27.3956 16.8456 27.3894 16.8873C27.3674 17.0339 27.3379 17.1793 27.3011 17.3229C27.2933 17.3529 27.2861 17.3834 27.2778 17.4134C27.178 17.7703 27.0341 18.1133 26.8494 18.4345L26.8394 18.4512C26.7495 18.6052 26.6502 18.7537 26.5422 18.8956L26.5128 18.9351C26.2849 19.2299 26.021 19.4949 25.7272 19.724L25.6744 19.7634C25.5366 19.8679 25.3929 19.9644 25.2439 20.0523C25.2172 20.0679 25.1922 20.0851 25.165 20.1001L25.1017 20.1367C24.475 20.4745 23.76 20.6667 23 20.6667C22.24 20.6667 21.525 20.4745 20.8989 20.1367L20.8356 20.1001C20.8089 20.0851 20.7833 20.0679 20.7567 20.0523C20.6077 19.9644 20.4639 19.8679 20.3261 19.7634L20.2733 19.724C19.9798 19.4946 19.7159 19.2296 19.4878 18.9351L19.4583 18.8956C19.3505 18.7535 19.2513 18.6051 19.1611 18.4512L19.1511 18.4345C18.9662 18.1132 18.8221 17.7699 18.7222 17.4129C18.7139 17.3834 18.7067 17.3529 18.6989 17.3234C18.6621 17.1796 18.6327 17.0341 18.6106 16.8873C18.6044 16.8456 18.5967 16.8051 18.5917 16.7629C18.5684 16.5836 18.5564 16.4031 18.5556 16.2223C18.5556 16.0029 18.5772 15.7867 18.6083 15.5734C18.615 15.5295 18.6206 15.4856 18.6283 15.4417C18.6656 15.2345 18.7156 15.0301 18.7817 14.8306C18.7911 14.8023 18.8022 14.7751 18.8122 14.7473C18.9658 14.3136 19.1859 13.9063 19.4644 13.5401C19.4906 13.5056 19.515 13.4695 19.5422 13.4362L19.5761 13.3923C19.9923 12.8872 20.5151 12.4804 21.107 12.2011C21.699 11.9218 22.3454 11.7769 22.9999 11.7769C23.6544 11.7768 24.3008 11.9216 24.8928 12.2008C25.4847 12.48 26.0076 12.8867 26.4239 13.3917ZM13.5556 17.3334C13.5556 15.189 15.3006 13.4445 17.4444 13.4445C17.6828 13.4445 17.9194 13.4673 18.1539 13.5117L18.1489 13.5223C18.0417 13.7145 17.945 13.9134 17.8606 14.119C17.8428 14.1617 17.8294 14.2056 17.8128 14.249C17.7278 14.4712 17.6574 14.6987 17.6022 14.9301C17.5678 15.0751 17.54 15.2223 17.5167 15.3712C17.5061 15.4384 17.4939 15.5051 17.4856 15.5734C17.4606 15.7867 17.4444 16.0023 17.4444 16.2223C17.4444 16.429 17.4578 16.6329 17.48 16.8334C17.485 16.8767 17.4939 16.9184 17.4994 16.9612C17.5211 17.1234 17.5483 17.284 17.5833 17.4412C17.5922 17.4812 17.6039 17.5201 17.6139 17.5595C17.6539 17.7206 17.7 17.8795 17.7539 18.0351C17.7656 18.069 17.7783 18.1017 17.7906 18.1356C17.85 18.2967 17.9167 18.4545 17.99 18.6084L18.0289 18.689C18.11 18.8517 18.1983 19.0095 18.2944 19.1629L18.325 19.2129C18.6555 19.7281 19.0682 20.1856 19.5467 20.5673L19.5694 20.5879C18.9383 21.0025 18.1996 21.223 17.4444 21.2223C15.3006 21.2223 13.5556 19.4779 13.5556 17.3334ZM10.7778 34.0001V28.4445C10.7778 25.1306 13.4294 22.4245 16.7228 22.3356C16.5294 22.4962 16.3461 22.669 16.1706 22.8484C16.1317 22.8879 16.0967 22.9306 16.0589 22.9712C15.9243 23.1142 15.7957 23.2627 15.6733 23.4162C15.6317 23.469 15.5928 23.524 15.5522 23.5784C15.3992 23.7823 15.2574 23.9943 15.1272 24.2134C15.0317 24.374 14.9428 24.5379 14.86 24.7062C14.8306 24.7662 14.8011 24.8256 14.7728 24.8862C14.6933 25.0584 14.6222 25.2351 14.5567 25.4145C14.5344 25.4756 14.5106 25.5351 14.49 25.5967C14.4289 25.7795 14.3772 25.9656 14.33 26.1545C14.3144 26.2167 14.2961 26.2779 14.2822 26.3406C14.2409 26.5357 14.2075 26.7323 14.1822 26.9301C14.1739 26.9901 14.1617 27.0484 14.155 27.109C14.1272 27.3651 14.1111 27.6251 14.1111 27.889V34.0001H10.7778Z" fill="#CD7D0D"/>
<path d="M14.1111 37.3334H31.8889V35.1112H36.3333V28.4445C36.3333 25.2034 34.1872 22.4551 31.2417 21.544C32.6306 20.6545 33.5556 19.1012 33.5556 17.3334C33.5556 14.5767 31.3128 12.3334 28.5556 12.3334C28.0806 12.3334 27.6094 12.4045 27.1494 12.5406C26.1311 11.3945 24.6506 10.6667 23 10.6667C21.3494 10.6667 19.8689 11.3945 18.8506 12.5406C18.3943 12.4042 17.9207 12.3344 17.4444 12.3334C14.6872 12.3334 12.4444 14.5767 12.4444 17.3334C12.4444 19.1012 13.3694 20.6545 14.7583 21.544C11.8128 22.4551 9.66666 25.2034 9.66666 28.4445V35.1112H14.1111V37.3334ZM30.7778 36.2223H15.2222V27.889C15.2222 27.7034 15.2339 27.5201 15.25 27.3384C15.2556 27.279 15.2628 27.2201 15.2694 27.1606C15.2844 27.0351 15.3039 26.9112 15.3267 26.7884C15.3383 26.7262 15.3478 26.6634 15.3611 26.6017C15.3956 26.4423 15.4361 26.2856 15.4822 26.1306C15.5056 26.054 15.5333 25.9795 15.5594 25.904C15.6181 25.7322 15.6845 25.5631 15.7583 25.3973C15.7939 25.3179 15.8328 25.2401 15.8717 25.1623C15.9283 25.049 15.9883 24.9379 16.0517 24.8284C16.1072 24.7334 16.1628 24.6384 16.2228 24.5467C16.2694 24.4756 16.3194 24.4067 16.3689 24.3373C16.4211 24.264 16.475 24.1917 16.5306 24.1212C16.5817 24.0562 16.6328 23.9917 16.6867 23.929C16.7567 23.8473 16.8294 23.7684 16.9033 23.6906C17.0555 23.5293 17.2161 23.3761 17.3844 23.2317C17.4456 23.1801 17.5089 23.1306 17.5722 23.0812C17.645 23.0245 17.7183 22.969 17.7939 22.9156C17.8639 22.8656 17.9339 22.8162 18.0067 22.769C18.08 22.7212 18.1556 22.6773 18.2306 22.6329C18.3722 22.549 18.5178 22.4706 18.6672 22.3979C18.7422 22.3612 18.8161 22.3229 18.8928 22.289L18.9822 22.249C19.7269 21.9375 20.5261 21.7773 21.3333 21.7779H24.6667C25.4994 21.7779 26.2933 21.9462 27.0172 22.2495L27.1067 22.2895C27.1833 22.3229 27.2572 22.3617 27.3322 22.3984C27.4817 22.4712 27.6272 22.5495 27.7689 22.6334C27.8444 22.6779 27.92 22.7217 27.9928 22.7695C28.142 22.8674 28.2869 22.9715 28.4272 23.0817C28.4906 23.1312 28.5539 23.1806 28.615 23.2323C28.7837 23.3762 28.9444 23.5294 29.0961 23.6912C29.17 23.769 29.2433 23.8479 29.3128 23.9295C29.424 24.0614 29.5301 24.1976 29.6306 24.3379C29.68 24.4073 29.7306 24.4756 29.7767 24.5473C29.9049 24.7459 30.0221 24.9514 30.1278 25.1629C30.1667 25.2406 30.2056 25.3184 30.2411 25.3979C30.3156 25.5634 30.3819 25.7325 30.44 25.9045C30.4661 25.9801 30.4939 26.0551 30.5172 26.1312C30.5639 26.2856 30.6044 26.4429 30.6383 26.6023C30.6517 26.664 30.6617 26.7267 30.6728 26.789C30.7398 27.1519 30.7749 27.5199 30.7778 27.889V36.2223ZM35.2222 28.4445V34.0001H31.8889V27.889C31.8889 27.6251 31.8728 27.3651 31.845 27.1084C31.8383 27.0479 31.8256 26.989 31.8178 26.929C31.7925 26.7316 31.7591 26.5353 31.7178 26.3406C31.7039 26.2773 31.685 26.2162 31.6694 26.1534C31.6238 25.9658 31.5706 25.7801 31.51 25.5967C31.4894 25.5351 31.4656 25.4751 31.4433 25.4145C31.3783 25.2356 31.3062 25.0594 31.2272 24.8862C31.1993 24.8257 31.1702 24.7656 31.14 24.7062C30.9455 24.3095 30.7139 23.9321 30.4483 23.579C30.4078 23.5245 30.3689 23.4695 30.3267 23.4162C30.2045 23.2628 30.076 23.1145 29.9417 22.9717C29.9039 22.9312 29.8689 22.8884 29.83 22.849C29.655 22.6685 29.4707 22.4973 29.2778 22.3362C32.5706 22.4245 35.2222 25.1306 35.2222 28.4445ZM27.8461 13.5117C28.0806 13.4673 28.3172 13.4445 28.5556 13.4445C30.6994 13.4445 32.4444 15.189 32.4444 17.3334C32.4444 19.4779 30.6994 21.2223 28.5556 21.2223C27.7928 21.2223 27.0589 21.0001 26.43 20.5867C26.4383 20.5806 26.445 20.5729 26.4528 20.5662C26.9315 20.1848 27.3443 19.7272 27.6744 19.2117L27.705 19.1617C27.8011 19.0084 27.8894 18.8506 27.9706 18.6879L28.0089 18.6079C28.0828 18.454 28.1489 18.2962 28.2083 18.1345L28.245 18.0345C28.2989 17.8786 28.3456 17.7203 28.385 17.5601C28.395 17.5201 28.4067 17.4806 28.4156 17.4406C28.4511 17.2834 28.4778 17.1234 28.4994 16.9612C28.5056 16.9184 28.5144 16.8762 28.5189 16.8329C28.5422 16.6329 28.5556 16.429 28.5556 16.2223C28.5556 16.0023 28.5394 15.7867 28.5144 15.5734C28.5067 15.5056 28.4939 15.439 28.4833 15.3712C28.4494 15.1517 28.4028 14.9343 28.3439 14.7201C28.2989 14.5605 28.2467 14.4031 28.1872 14.2484C28.1706 14.2056 28.1572 14.1617 28.14 14.1195C28.0559 13.9149 27.9597 13.7154 27.8517 13.5223C27.8489 13.5184 27.8478 13.5151 27.8461 13.5117ZM26.4239 13.3917L26.4578 13.4356C26.485 13.4695 26.5094 13.5051 26.5356 13.5395C26.8189 13.9123 27.0356 14.3184 27.1878 14.7467C27.1978 14.7745 27.2089 14.8017 27.2183 14.8301C27.2844 15.0295 27.3344 15.2334 27.3717 15.4412C27.3794 15.4845 27.3856 15.529 27.3917 15.5729C27.4228 15.7867 27.4444 16.0029 27.4444 16.2223C27.4444 16.4045 27.4306 16.5845 27.4083 16.7629C27.4033 16.8045 27.3956 16.8456 27.3894 16.8873C27.3674 17.0339 27.3379 17.1793 27.3011 17.3229C27.2933 17.3529 27.2861 17.3834 27.2778 17.4134C27.178 17.7703 27.0341 18.1133 26.8494 18.4345L26.8394 18.4512C26.7495 18.6052 26.6502 18.7537 26.5422 18.8956L26.5128 18.9351C26.2849 19.2299 26.021 19.4949 25.7272 19.724L25.6744 19.7634C25.5366 19.8679 25.3929 19.9644 25.2439 20.0523C25.2172 20.0679 25.1922 20.0851 25.165 20.1001L25.1017 20.1367C24.475 20.4745 23.76 20.6667 23 20.6667C22.24 20.6667 21.525 20.4745 20.8989 20.1367L20.8356 20.1001C20.8089 20.0851 20.7833 20.0679 20.7567 20.0523C20.6077 19.9644 20.4639 19.8679 20.3261 19.7634L20.2733 19.724C19.9798 19.4946 19.7159 19.2296 19.4878 18.9351L19.4583 18.8956C19.3505 18.7535 19.2513 18.6051 19.1611 18.4512L19.1511 18.4345C18.9662 18.1132 18.8221 17.7699 18.7222 17.4129C18.7139 17.3834 18.7067 17.3529 18.6989 17.3234C18.6621 17.1796 18.6327 17.0341 18.6106 16.8873C18.6044 16.8456 18.5967 16.8051 18.5917 16.7629C18.5684 16.5836 18.5564 16.4031 18.5556 16.2223C18.5556 16.0029 18.5772 15.7867 18.6083 15.5734C18.615 15.5295 18.6206 15.4856 18.6283 15.4417C18.6656 15.2345 18.7156 15.0301 18.7817 14.8306C18.7911 14.8023 18.8022 14.7751 18.8122 14.7473C18.9658 14.3136 19.1859 13.9063 19.4644 13.5401C19.4906 13.5056 19.515 13.4695 19.5422 13.4362L19.5761 13.3923C19.9923 12.8872 20.5151 12.4804 21.107 12.2011C21.699 11.9218 22.3454 11.7769 22.9999 11.7769C23.6544 11.7768 24.3008 11.9216 24.8928 12.2008C25.4847 12.48 26.0076 12.8867 26.4239 13.3917ZM13.5556 17.3334C13.5556 15.189 15.3006 13.4445 17.4444 13.4445C17.6828 13.4445 17.9194 13.4673 18.1539 13.5117L18.1489 13.5223C18.0417 13.7145 17.945 13.9134 17.8606 14.119C17.8428 14.1617 17.8294 14.2056 17.8128 14.249C17.7278 14.4712 17.6574 14.6987 17.6022 14.9301C17.5678 15.0751 17.54 15.2223 17.5167 15.3712C17.5061 15.4384 17.4939 15.5051 17.4856 15.5734C17.4606 15.7867 17.4444 16.0023 17.4444 16.2223C17.4444 16.429 17.4578 16.6329 17.48 16.8334C17.485 16.8767 17.4939 16.9184 17.4994 16.9612C17.5211 17.1234 17.5483 17.284 17.5833 17.4412C17.5922 17.4812 17.6039 17.5201 17.6139 17.5595C17.6539 17.7206 17.7 17.8795 17.7539 18.0351C17.7656 18.069 17.7783 18.1017 17.7906 18.1356C17.85 18.2967 17.9167 18.4545 17.99 18.6084L18.0289 18.689C18.11 18.8517 18.1983 19.0095 18.2944 19.1629L18.325 19.2129C18.6555 19.7281 19.0682 20.1856 19.5467 20.5673L19.5694 20.5879C18.9383 21.0025 18.1996 21.223 17.4444 21.2223C15.3006 21.2223 13.5556 19.4779 13.5556 17.3334ZM10.7778 34.0001V28.4445C10.7778 25.1306 13.4294 22.4245 16.7228 22.3356C16.5294 22.4962 16.3461 22.669 16.1706 22.8484C16.1317 22.8879 16.0967 22.9306 16.0589 22.9712C15.9243 23.1142 15.7957 23.2627 15.6733 23.4162C15.6317 23.469 15.5928 23.524 15.5522 23.5784C15.3992 23.7823 15.2574 23.9943 15.1272 24.2134C15.0317 24.374 14.9428 24.5379 14.86 24.7062C14.8306 24.7662 14.8011 24.8256 14.7728 24.8862C14.6933 25.0584 14.6222 25.2351 14.5567 25.4145C14.5344 25.4756 14.5106 25.5351 14.49 25.5967C14.4289 25.7795 14.3772 25.9656 14.33 26.1545C14.3144 26.2167 14.2961 26.2779 14.2822 26.3406C14.2409 26.5357 14.2075 26.7323 14.1822 26.9301C14.1739 26.9901 14.1617 27.0484 14.155 27.109C14.1272 27.3651 14.1111 27.6251 14.1111 27.889V34.0001H10.7778Z" stroke="#CD7D0D" stroke-width="0.6" mask="url(#path-2-outside-1_2911_17072)"/>
</svg>
