<svg width="24" height="20" viewBox="0 0 24 20" fill="none" xmlns="http://www.w3.org/2000/svg">
    <path
        d="M18.9998 9.19355H12.9998V4.2058C12.9998 3.98533 12.8944 3.77389 12.7069 3.61799C12.5193 3.46209 12.265 3.37451 11.9998 3.37451C11.7345 3.37451 11.4802 3.46209 11.2926 3.61799C11.1051 3.77389 10.9998 3.98533 10.9998 4.2058V9.19355H4.99976C4.73454 9.19355 4.48019 9.28114 4.29265 9.43703C4.10511 9.59293 3.99976 9.80437 3.99976 10.0248C3.99976 10.2453 4.10511 10.4568 4.29265 10.6127C4.48019 10.7686 4.73454 10.8561 4.99976 10.8561H10.9998V15.8439C10.9998 16.0644 11.1051 16.2758 11.2926 16.4317C11.4802 16.5876 11.7345 16.6752 11.9998 16.6752C12.265 16.6752 12.5193 16.5876 12.7069 16.4317C12.8944 16.2758 12.9998 16.0644 12.9998 15.8439V10.8561H18.9998C19.265 10.8561 19.5193 10.7686 19.7069 10.6127C19.8944 10.4568 19.9998 10.2453 19.9998 10.0248C19.9998 9.80437 19.8944 9.59293 19.7069 9.43703C19.5193 9.28114 19.265 9.19355 18.9998 9.19355Z"
        fill="white" />
</svg>