<svg width="24" height="24" viewBox="0 0 24 24" fill="none" xmlns="http://www.w3.org/2000/svg">
<path fill-rule="evenodd" clip-rule="evenodd" d="M20.5714 8.66667H3.42857V19.5C3.42857 20.1633 3.65429 20.7992 4.05643 21.2675C4.45786 21.7367 5.00286 22 5.57143 22C8.56 22 15.44 22 18.4286 22C18.9971 22 19.5421 21.7367 19.9436 21.2675C20.3457 20.7992 20.5714 20.1633 20.5714 19.5V8.66667ZM9.85714 12H14.1429C14.5371 12 14.8571 11.6267 14.8571 11.1667C14.8571 10.7067 14.5371 10.3333 14.1429 10.3333H9.85714C9.46286 10.3333 9.14286 10.7067 9.14286 11.1667C9.14286 11.6267 9.46286 12 9.85714 12ZM3.42857 7H20.5714C21.3607 7 22 6.25417 22 5.33333V3.66667C22 2.74583 21.3607 2 20.5714 2C17.6186 2 6.38143 2 3.42857 2C2.63929 2 2 2.74583 2 3.66667V5.33333C2 6.25417 2.63929 7 3.42857 7Z" fill="#034147"/>
</svg>
