<svg width="24" height="24" viewBox="0 0 24 24" fill="none" xmlns="http://www.w3.org/2000/svg">
<path fill-rule="evenodd" clip-rule="evenodd" d="M5.19446 20.2903L5.19617 20.2923C5.34003 20.4604 5.48168 20.5 5.57143 20.5H18.4286C18.5183 20.5 18.66 20.4604 18.8038 20.2923L18.8055 20.2903C18.9557 20.1154 19.0714 19.8341 19.0714 19.5V10.1667H16.1374C16.2826 10.4908 16.3571 10.8386 16.3571 11.1667C16.3571 12.2298 15.5742 13.5 14.1429 13.5H9.85714C8.42583 13.5 7.64286 12.2298 7.64286 11.1667C7.64286 10.8386 7.71742 10.4908 7.8626 10.1667H4.92857V19.5C4.92857 19.8341 5.04427 20.1154 5.19446 20.2903ZM3.42857 19.5C3.42857 20.1633 3.65429 20.7992 4.05643 21.2675C4.45786 21.7367 5.00286 22 5.57143 22H18.4286C18.9971 22 19.5421 21.7367 19.9436 21.2675C20.3457 20.7992 20.5714 20.1633 20.5714 19.5V8.66667H3.42857V19.5ZM20.4653 5.5C20.4821 5.46587 20.5 5.41052 20.5 5.33333V3.66667C20.5 3.58948 20.4821 3.53413 20.4653 3.5H3.53473C3.5179 3.53413 3.5 3.58948 3.5 3.66667V5.33333C3.5 5.41052 3.5179 5.46587 3.53473 5.5H20.4653ZM14.1429 12H9.85714C9.46286 12 9.14286 11.6267 9.14286 11.1667C9.14286 10.7067 9.46286 10.3333 9.85714 10.3333H14.1429C14.5371 10.3333 14.8571 10.7067 14.8571 11.1667C14.8571 11.6267 14.5371 12 14.1429 12ZM20.5714 7H3.42857C2.63929 7 2 6.25417 2 5.33333V3.66667C2 2.74583 2.63929 2 3.42857 2H20.5714C21.3607 2 22 2.74583 22 3.66667V5.33333C22 6.25417 21.3607 7 20.5714 7Z" fill="#545E5E"/>
</svg>
