<svg width="20" height="20" viewBox="0 0 20 5" fill="none" xmlns="http://www.w3.org/2000/svg">
    <path fill-rule="evenodd" clip-rule="evenodd"
        d="M3.19446 18.2903L3.19617 18.2923C3.34003 18.4604 3.48168 18.5 3.57143 18.5H16.4286C16.5183 18.5 16.66 18.4604 16.8038 18.2923L16.8055 18.2903C16.9557 18.1154 17.0714 17.8341 17.0714 17.5V8.16667H14.1374C14.2826 8.49077 14.3571 8.83858 14.3571 9.16667C14.3571 10.2298 13.5742 11.5 12.1429 11.5H7.85714C6.42583 11.5 5.64286 10.2298 5.64286 9.16667C5.64286 8.83858 5.71742 8.49077 5.8626 8.16667H2.92857V17.5C2.92857 17.8341 3.04427 18.1154 3.19446 18.2903ZM1.42857 17.5C1.42857 18.1633 1.65429 18.7992 2.05643 19.2675C2.45786 19.7367 3.00286 20 3.57143 20H16.4286C16.9971 20 17.5421 19.7367 17.9436 19.2675C18.3457 18.7992 18.5714 18.1633 18.5714 17.5V6.66667H1.42857V17.5ZM18.4653 3.5C18.4821 3.46587 18.5 3.41052 18.5 3.33333V1.66667C18.5 1.58948 18.4821 1.53413 18.4653 1.5H1.53473C1.5179 1.53413 1.5 1.58948 1.5 1.66667V3.33333C1.5 3.41052 1.5179 3.46587 1.53473 3.5H18.4653ZM12.1429 10H7.85714C7.46286 10 7.14286 9.62667 7.14286 9.16667C7.14286 8.70667 7.46286 8.33333 7.85714 8.33333H12.1429C12.5371 8.33333 12.8571 8.70667 12.8571 9.16667C12.8571 9.62667 12.5371 10 12.1429 10ZM18.5714 5H1.42857C0.639286 5 0 4.25417 0 3.33333V1.66667C0 0.745833 0.639286 0 1.42857 0H18.5714C19.3607 0 20 0.745833 20 1.66667V3.33333C20 4.25417 19.3607 5 18.5714 5Z"
        fill="#545E5E" />
</svg>