<svg width="48" height="48" viewBox="0 0 48 48" fill="none" xmlns="http://www.w3.org/2000/svg">
<rect width="48" height="48" rx="8" fill="#E5F7F8"/>
<path fill-rule="evenodd" clip-rule="evenodd" d="M36.2287 10.8187C36.253 10.8365 36.2762 10.8557 36.2982 10.8761C36.3776 10.9498 36.4385 11.0363 36.4803 11.1295C36.5265 11.2324 36.5495 11.3436 36.549 11.4549V14.5883C36.549 15.0215 36.1979 15.3726 35.7647 15.3726C35.3316 15.3726 34.9804 15.0215 34.9804 14.5883V13.514L30.0764 19.0309C29.9712 19.1494 29.8325 19.2331 29.6786 19.2712L26.1956 20.1332C25.468 23.7119 22.3035 26.4052 18.5099 26.4052C17.5934 26.4052 16.7137 26.2481 15.8961 25.9592L12.1236 32.2467C11.9008 32.6181 11.419 32.7385 11.0476 32.5157C10.6761 32.2928 10.5557 31.811 10.7786 31.4396L14.4705 25.2864C12.1913 23.9143 10.6668 21.4163 10.6668 18.5621C10.6668 14.2305 14.1783 10.719 18.5099 10.719C22.8136 10.719 26.3076 14.1853 26.3526 18.4784L29.0657 17.807L34.0182 12.2354H32.6275C32.1943 12.2354 31.8432 11.8842 31.8432 11.4511C31.8432 11.0179 32.1943 10.6668 32.6275 10.6668H35.7614C35.7869 10.6666 35.8124 10.6678 35.8378 10.6701C35.9097 10.6768 35.9787 10.6931 36.0436 10.7178C36.1084 10.7424 36.1707 10.776 36.2287 10.8187ZM15.8761 24.2588C15.8888 24.2642 15.9014 24.2699 15.9139 24.2761C16.705 24.6361 17.584 24.8366 18.5099 24.8366C21.6888 24.8366 24.3156 22.4726 24.728 19.4066C24.7291 19.3974 24.7303 19.3882 24.7317 19.379C24.7664 19.1117 24.7844 18.839 24.7844 18.5621C24.7844 15.0968 21.9752 12.2877 18.5099 12.2877C15.0446 12.2877 12.2354 15.0968 12.2354 18.5621C12.2354 21.0868 13.7265 23.2633 15.8761 24.2588ZM35.7647 17.7255C35.7647 17.4083 35.5736 17.1223 35.2805 17.0009C34.9875 16.8795 34.6501 16.9466 34.4258 17.171L31.2886 20.3082C31.1415 20.4553 31.0589 20.6548 31.0589 20.8628V35.7647H29.4902V22.4314C29.4902 22.1142 29.2991 21.8282 29.0061 21.7068C28.713 21.5854 28.3756 21.6525 28.1513 21.8768L25.0141 25.0141C24.867 25.1611 24.7844 25.3606 24.7844 25.5687V35.7647H23.2158V27.9216C23.2158 27.6044 23.0247 27.3184 22.7316 27.197C22.4385 27.0756 22.1012 27.1427 21.8769 27.367L18.7396 30.5042C18.5925 30.6513 18.5099 30.8508 18.5099 31.0588V35.7647H16.9413V31.8431C16.9413 31.5259 16.7502 31.2399 16.4571 31.1185C16.164 30.9971 15.8267 31.0642 15.6024 31.2885L12.4651 34.4258C12.318 34.5729 12.2354 34.7724 12.2354 34.9804V35.7647H11.4511C11.0179 35.7647 10.6668 36.1158 10.6668 36.549C10.6668 36.9822 11.0179 37.3333 11.4511 37.3333H13.0197H16.157H19.2942H22.4314H25.5671L25.5687 37.3333H28.7059L28.7075 37.3333H31.8416L31.8432 37.3333H34.9804L34.982 37.3333H36.549C36.9822 37.3333 37.3333 36.9822 37.3333 36.549C37.3333 36.1158 36.9822 35.7647 36.549 35.7647H35.7647V17.7255ZM34.1961 35.7647H32.6275V21.1877L34.1961 19.619V35.7647ZM27.9216 24.3249V35.7647H26.353V25.8935L27.9216 24.3249ZM21.6471 29.8151V35.7647H20.0785V31.3837L21.6471 29.8151ZM15.3727 33.7366V35.7647H13.804V35.3052L15.3727 33.7366ZM16.157 16.9935C16.157 15.969 16.8117 15.0975 17.7256 14.7745V13.8563C17.7256 13.4231 18.0767 13.072 18.5099 13.072C18.9431 13.072 19.2942 13.4231 19.2942 13.8563V14.6406H20.0785C20.5117 14.6406 20.8628 14.9917 20.8628 15.4249C20.8628 15.8581 20.5117 16.2092 20.0785 16.2092H18.5099C18.0767 16.2092 17.7256 16.5603 17.7256 16.9935C17.7256 17.4267 18.0767 17.7778 18.5099 17.7778C19.8094 17.7778 20.8628 18.8313 20.8628 20.1308C20.8628 21.1553 20.2081 22.0268 19.2942 22.3498V23.268C19.2942 23.7012 18.9431 24.0523 18.5099 24.0523C18.0767 24.0523 17.7256 23.7012 17.7256 23.268V22.4837H16.9413C16.5081 22.4837 16.157 22.1325 16.157 21.6994C16.157 21.2662 16.5081 20.9151 16.9413 20.9151H18.5099C18.9431 20.9151 19.2942 20.564 19.2942 20.1308C19.2942 19.6976 18.9431 19.3465 18.5099 19.3465C17.2104 19.3465 16.157 18.293 16.157 16.9935Z" fill="#039DCB"/>
</svg>
