<svg width="32" height="32" viewBox="0 0 32 32" fill="none" xmlns="http://www.w3.org/2000/svg">
    <path fill-rule="evenodd" clip-rule="evenodd"
        d="M28.2287 2.81867C28.253 2.83649 28.2762 2.85567 28.2982 2.8761C28.3776 2.94976 28.4385 3.03626 28.4803 3.12955C28.5265 3.23244 28.5495 3.34359 28.549 3.45491V6.58831C28.549 7.02147 28.1979 7.37262 27.7647 7.37262C27.3316 7.37262 26.9804 7.02147 26.9804 6.58831V5.51396L22.0764 11.0309C21.9712 11.1494 21.8325 11.2331 21.6786 11.2712L18.1956 12.1332C17.468 15.7119 14.3035 18.4052 10.5099 18.4052C9.59343 18.4052 8.71368 18.2481 7.89613 17.9592L4.12364 24.2467C3.90078 24.6181 3.41901 24.7385 3.04758 24.5157C2.67614 24.2928 2.5557 23.811 2.77856 23.4396L6.47047 17.2864C4.19132 15.9143 2.66679 13.4163 2.66679 10.5621C2.66679 6.23052 6.17827 2.71904 10.5099 2.71904C14.8136 2.71904 18.3076 6.18534 18.3526 10.4784L21.0657 9.80696L26.0182 4.23538H24.6275C24.1943 4.23538 23.8432 3.88423 23.8432 3.45107C23.8432 3.0179 24.1943 2.66676 24.6275 2.66676H27.7614C27.7869 2.66664 27.8124 2.66776 27.8378 2.67012C27.9097 2.67676 27.9787 2.69309 28.0436 2.71779C28.1084 2.74242 28.1707 2.77601 28.2287 2.81867ZM7.87614 16.2588C7.8888 16.2642 7.90138 16.2699 7.91386 16.2761C8.70499 16.6361 9.58402 16.8366 10.5099 16.8366C13.6888 16.8366 16.3156 14.4726 16.728 11.4066C16.7291 11.3974 16.7303 11.3882 16.7317 11.379C16.7664 11.1117 16.7844 10.839 16.7844 10.5621C16.7844 7.09685 13.9752 4.28766 10.5099 4.28766C7.04459 4.28766 4.23541 7.09685 4.23541 10.5621C4.23541 13.0868 5.72653 15.2633 7.87614 16.2588ZM27.7647 9.72555C27.7647 9.40832 27.5736 9.12234 27.2805 9.00094C26.9875 8.87954 26.6501 8.94665 26.4258 9.17096L23.2886 12.3082C23.1415 12.4553 23.0589 12.6548 23.0589 12.8628V27.7647H21.4902V14.4314C21.4902 14.1142 21.2991 13.8282 21.0061 13.7068C20.713 13.5854 20.3756 13.6525 20.1513 13.8768L17.0141 17.0141C16.867 17.1611 16.7844 17.3606 16.7844 17.5687V27.7647H15.2158V19.9216C15.2158 19.6044 15.0247 19.3184 14.7316 19.197C14.4385 19.0756 14.1012 19.1427 13.8769 19.367L10.7396 22.5042C10.5925 22.6513 10.5099 22.8508 10.5099 23.0588V27.7647H8.94127V23.8431C8.94127 23.5259 8.75018 23.2399 8.4571 23.1185C8.16403 22.9971 7.82668 23.0642 7.60237 23.2885L4.46513 26.4258C4.31804 26.5729 4.23541 26.7724 4.23541 26.9804V27.7647H3.4511C3.01794 27.7647 2.66679 28.1158 2.66679 28.549C2.66679 28.9822 3.01794 29.3333 3.4511 29.3333H5.01972H8.15696H11.2942H14.4314H17.5671L17.5687 29.3333H20.7059L20.7075 29.3333H23.8416L23.8432 29.3333H26.9804L26.982 29.3333H28.549C28.9822 29.3333 29.3333 28.9822 29.3333 28.549C29.3333 28.1158 28.9822 27.7647 28.549 27.7647H27.7647V9.72555ZM26.1961 27.7647H24.6275V13.1877L26.1961 11.619V27.7647ZM19.9216 16.3249V27.7647H18.353V17.8935L19.9216 16.3249ZM13.6471 21.8151V27.7647H12.0785V23.3837L13.6471 21.8151ZM7.37265 25.7366V27.7647H5.80403V27.3052L7.37265 25.7366ZM8.15696 8.99353C8.15696 7.96902 8.8117 7.09747 9.72558 6.77447V5.85628C9.72558 5.42312 10.0767 5.07197 10.5099 5.07197C10.9431 5.07197 11.2942 5.42312 11.2942 5.85628V6.64059H12.0785C12.5117 6.64059 12.8628 6.99174 12.8628 7.4249C12.8628 7.85807 12.5117 8.20921 12.0785 8.20921H10.5099C10.0767 8.20921 9.72558 8.56034 9.72558 8.99353C9.72558 9.42671 10.0767 9.77783 10.5099 9.77783C11.8094 9.77783 12.8628 10.8313 12.8628 12.1308C12.8628 13.1553 12.2081 14.0268 11.2942 14.3498V15.268C11.2942 15.7012 10.9431 16.0523 10.5099 16.0523C10.0767 16.0523 9.72558 15.7012 9.72558 15.268V14.4837H8.94127C8.50811 14.4837 8.15696 14.1325 8.15696 13.6994C8.15696 13.2662 8.50811 12.9151 8.94127 12.9151H10.5099C10.9431 12.9151 11.2942 12.564 11.2942 12.1308C11.2942 11.6976 10.9431 11.3465 10.5099 11.3465C9.21038 11.3465 8.15696 10.293 8.15696 8.99353Z"
        fill="#039DCB" />
</svg>