<svg width="24" height="24" viewBox="0 0 24 24" fill="none" xmlns="http://www.w3.org/2000/svg">
<path fill-rule="evenodd" clip-rule="evenodd" d="M3.24225 17.7225L2.357 16.2783C2.00632 15.7044 1.9118 15.023 2.0942 14.3835C2.27659 13.7441 2.72098 13.1989 3.32989 12.8675L4.05136 12.475C4.02658 12.1615 4.02658 11.8468 4.05136 11.5333L3.32989 11.1408C3.02749 10.9768 2.76239 10.7583 2.54977 10.4978C2.33714 10.2372 2.18115 9.93981 2.09071 9.6225C2.00028 9.30518 1.97717 8.9742 2.02271 8.64847C2.06825 8.32274 2.18154 8.00865 2.35611 7.72417L3.24136 6.28C3.59442 5.70626 4.17465 5.28764 4.85495 5.11582C5.53525 4.94401 6.26015 5.03301 6.87088 5.36333L7.59412 5.75667C7.87154 5.58239 8.16041 5.42485 8.45901 5.285V4.5C8.45901 3.83696 8.73881 3.20107 9.23686 2.73223C9.73491 2.26339 10.4104 2 11.1148 2H12.8852C13.5896 2 14.2651 2.26339 14.7631 2.73223C15.2612 3.20107 15.541 3.83696 15.541 4.5V5.285C15.8394 5.42216 16.1282 5.57691 16.4059 5.74833L17.1291 5.355C17.7398 5.02468 18.4648 4.93568 19.1451 5.10749C19.8253 5.27931 20.4056 5.69793 20.7586 6.27167L21.6439 7.71583C21.8185 8.00032 21.9318 8.3144 21.9773 8.64013C22.0228 8.96586 21.9997 9.29685 21.9093 9.61416C21.8188 9.93148 21.6629 10.2289 21.4502 10.4894C21.2376 10.75 20.9725 10.9685 20.6701 11.1325L19.9486 11.525C19.9734 11.8385 19.9734 12.1532 19.9486 12.4667L20.6701 12.8592C20.9725 13.0232 21.2376 13.2417 21.4502 13.5022C21.6629 13.7628 21.8188 14.0602 21.9093 14.3775C21.9997 14.6948 22.0228 15.0258 21.9773 15.3515C21.9318 15.6773 21.8185 15.9913 21.6439 16.2758L20.7586 17.72C20.5844 18.0047 20.3523 18.2542 20.0755 18.4544C19.7987 18.6545 19.4828 18.8014 19.1457 18.8865C18.8086 18.9716 18.457 18.9934 18.111 18.9505C17.765 18.9077 17.4313 18.801 17.1291 18.6367L16.4059 18.2433C16.1285 18.4176 15.8396 18.5751 15.541 18.715V19.5C15.541 20.163 15.2612 20.7989 14.7631 21.2678C14.2651 21.7366 13.5896 22 12.8852 22H11.1148C10.4104 22 9.73491 21.7366 9.23686 21.2678C8.73881 20.7989 8.45901 20.163 8.45901 19.5V18.715C8.16079 18.5759 7.87221 18.4192 7.59501 18.2458L6.87176 18.6392C6.26104 18.9695 5.53613 19.0585 4.85583 18.8867C4.17554 18.7149 3.59531 18.2962 3.24225 17.7225ZM5.43678 13.64L4.21602 14.3067C4.0127 14.4172 3.86346 14.5992 3.8027 14.8127C3.74194 15.0261 3.77375 15.2536 3.89113 15.445L4.77638 16.8883C4.89378 17.0797 5.08713 17.2194 5.3139 17.2766C5.54068 17.3338 5.78231 17.3038 5.98563 17.1933L7.2055 16.5308C7.35967 16.452 7.53453 16.4163 7.70953 16.4278C7.88454 16.4393 8.05241 16.4976 8.19344 16.5958C8.64539 16.9291 9.14445 17.2014 9.67623 17.405C9.83969 17.4672 9.97968 17.574 10.0783 17.7117C10.1768 17.8493 10.2295 18.0115 10.2295 18.1775V19.5C10.2295 19.721 10.3228 19.933 10.4888 20.0893C10.6548 20.2455 10.88 20.3333 11.1148 20.3333H12.8852C13.12 20.3333 13.3452 20.2455 13.5112 20.0893C13.6772 19.933 13.7705 19.721 13.7705 19.5V18.1783C13.7705 18.0123 13.8232 17.8501 13.9217 17.7125C14.0203 17.5749 14.1603 17.4681 14.3238 17.4058C14.8555 17.2022 15.3546 16.9299 15.8066 16.5967C15.9456 16.4944 16.1139 16.4335 16.29 16.422C16.466 16.4104 16.6417 16.4486 16.7945 16.5317L18.0144 17.1942C18.2177 17.3047 18.4593 17.3346 18.6861 17.2774C18.9129 17.2202 19.1062 17.0806 19.2236 16.8892L20.1089 15.4458C20.2263 15.2544 20.2581 15.027 20.1973 14.8135C20.1365 14.6 19.9882 14.418 19.7849 14.3075L18.5641 13.6408C18.4122 13.5581 18.2898 13.4346 18.2126 13.2863C18.1354 13.1379 18.1067 12.9712 18.1303 12.8075C18.1719 12.5401 18.1941 12.2703 18.1967 12C18.1941 11.73 18.1719 11.4605 18.1303 11.1933C18.1067 11.0296 18.1354 10.863 18.2126 10.7146C18.2898 10.5662 18.4122 10.4428 18.5641 10.36L19.7849 9.69333C19.9882 9.58282 20.1365 9.40081 20.1973 9.18733C20.2581 8.97385 20.2263 8.7464 20.1089 8.555L19.2236 7.11167C19.1062 6.92027 18.9129 6.78062 18.6861 6.72342C18.4593 6.66622 18.2177 6.69616 18.0144 6.80667L16.7945 7.46917C16.6417 7.55226 16.466 7.59047 16.29 7.57888C16.1139 7.5673 15.9456 7.50646 15.8066 7.40417C15.3546 7.07095 14.8555 6.79861 14.3238 6.595C14.1603 6.53275 14.0203 6.42597 13.9217 6.28834C13.8232 6.1507 13.7705 5.98849 13.7705 5.8225V4.5C13.7705 4.27899 13.6772 4.06702 13.5112 3.91074C13.3452 3.75446 13.12 3.66667 12.8852 3.66667H11.1148C10.88 3.66667 10.6548 3.75446 10.4888 3.91074C10.3228 4.06702 10.2295 4.27899 10.2295 4.5V5.8225C10.2295 5.98849 10.1768 6.1507 10.0783 6.28834C9.97968 6.42597 9.83969 6.53275 9.67623 6.595C9.14445 6.79861 8.64539 7.07095 8.19344 7.40417C8.05486 7.50711 7.88675 7.5687 7.71071 7.58102C7.53467 7.59335 7.35873 7.55584 7.2055 7.47333L5.98563 6.80667C5.78231 6.69616 5.54068 6.66622 5.3139 6.72342C5.08713 6.78062 4.89378 6.92027 4.77638 7.11167L3.89113 8.555C3.77438 8.74635 3.74302 8.97348 3.80392 9.18657C3.86483 9.39965 4.01303 9.5813 4.21602 9.69167L5.43678 10.3583C5.5887 10.4411 5.71105 10.5645 5.78829 10.7129C5.86552 10.8613 5.89416 11.0279 5.87055 11.1917C5.79353 11.7276 5.79353 12.2708 5.87055 12.8067C5.89416 12.9704 5.86552 13.137 5.78829 13.2854C5.71105 13.4338 5.5887 13.5572 5.43678 13.64ZM14.4591 15.4644C13.7312 15.9222 12.8754 16.1666 12 16.1666C10.8265 16.1653 9.70147 15.7259 8.8717 14.9447C8.04192 14.1636 7.57514 13.1046 7.57373 11.9999C7.57373 11.1758 7.83332 10.3702 8.31969 9.68504C8.80605 8.99984 9.49733 8.46579 10.3061 8.15042C11.1149 7.83506 12.0049 7.75254 12.8635 7.91332C13.7221 8.07409 14.5108 8.47092 15.1298 9.05364C15.7488 9.63636 16.1704 10.3788 16.3412 11.187C16.5119 11.9953 16.4243 12.8331 16.0893 13.5944C15.7543 14.3558 15.1869 15.0065 14.4591 15.4644ZM13.4754 9.92125C13.0387 9.64654 12.5252 9.49992 12 9.49992C11.2956 9.49992 10.6201 9.76331 10.1221 10.2322C9.62403 10.701 9.34423 11.3369 9.34423 11.9999C9.34423 12.4944 9.49998 12.9777 9.7918 13.3888C10.0836 13.8 10.4984 14.1204 10.9837 14.3096C11.4689 14.4988 12.0029 14.5483 12.5181 14.4519C13.0332 14.3554 13.5064 14.1173 13.8779 13.7677C14.2493 13.4181 14.5022 12.9726 14.6047 12.4876C14.7072 12.0027 14.6546 11.5 14.4536 11.0432C14.2525 10.5864 13.9122 10.196 13.4754 9.92125Z" fill="#545E5E"/>
</svg>
