<svg width="20" height="20" viewBox="0 0 20 20" fill="none" xmlns="http://www.w3.org/2000/svg">
    <path fill-rule="evenodd" clip-rule="evenodd"
        d="M1.24225 15.7225L0.357 14.2783C0.00631845 13.7044 -0.0881953 13.023 0.094195 12.3835C0.276585 11.7441 0.720983 11.1989 1.32989 10.8675L2.05136 10.475C2.02658 10.1615 2.02658 9.84679 2.05136 9.53333L1.32989 9.14083C1.02749 8.97681 0.762394 8.75829 0.549768 8.49777C0.337141 8.23724 0.18115 7.93981 0.0907127 7.6225C0.000275455 7.30518 -0.022834 6.9742 0.0227056 6.64847C0.0682451 6.32274 0.181541 6.00865 0.356114 5.72417L1.24136 4.28C1.59442 3.70626 2.17465 3.28764 2.85495 3.11582C3.53525 2.94401 4.26015 3.03301 4.87088 3.36333L5.59412 3.75667C5.87154 3.58239 6.16041 3.42485 6.45901 3.285V2.5C6.45901 1.83696 6.73881 1.20107 7.23686 0.732233C7.73491 0.263392 8.41041 0 9.11475 0H10.8852C11.5896 0 12.2651 0.263392 12.7631 0.732233C13.2612 1.20107 13.541 1.83696 13.541 2.5V3.285C13.8394 3.42216 14.1282 3.57691 14.4059 3.74833L15.1291 3.355C15.7398 3.02468 16.4648 2.93568 17.1451 3.10749C17.8253 3.27931 18.4056 3.69793 18.7586 4.27167L19.6439 5.71583C19.8185 6.00032 19.9318 6.3144 19.9773 6.64013C20.0228 6.96586 19.9997 7.29685 19.9093 7.61416C19.8188 7.93148 19.6629 8.2289 19.4502 8.48943C19.2376 8.74996 18.9725 8.96848 18.6701 9.1325L17.9486 9.525C17.9734 9.83846 17.9734 10.1532 17.9486 10.4667L18.6701 10.8592C18.9725 11.0232 19.2376 11.2417 19.4502 11.5022C19.6629 11.7628 19.8188 12.0602 19.9093 12.3775C19.9997 12.6948 20.0228 13.0258 19.9773 13.3515C19.9318 13.6773 19.8185 13.9913 19.6439 14.2758L18.7586 15.72C18.5844 16.0047 18.3523 16.2542 18.0755 16.4544C17.7987 16.6545 17.4828 16.8014 17.1457 16.8865C16.8086 16.9716 16.457 16.9934 16.111 16.9505C15.765 16.9077 15.4313 16.801 15.1291 16.6367L14.4059 16.2433C14.1285 16.4176 13.8396 16.5751 13.541 16.715V17.5C13.541 18.163 13.2612 18.7989 12.7631 19.2678C12.2651 19.7366 11.5896 20 10.8852 20H9.11475C8.41041 20 7.73491 19.7366 7.23686 19.2678C6.73881 18.7989 6.45901 18.163 6.45901 17.5V16.715C6.16079 16.5759 5.87221 16.4192 5.59501 16.2458L4.87176 16.6392C4.26104 16.9695 3.53613 17.0585 2.85583 16.8867C2.17554 16.7149 1.59531 16.2962 1.24225 15.7225ZM3.43678 11.64L2.21602 12.3067C2.0127 12.4172 1.86346 12.5992 1.8027 12.8127C1.74194 13.0261 1.77375 13.2536 1.89113 13.445L2.77638 14.8883C2.89378 15.0797 3.08713 15.2194 3.3139 15.2766C3.54068 15.3338 3.78231 15.3038 3.98563 15.1933L5.2055 14.5308C5.35967 14.452 5.53453 14.4163 5.70953 14.4278C5.88454 14.4393 6.05241 14.4976 6.19344 14.5958C6.64539 14.9291 7.14445 15.2014 7.67623 15.405C7.83969 15.4672 7.97968 15.574 8.07826 15.7117C8.17684 15.8493 8.2295 16.0115 8.22951 16.1775V17.5C8.22951 17.721 8.32277 17.933 8.48879 18.0893C8.6548 18.2455 8.87997 18.3333 9.11475 18.3333H10.8852C11.12 18.3333 11.3452 18.2455 11.5112 18.0893C11.6772 17.933 11.7705 17.721 11.7705 17.5V16.1783C11.7705 16.0123 11.8232 15.8501 11.9217 15.7125C12.0203 15.5749 12.1603 15.4681 12.3238 15.4058C12.8555 15.2022 13.3546 14.9299 13.8066 14.5967C13.9456 14.4944 14.1139 14.4335 14.29 14.422C14.466 14.4104 14.6417 14.4486 14.7945 14.5317L16.0144 15.1942C16.2177 15.3047 16.4593 15.3346 16.6861 15.2774C16.9129 15.2202 17.1062 15.0806 17.2236 14.8892L18.1089 13.4458C18.2263 13.2544 18.2581 13.027 18.1973 12.8135C18.1365 12.6 17.9882 12.418 17.7849 12.3075L16.5641 11.6408C16.4122 11.5581 16.2898 11.4346 16.2126 11.2863C16.1354 11.1379 16.1067 10.9712 16.1303 10.8075C16.1719 10.5401 16.1941 10.2703 16.1967 10C16.1941 9.73 16.1719 9.46049 16.1303 9.19333C16.1067 9.0296 16.1354 8.86295 16.2126 8.71457C16.2898 8.56619 16.4122 8.44277 16.5641 8.36L17.7849 7.69333C17.9882 7.58282 18.1365 7.40081 18.1973 7.18733C18.2581 6.97385 18.2263 6.7464 18.1089 6.555L17.2236 5.11167C17.1062 4.92027 16.9129 4.78062 16.6861 4.72342C16.4593 4.66622 16.2177 4.69616 16.0144 4.80667L14.7945 5.46917C14.6417 5.55226 14.466 5.59047 14.29 5.57888C14.1139 5.5673 13.9456 5.50646 13.8066 5.40417C13.3546 5.07095 12.8555 4.79861 12.3238 4.595C12.1603 4.53275 12.0203 4.42597 11.9217 4.28834C11.8232 4.1507 11.7705 3.98849 11.7705 3.8225V2.5C11.7705 2.27899 11.6772 2.06702 11.5112 1.91074C11.3452 1.75446 11.12 1.66667 10.8852 1.66667H9.11475C8.87997 1.66667 8.6548 1.75446 8.48879 1.91074C8.32277 2.06702 8.22951 2.27899 8.22951 2.5V3.8225C8.2295 3.98849 8.17684 4.1507 8.07826 4.28834C7.97968 4.42597 7.83969 4.53275 7.67623 4.595C7.14445 4.79861 6.64539 5.07095 6.19344 5.40417C6.05486 5.50711 5.88675 5.5687 5.71071 5.58102C5.53467 5.59335 5.35873 5.55584 5.2055 5.47333L3.98563 4.80667C3.78231 4.69616 3.54068 4.66622 3.3139 4.72342C3.08713 4.78062 2.89378 4.92027 2.77638 5.11167L1.89113 6.555C1.77438 6.74635 1.74302 6.97348 1.80392 7.18657C1.86483 7.39965 2.01303 7.5813 2.21602 7.69167L3.43678 8.35833C3.5887 8.4411 3.71105 8.56452 3.78829 8.7129C3.86552 8.86128 3.89416 9.02793 3.87055 9.19167C3.79353 9.72756 3.79353 10.2708 3.87055 10.8067C3.89416 10.9704 3.86552 11.137 3.78829 11.2854C3.71105 11.4338 3.5887 11.5572 3.43678 11.64ZM12.4591 13.4644C11.7312 13.9222 10.8754 14.1666 9.99997 14.1666C8.82649 14.1653 7.70147 13.7259 6.8717 12.9447C6.04192 12.1636 5.57514 11.1046 5.57373 9.99992C5.57373 9.17583 5.83332 8.37025 6.31969 7.68504C6.80605 6.99984 7.49733 6.46579 8.30612 6.15042C9.11491 5.83506 10.0049 5.75254 10.8635 5.91332C11.7221 6.07409 12.5108 6.47092 13.1298 7.05364C13.7488 7.63636 14.1704 8.37879 14.3412 9.18704C14.5119 9.9953 14.4243 10.8331 14.0893 11.5944C13.7543 12.3558 13.1869 13.0065 12.4591 13.4644ZM11.4754 7.92125C11.0387 7.64654 10.5252 7.49992 9.99997 7.49992C9.29562 7.49992 8.62012 7.76331 8.12207 8.23215C7.62403 8.70099 7.34423 9.33688 7.34423 9.99992C7.34423 10.4944 7.49998 10.9777 7.7918 11.3888C8.08362 11.8 8.49839 12.1204 8.98366 12.3096C9.46893 12.4988 10.0029 12.5483 10.5181 12.4519C11.0332 12.3554 11.5064 12.1173 11.8779 11.7677C12.2493 11.4181 12.5022 10.9726 12.6047 10.4876C12.7072 10.0027 12.6546 9.50003 12.4536 9.04321C12.2525 8.5864 11.9122 8.19595 11.4754 7.92125Z"
        fill="#545E5E" />
</svg>