<svg width="24" height="24" viewBox="0 0 24 24" fill="none" xmlns="http://www.w3.org/2000/svg">
<path fill-rule="evenodd" clip-rule="evenodd" d="M2.357 16.2783L3.24225 17.7225C3.59531 18.2962 4.17554 18.7149 4.85583 18.8867C5.53613 19.0585 6.26104 18.9695 6.87176 18.6392L7.59501 18.2458C7.87221 18.4192 8.16079 18.5759 8.45901 18.715V19.5C8.45901 20.163 8.73881 20.7989 9.23686 21.2678C9.73491 21.7366 10.4104 22 11.1148 22H12.8852C13.5896 22 14.2651 21.7366 14.7631 21.2678C15.2612 20.7989 15.541 20.163 15.541 19.5V18.715C15.8396 18.5751 16.1285 18.4176 16.4059 18.2433L17.1291 18.6367C17.4313 18.801 17.765 18.9077 18.111 18.9505C18.457 18.9934 18.8086 18.9716 19.1457 18.8865C19.4828 18.8014 19.7988 18.6545 20.0755 18.4544C20.3523 18.2542 20.5844 18.0047 20.7586 17.72L21.6439 16.2758C21.8185 15.9913 21.9318 15.6773 21.9773 15.3515C22.0228 15.0258 21.9997 14.6948 21.9093 14.3775C21.8189 14.0602 21.6629 13.7628 21.4502 13.5022C21.2376 13.2417 20.9725 13.0232 20.6701 12.8592L19.9486 12.4667C19.9734 12.1532 19.9734 11.8385 19.9486 11.525L20.6701 11.1325C20.9725 10.9685 21.2376 10.75 21.4502 10.4894C21.6629 10.2289 21.8189 9.93148 21.9093 9.61416C21.9997 9.29685 22.0228 8.96586 21.9773 8.64013C21.9318 8.3144 21.8185 8.00032 21.6439 7.71583L20.7586 6.27167C20.4056 5.69793 19.8253 5.27931 19.1451 5.10749C18.4648 4.93568 17.7399 5.02468 17.1291 5.355L16.4059 5.74833C16.1282 5.57691 15.8394 5.42216 15.541 5.285V4.5C15.541 3.83696 15.2612 3.20107 14.7631 2.73223C14.2651 2.26339 13.5896 2 12.8852 2H11.1148C10.4104 2 9.73491 2.26339 9.23686 2.73223C8.73881 3.20107 8.45901 3.83696 8.45901 4.5V5.285C8.16041 5.42485 7.87154 5.58239 7.59412 5.75667L6.87088 5.36333C6.26015 5.03301 5.53525 4.94401 4.85495 5.11582C4.17465 5.28764 3.59442 5.70626 3.24136 6.28L2.35611 7.72417C2.18154 8.00865 2.06825 8.32274 2.02271 8.64847C1.97717 8.9742 2.00028 9.30518 2.09071 9.6225C2.18115 9.93981 2.33714 10.2372 2.54977 10.4978C2.76239 10.7583 3.02749 10.9768 3.32989 11.1408L4.05136 11.5333C4.02658 11.8468 4.02658 12.1615 4.05136 12.475L3.32989 12.8675C2.72098 13.1989 2.27659 13.7441 2.0942 14.3835C1.9118 15.023 2.00632 15.7044 2.357 16.2783ZM14.4591 15.9375C13.7312 16.4237 12.8754 16.6833 12 16.6833C10.8265 16.6818 9.70147 16.2152 8.8717 15.3856C8.04192 14.5561 7.57514 13.4314 7.57373 12.2583C7.57373 11.3831 7.83332 10.5275 8.31969 9.79986C8.80605 9.07217 9.49733 8.505 10.3061 8.17009C11.1149 7.83517 12.0049 7.74754 12.8635 7.91828C13.7221 8.08902 14.5108 8.51046 15.1298 9.12931C15.7488 9.74815 16.1704 10.5366 16.3412 11.395C16.5119 12.2533 16.4243 13.1431 16.0893 13.9516C15.7543 14.7602 15.1869 15.4513 14.4591 15.9375Z" fill="#034147"/>
</svg>
