<svg width="20" height="20" viewBox="0 0 20 5" fill="none" xmlns="http://www.w3.org/2000/svg">
    <path fill-rule="evenodd" clip-rule="evenodd"
        d="M16.4459 8.1286V6.68986C16.4459 3.79131 13.5602 1.47247 10.0125 1.47247C6.46468 1.47247 3.57898 3.82029 3.57898 6.68986V8.12089C3.99472 8.0233 4.43254 7.97119 4.88445 7.97119C5.09152 7.97119 5.29011 8.04754 5.43653 8.18343C5.58295 8.31933 5.66521 8.50364 5.66521 8.69583V15.5538C5.66521 15.746 5.58295 15.9303 5.43653 16.0662C5.29011 16.2021 5.09152 16.2784 4.88445 16.2784C2.19238 16.2784 0 14.4118 0 12.1161C0 10.7328 0.796073 9.51155 2.01785 8.75935C2.01759 8.75166 2.01746 8.74396 2.01746 8.73624V6.68986C2.01746 3.0029 5.60896 0 10.0125 0C14.416 0 18.0075 3.0029 18.0075 6.68986V8.73624C18.0076 8.75169 18.0072 8.76712 18.0063 8.7825C19.2144 9.54254 20 10.7651 20 12.1393C20 13.5366 19.1878 14.7663 17.9451 15.5148V15.7739C17.9451 16.5335 17.6201 17.2619 17.0414 17.7989C16.4627 18.336 15.6779 18.6377 14.8596 18.6377H12.9596C12.8563 18.9287 12.6808 19.1963 12.4433 19.4173C12.0441 19.789 11.5023 19.9985 10.9369 20.0001H9.3941C8.82755 20.0001 8.28421 19.7912 7.8836 19.4194C7.48299 19.0476 7.25793 18.5433 7.25793 18.0174V17.9363C7.25959 17.4115 7.48538 16.9087 7.88581 16.5381C8.28624 16.1676 8.82863 15.9595 9.3941 15.9595H10.9369C11.5018 15.9595 12.0435 16.1677 12.443 16.5385C12.6451 16.7261 12.8024 16.9475 12.9085 17.1884H14.8596C15.2638 17.1884 15.6514 17.0394 15.9372 16.7741C16.1254 16.5995 16.2593 16.3839 16.3288 16.15C15.9407 16.2339 15.5342 16.2784 15.1156 16.2784C14.9085 16.2784 14.7099 16.2021 14.5635 16.0662C14.4171 15.9303 14.3348 15.746 14.3348 15.5538V8.67264C14.3413 8.4845 14.4264 8.30609 14.5721 8.17517C14.7178 8.04425 14.9127 7.9711 15.1156 7.97119C15.5765 7.97119 16.0228 8.02609 16.4459 8.1286ZM11.4965 17.8438C11.4762 17.7383 11.4216 17.6401 11.3388 17.5633C11.2322 17.4643 11.0876 17.4088 10.9369 17.4088H9.40659C9.25526 17.4087 9.11004 17.4641 9.00245 17.5629C8.89486 17.6617 8.8336 17.7958 8.83195 17.9363V18.0174C8.83195 18.1589 8.89249 18.2945 9.00026 18.3946C9.10803 18.4946 9.25419 18.5508 9.40659 18.5508H10.9369C11.0882 18.5493 11.2328 18.4924 11.3392 18.3925C11.4401 18.2978 11.499 18.1717 11.5048 18.0391C11.4969 17.9978 11.4929 17.9556 11.4929 17.9131C11.4929 17.8899 11.4941 17.8668 11.4965 17.8438ZM15.8963 14.7538V9.47264C16.5809 9.5779 17.2059 9.89766 17.6674 10.3787C18.1288 10.8597 18.3987 11.4729 18.4322 12.1161C18.3973 12.7584 18.1268 13.3702 17.6655 13.85C17.2042 14.3299 16.5799 14.6488 15.8963 14.7538ZM2.33264 10.3787C2.79407 9.89766 3.41912 9.5779 4.10369 9.47264V14.7538C3.42012 14.6488 2.79584 14.3299 2.33453 13.85C1.87323 13.3702 1.60266 12.7584 1.56777 12.1161C1.60127 11.4729 1.87122 10.8597 2.33264 10.3787Z"
        fill="#545E5E" />
</svg>