<svg width="24" height="24" viewBox="0 0 24 24" fill="none" xmlns="http://www.w3.org/2000/svg">
<path fill-rule="evenodd" clip-rule="evenodd" d="M18.4459 10.1286V8.68986C18.4459 5.79131 15.5602 3.47247 12.0125 3.47247C8.46468 3.47247 5.57898 5.82029 5.57898 8.68986V10.1209C5.99472 10.0233 6.43254 9.97119 6.88445 9.97119C7.09152 9.97119 7.29011 10.0475 7.43653 10.1834C7.58295 10.3193 7.66521 10.5036 7.66521 10.6958V17.5538C7.66521 17.746 7.58295 17.9303 7.43653 18.0662C7.29011 18.2021 7.09152 18.2784 6.88445 18.2784C4.19238 18.2784 2 16.4118 2 14.1161C2 12.7328 2.79607 11.5116 4.01785 10.7594C4.01759 10.7517 4.01746 10.744 4.01746 10.7362V8.68986C4.01746 5.0029 7.60896 2 12.0125 2C16.416 2 20.0075 5.0029 20.0075 8.68986V10.7362C20.0076 10.7517 20.0072 10.7671 20.0063 10.7825C21.2144 11.5425 22 12.7651 22 14.1393C22 15.5366 21.1878 16.7663 19.9451 17.5148V17.7739C19.9451 18.5335 19.6201 19.2619 19.0414 19.7989C18.4627 20.336 17.6779 20.6377 16.8596 20.6377H14.9596C14.8563 20.9287 14.6808 21.1963 14.4433 21.4173C14.0441 21.789 13.5023 21.9985 12.9369 22.0001H11.3941C10.8276 22.0001 10.2842 21.7912 9.8836 21.4194C9.48299 21.0476 9.25793 20.5433 9.25793 20.0174V19.9363C9.25959 19.4115 9.48538 18.9087 9.88581 18.5381C10.2862 18.1676 10.8286 17.9595 11.3941 17.9595H12.9369C13.5018 17.9595 14.0435 18.1677 14.443 18.5385C14.6451 18.7261 14.8024 18.9475 14.9085 19.1884H16.8596C17.2638 19.1884 17.6514 19.0394 17.9372 18.7741C18.1254 18.5995 18.2593 18.3839 18.3288 18.15C17.9407 18.2339 17.5342 18.2784 17.1156 18.2784C16.9085 18.2784 16.7099 18.2021 16.5635 18.0662C16.4171 17.9303 16.3348 17.746 16.3348 17.5538V10.6726C16.3413 10.4845 16.4264 10.3061 16.5721 10.1752C16.7178 10.0442 16.9127 9.9711 17.1156 9.97119C17.5765 9.97119 18.0228 10.0261 18.4459 10.1286Z" fill="#034147"/>
</svg>
