<svg width="96" height="96" viewBox="0 0 96 96" fill="none" xmlns="http://www.w3.org/2000/svg">
<g clip-path="url(#clip0_4595_3487)">
<path d="M76.5554 57.9907L76.0612 57.9445C76.1412 57.0929 76.1874 56.2307 76.1981 55.3809L76.6941 55.3872C76.6834 56.2503 76.6363 57.1258 76.5554 57.9907ZM76.6203 52.7809L76.1252 52.8147C76.1208 52.7489 76.1163 52.6832 76.111 52.6174C76.0514 51.8334 75.9617 51.0414 75.8426 50.2636L76.3332 50.1889C76.4532 50.9783 76.5457 51.7827 76.6052 52.58C76.6114 52.6467 76.6159 52.7143 76.6203 52.7809ZM75.3519 47.7454C75.1546 46.916 74.9199 46.0858 74.655 45.276L75.127 45.1214C75.3963 45.9436 75.6337 46.788 75.8345 47.6298L75.3519 47.7454ZM73.759 42.8725C73.4292 42.0876 73.0621 41.3063 72.6683 40.5498L73.1083 40.3205C73.5083 41.0885 73.8808 41.8832 74.2168 42.6805L73.759 42.8725ZM71.391 38.3232C70.9368 37.6014 70.4479 36.8894 69.9377 36.2076L70.335 35.9098C70.8532 36.6023 71.3501 37.3249 71.8114 38.0583L71.391 38.3232ZM68.3172 34.2174C67.7519 33.5783 67.1545 32.9552 66.5403 32.3649L66.8843 32.0067C67.5083 32.6058 68.1154 33.2387 68.6888 33.8885L68.3172 34.2174ZM64.6185 30.6627C63.9572 30.124 63.2666 29.6058 62.5643 29.1232L62.8452 28.7143C63.5581 29.204 64.2603 29.7303 64.9314 30.2778L64.6185 30.6627ZM60.391 27.7578C59.6514 27.3347 58.8852 26.9365 58.1128 26.5756L58.3234 26.1258C59.1074 26.4929 59.8861 26.8974 60.6381 27.3276L60.391 27.7578ZM55.7457 25.5845C54.9474 25.2885 54.1261 25.0218 53.3057 24.7916L53.4399 24.3134C54.2737 24.5472 55.1083 24.8183 55.919 25.1187L55.7457 25.5845ZM50.8079 24.2014C49.9732 24.0396 49.1199 23.9098 48.271 23.8156L48.3261 23.3223C49.1883 23.4183 50.055 23.5498 50.903 23.7143L50.8079 24.2014Z" fill="#E8E8E8"/>
<path d="M21.2912 57.9907L21.7855 57.9445C21.7055 57.0929 21.6592 56.2307 21.6486 55.3809L21.1526 55.3872C21.1632 56.2503 21.2103 57.1258 21.2912 57.9907ZM21.2264 52.7809L21.7215 52.8147C21.7259 52.7489 21.7303 52.6832 21.7357 52.6174C21.7952 51.8334 21.885 51.0414 22.0041 50.2636L21.5135 50.1889C21.3935 50.9783 21.301 51.7827 21.2415 52.58C21.2352 52.6467 21.2308 52.7143 21.2264 52.7809ZM22.4948 47.7454C22.6921 46.916 22.9268 46.0858 23.1917 45.276L22.7197 45.1214C22.4503 45.9436 22.213 46.788 22.0121 47.6298L22.4948 47.7454ZM24.0877 42.8725C24.4175 42.0876 24.7846 41.3063 25.1784 40.5498L24.7384 40.3205C24.3384 41.0885 23.9659 41.8832 23.6299 42.6805L24.0877 42.8725ZM26.4557 38.3232C26.9099 37.6014 27.3988 36.8894 27.909 36.2076L27.5117 35.9098C26.9935 36.6023 26.4966 37.3249 26.0352 38.0583L26.4557 38.3232ZM29.5295 34.2174C30.0948 33.5783 30.6921 32.9552 31.3064 32.3649L30.9624 32.0067C30.3384 32.6058 29.7312 33.2387 29.1579 33.8885L29.5295 34.2174ZM33.2281 30.6627C33.8895 30.124 34.5801 29.6058 35.2824 29.1232L35.0015 28.7143C34.2886 29.204 33.5864 29.7303 32.9152 30.2778L33.2281 30.6627ZM37.4557 27.7578C38.1952 27.3347 38.9615 26.9365 39.7339 26.5756L39.5232 26.1258C38.7392 26.4929 37.9606 26.8974 37.2086 27.3276L37.4557 27.7578ZM42.101 25.5845C42.8992 25.2885 43.7206 25.0218 44.541 24.7916L44.4068 24.3134C43.573 24.5472 42.7384 24.8183 41.9277 25.1187L42.101 25.5845ZM47.0388 24.2014C47.8735 24.0396 48.7268 23.9098 49.5757 23.8156L49.5206 23.3223C48.6584 23.4183 47.7917 23.5498 46.9437 23.7143L47.0388 24.2014Z" fill="#E8E8E8"/>
<path d="M60.7024 66.1693H64.8639C70.9765 66.1693 75.9324 61.1514 75.9324 54.9623C75.9324 48.7733 70.9765 43.7554 64.8639 43.7554C63.3876 43.7554 61.9781 44.0494 60.691 44.5796C60.5588 38.5078 55.6567 33.627 49.6273 33.627C43.598 33.627 38.6959 38.5095 38.5637 44.5796C37.2766 44.0494 35.8671 43.7554 34.3908 43.7554C28.2782 43.7554 23.3223 48.7733 23.3223 54.9623C23.3223 61.1514 28.2782 66.1693 34.3908 66.1693H38.5523" fill="#D1E3E8"/>
<path d="M47.3182 60.7458V50.7684H43.3896L49.628 44.4746L55.8642 50.7684H51.9378V60.7352" fill="white"/>
<path d="M43.3914 29.4382C43.3799 29.5324 43.4465 29.6177 43.5408 29.6293L50.2652 30.4595C50.4403 30.4808 50.4199 30.3528 50.435 30.2293C50.4501 30.1057 50.9514 26.0488 50.9514 26.0488C50.9514 26.0488 51.4359 25.671 51.5692 25.567C51.7025 25.463 51.699 25.3306 51.7959 24.5457C51.8928 23.7617 52.211 21.1875 52.2323 21.0088C52.2546 20.8302 52.1408 20.8435 51.9479 20.8204C51.755 20.7964 50.3381 20.6222 50.3381 20.6222L44.5683 19.9102L43.3914 29.4382Z" fill="#E2900C"/>
<path d="M43.428 29.5117L44.6334 19.7499C44.636 19.7286 44.6556 19.7135 44.6769 19.7161L51.2672 20.5295C51.2885 20.5321 51.3036 20.5517 51.3009 20.573L50.0956 30.3339C50.0929 30.3552 50.0734 30.3703 50.052 30.3677L43.4618 29.5543C43.4405 29.5526 43.4254 29.5321 43.428 29.5117Z" fill="#B3B3B3"/>
<path d="M43.4334 29.4657L44.6387 19.6986C44.6414 19.6773 44.661 19.6622 44.6823 19.6649L51.2103 20.4711C51.2316 20.4737 51.2467 20.4933 51.2441 20.5146L50.0387 30.28C50.0361 30.3013 50.0165 30.3164 49.9952 30.3137L43.4672 29.5075C43.4459 29.5057 43.4307 29.4862 43.4334 29.4657Z" fill="#CCCCCC"/>
<path d="M43.4392 29.4165L44.6419 19.6716C44.6446 19.6467 44.6677 19.6289 44.6926 19.6316L51.1397 20.4272C51.1646 20.4298 51.1823 20.4529 51.1797 20.4778L49.977 30.2227C49.9743 30.2476 49.9512 30.2654 49.9263 30.2627L43.4792 29.4672C43.4543 29.4645 43.4366 29.4423 43.4392 29.4165Z" fill="white"/>
<path d="M50.931 19.7607L49.7914 28.9936C49.7256 29.5305 49.7221 29.5518 49.1745 29.4842C47.8065 29.3153 43.427 29.158 43.3896 29.4567C43.3896 29.4567 44.4083 21.206 44.5763 19.8442C44.7141 18.7269 48.8954 18.9465 50.4501 19.142C50.7532 19.1802 50.9683 19.4567 50.931 19.7607Z" fill="#FCA712"/>
<path d="M51.8278 21.1699L51.3276 25.2227L51.4167 25.2337L51.9169 21.1808L51.8278 21.1699Z" fill="#E6E6E6"/>
<path d="M51.5256 21.1318L51.0254 25.1846L51.1145 25.1956L51.6147 21.1428L51.5256 21.1318Z" fill="#E6E6E6"/>
<path d="M66.6715 31.6642L59.9684 32.7379C59.6502 32.7886 59.3498 32.5726 59.2991 32.2535L58.5835 27.7842C58.5329 27.4659 58.7489 27.1655 59.068 27.1148L65.7711 26.0411C66.0893 25.9904 66.3898 26.2064 66.4404 26.5255L67.156 30.9948C67.2075 31.3131 66.9898 31.6126 66.6715 31.6642Z" fill="#6E8799"/>
<path d="M64.5389 28.2481C64.8216 28.2481 65.0509 28.0189 65.0509 27.7361C65.0509 27.4534 64.8216 27.2241 64.5389 27.2241C64.2561 27.2241 64.0269 27.4534 64.0269 27.7361C64.0269 28.0189 64.2561 28.2481 64.5389 28.2481Z" fill="#F2F2F2"/>
<path d="M60.1694 31.7253L66.165 30.7653L64.7037 28.727L63.9641 29.9973L61.7899 27.6577L60.1694 31.7253Z" fill="#F2F2F2"/>
<path d="M39.0104 31.6642L32.3073 32.7379C31.9891 32.7886 31.6886 32.5726 31.638 32.2535L30.9224 27.7842C30.8717 27.4659 31.0877 27.1655 31.4069 27.1148L38.11 26.0411C38.4282 25.9904 38.7286 26.2064 38.7793 26.5255L39.4949 30.9948C39.5464 31.3131 39.3286 31.6126 39.0104 31.6642Z" fill="#6E8799"/>
<path d="M36.8777 28.2481C37.1605 28.2481 37.3897 28.0189 37.3897 27.7361C37.3897 27.4534 37.1605 27.2241 36.8777 27.2241C36.595 27.2241 36.3657 27.4534 36.3657 27.7361C36.3657 28.0189 36.595 28.2481 36.8777 28.2481Z" fill="#F2F2F2"/>
<path d="M32.5083 31.7253L38.5039 30.7653L37.0425 28.727L36.303 29.9973L34.1287 27.6577L32.5083 31.7253Z" fill="#F2F2F2"/>
<path d="M27.6208 43.0543L20.9176 44.1281C20.5994 44.1788 20.299 43.9627 20.2483 43.6436L19.5328 39.1743C19.4821 38.8561 19.6981 38.5556 20.0172 38.505L26.7203 37.4312C27.0385 37.3805 27.339 37.5965 27.3896 37.9156L28.1052 42.385C28.1568 42.7032 27.939 43.0028 27.6208 43.0543Z" fill="#6E8799"/>
<path d="M25.4881 39.6383C25.7708 39.6383 26.0001 39.409 26.0001 39.1263C26.0001 38.8435 25.7708 38.6143 25.4881 38.6143C25.2053 38.6143 24.9761 38.8435 24.9761 39.1263C24.9761 39.409 25.2053 39.6383 25.4881 39.6383Z" fill="#F2F2F2"/>
<path d="M21.1187 43.1154L27.1142 42.1554L25.6529 40.1172L24.9133 41.3874L22.7391 39.0479L21.1187 43.1154Z" fill="#F2F2F2"/>
<path d="M77.5192 43.0543L70.8161 44.1281C70.4979 44.1788 70.1974 43.9627 70.1467 43.6436L69.4312 39.1743C69.3805 38.8561 69.5965 38.5556 69.9156 38.505L76.6187 37.4312C76.937 37.3805 77.2374 37.5965 77.2881 37.9156L78.0036 42.385C78.0552 42.7032 77.8374 43.0028 77.5192 43.0543Z" fill="#6E8799"/>
<path d="M75.3865 39.6383C75.6693 39.6383 75.8985 39.409 75.8985 39.1263C75.8985 38.8435 75.6693 38.6143 75.3865 38.6143C75.1037 38.6143 74.8745 38.8435 74.8745 39.1263C74.8745 39.409 75.1037 39.6383 75.3865 39.6383Z" fill="#F2F2F2"/>
<path d="M71.0171 43.1154L77.0126 42.1554L75.5513 40.1172L74.8118 41.3874L72.6375 39.0479L71.0171 43.1154Z" fill="#F2F2F2"/>
</g>
<defs>
<clipPath id="clip0_4595_3487">
<rect width="96" height="96" fill="white"/>
</clipPath>
</defs>
</svg>
