<svg width="24" height="24" viewBox="0 0 24 24" fill="none" xmlns="http://www.w3.org/2000/svg">
<path fill-rule="evenodd" clip-rule="evenodd" d="M4.971 5.41448C4.86843 5.45543 4.77622 5.51862 4.701 5.59948C4.084 5.75248 3.548 6.00948 3.098 6.45848C2.497 7.06048 2.237 7.81848 2.117 8.71848C2 9.58548 2 10.6885 2 12.0555V15.1655C2 16.5325 2 17.6355 2.117 18.5025C2.238 19.4025 2.496 20.1605 3.098 20.7625C3.7 21.3645 4.458 21.6225 5.358 21.7445C6.225 21.8605 7.328 21.8605 8.695 21.8605H15.777C16.453 21.8605 16.998 21.8605 17.443 21.8305C17.899 21.7995 18.303 21.7335 18.685 21.5755C19.1401 21.387 19.5536 21.1107 19.902 20.7624C20.2503 20.4141 20.5265 20.0006 20.715 19.5455C20.873 19.1635 20.939 18.7595 20.97 18.3035C20.999 17.8795 21 17.3645 21 16.7315C21.2975 16.6264 21.5695 16.4599 21.7985 16.2428C22.0275 16.0257 22.2082 15.7629 22.329 15.4715C22.421 15.2354 22.4734 14.9857 22.484 14.7325C22.5 14.4975 22.5 14.2135 22.5 13.8845V13.8365C22.5 13.5075 22.5 13.2235 22.484 12.9885C22.4736 12.7357 22.4216 12.4863 22.33 12.2505C22.2091 11.9589 22.0282 11.6961 21.7991 11.479C21.5699 11.2619 21.2977 11.0955 21 10.9905C20.998 10.1175 20.986 9.38848 20.918 8.78748C20.833 8.03248 20.652 7.38348 20.225 6.82748C20.026 6.56748 19.793 6.33548 19.533 6.13548C19.34 5.98748 19.136 5.86848 18.92 5.77348C18.9 5.73448 18.877 5.69648 18.85 5.66048L17.23 3.49948C16.735 2.83977 16.0364 2.36163 15.2422 2.13909C14.4481 1.91655 13.6027 1.96203 12.837 2.26848L4.971 5.41448ZM14.8375 3.5834C14.361 3.44962 13.8536 3.47671 13.394 3.66048L9.145 5.36048H14.795C15.545 5.36048 16.2 5.36048 16.768 5.38448L16.03 4.40048C15.7332 4.00437 15.3141 3.71718 14.8375 3.5834ZM19.427 8.95448C19.483 9.44748 19.496 10.0565 19.499 10.8605H18.476C18.147 10.8605 17.863 10.8605 17.629 10.8765C17.3755 10.887 17.1254 10.9394 16.889 11.0315C16.6159 11.1446 16.3678 11.3103 16.1588 11.5193C15.9498 11.7283 15.7841 11.9764 15.671 12.2495C15.579 12.4856 15.5266 12.7353 15.516 12.9885C15.5 13.2235 15.5 13.5075 15.5 13.8365V13.8845C15.5 14.2135 15.5 14.4975 15.516 14.7315C15.5265 14.985 15.5789 15.2351 15.671 15.4715C15.7841 15.7446 15.9498 15.9927 16.1588 16.2017C16.3678 16.4106 16.6159 16.5764 16.889 16.6895C17.1251 16.7815 17.3748 16.8339 17.628 16.8445C17.863 16.8605 18.147 16.8605 18.476 16.8605H19.5C19.5 17.4385 19.496 17.8615 19.473 18.2015C19.447 18.5815 19.399 18.8025 19.329 18.9715C19.2159 19.2446 19.0502 19.4927 18.8412 19.7017C18.6322 19.9106 18.3841 20.0764 18.111 20.1895C17.942 20.2595 17.72 20.3075 17.34 20.3335C16.953 20.3605 16.46 20.3605 15.75 20.3605H8.75C7.315 20.3605 6.313 20.3585 5.559 20.2575C4.824 20.1585 4.436 19.9785 4.159 19.7015C3.883 19.4245 3.702 19.0365 3.603 18.3025C3.502 17.5465 3.5 16.5455 3.5 15.1105V12.1105C3.5 10.6755 3.502 9.67448 3.603 8.91948C3.702 8.18448 3.882 7.79648 4.159 7.51948C4.436 7.24348 4.824 7.06248 5.558 6.96348C6.313 6.86248 7.315 6.86048 8.75 6.86048H14.75C15.94 6.86048 16.77 6.86148 17.406 6.93348C18.026 7.00348 18.368 7.13248 18.62 7.32548C18.7759 7.4451 18.9154 7.58462 19.035 7.74048C19.228 7.99248 19.357 8.33448 19.427 8.95448ZM17.73 12.3725C17.6392 12.3735 17.5491 12.3887 17.463 12.4175C17.372 12.4552 17.2893 12.5104 17.2196 12.5801C17.1499 12.6498 17.0947 12.7325 17.057 12.8235C17.0282 12.9096 17.013 12.9997 17.012 13.0905C17 13.2685 17 13.5005 17 13.8605C17 14.2205 17 14.4525 17.013 14.6305C17.0137 14.7212 17.0285 14.8113 17.057 14.8975C17.0947 14.9885 17.1499 15.0712 17.2196 15.1409C17.2893 15.2105 17.372 15.2658 17.463 15.3035C17.5491 15.3323 17.6392 15.3475 17.73 15.3485C17.908 15.3605 18.14 15.3605 18.5 15.3605H19.5C19.86 15.3605 20.092 15.3605 20.27 15.3485C20.3608 15.3475 20.4509 15.3323 20.537 15.3035C20.628 15.2658 20.7107 15.2105 20.7804 15.1409C20.8501 15.0712 20.9053 14.9885 20.943 14.8975C20.9718 14.8114 20.987 14.7213 20.988 14.6305C21 14.4525 21 14.2205 21 13.8605C21 13.5005 21 13.2685 20.987 13.0905C20.9863 12.9997 20.9715 12.9096 20.943 12.8235C20.9053 12.7325 20.8501 12.6498 20.7804 12.5801C20.7107 12.5104 20.628 12.4552 20.537 12.4175C20.4509 12.3887 20.3608 12.3735 20.27 12.3725C20.092 12.3605 19.86 12.3605 19.5 12.3605H18.5C18.14 12.3605 17.908 12.3605 17.73 12.3725ZM5.96967 9.96967C5.82902 10.1103 5.75 10.3011 5.75 10.5C5.75 10.6989 5.82902 10.8897 5.96967 11.0303C6.11032 11.171 6.30109 11.25 6.5 11.25H9.5C9.69891 11.25 9.88968 11.171 10.0303 11.0303C10.171 10.8897 10.25 10.6989 10.25 10.5C10.25 10.3011 10.171 10.1103 10.0303 9.96967C9.88968 9.82902 9.69891 9.75 9.5 9.75H6.5C6.30109 9.75 6.11032 9.82902 5.96967 9.96967Z" fill="#545E5E"/>
</svg>
