<svg width="40" height="40" viewBox="0 0 40 40" fill="none" xmlns="http://www.w3.org/2000/svg">
<path d="M8.74928 36.0414C8.74928 36.0414 7.94444 28.9858 14.8774 28.1987H17.8441V26.832C17.8441 26.832 19.9309 27.7284 22.0441 26.932L22.1107 28.1987H25.5774C25.5774 28.1987 31.6144 28.8014 31.2493 36.0414H8.74928Z" fill="#00D6D9"/>
<path d="M31.1921 36.1657H8.96429H8.5332L8.64081 34.3274C8.85091 30.7382 11.6788 27.999 14.915 27.999H17.3779V28.3657H15.1115C11.9925 28.3657 9.26693 31.0023 9.06443 34.4571L8.98969 35.7324H31.1334L31.092 34.4571C30.8895 31.0023 28.1639 28.3657 25.0449 28.3657H22.0113V27.999H25.2216C28.4578 27.999 31.2857 30.7382 31.4958 34.3274L31.6034 36.1657H31.1921Z" fill="#034147"/>
<path d="M18.1781 26.6781V28.734C18.1781 29.8008 19.0437 30.6657 20.1115 30.6657C21.1792 30.6657 22.0448 29.8008 22.0448 28.734V26.7205C22.157 26.6864 22.2681 26.6493 22.3781 26.6092V28.748C22.3781 30.0096 21.3558 31.0323 20.0948 31.0323C18.8337 31.0323 17.8115 30.0096 17.8115 28.748V26.5459C17.9322 26.5937 18.0545 26.6376 18.1781 26.6781ZM17.7948 30.6323C17.9145 30.6323 18.0115 30.7293 18.0115 30.849V34.1157C18.0115 34.2353 17.9145 34.3323 17.7948 34.3323C17.6751 34.3323 17.5781 34.2353 17.5781 34.1157V30.849C17.5781 30.7293 17.6751 30.6323 17.7948 30.6323ZM22.3448 30.599C22.4737 30.599 22.5781 30.7035 22.5781 30.8323V32.8657C22.5781 32.9945 22.4737 33.099 22.3448 33.099C22.2159 33.099 22.1115 32.9945 22.1115 32.8657V30.8323C22.1115 30.7035 22.2159 30.599 22.3448 30.599Z" fill="#034147"/>
<path d="M17.7944 34.0986C17.8588 34.0986 17.9111 34.1508 17.9111 34.2152V35.0486C17.9111 35.113 17.8588 35.1652 17.7944 35.1652C17.73 35.1652 17.6777 35.113 17.6777 35.0486V34.2152C17.6777 34.1508 17.73 34.0986 17.7944 34.0986ZM22.3611 32.8652C22.4255 32.8652 22.4777 32.9175 22.4777 32.9819V33.8152C22.4777 33.8797 22.4255 33.9319 22.3611 33.9319C22.2966 33.9319 22.2444 33.8797 22.2444 33.8152V32.9819C22.2444 32.9175 22.2966 32.8652 22.3611 32.8652Z" fill="#034147"/>
<path d="M16.5436 25.8574L14.4323 26.3422C14.4323 26.3422 11.8469 26.9278 13.567 28.6703C15.2871 30.4128 19.7108 30.7205 19.7108 30.7205C19.7108 30.7205 18.5412 30.1665 18.0442 29.3871L17.8775 26.5871L16.5436 25.8574Z" fill="#00AEB0"/>
<path fill-rule="evenodd" clip-rule="evenodd" d="M19.7787 30.8874C19.6477 31.0532 15.9641 30.9392 13.4121 28.7207C11.5642 27.1144 14.3454 26.1874 14.3454 26.1874L16.3787 25.7207L18.1454 26.6207L18.2787 29.3207C19.0224 30.4868 19.9896 30.6205 19.7787 30.8874ZM17.9454 29.454L17.7454 26.6207L16.6787 26.0207L14.6454 26.5207C14.6454 26.5207 12.1825 27.0257 13.7454 28.4874C15.4321 30.0647 18.5523 30.4881 18.8787 30.454C19.2171 30.4188 18.6891 30.6202 17.9454 29.454Z" fill="#034147"/>
<path d="M23.677 25.9365L25.7894 26.4228C25.7894 26.4228 28.3764 27.0101 26.6553 28.7578C24.9342 30.5055 20.5078 30.8141 20.5078 30.8141C20.5078 30.8141 21.6781 30.2585 22.1755 29.4768L22.3422 26.6684L23.677 25.9365Z" fill="#00AEB0"/>
<path fill-rule="evenodd" clip-rule="evenodd" d="M20.4415 30.9478C20.5726 31.1141 24.2584 30.9997 26.812 28.7746C28.6609 27.1635 25.8781 26.2337 25.8781 26.2337L23.8435 25.7656L22.0758 26.6683L21.9424 29.3764C21.1983 30.546 20.2305 30.68 20.4415 30.9478ZM22.276 29.5101L22.4761 26.6683L23.5434 26.0665L25.5779 26.568C25.5779 26.568 28.0423 27.0746 26.4784 28.5406C24.7908 30.1227 21.6687 30.5473 21.3421 30.5131C21.0035 30.4778 21.5318 30.6798 22.276 29.5101Z" fill="#034147"/>
<path d="M20.2504 5.76562C24.3971 5.76562 27.6701 9.64072 27.5637 14.2967L27.4506 19.2453C27.3503 23.6317 24.1278 27.099 20.2504 27.099C16.373 27.099 13.1505 23.6317 13.0502 19.2453L12.9371 14.2967C12.8307 9.64072 16.1037 5.76562 20.2504 5.76562Z" fill="#00D6D9"/>
<path fill-rule="evenodd" clip-rule="evenodd" d="M27.8973 14.1433L27.7787 19.2929C27.6737 23.8575 24.297 27.4656 20.2341 27.4656C16.1712 27.4656 12.7946 23.8575 12.6895 19.2929L12.571 14.1433C12.4595 9.29815 15.8891 5.26562 20.2341 5.26562C24.5792 5.26562 28.0088 9.29815 27.8973 14.1433ZM20.2175 5.79896C16.1275 5.79896 12.8992 9.64378 13.0042 14.2634L13.1157 19.1733C13.2146 23.5255 16.3931 26.9656 20.2175 26.9656C24.0419 26.9656 27.2203 23.5255 27.3192 19.1733L27.4308 14.2634C27.5358 9.64378 24.3075 5.79896 20.2175 5.79896Z" fill="#034147"/>
<path opacity="0.059" fill-rule="evenodd" clip-rule="evenodd" d="M27.69 14.999L27.3566 20.4657C27.3566 20.4657 25.8762 26.7759 20.1566 27.5231V27.5324C20.1454 27.531 20.1345 27.5291 20.1233 27.5277C20.1121 27.5291 20.1012 27.531 20.09 27.5324V27.5231C14.3705 26.7759 12.89 20.4657 12.89 20.4657L12.5566 14.999C14.0408 21.587 15.29 21.999 15.29 21.999C15.0372 20.0013 17.09 20.199 17.09 20.199C18.3411 20.4104 19.337 20.5125 20.1233 20.5507C20.9096 20.5125 21.9055 20.4104 23.1566 20.199C23.1566 20.199 25.2094 20.0013 24.9566 21.999C24.9566 21.999 26.2058 21.587 27.69 14.999ZM23.9834 22.6766C23.8864 21.5015 23.1778 21.6011 23.1778 21.6011C21.9181 21.9718 20.9292 22.1777 20.1566 22.2824V22.2747C19.3895 22.1709 18.4076 21.9667 17.1566 21.599C17.1566 21.599 16.453 21.5002 16.3566 22.6657C16.3566 22.6657 16.0741 23.8334 17.0233 24.3324L18.2233 25.599C18.2233 25.599 19.0434 25.8589 19.0233 24.8657C19.0233 24.8657 18.9398 24.1249 19.4233 23.999H20.1566V24.021H20.8951C21.382 24.1479 21.298 24.8948 21.298 24.8948C21.2778 25.8962 22.1036 25.6342 22.1036 25.6342L23.3121 24.357C24.268 23.854 23.9834 22.6766 23.9834 22.6766Z" fill="#034147"/>
<path d="M23.8336 22.2389C23.2278 22.7649 21.8593 23.2655 20.267 23.2655C18.6747 23.2655 17.3062 22.7649 16.7003 22.2389C16.7003 22.2389 16.6383 22.0683 16.7293 21.9773C16.8219 21.8847 16.967 21.9049 16.967 21.9049C17.5722 22.4313 18.6741 22.8655 20.267 22.8655C21.8599 22.8655 22.9617 22.4313 23.567 21.9049C23.567 21.9049 23.715 21.8499 23.7869 21.9218C23.9255 22.0603 23.8336 22.2389 23.8336 22.2389ZM19.167 24.0655H21.3003V24.3988H19.167V24.0655Z" fill="#034147"/>
<path d="M12.5634 14.8939C12.5625 14.894 12.4816 14.8293 12.3288 14.7812C12.2524 14.7572 12.1575 14.7375 12.0493 14.7326C12.0223 14.7314 11.9945 14.7311 11.966 14.7319C11.9376 14.7327 11.9085 14.7346 11.8789 14.7378C11.8197 14.7441 11.7586 14.7554 11.6971 14.7731C11.4509 14.8439 11.1998 15.0159 11.0523 15.3709C10.9783 15.5485 10.9294 15.7718 10.9165 16.0511C10.9133 16.121 10.9123 16.1944 10.9137 16.2714C10.9151 16.3484 10.919 16.4291 10.9253 16.5136C10.9381 16.6826 10.9612 16.867 10.9955 17.0678C10.9948 17.0677 10.9635 17.6749 11.1806 18.3726C11.3846 19.0548 11.8747 19.8928 12.7795 20.1323C12.6755 18.3995 12.6722 16.6343 12.5634 14.8939Z" fill="#00D6D9"/>
<path d="M12.6665 14.9641C12.6665 14.9641 11.0902 14.4757 11.1456 16.0962C11.1456 16.0962 11.3803 18.446 11.4822 18.6626C11.4822 18.6626 12.1013 20.0307 13.1229 20.0913L13.1353 20.5323C13.1353 20.5323 11.3397 20.3021 10.9928 18.2327L10.7191 16.3528C10.7191 16.3528 10.5066 13.865 12.5683 14.4975L12.6665 14.9641Z" fill="#034147"/>
<path d="M12.1468 18.2284C12.1468 18.2284 12.0586 18.295 11.9828 18.295C11.907 18.295 11.8199 18.2284 11.8199 18.2284L11.6572 16.5891C11.6572 16.5891 11.8817 15.7818 12.8341 16.2084L12.8566 16.6771C12.8566 16.6771 12.021 16.3808 12.0383 16.7498C12.0549 17.105 12.1468 18.2284 12.1468 18.2284Z" fill="#034147"/>
<path d="M27.8762 14.8977C27.8772 14.8977 27.9584 14.8332 28.1119 14.7851C28.1886 14.7611 28.284 14.7414 28.3926 14.7365C28.4198 14.7353 28.4477 14.735 28.4763 14.7358C28.5049 14.7366 28.5341 14.7385 28.5638 14.7417C28.6232 14.748 28.6846 14.7593 28.7463 14.777C28.9936 14.8477 29.2458 15.0196 29.394 15.3744C29.4683 15.5518 29.5174 15.775 29.5304 16.0542C29.5336 16.124 29.5346 16.1973 29.5332 16.2742C29.5318 16.3512 29.5279 16.4318 29.5215 16.5163C29.5087 16.6852 29.4855 16.8694 29.451 17.0702C29.4518 17.07 29.4832 17.6768 29.2652 18.3741C29.0602 19.0558 28.568 19.8932 27.6592 20.1325C27.7637 18.4009 27.7669 16.6369 27.8762 14.8977Z" fill="#00D6D9"/>
<path d="M27.7724 14.9676C27.7724 14.9676 29.3556 14.4796 29.2998 16.099C29.2998 16.099 29.0641 18.4472 28.9618 18.6636C28.9618 18.6636 28.34 20.0308 27.3139 20.0914L27.3014 20.532C27.3014 20.532 29.105 20.302 29.4533 18.234L29.7283 16.3554C29.7283 16.3554 29.9417 13.8692 27.871 14.5014L27.7724 14.9676Z" fill="#034147"/>
<path d="M28.2939 18.2308C28.2939 18.2308 28.3825 18.2974 28.4587 18.2974C28.5348 18.2974 28.6223 18.2308 28.6223 18.2308L28.7857 16.5927C28.7857 16.5927 28.5603 15.7859 27.6037 16.2122L27.5811 16.6807C27.5811 16.6807 28.4203 16.3845 28.403 16.7533C28.3863 17.1082 28.2939 18.2308 28.2939 18.2308Z" fill="#034147"/>
<path fill-rule="evenodd" clip-rule="evenodd" d="M20.8509 18.0986C20.8898 18.0986 20.9287 18.0986 20.9676 18.0986C21.2088 18.4262 21.3069 18.9296 21.4343 19.3653C21.4737 19.5003 21.4354 19.7365 21.4009 19.832C21.2745 20.1816 20.8777 20.1753 20.5509 20.332C20.4632 20.374 20.3979 20.4466 20.2843 20.4653C20.2102 20.4 20.1207 20.3872 20.0843 20.282C19.9942 20.158 20.1103 20.0806 20.2009 20.032C20.3655 19.9437 20.8734 19.8567 20.9343 19.6986C21.0095 19.613 20.9595 19.3556 20.9343 19.2653C20.8697 19.0339 20.8387 18.8407 20.7509 18.632C20.6926 18.4933 20.5903 18.3472 20.6509 18.182C20.7012 18.1604 20.8098 18.1359 20.8509 18.0986Z" fill="#034147"/>
<path d="M16.0012 15.746H17.2012C17.3669 15.746 17.5012 15.9072 17.5012 16.106C17.5012 16.3048 17.3669 16.466 17.2012 16.466H16.0012C15.8355 16.466 15.7012 16.3048 15.7012 16.106C15.7012 15.9072 15.8355 15.746 16.0012 15.746ZM23.3345 15.666H24.5345C24.7002 15.666 24.8345 15.8272 24.8345 16.026C24.8345 16.2248 24.7002 16.386 24.5345 16.386H23.3345C23.1688 16.386 23.0345 16.2248 23.0345 16.026C23.0345 15.8272 23.1688 15.666 23.3345 15.666Z" fill="#034147"/>
<path opacity="0.122" d="M16.5348 17.7324C17.1792 17.7324 17.7015 17.7694 17.7015 18.4991C17.7015 19.2517 17.1792 19.2658 16.5348 19.2658C15.8905 19.2658 15.3682 19.1287 15.3682 18.4991C15.3682 17.7636 15.8905 17.7324 16.5348 17.7324ZM24.2682 17.7324C24.9125 17.7324 25.4348 17.7694 25.4348 18.4991C25.4348 19.2517 24.9125 19.2658 24.2682 19.2658C23.6238 19.2658 23.1015 19.1287 23.1015 18.4991C23.1015 17.7636 23.6238 17.7324 24.2682 17.7324Z" fill="black"/>
<path fill-rule="evenodd" clip-rule="evenodd" d="M27.4955 14.5478C27.4505 14.9329 27.4108 15.4043 27.3276 15.8256C27.0785 17.0857 25.9958 18.2531 24.1471 18.3861C22.2984 18.5191 20.7249 17.5884 20.6327 16.3073C20.6171 16.0901 20.5752 15.8464 20.5432 15.6094C20.2815 15.4643 20.0119 15.464 19.7342 15.6084C19.7018 15.8507 19.6584 16.1009 19.6424 16.3233C19.5499 17.6086 17.9715 18.5424 16.1169 18.409C14.2623 18.2755 13.1762 17.1042 12.9264 15.84C12.8429 15.4172 12.8031 14.9444 12.7579 14.5579L12.4854 14.5383L12.5236 14.0064L12.5901 14.0112L14.2767 14.1325L15.7004 14.235L17.1267 14.3376L19.3483 14.4975C19.5016 14.5169 19.6034 14.5826 19.6691 14.6807C19.9881 14.8203 20.298 14.8209 20.5986 14.6823C20.6637 14.5779 20.7669 14.5076 20.9258 14.4875L23.1404 14.3282L24.5623 14.2259L25.9815 14.1238L27.6628 14.0028L27.7291 13.998L27.7672 14.5282L27.4955 14.5478ZM18.7518 15.1226L14.3978 14.8093C13.8283 14.7602 13.6264 15.4001 13.5913 15.8879C13.5173 16.9161 14.6631 17.8365 16.1504 17.9435C17.6377 18.0505 18.9034 17.3037 18.9774 16.2755C19.0125 15.7877 19.1718 15.4865 18.7518 15.1226ZM26.6647 15.8733C26.6297 15.3872 26.4285 14.7494 25.8608 14.7983L21.5205 15.1106C21.1018 15.4733 21.2606 15.7735 21.2956 16.2596C21.3693 17.2845 22.631 18.0289 24.1137 17.9222C25.5963 17.8155 26.7385 16.8982 26.6647 15.8733Z" fill="#034147"/>
<path d="M12.7925 14.599C12.7925 14.599 13.0497 10.5836 15.5276 8.79896C15.5276 8.79896 19.1055 11.2328 24.7337 8.79896C24.7337 8.79896 27.2231 9.93281 27.6023 14.599H27.7359C27.7359 14.599 28.4486 9.25417 26.6016 7.13229C26.6016 7.13229 26.1466 5.50729 23.733 4.33229L22.8658 4.86563C22.8658 4.86563 22.2831 4.1526 20.7311 3.26562C20.7311 3.26562 19.5832 3.77708 18.9966 4.66562L18.0626 4.06562C18.0626 4.06562 16.7576 4.66302 15.9946 5.73229L14.5937 5.93229L13.8599 7.26562C13.8599 7.26562 12.1082 8.67682 12.6589 14.4656L12.7925 14.599Z" fill="#034147"/>
<path fill-rule="evenodd" clip-rule="evenodd" d="M28.0024 14.599L27.3687 14.5657C26.9896 9.89954 24.7335 9.06569 24.7335 9.06569C19.1053 11.4995 15.5274 9.03236 15.5274 9.03236C13.3631 10.8787 13.0256 14.6324 13.0256 14.6324L12.4587 14.4657C11.908 8.67689 13.6597 7.16569 13.6597 7.16569L14.4602 5.69902L15.9278 5.49902C16.6908 4.42975 18.0958 3.76569 18.0958 3.76569L18.967 4.33236C19.5536 3.44381 20.767 2.99902 20.767 2.99902C22.319 3.886 22.9003 4.56569 22.9003 4.56569L23.7995 4.06569C26.2131 5.24069 26.8681 7.09902 26.8681 7.09902C28.7151 9.2209 28.0024 14.599 28.0024 14.599ZM26.4336 7.23236C26.4336 7.23236 26.1472 5.77402 23.7336 4.59902L22.8336 5.13235C22.8336 5.13235 22.2524 4.41933 20.7003 3.53236C20.7003 3.53236 19.6536 4.07715 19.067 4.96569L18.067 4.33236C18.067 4.33236 16.8633 4.89642 16.1003 5.96569L14.767 6.16569L14.067 7.43235C14.067 7.43235 12.6131 8.54286 12.767 13.0324L12.8003 12.999C12.8003 12.999 13.2629 10.2083 15.5274 8.49902C15.5274 8.49902 19.2053 10.9995 24.8335 8.56569C24.8335 8.56569 26.9128 9.54355 27.6336 13.0324C27.6336 13.0324 28.0615 9.44399 26.4336 7.23236Z" fill="#034147"/>
<path opacity="0.2" fill-rule="evenodd" clip-rule="evenodd" d="M20.3229 4.76626C20.372 4.80275 20.3477 4.83651 20.3371 4.88212C20.3212 4.95018 20.3023 5.01755 20.2917 5.08546C20.2756 5.18837 20.2609 5.2914 20.2567 5.39293C20.2532 5.4783 20.2547 5.56339 20.2562 5.64794C20.2571 5.69676 20.2654 5.7455 20.2666 5.7944C20.2671 5.81391 20.2724 5.83348 20.273 5.85334C20.2742 5.85873 20.2754 5.86412 20.2766 5.8695C20.2773 5.89446 20.2838 5.91826 20.2845 5.94317C20.2886 5.96572 20.2926 5.98828 20.2967 6.01083C20.3027 6.04657 20.3056 6.08388 20.3165 6.11869C20.3177 6.1276 20.3189 6.13652 20.3201 6.14544C20.3288 6.1731 20.3316 6.20166 20.3404 6.22941C20.341 6.2349 20.3416 6.24038 20.3422 6.24586C20.3549 6.28588 20.3606 6.32798 20.3732 6.36775C20.3938 6.43232 20.4104 6.49717 20.4331 6.5616C20.4481 6.60434 20.461 6.6491 20.4761 6.69208C20.503 6.7686 20.5358 6.84332 20.5653 6.91901C20.5833 6.96508 20.6074 7.00764 20.6266 7.05351C20.6811 7.18332 20.7512 7.3109 20.8181 7.43814C20.8398 7.47925 20.8635 7.51706 20.8875 7.55721C20.9028 7.58283 20.9187 7.61153 20.9328 7.63792C20.9406 7.65252 20.9504 7.66353 20.9588 7.6777C20.9772 7.70844 20.9972 7.74147 21.0153 7.77244C21.0321 7.80108 21.051 7.82553 21.0695 7.85344C21.0894 7.88353 21.1091 7.91739 21.1293 7.94761C21.1645 8.00013 21.2017 8.05088 21.2365 8.10275C21.2727 8.15664 21.3133 8.20436 21.3515 8.25748C21.4257 8.36042 21.5124 8.45917 21.5923 8.56249C21.6163 8.59342 21.6449 8.62046 21.6688 8.65038C21.6808 8.66531 21.7007 8.67836 21.7088 8.69405C21.7121 8.70043 21.714 8.71028 21.7162 8.71751C21.7199 8.72915 21.719 8.74352 21.7191 8.75584C21.7194 8.77557 21.7204 8.79556 21.7169 8.8162C21.7133 8.83759 21.6997 8.86113 21.6909 8.88225C21.6838 8.8992 21.6661 8.91415 21.6562 8.9224C21.6477 8.92935 21.6443 8.93582 21.6357 8.94255C21.6134 8.96007 21.5882 8.97449 21.5638 8.98181C21.5384 8.98941 21.5057 8.96667 21.4857 8.94269C21.4508 8.90074 21.407 8.86222 21.3734 8.82015C21.3663 8.81116 21.3583 8.80717 21.3512 8.79825C21.3125 8.74922 21.2649 8.70305 21.2266 8.65482C21.2179 8.64381 21.2083 8.63763 21.1998 8.62661C21.1701 8.58791 21.1352 8.55302 21.105 8.51353C21.0293 8.41456 20.9477 8.31893 20.8793 8.21926C20.8633 8.19595 20.8461 8.17755 20.8304 8.15413C20.7196 7.9885 20.6083 7.82574 20.5195 7.65696C20.4961 7.61255 20.4703 7.57217 20.4484 7.5276C20.3863 7.40107 20.3284 7.27461 20.2752 7.14699C20.2683 7.13022 20.2632 7.11147 20.2567 7.09448C20.2276 7.01787 20.2013 6.94221 20.1751 6.86542C20.1488 6.78796 20.1338 6.70703 20.1091 6.62937C20.1039 6.61299 20.1023 6.59522 20.0971 6.57844C20.0963 6.57238 20.0956 6.56633 20.0949 6.56027C20.0892 6.54206 20.0886 6.5227 20.083 6.50491C20.0696 6.46225 20.0655 6.41614 20.0581 6.37231C20.0512 6.33093 20.0417 6.28862 20.0406 6.24643C20.039 6.23875 20.0374 6.23107 20.0358 6.22339C20.0351 6.19599 20.0282 6.1689 20.0275 6.14186C20.0263 6.09467 20.0188 6.04763 20.0179 6.00055C20.0168 5.94199 20.0146 5.88323 20.0149 5.82462C20.0153 5.76595 20.0201 5.7086 20.0235 5.64943C20.0327 5.48914 20.062 5.32807 20.1007 5.16208C20.1148 5.10187 20.1373 5.04295 20.1562 4.98264C20.1693 4.94109 20.1899 4.90105 20.2045 4.85997C20.2083 4.84925 20.2143 4.84288 20.2184 4.8321C20.2272 4.80892 20.2387 4.78041 20.2601 4.7652C20.2697 4.7584 20.2918 4.75475 20.303 4.75809C20.3109 4.76042 20.3159 4.76646 20.3229 4.76626ZM18.7586 5.91536C18.7941 5.94104 18.7913 5.97865 18.7922 6.01036C18.7931 6.04322 18.8025 6.07593 18.8034 6.10906C18.8073 6.13195 18.8111 6.15484 18.8149 6.17772C18.8154 6.19626 18.8201 6.21384 18.8231 6.23194C18.8263 6.25059 18.8276 6.26934 18.8333 6.28758C18.8368 6.30818 18.8402 6.32878 18.8437 6.34938C18.8494 6.36752 18.85 6.38692 18.8556 6.40474C18.8729 6.45987 18.8795 6.51836 18.8971 6.57341C18.9157 6.63177 18.9294 6.69211 18.9496 6.74995C18.9761 6.82572 19.0021 6.90197 19.0309 6.97729C19.0457 7.0158 19.0632 7.05181 19.0789 7.09019C19.091 7.11953 19.1024 7.1515 19.1161 7.18018C19.1729 7.2993 19.2316 7.41831 19.2941 7.53706C19.3436 7.63109 19.4026 7.72082 19.4569 7.81354C19.4736 7.84213 19.4925 7.8667 19.511 7.89454C19.5529 7.95739 19.5974 8.02274 19.6403 8.08661C19.6808 8.14699 19.7295 8.20326 19.7721 8.26237C19.779 8.27203 19.7871 8.27725 19.7938 8.28699C19.8154 8.31817 19.8437 8.3482 19.8675 8.37888C19.8794 8.39431 19.8945 8.40502 19.9054 8.42111C19.9292 8.45635 19.9441 8.52206 19.9327 8.56302C19.9131 8.63399 19.8446 8.68177 19.7924 8.70004C19.7767 8.70556 19.7521 8.71554 19.735 8.71043C19.7081 8.70237 19.6909 8.67839 19.6752 8.65859C19.6548 8.633 19.6311 8.61442 19.6114 8.58888C19.5751 8.54168 19.5322 8.4995 19.4959 8.45189C19.4197 8.3522 19.3416 8.25577 19.274 8.15433C19.1173 7.91948 18.9873 7.6824 18.8859 7.43883C18.8438 7.33772 18.8099 7.23346 18.776 7.13065C18.764 7.09405 18.7573 7.05489 18.7457 7.01835C18.7298 6.96827 18.7228 6.91662 18.7071 6.86685C18.7063 6.86022 18.7055 6.85359 18.7047 6.84697C18.7021 6.83585 18.6984 6.82513 18.6965 6.81392C18.6952 6.80443 18.6939 6.79494 18.6926 6.78545C18.6867 6.76668 18.6853 6.74729 18.6821 6.72809C18.679 6.70944 18.6742 6.69126 18.6736 6.67216C18.6713 6.65991 18.6689 6.64765 18.6666 6.6354C18.6652 6.58541 18.6532 6.53641 18.6522 6.48607C18.6519 6.47419 18.6481 6.4616 18.6478 6.44973C18.6467 6.40158 18.6419 6.35329 18.6422 6.30513C18.6424 6.25029 18.6419 6.19451 18.6453 6.13966C18.6467 6.11804 18.6505 6.09768 18.6514 6.07602C18.6525 6.05226 18.6567 6.0295 18.6598 6.00494C18.6617 5.99038 18.6617 5.97275 18.6661 5.95804C18.6705 5.94309 18.6858 5.91892 18.7 5.91273C18.7096 5.90851 18.7282 5.9043 18.7387 5.90719C18.7466 5.90936 18.7515 5.91555 18.7586 5.91536ZM17.5633 6.16449C17.6032 6.19374 17.5921 6.23065 17.5919 6.26649C17.5914 6.32416 17.5973 6.38172 17.5987 6.43913C17.5999 6.48489 17.6116 6.53035 17.6128 6.57616C17.6156 6.5907 17.6183 6.60524 17.621 6.61979C17.6217 6.64517 17.6272 6.67794 17.6348 6.70218C17.6355 6.70824 17.6363 6.7143 17.637 6.72035C17.6393 6.73441 17.6423 6.74823 17.6466 6.76198C17.6476 6.76975 17.6486 6.77752 17.6496 6.78529C17.6599 6.81802 17.6631 6.85303 17.6735 6.88543C17.6984 6.96294 17.7182 7.04223 17.7453 7.11963C17.8043 7.28742 17.885 7.45005 17.971 7.61329C17.999 7.66663 18.034 7.71628 18.0624 7.76927C18.0745 7.79187 18.0904 7.81022 18.1038 7.8321C18.1405 7.89191 18.183 7.95158 18.2229 8.01085C18.278 8.09289 18.3453 8.16768 18.4039 8.24902C18.4245 8.27752 18.4504 8.30227 18.4704 8.32975C18.4881 8.35419 18.5111 8.37252 18.5301 8.3966C18.5678 8.44431 18.6152 8.48974 18.6552 8.53731C18.6782 8.56478 18.7056 8.58695 18.7279 8.61348C18.7528 8.64311 18.7841 8.6668 18.8087 8.69536C18.8149 8.7008 18.8211 8.70625 18.8273 8.71169C18.8523 8.74131 18.8873 8.76755 18.9131 8.79716C18.9241 8.80979 18.9372 8.8157 18.9483 8.82837C18.9845 8.86954 19.0356 8.90291 19.0728 8.94448C19.0834 8.95635 19.0975 8.96438 19.107 8.97498C19.111 8.97784 19.115 8.98071 19.119 8.98357C19.1319 8.99787 19.1518 9.01096 19.1649 9.02538C19.1692 9.02848 19.1735 9.03159 19.1779 9.03469C19.1991 9.05828 19.2319 9.07696 19.2534 9.1007C19.259 9.10476 19.2647 9.10881 19.2704 9.11287C19.2977 9.14311 19.3411 9.16475 19.3689 9.19535C19.3814 9.20475 19.3938 9.21416 19.4063 9.22356C19.4124 9.23026 19.4255 9.23604 19.4326 9.2439C19.4515 9.2647 19.4834 9.28104 19.5039 9.30089C19.5161 9.31262 19.5351 9.32071 19.5453 9.33197C19.5544 9.3419 19.5707 9.34855 19.5787 9.35731C19.6047 9.37593 19.6308 9.39455 19.6569 9.41317C19.7185 9.45724 19.78 9.49855 19.8397 9.54078C19.868 9.56077 19.9031 9.57653 19.9205 9.6015C19.9303 9.61561 19.9342 9.63589 19.9394 9.65129C19.951 9.68596 19.9558 9.72711 19.9461 9.76486C19.9431 9.77636 19.9371 9.78413 19.9328 9.79617C19.9259 9.81546 19.9144 9.8454 19.8938 9.8635C19.8804 9.87527 19.8664 9.89113 19.8516 9.90136C19.8287 9.91711 19.8038 9.90871 19.7759 9.89714C19.767 9.89126 19.758 9.88539 19.7491 9.87952C19.7063 9.86115 19.6663 9.82184 19.6234 9.80331C19.6151 9.79974 19.6065 9.79078 19.5996 9.78783C19.5854 9.77815 19.5711 9.76845 19.5568 9.75876C19.5411 9.75197 19.527 9.73549 19.5093 9.72782C19.4945 9.72141 19.4793 9.70942 19.4647 9.69903C19.4594 9.69521 19.4541 9.69139 19.4487 9.68757C19.4344 9.68138 19.4175 9.66829 19.4042 9.65878C19.3848 9.64494 19.3654 9.63109 19.346 9.61725C19.3252 9.60821 19.3022 9.5874 19.2822 9.57313C19.2656 9.56131 19.2432 9.54857 19.2308 9.5349C19.2194 9.52678 19.2081 9.51866 19.1967 9.51055C19.173 9.4936 19.1496 9.47688 19.129 9.45914C19.1176 9.45102 19.1063 9.4429 19.0949 9.43479C19.0785 9.41664 19.0499 9.40291 19.0336 9.38496C19.0259 9.37947 19.0182 9.37398 19.0106 9.36849C18.9986 9.35532 18.9781 9.34381 18.9663 9.33083C18.9596 9.32606 18.9529 9.32128 18.9463 9.31651C18.9372 9.30649 18.9211 9.29601 18.912 9.28601C18.9067 9.28219 18.9013 9.27837 18.896 9.27455C18.8647 9.23982 18.8189 9.21358 18.7883 9.17948C18.7788 9.17165 18.7692 9.16382 18.7597 9.15599C18.7202 9.11157 18.6668 9.07588 18.6286 9.03215C18.6183 9.02026 18.6066 9.01489 18.5964 9.00309C18.5612 8.96215 18.5162 8.92567 18.4823 8.88527C18.4767 8.8786 18.4712 8.87706 18.4656 8.87038C18.4497 8.85119 18.429 8.83137 18.4135 8.81197C18.4063 8.80294 18.3985 8.79912 18.3913 8.79007C18.3377 8.72234 18.2746 8.6619 18.2226 8.59396C18.1305 8.47364 18.0345 8.35622 17.9617 8.23228C17.9452 8.20422 17.9256 8.18072 17.9096 8.15271C17.8812 8.10315 17.8503 8.05435 17.8237 8.00374C17.7821 7.92455 17.7431 7.84469 17.7052 7.76492C17.6785 7.7088 17.6574 7.64845 17.6355 7.59122C17.6175 7.54425 17.6004 7.49858 17.5839 7.45158C17.5676 7.40533 17.556 7.35722 17.5408 7.31051C17.5254 7.26301 17.5191 7.21261 17.5041 7.16488C17.4984 7.14675 17.499 7.12387 17.4933 7.1058C17.4793 7.06125 17.476 7.01283 17.4683 6.96704C17.4356 6.77159 17.4322 6.57145 17.4465 6.36818C17.4498 6.32127 17.4596 6.27684 17.4673 6.2289C17.4708 6.20706 17.478 6.17931 17.5022 6.16314C17.5099 6.15799 17.5344 6.15393 17.5434 6.15631C17.5508 6.15827 17.5565 6.16465 17.5633 6.16449Z" fill="#034147"/>
</svg>
