<svg width="48" height="48" viewBox="0 0 48 48" fill="none" xmlns="http://www.w3.org/2000/svg">
<path d="M7.87499 21.75C6.67499 22.05 5.37499 23.875 4.87499 24.75C4.37499 25.5 3.44999 27.525 3.74999 29.625C4.12499 32.25 7.5 34.875 11.25 34.875C15 34.875 16.625 31.125 17.625 28.875H19.875L22.5 27.75L30 19.875C31 19.125 33.15 17.7 33.75 18C34.5 18.375 34.875 22.125 33 22.875C31.125 23.625 30.375 27.375 30.75 30C31.125 32.625 35.625 34.875 38.25 34.875C40.35 34.875 42.625 32.625 43.5 31.5C43.75 29.875 44.1 26.25 43.5 24.75C42.75 22.8751 37.875 20.625 37.125 20.625C36.525 20.625 35.375 20.875 34.875 21L34.125 17.25L33 15.375L29.25 16.125L19.125 19.125L15.75 22.125C15.5 22 14.925 21.75 14.625 21.75C14.25 21.75 9.37499 21.375 7.87499 21.75Z" fill="#00D6D9"/>
<path fill-rule="evenodd" clip-rule="evenodd" d="M12.2992 27.7307C12.2694 27.5435 12.2085 27.3635 12.1178 27.1974L11.8509 27.4883C11.8782 27.5536 11.9008 27.6212 11.9176 27.6904L12.2992 27.7307ZM12.8162 26.4347C13.1142 26.8456 13.287 27.3313 13.3168 27.8382L16.6518 28.1905C16.6528 28.1468 16.6538 28.1027 16.6538 28.0585C16.6538 26.5427 16.0874 25.0974 15.0597 23.9852L12.8162 26.4347ZM21.9338 25.648H21.4854V24.7244H23.6459V25.648H22.7973L22.2678 26.8873L22.2218 26.8681C22.0091 26.7803 21.783 26.728 21.5536 26.7107L21.483 26.7054L21.9338 25.648ZM22.3298 27.2171L31.661 17.4544L31.2923 16.4209L19.3158 19.7891L21.2502 26.9641C21.2805 26.9627 21.3102 26.9622 21.3405 26.9622C21.688 26.9617 22.0269 27.0486 22.3298 27.2171ZM16.3206 22.6096L18.2781 20.4721L20.1342 27.3558C19.7589 27.6318 19.4867 28.0278 19.3677 28.4776L18.5094 28.3873V27.652C18.5094 27.5171 18.3995 27.4081 18.2651 27.4081H18.2579C18.2373 27.1681 18.2061 26.9296 18.1634 26.6939L18.1706 26.692C18.3006 26.6574 18.3779 26.5225 18.3434 26.3934L18.1408 25.6374C18.1062 25.5078 17.9718 25.43 17.8422 25.4651L17.8341 25.467C17.7525 25.2409 17.6608 25.0196 17.5581 24.8027L17.5658 24.7984C17.6819 24.7312 17.7222 24.5814 17.6555 24.4653L17.2643 23.787C17.1971 23.6713 17.0474 23.631 16.9312 23.6977L16.9221 23.703C16.7853 23.5072 16.6394 23.3166 16.4838 23.1328L16.4915 23.1251C16.5866 23.03 16.5866 22.875 16.4915 22.7804L16.3206 22.6096ZM17.8206 14.7323L18.9059 18.6803L32.2754 14.6593L31.7416 13.168C31.6178 12.746 31.7358 12.2747 32.1256 12.038L33.2709 11.2979C33.5051 11.1563 33.8138 11.2321 33.9558 11.4668C34.0979 11.7011 34.0221 12.0097 33.7874 12.1518L32.897 12.6913C32.8797 12.7024 32.873 12.7168 32.8816 12.7412L34.841 18.0419L34.5966 18.1288L35.092 19.5126C35.4146 19.5841 35.6771 19.8188 35.7846 20.1332C36.5512 22.371 37.3139 24.6102 38.0771 26.847C38.5 27.0731 38.7669 27.5137 38.7669 27.9961C38.7669 28.7152 38.1837 29.2979 37.4651 29.2979C36.7466 29.2979 36.1634 28.7152 36.1634 27.9961C36.1634 27.8104 36.2027 27.6284 36.2795 27.459L36.1235 27.0035C35.9109 27.2905 35.7971 27.6371 35.7971 27.9961C35.7971 28.9192 36.5416 29.6641 37.4651 29.6641C38.3882 29.6641 39.1331 28.9192 39.1331 27.9961C39.1331 27.4739 38.8912 26.9972 38.5024 26.6881L38.0632 25.394C39.2498 25.6662 40.1344 26.7318 40.1344 27.9956C40.1344 29.4678 38.9373 30.6654 37.4651 30.6654C35.993 30.6654 34.7954 29.4678 34.7954 27.9956C34.7954 27.1984 35.1496 26.45 35.7611 25.9417L34.6739 22.7564C34.1474 23.0363 33.665 23.3939 33.244 23.8148C30.9131 26.1457 30.9131 29.9723 33.244 32.3022C35.5744 34.6326 39.4005 34.6326 41.7304 32.3022C44.0608 29.9723 44.0613 26.1457 41.7304 23.8148C40.4728 22.5572 38.7323 21.9309 36.9803 22.0787L36.4403 20.4966C36.5949 20.4755 36.7499 20.4587 36.905 20.4467C36.9083 20.3152 37.0163 20.2086 37.1488 20.2086H37.9317C38.0651 20.2086 38.175 20.3185 38.175 20.4524V20.4558C38.415 20.4774 38.6536 20.5105 38.8893 20.5547L38.8912 20.547C38.9258 20.4169 39.0606 20.3392 39.1902 20.3742L39.9458 20.5768C40.0754 20.6113 40.1536 20.7457 40.1186 20.8758L40.1147 20.8912C40.3389 20.9728 40.5597 21.0664 40.7757 21.1691L40.7858 21.1518C40.8525 21.0357 41.0027 20.9948 41.1184 21.063L41.7966 21.4537C41.9128 21.5209 41.9531 21.6712 41.8859 21.7868L41.873 21.8099C42.0674 21.9462 42.2555 22.0921 42.4379 22.2476L42.4586 22.227C42.5531 22.132 42.7082 22.132 42.8032 22.227L43.3566 22.7804C43.4517 22.8755 43.4517 23.0305 43.3566 23.1251L43.3326 23.1496C43.4862 23.3329 43.6307 23.522 43.7646 23.7164L43.7958 23.6977C43.912 23.631 44.0618 23.6713 44.1294 23.787L44.5202 24.4653C44.5874 24.5814 44.547 24.7312 44.4304 24.7984L44.3939 24.819C44.4947 25.035 44.584 25.2544 44.6632 25.4771L44.7064 25.4651C44.8365 25.43 44.9709 25.5083 45.0054 25.6374L45.208 26.3934C45.2426 26.523 45.1658 26.6574 45.0357 26.692L44.9877 26.7044C45.029 26.9377 45.0597 27.1724 45.0798 27.4081H45.1302C45.2637 27.4081 45.3736 27.5176 45.3736 27.652V28.4344C45.3736 28.5683 45.2637 28.6777 45.1302 28.6777H45.0818C45.063 28.9139 45.0338 29.1486 44.993 29.3828L45.0352 29.3939C45.1653 29.4284 45.2426 29.5633 45.2075 29.6924L45.005 30.4484C44.9704 30.578 44.836 30.6558 44.7059 30.6212L44.6728 30.6121C44.5941 30.8363 44.5053 31.0571 44.4054 31.274L44.4299 31.2884C44.5466 31.3552 44.5864 31.5054 44.5197 31.6211L44.129 32.2993C44.0608 32.4155 43.9115 32.4558 43.7954 32.3886L43.779 32.3785C43.6442 32.5744 43.4997 32.7659 43.3451 32.9507L43.3557 32.9617C43.4507 33.0563 43.4507 33.2113 43.3557 33.3064L42.8022 33.8598C42.7072 33.9548 42.5522 33.9548 42.4576 33.8598L42.4533 33.855C42.269 34.0129 42.0789 34.1598 41.8835 34.2971L41.8845 34.2995C41.9517 34.4156 41.9114 34.5654 41.7952 34.6321L41.117 35.0238C41.0022 35.09 40.8539 35.0512 40.7858 34.9374C40.5669 35.0416 40.3446 35.1347 40.1186 35.2168C40.1493 35.3444 40.072 35.4755 39.9443 35.5096L39.1888 35.7121C39.0626 35.7457 38.932 35.6733 38.8926 35.5504C38.6546 35.5945 38.4146 35.6272 38.1731 35.6492C38.165 35.7764 38.0589 35.8782 37.9298 35.8782H37.1469C37.0206 35.8782 36.916 35.7812 36.904 35.6584C36.6606 35.6396 36.4182 35.6099 36.1773 35.5681C36.1326 35.6804 36.0083 35.7448 35.8883 35.7126L35.1323 35.51C35.0166 35.4793 34.9418 35.3684 34.9523 35.2532C34.719 35.1721 34.4896 35.079 34.2635 34.9748C34.1886 35.0593 34.0614 35.0828 33.9597 35.0243L33.2814 34.6326C33.1835 34.5755 33.1394 34.4588 33.1696 34.3532C32.9642 34.2126 32.764 34.0609 32.5701 33.8982C32.477 33.9524 32.3546 33.9395 32.2749 33.8598L31.7214 33.3064C31.6432 33.2281 31.6298 33.1081 31.6811 33.0155C31.515 32.8216 31.361 32.6209 31.2174 32.4145C31.1152 32.439 31.0043 32.3944 30.9491 32.2993L30.5579 31.6211C30.5022 31.5256 30.52 31.4065 30.5934 31.3302C30.485 31.1003 30.3894 30.8665 30.305 30.6294C30.1979 30.6284 30.101 30.556 30.0717 30.4484L29.8691 29.6924C29.8394 29.583 29.8902 29.4707 29.9853 29.4169C29.9411 29.1697 29.909 28.9211 29.8893 28.671C29.7827 28.6446 29.703 28.5486 29.703 28.4344V27.652C29.703 27.5368 29.7837 27.4398 29.8917 27.4144C29.9118 27.1652 29.945 26.9176 29.9896 26.6718C29.8922 26.62 29.8394 26.5048 29.8691 26.3934L30.0717 25.6374C30.1014 25.526 30.2051 25.4531 30.316 25.4569C30.4 25.2227 30.4955 24.9923 30.6035 24.7657C30.5214 24.6899 30.4998 24.5651 30.5579 24.4653L30.9491 23.787C31.0072 23.6867 31.1286 23.6425 31.2357 23.6776C31.3763 23.4755 31.529 23.2787 31.6917 23.0886C31.6283 22.9936 31.6384 22.8635 31.7214 22.78L32.2749 22.2265C32.3603 22.1406 32.4952 22.1329 32.5902 22.2016C32.7784 22.0436 32.9742 21.8944 33.1778 21.7561C33.1331 21.6452 33.1758 21.5152 33.2814 21.4537L33.9597 21.063C33.9986 21.0409 34.0408 21.0299 34.0826 21.0299L33.9846 20.7438C33.8786 20.4342 33.9414 20.0953 34.1445 19.8424L33.6515 18.4648L33.2277 18.616L23.1525 28.0614C23.3046 28.3523 23.3829 28.6748 23.3829 29.0036C23.3829 30.4662 21.9366 31.3777 20.5874 30.9025C20.5773 30.8982 20.5677 30.8944 20.5576 30.89L20.0819 32.007H20.5307V32.93H18.3702V32.007H19.2184L19.8885 30.4388C19.6264 30.1739 19.4416 29.8436 19.3547 29.4812L18.1754 29.3564L18.1686 29.3939L18.1706 29.3944C18.3006 29.4289 18.3779 29.5638 18.3434 29.6929L18.1408 30.4489C18.1067 30.578 17.9733 30.6558 17.8446 30.6222C17.7635 30.8507 17.6723 31.0734 17.5706 31.2913C17.6834 31.3595 17.7213 31.5073 17.6555 31.6216L17.2643 32.2998C17.1986 32.4136 17.0531 32.4544 16.9379 32.3929C16.8002 32.5921 16.6538 32.7841 16.4982 32.9694C16.5861 33.0644 16.5837 33.2142 16.4915 33.3068L15.9381 33.8603C15.8464 33.952 15.6976 33.9553 15.6026 33.8694C15.4178 34.0264 15.2262 34.1742 15.0275 34.3134C15.0842 34.4276 15.0424 34.5683 14.931 34.6331L14.2528 35.0248C14.1429 35.0881 14.0022 35.055 13.9307 34.9528C13.7114 35.0574 13.4872 35.151 13.2573 35.234C13.2779 35.3564 13.2021 35.4779 13.0797 35.5105L12.3237 35.7131C12.2032 35.7452 12.0784 35.6804 12.0338 35.5672C11.7952 35.6108 11.5523 35.6435 11.307 35.6646C11.2926 35.7846 11.1899 35.8787 11.0656 35.8787H10.2827C10.1598 35.8787 10.0581 35.787 10.0413 35.6684C9.79408 35.6492 9.55072 35.6176 9.3112 35.5758C9.26368 35.6843 9.14224 35.7452 9.02464 35.7136L8.26864 35.511C8.152 35.4798 8.07808 35.368 8.08864 35.2518C7.85536 35.1683 7.62784 35.0737 7.4056 34.9691C7.3312 35.0593 7.20016 35.0852 7.096 35.0252L6.41776 34.6336C6.31408 34.574 6.27088 34.4478 6.3112 34.3388C6.10816 34.1982 5.91184 34.0475 5.72368 33.8886C5.62864 33.9548 5.49568 33.9457 5.4112 33.8612L4.85776 33.3078C4.7728 33.2233 4.76416 33.0908 4.82992 32.9963C4.67008 32.8081 4.51984 32.6118 4.37872 32.4088C4.26976 32.4476 4.14496 32.4044 4.08544 32.3012L3.69424 31.623C3.63424 31.5203 3.65968 31.3907 3.74656 31.3158C3.64096 31.0931 3.54688 30.8646 3.46288 30.6304C3.34816 30.6395 3.23872 30.5651 3.208 30.4499L3.00544 29.6939C2.97472 29.5782 3.0328 29.4592 3.13792 29.4102C3.09472 29.1692 3.06352 28.9244 3.04336 28.6763C2.92768 28.6571 2.83984 28.5563 2.83984 28.4363V27.6539C2.83984 27.532 2.9296 27.4307 3.04576 27.4124C3.06688 27.1652 3.09952 26.9214 3.1432 26.6814C3.03472 26.6344 2.97424 26.5124 3.00544 26.3953L3.208 25.6393C3.23968 25.5208 3.35488 25.4459 3.47344 25.4603C3.55744 25.2284 3.652 25.0028 3.75664 24.7825C3.66112 24.7091 3.63184 24.5732 3.69376 24.4667L4.08496 23.7884C4.14784 23.6804 4.28224 23.6382 4.39456 23.6872C4.53472 23.4875 4.684 23.2945 4.8424 23.1097C4.7632 23.0142 4.76848 22.8712 4.85776 22.7819L5.4112 22.2284C5.50144 22.1382 5.64736 22.1339 5.74192 22.2164C5.92768 22.0595 6.12112 21.9126 6.32032 21.7744C6.26464 21.6606 6.3064 21.52 6.41776 21.4556L7.096 21.0649C7.20784 20.9996 7.35184 21.0352 7.42192 21.1427C7.64032 21.0404 7.86448 20.9483 8.09344 20.8667C8.0656 20.7404 8.1424 20.6123 8.26864 20.5787L9.02464 20.3761C9.15232 20.3416 9.2848 20.4164 9.32128 20.5427C9.55696 20.5014 9.79696 20.4707 10.0394 20.4515C10.0408 20.319 10.1502 20.2105 10.2832 20.2105H11.0661C11.2 20.2105 11.3099 20.3204 11.3099 20.4544C11.5504 20.4755 11.789 20.5076 12.0251 20.5504L12.0256 20.5489C12.0606 20.4188 12.195 20.3411 12.3246 20.3761L13.0806 20.5787C13.2107 20.6132 13.2885 20.7476 13.2534 20.8777L13.252 20.8811C13.4786 20.9627 13.7003 21.0553 13.9173 21.158L13.9202 21.1518C13.9869 21.0357 14.1371 20.9948 14.2528 21.063L14.931 21.4537C15.0462 21.5209 15.087 21.6712 15.0198 21.7868L13.9283 23.03C12.9568 22.3955 11.8235 22.0576 10.6518 22.0576C7.33744 22.0576 4.65088 24.7441 4.65088 28.0585C4.65088 31.3729 7.33744 34.06 10.6518 34.06C13.5314 34.06 16.0115 32.0099 16.5472 29.1846L13.1877 28.8299C12.8286 29.9209 11.8043 30.6659 10.6518 30.6659C9.17968 30.6659 7.98208 29.4683 7.98208 27.9961C7.98208 26.5244 9.1792 25.3264 10.6518 25.3264C11.0061 25.3264 11.3522 25.3964 11.6752 25.5308L10.924 26.3507C10.8347 26.3358 10.7435 26.3286 10.6518 26.3286C9.7288 26.3286 8.98384 27.074 8.98384 27.9966C8.98384 28.9192 9.72832 29.6646 10.6518 29.6646C11.2955 29.6646 11.8787 29.2979 12.1547 28.7209L11.7602 28.6787C11.5235 29.0622 11.1054 29.2979 10.6518 29.2979C9.9328 29.2979 9.35008 28.7152 9.35008 27.9961C9.35008 27.2771 9.9328 26.6948 10.6518 26.6948C10.8189 26.6948 10.9835 26.726 11.139 26.7889C13.4445 24.2732 15.7485 21.7576 18.0558 19.2428L16.8722 14.9118C16.2194 15.0827 15.2483 15.1326 14.873 14.4577C14.7448 14.2268 14.6315 13.8995 14.7966 13.6585C14.9262 13.4689 15.1643 13.431 15.3779 13.4483C15.629 13.4684 15.879 13.5016 16.1286 13.5289C16.4099 13.5592 16.6893 13.5736 16.972 13.5664C17.4155 13.5553 19.4176 13.4848 19.6845 13.6412C19.8923 13.7627 19.9734 14.0512 19.9744 14.2806C19.9691 14.3766 19.911 14.4342 19.8117 14.4539L17.8206 14.7323Z" fill="#034147"/>
</svg>
