<svg width="42" height="24" viewBox="0 0 42 24" fill="none" xmlns="http://www.w3.org/2000/svg">
<rect width="42" height="24" rx="12" fill="#FFF8DF"/>
<path d="M8.804 16V7.42H12.44C13.344 7.42 14.032 7.668 14.504 8.164C14.872 8.548 15.056 9.036 15.056 9.628C15.056 10.54 14.596 11.14 13.676 11.428V11.464C14.188 11.584 14.604 11.824 14.924 12.184C15.244 12.536 15.404 12.988 15.404 13.54C15.404 14.196 15.196 14.744 14.78 15.184C14.276 15.728 13.56 16 12.632 16H8.804ZM9.884 15.028H12.584C13.176 15.028 13.624 14.884 13.928 14.596C14.184 14.324 14.312 13.992 14.312 13.6C14.312 13.08 14.148 12.684 13.82 12.412C13.492 12.14 13.056 12.004 12.512 12.004H9.884V15.028ZM9.884 11.092H12.308C12.828 11.092 13.236 10.968 13.532 10.72C13.828 10.472 13.976 10.128 13.976 9.688C13.976 9.272 13.84 8.948 13.568 8.716C13.304 8.476 12.932 8.356 12.452 8.356H9.884V11.092ZM21.3027 16H20.3307V15.148H20.3067C19.8187 15.812 19.1947 16.144 18.4347 16.144C17.7947 16.144 17.2867 15.964 16.9107 15.604C16.5347 15.236 16.3467 14.732 16.3467 14.092V9.796H17.3187V14.068C17.3187 14.468 17.4387 14.78 17.6787 15.004C17.9267 15.228 18.2707 15.34 18.7107 15.34C19.1987 15.34 19.5907 15.176 19.8867 14.848C20.1827 14.52 20.3307 14.108 20.3307 13.612V9.796H21.3027V16ZM24.969 16.18C24.121 16.18 23.461 15.992 22.989 15.616C22.525 15.232 22.269 14.688 22.221 13.984H23.217C23.329 14.904 23.921 15.364 24.993 15.364C25.481 15.364 25.841 15.272 26.073 15.088C26.313 14.896 26.433 14.648 26.433 14.344C26.433 14.016 26.317 13.78 26.085 13.636C25.853 13.492 25.429 13.356 24.813 13.228C24.557 13.172 24.353 13.128 24.201 13.096C24.057 13.056 23.881 13.004 23.673 12.94C23.465 12.868 23.301 12.792 23.181 12.712C23.069 12.624 22.953 12.52 22.833 12.4C22.713 12.28 22.625 12.132 22.569 11.956C22.521 11.78 22.497 11.584 22.497 11.368C22.497 10.84 22.689 10.424 23.073 10.12C23.465 9.816 24.017 9.664 24.729 9.664C26.201 9.664 27.013 10.312 27.165 11.608H26.169C26.121 11.2 25.981 10.904 25.749 10.72C25.517 10.528 25.169 10.432 24.705 10.432C24.281 10.432 23.965 10.516 23.757 10.684C23.557 10.844 23.457 11.056 23.457 11.32C23.457 11.624 23.577 11.84 23.817 11.968C24.057 12.088 24.493 12.212 25.125 12.34C25.509 12.42 25.809 12.496 26.025 12.568C26.249 12.632 26.481 12.736 26.721 12.88C26.961 13.016 27.137 13.2 27.249 13.432C27.361 13.664 27.417 13.952 27.417 14.296C27.417 14.904 27.193 15.372 26.745 15.7C26.297 16.02 25.705 16.18 24.969 16.18ZM29.0809 18.052C28.7129 18.052 28.4209 18.008 28.2049 17.92V17.056H28.2529C28.4129 17.144 28.6329 17.188 28.9129 17.188C29.1289 17.188 29.3089 17.132 29.4529 17.02C29.5969 16.916 29.7249 16.72 29.8369 16.432L30.0769 15.82L27.6529 9.796H28.7089L30.1729 13.66L30.5929 14.872H30.6169C30.7609 14.408 30.8969 14.004 31.0249 13.66L32.4409 9.796H33.4729L30.8209 16.504C30.5809 17.112 30.3329 17.52 30.0769 17.728C29.8209 17.944 29.4889 18.052 29.0809 18.052Z" fill="#B06700"/>
</svg>
