<svg width="20" height="20" viewBox="0 0 20 20" fill="none" xmlns="http://www.w3.org/2000/svg">
<path d="M14.9773 13.2574C14.7919 13.0714 14.5716 12.9237 14.329 12.823C14.0865 12.7223 13.8264 12.6704 13.5638 12.6704C13.3011 12.6704 13.041 12.7223 12.7985 12.823C12.5559 12.9237 12.3356 13.0714 12.1502 13.2574L11.1857 14.2219C10.0997 13.5327 9.09351 12.7251 8.18564 11.8139C7.27641 10.9043 6.46897 9.89837 5.77763 8.81388L6.74216 7.84935C6.92821 7.66395 7.07582 7.44365 7.17654 7.20108C7.27726 6.95851 7.32911 6.69845 7.32911 6.4358C7.32911 6.17315 7.27726 5.91309 7.17654 5.67052C7.07582 5.42795 6.92821 5.20765 6.74216 5.02226L4.85966 3.1464C4.67688 2.95974 4.45844 2.81174 4.21732 2.71117C3.97621 2.61061 3.71733 2.55955 3.45609 2.56103C3.193 2.56038 2.93237 2.61177 2.6892 2.71223C2.44604 2.81269 2.22514 2.96025 2.03922 3.1464L1.13455 4.04442C0.703355 4.50804 0.381533 5.0624 0.192746 5.66675C0.0039584 6.2711 -0.0469947 6.91007 0.0436317 7.5367C0.256495 10.0312 1.89288 13.0312 4.41398 15.559C6.93507 18.0867 9.96837 19.7165 12.4629 19.9559C12.649 19.9659 12.8355 19.9659 13.0216 19.9559C13.5586 19.9785 14.0947 19.8936 14.5984 19.7063C15.1021 19.5189 15.5634 19.2329 15.9551 18.865L16.8532 17.9603C17.0393 17.7744 17.1869 17.5535 17.2873 17.3104C17.3878 17.0672 17.4392 16.8066 17.4385 16.5435C17.44 16.2822 17.3889 16.0234 17.2884 15.7822C17.1878 15.5411 17.0398 15.3227 16.8532 15.1399L14.9773 13.2574ZM15.9152 17.0224L15.0106 17.9204C14.6761 18.1992 14.2856 18.4029 13.8655 18.5176C13.4455 18.6324 13.0057 18.6556 12.5759 18.5856C10.4141 18.3994 7.66014 16.8694 5.38516 14.5944C3.11019 12.3195 1.58024 9.58551 1.37403 7.42362C1.30229 6.99384 1.32461 6.55362 1.43945 6.13331C1.55429 5.713 1.75892 5.32259 2.03922 4.989L2.97715 4.08433C3.03931 4.02268 3.11302 3.9739 3.19407 3.9408C3.27511 3.9077 3.3619 3.89092 3.44944 3.89142C3.53698 3.89092 3.62377 3.9077 3.70481 3.9408C3.78586 3.9739 3.85957 4.02268 3.92173 4.08433L5.80424 5.98679C5.92813 6.11143 5.99767 6.28002 5.99767 6.45576C5.99767 6.63149 5.92813 6.80009 5.80424 6.92472L4.47384 8.25512C4.36974 8.35871 4.30284 8.49384 4.28359 8.63944C4.26434 8.78504 4.29381 8.93291 4.36741 9.06C5.16391 10.416 6.132 11.6635 7.24771 12.7718C8.35598 13.8875 9.60354 14.8556 10.9595 15.6521C11.0866 15.7257 11.2345 15.7552 11.3801 15.7359C11.5257 15.7167 11.6608 15.6498 11.7644 15.5457L13.0948 14.2153C13.2194 14.0914 13.388 14.0218 13.5638 14.0218C13.7395 14.0218 13.9081 14.0914 14.0327 14.2153L15.9152 16.0978C15.9769 16.1599 16.0257 16.2337 16.0588 16.3147C16.0919 16.3958 16.1086 16.4825 16.1081 16.5701C16.104 16.74 16.035 16.9018 15.9152 17.0224ZM17.0727 2.92023C16.1482 1.99227 15.0492 1.25647 13.839 0.755273C12.6289 0.254076 11.3314 -0.00260866 10.0216 1.99868e-05C9.84516 1.99868e-05 9.67597 0.070103 9.55122 0.194852C9.42647 0.3196 9.35639 0.488796 9.35639 0.665217C9.35639 0.841638 9.42647 1.01083 9.55122 1.13558C9.67597 1.26033 9.84516 1.33041 10.0216 1.33041C11.1634 1.33037 12.2939 1.55645 13.3479 1.9956C14.4018 2.43475 15.3584 3.07827 16.1623 3.88904C16.9663 4.69981 17.6018 5.66176 18.032 6.71939C18.4623 7.77702 18.6788 8.90939 18.6691 10.0511C18.6691 10.2276 18.7392 10.3968 18.864 10.5215C18.9887 10.6463 19.1579 10.7163 19.3343 10.7163C19.5108 10.7163 19.68 10.6463 19.8047 10.5215C19.9295 10.3968 19.9995 10.2276 19.9995 10.0511C20.0123 8.72736 19.7599 7.41442 19.2572 6.18972C18.7545 4.96502 18.0118 3.85335 17.0727 2.92023Z" fill="#545E5E"/>
<path d="M13.2876 6.7252C13.6651 7.10043 13.9637 7.54738 14.1659 8.03974C14.3681 8.53211 14.4698 9.05995 14.465 9.5922C14.465 9.76862 14.5351 9.93781 14.6598 10.0626C14.7846 10.1873 14.9537 10.2574 15.1302 10.2574C15.3066 10.2574 15.4758 10.1873 15.6005 10.0626C15.7253 9.93781 15.7954 9.76862 15.7954 9.5922C15.8042 8.88778 15.673 8.18863 15.4095 7.53528C15.146 6.88194 14.7555 6.28742 14.2604 5.7862C13.7654 5.28498 13.1758 4.88703 12.5258 4.61545C11.8757 4.34387 11.1783 4.20405 10.4738 4.2041C10.2974 4.2041 10.1282 4.27418 10.0034 4.39893C9.87868 4.52368 9.80859 4.69288 9.80859 4.8693C9.80859 5.04572 9.87868 5.21492 10.0034 5.33966C10.1282 5.46441 10.2974 5.5345 10.4738 5.5345C10.998 5.53844 11.5163 5.64563 11.9991 5.84994C12.4819 6.05424 12.9197 6.35166 13.2876 6.7252Z" fill="#545E5E"/>
</svg>
