<svg width="21" height="20" viewBox="0 0 21 20" fill="none" xmlns="http://www.w3.org/2000/svg">
<g clip-path="url(#clip0_4087_32325)">
<rect width="20" height="20" transform="translate(0.25)" fill="white" fill-opacity="0.01"/>
<path d="M14.9062 13.0813C14.732 12.9065 14.525 12.7678 14.2971 12.6731C14.0692 12.5785 13.8249 12.5298 13.5781 12.5298C13.3313 12.5298 13.087 12.5785 12.8591 12.6731C12.6312 12.7678 12.4242 12.9065 12.25 13.0813L11.3437 13.9875C10.3234 13.3399 9.37799 12.5811 8.52498 11.725C7.67069 10.8704 6.91204 9.92523 6.26248 8.90627L7.16873 8.00002C7.34353 7.82583 7.48222 7.61884 7.57686 7.39093C7.67149 7.16302 7.72021 6.91867 7.72021 6.67189C7.72021 6.42512 7.67149 6.18077 7.57686 5.95286C7.48222 5.72495 7.34353 5.51796 7.16873 5.34377L5.39998 3.58127C5.22825 3.40589 5.02301 3.26683 4.79646 3.17234C4.56991 3.07786 4.32669 3.02988 4.08123 3.03127C3.83403 3.03066 3.58915 3.07894 3.36068 3.17334C3.13222 3.26773 2.92467 3.40636 2.74998 3.58127L1.89998 4.42502C1.49484 4.86062 1.19246 5.38148 1.01508 5.94931C0.837704 6.51714 0.78983 7.11751 0.874979 7.70627C1.07498 10.05 2.61248 12.8688 4.98123 15.2438C7.34998 17.6188 10.2 19.15 12.5437 19.375C12.7186 19.3844 12.8939 19.3844 13.0687 19.375C13.5732 19.3962 14.0769 19.3164 14.5502 19.1404C15.0235 18.9644 15.4569 18.6957 15.825 18.35L16.6687 17.5C16.8436 17.3253 16.9823 17.1178 17.0767 16.8893C17.1711 16.6608 17.2193 16.416 17.2187 16.1688C17.2201 15.9233 17.1721 15.6801 17.0777 15.4535C16.9832 15.227 16.8441 15.0218 16.6687 14.85L14.9062 13.0813ZM15.7875 16.6188L14.9375 17.4625C14.6232 17.7244 14.2563 17.9158 13.8617 18.0236C13.467 18.1315 13.0538 18.1532 12.65 18.0875C10.6187 17.9125 8.03123 16.475 5.89373 14.3375C3.75623 12.2 2.31873 9.63127 2.12498 7.60002C2.05758 7.19622 2.07855 6.7826 2.18645 6.38768C2.29435 5.99277 2.48661 5.62595 2.74998 5.31252L3.63123 4.46252C3.68963 4.40459 3.75889 4.35876 3.83504 4.32766C3.91119 4.29656 3.99273 4.28079 4.07498 4.28127C4.15723 4.28079 4.23877 4.29656 4.31492 4.32766C4.39107 4.35876 4.46033 4.40459 4.51873 4.46252L6.28748 6.25002C6.40389 6.36712 6.46922 6.52553 6.46922 6.69064C6.46922 6.85576 6.40389 7.01417 6.28748 7.13127L5.03748 8.38127C4.93967 8.4786 4.87681 8.60557 4.85872 8.74237C4.84063 8.87917 4.86833 9.01811 4.93748 9.13752C5.68585 10.4116 6.59544 11.5837 7.64373 12.625C8.68503 13.6733 9.8572 14.5829 11.1312 15.3313C11.2506 15.4004 11.3896 15.4281 11.5264 15.41C11.6632 15.3919 11.7901 15.3291 11.8875 15.2313L13.1375 13.9813C13.2546 13.8649 13.413 13.7995 13.5781 13.7995C13.7432 13.7995 13.9016 13.8649 14.0187 13.9813L15.7875 15.75C15.8454 15.8084 15.8912 15.8777 15.9223 15.9538C15.9534 16.03 15.9692 16.1115 15.9687 16.1938C15.9648 16.3534 15.9 16.5055 15.7875 16.6188ZM16.875 3.36877C16.0064 2.49688 14.9738 1.80554 13.8368 1.33463C12.6997 0.863722 11.4807 0.622549 10.25 0.625019C10.0842 0.625019 9.92525 0.690867 9.80804 0.808077C9.69083 0.925287 9.62498 1.08426 9.62498 1.25002C9.62498 1.41578 9.69083 1.57475 9.80804 1.69196C9.92525 1.80917 10.0842 1.87502 10.25 1.87502C11.3228 1.87498 12.385 2.0874 13.3752 2.50001C14.3655 2.91262 15.2643 3.51726 16.0197 4.27903C16.775 5.0408 17.3721 5.94463 17.7763 6.93835C18.1806 7.93207 18.3841 8.99601 18.375 10.0688C18.375 10.2345 18.4408 10.3935 18.558 10.5107C18.6752 10.6279 18.8342 10.6938 19 10.6938C19.1657 10.6938 19.3247 10.6279 19.4419 10.5107C19.5591 10.3935 19.625 10.2345 19.625 10.0688C19.6369 8.82498 19.3998 7.59138 18.9275 6.44068C18.4552 5.28999 17.7573 4.2455 16.875 3.36877Z" fill="white"/>
<path d="M13.3186 6.94394C13.6733 7.2965 13.9539 7.71644 14.1438 8.17905C14.3338 8.64167 14.4293 9.13761 14.4248 9.6377C14.4248 9.80346 14.4907 9.96243 14.6079 10.0796C14.7251 10.1968 14.884 10.2627 15.0498 10.2627C15.2156 10.2627 15.3745 10.1968 15.4917 10.0796C15.609 9.96243 15.6748 9.80346 15.6748 9.6377C15.6831 8.97585 15.5599 8.31894 15.3123 7.70508C15.0647 7.09122 14.6977 6.53262 14.2326 6.06169C13.7675 5.59076 13.2135 5.21686 12.6028 4.96169C11.992 4.70651 11.3367 4.57514 10.6748 4.5752C10.509 4.5752 10.3501 4.64104 10.2329 4.75825C10.1157 4.87546 10.0498 5.03443 10.0498 5.2002C10.0498 5.36596 10.1157 5.52493 10.2329 5.64214C10.3501 5.75935 10.509 5.82519 10.6748 5.8252C11.1674 5.82891 11.6543 5.92962 12.108 6.12157C12.5616 6.31353 12.973 6.59298 13.3186 6.94394Z" fill="white"/>
</g>
<defs>
<clipPath id="clip0_4087_32325">
<rect width="20" height="20" fill="white" transform="translate(0.25)"/>
</clipPath>
</defs>
</svg>
