<svg width="49" height="48" viewBox="0 0 49 48" fill="none" xmlns="http://www.w3.org/2000/svg">
<path d="M7.32437 13.9199L4.03332 21.5996L3.17675 33.1192H7.49675L8.95399 35.0391L11.3712 36.959L14.7226 35.999L16.1368 33.1192H31.9768L32.9454 34.0791L34.4069 36.479L36.8112 36.959L38.7183 35.5191L40.6211 33.5991L44.9368 33.1192L44.8678 25.4395L43.8992 24.4795L35.7133 21.5996L32.7773 15.3599L29.3828 11.52L20.2585 11.04L11.1385 11.04C9.60252 11.04 7.95575 12.96 7.32437 13.9199Z" fill="#00D6D9"/>
<path d="M45.1396 23.5677L36.8586 20.7838L32.7114 13.2961C31.5893 11.2802 29.4661 10.0322 27.2101 10.0322L12.3301 10.0322C10.0261 10.0322 7.97329 11.2802 6.88739 13.2961L2.68563 21.1198L2.68607 21.1678C2.6385 21.2158 2.63893 21.2638 2.63936 21.3118L2.74494 33.0713C2.74968 33.5993 3.18556 34.0313 3.71356 34.0313H7.64956C8.10138 36.2392 10.084 37.8711 12.388 37.8711C14.692 37.8711 16.6454 36.2392 17.0576 34.0313H31.6496C32.1014 36.2392 34.084 37.8711 36.388 37.8711C38.692 37.8711 40.6454 36.2392 41.0576 34.0313H44.9456C45.4736 34.0313 45.9017 33.5993 45.8969 33.0713L45.8198 24.4796C45.8159 24.0477 45.5729 23.7117 45.1396 23.5677ZM18.3478 12.0001L27.2278 12.0001C28.8118 12.0001 30.2595 12.8641 31.04 14.2561L34.5533 20.6398H18.4253L18.3478 12.0001ZM8.57601 14.2561C9.33151 12.8641 10.7638 12.0001 12.3478 12.0001H16.4278L16.5053 20.6398H5.17732L8.57601 14.2561ZM7.58475 32.1593H4.60875L4.59151 30.2394H8.43151C8.00469 30.8154 7.72229 31.4394 7.58475 32.1593ZM12.3232 35.9992C10.7392 35.9992 9.43159 34.7032 9.41737 33.1193C9.40315 31.5354 10.6875 30.2394 12.2715 30.2394C13.8555 30.2394 15.1631 31.5354 15.1774 33.1193C15.1916 34.7032 13.9072 35.9992 12.3232 35.9992ZM36.3232 35.9992C34.7392 35.9992 33.4316 34.7032 33.4174 33.1193C33.4031 31.5354 34.6875 30.2394 36.2715 30.2394C37.8555 30.2394 39.1631 31.5354 39.1774 33.1193C39.1916 34.7032 37.9072 35.9992 36.3232 35.9992ZM43.9687 32.1593H40.9928C40.5409 29.9514 38.5583 28.3195 36.2543 28.3195C33.9503 28.3195 31.9969 29.9514 31.5848 32.1593H16.9928C16.5409 29.9514 14.5583 28.3195 12.2543 28.3195H4.57428L4.52256 22.5597H36.0586L43.9058 25.1516L43.9687 32.1593Z" fill="#034147"/>
</svg>
