<svg width="40" height="40" viewBox="0 0 40 40" fill="none" xmlns="http://www.w3.org/2000/svg">
<path d="M9.68755 6.37469C9.06255 5.12469 7.50005 9.18719 6.87505 10.4372C6.37506 11.4372 4.16673 15.6455 3.12505 17.6247C2.91672 18.0414 2.56255 18.9371 2.81255 19.1871C3.12505 19.4996 11.25 24.8121 11.5625 24.8121C11.875 24.8121 12.1875 24.4996 12.5 24.4996C12.8125 24.4996 13.125 24.8121 13.125 25.4371C13.125 25.9371 16.0417 27.3121 17.5 27.9371C20.8334 29.7079 27.9375 33.4371 29.6875 34.1871C31.875 35.1246 36.25 34.8121 37.1875 32.6246C38.125 30.4371 36.875 29.4996 33.75 26.9996C30.625 24.4996 27.5 19.1871 26.5625 17.9371C25.625 16.6871 23.75 11.9996 23.4375 11.0621C23.125 10.1246 23.75 9.81207 24.0625 9.18707C24.375 8.56207 22.8125 7.31207 21.5625 6.99957C20.3125 6.68707 18.125 9.81207 17.5 10.1246C16.875 10.4371 14.6875 11.0621 12.5 10.4372C10.3125 9.8123 10.3125 7.62469 9.68755 6.37469Z" fill="#00D6D9"/>
<path fill-rule="evenodd" clip-rule="evenodd" d="M9.03984 5.95975C9.22746 5.87815 9.43639 5.85925 9.63561 5.90585C9.83483 5.95246 10.0137 6.06208 10.1457 6.21844C10.2768 6.37387 10.3547 6.56724 10.3678 6.77014C10.41 7.36756 10.6289 7.93897 10.9965 8.41178C11.3646 8.8851 11.8652 9.23819 12.4346 9.4261C12.4346 9.4261 12.4346 9.4261 12.4346 9.4261L14.4658 10.0964C14.9838 10.2673 15.5385 10.2947 16.0708 10.1757C16.6032 10.0567 17.0934 9.79579 17.4893 9.42061L19.7931 7.23792C20.096 6.95083 20.4605 6.73686 20.8588 6.6124C21.257 6.48798 21.6784 6.45631 22.0907 6.51984C22.4527 6.57532 22.7998 6.70294 23.1115 6.89512C23.4233 7.08736 23.6933 7.34028 23.9054 7.63887C24.1176 7.93746 24.2676 8.27563 24.3465 8.63331C24.4255 8.99099 24.4318 9.36089 24.365 9.72104L24.2133 10.5354C26.3755 19.114 31.4338 24.4204 37.2977 28.9565C37.3469 28.9945 37.3901 29.0396 37.4259 29.0904C37.784 29.5976 38.0128 30.1846 38.0924 30.8003C38.172 31.416 38.1001 32.0419 37.8828 32.6235L37.8827 32.6238C37.6285 33.3032 37.1857 33.8959 36.6064 34.3324C36.0271 34.7689 35.3352 35.031 34.6121 35.088L34.6116 35.088C32.4186 35.2592 30.2193 34.8463 28.2377 33.8912L13.7528 26.9105C13.557 26.8159 13.3833 26.681 13.2431 26.5146C13.103 26.3483 12.9996 26.1543 12.9396 25.9452C12.9396 25.9452 12.9395 25.9451 12.9395 25.945L12.8232 25.5397C12.8124 25.5021 12.7942 25.467 12.7696 25.4365C12.7451 25.406 12.7147 25.3806 12.6803 25.362C12.6458 25.3433 12.608 25.3318 12.5691 25.3279C12.5301 25.3241 12.4907 25.328 12.4533 25.3396C12.2402 25.4054 12.0154 25.4243 11.7943 25.3948C11.5731 25.3654 11.361 25.2883 11.1725 25.1689L11.172 25.1685M9.03984 5.95975C8.85325 6.0409 8.69764 6.17976 8.59586 6.35587L9.03984 5.95975ZM8.59586 6.35587L2.35862 17.0205L2.35855 17.0206C2.06412 17.5243 1.97668 18.1226 2.11467 18.6894C2.25265 19.2563 2.60528 19.7475 3.09826 20.0595L11.172 25.1685M9.2634 7.69047L3.43769 17.6514C3.43767 17.6515 3.43765 17.6515 3.43763 17.6516C3.3067 17.8756 3.26783 18.1417 3.3292 18.3938C3.39058 18.6459 3.54744 18.8644 3.76673 19.0032L11.8414 24.1129C11.8772 24.1356 11.9174 24.1502 11.9593 24.1558C12.0013 24.1614 12.0439 24.1578 12.0843 24.1453L12.0851 24.145C12.2814 24.0845 12.4877 24.0638 12.6921 24.084C12.8964 24.1042 13.0947 24.1649 13.2753 24.2627C13.4559 24.3604 13.6152 24.4932 13.7438 24.6533C13.8725 24.8133 13.968 24.9974 14.0246 25.1948L14.141 25.6003L14.1411 25.6005C14.1526 25.6404 14.1723 25.6775 14.1991 25.7093C14.2258 25.741 14.2589 25.7667 14.2962 25.7848C14.2963 25.7849 14.2964 25.7849 14.2965 25.785L28.7804 32.7652C30.563 33.6243 32.5415 33.9958 34.5143 33.8418C35.0002 33.8035 35.465 33.6273 35.8542 33.3341C36.2435 33.0408 36.541 32.6425 36.7119 32.1861C36.8579 31.7951 36.9063 31.3745 36.8527 30.9606C36.803 30.5761 36.6667 30.2082 36.4545 29.8845C30.4834 25.2528 25.1967 19.707 22.9672 10.705C22.9458 10.6184 22.9431 10.5281 22.9595 10.4403L23.1359 9.4932C23.1722 9.29769 23.1688 9.09689 23.1259 8.90272C23.0831 8.70856 23.0016 8.52498 22.8865 8.36288C22.7713 8.20079 22.6247 8.06349 22.4555 7.95913C22.2862 7.85478 22.0977 7.78549 21.9012 7.75538L21.9005 7.75529C21.6767 7.72077 21.4478 7.73795 21.2316 7.80551C21.0154 7.87307 20.8175 7.98923 20.6531 8.14508L20.653 8.1452L18.3491 10.328C17.7892 10.8585 17.0962 11.2274 16.3435 11.3956C15.5908 11.5638 14.8066 11.5251 14.0742 11.2835L12.0429 10.6131C11.2379 10.3475 10.5302 9.84829 10.0098 9.17912C9.66404 8.73451 9.4114 8.22822 9.2634 7.69047Z" fill="#034147"/>
<path fill-rule="evenodd" clip-rule="evenodd" d="M3.35922 15.3085C3.54429 15.0172 3.93053 14.931 4.2219 15.1161L14.3828 21.57C14.4299 21.5998 14.4727 21.6359 14.5102 21.6771L16.4401 23.7996L29.8269 30.1857C31.5858 31.0243 33.5896 31.1946 35.4648 30.665C35.465 30.6649 35.4652 30.6649 35.4653 30.6648L37.2824 30.1487C37.6145 30.0544 37.9601 30.2471 38.0544 30.5791C38.1487 30.9111 37.956 31.2568 37.624 31.3511L35.8052 31.8678C33.6379 32.48 31.3219 32.2832 29.2889 31.3141L29.2888 31.314L15.7911 24.8749C15.718 24.84 15.6523 24.7912 15.5978 24.7313L13.6418 22.5801L3.5517 16.1712C3.26033 15.9861 3.17415 15.5999 3.35922 15.3085Z" fill="#034147"/>
<path fill-rule="evenodd" clip-rule="evenodd" d="M6.875 34.5C6.875 34.1548 7.15482 33.875 7.5 33.875H34.5625C34.9077 33.875 35.1875 34.1548 35.1875 34.5C35.1875 34.8452 34.9077 35.125 34.5625 35.125H7.5C7.15482 35.125 6.875 34.8452 6.875 34.5Z" fill="#034147"/>
<path fill-rule="evenodd" clip-rule="evenodd" d="M1.875 34.5C1.875 34.1548 2.15482 33.875 2.5 33.875H5C5.34518 33.875 5.625 34.1548 5.625 34.5C5.625 34.8452 5.34518 35.125 5 35.125H2.5C2.15482 35.125 1.875 34.8452 1.875 34.5Z" fill="#034147"/>
<path fill-rule="evenodd" clip-rule="evenodd" d="M24.7086 12.4637C24.9481 12.7122 24.9409 13.1079 24.6924 13.3474L20.3556 17.5279C20.1071 17.7675 19.7115 17.7602 19.4719 17.5117C19.2323 17.2632 19.2396 16.8675 19.4881 16.628L23.8248 12.4475C24.0733 12.2079 24.469 12.2152 24.7086 12.4637Z" fill="#034147"/>
<path fill-rule="evenodd" clip-rule="evenodd" d="M26.2281 16.1872C26.4661 16.4372 26.4563 16.8329 26.2063 17.0709L22.9719 20.1498C22.7219 20.3878 22.3263 20.378 22.0883 20.128C21.8503 19.878 21.8601 19.4824 22.1101 19.2444L25.3445 16.1655C25.5945 15.9275 25.9901 15.9372 26.2281 16.1872Z" fill="#034147"/>
<path fill-rule="evenodd" clip-rule="evenodd" d="M28.0417 19.377C28.2779 19.6287 28.2653 20.0243 28.0136 20.2605L25.4667 22.6503C25.215 22.8865 24.8195 22.8739 24.5833 22.6222C24.3471 22.3705 24.3597 21.975 24.6114 21.7388L27.1583 19.3489C27.41 19.1127 27.8055 19.1253 28.0417 19.377Z" fill="#034147"/>
</svg>
