<svg width="24" height="24" viewBox="0 0 24 24" fill="none" xmlns="http://www.w3.org/2000/svg">
<path fill-rule="evenodd" clip-rule="evenodd" d="M2.4918 9.00684C2.76342 9.00684 2.98361 9.22702 2.98361 9.49864V19.3347C2.98361 19.5521 3.06996 19.7606 3.22368 19.9143C3.3774 20.068 3.58589 20.1544 3.80328 20.1544H20.1967C20.4141 20.1544 20.6226 20.068 20.7763 19.9143C20.93 19.7606 21.0164 19.5521 21.0164 19.3347V9.49864C21.0164 9.22702 21.2366 9.00684 21.5082 9.00684C21.7798 9.00684 22 9.22702 22 9.49864V19.3347C22 19.813 21.81 20.2716 21.4718 20.6098C21.1336 20.948 20.675 21.138 20.1967 21.138H3.80328C3.32502 21.138 2.86635 20.948 2.52817 20.6098C2.18999 20.2716 2 19.813 2 19.3347V9.49864C2 9.22702 2.22019 9.00684 2.4918 9.00684Z" fill="#545E5E"/>
<path fill-rule="evenodd" clip-rule="evenodd" d="M6.73266 7.64029C6.81199 7.90006 6.66571 8.17495 6.40594 8.25429C5.37303 8.56972 4.37335 8.98334 3.42049 9.48917L11.5348 15.0839C11.5349 15.0839 11.5349 15.0839 11.5349 15.084C11.6717 15.1782 11.8339 15.2287 12 15.2287C12.1661 15.2287 12.3283 15.1782 12.4651 15.084C12.4651 15.0839 12.4651 15.0839 12.4652 15.0839L20.5795 9.48917C19.6266 8.98334 18.627 8.56972 17.5941 8.25429C17.3343 8.17495 17.188 7.90006 17.2673 7.64029C17.3467 7.38051 17.6216 7.23424 17.8813 7.31357C19.237 7.72755 20.5385 8.30137 21.7585 9.02291C21.903 9.10831 21.9939 9.26145 21.9997 9.42912C22.0055 9.59679 21.9255 9.75587 21.7874 9.85111L13.0234 15.8937L13.0234 15.8938C12.7224 16.1012 12.3655 16.2123 12 16.2123C11.6345 16.2123 11.2776 16.1012 10.9766 15.8938L10.9766 15.8937L2.21264 9.85111C2.07451 9.75587 1.99446 9.59679 2.0003 9.42912C2.00613 9.26145 2.09704 9.10831 2.24145 9.02291C3.46148 8.30137 4.76303 7.72755 6.11866 7.31357C6.37843 7.23424 6.65332 7.38051 6.73266 7.64029Z" fill="#545E5E"/>
<path fill-rule="evenodd" clip-rule="evenodd" d="M7.24592 2.98361C7.11548 2.98361 6.99039 3.03542 6.89816 3.12765C6.80593 3.21988 6.75411 3.34497 6.75411 3.47541V11.7854L11.5349 15.0836C11.6717 15.1779 11.8339 15.2284 12 15.2284C12.1662 15.2284 12.3284 15.1779 12.4652 15.0836L17.2459 11.7845V3.47541C17.2459 3.34498 17.1941 3.21988 17.1019 3.12765C17.0096 3.03542 16.8845 2.98361 16.7541 2.98361H7.24592ZM6.02009 12.474L10.9765 15.8933L10.9767 15.8935C11.2776 16.1009 11.6345 16.212 12 16.212C12.3655 16.212 12.7224 16.1009 13.0234 15.8935L13.0236 15.8933L18.0171 12.4474C18.1501 12.3556 18.2295 12.2043 18.2295 12.0426V3.47541C18.2295 3.08411 18.0741 2.70883 17.7974 2.43214C17.5207 2.15544 17.1454 2 16.7541 2H7.24592C6.85461 2 6.47934 2.15544 6.20265 2.43214C5.92595 2.70883 5.77051 3.08411 5.77051 3.47541V12.0459C5.77051 12.2295 5.87106 12.3895 6.02009 12.474Z" fill="#545E5E"/>
<path fill-rule="evenodd" clip-rule="evenodd" d="M8.39355 5.40684C8.39355 5.13523 8.61374 4.91504 8.88536 4.91504H15.1149C15.3865 4.91504 15.6067 5.13523 15.6067 5.40684C15.6067 5.67846 15.3865 5.89865 15.1149 5.89865H8.88536C8.61374 5.89865 8.39355 5.67846 8.39355 5.40684Z" fill="#545E5E"/>
<path fill-rule="evenodd" clip-rule="evenodd" d="M8.39355 10.4586C8.39355 10.187 8.61374 9.9668 8.88536 9.9668H12.0001C12.2717 9.9668 12.4919 10.187 12.4919 10.4586C12.4919 10.7302 12.2717 10.9504 12.0001 10.9504H8.88536C8.61374 10.9504 8.39355 10.7302 8.39355 10.4586Z" fill="#545E5E"/>
<path fill-rule="evenodd" clip-rule="evenodd" d="M8.39355 7.93419C8.39355 7.66257 8.61374 7.44238 8.88536 7.44238H15.1149C15.3865 7.44238 15.6067 7.66257 15.6067 7.93419C15.6067 8.2058 15.3865 8.42599 15.1149 8.42599H8.88536C8.61374 8.42599 8.39355 8.2058 8.39355 7.93419Z" fill="#545E5E"/>
<path fill-rule="evenodd" clip-rule="evenodd" d="M10.1382 14.1465C10.3143 14.3532 10.2896 14.6636 10.0828 14.8398L3.23363 20.6758C3.02689 20.852 2.71649 20.8272 2.54033 20.6205C2.36416 20.4137 2.38895 20.1033 2.5957 19.9272L9.44488 14.0911C9.65162 13.9149 9.96202 13.9397 10.1382 14.1465Z" fill="#545E5E"/>
<path fill-rule="evenodd" clip-rule="evenodd" d="M13.8455 14.147C14.0214 13.94 14.3318 13.9148 14.5388 14.0907L21.4076 19.9267C21.6146 20.1026 21.6398 20.413 21.464 20.6199C21.2881 20.8269 20.9777 20.8522 20.7707 20.6763L13.9019 14.8402C13.6949 14.6644 13.6697 14.354 13.8455 14.147Z" fill="#545E5E"/>
</svg>
