<svg width="21" height="20" viewBox="0 0 21 20" fill="none" xmlns="http://www.w3.org/2000/svg">
<rect width="20" height="20" transform="translate(0.75)" fill="white" fill-opacity="0.01"/>
<path d="M10.7426 0.833979C9.54818 0.790519 8.35738 0.98956 7.24206 1.41908C6.12673 1.84861 5.11002 2.49971 4.25331 3.33307C3.3966 4.16643 2.71766 5.16476 2.25749 6.26779C1.79732 7.37083 1.56545 8.55568 1.5759 9.7508C1.56024 10.9823 1.80569 12.2031 2.29608 13.3329C2.78646 14.4626 3.51066 15.4756 4.42095 16.3052L4.46406 17.7139C4.47628 18.1033 4.63957 18.4727 4.91936 18.7438C5.19915 19.0149 5.57347 19.1665 5.96308 19.1665C6.17148 19.1662 6.37759 19.123 6.56855 19.0395L8.1693 18.334C9.00872 18.5575 9.87388 18.6696 10.7425 18.6676C11.937 18.7111 13.1278 18.5121 14.2432 18.0826C15.3586 17.6531 16.3754 17.002 17.2321 16.1686C18.0889 15.3353 18.7679 14.337 19.2282 13.2339C19.6884 12.1309 19.9204 10.946 19.91 9.7508C19.9204 8.55563 19.6884 7.37076 19.2282 6.26771C18.7679 5.16467 18.0889 4.16634 17.2321 3.33298C16.3754 2.49963 15.3586 1.84855 14.2432 1.41904C13.1278 0.98953 11.937 0.790504 10.7426 0.833979ZM10.7426 17.001C10.0009 17.0031 9.26227 16.9048 8.54693 16.7088C8.21567 16.6195 7.86378 16.6465 7.55002 16.7853L6.1218 17.4152L6.08437 16.1709C6.07608 15.9693 6.02745 15.7715 5.94134 15.5891C5.85523 15.4067 5.7334 15.2434 5.58306 15.1089C4.83352 14.4342 4.23691 13.6071 3.83324 12.683C3.42957 11.7589 3.22818 10.7591 3.24257 9.7508C3.23723 8.77595 3.42948 7.81011 3.8077 6.9116C4.18592 6.01309 4.74228 5.20053 5.4432 4.52296C6.14411 3.8454 6.97505 3.31688 7.88585 2.9693C8.79666 2.62172 9.76845 2.4623 10.7426 2.50065C11.7154 2.46758 12.6849 2.63063 13.5935 2.9801C14.502 3.32957 15.3308 3.8583 16.0307 4.5348C16.7306 5.21131 17.2872 6.02175 17.6673 6.91786C18.0475 7.81396 18.2434 8.77741 18.2434 9.75081C18.2434 10.7242 18.0475 11.6877 17.6673 12.5838C17.2872 13.4799 16.7306 14.2903 16.0307 14.9668C15.3308 15.6433 14.502 16.1721 13.5935 16.5215C12.6849 16.871 11.7154 17.034 10.7426 17.001ZM13.8545 7.15478L11.9275 9.45051L9.13857 7.73665C8.96836 7.63188 8.76612 7.59191 8.56886 7.62405C8.37159 7.65618 8.1925 7.75828 8.06434 7.91165L5.52122 10.9422C5.4505 11.0259 5.397 11.1228 5.36379 11.2273C5.33058 11.3317 5.31831 11.4417 5.32768 11.5509C5.33705 11.6601 5.36788 11.7664 5.4184 11.8636C5.46893 11.9609 5.53815 12.0472 5.6221 12.1177C5.70605 12.1881 5.80308 12.2413 5.90764 12.2742C6.01219 12.3071 6.1222 12.3191 6.23137 12.3093C6.34054 12.2996 6.44672 12.2685 6.54383 12.2177C6.64094 12.1668 6.72706 12.0973 6.79726 12.0132L8.87892 9.53352L11.6678 11.2466C11.8379 11.3514 12.0401 11.3915 12.2374 11.3595C12.4346 11.3275 12.6138 11.2256 12.742 11.0724L15.1306 8.22575C15.2017 8.14207 15.2556 8.04515 15.2891 7.94057C15.3227 7.83598 15.3352 7.7258 15.326 7.61635C15.3168 7.50691 15.286 7.40037 15.2354 7.30286C15.1849 7.20536 15.1156 7.11881 15.0314 7.0482C14.9473 6.97759 14.8501 6.92432 14.7453 6.89145C14.6405 6.85857 14.5302 6.84675 14.4208 6.85666C14.3114 6.86656 14.2051 6.898 14.1079 6.94916C14.0107 7.00033 13.9246 7.07021 13.8545 7.15478Z" fill="white"/>
</svg>
