<svg width="19" height="20" viewBox="0 0 19 20" fill="none" xmlns="http://www.w3.org/2000/svg">
<path d="M9.24354 0.833491C8.04916 0.79003 6.85836 0.989071 5.74303 1.4186C4.62771 1.84812 3.611 2.49922 2.75429 3.33258C1.89758 4.16594 1.21864 5.16427 0.758466 6.2673C0.298293 7.37034 0.0664298 8.55519 0.0768767 9.75032C0.0612169 10.9818 0.306665 12.2026 0.797052 13.3324C1.28744 14.4621 2.01163 15.4751 2.92193 16.3047L2.96503 17.7134C2.97725 18.1028 3.14054 18.4722 3.42033 18.7433C3.70012 19.0144 4.07445 19.166 4.46406 19.166C4.67246 19.1657 4.87857 19.1225 5.06953 19.0391L6.67028 18.3335C7.5097 18.557 8.37486 18.6692 9.24352 18.6671C10.4379 18.7106 11.6288 18.5116 12.7442 18.0821C13.8596 17.6526 14.8763 17.0015 15.7331 16.1682C16.5899 15.3348 17.2689 14.3365 17.7292 13.2334C18.1894 12.1304 18.4214 10.9455 18.411 9.75032C18.4214 8.55514 18.1894 7.37027 17.7292 6.26723C17.2689 5.16418 16.5899 4.16585 15.7331 3.3325C14.8763 2.49914 13.8596 1.84806 12.7442 1.41855C11.6288 0.989041 10.438 0.790016 9.24354 0.833491ZM9.24354 17.0005C8.50183 17.0026 7.76325 16.9043 7.04791 16.7083C6.71665 16.619 6.36475 16.646 6.051 16.7848L4.62278 17.4147L4.58534 16.1704C4.57706 15.9689 4.52842 15.771 4.44232 15.5886C4.35621 15.4062 4.23438 15.2429 4.08403 15.1084C3.3345 14.4338 2.73788 13.6066 2.33421 12.6825C1.93055 11.7584 1.72915 10.7586 1.74354 9.75032C1.73821 8.77546 1.93045 7.80963 2.30868 6.91111C2.6869 6.0126 3.24326 5.20004 3.94417 4.52247C4.64509 3.84491 5.47602 3.31639 6.38683 2.96881C7.29764 2.62123 8.26943 2.46181 9.24354 2.50016C10.2164 2.46709 11.1859 2.63014 12.0944 2.97961C13.0029 3.32908 13.8318 3.85781 14.5317 4.53431C15.2316 5.21082 15.7882 6.02126 16.1683 6.91737C16.5484 7.81348 16.7443 8.77692 16.7443 9.75032C16.7443 10.7237 16.5484 11.6872 16.1683 12.5833C15.7882 13.4794 15.2316 14.2898 14.5317 14.9663C13.8318 15.6428 13.0029 16.1716 12.0944 16.521C11.1859 16.8705 10.2164 17.0336 9.24354 17.0005ZM12.3555 7.15429L10.4284 9.45002L7.63954 7.73616C7.46934 7.63139 7.2671 7.59142 7.06983 7.62356C6.87257 7.6557 6.69347 7.75779 6.56532 7.91116L4.02219 10.9417C3.95147 11.0255 3.89798 11.1223 3.86477 11.2268C3.83155 11.3312 3.81928 11.4412 3.82866 11.5504C3.83803 11.6596 3.86886 11.7659 3.91938 11.8631C3.9699 11.9604 4.03912 12.0467 4.12308 12.1172C4.20703 12.1877 4.30406 12.2409 4.40861 12.2737C4.51316 12.3066 4.62318 12.3186 4.73235 12.3089C4.84152 12.2992 4.9477 12.268 5.04481 12.2172C5.14191 12.1663 5.22803 12.0969 5.29824 12.0127L7.3799 9.53303L10.1688 11.2461C10.3389 11.3509 10.5411 11.391 10.7383 11.359C10.9356 11.3271 11.1147 11.2251 11.243 11.0719L13.6315 8.22526C13.7027 8.14158 13.7566 8.04466 13.7901 7.94008C13.8236 7.83549 13.8362 7.72531 13.8269 7.61587C13.8177 7.50642 13.787 7.39988 13.7364 7.30238C13.6859 7.20487 13.6165 7.11832 13.5324 7.04771C13.4483 6.97711 13.351 6.92383 13.2462 6.89096C13.1414 6.85809 13.0312 6.84626 12.9218 6.85617C12.8124 6.86607 12.7061 6.89751 12.6089 6.94868C12.5117 6.99984 12.4256 7.06972 12.3555 7.15429Z" fill="#034147"/>
</svg>
