<svg width="49" height="48" viewBox="0 0 49 48" fill="none" xmlns="http://www.w3.org/2000/svg">
<g clip-path="url(#clip0_5157_2585)">
<path d="M1.21918 18.7506L1.3877 8.25195H16.3877L16.2071 19.5005H18.0821C18.8321 19.5005 22.5761 19.8755 22.9511 19.8755C23.3261 19.8755 23.284 22.5001 22.897 23.25C22.5099 23.9999 20.9738 26.2496 20.5808 27.3745C20.2663 28.2744 20.3896 31.499 20.4905 32.9988H29.8655C31.0085 31.8739 33.5209 29.5492 34.4257 29.2492C35.3305 28.9493 36.0888 26.8746 36.3548 25.8747L36.4933 17.2508L35.0173 15.751C34.0193 15.626 31.8746 15.301 31.2794 15.0011C30.6842 14.7011 31.0514 13.6263 31.3095 13.1263L34.3215 12.3764L35.4525 12.0015H42.5775L42.5113 16.1259L39.5053 16.5009C39.6102 17.7507 39.8141 20.6254 39.79 22.1252C39.7599 23.9999 41.5928 26.6246 41.9558 27.3745C42.3187 28.1244 43.8067 28.8743 44.5507 29.2492C45.1459 29.5492 46.5206 31.124 47.1335 31.8739L45.6215 32.6238C45.7325 33.4987 45.9508 35.4734 45.9363 36.3733C45.9183 37.4982 42.8882 39.3729 41.0072 39.7479C39.1261 40.1228 37.2752 38.623 36.1743 37.1232C35.2935 35.9234 35.3555 33.6237 35.4965 32.6238C34.7385 33.1237 33.1438 34.3486 32.8294 35.2485C32.5149 36.1484 30.1863 36.3733 29.0613 36.3733H15.1863C14.6783 36.8733 13.3586 38.0981 12.1442 38.998C10.6261 40.1228 8.75716 39.7479 7.26919 38.998C6.07882 38.3981 5.30129 36.9982 5.06132 36.3733C4.68632 36.3733 3.71253 36.2983 2.81734 35.9984L0.579377 35.2485C0.72845 33.7487 1.18382 30.2991 1.81271 28.4993C2.44159 26.6996 4.36888 24.9998 5.25391 24.3749L3.034 22.5001L3.07613 19.8755L1.21918 18.7506Z" fill="#00D6D9"/>
<path d="M48.0956 31.7838L47.3607 30.8464C46.4126 29.6391 45.1668 28.7542 43.765 28.2443C43.7362 28.1693 43.6999 28.0943 43.6483 28.0343L42.1564 26.1296C41.3037 25.0497 40.7998 23.7374 40.7172 22.3425L40.3863 17.2582H42.4938C42.9063 17.2582 43.2492 16.9207 43.2558 16.5083L43.3281 12.0089C43.3347 11.5964 43.0026 11.259 42.5901 11.259H36.5901C35.8326 11.259 35.1529 11.5514 34.6131 12.0089H32.8281C31.5906 12.0089 30.5618 13.0212 30.5419 14.2586C30.5221 15.4959 31.5183 16.5083 32.7558 16.5083H34.5408C34.881 16.8083 35.2899 17.0332 35.7455 17.1532L35.6272 24.5248C35.6047 25.9271 35.0361 27.2394 34.0302 28.2293L29.9381 32.2563H21.2456L21.3029 28.6867C21.3326 26.8345 22.0805 25.0947 23.4141 23.7824C23.5589 23.6399 23.6145 23.4449 23.6401 23.2499L23.6762 21.0002C23.6961 19.7629 22.6998 18.7505 21.4623 18.7505H16.9623L17.1309 8.25186C17.1375 7.83941 16.8054 7.50195 16.3929 7.50195H1.40039C0.987891 7.50195 0.644974 7.83941 0.638354 8.25186L0.457805 19.5004C0.451184 19.9129 0.783268 20.2503 1.19577 20.2503H2.69577L2.65966 22.5C2.65641 22.7025 2.7359 22.89 2.86861 23.0325L4.44047 24.6297C2.57381 25.9796 1.19251 27.9293 0.585681 30.224C0.378042 31.0114 0.260043 31.8213 0.246923 32.6387L0.192878 36.0058C0.186258 36.4182 0.518342 36.7557 0.930842 36.7557H4.38834C5.25961 39.0129 7.38816 40.5052 9.87066 40.5052C12.3532 40.5052 14.5296 39.0129 15.4733 36.7557H30.7208C31.5458 36.7557 32.3161 36.4257 32.9031 35.8333L34.7562 33.9285C34.7382 34.116 34.7201 34.311 34.7171 34.4985C34.664 37.8055 37.3133 40.4977 40.6208 40.4977C43.9283 40.4977 46.664 37.8055 46.7171 34.4985C46.7254 33.981 46.6658 33.4861 46.5461 32.9987H47.4911C47.7761 32.9987 48.0413 32.8337 48.173 32.5712C48.3047 32.3088 48.2722 32.0013 48.0958 31.7763L48.0956 31.7838ZM45.9402 31.4989H37.1202L39.0876 29.4816C39.2325 29.3316 39.4288 29.2492 39.6313 29.2492H40.9363C42.8713 29.2492 44.6732 30.0665 45.9327 31.4989H45.9402ZM42.2171 34.4985C42.2038 35.3234 41.518 35.9983 40.693 35.9983C39.868 35.9983 39.2038 35.3234 39.2171 34.4985C39.2303 33.6736 39.9161 32.9987 40.7411 32.9987C41.5661 32.9987 42.2303 33.6736 42.2171 34.4985ZM41.768 15.7509H40.268L40.3161 12.7513H41.8161L41.768 15.7509ZM38.8161 12.7513L38.768 15.7509H36.518C36.2405 15.7509 35.9943 15.6684 35.7714 15.5409L35.8128 12.9613C36.0398 12.8338 36.2886 12.7513 36.5661 12.7513H38.8161ZM32.0421 14.2511C32.0487 13.8386 32.3916 13.5012 32.8041 13.5012H33.6591C33.5952 13.7411 33.5463 13.9886 33.5421 14.2511C33.5378 14.5135 33.5789 14.761 33.635 15.001H32.78C32.3675 15.001 32.0354 14.6635 32.0421 14.2511ZM22.1837 21.0002L22.1597 22.5H10.1597L10.1837 21.0002C10.1904 20.5878 10.5333 20.2503 10.9458 20.2503H21.4458C21.8583 20.2503 22.1904 20.5878 22.1837 21.0002ZM10.3763 9.00176L10.3402 11.2515H7.34021L7.37632 9.00176H10.3763ZM2.12632 9.00176H5.87632L5.82817 12.0014C5.82155 12.4138 6.15363 12.7513 6.56613 12.7513H11.0661C11.4786 12.7513 11.8216 12.4138 11.8282 12.0014L11.8763 9.00176H15.6263L15.4698 18.7505H1.96984L2.12632 9.00176ZM4.16459 22.1926L4.19577 20.2503H8.83077C8.74454 20.4828 8.68794 20.7377 8.68373 21.0002L8.65629 22.71L7.20108 23.1899C6.69594 23.3549 6.21995 23.5724 5.75859 23.8124L4.16459 22.1926ZM15.205 35.2484H4.70504L4.71707 34.4985C4.76353 31.6038 7.15633 29.2492 10.0513 29.2492C12.9463 29.2492 15.2635 31.6038 15.2171 34.4985L15.205 35.2484ZM9.89485 38.9979C8.24485 38.9979 6.81144 38.1205 6.04596 36.7482H13.816C13.0064 38.1205 11.5449 38.9979 9.89485 38.9979ZM31.84 34.7834C31.5502 35.0834 31.1575 35.2484 30.745 35.2484H16.705L16.7171 34.4985C16.7768 30.779 13.7954 27.7493 10.0754 27.7493C6.3554 27.7493 3.27677 30.779 3.21707 34.4985L3.20504 35.2484H1.70504L1.74704 32.6312C1.75812 31.9413 1.85169 31.2514 2.0349 30.584C2.78516 27.7643 4.88341 25.5371 7.65822 24.6147L9.51309 23.9998H21.3106C20.3661 25.3722 19.8451 26.9919 19.818 28.6792L19.7486 32.9987C19.742 33.4111 20.0741 33.7486 20.4866 33.7486H30.2366C30.4391 33.7486 30.6279 33.6661 30.7726 33.5311L35.0857 29.2866C36.3812 28.0118 37.1059 26.317 37.1348 24.5173L37.2514 17.2507H38.8939L39.2304 22.455C39.3382 24.1498 39.9425 25.7471 40.9864 27.0669L41.5523 27.7868C41.365 27.7718 41.1778 27.7568 40.9828 27.7568H39.6778C39.0703 27.7568 38.4737 28.0118 38.0467 28.4468L34.8365 31.7313L31.8549 34.7909L31.84 34.7834ZM45.2171 34.4985C45.1772 36.9807 43.1274 38.9979 40.6449 38.9979C38.1624 38.9979 36.1772 36.9807 36.2171 34.4985C36.2255 33.9735 36.3236 33.4711 36.5036 32.9987H38.1611C37.899 33.4411 37.7259 33.951 37.7171 34.4985C37.6905 36.1558 39.0114 37.4981 40.6689 37.4981C42.3264 37.4981 43.6905 36.1558 43.7171 34.4985C43.7259 33.951 43.5765 33.4411 43.3211 32.9987H44.9786C45.1436 33.4711 45.2255 33.9735 45.2171 34.4985Z" fill="#034147"/>
</g>
<defs>
<clipPath id="clip0_5157_2585">
<rect width="48" height="48" fill="white" transform="matrix(1 0 -0.0160488 0.999871 0.770508 0.00292969)"/>
</clipPath>
</defs>
</svg>
