<svg width="50" height="24" viewBox="0 0 50 24" fill="none" xmlns="http://www.w3.org/2000/svg">
<rect width="50" height="24" rx="12" fill="#F0F0F0"/>
<path d="M15.728 14.92C14.968 15.76 13.952 16.18 12.68 16.18C11.408 16.18 10.388 15.76 9.62 14.92C8.86 14.08 8.48 13.008 8.48 11.704C8.48 10.4 8.86 9.328 9.62 8.488C10.388 7.648 11.408 7.228 12.68 7.228C13.952 7.228 14.968 7.648 15.728 8.488C16.496 9.328 16.88 10.4 16.88 11.704C16.88 13.008 16.496 14.08 15.728 14.92ZM10.4 14.248C10.944 14.904 11.704 15.232 12.68 15.232C13.656 15.232 14.416 14.904 14.96 14.248C15.504 13.592 15.776 12.744 15.776 11.704C15.776 10.664 15.504 9.816 14.96 9.16C14.416 8.496 13.656 8.164 12.68 8.164C11.704 8.164 10.944 8.496 10.4 9.16C9.856 9.816 9.584 10.664 9.584 11.704C9.584 12.744 9.856 13.592 10.4 14.248ZM24.4193 16V7.42H25.3913V16H24.4193ZM17.6273 10.588V9.796H18.4793V8.872C18.4793 8.36 18.6193 7.992 18.8993 7.768C19.1793 7.536 19.5873 7.42 20.1233 7.42C20.2593 7.42 20.4153 7.428 20.5913 7.444V8.272C20.4953 8.264 20.3953 8.26 20.2913 8.26C19.9793 8.26 19.7593 8.308 19.6313 8.404C19.5113 8.5 19.4513 8.672 19.4513 8.92V9.796H21.4313V8.8C21.4313 8.288 21.5713 7.92 21.8513 7.696C22.1313 7.464 22.5393 7.348 23.0753 7.348C23.2273 7.348 23.3913 7.356 23.5673 7.372V8.2C23.4553 8.192 23.3513 8.188 23.2553 8.188C22.9433 8.188 22.7233 8.236 22.5953 8.332C22.4673 8.428 22.4033 8.6 22.4033 8.848V9.796H23.5553V10.588H22.4033V16H21.4313V10.588H19.4513V16H18.4793V10.588H17.6273ZM26.742 16V9.796H27.714V16H26.742ZM26.742 8.62V7.42H27.714V8.62H26.742ZM30.0109 9.796V10.612H30.0349C30.5149 9.972 31.1709 9.652 32.0029 9.652C32.6589 9.652 33.1709 9.824 33.5389 10.168C33.9069 10.512 34.0909 11.004 34.0909 11.644V16H33.1189V11.728C33.1189 11.328 32.9949 11.02 32.7469 10.804C32.4989 10.58 32.1549 10.468 31.7149 10.468C31.2189 10.468 30.8109 10.628 30.4909 10.948C30.1709 11.268 30.0109 11.68 30.0109 12.184V16H29.0389V9.796H30.0109ZM38.0308 16.168C37.1108 16.168 36.3788 15.86 35.8348 15.244C35.2988 14.62 35.0308 13.84 35.0308 12.904C35.0308 11.984 35.3028 11.212 35.8468 10.588C36.3988 9.956 37.1068 9.64 37.9708 9.64C38.8828 9.64 39.5868 9.96 40.0828 10.6C40.5788 11.232 40.8268 12.076 40.8268 13.132H36.0268C36.0668 13.788 36.2588 14.324 36.6028 14.74C36.9548 15.148 37.4308 15.352 38.0308 15.352C38.9588 15.352 39.5308 14.928 39.7468 14.08H40.6948C40.5508 14.744 40.2468 15.26 39.7828 15.628C39.3188 15.988 38.7348 16.168 38.0308 16.168ZM39.2668 10.936C38.9548 10.584 38.5228 10.408 37.9708 10.408C37.4188 10.408 36.9788 10.592 36.6508 10.96C36.3308 11.328 36.1308 11.808 36.0508 12.4H39.7828C39.7508 11.776 39.5788 11.288 39.2668 10.936Z" fill="#2A2F2F"/>
</svg>
