<svg width="24" height="24" viewBox="0 0 24 24" fill="none" xmlns="http://www.w3.org/2000/svg">
<path d="M16.9773 15.2574C16.7919 15.0714 16.5716 14.9237 16.329 14.823C16.0865 14.7223 15.8264 14.6704 15.5638 14.6704C15.3011 14.6704 15.041 14.7223 14.7985 14.823C14.5559 14.9237 14.3356 15.0714 14.1502 15.2574L13.1857 16.2219C12.0997 15.5327 11.0935 14.7251 10.1856 13.8139C9.27641 12.9043 8.46897 11.8984 7.77763 10.8139L8.74216 9.84935C8.92821 9.66395 9.07582 9.44365 9.17654 9.20108C9.27726 8.95851 9.32911 8.69845 9.32911 8.4358C9.32911 8.17315 9.27726 7.91309 9.17654 7.67052C9.07582 7.42795 8.92821 7.20765 8.74216 7.02226L6.85966 5.1464C6.67688 4.95974 6.45844 4.81174 6.21732 4.71117C5.97621 4.61061 5.71733 4.55955 5.45609 4.56103C5.193 4.56038 4.93237 4.61177 4.6892 4.71223C4.44604 4.81269 4.22514 4.96025 4.03922 5.1464L3.13455 6.04442C2.70335 6.50804 2.38153 7.0624 2.19275 7.66675C2.00396 8.2711 1.95301 8.91007 2.04363 9.5367C2.25649 12.0312 3.89288 15.0312 6.41398 17.559C8.93507 20.0867 11.9684 21.7165 14.4629 21.9559C14.649 21.9659 14.8355 21.9659 15.0216 21.9559C15.5586 21.9785 16.0947 21.8936 16.5984 21.7063C17.1021 21.5189 17.5634 21.2329 17.9551 20.865L18.8532 19.9603C19.0393 19.7744 19.1869 19.5535 19.2873 19.3104C19.3878 19.0672 19.4392 18.8066 19.4385 18.5435C19.44 18.2822 19.3889 18.0234 19.2884 17.7822C19.1878 17.5411 19.0398 17.3227 18.8532 17.1399L16.9773 15.2574ZM17.9152 19.0224L17.0106 19.9204C16.6761 20.1992 16.2856 20.4029 15.8655 20.5176C15.4455 20.6324 15.0057 20.6556 14.5759 20.5856C12.4141 20.3994 9.66014 18.8694 7.38516 16.5944C5.11019 14.3195 3.58024 11.5855 3.37403 9.42362C3.30229 8.99384 3.32461 8.55362 3.43945 8.13331C3.55429 7.713 3.75892 7.32259 4.03922 6.989L4.97715 6.08433C5.03931 6.02268 5.11302 5.9739 5.19407 5.9408C5.27511 5.9077 5.3619 5.89092 5.44944 5.89142C5.53698 5.89092 5.62377 5.9077 5.70481 5.9408C5.78586 5.9739 5.85957 6.02268 5.92173 6.08433L7.80424 7.98679C7.92813 8.11143 7.99767 8.28002 7.99767 8.45576C7.99767 8.63149 7.92813 8.80009 7.80424 8.92472L6.47384 10.2551C6.36974 10.3587 6.30284 10.4938 6.28359 10.6394C6.26434 10.785 6.29381 10.9329 6.36741 11.06C7.16391 12.416 8.132 13.6635 9.24771 14.7718C10.356 15.8875 11.6035 16.8556 12.9595 17.6521C13.0866 17.7257 13.2345 17.7552 13.3801 17.7359C13.5257 17.7167 13.6608 17.6498 13.7644 17.5457L15.0948 16.2153C15.2194 16.0914 15.388 16.0218 15.5638 16.0218C15.7395 16.0218 15.9081 16.0914 16.0327 16.2153L17.9152 18.0978C17.9769 18.1599 18.0257 18.2337 18.0588 18.3147C18.0919 18.3958 18.1086 18.4825 18.1081 18.5701C18.104 18.74 18.035 18.9018 17.9152 19.0224ZM19.0727 4.92023C18.1482 3.99227 17.0492 3.25647 15.839 2.75527C14.6289 2.25408 13.3314 1.99739 12.0216 2.00002C11.8452 2.00002 11.676 2.0701 11.5512 2.19485C11.4265 2.3196 11.3564 2.4888 11.3564 2.66522C11.3564 2.84164 11.4265 3.01083 11.5512 3.13558C11.676 3.26033 11.8452 3.33041 12.0216 3.33041C13.1634 3.33037 14.2939 3.55645 15.3479 3.9956C16.4018 4.43475 17.3584 5.07827 18.1623 5.88904C18.9663 6.69981 19.6018 7.66176 20.032 8.71939C20.4623 9.77702 20.6788 10.9094 20.6691 12.0511C20.6691 12.2276 20.7392 12.3968 20.864 12.5215C20.9887 12.6463 21.1579 12.7163 21.3343 12.7163C21.5108 12.7163 21.68 12.6463 21.8047 12.5215C21.9295 12.3968 21.9995 12.2276 21.9995 12.0511C22.0123 10.7274 21.7599 9.41442 21.2572 8.18972C20.7545 6.96502 20.0118 5.85335 19.0727 4.92023Z" fill="#545E5E"/>
<path d="M15.2876 8.7252C15.6651 9.10043 15.9637 9.54738 16.1659 10.0397C16.3681 10.5321 16.4698 11.0599 16.465 11.5922C16.465 11.7686 16.5351 11.9378 16.6598 12.0626C16.7846 12.1873 16.9537 12.2574 17.1302 12.2574C17.3066 12.2574 17.4758 12.1873 17.6005 12.0626C17.7253 11.9378 17.7954 11.7686 17.7954 11.5922C17.8042 10.8878 17.673 10.1886 17.4095 9.53528C17.146 8.88194 16.7555 8.28742 16.2604 7.7862C15.7654 7.28498 15.1758 6.88703 14.5258 6.61545C13.8757 6.34387 13.1783 6.20405 12.4738 6.2041C12.2974 6.2041 12.1282 6.27418 12.0034 6.39893C11.8787 6.52368 11.8086 6.69288 11.8086 6.8693C11.8086 7.04572 11.8787 7.21492 12.0034 7.33966C12.1282 7.46441 12.2974 7.5345 12.4738 7.5345C12.998 7.53844 13.5163 7.64563 13.9991 7.84994C14.4819 8.05424 14.9197 8.35166 15.2876 8.7252Z" fill="#545E5E"/>
</svg>
