<svg width="67" height="32" viewBox="0 0 67 32" fill="none" xmlns="http://www.w3.org/2000/svg">
<rect width="67" height="32" rx="16" fill="#E9F9EF"/>
<path d="M12.144 21L8.16 9.56H9.712L12.528 18.072L12.976 19.608H13.008C13.1893 18.9253 13.3387 18.4133 13.456 18.072L16.24 9.56H17.744L13.728 21H12.144ZM21.2754 21.224C20.0487 21.224 19.0727 20.8133 18.3474 19.992C17.6327 19.16 17.2754 18.12 17.2754 16.872C17.2754 15.6453 17.638 14.616 18.3634 13.784C19.0994 12.9413 20.0434 12.52 21.1954 12.52C22.4114 12.52 23.35 12.9467 24.0114 13.8C24.6727 14.6427 25.0034 15.768 25.0034 17.176H18.6034C18.6567 18.0507 18.9127 18.7653 19.3714 19.32C19.8407 19.864 20.4754 20.136 21.2754 20.136C22.5127 20.136 23.2754 19.5707 23.5634 18.44H24.8274C24.6354 19.3253 24.23 20.0133 23.6114 20.504C22.9927 20.984 22.214 21.224 21.2754 21.224ZM22.9234 14.248C22.5074 13.7787 21.9314 13.544 21.1954 13.544C20.4594 13.544 19.8727 13.7893 19.4354 14.28C19.0087 14.7707 18.742 15.4107 18.6354 16.2H23.6114C23.5687 15.368 23.3394 14.7173 22.9234 14.248ZM27.5666 12.728V14.104H27.5986C27.8653 13.6667 28.212 13.3147 28.6386 13.048C29.0653 12.7707 29.54 12.632 30.0626 12.632C30.2546 12.632 30.4306 12.664 30.5906 12.728V13.976H30.5426C30.3826 13.9227 30.1906 13.896 29.9666 13.896C29.3053 13.896 28.74 14.1307 28.2706 14.6C27.8013 15.0587 27.5666 15.6613 27.5666 16.408V21H26.2706V12.728H27.5666ZM31.755 21V12.728H33.051V21H31.755ZM31.755 11.16V9.56H33.051V11.16H31.755ZM34.2895 13.784V12.728H35.4255V11.4C35.4255 10.7173 35.6122 10.2267 35.9855 9.928C36.3588 9.61867 36.9028 9.464 37.6175 9.464C37.8202 9.464 38.0388 9.47467 38.2735 9.496V10.6C38.1242 10.5893 37.9855 10.584 37.8575 10.584C37.4415 10.584 37.1482 10.648 36.9775 10.776C36.8068 10.904 36.7215 11.1333 36.7215 11.464V12.728H38.2575V13.784H36.7215V21H35.4255V13.784H34.2895ZM39.3615 21V12.728H40.6575V21H39.3615ZM39.3615 11.16V9.56H40.6575V11.16H39.3615ZM45.9473 21.224C44.7206 21.224 43.7446 20.8133 43.0193 19.992C42.3046 19.16 41.9473 18.12 41.9473 16.872C41.9473 15.6453 42.3099 14.616 43.0353 13.784C43.7713 12.9413 44.7153 12.52 45.8673 12.52C47.0833 12.52 48.0219 12.9467 48.6833 13.8C49.3446 14.6427 49.6753 15.768 49.6753 17.176H43.2753C43.3286 18.0507 43.5846 18.7653 44.0433 19.32C44.5126 19.864 45.1473 20.136 45.9473 20.136C47.1846 20.136 47.9473 19.5707 48.2353 18.44H49.4993C49.3073 19.3253 48.9019 20.0133 48.2833 20.504C47.6646 20.984 46.8859 21.224 45.9473 21.224ZM47.5953 14.248C47.1793 13.7787 46.6033 13.544 45.8673 13.544C45.1313 13.544 44.5446 13.7893 44.1073 14.28C43.6806 14.7707 43.4139 15.4107 43.3073 16.2H48.2833C48.2406 15.368 48.0113 14.7173 47.5953 14.248ZM54.1425 21.24C53.0118 21.24 52.1158 20.8507 51.4545 20.072C50.8038 19.2827 50.4785 18.2213 50.4785 16.888C50.4785 15.544 50.8198 14.4827 51.5025 13.704C52.1852 12.9253 53.0545 12.536 54.1105 12.536C55.2305 12.536 56.0945 12.9893 56.7025 13.896H56.7345V9.56H58.0305V21H56.7345V19.992H56.7025C56.0518 20.824 55.1985 21.24 54.1425 21.24ZM54.1905 20.152C55.0758 20.152 55.7318 19.8587 56.1585 19.272C56.5958 18.6853 56.8145 17.896 56.8145 16.904C56.8145 15.9227 56.5798 15.1333 56.1105 14.536C55.6518 13.9387 55.0065 13.64 54.1745 13.64C53.4172 13.64 52.8305 13.944 52.4145 14.552C52.0092 15.1493 51.8065 15.9333 51.8065 16.904C51.8065 17.8747 52.0092 18.6587 52.4145 19.256C52.8305 19.8533 53.4225 20.152 54.1905 20.152Z" fill="#0D9041"/>
</svg>
