<svg width="32" height="25" viewBox="0 0 32 25" fill="none" xmlns="http://www.w3.org/2000/svg">
<g clip-path="url(#clip0_4082_27637)">
<path fill-rule="evenodd" clip-rule="evenodd" d="M15.3079 16.6842V14.8338C15.3079 14.7386 15.2578 14.6572 15.173 14.6142C15.0882 14.5712 14.9928 14.579 14.9162 14.6353L9.40626 18.6777C9.34316 18.7239 9.30834 18.7901 9.3058 18.8683C9.30332 18.9464 9.33384 19.0148 9.39384 19.0649L14.9038 23.6765C14.9788 23.7392 15.0772 23.7521 15.1659 23.7107C15.2546 23.6694 15.3079 23.5856 15.3079 23.4877V21.7687C23.8983 21.7687 26.7158 15.4532 24.2201 10.9619C22.8395 16.338 18.3316 16.6842 15.3079 16.6842Z" fill="#99C4C8"/>
<path fill-rule="evenodd" clip-rule="evenodd" d="M14.5696 17.5652V15.7818L9.72173 19.3385L9.39384 19.0641C9.33388 19.0139 9.30332 18.9456 9.3058 18.8674C9.30834 18.7893 9.34321 18.723 9.40626 18.6768L14.9162 14.6345C14.9929 14.5782 15.0882 14.5704 15.1731 14.6133C15.2579 14.6563 15.308 14.7378 15.308 14.8329V16.6834C18.0116 16.6834 21.9017 16.4066 23.682 12.5049C21.8427 17.1285 17.6042 17.5652 14.5696 17.5652Z" fill="url(#paint0_linear_4082_27637)"/>
<path fill-rule="evenodd" clip-rule="evenodd" d="M16.6918 8.98212V10.8326C16.6918 10.9277 16.7419 11.0092 16.8267 11.0522C16.9115 11.0951 17.0069 11.0873 17.0835 11.031L22.5934 6.98867C22.6565 6.94241 22.6914 6.87622 22.6939 6.79803C22.6964 6.71989 22.6659 6.65155 22.6059 6.60139L17.0959 1.98983C17.0209 1.92706 16.9225 1.91417 16.8338 1.95556C16.7451 1.99695 16.6918 2.08072 16.6918 2.17859V3.89759C8.10137 3.89759 5.28386 10.2131 7.77962 14.7044C9.16018 9.32839 13.6681 8.98212 16.6918 8.98212Z" fill="#99C4C8"/>
<path fill-rule="evenodd" clip-rule="evenodd" d="M17.4303 8.10043V9.88384L22.2781 6.32715L22.606 6.60155C22.666 6.65176 22.6965 6.72005 22.6941 6.7982C22.6916 6.87634 22.6567 6.94257 22.5936 6.98879L17.0837 11.0311C17.007 11.0874 16.9117 11.0952 16.8268 11.0523C16.742 11.0093 16.6919 10.9278 16.6919 10.8327V8.98224C13.9883 8.98224 10.0981 9.25904 8.31787 13.1607C10.1572 8.53707 14.3956 8.10043 17.4303 8.10043Z" fill="#99C4C8"/>
<path fill-rule="evenodd" clip-rule="evenodd" d="M23.851 17.4679C22.3792 19.9696 19.262 21.4044 15.2987 21.4044C15.0915 21.4044 14.9237 21.5722 14.9237 21.7794V23.2251L9.74502 18.8906L14.9237 15.0907V16.6898C14.9237 16.897 15.0915 17.0648 15.2987 17.0648C16.9243 17.0648 18.8171 16.9602 20.531 16.1852C22.3122 15.3801 23.5739 13.9738 24.2925 11.9989C24.9853 13.8049 24.8371 15.7916 23.851 17.4679ZM24.5481 10.7792C24.5116 10.7135 24.4563 10.6604 24.3892 10.6266C24.3222 10.5927 24.2465 10.5798 24.172 10.5895C24.0977 10.5991 24.028 10.6307 23.9719 10.6803C23.9157 10.73 23.8758 10.7953 23.8572 10.8679C22.6677 15.4986 19.1025 16.2642 15.6737 16.3119V14.3506C15.6736 14.2813 15.6543 14.2134 15.618 14.1545C15.5817 14.0955 15.5297 14.0477 15.4678 14.0165C15.4061 13.9851 15.3369 13.9714 15.2679 13.977C15.1988 13.9826 15.1327 14.0073 15.0769 14.0483L8.91509 18.5688C8.8693 18.6025 8.83176 18.6461 8.80529 18.6964C8.77883 18.7467 8.76414 18.8024 8.76233 18.8592C8.76055 18.9159 8.77169 18.9724 8.7949 19.0243C8.8181 19.0761 8.85277 19.122 8.8963 19.1585L15.0577 24.3154C15.1253 24.3719 15.2106 24.4029 15.2987 24.4029C15.3982 24.4029 15.4935 24.3633 15.5638 24.293C15.6342 24.2227 15.6737 24.1274 15.6738 24.0279V22.1507C17.7439 22.1067 19.5672 21.6974 21.0981 20.9323C22.5668 20.1987 23.7417 19.1322 24.4976 17.8484C25.7784 15.6707 25.7976 13.0279 24.5481 10.7792ZM7.70717 13.6667C8.42581 11.692 9.68769 10.2857 11.469 9.48036C13.1826 8.70556 15.0756 8.60098 16.7012 8.60098C16.7504 8.601 16.7992 8.61071 16.8447 8.62956C16.8902 8.64841 16.9315 8.67604 16.9663 8.71086C17.0011 8.74568 17.0287 8.78702 17.0475 8.83251C17.0663 8.878 17.076 8.92675 17.076 8.97598V10.5748L22.2549 6.7752L17.076 2.44053V3.8862C17.076 4.09339 16.9082 4.2612 16.7012 4.2612C12.738 4.2612 9.6207 5.696 8.14873 8.19791C7.16258 9.87416 7.01441 11.8606 7.70717 13.6667ZM16.3262 9.35389V11.315C16.3263 11.3842 16.3455 11.4522 16.3818 11.5112C16.4181 11.5702 16.47 11.618 16.5319 11.6493C16.5936 11.6807 16.6628 11.6943 16.7318 11.6887C16.8009 11.6831 16.867 11.6584 16.9228 11.6174L23.0846 7.09676C23.1304 7.06317 23.168 7.01958 23.1944 6.96932C23.2209 6.91906 23.2356 6.86343 23.2374 6.80665C23.2392 6.74983 23.228 6.69334 23.2048 6.64144C23.1816 6.58954 23.1469 6.54358 23.1034 6.50703L16.942 1.3504C16.8874 1.30455 16.8208 1.27524 16.75 1.26591C16.6793 1.25659 16.6074 1.26764 16.5427 1.29776C16.478 1.32795 16.4233 1.37595 16.3849 1.43615C16.3466 1.49635 16.3262 1.56624 16.3262 1.63761V3.51486C14.2562 3.55911 12.4326 3.96814 10.9018 4.73323C9.4332 5.46687 8.258 6.53333 7.50242 7.81709C6.22128 9.99509 6.20201 12.6378 7.4518 14.8864C7.48425 14.9448 7.53174 14.9936 7.58936 15.0276C7.64697 15.0615 7.71261 15.0795 7.7795 15.0796C7.79544 15.0796 7.81133 15.0781 7.82769 15.0763C7.90205 15.0667 7.97182 15.035 8.02799 14.9854C8.08416 14.9357 8.12415 14.8703 8.14278 14.7977C9.33191 10.1671 12.8972 9.40166 16.3262 9.35389Z" fill="#121515"/>
</g>
<defs>
<linearGradient id="paint0_linear_4082_27637" x1="9.75701" y1="12.5049" x2="10.5083" y2="20.5173" gradientUnits="userSpaceOnUse">
<stop offset="0.078125" stop-color="#F5A66D"/>
<stop offset="0.880208" stop-color="#D6732C"/>
</linearGradient>
<clipPath id="clip0_4082_27637">
<rect width="32" height="24" fill="white" transform="translate(0 0.833008)"/>
</clipPath>
</defs>
</svg>
