<svg width="70" height="24" viewBox="0 0 70 24" fill="none" xmlns="http://www.w3.org/2000/svg">
<path d="M4.76 16.42V12.72H1.3V10.1H4.76V6.42H7.56V10.1H11.02V12.72H7.56V16.42H4.76ZM21.0536 18.32C19.3336 18.32 17.9469 17.94 16.8936 17.18C15.8403 16.4067 15.3136 15.3733 15.3136 14.08C15.3136 13.3067 15.5203 12.6267 15.9336 12.04C16.3603 11.44 16.9469 10.98 17.6936 10.66V10.6C16.4803 10.0133 15.8736 9.09333 15.8736 7.84C15.8736 6.69333 16.3403 5.77333 17.2736 5.08C18.2069 4.37333 19.4603 4.02 21.0336 4.02C22.6203 4.02 23.8736 4.36 24.7936 5.04C25.7136 5.70667 26.1736 6.62 26.1736 7.78C26.1736 8.96667 25.5736 9.88 24.3736 10.52V10.58C25.1336 10.8733 25.7203 11.32 26.1336 11.92C26.5469 12.52 26.7536 13.2133 26.7536 14C26.7536 15.32 26.2269 16.3733 25.1736 17.16C24.1336 17.9333 22.7603 18.32 21.0536 18.32ZM21.0336 15.82C21.7403 15.82 22.3069 15.64 22.7336 15.28C23.1736 14.92 23.3936 14.4467 23.3936 13.86C23.3936 13.2467 23.1803 12.7533 22.7536 12.38C22.3403 12.0067 21.7736 11.82 21.0536 11.82C20.3469 11.82 19.7669 12.0067 19.3136 12.38C18.8736 12.7533 18.6536 13.2467 18.6536 13.86C18.6536 14.46 18.8669 14.94 19.2936 15.3C19.7336 15.6467 20.3136 15.82 21.0336 15.82ZM19.5336 9.22C19.8936 9.52667 20.3869 9.68 21.0136 9.68C21.6403 9.68 22.1336 9.52667 22.4936 9.22C22.8669 8.9 23.0536 8.49333 23.0536 8C23.0536 7.50667 22.8669 7.10667 22.4936 6.8C22.1336 6.49333 21.6403 6.34 21.0136 6.34C20.3869 6.34 19.8936 6.49333 19.5336 6.8C19.1736 7.10667 18.9936 7.50667 18.9936 8C18.9936 8.49333 19.1736 8.9 19.5336 9.22ZM27.7611 18V14.64H31.1811V18H27.7611ZM37.8881 18.32C36.2748 18.32 34.9415 17.94 33.8881 17.18C32.8481 16.42 32.2481 15.3267 32.0881 13.9H35.3881C35.4948 14.46 35.7681 14.8933 36.2081 15.2C36.6481 15.4933 37.1815 15.64 37.8081 15.64C38.4881 15.64 39.0281 15.4267 39.4281 15C39.8281 14.56 40.0281 13.9933 40.0281 13.3C40.0281 12.6067 39.8215 12.06 39.4081 11.66C38.9948 11.2467 38.4548 11.04 37.7881 11.04C36.9215 11.04 36.2681 11.32 35.8281 11.88H32.6681L34.0681 4.3H42.5681V7H36.4881L36.0081 9.44H36.0481C36.6481 8.89333 37.5348 8.62 38.7081 8.62C40.0548 8.62 41.1748 9.05333 42.0681 9.92C42.9748 10.7733 43.4281 11.9067 43.4281 13.32C43.4281 14.8267 42.9148 16.04 41.8881 16.96C40.8748 17.8667 39.5415 18.32 37.8881 18.32ZM50.3989 18.32C48.4522 18.32 46.9656 17.6733 45.9389 16.38C44.9122 15.0867 44.3922 13.38 44.3789 11.26C44.3522 8.88667 44.9056 7.06 46.0389 5.78C47.0656 4.60667 48.5122 4.02 50.3789 4.02C51.7789 4.02 52.9189 4.34667 53.7989 5C54.6789 5.65333 55.2256 6.54667 55.4389 7.68H52.2189C51.9656 6.84 51.3656 6.42 50.4189 6.42C49.5922 6.42 48.9456 6.72 48.4789 7.32C48.0256 7.92 47.7722 8.77333 47.7189 9.88H47.7589C48.5856 9.01333 49.6322 8.58 50.8989 8.58C52.2589 8.58 53.4189 9.03333 54.3789 9.94C55.3522 10.8467 55.8389 12.0133 55.8389 13.44C55.8389 14.8933 55.3256 16.0733 54.2989 16.98C53.2856 17.8733 51.9856 18.32 50.3989 18.32ZM48.5589 15.14C49.0122 15.58 49.5856 15.8 50.2789 15.8C50.9722 15.8 51.5389 15.58 51.9789 15.14C52.4189 14.7 52.6389 14.14 52.6389 13.46C52.6389 12.78 52.4122 12.2133 51.9589 11.76C51.5189 11.2933 50.9589 11.06 50.2789 11.06C49.5589 11.06 48.9789 11.2867 48.5389 11.74C48.1122 12.18 47.8989 12.7533 47.8989 13.46C47.8989 14.14 48.1189 14.7 48.5589 15.14ZM63.0422 18V14.96H56.6622V11.86L63.0022 4.16H66.3222V12.4H68.3022V14.96H66.3222V18H63.0422ZM59.2022 12.4H63.0422V7.7H63.0022L59.2022 12.36V12.4Z" fill="#22BB5F"/>
</svg>
