<svg width="64" height="24" viewBox="0 0 64 24" fill="none" xmlns="http://www.w3.org/2000/svg">
<path d="M3.74547 14.38V11.58H9.18547V14.38H3.74547ZM16.0223 18.32C14.3023 18.32 12.9157 17.94 11.8623 17.18C10.809 16.4067 10.2823 15.3733 10.2823 14.08C10.2823 13.3067 10.489 12.6267 10.9023 12.04C11.329 11.44 11.9157 10.98 12.6623 10.66V10.6C11.449 10.0133 10.8423 9.09333 10.8423 7.84C10.8423 6.69333 11.309 5.77333 12.2423 5.08C13.1757 4.37333 14.429 4.02 16.0023 4.02C17.589 4.02 18.8423 4.36 19.7623 5.04C20.6823 5.70667 21.1423 6.62 21.1423 7.78C21.1423 8.96667 20.5423 9.88 19.3423 10.52V10.58C20.1023 10.8733 20.689 11.32 21.1023 11.92C21.5157 12.52 21.7223 13.2133 21.7223 14C21.7223 15.32 21.1957 16.3733 20.1423 17.16C19.1023 17.9333 17.729 18.32 16.0223 18.32ZM16.0023 15.82C16.709 15.82 17.2757 15.64 17.7023 15.28C18.1423 14.92 18.3623 14.4467 18.3623 13.86C18.3623 13.2467 18.149 12.7533 17.7223 12.38C17.309 12.0067 16.7423 11.82 16.0223 11.82C15.3157 11.82 14.7357 12.0067 14.2823 12.38C13.8423 12.7533 13.6223 13.2467 13.6223 13.86C13.6223 14.46 13.8357 14.94 14.2623 15.3C14.7023 15.6467 15.2823 15.82 16.0023 15.82ZM14.5023 9.22C14.8623 9.52667 15.3557 9.68 15.9823 9.68C16.609 9.68 17.1023 9.52667 17.4623 9.22C17.8357 8.9 18.0223 8.49333 18.0223 8C18.0223 7.50667 17.8357 7.10667 17.4623 6.8C17.1023 6.49333 16.609 6.34 15.9823 6.34C15.3557 6.34 14.8623 6.49333 14.5023 6.8C14.1423 7.10667 13.9623 7.50667 13.9623 8C13.9623 8.49333 14.1423 8.9 14.5023 9.22ZM22.7298 18V14.64H26.1498V18H22.7298ZM32.8569 18.32C31.2435 18.32 29.9102 17.94 28.8569 17.18C27.8169 16.42 27.2169 15.3267 27.0569 13.9H30.3569C30.4635 14.46 30.7369 14.8933 31.1769 15.2C31.6169 15.4933 32.1502 15.64 32.7769 15.64C33.4569 15.64 33.9969 15.4267 34.3969 15C34.7969 14.56 34.9969 13.9933 34.9969 13.3C34.9969 12.6067 34.7902 12.06 34.3769 11.66C33.9635 11.2467 33.4235 11.04 32.7569 11.04C31.8902 11.04 31.2369 11.32 30.7969 11.88H27.6369L29.0369 4.3H37.5369V7H31.4569L30.9769 9.44H31.0169C31.6169 8.89333 32.5035 8.62 33.6769 8.62C35.0235 8.62 36.1435 9.05333 37.0369 9.92C37.9435 10.7733 38.3969 11.9067 38.3969 13.32C38.3969 14.8267 37.8835 16.04 36.8569 16.96C35.8435 17.8667 34.5102 18.32 32.8569 18.32ZM45.3677 18.32C43.421 18.32 41.9343 17.6733 40.9077 16.38C39.881 15.0867 39.361 13.38 39.3477 11.26C39.321 8.88667 39.8743 7.06 41.0077 5.78C42.0343 4.60667 43.481 4.02 45.3477 4.02C46.7477 4.02 47.8877 4.34667 48.7677 5C49.6477 5.65333 50.1943 6.54667 50.4077 7.68H47.1877C46.9343 6.84 46.3343 6.42 45.3877 6.42C44.561 6.42 43.9143 6.72 43.4477 7.32C42.9943 7.92 42.741 8.77333 42.6877 9.88H42.7277C43.5543 9.01333 44.601 8.58 45.8677 8.58C47.2277 8.58 48.3877 9.03333 49.3477 9.94C50.321 10.8467 50.8077 12.0133 50.8077 13.44C50.8077 14.8933 50.2943 16.0733 49.2677 16.98C48.2543 17.8733 46.9543 18.32 45.3677 18.32ZM43.5277 15.14C43.981 15.58 44.5543 15.8 45.2477 15.8C45.941 15.8 46.5077 15.58 46.9477 15.14C47.3877 14.7 47.6077 14.14 47.6077 13.46C47.6077 12.78 47.381 12.2133 46.9277 11.76C46.4877 11.2933 45.9277 11.06 45.2477 11.06C44.5277 11.06 43.9477 11.2867 43.5077 11.74C43.081 12.18 42.8677 12.7533 42.8677 13.46C42.8677 14.14 43.0877 14.7 43.5277 15.14ZM58.0109 18V14.96H51.6309V11.86L57.9709 4.16H61.2909V12.4H63.2709V14.96H61.2909V18H58.0109ZM54.1709 12.4H58.0109V7.7H57.9709L54.1709 12.36V12.4Z" fill="#E72529"/>
</svg>
