<svg width="132" height="8" viewBox="0 0 132 8" fill="none" xmlns="http://www.w3.org/2000/svg">
<path fill-rule="evenodd" clip-rule="evenodd" d="M4 7C5.65685 7 7 5.65685 7 4C7 2.34315 5.65685 1 4 1C2.34315 1 1 2.34315 1 4C1 5.65685 2.34315 7 4 7ZM4 8C6.20914 8 8 6.20914 8 4C8 1.79086 6.20914 0 4 0C1.79086 0 0 1.79086 0 4C0 6.20914 1.79086 8 4 8Z" fill="#067782"/>
<path fill-rule="evenodd" clip-rule="evenodd" d="M124 4.5H8V3.5H124V4.5Z" fill="#067782"/>
<path fill-rule="evenodd" clip-rule="evenodd" d="M128 7C129.657 7 131 5.65685 131 4C131 2.34315 129.657 1 128 1C126.343 1 125 2.34315 125 4C125 5.65685 126.343 7 128 7ZM128 8C130.209 8 132 6.20914 132 4C132 1.79086 130.209 0 128 0C125.791 0 124 1.79086 124 4C124 6.20914 125.791 8 128 8Z" fill="#067782"/>
</svg>
