<svg width="80" height="32" viewBox="0 0 80 32" fill="none" xmlns="http://www.w3.org/2000/svg">
<g filter="url(#filter0_b_3575_34526)">
<rect width="80" height="32" rx="8" fill="#EBF0ED"/>
<rect x="0.5" y="0.5" width="79" height="31" rx="7.5" stroke="#DFDFD5"/>
<path d="M12.938 20.5V10.49H20.008V11.596H14.198V14.76H19.476V15.824H14.198V19.338H20.176V20.5H12.938ZM24.0739 20.71C23.0846 20.71 22.3006 20.3693 21.7219 19.688C21.1526 18.9973 20.8679 18.0687 20.8679 16.902C20.8679 15.726 21.1666 14.7973 21.7639 14.116C22.3612 13.4347 23.1219 13.094 24.0459 13.094C25.0259 13.094 25.7819 13.4907 26.3139 14.284H26.3419V10.49H27.4759V20.5H26.3419V19.618H26.3139C25.7446 20.346 24.9979 20.71 24.0739 20.71ZM24.1159 19.758C24.8906 19.758 25.4646 19.5013 25.8379 18.988C26.2206 18.4747 26.4119 17.784 26.4119 16.916C26.4119 16.0573 26.2066 15.3667 25.7959 14.844C25.3946 14.3213 24.8299 14.06 24.1019 14.06C23.4392 14.06 22.9259 14.326 22.5619 14.858C22.2072 15.3807 22.0299 16.0667 22.0299 16.916C22.0299 17.7653 22.2072 18.4513 22.5619 18.974C22.9259 19.4967 23.4439 19.758 24.1159 19.758ZM29.0122 20.5V13.262H30.1462V20.5H29.0122ZM29.0122 11.89V10.49H30.1462V11.89H29.0122ZM31.2299 14.186V13.262H32.2799V10.98H33.4139V13.262H34.8139V14.186H33.4139V18.89C33.4139 19.338 33.6565 19.562 34.1419 19.562C34.3472 19.562 34.5479 19.5293 34.7439 19.464H34.7859V20.444C34.4779 20.5093 34.1745 20.542 33.8759 20.542C32.8119 20.542 32.2799 20.0753 32.2799 19.142V14.186H31.2299Z" fill="#353535"/>
<path d="M53.2429 21.4999L53.2429 21.4999H53.24H49C48.8674 21.4999 48.7402 21.4473 48.6464 21.3535C48.5527 21.2597 48.5 21.1325 48.5 20.9999L48.5 16.7599L48.5 16.757C48.4996 16.6912 48.5122 16.626 48.5371 16.5651C48.5619 16.5045 48.5983 16.4494 48.6443 16.4028C48.6445 16.4025 48.6447 16.4023 48.645 16.402L55.5833 9.47375L55.5842 9.47287L58.4042 6.64287L58.405 6.64204C58.4515 6.59517 58.5068 6.55798 58.5677 6.53259C58.6286 6.50721 58.694 6.49414 58.76 6.49414C58.826 6.49414 58.8914 6.50721 58.9523 6.53259C59.0131 6.55794 59.0684 6.59508 59.1148 6.64185C59.1149 6.64192 59.1149 6.64198 59.115 6.64204L63.3544 10.9314L63.3544 10.9314L63.3579 10.9349C63.4048 10.9814 63.442 11.0367 63.4673 11.0976C63.4927 11.1586 63.5058 11.2239 63.5058 11.2899C63.5058 11.3559 63.4927 11.4213 63.4673 11.4822C63.4421 11.5428 63.4052 11.5977 63.3588 11.644C63.3585 11.6443 63.3582 11.6446 63.3579 11.6449L60.5202 14.4226L60.5202 14.4226L60.5162 14.4266L53.5979 21.3549C53.5977 21.3552 53.5974 21.3554 53.5972 21.3556C53.5506 21.4016 53.4955 21.4381 53.4348 21.4628C53.3739 21.4877 53.3087 21.5003 53.2429 21.4999ZM59.1136 8.05639L58.76 7.70283L58.4064 8.05639L56.9864 9.47639L56.6329 9.82994L56.9864 10.1835L59.8164 13.0135L60.17 13.367L60.5236 13.0135L61.9436 11.5935L62.2971 11.2399L61.9436 10.8864L59.1136 8.05639ZM49.6464 16.8164L49.5 16.9628V17.1699V19.9999V20.4999H50H52.83H53.0371L53.1836 20.3535L59.1136 14.4235L59.4671 14.0699L59.1136 13.7164L56.2836 10.8864L55.93 10.5328L55.5764 10.8864L49.6464 16.8164ZM47 24.4999H65C65.1326 24.4999 65.2598 24.5526 65.3536 24.6464C65.4473 24.7402 65.5 24.8673 65.5 24.9999C65.5 25.1325 65.4473 25.2597 65.3536 25.3535C65.2598 25.4473 65.1326 25.4999 65 25.4999H47C46.8674 25.4999 46.7402 25.4473 46.6464 25.3535C46.5527 25.2597 46.5 25.1325 46.5 24.9999C46.5 24.8673 46.5527 24.7402 46.6464 24.6464C46.7402 24.5526 46.8674 24.4999 47 24.4999Z" fill="#545E5E" stroke="#545E5E"/>
</g>
<defs>
<filter id="filter0_b_3575_34526" x="-15" y="-15" width="110" height="62" filterUnits="userSpaceOnUse" color-interpolation-filters="sRGB">
<feFlood flood-opacity="0" result="BackgroundImageFix"/>
<feGaussianBlur in="BackgroundImageFix" stdDeviation="7.5"/>
<feComposite in2="SourceAlpha" operator="in" result="effect1_backgroundBlur_3575_34526"/>
<feBlend mode="normal" in="SourceGraphic" in2="effect1_backgroundBlur_3575_34526" result="shape"/>
</filter>
</defs>
</svg>
