<svg width="24" height="22" viewBox="0 0 24 22" fill="none" xmlns="http://www.w3.org/2000/svg">
<path d="M1.5 4.24979H1.6065C1.7702 4.89297 2.14354 5.46328 2.66754 5.87062C3.19153 6.27795 3.83631 6.49908 4.5 6.49908C5.16369 6.49908 5.80847 6.27795 6.33246 5.87062C6.85646 5.46328 7.2298 4.89297 7.3935 4.24979H22.5C22.6989 4.24979 22.8897 4.17077 23.0303 4.03012C23.171 3.88946 23.25 3.6987 23.25 3.49979C23.25 3.30087 23.171 3.11011 23.0303 2.96946C22.8897 2.8288 22.6989 2.74979 22.5 2.74979H7.3935C7.2298 2.1066 6.85646 1.53629 6.33246 1.12896C5.80847 0.721622 5.16369 0.500488 4.5 0.500488C3.83631 0.500488 3.19153 0.721622 2.66754 1.12896C2.14354 1.53629 1.7702 2.1066 1.6065 2.74979H1.5C1.30109 2.74979 1.11032 2.8288 0.96967 2.96946C0.829018 3.11011 0.75 3.30087 0.75 3.49979C0.75 3.6987 0.829018 3.88946 0.96967 4.03012C1.11032 4.17077 1.30109 4.24979 1.5 4.24979ZM4.5 1.99979C4.79667 1.99979 5.08668 2.08776 5.33335 2.25258C5.58003 2.4174 5.77229 2.65167 5.88582 2.92576C5.99935 3.19985 6.02906 3.50145 5.97118 3.79242C5.9133 4.08339 5.77044 4.35067 5.56066 4.56045C5.35088 4.77023 5.08361 4.91309 4.79264 4.97096C4.50166 5.02884 4.20006 4.99914 3.92597 4.88561C3.65189 4.77207 3.41762 4.57982 3.2528 4.33314C3.08797 4.08647 3 3.79646 3 3.49979C3 3.10196 3.15804 2.72043 3.43934 2.43913C3.72064 2.15782 4.10218 1.99979 4.5 1.99979ZM22.5 10.2498H22.3935C22.2298 9.6066 21.8565 9.03629 21.3325 8.62896C20.8085 8.22162 20.1637 8.00049 19.5 8.00049C18.8363 8.00049 18.1915 8.22162 17.6675 8.62896C17.1435 9.03629 16.7702 9.6066 16.6065 10.2498H1.5C1.30109 10.2498 1.11032 10.3288 0.96967 10.4695C0.829018 10.6101 0.75 10.8009 0.75 10.9998C0.75 11.1987 0.829018 11.3895 0.96967 11.5301C1.11032 11.6708 1.30109 11.7498 1.5 11.7498H16.6065C16.7702 12.393 17.1435 12.9633 17.6675 13.3706C18.1915 13.778 18.8363 13.9991 19.5 13.9991C20.1637 13.9991 20.8085 13.778 21.3325 13.3706C21.8565 12.9633 22.2298 12.393 22.3935 11.7498H22.5C22.6989 11.7498 22.8897 11.6708 23.0303 11.5301C23.171 11.3895 23.25 11.1987 23.25 10.9998C23.25 10.8009 23.171 10.6101 23.0303 10.4695C22.8897 10.3288 22.6989 10.2498 22.5 10.2498ZM19.5 12.4998C19.2033 12.4998 18.9133 12.4118 18.6666 12.247C18.42 12.0822 18.2277 11.8479 18.1142 11.5738C18.0006 11.2997 17.9709 10.9981 18.0288 10.7072C18.0867 10.4162 18.2296 10.1489 18.4393 9.93913C18.6491 9.72935 18.9164 9.58649 19.2074 9.52861C19.4983 9.47073 19.7999 9.50044 20.074 9.61397C20.3481 9.7275 20.5824 9.91976 20.7472 10.1664C20.912 10.4131 21 10.7031 21 10.9998C21 11.3976 20.842 11.7791 20.5607 12.0604C20.2794 12.3418 19.8978 12.4998 19.5 12.4998ZM22.5 17.7498H14.8935C14.7298 17.1066 14.3565 16.5363 13.8325 16.129C13.3085 15.7216 12.6637 15.5005 12 15.5005C11.3363 15.5005 10.6915 15.7216 10.1675 16.129C9.64354 16.5363 9.2702 17.1066 9.1065 17.7498H1.5C1.30109 17.7498 1.11032 17.8288 0.96967 17.9695C0.829018 18.1101 0.75 18.3009 0.75 18.4998C0.75 18.6987 0.829018 18.8895 0.96967 19.0301C1.11032 19.1708 1.30109 19.2498 1.5 19.2498H9.1065C9.2702 19.893 9.64354 20.4633 10.1675 20.8706C10.6915 21.278 11.3363 21.4991 12 21.4991C12.6637 21.4991 13.3085 21.278 13.8325 20.8706C14.3565 20.4633 14.7298 19.893 14.8935 19.2498H22.5C22.6989 19.2498 22.8897 19.1708 23.0303 19.0301C23.171 18.8895 23.25 18.6987 23.25 18.4998C23.25 18.3009 23.171 18.1101 23.0303 17.9695C22.8897 17.8288 22.6989 17.7498 22.5 17.7498ZM12 19.9998C11.7033 19.9998 11.4133 19.9118 11.1666 19.747C10.92 19.5822 10.7277 19.3479 10.6142 19.0738C10.5006 18.7997 10.4709 18.4981 10.5288 18.2072C10.5867 17.9162 10.7296 17.6489 10.9393 17.4391C11.1491 17.2293 11.4164 17.0865 11.7074 17.0286C11.9983 16.9707 12.2999 17.0004 12.574 17.114C12.8481 17.2275 13.0824 17.4198 13.2472 17.6664C13.412 17.9131 13.5 18.2031 13.5 18.4998C13.5 18.8976 13.342 19.2791 13.0607 19.5604C12.7794 19.8418 12.3978 19.9998 12 19.9998Z" fill="#545E5E"/>
</svg>
