<svg width="110" height="32" viewBox="0 0 110 32" fill="none" xmlns="http://www.w3.org/2000/svg">
<g filter="url(#filter0_b_3575_34517)">
<rect width="110" height="32" rx="8" fill="#00D6D9"/>
<rect x="0.5" y="0.5" width="109" height="31" rx="7.5" stroke="#DFDFD5"/>
<path d="M12.77 20.5V10.49H17.166C18.3047 10.49 19.1773 10.8027 19.784 11.428C20.3813 12.044 20.68 12.8047 20.68 13.71C20.68 14.662 20.3813 15.4273 19.784 16.006C19.1867 16.5847 18.37 16.874 17.334 16.874H14.87V20.5H12.77ZM14.87 12.254V15.222H16.97C17.4927 15.222 17.894 15.0913 18.174 14.83C18.454 14.5593 18.594 14.1907 18.594 13.724C18.594 13.2573 18.454 12.898 18.174 12.646C17.894 12.3847 17.502 12.254 16.998 12.254H14.87ZM23.3641 13.318V14.466H23.4061C23.6301 14.046 23.8774 13.738 24.1481 13.542C24.4187 13.3367 24.7594 13.234 25.1701 13.234C25.3661 13.234 25.5154 13.2527 25.6181 13.29V14.956H25.5761C24.9321 14.8907 24.4141 15.0307 24.0221 15.376C23.6301 15.7213 23.4341 16.2627 23.4341 17V20.5H21.5301V13.318H23.3641ZM32.3372 19.632C31.6372 20.3507 30.7365 20.71 29.6352 20.71C28.5339 20.71 27.6332 20.3507 26.9332 19.632C26.2332 18.904 25.8832 17.9987 25.8832 16.916C25.8832 15.8333 26.2332 14.9327 26.9332 14.214C27.6332 13.486 28.5339 13.122 29.6352 13.122C30.7365 13.122 31.6372 13.486 32.3372 14.214C33.0372 14.9327 33.3872 15.8333 33.3872 16.916C33.3872 17.9987 33.0372 18.904 32.3372 19.632ZM29.6352 19.254C30.2045 19.254 30.6479 19.044 30.9652 18.624C31.2919 18.1947 31.4552 17.6253 31.4552 16.916C31.4552 16.2067 31.2919 15.6373 30.9652 15.208C30.6479 14.7787 30.2045 14.564 29.6352 14.564C29.0565 14.564 28.6085 14.7787 28.2912 15.208C27.9739 15.628 27.8152 16.1973 27.8152 16.916C27.8152 17.6253 27.9739 18.1947 28.2912 18.624C28.6085 19.044 29.0565 19.254 29.6352 19.254ZM34.2723 20.5V13.318H36.1063V14.284H36.1483C36.6056 13.5093 37.3009 13.122 38.2343 13.122C38.6823 13.122 39.0789 13.2387 39.4243 13.472C39.7789 13.696 40.0449 13.9993 40.2223 14.382H40.2503C40.7729 13.542 41.4916 13.122 42.4062 13.122C43.1529 13.122 43.7316 13.3507 44.1423 13.808C44.5623 14.256 44.7723 14.8767 44.7723 15.67V20.5H42.8683V15.992C42.8683 15.1707 42.4996 14.76 41.7623 14.76C41.3609 14.76 41.0436 14.9047 40.8103 15.194C40.5863 15.474 40.4743 15.852 40.4743 16.328V20.5H38.5703V15.992C38.5703 15.1707 38.2016 14.76 37.4643 14.76C37.0816 14.76 36.7689 14.9047 36.5263 15.194C36.2929 15.474 36.1763 15.852 36.1763 16.328V20.5H34.2723ZM52.052 19.632C51.352 20.3507 50.4514 20.71 49.35 20.71C48.2487 20.71 47.348 20.3507 46.648 19.632C45.948 18.904 45.598 17.9987 45.598 16.916C45.598 15.8333 45.948 14.9327 46.648 14.214C47.348 13.486 48.2487 13.122 49.35 13.122C50.4514 13.122 51.352 13.486 52.052 14.214C52.752 14.9327 53.102 15.8333 53.102 16.916C53.102 17.9987 52.752 18.904 52.052 19.632ZM49.35 19.254C49.9194 19.254 50.3627 19.044 50.68 18.624C51.0067 18.1947 51.17 17.6253 51.17 16.916C51.17 16.2067 51.0067 15.6373 50.68 15.208C50.3627 14.7787 49.9194 14.564 49.35 14.564C48.7714 14.564 48.3234 14.7787 48.006 15.208C47.6887 15.628 47.53 16.1973 47.53 16.916C47.53 17.6253 47.6887 18.1947 48.006 18.624C48.3234 19.044 48.7714 19.254 49.35 19.254ZM53.4304 14.578V13.318H54.4244V11.078H56.2864V13.318H57.5184V14.578H56.2864V18.386C56.2864 18.862 56.5244 19.1 57.0004 19.1L57.5604 19.086V20.486C57.271 20.5047 56.8744 20.514 56.3704 20.514C55.8197 20.514 55.3577 20.3833 54.9844 20.122C54.611 19.8513 54.4244 19.408 54.4244 18.792V14.578H53.4304ZM61.8045 20.71C60.6471 20.71 59.7371 20.3553 59.0745 19.646C58.4118 18.9273 58.0805 18.0127 58.0805 16.902C58.0805 15.8287 58.4118 14.9327 59.0745 14.214C59.7371 13.486 60.5865 13.122 61.6225 13.122C62.7518 13.122 63.6245 13.514 64.2405 14.298C64.8565 15.082 65.1645 16.132 65.1645 17.448H59.9565C60.0311 18.0173 60.2225 18.4607 60.5305 18.778C60.8385 19.086 61.2585 19.24 61.7905 19.24C62.4905 19.24 62.9525 18.946 63.1765 18.358H65.0525C64.9125 19.03 64.5578 19.59 63.9885 20.038C63.4191 20.486 62.6911 20.71 61.8045 20.71ZM61.6505 14.592C60.7265 14.592 60.1711 15.1053 59.9845 16.132H63.1765C63.1485 15.6747 62.9945 15.306 62.7145 15.026C62.4345 14.7367 62.0798 14.592 61.6505 14.592Z" fill="black"/>
<path d="M95.732 18.3367C95.4653 17.8707 95.0333 17.5387 94.5167 17.4007C94 17.2627 93.4613 17.3367 93.0307 17.588L89.5207 19.382C89.1527 18.948 88.6113 18.6667 88 18.6667H82.6667C81.722 18.6667 80.7467 19.1807 80.0927 20H79.3333C79.3333 19.632 79.0347 19.3333 78.6667 19.3333H76.6667C76.2987 19.3333 76 19.632 76 20V25.3333C76 25.7013 76.2987 26 76.6667 26H78.6667C79.0347 26 79.3333 25.7013 79.3333 25.3333H86.6667C87.1607 25.3333 87.8447 25.128 88.216 24.88L94.9933 21.0693L95.06 21.0267C95.9967 20.3427 96.2667 19.2613 95.732 18.3367ZM78 24.6667H77.3333V20.6667H78V24.6667ZM94.3027 19.9287L87.522 23.7427C87.3253 23.8727 86.902 24 86.6667 24H79.3333V21.3333H80.4333C80.66 21.3333 80.8713 21.218 80.994 21.0273C81.3893 20.4127 82.0613 20 82.6667 20H88C88.368 20 88.6667 20.2993 88.6667 20.6667C88.6667 21.034 88.368 21.3333 88 21.3333H84C83.632 21.3333 83.3333 21.632 83.3333 22C83.3333 22.368 83.632 22.6667 84 22.6667H88C89.1027 22.6667 90 21.7693 90 20.6667C90 20.656 89.9967 20.646 89.9967 20.636L93.6693 18.758C93.8233 18.668 94.0033 18.644 94.172 18.6887C94.3433 18.7347 94.4867 18.8447 94.5767 19.0027C94.8127 19.41 94.5653 19.7273 94.3027 19.9287ZM78 16.6667H94C94.3687 16.6667 94.6667 16.368 94.6667 16V6.66667C94.6667 6.29867 94.3687 6 94 6H78C77.632 6 77.3333 6.29867 77.3333 6.66667V16C77.3333 16.368 77.632 16.6667 78 16.6667ZM81.266 7.33333H90.7347C91 8.63733 92.0293 9.66667 93.3333 9.93267V12.734C92.0293 13 91 14.0293 90.7347 15.3333H81.266C81 14.0293 79.9707 13 78.6667 12.734V9.93267C79.9707 9.66667 81 8.63733 81.266 7.33333ZM78.6667 14.1227C79.2313 14.324 79.676 14.7687 79.8773 15.3333H78.6667V14.1227ZM92.1233 15.3333C92.3247 14.7687 92.7687 14.324 93.3333 14.1227V15.3333H92.1233ZM93.3333 8.54333C92.768 8.34267 92.324 7.898 92.1233 7.33333H93.3333V8.54333ZM79.8773 7.33333C79.676 7.898 79.2313 8.34267 78.6667 8.544V7.33333H79.8773Z" fill="black"/>
<path d="M86 14.5C88.0677 14.5 89.75 12.8177 89.75 10.75C89.75 8.68225 88.0677 7 86 7C83.9323 7 82.25 8.68225 82.25 10.75C82.25 12.8177 83.9323 14.5 86 14.5ZM86 8.5C87.2405 8.5 88.25 9.5095 88.25 10.75C88.25 11.9905 87.2405 13 86 13C84.7595 13 83.75 11.9905 83.75 10.75C83.75 9.5095 84.7595 8.5 86 8.5Z" fill="black"/>
</g>
<defs>
<filter id="filter0_b_3575_34517" x="-15" y="-15" width="140" height="62" filterUnits="userSpaceOnUse" color-interpolation-filters="sRGB">
<feFlood flood-opacity="0" result="BackgroundImageFix"/>
<feGaussianBlur in="BackgroundImageFix" stdDeviation="7.5"/>
<feComposite in2="SourceAlpha" operator="in" result="effect1_backgroundBlur_3575_34517"/>
<feBlend mode="normal" in="SourceGraphic" in2="effect1_backgroundBlur_3575_34517" result="shape"/>
</filter>
</defs>
</svg>
