<svg width="21" height="21" viewBox="0 0 21 21" fill="none" xmlns="http://www.w3.org/2000/svg">
<path d="M19.29 20.7099L15.61 16.9999C13.8144 18.44 11.5353 19.1374 9.2413 18.9487C6.9473 18.76 4.81278 17.6996 3.27664 15.9854C1.7405 14.2713 0.919506 12.0337 0.982467 9.73283C1.04543 7.43194 1.98756 5.24263 3.61514 3.61505C5.24272 1.98747 7.43203 1.04533 9.73292 0.982374C12.0338 0.919414 14.2714 1.74041 15.9855 3.27655C17.6997 4.81269 18.7601 6.94721 18.9488 9.2412C19.1375 11.5352 18.4401 13.8143 17 15.6099L20.68 19.2899C20.7737 19.3829 20.8481 19.4935 20.8989 19.6153C20.9497 19.7372 20.9758 19.8679 20.9758 19.9999C20.9758 20.1319 20.9497 20.2626 20.8989 20.3845C20.8481 20.5063 20.7737 20.6169 20.68 20.7099C20.4935 20.8901 20.2443 20.9909 19.985 20.9909C19.7257 20.9909 19.4765 20.8901 19.29 20.7099ZM17 9.9999C17 8.61543 16.5895 7.26206 15.8203 6.11091C15.0511 4.95977 13.9579 4.06256 12.6788 3.53275C11.3997 3.00293 9.99223 2.86431 8.63436 3.13441C7.2765 3.4045 6.02922 4.07119 5.05025 5.05016C4.07128 6.02912 3.4046 7.27641 3.1345 8.63427C2.8644 9.99214 3.00303 11.3996 3.53284 12.6787C4.06265 13.9578 4.95986 15.051 6.11101 15.8202C7.26215 16.5894 8.61553 16.9999 10 16.9999C11.8565 16.9999 13.637 16.2624 14.9497 14.9497C16.2625 13.6369 17 11.8564 17 9.9999Z" fill="#545E5E"/>
</svg>
