<svg width="119" height="18" viewBox="0 0 119 18" fill="none" xmlns="http://www.w3.org/2000/svg">
<path d="M32.5199 13.5C32.5479 12.912 32.6459 12.394 32.8139 11.946C32.9913 11.498 33.2853 11.0873 33.6959 10.714C34.1159 10.3407 34.4426 10.0747 34.6759 9.916C34.9186 9.748 35.3386 9.49133 35.9359 9.146C35.9546 9.12733 35.9686 9.118 35.9779 9.118C35.9873 9.10867 36.0013 9.09933 36.0199 9.09C36.0386 9.08067 36.0526 9.07133 36.0619 9.062C36.0806 9.05267 36.0993 9.04333 36.1179 9.034C36.8553 8.60467 37.3779 8.236 37.6859 7.928C37.9939 7.61067 38.1479 7.186 38.1479 6.654C38.1479 6.066 37.9566 5.59 37.5739 5.226C37.2006 4.862 36.6966 4.68 36.0619 4.68C35.4179 4.68 34.9093 4.88067 34.5359 5.282C34.1719 5.674 33.9899 6.31333 33.9899 7.2H32.7579C32.7579 6.07067 33.0613 5.20267 33.6679 4.596C34.2746 3.99867 35.1053 3.7 36.1599 3.7C37.1213 3.7 37.8959 3.97533 38.4839 4.526C39.0719 5.07667 39.3659 5.78133 39.3659 6.64C39.3659 6.98533 39.3146 7.30267 39.2119 7.592C39.1093 7.88133 39.0019 8.11467 38.8899 8.292C38.7779 8.46933 38.5726 8.67467 38.2739 8.908C37.9753 9.132 37.7513 9.286 37.6019 9.37C37.4619 9.454 37.1819 9.61267 36.7619 9.846C36.6779 9.89267 36.6126 9.93 36.5659 9.958C36.1179 10.21 35.7446 10.4293 35.4459 10.616C35.1566 10.8027 34.8533 11.064 34.5359 11.4C34.2186 11.7267 34.0179 12.0533 33.9339 12.38H39.1699V13.5H32.5199ZM44.3274 13.5V11.148H39.8054V10.098L44.5514 3.812H45.4754V10.21H47.0574V11.148H45.4754V13.5H44.3274ZM40.9394 10.168V10.21H44.3274V5.716H44.2994L40.9394 10.168ZM47.5951 13.5L51.5711 3.49H52.7471L48.7711 13.5H47.5951ZM56.6267 13.71C55.5347 13.71 54.6294 13.4113 53.9107 12.814C53.1921 12.2167 52.8234 11.3907 52.8047 10.336H53.9667C53.9854 11.1013 54.2234 11.694 54.6807 12.114C55.1474 12.5247 55.7821 12.73 56.5847 12.73C57.2754 12.73 57.8261 12.562 58.2367 12.226C58.6474 11.8807 58.8527 11.3767 58.8527 10.714C58.8527 10.1073 58.6334 9.64533 58.1947 9.328C57.7654 9.01067 57.1447 8.852 56.3327 8.852H55.7307V7.942H56.3187C57.0561 7.942 57.6161 7.79733 57.9987 7.508C58.3814 7.21867 58.5727 6.81267 58.5727 6.29C58.5727 5.77667 58.3721 5.37067 57.9707 5.072C57.5787 4.764 57.0841 4.61 56.4867 4.61C55.8054 4.61 55.2641 4.81533 54.8627 5.226C54.4707 5.62733 54.2747 6.164 54.2747 6.836H53.1267C53.1361 5.884 53.4441 5.12333 54.0507 4.554C54.6574 3.97533 55.4834 3.686 56.5287 3.686C57.4434 3.686 58.2041 3.924 58.8107 4.4C59.4174 4.86667 59.7207 5.506 59.7207 6.318C59.7207 7.30733 59.1934 7.97933 58.1387 8.334V8.376C59.4267 8.712 60.0707 9.52867 60.0707 10.826C60.0707 11.722 59.7441 12.4267 59.0907 12.94C58.4467 13.4533 57.6254 13.71 56.6267 13.71ZM64.8914 13.71C63.9114 13.71 63.1134 13.4253 62.4974 12.856C62.0028 12.408 61.6528 11.8527 61.4474 11.19C61.2421 10.518 61.1394 9.66867 61.1394 8.642C61.1394 7.12067 61.4568 5.91667 62.0914 5.03C62.7354 4.134 63.6548 3.686 64.8494 3.686C65.7548 3.686 66.4641 3.94267 66.9774 4.456C67.4908 4.96 67.7894 5.59 67.8734 6.346H66.7114C66.6648 5.87 66.4781 5.47333 66.1514 5.156C65.8341 4.83867 65.4094 4.68 64.8774 4.68C63.9814 4.68 63.3281 5.016 62.9174 5.688C62.5161 6.35067 62.3061 7.30267 62.2874 8.544H62.3154C62.9594 7.65733 63.8368 7.214 64.9474 7.214C65.8248 7.214 66.5668 7.53133 67.1734 8.166C67.7894 8.79133 68.1021 9.54733 68.1114 10.434C68.1208 11.33 67.8081 12.1 67.1734 12.744C66.5481 13.388 65.7874 13.71 64.8914 13.71ZM64.8634 12.758C65.4888 12.758 66.0021 12.548 66.4034 12.128C66.8141 11.6987 67.0194 11.148 67.0194 10.476C67.0194 9.804 66.8094 9.25333 66.3894 8.824C65.9694 8.39467 65.4468 8.18 64.8214 8.18C64.1308 8.18 63.5708 8.39 63.1414 8.81C62.7121 9.23 62.4974 9.78067 62.4974 10.462C62.4974 11.134 62.7214 11.6847 63.1694 12.114C63.6174 12.5433 64.1821 12.758 64.8634 12.758ZM71.6567 13.5V6.262H72.7907V13.5H71.6567ZM71.6567 4.89V3.49H72.7907V4.89H71.6567ZM75.4704 6.262V7.214H75.4984C76.0584 6.46733 76.8237 6.094 77.7944 6.094C78.5597 6.094 79.1571 6.29467 79.5864 6.696C80.0157 7.09733 80.2304 7.67133 80.2304 8.418V13.5H79.0964V8.516C79.0964 8.04933 78.9517 7.69 78.6624 7.438C78.3731 7.17667 77.9717 7.046 77.4584 7.046C76.8797 7.046 76.4037 7.23267 76.0304 7.606C75.6571 7.97933 75.4704 8.46 75.4704 9.048V13.5H74.3364V6.262H75.4704ZM87.7694 13.696C86.4254 13.696 85.3894 13.3647 84.6614 12.702C83.9427 12.0393 83.5554 11.176 83.4994 10.112H84.7314C84.8994 11.8293 85.9307 12.688 87.8254 12.688C88.5441 12.688 89.1181 12.5293 89.5474 12.212C89.9861 11.8853 90.2054 11.4187 90.2054 10.812C90.2054 10.5413 90.1541 10.3033 90.0514 10.098C89.9487 9.89267 89.8227 9.72467 89.6734 9.594C89.5334 9.46333 89.3187 9.342 89.0294 9.23C88.7401 9.118 88.4694 9.02933 88.2174 8.964C87.9747 8.89867 87.6387 8.81933 87.2094 8.726C86.6961 8.614 86.2714 8.502 85.9354 8.39C85.5994 8.26867 85.2634 8.10533 84.9274 7.9C84.5914 7.69467 84.3394 7.43333 84.1714 7.116C84.0127 6.78933 83.9334 6.39733 83.9334 5.94C83.9334 5.11867 84.2414 4.47467 84.8574 4.008C85.4827 3.532 86.3087 3.294 87.3354 3.294C89.5847 3.294 90.8494 4.33467 91.1294 6.416H89.9394C89.8461 5.70667 89.5801 5.17467 89.1414 4.82C88.7027 4.456 88.1101 4.274 87.3634 4.274C86.6727 4.274 86.1221 4.414 85.7114 4.694C85.3101 4.974 85.1094 5.37067 85.1094 5.884C85.1094 6.108 85.1514 6.30867 85.2354 6.486C85.3287 6.654 85.4454 6.79867 85.5854 6.92C85.7347 7.032 85.9261 7.13467 86.1594 7.228C86.4021 7.32133 86.6401 7.40067 86.8734 7.466C87.1067 7.522 87.3914 7.58267 87.7274 7.648C88.1941 7.74133 88.5767 7.83 88.8754 7.914C89.1741 7.98867 89.5054 8.10533 89.8694 8.264C90.2334 8.42267 90.5134 8.60467 90.7094 8.81C90.9147 9.01533 91.0874 9.286 91.2274 9.622C91.3767 9.94867 91.4514 10.3313 91.4514 10.77C91.4514 11.6847 91.1107 12.4033 90.4294 12.926C89.7574 13.4393 88.8707 13.696 87.7694 13.696ZM92.2631 7.186V6.262H93.3131V3.98H94.4471V6.262H95.8471V7.186H94.4471V11.89C94.4471 12.338 94.6897 12.562 95.1751 12.562C95.3804 12.562 95.5811 12.5293 95.7771 12.464H95.8191V13.444C95.5111 13.5093 95.2077 13.542 94.9091 13.542C93.8451 13.542 93.3131 13.0753 93.3131 12.142V7.186H92.2631ZM102.578 12.604C101.943 13.332 101.098 13.696 100.044 13.696C98.989 13.696 98.1397 13.332 97.4957 12.604C96.861 11.876 96.5437 10.9707 96.5437 9.888C96.5437 8.80533 96.861 7.9 97.4957 7.172C98.1397 6.444 98.989 6.08 100.044 6.08C101.098 6.08 101.943 6.444 102.578 7.172C103.212 7.9 103.53 8.80533 103.53 9.888C103.53 10.9707 103.212 11.876 102.578 12.604ZM98.3077 11.946C98.7184 12.478 99.297 12.744 100.044 12.744C100.79 12.744 101.364 12.478 101.766 11.946C102.167 11.4047 102.368 10.7187 102.368 9.888C102.368 9.048 102.162 8.362 101.752 7.83C101.35 7.28867 100.781 7.018 100.044 7.018C99.297 7.018 98.7184 7.28867 98.3077 7.83C97.9064 8.37133 97.7057 9.05733 97.7057 9.888C97.7057 10.7187 97.9064 11.4047 98.3077 11.946ZM107.755 13.696C106.7 13.696 105.851 13.332 105.207 12.604C104.572 11.876 104.255 10.9707 104.255 9.888C104.255 8.80533 104.572 7.9 105.207 7.172C105.851 6.444 106.7 6.08 107.755 6.08C108.604 6.08 109.299 6.30867 109.841 6.766C110.382 7.214 110.718 7.82533 110.849 8.6H109.701C109.617 8.10533 109.407 7.718 109.071 7.438C108.735 7.158 108.296 7.018 107.755 7.018C107.008 7.018 106.429 7.28867 106.019 7.83C105.617 8.37133 105.417 9.05733 105.417 9.888C105.417 10.7187 105.617 11.4047 106.019 11.946C106.429 12.478 107.008 12.744 107.755 12.744C108.333 12.744 108.795 12.59 109.141 12.282C109.486 11.9647 109.682 11.5213 109.729 10.952H110.849C110.774 11.82 110.466 12.4967 109.925 12.982C109.383 13.458 108.66 13.696 107.755 13.696ZM116.68 13.5L114.118 9.594L113.054 10.602V13.5H111.92V3.49H113.054V9.356L116.232 6.262H117.674L114.902 8.866L118.01 13.5H116.68Z" fill="#545E5E"/>
</svg>
