<svg width="87" height="84" viewBox="0 0 87 84" fill="none" xmlns="http://www.w3.org/2000/svg">
<path d="M15.0414 44.6958C15.0414 49.7394 19.1301 53.8281 24.1738 53.8281H62.8262C67.8699 53.8281 71.9586 49.7394 71.9586 44.6958V30.63C71.9586 14.9127 59.2172 2.17141 43.5 2.17141C27.7828 2.17141 15.0414 14.9127 15.0414 30.63V44.6958Z" fill="white" stroke="#DEEAEA"/>
<path d="M47.8206 38.7446C47.8144 38.7416 47.8052 38.7416 47.796 38.7383C46.9619 38.5693 46.1705 38.234 45.4689 37.7523C45.3409 37.6658 45.2032 37.5944 45.0588 37.5395V30.0006C47.5987 28.5149 47.8606 24.6038 47.6265 21.5647C47.5602 20.6155 47.4335 19.6715 47.2472 18.7384C47.232 18.6698 47.1937 18.6086 47.1388 18.5648C47.0838 18.5211 47.0155 18.4975 46.9453 18.4981H41.4621C41.3915 18.4982 41.3231 18.5224 41.2682 18.5667C41.2133 18.611 41.1752 18.6727 41.1601 18.7416C40.9776 19.674 40.853 20.6169 40.7871 21.5647C40.5527 24.6038 40.815 28.5149 43.3575 30.0006V37.5425C43.2123 37.5942 43.0745 37.6647 42.9477 37.7523C42.2377 38.2383 41.4368 38.5758 40.593 38.7446C40.5038 38.7646 40.4253 38.8175 40.3733 38.8927C40.3213 38.9679 40.2996 39.06 40.3124 39.1506C40.3252 39.2411 40.3716 39.3236 40.4425 39.3814C40.5133 39.4393 40.6034 39.4683 40.6947 39.4628H47.719C47.8102 39.4683 47.9003 39.4393 47.9711 39.3814C48.042 39.3236 48.0884 39.2411 48.1012 39.1506C48.1141 39.06 48.0923 38.9679 48.0403 38.8927C47.9883 38.8175 47.9098 38.7646 47.8206 38.7446ZM41.7139 19.1144H46.6917C46.7625 19.4936 46.8991 20.2856 46.9844 21.2773H41.4283C41.5145 20.2856 41.647 19.4936 41.7139 19.1144ZM41.3821 21.896H47.0315C47.1764 24.1644 47.0499 27.7644 45.0588 29.2625C44.9367 29.3573 44.8069 29.4418 44.6707 29.5149C44.5993 29.5555 44.5225 29.5854 44.4425 29.6038C44.2889 29.6438 44.1277 29.6438 43.9741 29.6038C43.8933 29.585 43.8155 29.5551 43.743 29.5149C43.6075 29.442 43.4787 29.3576 43.3578 29.2625C41.3634 27.7692 41.2372 24.1629 41.3821 21.896ZM42.2635 38.8477C42.6233 38.6804 42.9686 38.4836 43.2958 38.2592C43.4316 38.1705 43.5821 38.1068 43.7403 38.0711C43.8067 38.0539 43.8657 38.0153 43.908 37.9612C43.9504 37.9072 43.9738 37.8408 43.9747 37.7721V30.2349C44.0511 30.2471 44.1284 30.2532 44.2058 30.2533C44.2851 30.2533 44.3644 30.2472 44.4428 30.2349V37.7552C44.4427 37.8207 44.4632 37.8845 44.5014 37.9377C44.5395 37.9909 44.5935 38.0307 44.6555 38.0515C44.8204 38.0971 44.9773 38.1677 45.1207 38.261C45.4489 38.4831 45.7942 38.6789 46.1533 38.8465L42.2635 38.8477Z" fill="#545E5E"/>
<path d="M55.0308 37.092C55.0199 37.0883 55.0085 37.0863 54.997 37.0861C54.1609 36.9184 53.3686 36.5794 52.6699 36.0905C52.5419 36.0004 52.4024 35.9278 52.2551 35.8745V28.345C54.7885 26.8656 55.0566 22.9604 54.8255 19.9184V19.8967C54.759 18.9526 54.6313 18.0137 54.4433 17.0861C54.4282 17.0172 54.3901 16.9554 54.3352 16.9111C54.2803 16.8669 54.2119 16.8426 54.1413 16.8425H48.6631C48.5926 16.8426 48.5242 16.8669 48.4693 16.9111C48.4144 16.9554 48.3763 17.0172 48.3612 17.0861C48.1803 18.0148 48.0537 18.9533 47.9819 19.8967V19.9184C47.7508 22.9604 48.0157 26.8686 50.5526 28.348V35.8778C50.4067 35.93 50.2679 36.0003 50.1396 36.0872C49.4341 36.5842 48.6316 36.9266 47.7846 37.092C47.6978 37.113 47.6217 37.1651 47.5706 37.2383C47.5196 37.3115 47.497 37.4009 47.5073 37.4896C47.5233 37.5787 47.5713 37.6588 47.6422 37.715C47.7131 37.7712 47.8021 37.7996 47.8925 37.7948H54.9168C55.0063 37.7996 55.0945 37.7716 55.1649 37.716C55.2353 37.6605 55.2829 37.5811 55.299 37.4929C55.311 37.4048 55.2904 37.3154 55.2409 37.2416C55.1915 37.1677 55.1168 37.1145 55.0308 37.092ZM48.9188 17.4588H53.8874C53.9582 17.8381 54.0948 18.6271 54.1802 19.6132H48.6261C48.6908 18.891 48.7885 18.1721 48.9188 17.4588ZM48.5769 20.2298H54.2293C54.3713 22.5012 54.248 26.1104 52.2539 27.6075C52.1306 27.7009 52.0008 27.7854 51.8655 27.8603C51.7936 27.8997 51.7169 27.9296 51.6373 27.9492C51.4838 27.9895 51.3224 27.9895 51.1689 27.9492C51.0893 27.9296 51.0126 27.8997 50.9408 27.8603C50.8053 27.7858 50.6755 27.7014 50.5526 27.6075C48.5585 26.1074 48.432 22.5012 48.5769 20.2298ZM49.4859 37.1779C49.8384 37.0126 50.1757 36.8167 50.4939 36.5924C50.6296 36.5029 50.7801 36.4382 50.9384 36.4013C51.0045 36.384 51.063 36.3453 51.1048 36.2912C51.1466 36.2371 51.1694 36.1707 51.1695 36.1024V28.5791C51.2469 28.5915 51.3252 28.5977 51.4036 28.5978C51.4821 28.5979 51.5604 28.5916 51.6379 28.5791V36.1027C51.6376 36.1716 51.6606 36.2386 51.7031 36.2929C51.7457 36.3472 51.8053 36.3855 51.8723 36.4016C52.0296 36.4371 52.1789 36.5018 52.3123 36.5924C52.6331 36.8161 52.9724 37.0121 53.3265 37.1782L49.4859 37.1779ZM38.8104 26.465C38.7025 26.2675 38.5916 26.07 38.4776 25.8724C37.9409 24.98 37.4943 24.0364 37.1443 23.0555V23.0517C37.1443 23.0487 37.1443 23.0487 37.1411 23.0458L37.1227 22.9841C37.077 22.8427 37.0359 22.6998 36.9994 22.5557C36.5523 20.8511 36.5677 19.7631 36.6572 19.1498C36.6901 18.9092 36.7576 18.6745 36.8575 18.4532C36.8821 18.4102 36.9037 18.3643 36.9283 18.3178L36.9562 18.2585C37.097 17.9432 37.1705 17.602 37.1719 17.2567V15.4493C37.1707 15.2406 37.0867 15.041 36.9384 14.8942C36.79 14.7474 36.5895 14.6655 36.3808 14.6665H33.312C33.1037 14.666 32.9037 14.7482 32.7558 14.8949C32.6079 15.0416 32.5242 15.241 32.523 15.4493V17.2585C32.5198 17.609 32.5957 17.9556 32.7449 18.2727C32.7541 18.2911 32.7603 18.3095 32.7695 18.3281C32.7856 18.37 32.8054 18.4102 32.8288 18.4484C32.9344 18.67 33.0032 18.9073 33.0323 19.151C33.1277 19.7613 33.1464 20.8461 32.6996 22.5507C32.6523 22.7159 32.6019 22.8803 32.5485 23.0437C32.5485 23.047 32.5455 23.0499 32.5455 23.0529C32.2018 24.0197 31.763 24.95 31.2356 25.8301C31.1171 26.0375 31.0042 26.2449 30.8934 26.4523C30.8901 26.4553 30.8871 26.4615 30.8842 26.4647V26.4677C30.2954 27.5344 29.6667 28.7978 29.6667 30.3942V40.0016C29.6664 40.3536 29.8056 40.6914 30.0538 40.941C30.3021 41.1906 30.6391 41.3316 30.9911 41.3332H38.7025C39.0544 41.3318 39.3914 41.1907 39.6394 40.9411C39.8874 40.6914 40.0261 40.3535 40.0252 40.0016V30.3945C40.0252 28.8073 39.4056 27.5435 38.8169 26.4834C38.8163 26.4768 38.814 26.4705 38.8104 26.465ZM33.1393 15.4493C33.1396 15.427 33.1444 15.405 33.1533 15.3846C33.1621 15.3641 33.175 15.3456 33.191 15.3302C33.2071 15.3147 33.226 15.3025 33.2468 15.2944C33.2676 15.2863 33.2897 15.2823 33.312 15.2828H36.3808C36.4256 15.2824 36.4689 15.2996 36.5012 15.3308C36.5335 15.3619 36.5523 15.4045 36.5535 15.4493V17.2585C36.5537 17.5124 36.5001 17.7635 36.3962 17.9951L36.3665 18.06C36.3551 18.0876 36.3417 18.1143 36.3265 18.14C36.3203 18.1492 36.3174 18.1587 36.3111 18.1678C36.1784 18.4498 36.0885 18.75 36.0445 19.0585C35.9266 20.2865 36.0474 21.5256 36.4 22.7077C36.4246 22.8126 36.4554 22.9175 36.4862 23.0161C36.423 23.0538 36.357 23.0867 36.2889 23.1145C36.2234 23.1474 36.1554 23.1752 36.0856 23.1978C36.0788 23.2009 36.0715 23.203 36.064 23.204C35.9926 23.2314 35.9194 23.254 35.8451 23.2718C35.5167 23.3552 35.1791 23.3967 34.8403 23.3951C34.6693 23.3962 34.4984 23.3863 34.3286 23.3655C34.1677 23.3457 34.0082 23.316 33.851 23.2766C33.8439 23.2742 33.8367 23.2723 33.8294 23.2707C33.7551 23.2525 33.6821 23.2299 33.6107 23.2028C33.5372 23.1779 33.4651 23.149 33.3947 23.1163C33.3296 23.0876 33.2659 23.0557 33.2039 23.0209C33.2314 22.9222 33.2631 22.8173 33.2928 22.7157C33.5457 21.8057 33.6835 20.8677 33.7028 19.9234C33.7039 19.6336 33.6833 19.3441 33.6412 19.0573C33.5992 18.7387 33.5044 18.4293 33.3606 18.1418C33.3514 18.1264 33.3452 18.108 33.336 18.0893C33.3236 18.0597 33.3082 18.0277 33.296 18.0004C33.1886 17.7685 33.1348 17.5153 33.1387 17.2597L33.1393 15.4493ZM31.7739 26.129C32.2492 25.323 32.6603 24.4809 33.0036 23.6105C33.019 23.6197 33.0332 23.6259 33.0531 23.6351C33.0827 23.6505 33.1176 23.6647 33.1517 23.6813C33.2235 23.7161 33.2977 23.7458 33.3736 23.7702C33.5363 23.8298 33.7032 23.8772 33.8729 23.9121C33.9185 23.9242 33.9648 23.9334 34.0116 23.9397C34.0856 23.9551 34.1597 23.9643 34.2335 23.9738C34.3152 23.9865 34.3975 23.9947 34.48 23.9984C34.722 24.02 34.9654 24.02 35.2074 23.9984C35.29 23.9949 35.3723 23.9867 35.4539 23.9738C35.528 23.9643 35.5988 23.9551 35.6696 23.9397C35.7185 23.9337 35.7669 23.9245 35.8145 23.9121C35.9102 23.8935 35.9994 23.8689 36.0889 23.8443C36.1659 23.8227 36.24 23.7981 36.3138 23.7702C36.3893 23.7445 36.4634 23.7149 36.5357 23.6813C36.5662 23.6689 36.5959 23.6545 36.6246 23.6384C36.6462 23.6292 36.6646 23.6197 36.6839 23.6105C37.0332 24.4979 37.4537 25.3555 37.9414 26.175L38.1354 26.5184C38.0984 26.543 38.0614 26.5675 38.0214 26.5921C37.9997 26.6046 37.9784 26.62 37.9568 26.6321C37.8365 26.7032 37.7132 26.7711 37.5837 26.8327C37.5804 26.8359 37.5761 26.8379 37.5716 26.8387C37.4364 26.9071 37.2974 26.9679 37.1553 27.0206C37.0845 27.0475 37.0104 27.076 36.9366 27.1009C36.8877 27.1186 36.8383 27.135 36.7885 27.1501C36.7292 27.1684 36.6714 27.1871 36.6107 27.2025C36.5307 27.2271 36.4504 27.2455 36.3704 27.2641C36.2285 27.2979 36.0898 27.3287 35.9449 27.3504C35.8462 27.3658 35.7446 27.38 35.643 27.3936C35.3776 27.4259 35.1104 27.4413 34.843 27.4398C34.7414 27.4398 34.6397 27.4366 34.5378 27.4336C34.4359 27.4307 34.3304 27.4212 34.2296 27.412C34.1618 27.4058 34.091 27.3998 34.0222 27.3904C33.9316 27.3789 33.8412 27.3655 33.7511 27.3504C33.6071 27.3278 33.4642 27.299 33.3227 27.2641C33.2456 27.2487 33.1716 27.2271 33.0975 27.2087C33.0329 27.1901 32.9683 27.1717 32.9034 27.1495C32.7055 27.0886 32.5112 27.0164 32.3215 26.9332C32.2536 26.9035 32.1858 26.8715 32.1179 26.8375C31.9637 26.7633 31.8134 26.681 31.6679 26.591C31.6279 26.5664 31.5908 26.5418 31.5538 26.5172C31.6291 26.388 31.6993 26.2615 31.7739 26.129ZM39.4083 40.0016C39.4094 40.19 39.3357 40.3711 39.2034 40.5053C39.0711 40.6394 38.8909 40.7155 38.7025 40.7169H30.9911C30.8976 40.7166 30.805 40.6979 30.7187 40.6618C30.6324 40.6256 30.554 40.5728 30.4882 40.5064C30.4223 40.44 30.3702 40.3612 30.3348 40.2745C30.2995 40.1879 30.2815 40.0952 30.2821 40.0016V37.7148H39.408L39.4083 40.0016ZM39.4083 37.0979H30.2821V30.3945C30.2821 29.1927 30.6519 28.2019 31.2599 27.063C31.9566 27.4984 32.7315 27.7936 33.5414 27.932C33.6154 27.9474 33.6894 27.9597 33.7633 27.969C33.862 27.9844 33.9608 27.9968 34.0596 28.0061C34.1366 28.0153 34.2136 28.0215 34.2907 28.0277C34.3162 28.0311 34.342 28.0331 34.3677 28.0336C34.528 28.0431 34.6883 28.049 34.8486 28.049C35.0089 28.049 35.1692 28.0431 35.3295 28.0336C35.3501 28.033 35.3707 28.031 35.3911 28.0277C35.4744 28.0244 35.5544 28.0153 35.6344 28.0061C35.7274 27.9992 35.8201 27.9879 35.912 27.972C35.992 27.9598 36.0723 27.9474 36.1523 27.932C36.2323 27.9166 36.3064 27.9044 36.3834 27.889L36.4267 27.8795C36.5067 27.8612 36.5837 27.8425 36.6608 27.8203C36.7378 27.7981 36.8148 27.78 36.8889 27.7587C37.0645 27.7063 37.2372 27.6477 37.4068 27.583C37.4839 27.5533 37.5576 27.5213 37.6317 27.4873C37.9099 27.3683 38.1775 27.2261 38.4317 27.0621C39.0388 28.2025 39.4095 29.1886 39.4095 30.3936L39.4083 37.0979Z" fill="#545E5E"/>
<path d="M17.66 77L21.868 65.56H23.484L27.708 77H26.14L24.924 73.512H20.364L19.132 77H17.66ZM22.14 68.504L20.78 72.344H24.524L23.212 68.504L22.7 66.888H22.668C22.4653 67.528 22.2893 68.0667 22.14 68.504ZM28.803 77V65.56H30.099V77H28.803ZM35.4473 77.224C34.2419 77.224 33.2713 76.808 32.5353 75.976C31.8099 75.144 31.4473 74.1093 31.4473 72.872C31.4473 71.6347 31.8099 70.6 32.5353 69.768C33.2713 68.936 34.2419 68.52 35.4473 68.52C36.4179 68.52 37.2126 68.7813 37.8313 69.304C38.4499 69.816 38.8339 70.5147 38.9833 71.4H37.6713C37.5753 70.8347 37.3353 70.392 36.9513 70.072C36.5673 69.752 36.0659 69.592 35.4473 69.592C34.5939 69.592 33.9326 69.9013 33.4633 70.52C33.0046 71.1387 32.7753 71.9227 32.7753 72.872C32.7753 73.8213 33.0046 74.6053 33.4633 75.224C33.9326 75.832 34.5939 76.136 35.4473 76.136C36.1086 76.136 36.6366 75.96 37.0313 75.608C37.4259 75.2453 37.6499 74.7387 37.7033 74.088H38.9833C38.8979 75.08 38.5459 75.8533 37.9273 76.408C37.3086 76.952 36.4819 77.224 35.4473 77.224ZM46.6401 75.976C45.9148 76.808 44.9495 77.224 43.7441 77.224C42.5388 77.224 41.5681 76.808 40.8321 75.976C40.1068 75.144 39.7441 74.1093 39.7441 72.872C39.7441 71.6347 40.1068 70.6 40.8321 69.768C41.5681 68.936 42.5388 68.52 43.7441 68.52C44.9495 68.52 45.9148 68.936 46.6401 69.768C47.3655 70.6 47.7281 71.6347 47.7281 72.872C47.7281 74.1093 47.3655 75.144 46.6401 75.976ZM41.7601 75.224C42.2295 75.832 42.8908 76.136 43.7441 76.136C44.5975 76.136 45.2535 75.832 45.7121 75.224C46.1708 74.6053 46.4001 73.8213 46.4001 72.872C46.4001 71.912 46.1655 71.128 45.6961 70.52C45.2375 69.9013 44.5868 69.592 43.7441 69.592C42.8908 69.592 42.2295 69.9013 41.7601 70.52C41.3015 71.1387 41.0721 71.9227 41.0721 72.872C41.0721 73.8213 41.3015 74.6053 41.7601 75.224ZM50.3166 65.56V69.816H50.3486C50.9886 68.9627 51.8633 68.536 52.9726 68.536C53.8473 68.536 54.53 68.7653 55.0206 69.224C55.5113 69.6827 55.7566 70.3387 55.7566 71.192V77H54.4606V71.304C54.4606 70.7707 54.2953 70.36 53.9646 70.072C53.634 69.7733 53.1753 69.624 52.5886 69.624C51.9273 69.624 51.3833 69.8373 50.9566 70.264C50.53 70.6907 50.3166 71.24 50.3166 71.912V77H49.0206V65.56H50.3166ZM63.9058 75.976C63.1804 76.808 62.2151 77.224 61.0098 77.224C59.8044 77.224 58.8338 76.808 58.0978 75.976C57.3724 75.144 57.0098 74.1093 57.0098 72.872C57.0098 71.6347 57.3724 70.6 58.0978 69.768C58.8338 68.936 59.8044 68.52 61.0098 68.52C62.2151 68.52 63.1804 68.936 63.9058 69.768C64.6311 70.6 64.9938 71.6347 64.9938 72.872C64.9938 74.1093 64.6311 75.144 63.9058 75.976ZM59.0258 75.224C59.4951 75.832 60.1564 76.136 61.0098 76.136C61.8631 76.136 62.5191 75.832 62.9778 75.224C63.4364 74.6053 63.6658 73.8213 63.6658 72.872C63.6658 71.912 63.4311 71.128 62.9618 70.52C62.5031 69.9013 61.8524 69.592 61.0098 69.592C60.1564 69.592 59.4951 69.9013 59.0258 70.52C58.5671 71.1387 58.3378 71.9227 58.3378 72.872C58.3378 73.8213 58.5671 74.6053 59.0258 75.224ZM66.3343 77V65.56H67.6303V77H66.3343Z" fill="#838D8D"/>
</svg>
