<svg width="87" height="84" viewBox="0 0 87 84" fill="none" xmlns="http://www.w3.org/2000/svg">
<path d="M15.0415 44.6958C15.0415 49.7394 19.1302 53.8281 24.1738 53.8281H62.8263C67.8699 53.8281 71.9586 49.7394 71.9586 44.6958V30.63C71.9586 14.9127 59.2173 2.17141 43.5001 2.17141C27.7828 2.17141 15.0415 14.9127 15.0415 30.63V44.6958Z" fill="white" stroke="#DEEAEA"/>
<path d="M57.5336 32.752C57.3638 31.5318 56.9156 30.3841 56.2342 29.4244C55.5527 28.4648 54.662 27.7269 53.6517 27.285C53.6942 26.8637 53.6271 26.4374 53.4588 26.0594C53.2904 25.6813 53.0283 25.3684 52.705 25.1595C52.1493 22.9055 50.9634 20.9207 49.3281 19.5078C47.6929 18.0948 45.698 17.3311 43.6474 17.333C41.5968 17.3349 39.603 18.1024 37.9698 19.5184C36.3366 20.9345 35.1536 22.9214 34.601 25.1765C34.286 25.389 34.0316 25.7013 33.8688 26.0755C33.706 26.4498 33.6417 26.8699 33.6838 27.285C32.6729 27.7265 31.7816 28.4643 31.0998 29.4241C30.4179 30.3839 29.9695 31.5319 29.7996 32.7525L29.6994 33.435C29.614 34.0056 29.6973 34.5925 29.9363 35.1031C30.1752 35.6137 30.5561 36.0189 31.019 36.255L31.2218 36.3585C31.5579 36.5304 31.9222 36.6191 32.2905 36.6185C32.7635 36.6193 33.2281 36.4757 33.6362 36.2024C34.0442 35.9292 34.3808 35.5363 34.6111 35.0645L36.0941 34.4595C36.9681 35.8124 38.1083 36.9119 39.4226 37.6694C40.737 38.4268 42.1888 38.8211 43.661 38.8204C45.1333 38.8196 46.5848 38.4239 47.8986 37.6652C49.2124 36.9064 50.3517 35.8058 51.2247 34.452L52.7256 35.064C52.9558 35.536 53.2923 35.9292 53.7004 36.2026C54.1084 36.476 54.5731 36.6198 55.0462 36.619C55.4143 36.6191 55.7782 36.5304 56.1141 36.3585L56.3173 36.255C56.7796 36.0184 57.1599 35.6129 57.3983 35.1024C57.6367 34.5918 57.7195 34.0052 57.6339 33.435L57.5336 32.752ZM48.264 32.523L46.7613 32.24C47.8066 31.3172 48.4946 29.9645 48.6786 28.4705L49.0604 25.3205L51.9064 25.8645C52.0649 25.8942 52.2154 25.9648 52.3463 26.0711C52.4772 26.1774 52.5851 26.3164 52.6618 26.4776C52.7384 26.6388 52.7818 26.8179 52.7885 27.0012C52.7952 27.1844 52.7652 27.367 52.7007 27.535L51.5785 30.467C51.3049 31.1818 50.8304 31.7721 50.2301 32.1444C49.6299 32.5168 48.938 32.65 48.264 32.523ZM39.4988 28.335L39.0114 24.31C39.0015 24.2323 39.0063 24.1531 39.0256 24.0778C39.0449 24.0025 39.0782 23.9328 39.1232 23.8735C39.1682 23.8141 39.2239 23.7666 39.2864 23.7341C39.349 23.7016 39.4169 23.6848 39.4856 23.685H47.8261C47.8946 23.685 47.9622 23.7018 48.0245 23.7342C48.0867 23.7666 48.1422 23.8139 48.1871 23.8728C48.2321 23.9318 48.2654 24.001 48.2849 24.0759C48.3045 24.1508 48.3097 24.2296 48.3003 24.307L47.8113 28.335C47.6723 29.481 47.175 30.531 46.411 31.291C45.6471 32.0509 44.6682 32.4695 43.655 32.4695C42.6419 32.4695 41.6629 32.0509 40.899 31.291C40.135 30.531 39.6377 29.481 39.4988 28.335ZM43.6552 18.335C45.417 18.3344 47.1356 18.9567 48.5752 20.1165C50.0147 21.2762 51.1046 22.9165 51.6949 24.812L49.1686 24.336C49.1826 24.1249 49.1582 23.9128 49.0969 23.713C49.0357 23.5133 48.9389 23.3301 48.8126 23.1751C48.6864 23.0201 48.5334 22.8967 48.3633 22.8125C48.1932 22.7283 48.0098 22.6852 47.8244 22.686H39.4856C39.3006 22.6852 39.1174 22.7281 38.9475 22.812C38.7777 22.896 38.6248 23.0191 38.4986 23.1736C38.3724 23.3282 38.2755 23.5108 38.2141 23.7102C38.1526 23.9095 38.1279 24.1212 38.1414 24.332L35.6138 24.8145C36.2038 22.9181 37.2937 21.277 38.7336 20.1167C40.1736 18.9565 41.8929 18.334 43.6552 18.335ZM34.6724 26.4775C34.7486 26.3162 34.8563 26.1771 34.9871 26.0709C35.1179 25.9647 35.2684 25.8942 35.4268 25.865L38.2518 25.335L38.6314 28.473C38.8158 29.969 39.5056 31.3232 40.5531 32.246L39.0697 32.5255C38.3957 32.6524 37.7038 32.5192 37.1036 32.1468C36.5033 31.7745 36.0288 31.1843 35.7552 30.4695L34.6326 27.535C34.568 27.367 34.538 27.1843 34.5449 27.001C34.5518 26.8176 34.5954 26.6385 34.6724 26.4775ZM34.2858 34.135C34.1004 34.2104 33.9462 34.3619 33.8532 34.56C33.6409 35.0069 33.2891 35.3463 32.8677 35.5104C32.4463 35.6746 31.9862 35.6516 31.579 35.446L31.3759 35.3425C31.09 35.1969 30.8547 34.9467 30.7072 34.6315C30.5596 34.3162 30.5082 33.9538 30.561 33.6015L30.6626 32.9205C30.8074 31.8822 31.1868 30.905 31.7634 30.0853C32.34 29.2656 33.0938 28.6318 33.9504 28.2465L34.9531 30.8675C35.3261 31.8403 35.9888 32.6309 36.8235 33.099L34.2858 34.135ZM43.6557 37.821C42.3659 37.8205 41.0931 37.4861 39.9328 36.843C38.7725 36.1999 37.7549 35.2648 36.9566 34.108L38.3227 33.5505C38.4046 33.5565 38.4847 33.571 38.5675 33.571C38.7841 33.5709 39.0004 33.5505 39.2142 33.51L41.7449 33.033C42.3518 33.3216 43.0029 33.47 43.6603 33.4695C44.3178 33.469 44.9686 33.3196 45.5752 33.03L48.1226 33.51C48.3363 33.5505 48.5526 33.5709 48.7693 33.571C48.8516 33.571 48.9321 33.5565 49.014 33.5505L50.3621 34.1005C49.5637 35.2598 48.5452 36.197 47.3834 36.8414C46.2216 37.4858 44.9468 37.8206 43.6552 37.8205L43.6557 37.821ZM55.9591 35.3425L55.7559 35.446C55.3489 35.6514 54.889 35.6744 54.4678 35.5105C54.0465 35.3465 53.6947 35.0076 53.4822 34.561C53.3898 34.3625 53.2356 34.2107 53.0501 34.1355L50.5106 33.0995C51.3448 32.6308 52.007 31.8402 52.3797 30.8675L53.3824 28.2465C54.239 28.6319 54.9928 29.2657 55.5695 30.0854C56.1461 30.905 56.5256 31.8822 56.6706 32.9205L56.7726 33.601C56.8253 33.9534 56.7737 34.3157 56.6261 34.6309C56.4785 34.9462 56.2432 35.1963 55.9574 35.342L55.9591 35.3425Z" fill="#545E5E"/>
<path d="M20.572 77V65.56H25.42C26.6253 65.56 27.5427 65.8907 28.172 66.552C28.6627 67.064 28.908 67.7147 28.908 68.504C28.908 69.72 28.2947 70.52 27.068 70.904V70.952C27.7507 71.112 28.3053 71.432 28.732 71.912C29.1587 72.3813 29.372 72.984 29.372 73.72C29.372 74.5947 29.0947 75.3253 28.54 75.912C27.868 76.6373 26.9133 77 25.676 77H20.572ZM22.012 75.704H25.612C26.4013 75.704 26.9987 75.512 27.404 75.128C27.7453 74.7653 27.916 74.3227 27.916 73.8C27.916 73.1067 27.6973 72.5787 27.26 72.216C26.8227 71.8533 26.2413 71.672 25.516 71.672H22.012V75.704ZM22.012 70.456H25.244C25.9373 70.456 26.4813 70.2907 26.876 69.96C27.2707 69.6293 27.468 69.1707 27.468 68.584C27.468 68.0293 27.2867 67.5973 26.924 67.288C26.572 66.968 26.076 66.808 25.436 66.808H22.012V70.456ZM37.1729 77.08C36.3515 77.08 35.8769 76.6693 35.7489 75.848H35.7329C35.0502 76.7227 34.1329 77.16 32.9809 77.16C32.1595 77.16 31.4875 76.9627 30.9649 76.568C30.4422 76.1733 30.1809 75.6027 30.1809 74.856C30.1809 74.472 30.2395 74.1413 30.3569 73.864C30.4849 73.576 30.6449 73.3467 30.8369 73.176C31.0289 72.9947 31.2902 72.84 31.6209 72.712C31.9622 72.5733 32.2875 72.472 32.5969 72.408C32.9062 72.3333 33.3009 72.2587 33.7809 72.184C34.0902 72.1413 34.3089 72.1093 34.4369 72.088C34.5755 72.056 34.7515 72.0133 34.9649 71.96C35.1782 71.896 35.3275 71.8267 35.4129 71.752C35.4982 71.6773 35.5782 71.576 35.6529 71.448C35.7275 71.32 35.7649 71.1707 35.7649 71C35.7649 70.5307 35.5995 70.1733 35.2689 69.928C34.9489 69.672 34.4955 69.544 33.9089 69.544C32.5755 69.544 31.8875 70.152 31.8449 71.368H30.5969C30.6182 70.5253 30.9062 69.848 31.4609 69.336C32.0262 68.824 32.8369 68.568 33.8929 68.568C35.9302 68.568 36.9489 69.4427 36.9489 71.192V75.128C36.9489 75.4907 37.0075 75.7467 37.1249 75.896C37.2529 76.0453 37.4875 76.0827 37.8289 76.008H37.8769V76.952C37.6635 77.0373 37.4289 77.08 37.1729 77.08ZM33.2689 76.168C34.0689 76.168 34.6875 75.9387 35.1249 75.48C35.5622 75.0107 35.7809 74.4987 35.7809 73.944V72.536C35.3862 72.7813 34.7569 72.984 33.8929 73.144C33.5729 73.208 33.3222 73.2613 33.1409 73.304C32.9595 73.336 32.7515 73.4 32.5169 73.496C32.2822 73.5813 32.1062 73.6773 31.9889 73.784C31.8715 73.8907 31.7702 74.0347 31.6849 74.216C31.5995 74.3867 31.5569 74.5893 31.5569 74.824C31.5569 75.72 32.1275 76.168 33.2689 76.168ZM44.2731 77L41.3451 72.536L40.1291 73.688V77H38.8331V65.56H40.1291V72.264L43.7611 68.728H45.4091L42.2411 71.704L45.7931 77H44.2731ZM49.7129 77.224C48.4862 77.224 47.5102 76.8133 46.7849 75.992C46.0702 75.16 45.7129 74.12 45.7129 72.872C45.7129 71.6453 46.0755 70.616 46.8009 69.784C47.5369 68.9413 48.4809 68.52 49.6329 68.52C50.8489 68.52 51.7875 68.9467 52.4489 69.8C53.1102 70.6427 53.4409 71.768 53.4409 73.176H47.0409C47.0942 74.0507 47.3502 74.7653 47.8089 75.32C48.2782 75.864 48.9129 76.136 49.7129 76.136C50.9502 76.136 51.7129 75.5707 52.0009 74.44H53.2649C53.0729 75.3253 52.6675 76.0133 52.0489 76.504C51.4302 76.984 50.6515 77.224 49.7129 77.224ZM51.3609 70.248C50.9449 69.7787 50.3689 69.544 49.6329 69.544C48.8969 69.544 48.3102 69.7893 47.8729 70.28C47.4462 70.7707 47.1795 71.4107 47.0729 72.2H52.0489C52.0062 71.368 51.7769 70.7173 51.3609 70.248ZM56.0041 68.728V70.104H56.0361C56.3028 69.6667 56.6495 69.3147 57.0761 69.048C57.5028 68.7707 57.9775 68.632 58.5001 68.632C58.6921 68.632 58.8681 68.664 59.0281 68.728V69.976H58.9801C58.8201 69.9227 58.6281 69.896 58.4041 69.896C57.7428 69.896 57.1775 70.1307 56.7081 70.6C56.2388 71.0587 56.0041 71.6613 56.0041 72.408V77H54.7081V68.728H56.0041ZM61.2485 79.736C60.7578 79.736 60.3685 79.6773 60.0805 79.56V78.408H60.1445C60.3578 78.5253 60.6512 78.584 61.0245 78.584C61.3125 78.584 61.5525 78.5093 61.7445 78.36C61.9365 78.2213 62.1072 77.96 62.2565 77.576L62.5765 76.76L59.3445 68.728H60.7525L62.7045 73.88L63.2645 75.496H63.2965C63.4885 74.8773 63.6698 74.3387 63.8405 73.88L65.7285 68.728H67.1045L63.5685 77.672C63.2485 78.4827 62.9178 79.0267 62.5765 79.304C62.2352 79.592 61.7925 79.736 61.2485 79.736Z" fill="#838D8D"/>
</svg>
