<svg width="87" height="84" viewBox="0 0 87 84" fill="none" xmlns="http://www.w3.org/2000/svg">
<path d="M15.0414 44.6958C15.0414 49.7394 19.1301 53.8281 24.1738 53.8281H62.8262C67.8699 53.8281 71.9586 49.7394 71.9586 44.6958V30.63C71.9586 14.9127 59.2172 2.17141 43.5 2.17141C27.7828 2.17141 15.0414 14.9127 15.0414 30.63V44.6958Z" fill="white" stroke="#DEEAEA"/>
<path d="M43 14.6665C40.3629 14.6665 37.7851 15.4485 35.5924 16.9136C33.3998 18.3787 31.6908 20.461 30.6816 22.8974C29.6725 25.3337 29.4084 28.0146 29.9229 30.601C30.4374 33.1875 31.7072 35.5632 33.5719 37.4279C35.4366 39.2926 37.8124 40.5625 40.3988 41.077C42.9852 41.5914 45.6661 41.3274 48.1025 40.3182C50.5388 39.3091 52.6212 37.6001 54.0863 35.4074C55.5514 33.2148 56.3334 30.6369 56.3334 27.9998C56.3294 24.4648 54.9233 21.0758 52.4237 18.5761C49.9241 16.0765 46.535 14.6705 43 14.6665ZM43 40.4729C40.5331 40.4729 38.1215 39.7414 36.0703 38.3709C34.0191 37.0003 32.4204 35.0523 31.4764 32.7731C30.5323 30.4939 30.2853 27.986 30.7666 25.5665C31.2479 23.1469 32.4358 20.9244 34.1802 19.18C35.9246 17.4356 38.1471 16.2477 40.5666 15.7664C42.9862 15.2851 45.4941 15.5321 47.7733 16.4762C50.0524 17.4202 52.0005 19.0189 53.371 21.0701C54.7416 23.1213 55.4731 25.5329 55.4731 27.9998C55.4693 31.3067 54.1539 34.4771 51.8156 36.8154C49.4773 39.1537 46.3069 40.4691 43 40.4729Z" fill="#545E5E"/>
<path d="M41.2796 27.1396C41.2796 27.8201 41.4814 28.4854 41.8595 29.0512C42.2376 29.6171 42.775 30.0581 43.4037 30.3185C44.0324 30.579 44.7243 30.6471 45.3917 30.5143C46.0592 30.3816 46.6723 30.0539 47.1535 29.5726C47.6347 29.0914 47.9624 28.4783 48.0952 27.8109C48.228 27.1434 48.1598 26.4516 47.8994 25.8228C47.639 25.1941 47.1979 24.6567 46.6321 24.2786C46.0663 23.9005 45.401 23.6987 44.7205 23.6987C43.8082 23.6998 42.9336 24.0626 42.2885 24.7077C41.6435 25.3527 41.2806 26.2273 41.2796 27.1396ZM44.7205 24.5589C45.2309 24.5589 45.7298 24.7103 46.1542 24.9939C46.5786 25.2774 46.9093 25.6805 47.1047 26.152C47.3 26.6236 47.3511 27.1425 47.2515 27.643C47.1519 28.1436 46.9062 28.6035 46.5453 28.9644C46.1843 29.3253 45.7245 29.5711 45.2239 29.6706C44.7233 29.7702 44.2044 29.7191 43.7329 29.5238C43.2613 29.3285 42.8583 28.9977 42.5747 28.5733C42.2912 28.1489 42.1398 27.65 42.1398 27.1396C42.1405 26.4554 42.4126 25.7994 42.8964 25.3156C43.3802 24.8317 44.0362 24.5596 44.7205 24.5589Z" fill="#545E5E"/>
<path d="M49.6624 21.3726C49.4293 21.3139 49.2134 21.2009 49.0324 21.0428C48.8513 20.8847 48.7102 20.686 48.6207 20.463C48.4453 20.0206 48.1408 19.6414 47.7468 19.3746C47.3527 19.1078 46.8875 18.966 46.4116 18.9675C45.6341 18.9668 44.8697 19.1684 44.1936 19.5524L43.9123 19.2716L42.622 17.9812C42.1519 17.5112 41.5143 17.2471 40.8495 17.2471C40.1847 17.2471 39.5471 17.5112 39.077 17.9812L35.9923 21.066C35.5976 21.4598 35.3459 21.9743 35.2772 22.5276C35.2084 23.0809 35.3266 23.6413 35.6129 24.1197C35.6014 24.1236 35.5896 24.1266 35.5777 24.1288C35.2648 24.1291 34.9649 24.2536 34.7437 24.4749C34.5225 24.6961 34.3981 24.9961 34.3979 25.309V25.5838C34.1375 25.7211 33.9197 25.927 33.768 26.1792C33.6164 26.4315 33.5367 26.7205 33.5377 27.0148C33.5381 27.4464 33.6386 27.8721 33.8314 28.2582C33.9211 28.4379 33.9677 28.6359 33.9678 28.8367C33.9697 28.9729 33.9931 29.1079 34.037 29.2367L33.8134 29.4045C33.593 29.571 33.4144 29.7866 33.2919 30.0342C33.1693 30.2817 33.1062 30.5545 33.1076 30.8307C33.1064 31.2284 33.2307 31.6162 33.4628 31.9391C33.2291 32.4942 33.1083 33.0903 33.1076 33.6926V34.0212C33.1081 34.4219 33.2481 34.8099 33.5037 35.1185C33.7593 35.427 34.1144 35.6369 34.508 35.712L34.594 35.9701C34.6965 36.2797 34.8941 36.5491 35.1587 36.7398C35.4233 36.9305 35.7414 37.0327 36.0676 37.032C36.3172 37.033 36.5632 37.0919 36.7863 37.204C37.1292 37.3739 37.5068 37.4623 37.8895 37.4621C38.4886 37.4615 39.0794 37.3221 39.6155 37.0548C39.6878 37.0186 39.7625 36.9875 39.8392 36.9619L40.037 36.8961C40.3944 36.7759 40.7191 36.5746 40.9857 36.308C41.2524 36.0414 41.4536 35.7167 41.5738 35.3593C41.5784 35.3454 41.5873 35.3333 41.5992 35.3247C41.6111 35.3161 41.6254 35.3115 41.64 35.3116C41.8675 35.3111 42.0868 35.227 42.2564 35.0754C42.182 35.2898 42.1427 35.5148 42.1398 35.7417C42.1405 36.3118 42.3673 36.8584 42.7705 37.2616C43.1736 37.6647 43.7202 37.8915 44.2904 37.8922C46.9131 37.8894 49.4277 36.8462 51.2822 34.9916C53.1368 33.137 54.18 30.6225 54.1828 27.9997C54.182 27.4985 54.0061 27.0132 53.6856 26.6279C53.365 26.2425 52.9199 25.9812 52.4271 25.8892C52.4478 25.5791 52.4624 25.2681 52.4624 24.9585C52.4633 24.1339 52.188 23.3328 51.6805 22.6829C51.173 22.033 50.4626 21.5717 49.6624 21.3726ZM47.822 20.7825C47.9624 21.1323 48.1838 21.4437 48.4679 21.6913C48.752 21.939 49.0907 22.1157 49.4564 22.2071C50.0699 22.3603 50.6144 22.7145 51.0033 23.2131C51.3922 23.7117 51.603 24.3261 51.6022 24.9585C51.6022 25.2733 51.5867 25.5894 51.5635 25.9047C51.087 26.0111 50.6609 26.2765 50.3552 26.6573C50.0496 27.0381 49.8826 27.5115 49.8818 27.9997C49.88 29.4821 49.2904 30.9033 48.2422 31.9516C47.194 32.9998 45.7728 33.5894 44.2904 33.5911C43.9174 33.5934 43.5516 33.6938 43.2297 33.8823C42.8861 33.9739 42.532 34.0206 42.1764 34.0212C41.7105 34.0208 41.2639 33.8355 40.9345 33.5061C40.6051 33.1767 40.4198 32.7301 40.4194 32.2643C40.4183 30.7977 39.9041 29.3778 38.9661 28.2505C38.5159 27.7096 38.2692 27.0282 38.2689 26.3245C38.2651 25.5328 38.5186 24.7613 38.9913 24.1261C39.4639 23.491 40.1301 23.0265 40.8895 22.8028C41.859 22.5106 42.7414 21.9834 43.4581 21.2681L43.8289 20.8974C44.1672 20.5571 44.5697 20.2874 45.0131 20.1038C45.4564 19.9202 45.9318 19.8263 46.4116 19.8277C46.7154 19.8267 47.0125 19.9173 47.2641 20.0876C47.5156 20.2579 47.71 20.5001 47.822 20.7825ZM43.4779 20.0548C43.3919 20.1301 43.302 20.2062 43.2198 20.2892L42.8491 20.66C42.2335 21.2745 41.4755 21.7274 40.6426 21.9782C39.9364 22.1864 39.292 22.5645 38.7657 23.0794C38.2394 23.5943 37.8473 24.2303 37.6237 24.9318C37.4446 24.6206 37.3735 24.2588 37.4215 23.903C37.4695 23.5471 37.6339 23.2171 37.8891 22.9645L40.9738 19.8797C41.2826 19.571 41.7014 19.3976 42.1381 19.3976C42.5748 19.3976 42.9936 19.571 43.3024 19.8797L43.4779 20.0548ZM36.6005 21.6741L39.6852 18.5894C39.9848 18.2883 40.3897 18.1155 40.8143 18.1075C41.239 18.0995 41.6501 18.2569 41.9609 18.5464C41.3609 18.5907 40.7965 18.8479 40.3695 19.2716L37.2848 22.3563C36.8583 22.7815 36.6005 23.3469 36.5592 23.9477C36.2698 23.6368 36.1126 23.2257 36.1206 22.8012C36.1286 22.3766 36.3013 21.9717 36.6022 21.672L36.6005 21.6741ZM34.8185 26.3348C34.951 26.2691 35.0624 26.1675 35.1401 26.0417C35.2178 25.9159 35.2586 25.7708 35.2581 25.623V25.309C35.2581 25.2242 35.2918 25.1429 35.3517 25.0829C35.4116 25.0229 35.4929 24.9891 35.5777 24.989C35.795 24.9878 36.0076 24.9261 36.1919 24.8109L37.2826 25.9012L37.4203 26.0389C37.4142 26.1335 37.4086 26.2286 37.4086 26.3245C37.4099 26.7337 37.4761 27.1402 37.6048 27.5288L36.3398 26.7696L35.8968 27.5068L38.5205 29.0802C38.9872 29.7212 39.3074 30.457 39.4585 31.2354C39.4293 31.2488 39.397 31.2552 39.3686 31.2694C39.0771 31.4136 38.7482 31.4644 38.4267 31.4149C38.1052 31.3654 37.8068 31.2181 37.5721 30.9929C37.3059 30.729 36.9464 30.5807 36.5716 30.5804C36.4515 30.5803 36.3362 30.5325 36.2512 30.4475C36.1662 30.3625 36.1184 30.2472 36.1183 30.1271C36.1181 29.9051 36.0298 29.6924 35.8729 29.5355C35.716 29.3785 35.5032 29.2903 35.2813 29.2901C35.1611 29.2899 35.0459 29.2422 34.9609 29.1572C34.8759 29.0722 34.8281 28.9569 34.828 28.8367C34.8276 28.5024 34.7499 28.1726 34.6009 27.8733C34.4674 27.6062 34.3979 27.3117 34.3979 27.0131C34.3979 26.8721 34.4372 26.7338 34.5116 26.614C34.5859 26.4942 34.6922 26.3975 34.8185 26.3348ZM40.7579 35.0875C40.6802 35.3182 40.5501 35.5279 40.3779 35.7C40.2057 35.8721 39.996 36.0021 39.7652 36.0797L39.5669 36.1455C39.4518 36.1845 39.3394 36.2312 39.2306 36.2853C38.814 36.4929 38.355 36.6012 37.8895 36.6019C37.6398 36.6009 37.3938 36.542 37.1708 36.4298C36.8279 36.2599 36.4503 36.1716 36.0676 36.1718C35.9222 36.1721 35.7804 36.1265 35.6624 36.0415C35.5444 35.9566 35.4562 35.8366 35.4104 35.6987L35.2357 35.1765C35.2074 35.0907 35.1527 35.0161 35.0795 34.9631C35.0063 34.9102 34.9183 34.8816 34.828 34.8815C34.5999 34.8815 34.3811 34.7908 34.2197 34.6295C34.0584 34.4682 33.9678 34.2494 33.9678 34.0212V33.6926C33.9687 33.127 34.1004 32.5692 34.3527 32.063C34.393 31.9822 34.4069 31.8908 34.3924 31.8017C34.3779 31.7127 34.3357 31.6304 34.2719 31.5666C34.1736 31.4679 34.096 31.3506 34.0438 31.2214C33.9916 31.0923 33.9657 30.9541 33.9678 30.8148C33.9679 30.6747 34.0006 30.5366 34.0633 30.4113C34.126 30.2861 34.217 30.1771 34.3291 30.0931L34.5544 29.9245C34.7623 30.0634 35.0082 30.1342 35.2581 30.1271C35.2584 30.4753 35.3969 30.8092 35.6432 31.0555C35.8895 31.3018 36.2234 31.4403 36.5716 31.4406C36.718 31.441 36.8584 31.4991 36.9622 31.6023C37.1586 31.7955 37.3871 31.9531 37.6375 32.0681L36.0547 32.3055L36.1837 33.1563L37.3639 32.9795L37.0108 33.8617L37.8099 34.1808L38.3497 32.8316L39.5919 32.6453C39.6192 32.8328 39.667 33.0167 39.7347 33.1937L39.1579 34.7301L39.9639 35.0311L40.314 34.0969C40.5365 34.322 40.7977 34.5052 41.0852 34.6376C40.9324 34.7503 40.8181 34.9074 40.7579 35.0875ZM53.3226 27.9997C53.3199 30.3944 52.3674 32.6902 50.6741 34.3835C48.9808 36.0768 46.685 37.0293 44.2904 37.032C43.9481 37.032 43.6199 36.896 43.378 36.6541C43.136 36.4121 43 36.0839 43 35.7417C43 35.3995 43.136 35.0713 43.378 34.8293C43.6199 34.5873 43.9481 34.4514 44.2904 34.4514C44.3248 34.4514 44.3583 34.4466 44.3927 34.4462C44.5343 35.0506 44.8402 35.6042 45.2766 36.0458L45.8848 35.4376C45.5887 35.1403 45.3715 34.7738 45.2529 34.3713C45.8702 34.2789 46.4706 34.0965 47.0349 33.8298C47.1976 34.3406 47.4795 34.8053 47.8572 35.1855L48.4654 34.5774C48.1441 34.2516 47.9177 33.8442 47.8108 33.3993C48.3219 33.0644 48.7831 32.659 49.1807 32.195C49.4181 32.5472 49.7211 32.8503 50.0732 33.0879L50.5506 32.3722C50.2039 32.1391 49.9226 31.8212 49.7334 31.4488C50.0752 30.9114 50.3349 30.326 50.5041 29.712C50.8637 30.1888 51.2997 30.6028 51.7944 30.9374L52.2719 30.2217C51.6085 29.7775 51.0733 29.1669 50.72 28.4509C50.7304 28.3008 50.7428 28.1498 50.7428 27.9989C50.7428 27.6567 50.8788 27.3285 51.1208 27.0865C51.3627 26.8445 51.6909 26.7086 52.0332 26.7086C52.3754 26.7086 52.7036 26.8445 52.9455 27.0865C53.1875 27.3285 53.3235 27.6567 53.3235 27.9989L53.3226 27.9997Z" fill="#545E5E"/>
<path d="M12.072 77V65.56H16.92C18.1253 65.56 19.0427 65.8907 19.672 66.552C20.1627 67.064 20.408 67.7147 20.408 68.504C20.408 69.72 19.7947 70.52 18.568 70.904V70.952C19.2507 71.112 19.8053 71.432 20.232 71.912C20.6587 72.3813 20.872 72.984 20.872 73.72C20.872 74.5947 20.5947 75.3253 20.04 75.912C19.368 76.6373 18.4133 77 17.176 77H12.072ZM13.512 75.704H17.112C17.9013 75.704 18.4987 75.512 18.904 75.128C19.2453 74.7653 19.416 74.3227 19.416 73.8C19.416 73.1067 19.1973 72.5787 18.76 72.216C18.3227 71.8533 17.7413 71.672 17.016 71.672H13.512V75.704ZM13.512 70.456H16.744C17.4373 70.456 17.9813 70.2907 18.376 69.96C18.7707 69.6293 18.968 69.1707 18.968 68.584C18.968 68.0293 18.7867 67.5973 18.424 67.288C18.072 66.968 17.576 66.808 16.936 66.808H13.512V70.456ZM23.4729 68.728V70.104H23.5049C23.7715 69.6667 24.1182 69.3147 24.5449 69.048C24.9715 68.7707 25.4462 68.632 25.9689 68.632C26.1609 68.632 26.3369 68.664 26.4969 68.728V69.976H26.4489C26.2889 69.9227 26.0969 69.896 25.8729 69.896C25.2115 69.896 24.6462 70.1307 24.1769 70.6C23.7075 71.0587 23.4729 71.6613 23.4729 72.408V77H22.1769V68.728H23.4729ZM30.8848 77.224C29.6581 77.224 28.6821 76.8133 27.9568 75.992C27.2421 75.16 26.8848 74.12 26.8848 72.872C26.8848 71.6453 27.2474 70.616 27.9728 69.784C28.7088 68.9413 29.6528 68.52 30.8048 68.52C32.0208 68.52 32.9594 68.9467 33.6208 69.8C34.2821 70.6427 34.6128 71.768 34.6128 73.176H28.2128C28.2661 74.0507 28.5221 74.7653 28.9808 75.32C29.4501 75.864 30.0848 76.136 30.8848 76.136C32.1221 76.136 32.8848 75.5707 33.1728 74.44H34.4368C34.2448 75.3253 33.8394 76.0133 33.2208 76.504C32.6021 76.984 31.8234 77.224 30.8848 77.224ZM32.5328 70.248C32.1168 69.7787 31.5408 69.544 30.8048 69.544C30.0688 69.544 29.4821 69.7893 29.0448 70.28C28.6181 70.7707 28.3514 71.4107 28.2448 72.2H33.2208C33.1781 71.368 32.9488 70.7173 32.5328 70.248ZM42.376 77.08C41.5547 77.08 41.08 76.6693 40.952 75.848H40.936C40.2533 76.7227 39.336 77.16 38.184 77.16C37.3627 77.16 36.6907 76.9627 36.168 76.568C35.6453 76.1733 35.384 75.6027 35.384 74.856C35.384 74.472 35.4427 74.1413 35.56 73.864C35.688 73.576 35.848 73.3467 36.04 73.176C36.232 72.9947 36.4933 72.84 36.824 72.712C37.1653 72.5733 37.4907 72.472 37.8 72.408C38.1093 72.3333 38.504 72.2587 38.984 72.184C39.2933 72.1413 39.512 72.1093 39.64 72.088C39.7787 72.056 39.9547 72.0133 40.168 71.96C40.3813 71.896 40.5307 71.8267 40.616 71.752C40.7013 71.6773 40.7813 71.576 40.856 71.448C40.9307 71.32 40.968 71.1707 40.968 71C40.968 70.5307 40.8027 70.1733 40.472 69.928C40.152 69.672 39.6987 69.544 39.112 69.544C37.7787 69.544 37.0907 70.152 37.048 71.368H35.8C35.8213 70.5253 36.1093 69.848 36.664 69.336C37.2293 68.824 38.04 68.568 39.096 68.568C41.1333 68.568 42.152 69.4427 42.152 71.192V75.128C42.152 75.4907 42.2107 75.7467 42.328 75.896C42.456 76.0453 42.6907 76.0827 43.032 76.008H43.08V76.952C42.8667 77.0373 42.632 77.08 42.376 77.08ZM38.472 76.168C39.272 76.168 39.8907 75.9387 40.328 75.48C40.7653 75.0107 40.984 74.4987 40.984 73.944V72.536C40.5893 72.7813 39.96 72.984 39.096 73.144C38.776 73.208 38.5253 73.2613 38.344 73.304C38.1627 73.336 37.9547 73.4 37.72 73.496C37.4853 73.5813 37.3093 73.6773 37.192 73.784C37.0747 73.8907 36.9733 74.0347 36.888 74.216C36.8027 74.3867 36.76 74.5893 36.76 74.824C36.76 75.72 37.3307 76.168 38.472 76.168ZM49.4763 77L46.5483 72.536L45.3323 73.688V77H44.0363V65.56H45.3323V72.264L48.9643 68.728H50.6123L47.4443 71.704L50.9963 77H49.4763ZM51.3364 69.784V68.728H52.4724V67.4C52.4724 66.7173 52.659 66.2267 53.0324 65.928C53.4057 65.6187 53.9497 65.464 54.6644 65.464C54.867 65.464 55.0857 65.4747 55.3204 65.496V66.6C55.171 66.5893 55.0324 66.584 54.9044 66.584C54.4884 66.584 54.195 66.648 54.0244 66.776C53.8537 66.904 53.7684 67.1333 53.7684 67.464V68.728H55.3044V69.784H53.7684V77H52.4724V69.784H51.3364ZM62.8291 77.08C62.0078 77.08 61.5331 76.6693 61.4051 75.848H61.3891C60.7065 76.7227 59.7891 77.16 58.6371 77.16C57.8158 77.16 57.1438 76.9627 56.6211 76.568C56.0985 76.1733 55.8371 75.6027 55.8371 74.856C55.8371 74.472 55.8958 74.1413 56.0131 73.864C56.1411 73.576 56.3011 73.3467 56.4931 73.176C56.6851 72.9947 56.9465 72.84 57.2771 72.712C57.6185 72.5733 57.9438 72.472 58.2531 72.408C58.5625 72.3333 58.9571 72.2587 59.4371 72.184C59.7465 72.1413 59.9651 72.1093 60.0931 72.088C60.2318 72.056 60.4078 72.0133 60.6211 71.96C60.8345 71.896 60.9838 71.8267 61.0691 71.752C61.1545 71.6773 61.2345 71.576 61.3091 71.448C61.3838 71.32 61.4211 71.1707 61.4211 71C61.4211 70.5307 61.2558 70.1733 60.9251 69.928C60.6051 69.672 60.1518 69.544 59.5651 69.544C58.2318 69.544 57.5438 70.152 57.5011 71.368H56.2531C56.2745 70.5253 56.5625 69.848 57.1171 69.336C57.6825 68.824 58.4931 68.568 59.5491 68.568C61.5865 68.568 62.6051 69.4427 62.6051 71.192V75.128C62.6051 75.4907 62.6638 75.7467 62.7811 75.896C62.9091 76.0453 63.1438 76.0827 63.4851 76.008H63.5331V76.952C63.3198 77.0373 63.0851 77.08 62.8291 77.08ZM58.9251 76.168C59.7251 76.168 60.3438 75.9387 60.7811 75.48C61.2185 75.0107 61.4371 74.4987 61.4371 73.944V72.536C61.0425 72.7813 60.4131 72.984 59.5491 73.144C59.2291 73.208 58.9785 73.2613 58.7971 73.304C58.6158 73.336 58.4078 73.4 58.1731 73.496C57.9385 73.5813 57.7625 73.6773 57.6451 73.784C57.5278 73.8907 57.4265 74.0347 57.3411 74.216C57.2558 74.3867 57.2131 74.5893 57.2131 74.824C57.2131 75.72 57.7838 76.168 58.9251 76.168ZM67.6254 77.24C66.4947 77.24 65.6147 76.9893 64.9854 76.488C64.3667 75.976 64.0254 75.2507 63.9614 74.312H65.2894C65.4387 75.5387 66.228 76.152 67.6574 76.152C68.308 76.152 68.788 76.0293 69.0974 75.784C69.4174 75.528 69.5774 75.1973 69.5774 74.792C69.5774 74.3547 69.4227 74.04 69.1134 73.848C68.804 73.656 68.2387 73.4747 67.4174 73.304C67.076 73.2293 66.804 73.1707 66.6014 73.128C66.4094 73.0747 66.1747 73.0053 65.8974 72.92C65.62 72.824 65.4014 72.7227 65.2414 72.616C65.092 72.4987 64.9374 72.36 64.7774 72.2C64.6174 72.04 64.5 71.8427 64.4254 71.608C64.3614 71.3733 64.3294 71.112 64.3294 70.824C64.3294 70.12 64.5854 69.5653 65.0974 69.16C65.62 68.7547 66.356 68.552 67.3054 68.552C69.268 68.552 70.3507 69.416 70.5534 71.144H69.2254C69.1614 70.6 68.9747 70.2053 68.6654 69.96C68.356 69.704 67.892 69.576 67.2734 69.576C66.708 69.576 66.2867 69.688 66.0094 69.912C65.7427 70.1253 65.6094 70.408 65.6094 70.76C65.6094 71.1653 65.7694 71.4533 66.0894 71.624C66.4094 71.784 66.9907 71.9493 67.8334 72.12C68.3454 72.2267 68.7454 72.328 69.0334 72.424C69.332 72.5093 69.6414 72.648 69.9614 72.84C70.2814 73.0213 70.516 73.2667 70.6654 73.576C70.8147 73.8853 70.8894 74.2693 70.8894 74.728C70.8894 75.5387 70.5907 76.1627 69.9934 76.6C69.396 77.0267 68.6067 77.24 67.6254 77.24ZM71.4458 69.784V68.728H72.6458V66.12H73.9418V68.728H75.5418V69.784H73.9418V75.16C73.9418 75.672 74.2191 75.928 74.7738 75.928C75.0084 75.928 75.2378 75.8907 75.4618 75.816H75.5098V76.936C75.1578 77.0107 74.8111 77.048 74.4698 77.048C73.2538 77.048 72.6458 76.5147 72.6458 75.448V69.784H71.4458Z" fill="#838D8D"/>
</svg>
