<svg width="87" height="84" viewBox="0 0 87 84" fill="none" xmlns="http://www.w3.org/2000/svg">
<path d="M15.0415 44.6958C15.0415 49.7394 19.1302 53.8281 24.1738 53.8281H62.8263C67.8699 53.8281 71.9586 49.7394 71.9586 44.6958V30.63C71.9586 14.9127 59.2173 2.17141 43.5001 2.17141C27.7828 2.17141 15.0415 14.9127 15.0415 30.63V44.6958Z" fill="white" stroke="#DEEAEA"/>
<path d="M30.1679 24.3741H55.7875C55.8707 24.3741 55.9526 24.35 56.0258 24.3039C56.099 24.2577 56.1612 24.1911 56.2068 24.1099C56.2524 24.0287 56.28 23.9355 56.287 23.8388C56.2941 23.7421 56.2803 23.6448 56.2471 23.5558C55.266 20.9272 53.6647 18.7033 51.6163 17.1245C49.53 15.5164 47.0866 14.6665 44.5501 14.6665H41.4053C38.8689 14.6665 36.4254 15.5164 34.3391 17.1245C32.2907 18.7033 30.6894 20.9272 29.7083 23.5558C29.6751 23.6448 29.6614 23.7421 29.6684 23.8388C29.6755 23.9355 29.703 24.0286 29.7486 24.1098C29.7942 24.191 29.8564 24.2577 29.9296 24.3038C30.0028 24.3499 30.0847 24.3741 30.1679 24.3741ZM34.8917 18.1004C36.8136 16.6191 39.066 15.8361 41.4053 15.8361H44.5501C46.8895 15.8361 49.1419 16.6191 51.0637 18.1004C52.7335 19.3874 54.0807 21.1399 54.9946 23.2045H30.9608C31.8748 21.1399 33.2219 19.3874 34.8917 18.1004Z" fill="#545E5E"/>
<path d="M38.4421 22.1275C38.7182 22.1275 38.942 21.8663 38.942 21.5442C38.942 21.2221 38.7182 20.9609 38.4421 20.9609C38.166 20.9609 37.9421 21.2221 37.9421 21.5442C37.9421 21.8663 38.166 22.1275 38.4421 22.1275Z" fill="#545E5E"/>
<path d="M39.2921 18.4527C39.5682 18.4527 39.792 18.1915 39.792 17.8694C39.792 17.5473 39.5682 17.2861 39.2921 17.2861C39.016 17.2861 38.7921 17.5473 38.7921 17.8694C38.7921 18.1915 39.016 18.4527 39.2921 18.4527Z" fill="#545E5E"/>
<path d="M47.5913 19.6193C47.8675 19.6193 48.0913 19.3581 48.0913 19.036C48.0913 18.7138 47.8675 18.4526 47.5913 18.4526C47.3152 18.4526 47.0913 18.7138 47.0913 19.036C47.0913 19.3581 47.3152 19.6193 47.5913 19.6193Z" fill="#545E5E"/>
<path d="M44.0916 17.8697C44.3677 17.8697 44.5916 17.6085 44.5916 17.2864C44.5916 16.9643 44.3677 16.7031 44.0916 16.7031C43.8155 16.7031 43.5917 16.9643 43.5917 17.2864C43.5917 17.6085 43.8155 17.8697 44.0916 17.8697Z" fill="#545E5E"/>
<path d="M41.6918 20.377C41.968 20.377 42.1918 20.1159 42.1918 19.7937C42.1918 19.4716 41.968 19.2104 41.6918 19.2104C41.4157 19.2104 41.1919 19.4716 41.1919 19.7937C41.1919 20.1159 41.4157 20.377 41.6918 20.377Z" fill="#545E5E"/>
<path d="M45.6916 21.7774C45.9677 21.7774 46.1916 21.5162 46.1916 21.1941C46.1916 20.872 45.9677 20.6108 45.6916 20.6108C45.4155 20.6108 45.1917 20.872 45.1917 21.1941C45.1917 21.5162 45.4155 21.7774 45.6916 21.7774Z" fill="#545E5E"/>
<path d="M35.4425 20.6104C35.7186 20.6104 35.9424 20.3493 35.9424 20.0271C35.9424 19.705 35.7186 19.4438 35.4425 19.4438C35.1663 19.4438 34.9425 19.705 34.9425 20.0271C34.9425 20.3493 35.1663 20.6104 35.4425 20.6104Z" fill="#545E5E"/>
<path d="M48.3913 22.1275C48.6674 22.1275 48.8913 21.8663 48.8913 21.5442C48.8913 21.2221 48.6674 20.9609 48.3913 20.9609C48.1152 20.9609 47.8914 21.2221 47.8914 21.5442C47.8914 21.8663 48.1152 22.1275 48.3913 22.1275Z" fill="#545E5E"/>
<path d="M50.991 20.9605C51.2672 20.9605 51.491 20.6994 51.491 20.3772C51.491 20.0551 51.2672 19.7939 50.991 19.7939C50.7149 19.7939 50.4911 20.0551 50.4911 20.3772C50.4911 20.6994 50.7149 20.9605 50.991 20.9605Z" fill="#545E5E"/>
<path d="M55.8294 37.0055H30.2061C30.1359 37.0055 30.0664 37.0227 30.0023 37.056C29.9382 37.0893 29.8807 37.1379 29.8337 37.1988C29.7867 37.2596 29.7512 37.3313 29.7294 37.4092C29.7077 37.487 29.7002 37.5694 29.7075 37.6508C29.7943 38.6245 30.1261 39.535 30.6414 40.2146C31.1884 40.9358 31.8916 41.333 32.6215 41.333H53.5099C54.2405 41.333 54.9314 40.9317 55.4554 40.203C55.9384 39.5315 56.2484 38.6233 56.3284 37.6459C56.335 37.5647 56.3271 37.4829 56.305 37.4056C56.2829 37.3283 56.2473 37.2572 56.2003 37.1969C56.1533 37.1366 56.096 37.0884 56.0322 37.0555C55.9683 37.0225 55.8992 37.0055 55.8294 37.0055ZM53.5099 40.1634H32.6215C31.821 40.1634 31.0934 39.3301 30.8111 38.1751H55.2339C54.9726 39.3439 54.2894 40.1634 53.5099 40.1634ZM31.5428 36.3038H54.4072C55.4417 36.3038 56.2833 35.3219 56.2833 34.115V34.1066C56.2833 32.8997 55.4417 31.9178 54.4071 31.9178H31.5428C30.5082 31.9178 29.6666 32.8997 29.6666 34.1066V34.115C29.6666 35.3219 30.5082 36.3038 31.5428 36.3038ZM30.6691 34.1066C30.6691 33.5446 31.061 33.0874 31.5428 33.0874H54.4072C54.8889 33.0874 55.2808 33.5446 55.2808 34.1066V34.115C55.2808 34.677 54.8889 35.1342 54.4072 35.1342H31.5428C31.061 35.1342 30.6691 34.677 30.6691 34.115V34.1066ZM31.5595 29.2278H54.4073C55.4418 29.2278 56.2834 28.244 56.2834 27.0348C56.2834 25.8255 55.4418 24.8418 54.4073 24.8418H48.3246C48.1927 24.8418 48.066 24.9026 47.9722 25.0109L46.7811 26.3852L45.5753 25.0086C45.4816 24.9017 45.3557 24.8418 45.2247 24.8418H31.5595C30.5249 24.8418 29.6833 25.8255 29.6833 27.0348C29.6833 28.244 30.5249 29.2278 31.5595 29.2278ZM31.5595 26.0114H45.0202L46.4325 27.6235C46.628 27.8468 46.941 27.8459 47.1355 27.6213L48.5307 26.0114H54.4073C54.889 26.0114 55.2809 26.4705 55.2809 27.0348C55.2809 27.599 54.889 28.0582 54.4073 28.0582H31.5595C31.0778 28.0582 30.6858 27.599 30.6858 27.0348C30.6858 26.4705 31.0777 26.0114 31.5595 26.0114ZM30.1846 30.6442C31.1732 30.6442 31.6554 30.8284 32.1658 31.0234C32.7285 31.2384 33.3104 31.4608 34.4591 31.4608C35.6077 31.4608 36.1896 31.2384 36.7523 31.0234C37.2628 30.8284 37.745 30.6442 38.7335 30.6442C39.7221 30.6442 40.2043 30.8284 40.7147 31.0234C41.2774 31.2384 41.8594 31.4608 43.008 31.4608C44.1566 31.4608 44.7385 31.2384 45.3013 31.0234C45.8118 30.8284 46.2939 30.6442 47.2825 30.6442C48.2712 30.6442 48.7534 30.8284 49.2638 31.0234C49.8267 31.2384 50.4086 31.4608 51.5573 31.4608C52.706 31.4608 53.2879 31.2384 53.8507 31.0234C54.3612 30.8284 54.8434 30.6442 55.832 30.6442C56.1088 30.6442 56.3333 30.3824 56.3333 30.0594C56.3333 29.7364 56.1088 29.4746 55.832 29.4746C54.6834 29.4746 54.1015 29.6969 53.5386 29.912C53.0281 30.107 52.546 30.2912 51.5573 30.2912C50.5685 30.2912 50.0864 30.107 49.5759 29.912C49.0131 29.6969 48.4312 29.4746 47.2825 29.4746C46.1339 29.4746 45.552 29.6969 44.9892 29.912C44.4788 30.107 43.9966 30.2912 43.008 30.2912C42.0194 30.2912 41.5371 30.107 41.0267 29.912C40.464 29.6969 39.8821 29.4746 38.7335 29.4746C37.5849 29.4746 37.003 29.6969 36.4403 29.912C35.9298 30.107 35.4477 30.2912 34.4591 30.2912C33.4704 30.2912 32.9882 30.107 32.4778 29.912C31.9151 29.6969 31.3332 29.4746 30.1846 29.4746C29.9078 29.4746 29.6833 29.7364 29.6833 30.0594C29.6833 30.3824 29.9078 30.6442 30.1846 30.6442Z" fill="#545E5E"/>
<path d="M17.072 77V65.56H21.92C23.1253 65.56 24.0427 65.8907 24.672 66.552C25.1627 67.064 25.408 67.7147 25.408 68.504C25.408 69.72 24.7947 70.52 23.568 70.904V70.952C24.2507 71.112 24.8053 71.432 25.232 71.912C25.6587 72.3813 25.872 72.984 25.872 73.72C25.872 74.5947 25.5947 75.3253 25.04 75.912C24.368 76.6373 23.4133 77 22.176 77H17.072ZM18.512 75.704H22.112C22.9013 75.704 23.4987 75.512 23.904 75.128C24.2453 74.7653 24.416 74.3227 24.416 73.8C24.416 73.1067 24.1973 72.5787 23.76 72.216C23.3227 71.8533 22.7413 71.672 22.016 71.672H18.512V75.704ZM18.512 70.456H21.744C22.4373 70.456 22.9813 70.2907 23.376 69.96C23.7707 69.6293 23.968 69.1707 23.968 68.584C23.968 68.0293 23.7867 67.5973 23.424 67.288C23.072 66.968 22.576 66.808 21.936 66.808H18.512V70.456ZM33.7369 77H32.4409V75.864H32.4089C31.7582 76.7493 30.9262 77.192 29.9129 77.192C29.0595 77.192 28.3822 76.952 27.8809 76.472C27.3795 75.9813 27.1289 75.3093 27.1289 74.456V68.728H28.4249V74.424C28.4249 74.9573 28.5849 75.3733 28.9049 75.672C29.2355 75.9707 29.6942 76.12 30.2809 76.12C30.9315 76.12 31.4542 75.9013 31.8489 75.464C32.2435 75.0267 32.4409 74.4773 32.4409 73.816V68.728H33.7369V77ZM36.7854 68.728V70.104H36.8174C37.084 69.6667 37.4307 69.3147 37.8574 69.048C38.284 68.7707 38.7587 68.632 39.2814 68.632C39.4734 68.632 39.6494 68.664 39.8094 68.728V69.976H39.7614C39.6014 69.9227 39.4094 69.896 39.1854 69.896C38.524 69.896 37.9587 70.1307 37.4894 70.6C37.02 71.0587 36.7854 71.6613 36.7854 72.408V77H35.4894V68.728H36.7854ZM43.9573 79.752C42.9013 79.752 42.0693 79.5493 41.4613 79.144C40.8639 78.7493 40.5279 78.1893 40.4533 77.464H41.6533C41.7706 78.3067 42.5279 78.728 43.9253 78.728C45.5039 78.728 46.2933 78.0187 46.2933 76.6V75.432H46.2613C45.9306 75.8587 45.5786 76.1787 45.2053 76.392C44.8319 76.6053 44.3679 76.712 43.8133 76.712C42.7466 76.712 41.8773 76.328 41.2053 75.56C40.5333 74.792 40.1973 73.8107 40.1973 72.616C40.1973 71.368 40.5333 70.376 41.2053 69.64C41.8879 68.904 42.7306 68.536 43.7333 68.536C44.8213 68.536 45.6639 68.952 46.2613 69.784H46.2933V68.728H47.5893V76.552C47.5893 77.608 47.2639 78.4027 46.6133 78.936C45.9733 79.48 45.0879 79.752 43.9573 79.752ZM43.8773 75.624C45.5519 75.624 46.3893 74.6 46.3893 72.552C46.3893 70.6 45.5466 69.624 43.8613 69.624C43.1039 69.624 42.5226 69.896 42.1173 70.44C41.7226 70.984 41.5253 71.7147 41.5253 72.632C41.5253 73.5493 41.7279 74.28 42.1332 74.824C42.5386 75.3573 43.1199 75.624 43.8773 75.624ZM52.8848 77.224C51.6581 77.224 50.6821 76.8133 49.9568 75.992C49.2421 75.16 48.8848 74.12 48.8848 72.872C48.8848 71.6453 49.2474 70.616 49.9728 69.784C50.7088 68.9413 51.6528 68.52 52.8048 68.52C54.0208 68.52 54.9594 68.9467 55.6208 69.8C56.2821 70.6427 56.6128 71.768 56.6128 73.176H50.2128C50.2661 74.0507 50.5221 74.7653 50.9808 75.32C51.4501 75.864 52.0848 76.136 52.8848 76.136C54.1221 76.136 54.8848 75.5707 55.1728 74.44H56.4368C56.2448 75.3253 55.8394 76.0133 55.2208 76.504C54.6021 76.984 53.8234 77.224 52.8848 77.224ZM54.5328 70.248C54.1168 69.7787 53.5408 69.544 52.8048 69.544C52.0688 69.544 51.4821 69.7893 51.0448 70.28C50.6181 70.7707 50.3514 71.4107 50.2448 72.2H55.2208C55.1781 71.368 54.9488 70.7173 54.5328 70.248ZM59.176 68.728V70.104H59.208C59.4747 69.6667 59.8213 69.3147 60.248 69.048C60.6747 68.7707 61.1493 68.632 61.672 68.632C61.864 68.632 62.04 68.664 62.2 68.728V69.976H62.152C61.992 69.9227 61.8 69.896 61.576 69.896C60.9147 69.896 60.3493 70.1307 59.88 70.6C59.4107 71.0587 59.176 71.6613 59.176 72.408V77H57.88V68.728H59.176ZM66.5004 77.24C65.3697 77.24 64.4897 76.9893 63.8604 76.488C63.2417 75.976 62.9004 75.2507 62.8364 74.312H64.1644C64.3137 75.5387 65.103 76.152 66.5324 76.152C67.183 76.152 67.663 76.0293 67.9724 75.784C68.2924 75.528 68.4524 75.1973 68.4524 74.792C68.4524 74.3547 68.2977 74.04 67.9884 73.848C67.679 73.656 67.1137 73.4747 66.2924 73.304C65.951 73.2293 65.679 73.1707 65.4764 73.128C65.2844 73.0747 65.0497 73.0053 64.7724 72.92C64.495 72.824 64.2764 72.7227 64.1164 72.616C63.967 72.4987 63.8124 72.36 63.6524 72.2C63.4924 72.04 63.375 71.8427 63.3004 71.608C63.2364 71.3733 63.2044 71.112 63.2044 70.824C63.2044 70.12 63.4604 69.5653 63.9724 69.16C64.495 68.7547 65.231 68.552 66.1804 68.552C68.143 68.552 69.2257 69.416 69.4284 71.144H68.1004C68.0364 70.6 67.8497 70.2053 67.5404 69.96C67.231 69.704 66.767 69.576 66.1484 69.576C65.583 69.576 65.1617 69.688 64.8844 69.912C64.6177 70.1253 64.4844 70.408 64.4844 70.76C64.4844 71.1653 64.6444 71.4533 64.9644 71.624C65.2844 71.784 65.8657 71.9493 66.7084 72.12C67.2204 72.2267 67.6204 72.328 67.9084 72.424C68.207 72.5093 68.5164 72.648 68.8364 72.84C69.1564 73.0213 69.391 73.2667 69.5404 73.576C69.6897 73.8853 69.7644 74.2693 69.7644 74.728C69.7644 75.5387 69.4657 76.1627 68.8684 76.6C68.271 77.0267 67.4817 77.24 66.5004 77.24Z" fill="#838D8D"/>
</svg>
