<svg width="87" height="84" viewBox="0 0 87 84" fill="none" xmlns="http://www.w3.org/2000/svg">
<path d="M15.0414 44.6958C15.0414 49.7394 19.1301 53.8281 24.1738 53.8281H62.8262C67.8699 53.8281 71.9586 49.7394 71.9586 44.6958V30.63C71.9586 14.9127 59.2172 2.17141 43.5 2.17141C27.7828 2.17141 15.0414 14.9127 15.0414 30.63V44.6958Z" fill="white" stroke="#DEEAEA"/>
<path d="M32.363 22.2608C31.6801 22.1313 30.9765 22.161 30.307 22.3477C29.7136 22.5291 29.1807 22.8768 29.0371 23.4778C28.8859 24.0749 29.2337 24.6304 29.7099 25.0046C30.1823 25.375 30.8323 25.6471 31.5768 25.7718C32.3705 25.9041 34.6873 26.6486 35.6208 27.601C35.6586 27.6388 35.651 27.6275 35.6925 27.6804C34.6003 27.945 33.7198 28.4363 33.1793 29.0335C32.8585 29.3846 32.6334 29.8125 32.5262 30.2759C32.4189 30.7393 32.433 31.2226 32.567 31.679C32.7446 32.3404 33.7386 32.0494 33.527 31.3993C33.4301 31.1071 33.4163 30.7937 33.4871 30.4941C33.5578 30.1945 33.7103 29.9204 33.9276 29.7023C34.3283 29.2602 35.1295 28.7953 36.2217 28.5761C36.5399 29.3159 36.7966 30.0807 36.9889 30.8626C37.1401 31.5127 38.1152 31.2822 37.964 30.6359C37.964 30.6359 37.809 29.9593 37.5331 29.1732C37.2043 28.3342 36.9889 27.6237 36.3275 26.8981C35.05 25.5942 32.7484 24.9517 31.7468 24.7816C31.2371 24.7087 30.7517 24.5171 30.3296 24.2223C30.0272 23.9879 29.9781 23.8179 30.0046 23.7196C30.0272 23.6214 30.1936 23.4324 30.6018 23.3039C31.1226 23.1669 31.6674 23.1475 32.1967 23.2472C32.9903 23.3833 35.1067 23.4928 37.1098 23.5873C38.3995 23.6484 39.6897 23.7026 40.98 23.7498C41.8049 23.7502 42.6168 23.9545 43.3437 24.3445C44.0706 24.7346 44.6897 25.2983 45.1461 25.9854C45.6024 26.6726 45.8818 27.4619 45.9594 28.2832C46.037 29.1044 45.9104 29.9321 45.5908 30.6926C45.3263 31.3048 46.2522 31.6979 46.5129 31.0818C46.8254 30.3442 46.9861 29.5511 46.9854 28.75C46.9823 27.1582 46.3479 25.6326 45.2213 24.5081C44.0946 23.3836 42.5679 22.7521 40.9762 22.7521C40.9573 22.7521 39.1545 22.6879 37.1666 22.5896C35.1635 22.4951 32.9223 22.3553 32.3592 22.2608H32.363ZM49.4079 22.5026C49.3287 22.5113 49.2528 22.5388 49.1863 22.5829C49.1199 22.6269 49.065 22.6862 49.0262 22.7559C48.6647 23.3844 48.4808 24.0994 48.4943 24.8244C48.5078 25.5494 48.7182 26.257 49.1029 26.8716C49.4877 27.4862 50.0324 27.9846 50.6786 28.3135C51.3248 28.6423 52.0483 28.7893 52.7716 28.7386C53.4746 28.7273 53.4028 27.6577 52.7074 27.7409C52.5121 27.7555 52.3158 27.7504 52.1216 27.7258C51.6689 27.67 51.235 27.5116 50.853 27.2626C50.4709 27.0135 50.1508 26.6806 49.9171 26.289C49.6834 25.8974 49.5422 25.4576 49.5044 25.0031C49.4666 24.5486 49.5331 24.0915 49.6989 23.6667C50.1373 23.8708 50.8706 24.2147 51.7965 24.7476C53.142 25.5186 54.631 26.592 55.1601 27.4763C55.848 28.6215 56.2221 30.1068 55.6325 31.2973C55.3378 31.8982 56.2373 32.3404 56.5359 31.7394C57.3371 30.1143 56.8194 28.2926 56.0181 26.9585C55.2736 25.7189 53.6937 24.6796 52.2916 23.8746C50.8932 23.0733 49.6536 22.5405 49.6536 22.5405C49.5775 22.5075 49.4942 22.4945 49.4117 22.5026H49.4079ZM50.1034 29.759C50.0076 29.7656 49.9157 29.7998 49.8388 29.8573L48.4858 30.8702C47.9491 31.2708 48.5538 32.0796 49.0905 31.6752L50.4435 30.6624C50.8706 30.3676 50.6212 29.7023 50.1034 29.759ZM31.4673 32.7448C31.0696 32.7478 30.6891 32.9073 30.4082 33.1889C30.1274 33.4704 29.9688 33.8513 29.9668 34.249C29.9668 35.0691 30.6471 35.7456 31.4673 35.7456H32.1929L33.5421 38.0019C33.5862 38.0768 33.6493 38.139 33.7249 38.1821C33.8005 38.2252 33.886 38.2477 33.973 38.2475H52.9946C53.0809 38.2471 53.1657 38.2242 53.2406 38.1811C53.3154 38.138 53.3778 38.0763 53.4216 38.0019L54.7822 35.7456H55.5003C55.8972 35.7446 56.2778 35.5867 56.5588 35.3064C56.8399 35.026 56.9987 34.6459 57.0007 34.249C56.9987 33.8513 56.8401 33.4704 56.5593 33.1889C56.2784 32.9073 55.8979 32.7478 55.5003 32.7448H31.4673ZM31.4673 33.7463H55.5003C55.7875 33.7463 55.9916 33.9617 55.9916 34.249C55.9916 34.5324 55.7875 34.7403 55.5003 34.7403H54.495C54.4086 34.7408 54.3238 34.7637 54.249 34.8067C54.1741 34.8498 54.1117 34.9115 54.0679 34.986L52.7149 37.2422H34.2527L32.8996 34.986C32.8553 34.9123 32.7927 34.8512 32.7179 34.8089C32.643 34.7665 32.5585 34.7441 32.4726 34.744H31.4673C31.4017 34.7461 31.3364 34.7348 31.2753 34.7106C31.2143 34.6865 31.1589 34.6501 31.1125 34.6037C31.0661 34.5573 31.0297 34.5019 31.0056 34.4409C30.9814 34.3799 30.97 34.3145 30.9721 34.249C30.9721 33.9617 31.18 33.7463 31.4635 33.7463H31.4673Z" fill="#545E5E"/>
<path d="M34.9783 34.744C34.9088 34.738 34.8389 34.7465 34.773 34.7689C34.707 34.7913 34.6464 34.8272 34.595 34.8743C34.5436 34.9214 34.5026 34.9787 34.4746 35.0425C34.4465 35.1063 34.432 35.1751 34.432 35.2448C34.432 35.3145 34.4465 35.3834 34.4746 35.4472C34.5026 35.511 34.5436 35.5683 34.595 35.6154C34.6464 35.6624 34.707 35.6983 34.773 35.7208C34.8389 35.7432 34.9088 35.7516 34.9783 35.7456H51.4941C51.5636 35.7516 51.6335 35.7432 51.6994 35.7208C51.7654 35.6983 51.826 35.6624 51.8774 35.6154C51.9288 35.5683 51.9698 35.511 51.9978 35.4472C52.0259 35.3834 52.0404 35.3145 52.0404 35.2448C52.0404 35.1751 52.0259 35.1063 51.9978 35.0425C51.9698 34.9787 51.9288 34.9214 51.8774 34.8743C51.826 34.8272 51.7654 34.7913 51.6994 34.7689C51.6335 34.7465 51.5636 34.738 51.4941 34.744H34.9783ZM32.2042 25.0839C32.2042 25.0839 31.6373 25.4241 31.0742 25.8966C30.7824 26.1333 30.522 26.4064 30.2994 26.7091C30.0802 27.019 29.895 27.4007 29.9744 27.8391C30.1255 28.6857 30.8814 29.1771 31.5239 29.5701C32.1664 29.9632 32.7825 30.2126 32.7825 30.2126L33.1604 29.2829C33.1604 29.2829 32.6124 29.0561 32.0493 28.716C31.4899 28.3721 31.0024 27.8618 30.9646 27.6577C30.9571 27.6199 30.9797 27.4801 31.1195 27.2835C31.2953 27.051 31.4984 26.8404 31.7243 26.6562C32.2042 26.2518 32.7144 25.9494 32.7144 25.9494L32.2042 25.0839ZM48.9733 18.2924C43.4857 16.7655 37.4084 18.5305 34.521 22.5858C34.4827 22.6391 34.4555 22.6995 34.4406 22.7634C34.4257 22.8273 34.4235 22.8936 34.4342 22.9583C34.4449 23.0231 34.4683 23.0851 34.503 23.1408C34.5376 23.1965 34.5829 23.2449 34.6363 23.2831C34.6896 23.3213 34.75 23.3486 34.8139 23.3635C34.8778 23.3784 34.944 23.3806 35.0087 23.3699C35.0735 23.3592 35.1356 23.3358 35.1913 23.3012C35.247 23.2665 35.2953 23.2212 35.3335 23.1678C37.911 19.5472 43.599 17.8389 48.7087 19.2562C53.8147 20.6772 56.7475 24.6758 55.8329 28.7046C55.818 28.7686 55.8159 28.835 55.8267 28.8998C55.8374 28.9647 55.8608 29.0268 55.8955 29.0826C55.9303 29.1384 55.9756 29.1868 56.0291 29.225C56.0825 29.2633 56.143 29.2906 56.2071 29.3055C56.2711 29.3204 56.3374 29.3226 56.4022 29.3118C56.4671 29.3011 56.5292 29.2776 56.585 29.2429C56.6408 29.2082 56.6892 29.1628 56.7275 29.1093C56.7657 29.0559 56.7931 28.9954 56.808 28.9314C57.8548 24.3092 54.4648 19.8155 48.9733 18.2924Z" fill="#545E5E"/>
<path d="M21.5 77.224C19.8893 77.224 18.5933 76.6693 17.612 75.56C16.6307 74.4507 16.14 73.0213 16.14 71.272C16.14 69.544 16.6253 68.12 17.596 67C18.5773 65.8693 19.9 65.304 21.564 65.304C22.8653 65.304 23.916 65.64 24.716 66.312C25.516 66.984 25.996 67.864 26.156 68.952H24.748C24.6093 68.2267 24.2573 67.6453 23.692 67.208C23.1373 66.7707 22.4173 66.552 21.532 66.552C20.3053 66.552 19.3453 66.9947 18.652 67.88C17.9587 68.7547 17.612 69.8853 17.612 71.272C17.612 72.68 17.9693 73.816 18.684 74.68C19.4093 75.5333 20.364 75.96 21.548 75.96C22.572 75.96 23.3613 75.6613 23.916 75.064C24.4813 74.4667 24.8013 73.7147 24.876 72.808H26.3C26.2893 73.3733 26.156 73.9547 25.9 74.552C25.6547 75.1387 25.3293 75.6293 24.924 76.024C24.1027 76.824 22.9613 77.224 21.5 77.224ZM29.0198 65.56V69.816H29.0518C29.6918 68.9627 30.5664 68.536 31.6758 68.536C32.5504 68.536 33.2331 68.7653 33.7238 69.224C34.2144 69.6827 34.4598 70.3387 34.4598 71.192V77H33.1638V71.304C33.1638 70.7707 32.9984 70.36 32.6678 70.072C32.3371 69.7733 31.8784 69.624 31.2918 69.624C30.6304 69.624 30.0864 69.8373 29.6598 70.264C29.2331 70.6907 29.0198 71.24 29.0198 71.912V77H27.7238V65.56H29.0198ZM36.1769 77V68.728H37.4729V77H36.1769ZM36.1769 67.16V65.56H37.4729V67.16H36.1769ZM42.7754 77.224C41.57 77.224 40.5994 76.808 39.8634 75.976C39.138 75.144 38.7754 74.1093 38.7754 72.872C38.7754 71.6347 39.138 70.6 39.8634 69.768C40.5994 68.936 41.57 68.52 42.7754 68.52C43.746 68.52 44.5407 68.7813 45.1594 69.304C45.778 69.816 46.162 70.5147 46.3114 71.4H44.9994C44.9034 70.8347 44.6634 70.392 44.2794 70.072C43.8954 69.752 43.394 69.592 42.7754 69.592C41.922 69.592 41.2607 69.9013 40.7914 70.52C40.3327 71.1387 40.1034 71.9227 40.1034 72.872C40.1034 73.8213 40.3327 74.6053 40.7914 75.224C41.2607 75.832 41.922 76.136 42.7754 76.136C43.4367 76.136 43.9647 75.96 44.3594 75.608C44.754 75.2453 44.978 74.7387 45.0314 74.088H46.3114C46.226 75.08 45.874 75.8533 45.2554 76.408C44.6367 76.952 43.81 77.224 42.7754 77.224ZM52.9763 77L50.0483 72.536L48.8323 73.688V77H47.5363V65.56H48.8323V72.264L52.4643 68.728H54.1123L50.9443 71.704L54.4963 77H52.9763ZM58.416 77.224C57.1893 77.224 56.2133 76.8133 55.488 75.992C54.7733 75.16 54.416 74.12 54.416 72.872C54.416 71.6453 54.7787 70.616 55.504 69.784C56.24 68.9413 57.184 68.52 58.336 68.52C59.552 68.52 60.4907 68.9467 61.152 69.8C61.8133 70.6427 62.144 71.768 62.144 73.176H55.744C55.7973 74.0507 56.0533 74.7653 56.512 75.32C56.9813 75.864 57.616 76.136 58.416 76.136C59.6533 76.136 60.416 75.5707 60.704 74.44H61.968C61.776 75.3253 61.3707 76.0133 60.752 76.504C60.1333 76.984 59.3547 77.224 58.416 77.224ZM60.064 70.248C59.648 69.7787 59.072 69.544 58.336 69.544C57.6 69.544 57.0133 69.7893 56.576 70.28C56.1493 70.7707 55.8827 71.4107 55.776 72.2H60.752C60.7093 71.368 60.48 70.7173 60.064 70.248ZM64.7073 68.728V69.816H64.7393C65.3793 68.9627 66.2539 68.536 67.3633 68.536C68.2379 68.536 68.9206 68.7653 69.4113 69.224C69.9019 69.6827 70.1473 70.3387 70.1473 71.192V77H68.8513V71.304C68.8513 70.7707 68.6859 70.36 68.3553 70.072C68.0246 69.7733 67.5659 69.624 66.9793 69.624C66.3179 69.624 65.7739 69.8373 65.3473 70.264C64.9206 70.6907 64.7073 71.24 64.7073 71.912V77H63.4113V68.728H64.7073Z" fill="#838D8D"/>
</svg>
