<svg width="87" height="84" viewBox="0 0 87 84" fill="none" xmlns="http://www.w3.org/2000/svg">
<path d="M15.0415 44.6958C15.0415 49.7394 19.1302 53.8281 24.1738 53.8281H62.8263C67.8699 53.8281 71.9586 49.7394 71.9586 44.6958V30.63C71.9586 14.9127 59.2173 2.17141 43.5001 2.17141C27.7828 2.17141 15.0415 14.9127 15.0415 30.63V44.6958Z" fill="white" stroke="#DEEAEA"/>
<path d="M43.9834 41.3327H42.0222C40.3999 41.3328 38.7935 41.0136 37.2947 40.3934C35.7959 39.7732 34.434 38.8642 33.2869 37.7182C32.1399 36.5721 31.23 35.2116 30.6093 33.7143C29.9886 32.217 29.6692 30.6121 29.6694 28.9915V28.7831C29.6694 28.645 29.7244 28.5125 29.8222 28.4148C29.92 28.3171 30.0526 28.2622 30.1909 28.2622H55.8146C55.9529 28.2622 56.0856 28.3171 56.1834 28.4148C56.2812 28.5125 56.3361 28.645 56.3361 28.7831V28.9915C56.3363 30.6121 56.0169 32.217 55.3962 33.7143C54.7755 35.2116 53.8657 36.5721 52.7186 37.7182C51.5715 38.8642 50.2097 39.7732 48.7109 40.3934C47.2121 41.0136 45.6057 41.3328 43.9834 41.3327ZM30.7165 29.3041C30.8823 35.3905 35.8899 40.2904 42.0222 40.2904H43.9834C50.1157 40.2904 55.1232 35.3905 55.289 29.3041H30.7165Z" fill="#545E5E"/>
<path d="M54.9077 29.296C54.7694 29.296 54.6368 29.2411 54.539 29.1434L49.1623 23.769C48.7762 24.1612 48.4722 24.6262 48.2679 25.137C48.0636 25.6477 47.9631 26.194 47.9723 26.744C47.9734 26.8127 47.9608 26.8809 47.9353 26.9448C47.9098 27.0086 47.8719 27.0668 47.8239 27.1159C47.7758 27.1651 47.7184 27.2042 47.6551 27.2311C47.5918 27.2581 47.5238 27.2722 47.4551 27.2727H47.4509C47.3137 27.2727 47.1821 27.2188 47.0845 27.1226C46.9869 27.0263 46.9312 26.8956 46.9294 26.7586C46.9175 26.062 47.0465 25.3702 47.3086 24.7245C47.5707 24.0789 47.9605 23.4927 48.4547 23.0011L48.7931 22.6625C48.8415 22.6141 48.899 22.5757 48.9623 22.5495C49.0257 22.5233 49.0935 22.5098 49.162 22.5098C49.2306 22.5098 49.2984 22.5233 49.3617 22.5495C49.425 22.5757 49.4825 22.6141 49.531 22.6625L55.2727 28.4068C55.3454 28.4794 55.395 28.5719 55.4152 28.6726C55.4354 28.7733 55.4254 28.8777 55.3864 28.9727C55.3474 29.0678 55.2811 29.1491 55.196 29.2067C55.1108 29.2642 55.0105 29.2953 54.9077 29.296ZM55.5684 31.9199H30.4369C30.2986 31.9199 30.1659 31.865 30.0681 31.7673C29.9703 31.6696 29.9154 31.5371 29.9154 31.399C29.9154 31.2608 29.9703 31.1283 30.0681 31.0306C30.1659 30.9329 30.2986 30.8781 30.4369 30.8781H55.571C55.7093 30.8781 55.8419 30.9329 55.9397 31.0306C56.0375 31.1283 56.0924 31.2608 56.0924 31.399C56.0924 31.5371 56.0375 31.6696 55.9397 31.7673C55.8419 31.865 55.7093 31.9199 55.571 31.9199H55.5684Z" fill="#545E5E"/>
<path d="M51.1013 29.2961C50.9885 29.2961 50.8787 29.2595 50.7884 29.1919C50.3974 28.9011 50.0802 28.5226 49.8623 28.0869C49.6444 27.6513 49.5319 27.1707 49.5338 26.6837C49.5344 26.2512 49.6242 25.8235 49.7976 25.4272C49.971 25.031 50.2243 24.6747 50.5418 24.3807C50.5918 24.3331 50.6508 24.2959 50.7154 24.2713C50.78 24.2467 50.8488 24.2351 50.9179 24.2373C50.9869 24.2395 51.0549 24.2554 51.1177 24.284C51.1806 24.3127 51.2372 24.3536 51.2841 24.4042C51.331 24.4549 51.3674 24.5144 51.3911 24.5792C51.4148 24.6441 51.4254 24.713 51.4222 24.7819C51.419 24.8509 51.4021 24.9185 51.3726 24.9809C51.343 25.0433 51.3013 25.0992 51.2499 25.1454C51.0242 25.3537 50.8471 25.6091 50.7311 25.8934C50.6152 26.1777 50.5632 26.484 50.5789 26.7906C50.5945 27.0972 50.6775 27.3966 50.8218 27.6676C50.9662 27.9386 51.1684 28.1747 51.4142 28.359C51.5017 28.4246 51.5664 28.516 51.599 28.6204C51.6317 28.7247 51.6306 28.8367 51.596 28.9404C51.5614 29.0442 51.495 29.1344 51.4062 29.1983C51.3174 29.2622 51.2107 29.2966 51.1013 29.2966V29.2961ZM47.9726 29.2961C47.8343 29.2961 47.7016 29.2412 47.6038 29.1435C47.506 29.0458 47.4511 28.9133 47.4511 28.7752C47.4569 28.2911 47.3664 27.8107 47.185 27.3618C47.0036 26.9129 46.7348 26.5044 46.3941 26.1601C46.0535 25.8157 45.6479 25.5423 45.2007 25.3557C44.7536 25.1691 44.2738 25.0731 43.7892 25.0731C43.3046 25.0731 42.8248 25.1691 42.3777 25.3557C41.9305 25.5423 41.5249 25.8157 41.1842 26.1601C40.8436 26.5044 40.5748 26.9129 40.3934 27.3618C40.2119 27.8107 40.1215 28.2911 40.1273 28.7752C40.1273 28.9133 40.0723 29.0458 39.9745 29.1435C39.8768 29.2412 39.7441 29.2961 39.6058 29.2961C39.4675 29.2961 39.3349 29.2412 39.2371 29.1435C39.1393 29.0458 39.0844 28.9133 39.0844 28.7752C39.0778 28.1538 39.1947 27.5373 39.4282 26.9613C39.6617 26.3853 40.0072 25.8613 40.4447 25.4196C40.8823 24.9779 41.4031 24.6272 41.9772 24.3879C42.5513 24.1486 43.1671 24.0254 43.7892 24.0254C44.4112 24.0254 45.0271 24.1486 45.6012 24.3879C46.1753 24.6272 46.6961 24.9779 47.1337 25.4196C47.5712 25.8613 47.9167 26.3853 48.1502 26.9613C48.3837 27.5373 48.5006 28.1538 48.494 28.7752C48.494 28.9133 48.4391 29.0458 48.3413 29.1435C48.2435 29.2412 48.1109 29.2961 47.9726 29.2961Z" fill="#545E5E"/>
<path d="M45.8788 29.2961C45.7405 29.2961 45.6079 29.2412 45.5101 29.1435C45.4123 29.0458 45.3574 28.9133 45.3574 28.7752C45.3612 28.5668 45.3234 28.3597 45.2462 28.166C45.1689 27.9724 45.0539 27.796 44.9077 27.6473C44.7615 27.4985 44.5871 27.3804 44.3947 27.2997C44.2023 27.2191 43.9957 27.1776 43.787 27.1776C43.5783 27.1776 43.3718 27.2191 43.1794 27.2997C42.9869 27.3804 42.8125 27.4985 42.6663 27.6473C42.5201 27.796 42.4051 27.9724 42.3279 28.166C42.2507 28.3597 42.2129 28.5668 42.2167 28.7752C42.2167 28.9133 42.1617 29.0458 42.0639 29.1435C41.9661 29.2412 41.8335 29.2961 41.6952 29.2961C41.5569 29.2961 41.4243 29.2412 41.3265 29.1435C41.2287 29.0458 41.1737 28.9133 41.1737 28.7752C41.1689 28.4292 41.2328 28.0858 41.362 27.7648C41.4911 27.4438 41.6828 27.1516 41.926 26.9052C42.1691 26.6589 42.4588 26.4632 42.7783 26.3297C43.0978 26.1962 43.4407 26.1274 43.787 26.1274C44.1333 26.1274 44.4762 26.1962 44.7957 26.3297C45.1152 26.4632 45.4049 26.6589 45.6481 26.9052C45.8912 27.1516 46.0829 27.4438 46.2121 27.7648C46.3412 28.0858 46.4052 28.4292 46.4003 28.7752C46.4003 28.9133 46.3453 29.0458 46.2476 29.1435C46.1498 29.2412 46.0171 29.2961 45.8788 29.2961ZM39.6558 29.2961C39.5175 29.2961 39.3849 29.2412 39.2871 29.1435C39.1893 29.0458 39.1343 28.9133 39.1343 28.7752C39.1401 28.2911 39.0497 27.8107 38.8682 27.3618C38.6868 26.9129 38.418 26.5044 38.0774 26.1601C37.7368 25.8157 37.3311 25.5423 36.884 25.3557C36.4368 25.1691 35.957 25.0731 35.4724 25.0731C34.9878 25.0731 34.508 25.1691 34.0609 25.3557C33.6137 25.5423 33.2081 25.8157 32.8675 26.1601C32.5269 26.5044 32.258 26.9129 32.0766 27.3618C31.8952 27.8107 31.8047 28.2911 31.8105 28.7752C31.8105 28.9133 31.7556 29.0458 31.6578 29.1435C31.56 29.2412 31.4273 29.2961 31.289 29.2961C31.1508 29.2961 31.0181 29.2412 30.9203 29.1435C30.8225 29.0458 30.7676 28.9133 30.7676 28.7752C30.761 28.1538 30.8779 27.5373 31.1114 26.9613C31.3449 26.3853 31.6904 25.8613 32.128 25.4196C32.5655 24.9779 33.0864 24.6272 33.6604 24.3879C34.2345 24.1486 34.8504 24.0254 35.4724 24.0254C36.0945 24.0254 36.7103 24.1486 37.2844 24.3879C37.8585 24.6272 38.3793 24.9779 38.8169 25.4196C39.2544 25.8613 39.5999 26.3853 39.8334 26.9613C40.0669 27.5373 40.1838 28.1538 40.1772 28.7752C40.1772 28.9133 40.1223 29.0458 40.0245 29.1435C39.9267 29.2412 39.7941 29.2961 39.6558 29.2961Z" fill="#545E5E"/>
<path d="M37.5644 29.2962C37.4261 29.2962 37.2934 29.2413 37.1956 29.1436C37.0978 29.0459 37.0429 28.9134 37.0429 28.7752C37.0467 28.5668 37.0089 28.3597 36.9317 28.1661C36.8545 27.9724 36.7394 27.7961 36.5932 27.6473C36.447 27.4986 36.2726 27.3805 36.0802 27.2998C35.8878 27.2192 35.6812 27.1776 35.4725 27.1776C35.2639 27.1776 35.0573 27.2192 34.8649 27.2998C34.6725 27.3805 34.4981 27.4986 34.3519 27.6473C34.2057 27.7961 34.0906 27.9724 34.0134 28.1661C33.9362 28.3597 33.8984 28.5668 33.9022 28.7752C33.9022 28.9134 33.8472 29.0459 33.7494 29.1436C33.6517 29.2413 33.519 29.2962 33.3807 29.2962C33.2424 29.2962 33.1098 29.2413 33.012 29.1436C32.9142 29.0459 32.8593 28.9134 32.8593 28.7752C32.8544 28.4293 32.9184 28.0858 33.0475 27.7648C33.1766 27.4438 33.3683 27.1516 33.6115 26.9053C33.8546 26.6589 34.1444 26.4633 34.4639 26.3298C34.7834 26.1962 35.1262 26.1275 35.4725 26.1275C35.8189 26.1275 36.1617 26.1962 36.4812 26.3298C36.8007 26.4633 37.0904 26.6589 37.3336 26.9053C37.5767 27.1516 37.7685 27.4438 37.8976 27.7648C38.0267 28.0858 38.0907 28.4293 38.0858 28.7752C38.0858 28.8436 38.0723 28.9114 38.0461 28.9746C38.0199 29.0378 37.9815 29.0952 37.9331 29.1436C37.8847 29.192 37.8272 29.2303 37.7639 29.2565C37.7006 29.2827 37.6328 29.2962 37.5644 29.2962ZM39.4374 27.9553C39.3577 27.9553 39.2791 27.9371 39.2076 27.902C39.136 27.867 39.0735 27.816 39.0247 27.753C38.976 27.69 38.9424 27.6167 38.9264 27.5387C38.9104 27.4607 38.9126 27.3801 38.9327 27.3031C38.9828 27.1184 39.0454 26.9372 39.1199 26.7608C39.2398 26.4597 39.3436 26.2003 39.3436 25.6466C39.3436 25.0928 39.2393 24.8329 39.1193 24.5318C38.9796 24.1817 38.8211 23.7848 38.8211 23.031C38.8211 22.2772 38.9775 21.8803 39.1199 21.5302C39.2398 21.2296 39.3436 20.9702 39.3436 20.417C39.3436 19.8638 39.2393 19.6038 39.1193 19.3027C38.9796 18.9527 38.8211 18.5562 38.8211 17.802C38.8211 17.0477 38.9775 16.6517 39.1193 16.3017C39.2398 16.0006 39.3436 15.7407 39.3436 15.1874C39.3436 15.0493 39.3985 14.9168 39.4963 14.8191C39.5941 14.7214 39.7267 14.6665 39.865 14.6665C40.0033 14.6665 40.1359 14.7214 40.2337 14.8191C40.3315 14.9168 40.3865 15.0493 40.3865 15.1874C40.3865 15.9412 40.23 16.3382 40.0882 16.6882C39.9677 16.9888 39.864 17.2487 39.864 17.802C39.864 18.3552 39.9683 18.6156 40.0882 18.9162C40.2279 19.2663 40.3865 19.6632 40.3865 20.417C40.3865 21.1708 40.23 21.5672 40.0882 21.9173C39.9677 22.2178 39.864 22.4778 39.864 23.031C39.864 23.5842 39.9683 23.8447 40.0882 24.1453C40.2279 24.4953 40.3865 24.8923 40.3865 25.6466C40.3865 26.4009 40.23 26.7973 40.0882 27.1468C40.0305 27.2825 39.9816 27.4217 39.9417 27.5636C39.913 27.6755 39.8479 27.7747 39.7566 27.8456C39.6653 27.9165 39.5531 27.9551 39.4374 27.9553ZM42.1485 25.446C42.0293 25.4459 41.9138 25.4051 41.8211 25.3303C41.7284 25.2556 41.6641 25.1513 41.639 25.035C41.5985 24.8624 41.5427 24.6939 41.4721 24.5313C41.3324 24.1812 41.1739 23.7848 41.1739 23.031C41.1739 22.2772 41.3303 21.8803 41.4727 21.5302C41.5931 21.2296 41.6969 20.9702 41.6969 20.417C41.6969 19.8638 41.5926 19.6038 41.4727 19.3027C41.3329 18.9527 41.1739 18.5562 41.1739 17.802C41.1739 17.0477 41.3303 16.6517 41.4727 16.3017C41.5931 16.0006 41.6969 15.7407 41.6969 15.1874C41.6969 15.0493 41.7518 14.9168 41.8496 14.8191C41.9474 14.7214 42.08 14.6665 42.2183 14.6665C42.3566 14.6665 42.4893 14.7214 42.5871 14.8191C42.6849 14.9168 42.7398 15.0493 42.7398 15.1874C42.7398 15.9412 42.5834 16.3382 42.441 16.6882C42.3211 16.9888 42.2168 17.2487 42.2168 17.802C42.2168 18.3552 42.3211 18.6156 42.441 18.9162C42.5813 19.2663 42.7398 19.6632 42.7398 20.417C42.7398 21.1708 42.5834 21.5672 42.441 21.9173C42.3211 22.2178 42.2168 22.4778 42.2168 23.031C42.2168 23.5842 42.3211 23.8442 42.441 24.1453C42.5333 24.3615 42.606 24.5855 42.6584 24.8146C42.6729 24.8815 42.6741 24.9506 42.6619 25.0179C42.6496 25.0852 42.6242 25.1495 42.5872 25.207C42.5501 25.2645 42.502 25.3142 42.4457 25.3531C42.3894 25.3921 42.326 25.4196 42.259 25.434C42.2227 25.4418 42.1856 25.4459 42.1485 25.446ZM44.1514 25.1282C44.0429 25.1282 43.9372 25.0945 43.8489 25.0316C43.7606 24.9688 43.694 24.88 43.6586 24.7777C43.6299 24.6953 43.5981 24.6156 43.5642 24.5318C43.4245 24.1817 43.2659 23.7848 43.2659 23.031C43.2659 22.2772 43.4224 21.8803 43.5647 21.5302C43.6847 21.2296 43.789 20.9702 43.789 20.417C43.789 19.8638 43.6847 19.6038 43.5647 19.3027C43.4245 18.9527 43.2659 18.5562 43.2659 17.802C43.2659 17.0477 43.4224 16.6517 43.5647 16.3017C43.6847 16.0006 43.789 15.7407 43.789 15.1874C43.789 15.0493 43.8439 14.9168 43.9417 14.8191C44.0395 14.7214 44.1721 14.6665 44.3104 14.6665C44.4487 14.6665 44.5813 14.7214 44.6791 14.8191C44.7769 14.9168 44.8319 15.0493 44.8319 15.1874C44.8319 15.9412 44.6754 16.3382 44.5331 16.6882C44.4126 16.9888 44.3088 17.2487 44.3088 17.802C44.3088 18.3552 44.4131 18.6156 44.5331 18.9162C44.6728 19.2663 44.8319 19.6632 44.8319 20.417C44.8319 21.1708 44.6754 21.5672 44.5331 21.9173C44.4126 22.2178 44.3088 22.4778 44.3088 23.031C44.3088 23.5842 44.4131 23.8442 44.5331 24.1453C44.5696 24.2369 44.6076 24.3317 44.6441 24.437C44.6894 24.5675 44.6809 24.7106 44.6206 24.8348C44.5603 24.9591 44.453 25.0543 44.3224 25.0996C44.2674 25.1187 44.2096 25.1284 44.1514 25.1282ZM46.3994 26.0289C46.2637 26.029 46.1334 25.9762 46.0361 25.8819C45.9387 25.7876 45.882 25.6591 45.8779 25.5236C45.8638 25.0548 45.7674 24.811 45.6558 24.5339C45.5155 24.1838 45.357 23.7869 45.357 23.0331C45.357 22.2793 45.5134 21.8824 45.6558 21.5323C45.7762 21.2317 45.88 20.9723 45.88 20.4191C45.88 19.8659 45.7757 19.6059 45.6558 19.3048C45.5155 18.9548 45.357 18.5583 45.357 17.804C45.357 17.0497 45.5134 16.6538 45.6558 16.3038C45.7762 16.0027 45.88 15.7427 45.88 15.1895C45.88 15.0514 45.9349 14.9189 46.0327 14.8212C46.1305 14.7235 46.2631 14.6686 46.4014 14.6686C46.5397 14.6686 46.6724 14.7235 46.7702 14.8212C46.868 14.9189 46.9229 15.0514 46.9229 15.1895C46.9229 15.9433 46.7665 16.3402 46.6241 16.6903C46.5037 16.9909 46.3999 17.2508 46.3999 17.804C46.3999 18.3573 46.5042 18.6177 46.6241 18.9183C46.7644 19.2684 46.9229 19.6653 46.9229 20.4191C46.9229 21.1729 46.7665 21.5693 46.6241 21.9193C46.5037 22.2199 46.3999 22.4799 46.3999 23.0331C46.3999 23.5863 46.5042 23.8468 46.6241 24.1473C46.8114 24.5721 46.9121 25.0299 46.9203 25.4939C46.9245 25.632 46.8736 25.7661 46.7789 25.8667C46.6841 25.9674 46.5532 26.0263 46.415 26.0305L46.3994 26.0289Z" fill="#545E5E"/>
<path d="M55.8147 15.7084H38.0331C37.8948 15.7084 37.7621 15.6535 37.6643 15.5558C37.5665 15.4581 37.5116 15.3256 37.5116 15.1874C37.5116 15.0493 37.5665 14.9168 37.6643 14.8191C37.7621 14.7214 37.8948 14.6665 38.0331 14.6665H55.8147C55.953 14.6665 56.0856 14.7214 56.1834 14.8191C56.2812 14.9168 56.3361 15.0493 56.3361 15.1874C56.3361 15.3256 56.2812 15.4581 56.1834 15.5558C56.0856 15.6535 55.953 15.7084 55.8147 15.7084ZM55.8152 17.8004H55.7995L38.0179 17.2795C37.9495 17.2774 37.882 17.262 37.8195 17.2339C37.7571 17.2059 37.7007 17.1658 37.6537 17.116C37.6067 17.0662 37.57 17.0077 37.5457 16.9437C37.5213 16.8797 37.5098 16.8116 37.5119 16.7432C37.5139 16.6748 37.5294 16.6074 37.5574 16.545C37.5855 16.4826 37.6256 16.4263 37.6755 16.3793C37.7253 16.3324 37.7839 16.2957 37.848 16.2714C37.912 16.2471 37.9802 16.2356 38.0487 16.2376L55.8303 16.7585C55.9686 16.7605 56.1005 16.8172 56.1969 16.9163C56.2933 17.0153 56.3464 17.1486 56.3444 17.2868C56.3425 17.4249 56.2857 17.5566 56.1866 17.653C56.0874 17.7493 55.954 17.8023 55.8157 17.8004H55.8152Z" fill="#545E5E"/>
<path d="M21 77.224C19.3893 77.224 18.0933 76.6693 17.112 75.56C16.1307 74.4507 15.64 73.0213 15.64 71.272C15.64 69.544 16.1253 68.12 17.096 67C18.0773 65.8693 19.4 65.304 21.064 65.304C22.3653 65.304 23.416 65.64 24.216 66.312C25.016 66.984 25.496 67.864 25.656 68.952H24.248C24.1093 68.2267 23.7573 67.6453 23.192 67.208C22.6373 66.7707 21.9173 66.552 21.032 66.552C19.8053 66.552 18.8453 66.9947 18.152 67.88C17.4587 68.7547 17.112 69.8853 17.112 71.272C17.112 72.68 17.4693 73.816 18.184 74.68C18.9093 75.5333 19.864 75.96 21.048 75.96C22.072 75.96 22.8613 75.6613 23.416 75.064C23.9813 74.4667 24.3013 73.7147 24.376 72.808H25.8C25.7893 73.3733 25.656 73.9547 25.4 74.552C25.1547 75.1387 24.8293 75.6293 24.424 76.024C23.6027 76.824 22.4613 77.224 21 77.224ZM28.5198 65.56V69.816H28.5518C29.1918 68.9627 30.0664 68.536 31.1758 68.536C32.0504 68.536 32.7331 68.7653 33.2238 69.224C33.7144 69.6827 33.9598 70.3387 33.9598 71.192V77H32.6638V71.304C32.6638 70.7707 32.4984 70.36 32.1678 70.072C31.8371 69.7733 31.3784 69.624 30.7918 69.624C30.1304 69.624 29.5864 69.8373 29.1598 70.264C28.7331 70.6907 28.5198 71.24 28.5198 71.912V77H27.2238V65.56H28.5198ZM35.6769 77V68.728H36.9729V77H35.6769ZM35.6769 67.16V65.56H36.9729V67.16H35.6769ZM40.0354 68.728V69.816H40.0674C40.7074 68.9627 41.582 68.536 42.6914 68.536C43.566 68.536 44.2487 68.7653 44.7394 69.224C45.23 69.6827 45.4754 70.3387 45.4754 71.192V77H44.1794V71.304C44.1794 70.7707 44.014 70.36 43.6834 70.072C43.3527 69.7733 42.894 69.624 42.3074 69.624C41.646 69.624 41.102 69.8373 40.6754 70.264C40.2487 70.6907 40.0354 71.24 40.0354 71.912V77H38.7394V68.728H40.0354ZM50.7285 77.224C49.5018 77.224 48.5258 76.8133 47.8005 75.992C47.0858 75.16 46.7285 74.12 46.7285 72.872C46.7285 71.6453 47.0912 70.616 47.8165 69.784C48.5525 68.9413 49.4965 68.52 50.6485 68.52C51.8645 68.52 52.8032 68.9467 53.4645 69.8C54.1258 70.6427 54.4565 71.768 54.4565 73.176H48.0565C48.1098 74.0507 48.3658 74.7653 48.8245 75.32C49.2938 75.864 49.9285 76.136 50.7285 76.136C51.9658 76.136 52.7285 75.5707 53.0165 74.44H54.2805C54.0885 75.3253 53.6832 76.0133 53.0645 76.504C52.4458 76.984 51.6672 77.224 50.7285 77.224ZM52.3765 70.248C51.9605 69.7787 51.3845 69.544 50.6485 69.544C49.9125 69.544 49.3258 69.7893 48.8885 70.28C48.4618 70.7707 48.1952 71.4107 48.0885 72.2H53.0645C53.0218 71.368 52.7925 70.7173 52.3765 70.248ZM58.8598 77.24C57.7291 77.24 56.8491 76.9893 56.2198 76.488C55.6011 75.976 55.2598 75.2507 55.1958 74.312H56.5238C56.6731 75.5387 57.4624 76.152 58.8918 76.152C59.5424 76.152 60.0224 76.0293 60.3318 75.784C60.6518 75.528 60.8118 75.1973 60.8118 74.792C60.8118 74.3547 60.6571 74.04 60.3478 73.848C60.0384 73.656 59.4731 73.4747 58.6518 73.304C58.3104 73.2293 58.0384 73.1707 57.8358 73.128C57.6438 73.0747 57.4091 73.0053 57.1318 72.92C56.8544 72.824 56.6358 72.7227 56.4758 72.616C56.3264 72.4987 56.1718 72.36 56.0118 72.2C55.8518 72.04 55.7344 71.8427 55.6598 71.608C55.5958 71.3733 55.5638 71.112 55.5638 70.824C55.5638 70.12 55.8198 69.5653 56.3318 69.16C56.8544 68.7547 57.5904 68.552 58.5398 68.552C60.5024 68.552 61.5851 69.416 61.7878 71.144H60.4598C60.3958 70.6 60.2091 70.2053 59.8998 69.96C59.5904 69.704 59.1264 69.576 58.5078 69.576C57.9424 69.576 57.5211 69.688 57.2438 69.912C56.9771 70.1253 56.8438 70.408 56.8438 70.76C56.8438 71.1653 57.0038 71.4533 57.3238 71.624C57.6438 71.784 58.2251 71.9493 59.0677 72.12C59.5798 72.2267 59.9798 72.328 60.2678 72.424C60.5664 72.5093 60.8758 72.648 61.1958 72.84C61.5158 73.0213 61.7504 73.2667 61.8998 73.576C62.0491 73.8853 62.1238 74.2693 62.1238 74.728C62.1238 75.5387 61.8251 76.1627 61.2278 76.6C60.6304 77.0267 59.8411 77.24 58.8598 77.24ZM67.0566 77.224C65.83 77.224 64.854 76.8133 64.1286 75.992C63.414 75.16 63.0566 74.12 63.0566 72.872C63.0566 71.6453 63.4193 70.616 64.1446 69.784C64.8806 68.9413 65.8246 68.52 66.9766 68.52C68.1926 68.52 69.1313 68.9467 69.7926 69.8C70.454 70.6427 70.7846 71.768 70.7846 73.176H64.3846C64.438 74.0507 64.694 74.7653 65.1526 75.32C65.622 75.864 66.2566 76.136 67.0566 76.136C68.294 76.136 69.0566 75.5707 69.3446 74.44H70.6086C70.4166 75.3253 70.0113 76.0133 69.3926 76.504C68.774 76.984 67.9953 77.224 67.0566 77.224ZM68.7046 70.248C68.2886 69.7787 67.7126 69.544 66.9766 69.544C66.2406 69.544 65.654 69.7893 65.2166 70.28C64.79 70.7707 64.5233 71.4107 64.4166 72.2H69.3926C69.35 71.368 69.1206 70.7173 68.7046 70.248Z" fill="#838D8D"/>
</svg>
