<svg width="87" height="84" viewBox="0 0 87 84" fill="none" xmlns="http://www.w3.org/2000/svg">
<path d="M15.0414 44.6958C15.0414 49.7394 19.1301 53.8281 24.1738 53.8281H62.8262C67.8699 53.8281 71.9586 49.7394 71.9586 44.6958V30.63C71.9586 14.9127 59.2172 2.17141 43.5 2.17141C27.7828 2.17141 15.0414 14.9127 15.0414 30.63V44.6958Z" fill="white" stroke="#DEEAEA"/>
<path d="M52.3524 25.1302C52.3529 24.8618 52.2686 24.6 52.1115 24.3824C51.9544 24.1647 51.7326 24.0022 51.4776 23.9182C51.1545 21.8252 49.7039 20.1416 47.7906 19.4571C47.5924 18.1831 46.9649 17.0139 46.0022 16.1388C44.9576 15.1894 43.6043 14.6665 42.1916 14.6665C40.7545 14.6665 39.3839 15.2053 38.3324 16.1836C37.3688 17.08 36.7543 18.2691 36.578 19.5606C36.0146 19.7913 35.4917 20.1097 35.0319 20.5092C34.0251 21.384 33.379 22.5933 33.2056 23.9195C32.9514 24.0039 32.7302 24.1663 32.5736 24.3837C32.417 24.6011 32.333 24.8623 32.3334 25.1302C32.3334 25.6845 32.6891 26.156 33.1836 26.3319L42.0414 41.1735C42.0704 41.2222 42.1116 41.2625 42.1609 41.2905C42.2103 41.3185 42.266 41.3332 42.3227 41.3332C42.3794 41.3332 42.4351 41.3185 42.4844 41.2905C42.5337 41.2625 42.5749 41.2222 42.6039 41.1735L51.4507 26.3504C51.9722 26.1898 52.3524 25.7037 52.3524 25.1302ZM38.7786 16.6633C39.7086 15.7982 40.9207 15.3217 42.1916 15.3217C44.5801 15.3217 46.592 16.9772 47.0867 19.2556C46.6894 19.1691 46.2841 19.1254 45.8775 19.1253C44.5965 19.1249 43.3532 19.5591 42.3509 20.3569C41.3774 19.5836 40.1432 19.1253 38.8083 19.1253C38.2933 19.125 37.7805 19.1916 37.2827 19.3236C37.4903 18.3083 38.0081 17.3801 38.7786 16.6633ZM33.4644 24.5263C33.6686 24.4767 33.8172 24.3118 33.8429 24.1066L33.8443 24.0953C34.1258 21.5951 36.2134 19.7805 38.8083 19.7805C41.3619 19.7805 43.5009 21.6736 43.7838 24.1846L43.7884 24.2247C43.7968 24.2983 43.8299 24.3668 43.8823 24.4192C43.9346 24.4715 44.0032 24.5045 44.0768 24.5129C44.2273 24.53 44.3663 24.6014 44.4678 24.7139C44.5693 24.8263 44.6262 24.9719 44.6279 25.1234C44.6275 25.1331 44.6275 25.1429 44.6279 25.1526V31.6538C44.6279 31.9739 44.3675 32.2343 44.0474 32.2343C43.7274 32.2343 43.467 31.9739 43.467 31.6538V26.6685C43.467 26.1628 43.0556 25.7515 42.55 25.7515C42.0444 25.7515 41.6331 26.1628 41.6331 26.6685V29.9113C41.6334 29.9899 41.6175 30.0677 41.5866 30.14C41.5557 30.2122 41.5102 30.2774 41.4531 30.3314C41.3373 30.4419 41.185 30.4983 41.0241 30.4911C40.7198 30.4767 40.4722 30.2051 40.4722 29.8857V26.6685C40.4722 26.1628 40.0608 25.7515 39.5552 25.7515H33.6098C33.2672 25.7515 32.9886 25.4728 32.9886 25.1302C32.9886 24.8473 33.1887 24.5934 33.4644 24.5263ZM45.2832 26.4196H45.5393L45.2832 26.5989V26.4196ZM45.2832 27.3988L46.6817 26.4195H49.6402L45.2832 29.4704V27.3988ZM45.2832 31.6539V30.2703L50.5486 26.5834L48.4245 30.1424L39.8175 36.169L38.9455 34.708L42.8546 31.9708C42.9951 32.4988 43.4759 32.8895 44.0476 32.8895C44.729 32.8895 45.2832 32.3352 45.2832 31.6539ZM45.4806 35.0752L41.0263 38.1942L40.1543 36.7331L47.6046 31.5163L45.4806 35.0752ZM38.4983 26.4068H39.5554C39.6248 26.4069 39.6913 26.4345 39.7404 26.4835C39.7895 26.5326 39.8171 26.5991 39.8172 26.6685V27.555L36.1916 30.0936L35.3195 28.6326L38.4983 26.4068ZM34.983 28.0684L33.9913 26.4068H37.3561L34.983 28.0684ZM39.8172 28.3547V29.8857C39.8172 30.0544 39.8494 30.2154 39.908 30.3627L37.4002 32.1187L36.5282 30.6576L39.8172 28.3547ZM40.3014 30.8871C40.4945 31.0382 40.7324 31.1333 40.9935 31.1456C41.3352 31.1617 41.6589 31.0409 41.9056 30.8056C42.1525 30.57 42.2885 30.2525 42.2885 29.9114V29.4959L42.812 29.1293V31.2009L38.6089 34.1439L37.7369 32.6827L40.3014 30.8871ZM42.812 28.3293L42.2885 28.6959V26.6685C42.2886 26.5991 42.3162 26.5325 42.3652 26.4835C42.4143 26.4344 42.4808 26.4068 42.5502 26.4067C42.6196 26.4068 42.6861 26.4344 42.7352 26.4835C42.7843 26.5325 42.8119 26.5991 42.812 26.6685V28.3293ZM42.3227 40.3664L41.3629 38.7583L44.6605 36.4493L42.3227 40.3664ZM51.0759 25.7516V25.7644H45.2833V25.1302C45.2834 24.8622 45.1991 24.6009 45.0424 24.3834C44.8856 24.166 44.6643 24.0035 44.41 23.9189C44.2309 22.7038 43.6657 21.6261 42.8472 20.8014C43.7185 20.1389 44.7829 19.7803 45.8774 19.7805C48.4067 19.7805 50.5318 21.6555 50.849 24.1533C50.8402 24.2395 50.866 24.3258 50.9207 24.3931C50.9754 24.4605 51.0545 24.5033 51.1408 24.5124C51.4527 24.5451 51.6971 24.8165 51.6971 25.1302C51.6972 25.4728 51.4185 25.7516 51.0759 25.7516Z" fill="#545E5E"/>
<path d="M43.844 13.5244L45.1383 14.7984L44.5868 15.3588L43.2924 14.0848L43.844 13.5244ZM46.9062 21.013L45.6119 19.7392L46.1633 19.1789L47.4577 20.4527L46.9062 21.013ZM40.063 19.3127L41.3573 20.5866L40.8059 21.147L39.5115 19.873L40.063 19.3127ZM49.7585 21.8415L49.1982 21.29L50.4721 19.9956L51.0325 20.5472L49.7585 21.8415ZM41.2169 14.4652L41.7685 15.0256L40.4741 16.2996L39.9226 15.7393L41.2169 14.4652ZM37.6782 19.1696L38.2297 19.7299L36.9353 21.0039L36.3839 20.4435L37.6782 19.1696Z" fill="#545E5E"/>
<path d="M11.604 77V65.56H13.044V77H11.604ZM18.5566 77.224C17.3513 77.224 16.3806 76.808 15.6446 75.976C14.9193 75.144 14.5566 74.1093 14.5566 72.872C14.5566 71.6347 14.9193 70.6 15.6446 69.768C16.3806 68.936 17.3513 68.52 18.5566 68.52C19.5273 68.52 20.322 68.7813 20.9406 69.304C21.5593 69.816 21.9433 70.5147 22.0926 71.4H20.7806C20.6846 70.8347 20.4446 70.392 20.0606 70.072C19.6766 69.752 19.1753 69.592 18.5566 69.592C17.7033 69.592 17.042 69.9013 16.5726 70.52C16.114 71.1387 15.8846 71.9227 15.8846 72.872C15.8846 73.8213 16.114 74.6053 16.5726 75.224C17.042 75.832 17.7033 76.136 18.5566 76.136C19.218 76.136 19.746 75.96 20.1406 75.608C20.5353 75.2453 20.7593 74.7387 20.8126 74.088H22.0926C22.0073 75.08 21.6553 75.8533 21.0366 76.408C20.418 76.952 19.5913 77.224 18.5566 77.224ZM26.8535 77.224C25.6268 77.224 24.6508 76.8133 23.9255 75.992C23.2108 75.16 22.8535 74.12 22.8535 72.872C22.8535 71.6453 23.2162 70.616 23.9415 69.784C24.6775 68.9413 25.6215 68.52 26.7735 68.52C27.9895 68.52 28.9282 68.9467 29.5895 69.8C30.2508 70.6427 30.5815 71.768 30.5815 73.176H24.1815C24.2348 74.0507 24.4908 74.7653 24.9495 75.32C25.4188 75.864 26.0535 76.136 26.8535 76.136C28.0908 76.136 28.8535 75.5707 29.1415 74.44H30.4055C30.2135 75.3253 29.8082 76.0133 29.1895 76.504C28.5708 76.984 27.7922 77.224 26.8535 77.224ZM28.5015 70.248C28.0855 69.7787 27.5095 69.544 26.7735 69.544C26.0375 69.544 25.4508 69.7893 25.0135 70.28C24.5868 70.7707 24.3202 71.4107 24.2135 72.2H29.1895C29.1468 71.368 28.9175 70.7173 28.5015 70.248ZM37.9316 77.224C36.7263 77.224 35.7556 76.808 35.0196 75.976C34.2943 75.144 33.9316 74.1093 33.9316 72.872C33.9316 71.6347 34.2943 70.6 35.0196 69.768C35.7556 68.936 36.7263 68.52 37.9316 68.52C38.9023 68.52 39.697 68.7813 40.3156 69.304C40.9343 69.816 41.3183 70.5147 41.4676 71.4H40.1556C40.0596 70.8347 39.8196 70.392 39.4356 70.072C39.0516 69.752 38.5503 69.592 37.9316 69.592C37.0783 69.592 36.417 69.9013 35.9476 70.52C35.489 71.1387 35.2596 71.9227 35.2596 72.872C35.2596 73.8213 35.489 74.6053 35.9476 75.224C36.417 75.832 37.0783 76.136 37.9316 76.136C38.593 76.136 39.121 75.96 39.5156 75.608C39.9103 75.2453 40.1343 74.7387 40.1876 74.088H41.4676C41.3823 75.08 41.0303 75.8533 40.4116 76.408C39.793 76.952 38.9663 77.224 37.9316 77.224ZM43.9885 68.728V70.104H44.0205C44.2872 69.6667 44.6338 69.3147 45.0605 69.048C45.4872 68.7707 45.9618 68.632 46.4845 68.632C46.6765 68.632 46.8525 68.664 47.0125 68.728V69.976H46.9645C46.8045 69.9227 46.6125 69.896 46.3885 69.896C45.7272 69.896 45.1618 70.1307 44.6925 70.6C44.2232 71.0587 43.9885 71.6613 43.9885 72.408V77H42.6925V68.728H43.9885ZM51.4004 77.224C50.1737 77.224 49.1977 76.8133 48.4724 75.992C47.7577 75.16 47.4004 74.12 47.4004 72.872C47.4004 71.6453 47.763 70.616 48.4884 69.784C49.2244 68.9413 50.1684 68.52 51.3204 68.52C52.5364 68.52 53.475 68.9467 54.1364 69.8C54.7977 70.6427 55.1284 71.768 55.1284 73.176H48.7284C48.7817 74.0507 49.0377 74.7653 49.4964 75.32C49.9657 75.864 50.6004 76.136 51.4004 76.136C52.6377 76.136 53.4004 75.5707 53.6884 74.44H54.9524C54.7604 75.3253 54.355 76.0133 53.7364 76.504C53.1177 76.984 52.339 77.224 51.4004 77.224ZM53.0484 70.248C52.6324 69.7787 52.0564 69.544 51.3204 69.544C50.5844 69.544 49.9977 69.7893 49.5604 70.28C49.1337 70.7707 48.867 71.4107 48.7604 72.2H53.7364C53.6937 71.368 53.4644 70.7173 53.0484 70.248ZM62.8916 77.08C62.0703 77.08 61.5956 76.6693 61.4676 75.848H61.4516C60.769 76.7227 59.8516 77.16 58.6996 77.16C57.8783 77.16 57.2063 76.9627 56.6836 76.568C56.161 76.1733 55.8996 75.6027 55.8996 74.856C55.8996 74.472 55.9583 74.1413 56.0756 73.864C56.2036 73.576 56.3636 73.3467 56.5556 73.176C56.7476 72.9947 57.009 72.84 57.3396 72.712C57.681 72.5733 58.0063 72.472 58.3156 72.408C58.625 72.3333 59.0196 72.2587 59.4996 72.184C59.809 72.1413 60.0276 72.1093 60.1556 72.088C60.2943 72.056 60.4703 72.0133 60.6836 71.96C60.897 71.896 61.0463 71.8267 61.1316 71.752C61.217 71.6773 61.297 71.576 61.3716 71.448C61.4463 71.32 61.4836 71.1707 61.4836 71C61.4836 70.5307 61.3183 70.1733 60.9876 69.928C60.6676 69.672 60.2143 69.544 59.6276 69.544C58.2943 69.544 57.6063 70.152 57.5636 71.368H56.3156C56.337 70.5253 56.625 69.848 57.1796 69.336C57.745 68.824 58.5556 68.568 59.6116 68.568C61.649 68.568 62.6676 69.4427 62.6676 71.192V75.128C62.6676 75.4907 62.7263 75.7467 62.8436 75.896C62.9716 76.0453 63.2063 76.0827 63.5476 76.008H63.5956V76.952C63.3823 77.0373 63.1476 77.08 62.8916 77.08ZM58.9876 76.168C59.7876 76.168 60.4063 75.9387 60.8436 75.48C61.281 75.0107 61.4996 74.4987 61.4996 73.944V72.536C61.105 72.7813 60.4756 72.984 59.6116 73.144C59.2916 73.208 59.041 73.2613 58.8596 73.304C58.6783 73.336 58.4703 73.4 58.2356 73.496C58.001 73.5813 57.825 73.6773 57.7076 73.784C57.5903 73.8907 57.489 74.0347 57.4036 74.216C57.3183 74.3867 57.2756 74.5893 57.2756 74.824C57.2756 75.72 57.8463 76.168 58.9876 76.168ZM64.5519 77V68.728H65.8479V69.912H65.8799C66.1465 69.496 66.4932 69.1653 66.9199 68.92C67.3465 68.664 67.8105 68.536 68.3119 68.536C69.3892 68.536 70.1092 69.0267 70.4719 70.008H70.5039C70.7599 69.5493 71.1172 69.192 71.5759 68.936C72.0345 68.6693 72.5199 68.536 73.0319 68.536C73.7892 68.536 74.3972 68.7707 74.8559 69.24C75.3145 69.6987 75.5439 70.3493 75.5439 71.192V77H74.2479V71.256C74.2479 70.7547 74.0985 70.36 73.7999 70.072C73.5119 69.7733 73.1545 69.624 72.7279 69.624C72.1839 69.624 71.7092 69.8373 71.3039 70.264C70.8985 70.6907 70.6959 71.2187 70.6959 71.848V77H69.3999V71.256C69.3999 70.7547 69.2665 70.36 68.9999 70.072C68.7439 69.7733 68.4025 69.624 67.9759 69.624C67.4425 69.624 66.9519 69.8427 66.5039 70.28C66.0665 70.7067 65.8479 71.2293 65.8479 71.848V77H64.5519Z" fill="#838D8D"/>
</svg>
