<svg width="87" height="84" viewBox="0 0 87 84" fill="none" xmlns="http://www.w3.org/2000/svg">
<path d="M15.0414 44.6958C15.0414 49.7394 19.1301 53.8281 24.1738 53.8281H62.8262C67.8699 53.8281 71.9586 49.7394 71.9586 44.6958V30.63C71.9586 14.9127 59.2172 2.17141 43.5 2.17141C27.7828 2.17141 15.0414 14.9127 15.0414 30.63V44.6958Z" fill="white" stroke="#DEEAEA"/>
<path d="M52.0982 41.3332H33.9305C33.0264 41.3332 32.2515 40.758 31.9932 39.9214C31.7779 39.294 31.4766 38.7188 31.003 38.2482L29.7976 36.941C29.6684 36.7842 29.6254 36.575 29.7115 36.3659C29.7545 36.1567 29.9267 36.0521 30.0989 36.0521H55.9297C56.102 36.0521 56.2742 36.209 56.3172 36.3659C56.3603 36.575 56.3172 36.7842 56.1881 36.941L54.9826 38.2482C54.5091 38.7188 54.2077 39.294 53.9924 39.9214C53.7772 40.758 53.0023 41.3332 52.0982 41.3332ZM31.2183 37.0979L31.5627 37.4639C32.1224 38.0913 32.5098 38.7711 32.7681 39.5554C32.8973 39.9737 33.3708 40.2874 33.9305 40.2874H52.0982C52.6148 40.2874 53.1314 39.9737 53.2606 39.5554C53.5189 38.7711 53.9063 38.0913 54.466 37.4639L54.8104 37.0979H31.2183ZM37.6329 34.3266C37.5468 34.3266 37.4607 34.2743 37.3746 34.2221L33.8014 31.3462C33.5861 31.1894 33.5431 30.8757 33.6722 30.6142C34.0597 29.9345 34.6193 29.4639 35.3082 29.2547C35.997 29.0979 36.6858 29.2547 37.2455 29.7253C37.8051 30.1959 38.1926 30.8757 38.3648 31.7123C38.494 32.5489 38.3648 33.3855 37.9773 34.0652C37.9343 34.2743 37.8051 34.3266 37.6329 34.3266ZM34.7054 30.8234L37.4607 33.0717C37.5468 32.7057 37.5899 32.3397 37.5038 31.9737C37.4177 31.4508 37.1594 30.9802 36.7719 30.6665C36.3844 30.3528 35.9109 30.2482 35.4804 30.3528C35.2221 30.4051 34.9207 30.5619 34.7054 30.8234ZM49.9887 34.2743H49.9026C49.2137 34.2221 48.568 33.9083 48.0944 33.2809C47.9222 33.0717 47.9222 32.758 48.0944 32.5489L51.2372 28.9933C51.3233 28.8887 51.4094 28.8364 51.5385 28.8364C51.6677 28.8364 51.7538 28.8887 51.8399 28.9933C52.8301 30.2482 52.7439 32.2351 51.7107 33.4377C51.2372 33.9606 50.6344 34.2743 49.9887 34.2743ZM49.0415 32.8626C49.2998 33.0717 49.6012 33.1763 49.9026 33.1763C50.3761 33.1763 50.8066 33.0194 51.1511 32.6011C51.7538 31.9214 51.8399 30.8757 51.4955 30.0913L49.0415 32.8626ZM39.7855 22.1959C39.5272 22.1959 39.355 21.9868 39.355 21.673C39.355 21.4639 39.3119 21.4116 39.1397 21.2025C38.9675 20.9933 38.7092 20.6273 38.7092 20.0521C38.7092 19.477 38.9675 19.1109 39.1397 18.9018C39.3119 18.6926 39.355 18.6404 39.355 18.4312C39.355 18.2221 39.3119 18.1698 39.1397 17.9606C38.9675 17.7515 38.7092 17.3855 38.7092 16.8103C38.7092 16.2351 38.9675 15.8691 39.1397 15.66C39.3119 15.4508 39.355 15.3985 39.355 15.1894C39.355 14.8757 39.5272 14.6665 39.7855 14.6665C40.0438 14.6665 40.216 14.8757 40.216 15.1894C40.216 15.8168 39.9577 16.1306 39.7855 16.3397C39.6133 16.5489 39.5702 16.6011 39.5702 16.8103C39.5702 17.0194 39.6133 17.0717 39.7855 17.2809C39.9577 17.49 40.216 17.856 40.216 18.4312C40.216 19.0587 39.9577 19.3724 39.7855 19.5815C39.6133 19.7907 39.5702 19.843 39.5702 20.0521C39.5702 20.2613 39.6133 20.3136 39.7855 20.5227C39.9577 20.7319 40.216 21.0979 40.216 21.673C40.216 21.9345 40.0438 22.1959 39.7855 22.1959ZM43.3157 22.1959C43.0574 22.1959 42.8852 21.9868 42.8852 21.673C42.8852 21.4639 42.8421 21.4116 42.6699 21.2025C42.4977 20.9933 42.2394 20.6273 42.2394 20.0521C42.2394 19.477 42.4977 19.1109 42.6699 18.9018C42.8421 18.6926 42.8852 18.6404 42.8852 18.4312C42.8852 18.2221 42.8421 18.1698 42.6699 17.9606C42.4977 17.7515 42.2394 17.3855 42.2394 16.8103C42.2394 16.2351 42.4977 15.8691 42.6699 15.66C42.8421 15.4508 42.8852 15.3985 42.8852 15.1894C42.8852 14.8757 43.0574 14.6665 43.3157 14.6665C43.574 14.6665 43.7462 14.8757 43.7462 15.1894C43.7462 15.8168 43.4879 16.1306 43.3157 16.3397C43.1435 16.5489 43.1004 16.6011 43.1004 16.8103C43.1004 17.0194 43.1435 17.0717 43.3157 17.2809C43.4879 17.49 43.7462 17.856 43.7462 18.4312C43.7462 19.0587 43.4879 19.3724 43.3157 19.5815C43.1435 19.7907 43.1004 19.843 43.1004 20.0521C43.1004 20.2613 43.1435 20.3136 43.3157 20.5227C43.4879 20.7319 43.7462 21.0979 43.7462 21.673C43.7462 21.9345 43.574 22.1959 43.3157 22.1959ZM46.889 22.1959C46.6307 22.1959 46.4585 21.9868 46.4585 21.673C46.4585 21.4639 46.4154 21.4116 46.2432 21.2025C46.071 20.9933 45.8127 20.6273 45.8127 20.0521C45.8127 19.477 46.071 19.1109 46.2432 18.9018C46.4154 18.6926 46.4585 18.6404 46.4585 18.4312C46.4585 18.2221 46.4154 18.1698 46.2432 17.9606C46.071 17.7515 45.8127 17.3855 45.8127 16.8103C45.8127 16.2351 46.071 15.8691 46.2432 15.66C46.3724 15.4508 46.4585 15.3462 46.4585 15.1894C46.4585 14.8757 46.6307 14.6665 46.889 14.6665C47.1473 14.6665 47.3195 14.8757 47.3195 15.1894C47.3195 15.8168 47.0612 16.1306 46.889 16.3397C46.7168 16.5489 46.6737 16.6011 46.6737 16.8103C46.6737 17.0194 46.7168 17.0717 46.889 17.2809C47.0612 17.49 47.3195 17.856 47.3195 18.4312C47.3195 19.0587 47.0612 19.3724 46.889 19.5815C46.7168 19.7907 46.6737 19.843 46.6737 20.0521C46.6737 20.2613 46.7168 20.3136 46.889 20.5227C47.0612 20.7319 47.3195 21.0979 47.3195 21.673C47.3195 21.9345 47.1042 22.1959 46.889 22.1959ZM42.9282 30.8757C42.5838 30.8757 42.2825 30.8234 42.1964 30.7711C40.7326 30.6142 39.4841 29.5162 38.7092 27.7384C38.1065 26.4312 37.8051 24.8626 38.0634 24.2874C38.2787 23.7645 38.9245 23.3985 39.5702 23.3462C40.0869 23.3462 41.077 23.5031 41.8089 25.0194C42.756 27.0064 44.7364 28.209 44.7795 28.2613C44.9517 28.3659 45.0378 28.575 45.0378 28.7842C44.9947 29.4639 44.7795 29.9868 44.392 30.3528C43.9184 30.7711 43.3588 30.8757 42.9282 30.8757ZM39.6563 24.4443C39.2258 24.4443 38.8814 24.7057 38.8384 24.8103C38.7953 25.0194 39.0106 26.5358 39.7855 27.8953C40.4313 28.9933 41.2923 29.6208 42.2825 29.7253H42.3255C42.5838 29.7776 43.4018 29.8822 43.8323 29.5162C43.9615 29.4116 44.0476 29.2547 44.0906 29.0456C43.4449 28.6273 41.9381 27.4247 41.034 25.5946C40.6035 24.6534 40.0438 24.4443 39.6563 24.4443Z" fill="#545E5E"/>
<path d="M39.0966 27.686H38.8814C38.6661 27.6337 38.4939 27.3723 38.4939 27.1108C38.5369 26.8494 38.7522 26.6403 38.9675 26.6403C39.0105 26.6403 40.259 26.7971 41.2061 25.2285C41.3353 25.0193 41.6366 24.9671 41.8089 25.1239C41.9811 25.2808 42.0241 25.6468 41.895 25.8559C40.9048 27.5292 39.5702 27.686 39.0966 27.686ZM40.6465 29.9344H40.3451C40.1298 29.8821 39.9576 29.6207 39.9576 29.3592C40.0007 29.0978 40.216 28.8886 40.4312 28.8886C40.5173 28.8886 42.2394 29.0978 42.6699 27.4246C42.756 27.1631 42.9712 27.0063 43.2295 27.0586C43.4448 27.1631 43.574 27.4246 43.5309 27.7383C43.0143 29.4638 41.5505 29.9344 40.6465 29.9344ZM45.7696 29.8821C45.253 29.8821 44.7363 29.6207 44.2628 29.1501C44.0906 28.9932 44.0475 28.7318 44.1767 28.4703C44.2197 28.3658 45.4252 25.9082 47.1042 26.4311C47.5347 26.588 47.836 26.954 47.8791 27.4246C47.9652 28.1566 47.4916 29.0455 46.7598 29.5161C46.4584 29.7775 46.114 29.8821 45.7696 29.8821ZM45.1669 28.6272C45.6835 28.9409 46.157 28.7841 46.3723 28.6272C46.8028 28.3135 47.0611 27.8429 47.0611 27.5814C47.0611 27.5292 47.0611 27.4769 46.932 27.4769C46.2001 27.2677 45.5113 28.1043 45.1669 28.6272Z" fill="#545E5E"/>
<path d="M46.3723 32.3917C45.4682 32.3917 44.3919 31.0845 44.1336 28.8361C44.0906 28.627 44.1767 28.4178 44.3058 28.3133C44.435 28.2087 44.6072 28.2087 44.7794 28.3133C44.9085 28.4178 44.9946 28.5747 44.9946 28.7316C45.2099 30.6662 46.0709 31.3982 46.4153 31.3459C46.4584 31.3459 46.4584 31.1891 46.4584 31.0845C46.4153 30.5093 45.9418 30.091 45.5112 29.7773C45.296 29.6205 45.2099 29.3067 45.339 29.0453C45.4682 28.7839 45.7265 28.6793 45.9418 28.8361C46.8028 29.4113 47.2764 30.1433 47.3194 30.9799C47.3625 31.8688 46.9319 32.2871 46.5014 32.3394C46.4584 32.3917 46.4153 32.3917 46.3723 32.3917ZM54.2507 37.0976C54.0354 37.0976 53.8632 36.8884 53.8202 36.627C53.5618 34.6924 52.9161 33.542 51.6676 32.9669C51.4954 32.9146 51.3662 32.7054 51.3662 32.4963C51.3662 32.1303 51.6676 31.8688 51.9689 32.0257C53.5188 32.7577 54.3798 34.1695 54.6812 36.5224C54.7242 36.7839 54.552 37.0976 54.3368 37.0976H54.2507ZM49.9455 31.6597C49.8164 31.6597 49.7303 31.6074 49.6442 31.5028C49.4289 31.2414 49.1276 30.8231 48.4387 30.1433C48.2235 29.9342 47.4486 29.4113 46.9319 29.3067C46.7167 29.2544 46.5445 28.9407 46.5875 28.6793C46.6306 28.4178 46.8458 28.2087 47.1041 28.261C47.836 28.4701 48.697 29.0453 48.9554 29.3067C49.6872 30.0388 50.0747 30.5093 50.2899 30.7708C50.4622 30.9799 50.4191 31.2937 50.2469 31.5028C50.1608 31.6074 50.0316 31.6597 49.9455 31.6597ZM37.3315 30.9799C37.2023 30.9799 37.1162 30.9276 37.0301 30.8231C36.8579 30.6139 36.8579 30.3002 37.0301 30.091C37.6759 29.3067 38.7952 28.3656 39.7424 28.2087C39.9576 28.1564 40.2159 28.3656 40.2159 28.6793C40.259 28.9407 40.0868 29.2544 39.8285 29.2544C39.1396 29.359 38.1495 30.1433 37.5898 30.8231C37.5467 30.9276 37.4606 30.9799 37.3315 30.9799ZM31.6487 37.0976H31.6057C31.3904 37.0453 31.2182 36.7839 31.2182 36.5224C31.2182 36.4178 31.4765 34.274 33.0694 33.2283C33.543 32.9146 33.9304 32.7577 34.2748 32.6008C34.7054 32.444 35.0498 32.2871 35.4803 31.9211C35.6955 31.7642 35.9538 31.8165 36.083 32.078C36.2122 32.3394 36.1691 32.6531 35.9538 32.81C35.4372 33.2806 34.9637 33.4374 34.5332 33.6466C34.1887 33.8035 33.8874 33.908 33.4569 34.2218C32.2514 35.0061 32.0362 36.7316 32.0362 36.7839C32.0792 36.8884 31.864 37.0976 31.6487 37.0976ZM42.799 33.3852C42.6699 33.3852 42.4977 33.2806 42.4546 33.1237C42.3254 32.8623 42.0671 32.9146 42.0671 32.9146C41.8519 33.0191 41.5936 32.8623 41.5505 32.5486C41.5075 32.2348 41.5936 31.9734 41.8519 31.9211C42.1532 31.8165 42.8421 31.8165 43.2295 32.5486C43.3587 32.81 43.3156 33.1237 43.1004 33.2806C42.9282 33.3852 42.8851 33.3852 42.799 33.3852ZM45.2529 35.2152C44.8224 35.2152 44.435 34.9538 44.2628 34.7446C44.0906 34.5355 44.0906 34.2218 44.2628 34.0126C44.435 33.8035 44.6933 33.8035 44.8655 34.0126C44.9085 34.0649 45.1668 34.3263 45.5112 34.1172C45.7265 33.9603 45.9848 34.0649 46.114 34.3263C46.2431 34.5878 46.157 34.9015 45.9418 35.0584C45.7265 35.1107 45.4682 35.2152 45.2529 35.2152ZM38.9244 35.2152C38.7952 35.2152 38.6661 35.1629 38.58 35.0061C38.4508 34.7969 38.4508 34.4309 38.6661 34.274C38.7091 34.274 39.3119 33.6466 40.0868 33.908C40.302 33.9603 40.4742 34.274 40.3881 34.5355C40.302 34.7969 40.0868 35.0061 39.8715 34.9015C39.5271 34.7969 39.1827 35.1107 39.1827 35.1107C39.1396 35.2152 39.0105 35.2152 38.9244 35.2152Z" fill="#545E5E"/>
<path d="M28.712 77.224C26.472 77.224 25.352 75.9653 25.352 73.448V73.288H26.776V73.4C26.776 74.3813 26.9307 75.0693 27.24 75.464C27.56 75.848 28.0667 76.04 28.76 76.04C29.976 76.04 30.584 75.3627 30.584 74.008V65.56H32.024V74.104C32.024 75.0533 31.736 75.8107 31.16 76.376C30.5947 76.9413 29.7787 77.224 28.712 77.224ZM40.2651 75.976C39.5398 76.808 38.5745 77.224 37.3691 77.224C36.1638 77.224 35.1931 76.808 34.4571 75.976C33.7318 75.144 33.3691 74.1093 33.3691 72.872C33.3691 71.6347 33.7318 70.6 34.4571 69.768C35.1931 68.936 36.1638 68.52 37.3691 68.52C38.5745 68.52 39.5398 68.936 40.2651 69.768C40.9905 70.6 41.3531 71.6347 41.3531 72.872C41.3531 74.1093 40.9905 75.144 40.2651 75.976ZM35.3851 75.224C35.8545 75.832 36.5158 76.136 37.3691 76.136C38.2225 76.136 38.8785 75.832 39.3371 75.224C39.7958 74.6053 40.0251 73.8213 40.0251 72.872C40.0251 71.912 39.7905 71.128 39.3211 70.52C38.8625 69.9013 38.2118 69.592 37.3691 69.592C36.5158 69.592 35.8545 69.9013 35.3851 70.52C34.9265 71.1387 34.6971 71.9227 34.6971 72.872C34.6971 73.8213 34.9265 74.6053 35.3851 75.224ZM42.6936 77V65.56H43.9896V77H42.6936ZM45.8499 77V65.56H47.1459V77H45.8499ZM55.3901 75.976C54.6648 76.808 53.6995 77.224 52.4941 77.224C51.2888 77.224 50.3181 76.808 49.5821 75.976C48.8568 75.144 48.4941 74.1093 48.4941 72.872C48.4941 71.6347 48.8568 70.6 49.5821 69.768C50.3181 68.936 51.2888 68.52 52.4941 68.52C53.6995 68.52 54.6648 68.936 55.3901 69.768C56.1155 70.6 56.4781 71.6347 56.4781 72.872C56.4781 74.1093 56.1155 75.144 55.3901 75.976ZM50.5101 75.224C50.9795 75.832 51.6408 76.136 52.4941 76.136C53.3475 76.136 54.0035 75.832 54.4621 75.224C54.9208 74.6053 55.1501 73.8213 55.1501 72.872C55.1501 71.912 54.9155 71.128 54.4461 70.52C53.9875 69.9013 53.3368 69.592 52.4941 69.592C51.6408 69.592 50.9795 69.9013 50.5101 70.52C50.0515 71.1387 49.8221 71.9227 49.8221 72.872C49.8221 73.8213 50.0515 74.6053 50.5101 75.224ZM57.0864 69.784V68.728H58.2224V67.4C58.2224 66.7173 58.409 66.2267 58.7824 65.928C59.1557 65.6187 59.6997 65.464 60.4144 65.464C60.617 65.464 60.8357 65.4747 61.0704 65.496V66.6C60.921 66.5893 60.7824 66.584 60.6544 66.584C60.2384 66.584 59.945 66.648 59.7744 66.776C59.6037 66.904 59.5184 67.1333 59.5184 67.464V68.728H61.0544V69.784H59.5184V77H58.2224V69.784H57.0864Z" fill="#838D8D"/>
</svg>
