<svg width="87" height="84" viewBox="0 0 87 84" fill="none" xmlns="http://www.w3.org/2000/svg">
<path d="M15.0415 44.6958C15.0415 49.7394 19.1302 53.8281 24.1738 53.8281H62.8263C67.8699 53.8281 71.9586 49.7394 71.9586 44.6958V30.63C71.9586 14.9127 59.2173 2.17141 43.5001 2.17141C27.7828 2.17141 15.0415 14.9127 15.0415 30.63V44.6958Z" fill="white" stroke="#DEEAEA"/>
<path d="M57.6087 27.6657C57.6087 25.019 49.2882 24.0584 43.6956 24.0584C42.4775 24.0584 41.2804 24.1002 40.12 24.1739L37.9042 16.5915C37.7146 15.9634 37.2854 15.4351 36.7096 15.1208C36.1337 14.8065 35.4573 14.7313 34.8265 14.9115C34.1957 15.0917 33.6611 15.5129 33.3381 16.084C33.0152 16.6551 32.9299 17.3303 33.1006 17.9638L35.0464 24.7799C32.5343 25.2607 29.7826 26.1367 29.7826 27.6657C29.7895 29.8448 30.3056 31.9921 31.2898 33.9363C32.2739 35.8806 33.6988 37.5678 35.4509 38.8635V40.2611C35.4487 40.6076 35.5637 40.9446 35.7771 41.2176C35.9906 41.4905 36.29 41.6833 36.6268 41.7648C41.2722 42.8895 46.119 42.8895 50.7645 41.7648C51.1013 41.6833 51.4007 41.4905 51.6141 41.2176C51.8276 40.9446 51.9426 40.6076 51.9404 40.2611V38.8645C53.6925 37.5687 55.1175 35.8813 56.1017 33.9369C57.0859 31.9925 57.6019 29.8449 57.6087 27.6657ZM41.8854 30.2134L41.0099 27.2189C41.8916 27.1766 42.7892 27.1503 43.6956 27.1503C48.5446 27.1503 52.9509 27.7569 55.2022 28.6968C53.2956 29.4729 49.4242 30.2428 43.6956 30.2428C43.067 30.2428 42.4687 30.2309 41.8854 30.2134ZM43.6956 25.0886C52.1537 25.0886 56.5781 26.7664 56.5781 27.6657C56.5634 27.7511 56.5315 27.8326 56.4843 27.9052C56.4371 27.9779 56.3755 28.0402 56.3034 28.0882C54.132 26.888 49.2583 26.1197 43.6956 26.1197C42.6882 26.1197 41.6886 26.1491 40.7121 26.2001L40.4168 25.1901C41.4845 25.1277 42.5795 25.0886 43.6956 25.0886ZM34.3311 16.3957C34.5706 16.0914 34.9185 15.8918 35.302 15.8387C35.6854 15.7855 36.0746 15.883 36.3877 16.1107C36.6425 16.3026 36.8275 16.5726 36.9143 16.8795L40.7997 30.1727C39.7236 30.1204 38.6498 30.0302 37.5801 29.9021L34.0915 17.6814C34.0283 17.4632 34.0171 17.2333 34.0587 17.0101C34.1003 16.7868 34.1936 16.5764 34.3311 16.3957ZM36.466 29.7512C35.0079 29.5609 33.5756 29.2083 32.1957 28.6999C33.3903 28.2498 34.6293 27.9281 35.892 27.7404L36.466 29.7512ZM35.3313 25.7775L35.607 26.7432C34.0401 26.9549 32.5157 27.409 31.0884 28.0893C31.0163 28.0412 30.9548 27.9789 30.9075 27.9062C30.8603 27.8336 30.8284 27.7521 30.8137 27.6667C30.8137 27.2379 32.0308 26.399 35.3313 25.7775ZM50.9098 40.2611C50.9103 40.3755 50.8727 40.4868 50.8029 40.5775C50.7331 40.6682 50.6351 40.7331 50.5244 40.7619C46.0368 41.8491 41.3545 41.8491 36.8669 40.7619C36.7562 40.7331 36.6582 40.6682 36.5884 40.5775C36.5186 40.4868 36.481 40.3755 36.4815 40.2611V39.4829C41.1781 40.9589 46.2149 40.9558 50.9098 39.4742V40.2611ZM50.7537 38.4394C46.1725 39.9149 41.2445 39.92 36.6603 38.4538C35.087 37.4209 33.7576 36.0577 32.7644 34.4589C31.7713 32.8602 31.1384 31.0643 30.9095 29.1962C33.3701 30.6937 39.3537 31.2734 43.6956 31.2734C48.0375 31.2734 54.0212 30.6937 56.4817 29.1962C56.2535 31.0599 55.6231 32.8518 54.6341 34.4479C53.6451 36.044 52.321 37.4056 50.7537 38.4394ZM42.665 23.0273C42.7342 23.0253 42.8022 23.0097 42.8653 22.9813C42.9283 22.9529 42.9851 22.9123 43.0324 22.8619C43.1298 22.7587 43.1826 22.6213 43.1793 22.4795C43.1793 22.4733 43.1762 21.7993 44.1409 20.1477C44.4851 19.6077 44.685 18.9884 44.7213 18.349C44.7575 17.7096 44.629 17.0716 44.348 16.4961C43.9203 15.6041 43.1319 14.8446 42.7403 14.7868C42.6398 14.7732 42.5375 14.7899 42.4465 14.8345C42.3555 14.8792 42.2798 14.95 42.2291 15.0378C42.1774 15.1266 42.1529 15.2286 42.1583 15.3312C42.1638 15.4339 42.1992 15.5327 42.26 15.6155C42.2801 15.6428 42.7356 16.2957 41.7391 17.6087C40.609 19.0959 41.2732 20.9974 41.77 21.9982C42.2801 23.0273 42.4337 23.0273 42.665 23.0273ZM42.5599 18.2317C42.9092 17.7952 43.1684 17.2938 43.3226 16.7564C43.444 16.9701 43.5385 17.1981 43.6039 17.4351C43.6985 17.8053 43.716 18.191 43.6553 18.5683C43.5946 18.9456 43.4569 19.3064 43.2509 19.6282C42.9674 20.1046 42.7172 20.5999 42.5022 21.1108C42.1575 20.2693 41.8988 19.1026 42.5599 18.2317ZM47.3027 23.0273C47.3718 23.0253 47.4399 23.0097 47.503 22.9813C47.566 22.9529 47.6228 22.9123 47.6701 22.8619C47.7675 22.7587 47.8203 22.6213 47.817 22.4795C47.817 22.4733 47.8139 21.7993 48.7785 20.1477C49.1228 19.6077 49.3227 18.9884 49.3589 18.349C49.3952 17.7096 49.2667 17.0716 48.9857 16.4961C48.558 15.6041 47.7696 14.8446 47.378 14.7868C47.2775 14.7733 47.1752 14.79 47.0842 14.8346C46.9932 14.8793 46.9175 14.95 46.8668 15.0378C46.8151 15.1266 46.7905 15.2286 46.796 15.3312C46.8015 15.4339 46.8369 15.5327 46.8977 15.6155C46.9178 15.6428 47.3733 16.2957 46.3767 17.6087C45.2467 19.0959 45.9109 20.9974 46.4076 21.9982C46.9178 23.0273 47.0714 23.0273 47.3027 23.0273ZM47.1976 18.2317C47.5469 17.7952 47.8061 17.2938 47.9602 16.7564C48.0817 16.9701 48.1762 17.1981 48.2416 17.4351C48.3362 17.8053 48.3537 18.191 48.293 18.5683C48.2323 18.9456 48.0946 19.3064 47.8886 19.6282C47.6051 20.1046 47.3549 20.5999 47.1399 21.1108C46.7952 20.2693 46.5365 19.1026 47.1976 18.2317ZM51.9404 23.0273C52.0095 23.0253 52.0776 23.0097 52.1406 22.9813C52.2037 22.9529 52.2605 22.9123 52.3078 22.8619C52.4052 22.7587 52.4579 22.6213 52.4547 22.4795C52.4547 22.4733 52.4516 21.7993 53.4162 20.1477C53.7605 19.6077 53.9604 18.9884 53.9966 18.349C54.0329 17.7096 53.9044 17.0716 53.6234 16.4961C53.1957 15.6041 52.4073 14.8446 52.0156 14.7868C51.9152 14.7734 51.813 14.7901 51.722 14.8347C51.631 14.8794 51.5553 14.9501 51.5045 15.0378C51.4528 15.1266 51.4282 15.2286 51.4337 15.3312C51.4392 15.4339 51.4745 15.5327 51.5354 15.6155C51.5555 15.6428 52.011 16.2957 51.0144 17.6087C49.8844 19.0959 50.5486 20.9974 51.0453 21.9982C51.5555 23.0273 51.709 23.0273 51.9404 23.0273ZM51.8353 18.2317C52.1845 17.7952 52.4438 17.2938 52.5979 16.7564C52.7194 16.9701 52.8139 17.1981 52.8793 17.4351C52.9739 17.8053 52.9914 18.191 52.9307 18.5683C52.8699 18.9456 52.7323 19.3064 52.5263 19.6282C52.2428 20.1046 51.9926 20.5999 51.7776 21.1108C51.4328 20.2693 51.1742 19.1026 51.8353 18.2317Z" fill="#545E5E"/>
<path d="M16.072 77V65.56H17.592L22.808 73.512L23.64 74.984H23.672V65.56H25.016V77H23.544L18.296 69.032L17.448 67.608H17.416V77H16.072ZM26.9738 77V68.728H28.2698V77H26.9738ZM26.9738 67.16V65.56H28.2698V67.16H26.9738ZM33.3323 79.752C32.2763 79.752 31.4443 79.5493 30.8363 79.144C30.2389 78.7493 29.9029 78.1893 29.8283 77.464H31.0283C31.1456 78.3067 31.9029 78.728 33.3003 78.728C34.8789 78.728 35.6683 78.0187 35.6683 76.6V75.432H35.6363C35.3056 75.8587 34.9536 76.1787 34.5803 76.392C34.2069 76.6053 33.7429 76.712 33.1883 76.712C32.1216 76.712 31.2523 76.328 30.5803 75.56C29.9083 74.792 29.5723 73.8107 29.5723 72.616C29.5723 71.368 29.9083 70.376 30.5803 69.64C31.2629 68.904 32.1056 68.536 33.1083 68.536C34.1963 68.536 35.0389 68.952 35.6363 69.784H35.6683V68.728H36.9643V76.552C36.9643 77.608 36.6389 78.4027 35.9883 78.936C35.3483 79.48 34.4629 79.752 33.3323 79.752ZM33.2523 75.624C34.9269 75.624 35.7643 74.6 35.7643 72.552C35.7643 70.6 34.9216 69.624 33.2363 69.624C32.4789 69.624 31.8976 69.896 31.4923 70.44C31.0976 70.984 30.9003 71.7147 30.9003 72.632C30.9003 73.5493 31.1029 74.28 31.5082 74.824C31.9136 75.3573 32.4949 75.624 33.2523 75.624ZM42.2598 77.224C41.0331 77.224 40.0571 76.8133 39.3318 75.992C38.6171 75.16 38.2598 74.12 38.2598 72.872C38.2598 71.6453 38.6224 70.616 39.3478 69.784C40.0838 68.9413 41.0278 68.52 42.1798 68.52C43.3958 68.52 44.3344 68.9467 44.9958 69.8C45.6571 70.6427 45.9878 71.768 45.9878 73.176H39.5878C39.6411 74.0507 39.8971 74.7653 40.3558 75.32C40.8251 75.864 41.4598 76.136 42.2598 76.136C43.4971 76.136 44.2598 75.5707 44.5478 74.44H45.8118C45.6198 75.3253 45.2144 76.0133 44.5958 76.504C43.9771 76.984 43.1984 77.224 42.2598 77.224ZM43.9078 70.248C43.4918 69.7787 42.9158 69.544 42.1798 69.544C41.4438 69.544 40.8571 69.7893 40.4198 70.28C39.9931 70.7707 39.7264 71.4107 39.6198 72.2H44.5958C44.5531 71.368 44.3238 70.7173 43.9078 70.248ZM48.551 68.728V70.104H48.583C48.8497 69.6667 49.1963 69.3147 49.623 69.048C50.0497 68.7707 50.5243 68.632 51.047 68.632C51.239 68.632 51.415 68.664 51.575 68.728V69.976H51.527C51.367 69.9227 51.175 69.896 50.951 69.896C50.2897 69.896 49.7243 70.1307 49.255 70.6C48.7857 71.0587 48.551 71.6613 48.551 72.408V77H47.255V68.728H48.551ZM52.7394 77V68.728H54.0354V77H52.7394ZM52.7394 67.16V65.56H54.0354V67.16H52.7394ZM62.2979 77.08C61.4765 77.08 61.0019 76.6693 60.8739 75.848H60.8579C60.1752 76.7227 59.2579 77.16 58.1059 77.16C57.2845 77.16 56.6125 76.9627 56.0899 76.568C55.5672 76.1733 55.3059 75.6027 55.3059 74.856C55.3059 74.472 55.3645 74.1413 55.4819 73.864C55.6099 73.576 55.7699 73.3467 55.9619 73.176C56.1539 72.9947 56.4152 72.84 56.7459 72.712C57.0872 72.5733 57.4125 72.472 57.7219 72.408C58.0312 72.3333 58.4259 72.2587 58.9059 72.184C59.2152 72.1413 59.4339 72.1093 59.5619 72.088C59.7005 72.056 59.8765 72.0133 60.0899 71.96C60.3032 71.896 60.4525 71.8267 60.5379 71.752C60.6232 71.6773 60.7032 71.576 60.7779 71.448C60.8525 71.32 60.8899 71.1707 60.8899 71C60.8899 70.5307 60.7245 70.1733 60.3939 69.928C60.0739 69.672 59.6205 69.544 59.0339 69.544C57.7005 69.544 57.0125 70.152 56.9699 71.368H55.7219C55.7432 70.5253 56.0312 69.848 56.5859 69.336C57.1512 68.824 57.9619 68.568 59.0179 68.568C61.0552 68.568 62.0739 69.4427 62.0739 71.192V75.128C62.0739 75.4907 62.1325 75.7467 62.2499 75.896C62.3779 76.0453 62.6125 76.0827 62.9539 76.008H63.0019V76.952C62.7885 77.0373 62.5539 77.08 62.2979 77.08ZM58.3939 76.168C59.1939 76.168 59.8125 75.9387 60.2499 75.48C60.6872 75.0107 60.9059 74.4987 60.9059 73.944V72.536C60.5112 72.7813 59.8819 72.984 59.0179 73.144C58.6979 73.208 58.4472 73.2613 58.2659 73.304C58.0845 73.336 57.8765 73.4 57.6419 73.496C57.4072 73.5813 57.2312 73.6773 57.1139 73.784C56.9965 73.8907 56.8952 74.0347 56.8099 74.216C56.7245 74.3867 56.6819 74.5893 56.6819 74.824C56.6819 75.72 57.2525 76.168 58.3939 76.168ZM65.2541 68.728V69.816H65.2861C65.9261 68.9627 66.8008 68.536 67.9101 68.536C68.7848 68.536 69.4675 68.7653 69.9581 69.224C70.4488 69.6827 70.6941 70.3387 70.6941 71.192V77H69.3981V71.304C69.3981 70.7707 69.2328 70.36 68.9021 70.072C68.5715 69.7733 68.1128 69.624 67.5261 69.624C66.8648 69.624 66.3208 69.8373 65.8941 70.264C65.4675 70.6907 65.2541 71.24 65.2541 71.912V77H63.9581V68.728H65.2541Z" fill="#838D8D"/>
</svg>
