<svg width="87" height="84" viewBox="0 0 87 84" fill="none" xmlns="http://www.w3.org/2000/svg">
<path d="M15.0415 44.6958C15.0415 49.7394 19.1302 53.8281 24.1738 53.8281H62.8263C67.8699 53.8281 71.9586 49.7394 71.9586 44.6958V30.63C71.9586 14.9127 59.2173 2.17141 43.5001 2.17141C27.7828 2.17141 15.0415 14.9127 15.0415 30.63V44.6958Z" fill="white" stroke="#DEEAEA"/>
<path fill-rule="evenodd" clip-rule="evenodd" d="M48.7648 17.4039C49.0451 17.3196 49.3406 17.4785 49.4249 17.7587L56.311 40.6504C56.3672 40.8372 56.3162 41.0398 56.1782 41.1777C56.0403 41.3157 55.8377 41.3667 55.6509 41.3105L32.7592 34.4244C32.479 34.3401 32.3201 34.0446 32.4044 33.7644C32.4887 33.4841 32.7843 33.3253 33.0645 33.4096L55.0121 40.0116L48.4101 18.064C48.3257 17.7838 48.4846 17.4883 48.7648 17.4039Z" fill="#545E5E"/>
<path fill-rule="evenodd" clip-rule="evenodd" d="M48.6926 16.0881C48.4357 15.7795 48.0265 15.6226 47.562 15.8047L47.5617 15.8048C44.8665 16.8596 41.2796 19.3566 37.8182 22.818C34.357 26.2793 31.8614 29.8662 30.805 32.5617L30.805 32.5617C30.6228 33.0263 30.7798 33.4355 31.0883 33.6923C31.408 33.9585 31.8472 34.0267 32.2108 33.8207C32.33 33.7506 32.4328 33.6558 32.5124 33.5428C32.5164 33.5372 32.5204 33.5317 32.5246 33.5262C32.5872 33.4441 32.6424 33.3566 32.6895 33.2648C32.9266 32.6652 33.2862 31.9159 33.8218 31.0145L33.822 31.0142C35.1066 28.8554 37.0295 26.4494 39.2405 24.24C41.4509 22.0312 43.8528 20.1059 46.0148 18.8216C46.9161 18.2861 47.6654 17.9264 48.2668 17.6892C48.3586 17.6421 48.446 17.587 48.5281 17.5243C48.5332 17.5204 48.5384 17.5166 48.5437 17.5129C48.6565 17.4331 48.7509 17.3301 48.8208 17.2109C49.027 16.8473 48.9588 16.4078 48.6926 16.0881ZM49.507 15.41C50.0122 16.0168 50.1992 16.9331 49.7402 17.738C49.7394 17.7394 49.7386 17.7408 49.7378 17.7422C49.5932 17.9905 49.3975 18.2053 49.1637 18.3724C49.0245 18.4779 48.8757 18.5702 48.7193 18.6479C48.7054 18.6548 48.6912 18.6611 48.6767 18.6668C48.1321 18.8801 47.4267 19.2154 46.5561 19.7327L46.5561 19.7327C44.4864 20.9622 42.153 22.8278 39.9896 24.9897C37.8268 27.1509 35.9631 29.4885 34.7328 31.5562C34.2156 32.4266 33.8802 33.1321 33.6668 33.6754C33.6612 33.6897 33.655 33.7037 33.6481 33.7175C33.5705 33.8737 33.4784 34.0223 33.373 34.1614C33.2062 34.3957 32.9915 34.592 32.7431 34.7372C32.7415 34.7381 32.7399 34.7391 32.7382 34.74C31.9334 35.199 31.017 35.012 30.4102 34.5068C29.7916 33.9917 29.4509 33.112 29.8183 32.1749C30.9471 29.2948 33.5492 25.5882 37.0688 22.0686C40.5883 18.5491 44.295 15.9452 47.1754 14.8179C48.1124 14.4507 48.992 14.7914 49.507 15.41ZM50.0748 19.956C50.2138 20.2135 50.1177 20.535 49.8601 20.674C49.3233 20.9637 48.9028 21.4299 48.6699 21.9937C48.4369 22.5576 48.4056 23.1845 48.5814 23.7688C48.7571 24.353 49.1291 24.8586 49.6345 25.2004C50.1399 25.5421 50.7477 25.6989 51.3553 25.6444C51.6468 25.6183 51.9043 25.8334 51.9305 26.1248C51.9566 26.4163 51.7415 26.6738 51.45 26.7C50.5993 26.7763 49.7484 26.5567 49.0408 26.0783C48.3333 25.5999 47.8125 24.8919 47.5665 24.074C47.3205 23.2561 47.3642 22.3784 47.6904 21.589C48.0166 20.7996 48.6051 20.147 49.3568 19.7413C49.6143 19.6023 49.9358 19.6984 50.0748 19.956ZM53.3496 30.8574C53.4969 31.1103 53.4113 31.4347 53.1584 31.582C52.6439 31.8817 52.2453 32.3458 52.0269 32.8997C51.8085 33.4536 51.7831 34.0649 51.9546 34.6351C52.1262 35.2052 52.4848 35.7009 52.9726 36.0423C53.4604 36.3837 54.049 36.5508 54.6434 36.5167C54.9356 36.5 55.186 36.7232 55.2028 37.0154C55.2195 37.3076 54.9963 37.558 54.7041 37.5748C53.8719 37.6225 53.0479 37.3885 52.365 36.9106C51.6821 36.4327 51.18 35.7387 50.9398 34.9405C50.6996 34.1423 50.7352 33.2865 51.041 32.511C51.3467 31.7356 51.9047 31.0857 52.625 30.6662C52.8779 30.5189 53.2023 30.6045 53.3496 30.8574ZM45.1351 34.7175C44.7948 34.6152 44.4375 34.5823 44.0842 34.6209C43.731 34.6594 43.3892 34.7686 43.079 34.942C42.7689 35.1154 42.4968 35.3494 42.2789 35.6301C42.061 35.9107 41.9018 36.2324 41.8108 36.5758C41.7358 36.8587 41.4457 37.0273 41.1628 36.9523C40.8799 36.8773 40.7114 36.5872 40.7864 36.3043C40.9138 35.8235 41.1367 35.3732 41.4417 34.9802C41.7467 34.5873 42.1277 34.2597 42.5619 34.0169C42.9961 33.7742 43.4747 33.6213 43.9692 33.5673C44.4637 33.5133 44.964 33.5593 45.4404 33.7026C45.9167 33.8459 46.3594 34.0836 46.742 34.4015C47.1247 34.7193 47.4395 35.1109 47.6677 35.5529C47.8959 35.9949 48.0329 36.4783 48.0705 36.9743C48.1081 37.4704 48.0456 37.9689 47.8866 38.4402C47.793 38.7175 47.4924 38.8665 47.2151 38.773C46.9378 38.6794 46.7888 38.3788 46.8824 38.1015C46.9959 37.7648 47.0406 37.4087 47.0137 37.0544C46.9869 36.7001 46.889 36.3549 46.726 36.0391C46.563 35.7234 46.3382 35.4437 46.0648 35.2167C45.7915 34.9896 45.4753 34.8199 45.1351 34.7175Z" fill="#545E5E"/>
<path fill-rule="evenodd" clip-rule="evenodd" d="M38.7551 30.5632C38.1698 30.5632 37.6953 31.0377 37.6953 31.623C37.6953 32.2083 38.1698 32.6828 38.7551 32.6828C39.3404 32.6828 39.8149 32.2083 39.8149 31.623C39.8149 31.0377 39.3404 30.5632 38.7551 30.5632ZM36.6355 31.623C36.6355 30.4524 37.5845 29.5034 38.7551 29.5034C39.9257 29.5034 40.8747 30.4524 40.8747 31.623C40.8747 32.7936 39.9257 33.7426 38.7551 33.7426C37.5845 33.7426 36.6355 32.7936 36.6355 31.623Z" fill="#545E5E"/>
<path fill-rule="evenodd" clip-rule="evenodd" d="M44.3756 24.9431C43.7903 24.9431 43.3158 25.4176 43.3158 26.0029C43.3158 26.5882 43.7903 27.0627 44.3756 27.0627C44.9609 27.0627 45.4354 26.5882 45.4354 26.0029C45.4354 25.4176 44.9609 24.9431 44.3756 24.9431ZM42.256 26.0029C42.256 24.8323 43.205 23.8833 44.3756 23.8833C45.5462 23.8833 46.4952 24.8323 46.4952 26.0029C46.4952 27.1735 45.5462 28.1225 44.3756 28.1225C43.205 28.1225 42.256 27.1735 42.256 26.0029Z" fill="#545E5E"/>
<path fill-rule="evenodd" clip-rule="evenodd" d="M48.5449 27.6636C48.8109 27.5416 49.1255 27.6583 49.2475 27.9243C49.3781 28.2089 49.4514 28.5165 49.4631 28.8295C49.4748 29.1424 49.4248 29.4546 49.3158 29.7482C49.2069 30.0418 49.0412 30.3111 48.8282 30.5407C48.6151 30.7703 48.359 30.9556 48.0743 31.0862C47.8083 31.2082 47.4937 31.0914 47.3717 30.8254C47.2497 30.5594 47.3665 30.2449 47.6325 30.1229C47.7906 30.0503 47.933 29.9474 48.0513 29.8198C48.1696 29.6923 48.2617 29.5427 48.3222 29.3796C48.3828 29.2164 48.4106 29.043 48.404 28.8691C48.3975 28.6953 48.3568 28.5244 48.2843 28.3663C48.1622 28.1003 48.2789 27.7857 48.5449 27.6636ZM42.1273 30.499C42.3342 30.2921 42.6697 30.2921 42.8767 30.499C42.9997 30.6221 43.1457 30.7197 43.3065 30.7862C43.4672 30.8528 43.6395 30.8871 43.8134 30.8871C43.9874 30.8871 44.1597 30.8528 44.3204 30.7862C44.4812 30.7197 44.6272 30.6221 44.7502 30.499C44.9572 30.2921 45.2927 30.2921 45.4996 30.499C45.7066 30.7059 45.7066 31.0414 45.4997 31.2484C45.2782 31.4698 45.0154 31.6455 44.726 31.7654C44.4367 31.8852 44.1266 31.9469 43.8134 31.9469C43.5003 31.9469 43.1902 31.8852 42.9009 31.7654C42.6115 31.6455 42.3487 31.4698 42.1272 31.2484C41.9203 31.0414 41.9203 30.7059 42.1273 30.499ZM46.6235 32.7474C46.8304 32.5404 47.1659 32.5405 47.3729 32.7474C47.4959 32.8704 47.6419 32.968 47.8027 33.0346C47.9634 33.1012 48.1357 33.1355 48.3096 33.1355C48.4836 33.1355 48.6559 33.1012 48.8166 33.0346C48.9774 32.968 49.1234 32.8704 49.2464 32.7474C49.4534 32.5405 49.7889 32.5404 49.9958 32.7474C50.2028 32.9543 50.2028 33.2898 49.9959 33.4968C49.7744 33.7182 49.5116 33.8939 49.2222 34.0137C48.9329 34.1336 48.6228 34.1953 48.3096 34.1953C47.9965 34.1953 47.6864 34.1336 47.3971 34.0137C47.1077 33.8939 46.8449 33.7182 46.6234 33.4968C46.4165 33.2898 46.4165 32.9543 46.6235 32.7474Z" fill="#545E5E"/>
<path d="M26.572 77V65.56H31.34C32.5347 65.56 33.4413 65.928 34.06 66.664C34.572 67.2613 34.828 67.9867 34.828 68.84C34.828 69.9067 34.5187 70.7333 33.9 71.32C33.2813 71.9067 32.3587 72.2 31.132 72.2H28.012V77H26.572ZM28.012 66.808V71.032H31.02C31.8093 71.032 32.4013 70.8453 32.796 70.472C33.2013 70.0987 33.404 69.576 33.404 68.904C33.404 68.2213 33.2013 67.704 32.796 67.352C32.4013 66.9893 31.836 66.808 31.1 66.808H28.012ZM36.0206 77V68.728H37.3166V77H36.0206ZM36.0206 67.16V65.56H37.3166V67.16H36.0206ZM38.7471 77V75.976L43.3551 69.912V69.864H39.0191V68.728H45.1631V69.496L40.4111 75.768V75.816H45.3391V77H38.7471ZM46.2784 77V75.976L50.8864 69.912V69.864H46.5504V68.728H52.6944V69.496L47.9424 75.768V75.816H52.8704V77H46.2784ZM60.6416 77.08C59.8203 77.08 59.3456 76.6693 59.2176 75.848H59.2016C58.519 76.7227 57.6016 77.16 56.4496 77.16C55.6283 77.16 54.9563 76.9627 54.4336 76.568C53.911 76.1733 53.6496 75.6027 53.6496 74.856C53.6496 74.472 53.7083 74.1413 53.8256 73.864C53.9536 73.576 54.1136 73.3467 54.3056 73.176C54.4976 72.9947 54.759 72.84 55.0896 72.712C55.431 72.5733 55.7563 72.472 56.0656 72.408C56.375 72.3333 56.7696 72.2587 57.2496 72.184C57.559 72.1413 57.7776 72.1093 57.9056 72.088C58.0443 72.056 58.2203 72.0133 58.4336 71.96C58.647 71.896 58.7963 71.8267 58.8816 71.752C58.967 71.6773 59.047 71.576 59.1216 71.448C59.1963 71.32 59.2336 71.1707 59.2336 71C59.2336 70.5307 59.0683 70.1733 58.7376 69.928C58.4176 69.672 57.9643 69.544 57.3776 69.544C56.0443 69.544 55.3563 70.152 55.3136 71.368H54.0656C54.087 70.5253 54.375 69.848 54.9296 69.336C55.495 68.824 56.3056 68.568 57.3616 68.568C59.399 68.568 60.4176 69.4427 60.4176 71.192V75.128C60.4176 75.4907 60.4763 75.7467 60.5936 75.896C60.7216 76.0453 60.9563 76.0827 61.2976 76.008H61.3456V76.952C61.1323 77.0373 60.8976 77.08 60.6416 77.08ZM56.7376 76.168C57.5376 76.168 58.1563 75.9387 58.5936 75.48C59.031 75.0107 59.2496 74.4987 59.2496 73.944V72.536C58.855 72.7813 58.2256 72.984 57.3616 73.144C57.0416 73.208 56.791 73.2613 56.6096 73.304C56.4283 73.336 56.2203 73.4 55.9856 73.496C55.751 73.5813 55.575 73.6773 55.4576 73.784C55.3403 73.8907 55.239 74.0347 55.1536 74.216C55.0683 74.3867 55.0256 74.5893 55.0256 74.824C55.0256 75.72 55.5963 76.168 56.7376 76.168Z" fill="#838D8D"/>
</svg>
