<svg width="87" height="84" viewBox="0 0 87 84" fill="none" xmlns="http://www.w3.org/2000/svg">
<path d="M15.0415 44.6958C15.0415 49.7394 19.1302 53.8281 24.1738 53.8281H62.8263C67.8699 53.8281 71.9586 49.7394 71.9586 44.6958V30.63C71.9586 14.9127 59.2173 2.17141 43.5001 2.17141C27.7828 2.17141 15.0415 14.9127 15.0415 30.63V44.6958Z" fill="white" stroke="#DEEAEA"/>
<path d="M43 41.3332C40.3629 41.3332 37.785 40.5512 35.5924 39.0861C33.3997 37.621 31.6907 35.5386 30.6816 33.1023C29.6724 30.6659 29.4084 27.9851 29.9228 25.3986C30.4373 22.8122 31.7072 20.4365 33.5719 18.5718C35.4366 16.7071 37.8123 15.4372 40.3988 14.9227C42.9852 14.4082 45.6661 14.6723 48.1024 15.6814C50.5388 16.6906 52.6211 18.3996 54.0862 20.5922C55.5513 22.7849 56.3333 25.3628 56.3333 27.9998C56.3288 31.5347 54.9227 34.9235 52.4231 37.423C49.9236 39.9225 46.5348 41.3287 43 41.3332ZM43 15.5061C40.5289 15.5061 38.1134 16.2389 36.0588 17.6117C34.0043 18.9845 32.4029 20.9358 31.4573 23.2187C30.5117 25.5016 30.2643 28.0137 30.7463 30.4372C31.2284 32.8608 32.4183 35.0869 34.1656 36.8342C35.9129 38.5815 38.139 39.7714 40.5626 40.2535C42.9861 40.7356 45.4982 40.4881 47.7811 39.5425C50.064 38.5969 52.0153 36.9955 53.3881 34.941C54.7609 32.8864 55.4937 30.4709 55.4937 27.9998C55.4903 24.6873 54.173 21.5114 51.8307 19.1691C49.4884 16.8268 46.3125 15.5095 43 15.5061Z" fill="#545E5E"/>
<path d="M34.0664 26.4943C33.9611 26.4943 33.8602 26.4511 33.7858 26.3742C33.7113 26.2972 33.6695 26.1929 33.6695 26.0841C33.6657 26.0541 33.6657 26.0238 33.6695 25.9938C34.0893 24.0184 35.1188 22.2375 36.6028 20.9195C38.0867 19.6015 39.9449 18.8177 41.8972 18.6862C43.8495 18.5548 45.7903 19.0828 47.4271 20.1906C49.064 21.2985 50.3082 22.9263 50.9723 24.8287C50.9918 24.8797 51.0011 24.9343 50.9998 24.9891C50.9985 25.044 50.9866 25.098 50.9648 25.148C50.9429 25.198 50.9116 25.2429 50.8727 25.2802C50.8338 25.3174 50.788 25.3462 50.7381 25.3649C50.6882 25.3836 50.6352 25.3917 50.5822 25.3888C50.5292 25.3859 50.4773 25.3721 50.4296 25.3481C50.3819 25.3241 50.3393 25.2905 50.3044 25.2492C50.2694 25.2079 50.2429 25.1598 50.2262 25.1077C49.6194 23.3742 48.4846 21.8911 46.9925 20.8816C45.5004 19.872 43.7315 19.3905 41.9519 19.5094C40.1723 19.6282 38.4781 20.3411 37.1241 21.5408C35.77 22.7405 34.8293 24.3622 34.4434 26.162C34.4263 26.2534 34.3797 26.3361 34.3112 26.3965C34.2427 26.4569 34.1564 26.4914 34.0664 26.4943ZM42.4955 37.3332C40.7295 37.3363 39.0014 36.8034 37.5255 35.8007C36.0497 34.7979 34.8911 33.3694 34.1934 31.6922C34.1711 31.6421 34.1602 31.5873 34.1616 31.5322C34.1617 31.4358 34.1947 31.3424 34.2548 31.2686C34.3148 31.1948 34.3981 31.1452 34.49 31.1286C34.5819 31.1119 34.6765 31.1293 34.7572 31.1776C34.838 31.2259 34.8997 31.3021 34.9315 31.3927C35.5709 32.9236 36.6309 34.2267 37.9801 35.1405C39.3292 36.0544 40.9082 36.5387 42.5212 36.5334C44.1341 36.5282 45.7101 36.0336 47.0537 35.111C48.3973 34.1884 49.4494 32.8784 50.0794 31.3435C50.1231 31.2475 50.201 31.1728 50.2968 31.1349C50.3927 31.097 50.499 31.099 50.5934 31.1404C50.6879 31.1818 50.7631 31.2594 50.8035 31.3569C50.8438 31.4544 50.846 31.5643 50.8096 31.6635C50.1158 33.3483 48.9572 34.7845 47.4786 35.7928C46 36.8011 44.2669 37.3368 42.4955 37.3332Z" fill="#545E5E"/>
<path d="M44.3472 25.1278C44.2759 25.1281 44.2053 25.1171 44.1397 25.0954C44.074 25.0736 44.0148 25.0417 43.9656 25.0015C43.8682 24.9252 43.8136 24.8219 43.8136 24.7143C43.8136 24.6067 43.8682 24.5034 43.9656 24.4271C44.0719 24.3497 44.1731 24.2681 44.2688 24.1827C44.5093 23.9668 44.6348 23.7468 44.5668 23.6491C44.4989 23.5513 44.227 23.4821 44.0963 23.4454C43.8571 23.3976 43.6113 23.373 43.3644 23.3721C43.0375 23.3688 42.7125 23.3333 42.3972 23.2662C41.9951 23.1268 41.6379 22.9195 41.3515 22.6592C41.1686 22.4975 40.9532 22.3599 40.7137 22.2519C40.5478 22.1977 40.3707 22.1673 40.1909 22.1623C39.9364 22.2288 39.7104 22.3486 39.5374 22.5085C38.976 22.9488 38.4619 23.4243 38.0003 23.9301C37.7598 24.1868 37.5193 24.4434 37.2684 24.6878C37.1817 24.7726 37.0554 24.8271 36.9171 24.8394C36.7789 24.8516 36.6401 24.8205 36.5312 24.753C36.4224 24.6855 36.3524 24.587 36.3367 24.4793C36.321 24.3716 36.3609 24.2634 36.4476 24.1786C36.6933 23.9424 36.9286 23.6939 37.1586 23.4495C37.6529 22.8973 38.2055 22.3781 38.8107 21.8975C39.1397 21.6091 39.58 21.4118 40.0654 21.3353C40.4039 21.3228 40.7412 21.3745 41.0483 21.4861C41.4522 21.6229 41.81 21.8307 42.0939 22.093C42.2769 22.2547 42.4923 22.3923 42.7318 22.5004C42.9618 22.5406 43.1966 22.5624 43.4323 22.5655C43.7866 22.567 44.1387 22.6081 44.478 22.6877C44.9102 22.7715 45.2845 22.9815 45.5236 23.2743C45.8163 23.6817 45.6543 24.2275 45.0896 24.7286C44.9746 24.8304 44.8544 24.9322 44.7289 25.0259C44.6771 25.0617 44.6167 25.0892 44.5512 25.1067C44.4857 25.1242 44.4164 25.1313 44.3472 25.1278ZM40.1438 34.6638C40.0847 34.6678 40.0252 34.6678 39.9661 34.6638C39.4796 34.594 39.0366 34.4006 38.7061 34.1139C38.1406 33.6696 37.6165 33.1945 37.1377 32.6922C36.9286 32.4845 36.7194 32.2849 36.5051 32.0771C36.4551 32.0369 36.4164 31.9891 36.3912 31.9367C36.3661 31.8843 36.355 31.8284 36.3588 31.7725C36.3626 31.7166 36.3811 31.6619 36.4132 31.6119C36.4453 31.5618 36.4903 31.5174 36.5454 31.4815C36.6005 31.4456 36.6645 31.4189 36.7334 31.4031C36.8023 31.3874 36.8747 31.3828 36.9459 31.3898C37.0172 31.3967 37.0859 31.4151 37.1476 31.4436C37.2094 31.4722 37.263 31.5103 37.305 31.5557C37.5298 31.7635 37.7441 31.9631 37.9585 32.1871C38.4071 32.6525 38.8981 33.0922 39.4276 33.5028C39.6003 33.6649 39.8289 33.785 40.0863 33.8491C40.2657 33.845 40.4428 33.816 40.6091 33.7635C40.8852 33.6704 41.1465 33.5528 41.3881 33.4132C41.7031 33.234 42.0456 33.0862 42.4076 32.9733C42.7243 32.9045 43.0513 32.8689 43.38 32.8674C43.627 32.8665 43.8728 32.8418 44.112 32.7941C44.2427 32.7574 44.5198 32.68 44.5877 32.5863C44.6557 32.4926 44.525 32.2686 44.2845 32.0568C44.1888 31.9713 44.0876 31.8898 43.9813 31.8123C43.9315 31.7752 43.8916 31.7307 43.8639 31.6815C43.8362 31.6323 43.8211 31.5794 43.8197 31.5257C43.8182 31.4719 43.8304 31.4185 43.8554 31.3685C43.8804 31.3184 43.9179 31.2727 43.9656 31.2339C44.0133 31.1951 44.0704 31.1641 44.1335 31.1424C44.1966 31.1208 44.2646 31.1091 44.3335 31.108C44.4025 31.1069 44.471 31.1163 44.5353 31.1358C44.5995 31.1553 44.6582 31.1845 44.708 31.2217C44.8335 31.3154 44.9537 31.4172 45.0687 31.5191C45.6386 32.016 45.7954 32.5456 45.5079 32.9692C45.2652 33.2602 44.8926 33.4707 44.4623 33.5599C44.1234 33.6402 43.7708 33.68 43.4166 33.678C43.1805 33.6802 42.9455 33.7035 42.7161 33.7473C42.4465 33.8394 42.1905 33.9541 41.9528 34.0894C41.6313 34.2743 41.2797 34.425 40.9071 34.5375C40.6625 34.6097 40.4051 34.6523 40.1438 34.6638Z" fill="#545E5E"/>
<path d="M39.6899 33.3332C38.1082 33.334 36.5468 32.9109 35.1215 32.0954C33.5506 31.2111 32.1693 29.9135 31.0822 28.3008C31.0288 28.2139 31 28.1091 31 28.0015C31 27.8939 31.0288 27.7891 31.0822 27.7022C32.1809 26.0742 33.5788 24.7674 35.1685 23.8822C36.5815 23.0848 38.1258 22.6706 39.6899 22.6698C42.488 22.606 45.2462 23.4665 47.6577 25.1556C48.7369 24.4961 51.6545 23.4967 52.9512 23.101C53.0209 23.0797 53.094 23.0798 53.1637 23.1012C53.2334 23.1226 53.2974 23.1646 53.3498 23.2233C53.4022 23.2821 53.4412 23.3556 53.4632 23.4371C53.4853 23.5186 53.4896 23.6054 53.4758 23.6895L52.7976 27.966L53.6507 31.517C53.67 31.5986 53.6718 31.6846 53.656 31.7671C53.6402 31.8497 53.6073 31.9263 53.5602 31.9898C53.5131 32.0534 53.4534 32.1019 53.3865 32.131C53.3196 32.16 53.2477 32.1687 53.1772 32.1562C53.0365 32.1562 49.8971 31.5424 48.016 30.5633C47.2141 31.233 44.3264 33.3332 39.6899 33.3332ZM31.9779 28.0015C32.9602 29.3319 34.1587 30.4121 35.5012 31.1772C36.8118 31.928 38.2479 32.3182 39.7027 32.3186C44.7658 32.3186 47.6748 29.6198 47.7004 29.5944C47.7632 29.5345 47.8391 29.497 47.9191 29.4863C47.9991 29.4755 48.08 29.4919 48.1525 29.5335C49.4322 30.259 51.5649 30.7967 52.6483 31.0554L51.9659 28.1537C51.9489 28.0772 51.9489 27.9968 51.9659 27.9203L52.5118 24.3084C50.7374 24.8867 48.3701 25.7795 47.8923 26.1854C47.8214 26.2432 47.7374 26.2741 47.6513 26.2741C47.5653 26.2741 47.4813 26.2432 47.4103 26.1854C46.4634 25.4346 43.8188 23.6946 39.6899 23.6946C38.2507 23.6954 36.8298 24.0784 35.531 24.8157C34.1778 25.5812 32.9691 26.665 31.9779 28.0015Z" fill="#545E5E"/>
<path d="M35.4343 31.9998C35.3703 31.9987 35.3073 31.982 35.2497 31.951C33.6298 31.1015 32.2054 29.8534 31.0846 28.3015C31.0296 28.2179 31 28.1171 31 28.0136C31 27.9101 31.0296 27.8093 31.0846 27.7257C32.2163 26.1599 33.6562 24.903 35.2937 24.0517C35.3627 24.0133 35.4397 23.9957 35.5169 24.0009C35.594 24.006 35.6686 24.0337 35.733 24.081C36.3061 24.5113 36.7734 25.0937 37.0926 25.7753C37.4118 26.4569 37.5727 27.2162 37.5608 27.9843C37.5747 28.7635 37.4098 29.5338 37.0815 30.2226C36.7533 30.9115 36.2726 31.4962 35.6847 31.9218C35.6102 31.9753 35.5229 32.0025 35.4343 31.9998ZM32.0073 28.0136C32.9616 29.2202 34.1142 30.2137 35.4035 30.9411C35.7948 30.5845 36.1106 30.1367 36.3285 29.6294C36.5464 29.1221 36.6611 28.5677 36.6645 28.0057C36.6678 27.4436 36.5597 26.8876 36.3479 26.3771C36.136 25.8667 35.8256 25.4142 35.4387 25.052C34.1343 25.7855 32.9693 26.791 32.0073 28.0136ZM39.5906 27.4769C39.4741 27.4769 39.3623 27.4255 39.2799 27.334C39.1975 27.2425 39.1512 27.1184 39.1512 26.989C39.1512 26.8596 39.1975 26.7355 39.2799 26.644C39.3623 26.5525 39.4741 26.5011 39.5906 26.5011C39.6241 26.5062 39.6583 26.5032 39.6908 26.4925C39.7232 26.4817 39.7532 26.4633 39.7788 26.4386C39.8043 26.4138 39.8247 26.3833 39.8388 26.3491C39.8528 26.3148 39.86 26.2776 39.86 26.24C39.86 26.2024 39.8528 26.1652 39.8388 26.131C39.8247 26.0967 39.8043 26.0662 39.7788 26.0415C39.7532 26.0167 39.7232 25.9984 39.6908 25.9876C39.6583 25.9768 39.6241 25.9739 39.5906 25.979C39.4741 25.979 39.3623 25.9276 39.2799 25.8361C39.1975 25.7446 39.1512 25.6205 39.1512 25.4911C39.1512 25.3617 39.1975 25.2376 39.2799 25.1461C39.3623 25.0546 39.4741 25.0032 39.5906 25.0032C39.7427 24.9926 39.8952 25.0167 40.0387 25.074C40.1821 25.1314 40.3134 25.2208 40.4245 25.3367C40.5357 25.4525 40.6242 25.5925 40.6848 25.7479C40.7453 25.9032 40.7765 26.0707 40.7765 26.24C40.7765 26.4093 40.7453 26.5768 40.6848 26.7322C40.6242 26.8876 40.5357 27.0275 40.4245 27.1434C40.3134 27.2593 40.1821 27.3487 40.0387 27.406C39.8952 27.4634 39.7427 27.4875 39.5906 27.4769ZM39.7048 30.7508C39.5883 30.7508 39.4765 30.6994 39.3941 30.6079C39.3117 30.5164 39.2655 30.3923 39.2655 30.2629C39.2655 30.1335 39.3117 30.0094 39.3941 29.9179C39.4765 29.8264 39.5883 29.7749 39.7048 29.7749C39.7384 29.7801 39.7725 29.7771 39.805 29.7663C39.8375 29.7556 39.8675 29.7372 39.893 29.7125C39.9185 29.6877 39.939 29.6572 39.953 29.623C39.967 29.5887 39.9743 29.5515 39.9743 29.5139C39.9743 29.4763 39.967 29.4391 39.953 29.4049C39.939 29.3706 39.9185 29.3401 39.893 29.3154C39.8675 29.2906 39.8375 29.2723 39.805 29.2615C39.7725 29.2507 39.7384 29.2478 39.7048 29.2529C39.5883 29.2529 39.4765 29.2015 39.3941 29.11C39.3117 29.0185 39.2655 28.8944 39.2655 28.765C39.2655 28.6356 39.3117 28.5115 39.3941 28.42C39.4765 28.3285 39.5883 28.2771 39.7048 28.2771C39.857 28.2664 40.0095 28.2906 40.1529 28.3479C40.2963 28.4053 40.4276 28.4946 40.5388 28.6105C40.6499 28.7264 40.7385 28.8664 40.799 29.0218C40.8595 29.1771 40.8908 29.3446 40.8908 29.5139C40.8908 29.6832 40.8595 29.8507 40.799 30.0061C40.7385 30.1614 40.6499 30.3014 40.5388 30.4173C40.4276 30.5332 40.2963 30.6226 40.1529 30.6799C40.0095 30.7373 39.857 30.7614 39.7048 30.7508ZM41.8884 29.1114C41.7719 29.1114 41.6601 29.06 41.5778 28.9685C41.4954 28.877 41.4491 28.7529 41.4491 28.6235C41.4491 28.4941 41.4954 28.37 41.5778 28.2785C41.6601 28.187 41.7719 28.1356 41.8884 28.1356C41.919 28.1356 41.9493 28.1289 41.9775 28.1159C42.0058 28.1029 42.0315 28.0838 42.0531 28.0598C42.0747 28.0358 42.0919 28.0073 42.1036 27.9759C42.1153 27.9446 42.1213 27.9109 42.1213 27.877C42.1213 27.843 42.1153 27.8094 42.1036 27.778C42.0919 27.7466 42.0747 27.7181 42.0531 27.6941C42.0315 27.6701 42.0058 27.6511 41.9775 27.6381C41.9493 27.6251 41.919 27.6184 41.8884 27.6184C41.7719 27.6184 41.6601 27.567 41.5778 27.4755C41.4954 27.384 41.4491 27.2599 41.4491 27.1305C41.4491 27.0011 41.4954 26.877 41.5778 26.7855C41.6601 26.694 41.7719 26.6426 41.8884 26.6426C42.1832 26.6426 42.466 26.7726 42.6744 27.0041C42.8829 27.2356 43 27.5496 43 27.877C43 28.2044 42.8829 28.5183 42.6744 28.7498C42.466 28.9813 42.1832 29.1114 41.8884 29.1114Z" fill="#545E5E"/>
<path d="M34.5711 31.9998C34.4851 31.9999 34.401 31.9714 34.3298 31.918C34.2586 31.8646 34.2035 31.7887 34.1717 31.7002C33.9797 31.1821 33.8162 30.6516 33.682 30.1116C33.667 30.0513 33.6629 29.9884 33.67 29.9264C33.677 29.8643 33.695 29.8045 33.7229 29.7501C33.7508 29.6958 33.7881 29.6481 33.8327 29.6098C33.8773 29.5714 33.9282 29.5431 33.9827 29.5266C34.0371 29.51 34.0939 29.5055 34.1499 29.5133C34.206 29.5211 34.26 29.541 34.3091 29.5719C34.3582 29.6028 34.4012 29.6441 34.4359 29.6935C34.4705 29.7428 34.4961 29.7992 34.511 29.8595C34.6363 30.3636 34.7884 30.8591 34.9663 31.3435C34.9931 31.4155 35.0034 31.4938 34.9964 31.5713C34.9895 31.6488 34.9654 31.7232 34.9264 31.788C34.8874 31.8529 34.8346 31.9061 34.7726 31.943C34.7107 31.9799 34.6415 31.9994 34.5711 31.9998ZM34.4337 27.7477C34.3724 27.7471 34.3119 27.7319 34.2563 27.7031C34.2007 27.6744 34.1514 27.6329 34.1115 27.5813C34.037 27.486 33.9996 27.3619 34.0076 27.2361C34.0157 27.1104 34.0685 26.9933 34.1545 26.9106L34.2876 26.7822C34.3305 26.7413 34.3802 26.7102 34.434 26.6905C34.4877 26.6709 34.5444 26.6632 34.6009 26.6678C34.6573 26.6724 34.7124 26.6894 34.7629 26.7176C34.8135 26.7458 34.8585 26.7847 34.8954 26.8322C34.9324 26.8796 34.9605 26.9347 34.9783 26.9942C34.996 27.0537 35.003 27.1165 34.9988 27.179C34.9946 27.2415 34.9793 27.3025 34.9539 27.3584C34.9284 27.4144 34.8932 27.4643 34.8503 27.5052L34.7172 27.6336C34.6383 27.7083 34.5375 27.7489 34.4337 27.7477Z" fill="#545E5E"/>
<path d="M18.232 77.224C16.696 77.224 15.512 76.8453 14.68 76.088C13.8587 75.3307 13.416 74.344 13.352 73.128H14.76C14.952 75.0907 16.1307 76.072 18.296 76.072C19.1173 76.072 19.7733 75.8907 20.264 75.528C20.7653 75.1547 21.016 74.6213 21.016 73.928C21.016 73.6187 20.9573 73.3467 20.84 73.112C20.7227 72.8773 20.5787 72.6853 20.408 72.536C20.248 72.3867 20.0027 72.248 19.672 72.12C19.3413 71.992 19.032 71.8907 18.744 71.816C18.4667 71.7413 18.0827 71.6507 17.592 71.544C17.0053 71.416 16.52 71.288 16.136 71.16C15.752 71.0213 15.368 70.8347 14.984 70.6C14.6 70.3653 14.312 70.0667 14.12 69.704C13.9387 69.3307 13.848 68.8827 13.848 68.36C13.848 67.4213 14.2 66.6853 14.904 66.152C15.6187 65.608 16.5627 65.336 17.736 65.336C20.3067 65.336 21.752 66.5253 22.072 68.904H20.712C20.6053 68.0933 20.3013 67.4853 19.8 67.08C19.2987 66.664 18.6213 66.456 17.768 66.456C16.9787 66.456 16.3493 66.616 15.88 66.936C15.4213 67.256 15.192 67.7093 15.192 68.296C15.192 68.552 15.24 68.7813 15.336 68.984C15.4427 69.176 15.576 69.3413 15.736 69.48C15.9067 69.608 16.1253 69.7253 16.392 69.832C16.6693 69.9387 16.9413 70.0293 17.208 70.104C17.4747 70.168 17.8 70.2373 18.184 70.312C18.7173 70.4187 19.1547 70.52 19.496 70.616C19.8373 70.7013 20.216 70.8347 20.632 71.016C21.048 71.1973 21.368 71.4053 21.592 71.64C21.8267 71.8747 22.024 72.184 22.184 72.568C22.3547 72.9413 22.44 73.3787 22.44 73.88C22.44 74.9253 22.0507 75.7467 21.272 76.344C20.504 76.9307 19.4907 77.224 18.232 77.224ZM27.4316 77.224C26.205 77.224 25.229 76.8133 24.5036 75.992C23.789 75.16 23.4316 74.12 23.4316 72.872C23.4316 71.6453 23.7943 70.616 24.5196 69.784C25.2556 68.9413 26.1996 68.52 27.3516 68.52C28.5676 68.52 29.5063 68.9467 30.1676 69.8C30.829 70.6427 31.1596 71.768 31.1596 73.176H24.7596C24.813 74.0507 25.069 74.7653 25.5276 75.32C25.997 75.864 26.6316 76.136 27.4316 76.136C28.669 76.136 29.4316 75.5707 29.7196 74.44H30.9836C30.7916 75.3253 30.3863 76.0133 29.7676 76.504C29.149 76.984 28.3703 77.224 27.4316 77.224ZM29.0796 70.248C28.6636 69.7787 28.0876 69.544 27.3516 69.544C26.6156 69.544 26.029 69.7893 25.5916 70.28C25.165 70.7707 24.8983 71.4107 24.7916 72.2H29.7676C29.725 71.368 29.4956 70.7173 29.0796 70.248ZM38.9229 77.08C38.1015 77.08 37.6269 76.6693 37.4989 75.848H37.4829C36.8002 76.7227 35.8829 77.16 34.7309 77.16C33.9095 77.16 33.2375 76.9627 32.7149 76.568C32.1922 76.1733 31.9309 75.6027 31.9309 74.856C31.9309 74.472 31.9895 74.1413 32.1069 73.864C32.2349 73.576 32.3949 73.3467 32.5869 73.176C32.7789 72.9947 33.0402 72.84 33.3709 72.712C33.7122 72.5733 34.0375 72.472 34.3469 72.408C34.6562 72.3333 35.0509 72.2587 35.5309 72.184C35.8402 72.1413 36.0589 72.1093 36.1869 72.088C36.3255 72.056 36.5015 72.0133 36.7149 71.96C36.9282 71.896 37.0775 71.8267 37.1629 71.752C37.2482 71.6773 37.3282 71.576 37.4029 71.448C37.4775 71.32 37.5149 71.1707 37.5149 71C37.5149 70.5307 37.3495 70.1733 37.0189 69.928C36.6989 69.672 36.2455 69.544 35.6589 69.544C34.3255 69.544 33.6375 70.152 33.5949 71.368H32.3469C32.3682 70.5253 32.6562 69.848 33.2109 69.336C33.7762 68.824 34.5869 68.568 35.6429 68.568C37.6802 68.568 38.6989 69.4427 38.6989 71.192V75.128C38.6989 75.4907 38.7575 75.7467 38.8749 75.896C39.0029 76.0453 39.2375 76.0827 39.5789 76.008H39.6269V76.952C39.4135 77.0373 39.1789 77.08 38.9229 77.08ZM35.0189 76.168C35.8189 76.168 36.4375 75.9387 36.8749 75.48C37.3122 75.0107 37.5309 74.4987 37.5309 73.944V72.536C37.1362 72.7813 36.5069 72.984 35.6429 73.144C35.3229 73.208 35.0722 73.2613 34.8909 73.304C34.7095 73.336 34.5015 73.4 34.2669 73.496C34.0322 73.5813 33.8562 73.6773 33.7389 73.784C33.6215 73.8907 33.5202 74.0347 33.4349 74.216C33.3495 74.3867 33.3069 74.5893 33.3069 74.824C33.3069 75.72 33.8775 76.168 35.0189 76.168ZM42.602 69.784V68.728H43.738V67.4C43.738 66.7173 43.9247 66.2267 44.298 65.928C44.6713 65.6187 45.2153 65.464 45.93 65.464C46.1327 65.464 46.3513 65.4747 46.586 65.496V66.6C46.4367 66.5893 46.298 66.584 46.17 66.584C45.754 66.584 45.4607 66.648 45.29 66.776C45.1193 66.904 45.034 67.1333 45.034 67.464V68.728H46.57V69.784H45.034V77H43.738V69.784H42.602ZM54.0308 75.976C53.3054 76.808 52.3401 77.224 51.1348 77.224C49.9294 77.224 48.9588 76.808 48.2228 75.976C47.4974 75.144 47.1348 74.1093 47.1348 72.872C47.1348 71.6347 47.4974 70.6 48.2228 69.768C48.9588 68.936 49.9294 68.52 51.1348 68.52C52.3401 68.52 53.3054 68.936 54.0308 69.768C54.7561 70.6 55.1188 71.6347 55.1188 72.872C55.1188 74.1093 54.7561 75.144 54.0308 75.976ZM49.1508 75.224C49.6201 75.832 50.2814 76.136 51.1348 76.136C51.9881 76.136 52.6441 75.832 53.1028 75.224C53.5614 74.6053 53.7908 73.8213 53.7908 72.872C53.7908 71.912 53.5561 71.128 53.0868 70.52C52.6281 69.9013 51.9774 69.592 51.1348 69.592C50.2814 69.592 49.6201 69.9013 49.1508 70.52C48.6921 71.1387 48.4628 71.9227 48.4628 72.872C48.4628 73.8213 48.6921 74.6053 49.1508 75.224ZM62.8433 75.976C62.1179 76.808 61.1526 77.224 59.9473 77.224C58.7419 77.224 57.7713 76.808 57.0353 75.976C56.3099 75.144 55.9473 74.1093 55.9473 72.872C55.9473 71.6347 56.3099 70.6 57.0353 69.768C57.7713 68.936 58.7419 68.52 59.9473 68.52C61.1526 68.52 62.1179 68.936 62.8433 69.768C63.5686 70.6 63.9313 71.6347 63.9313 72.872C63.9313 74.1093 63.5686 75.144 62.8433 75.976ZM57.9633 75.224C58.4326 75.832 59.0939 76.136 59.9473 76.136C60.8006 76.136 61.4566 75.832 61.9153 75.224C62.3739 74.6053 62.6033 73.8213 62.6033 72.872C62.6033 71.912 62.3686 71.128 61.8993 70.52C61.4406 69.9013 60.7899 69.592 59.9473 69.592C59.0939 69.592 58.4326 69.9013 57.9633 70.52C57.5046 71.1387 57.2753 71.9227 57.2753 72.872C57.2753 73.8213 57.5046 74.6053 57.9633 75.224ZM68.4238 77.24C67.2931 77.24 66.3971 76.8507 65.7358 76.072C65.0851 75.2827 64.7598 74.2213 64.7598 72.888C64.7598 71.544 65.1011 70.4827 65.7838 69.704C66.4664 68.9253 67.3358 68.536 68.3918 68.536C69.5118 68.536 70.3758 68.9893 70.9838 69.896H71.0158V65.56H72.3118V77H71.0158V75.992H70.9838C70.3331 76.824 69.4798 77.24 68.4238 77.24ZM68.4718 76.152C69.3571 76.152 70.0131 75.8587 70.4398 75.272C70.8771 74.6853 71.0958 73.896 71.0958 72.904C71.0958 71.9227 70.8611 71.1333 70.3918 70.536C69.9331 69.9387 69.2878 69.64 68.4557 69.64C67.6984 69.64 67.1118 69.944 66.6957 70.552C66.2904 71.1493 66.0878 71.9333 66.0878 72.904C66.0878 73.8747 66.2904 74.6587 66.6957 75.256C67.1118 75.8533 67.7038 76.152 68.4718 76.152Z" fill="#838D8D"/>
</svg>
