<svg width="87" height="84" viewBox="0 0 87 84" fill="none" xmlns="http://www.w3.org/2000/svg">
<path d="M15.0414 44.6958C15.0414 49.7394 19.1301 53.8281 24.1738 53.8281H62.8262C67.8699 53.8281 71.9586 49.7394 71.9586 44.6958V30.63C71.9586 14.9127 59.2172 2.17141 43.5 2.17141C27.7828 2.17141 15.0414 14.9127 15.0414 30.63V44.6958Z" fill="white" stroke="#DEEAEA"/>
<path d="M43 32.3332C43.92 32.3332 44.6666 31.5866 44.6666 30.6666C44.6666 29.8666 43.5066 28.1466 43.2733 27.8132C43.1466 27.6332 42.8466 27.6332 42.7266 27.8132C42.4933 28.1466 41.3333 29.8666 41.3333 30.6666C41.3333 31.5866 42.08 32.3332 43 32.3332ZM43 28.5999C43.48 29.3466 44 30.2999 44 30.6666C44 31.2199 43.5533 31.6666 43 31.6666C42.4466 31.6666 42 31.2199 42 30.6666C42 30.2999 42.52 29.3532 43 28.5999Z" fill="#545E5E"/>
<path d="M38.74 22.0735C38.0467 22.7668 37.6667 23.6868 37.6667 24.6668V26.0002V34.0002V40.0002C37.6667 40.9202 38.4134 41.6668 39.3334 41.6668H46.6667C47.5867 41.6668 48.3334 40.9202 48.3334 40.0002V34.0002V26.0002V24.6668C48.3334 23.6868 47.9534 22.7668 47.26 22.0735C45.8 20.6202 45 18.8068 45 16.9802V16.9402C45.3867 16.8002 45.6667 16.4335 45.6667 16.0002V15.3335C45.6667 14.7802 45.22 14.3335 44.6667 14.3335H41.3334C40.78 14.3335 40.3334 14.7802 40.3334 15.3335V16.0002C40.3334 16.4335 40.6134 16.8002 41 16.9402V16.9868C41 18.8068 40.2 20.6202 38.74 22.0735ZM47.6667 40.0002C47.6667 40.5535 47.22 41.0002 46.6667 41.0002H39.3334C38.78 41.0002 38.3334 40.5535 38.3334 40.0002V34.3335H47.6667V40.0002ZM47.6667 27.6668H44.6667C44.48 27.6668 44.3334 27.8135 44.3334 28.0002C44.3334 28.1868 44.48 28.3335 44.6667 28.3335H47.6667V29.6668H45.3334C45.1467 29.6668 45 29.8135 45 30.0002C45 30.1868 45.1467 30.3335 45.3334 30.3335H47.6667V31.6668H45.3334C45.1467 31.6668 45 31.8135 45 32.0002C45 32.1868 45.1467 32.3335 45.3334 32.3335H47.6667V33.6668H38.3334V32.3335H40.6667C40.8534 32.3335 41 32.1868 41 32.0002C41 31.8135 40.8534 31.6668 40.6667 31.6668H38.3334V30.3335H40.6667C40.8534 30.3335 41 30.1868 41 30.0002C41 29.8135 40.8534 29.6668 40.6667 29.6668H38.3334V28.3335H41.3334C41.52 28.3335 41.6667 28.1868 41.6667 28.0002C41.6667 27.8135 41.52 27.6668 41.3334 27.6668H38.3334V26.3335H47.6667V27.6668ZM41 15.3335C41 15.1468 41.1467 15.0002 41.3334 15.0002H44.6667C44.8534 15.0002 45 15.1468 45 15.3335V16.0002C45 16.1868 44.8534 16.3335 44.6667 16.3335H41.3334C41.1467 16.3335 41 16.1868 41 16.0002V15.3335ZM41.6667 17.0002H44.3334C44.34 19.0002 45.2067 20.9668 46.7867 22.5468C47.3534 23.1135 47.6667 23.8668 47.6667 24.6668V25.6668H38.3334V24.6668C38.3334 23.8668 38.6467 23.1135 39.2134 22.5468C40.7934 20.9668 41.66 19.0002 41.6667 17.0002Z" fill="#545E5E"/>
<path d="M16.232 77.224C14.696 77.224 13.512 76.8453 12.68 76.088C11.8587 75.3307 11.416 74.344 11.352 73.128H12.76C12.952 75.0907 14.1307 76.072 16.296 76.072C17.1173 76.072 17.7733 75.8907 18.264 75.528C18.7653 75.1547 19.016 74.6213 19.016 73.928C19.016 73.6187 18.9573 73.3467 18.84 73.112C18.7227 72.8773 18.5787 72.6853 18.408 72.536C18.248 72.3867 18.0027 72.248 17.672 72.12C17.3413 71.992 17.032 71.8907 16.744 71.816C16.4667 71.7413 16.0827 71.6507 15.592 71.544C15.0053 71.416 14.52 71.288 14.136 71.16C13.752 71.0213 13.368 70.8347 12.984 70.6C12.6 70.3653 12.312 70.0667 12.12 69.704C11.9387 69.3307 11.848 68.8827 11.848 68.36C11.848 67.4213 12.2 66.6853 12.904 66.152C13.6187 65.608 14.5627 65.336 15.736 65.336C18.3067 65.336 19.752 66.5253 20.072 68.904H18.712C18.6053 68.0933 18.3013 67.4853 17.8 67.08C17.2987 66.664 16.6213 66.456 15.768 66.456C14.9787 66.456 14.3493 66.616 13.88 66.936C13.4213 67.256 13.192 67.7093 13.192 68.296C13.192 68.552 13.24 68.7813 13.336 68.984C13.4427 69.176 13.576 69.3413 13.736 69.48C13.9067 69.608 14.1253 69.7253 14.392 69.832C14.6693 69.9387 14.9413 70.0293 15.208 70.104C15.4747 70.168 15.8 70.2373 16.184 70.312C16.7173 70.4187 17.1547 70.52 17.496 70.616C17.8373 70.7013 18.216 70.8347 18.632 71.016C19.048 71.1973 19.368 71.4053 19.592 71.64C19.8267 71.8747 20.024 72.184 20.184 72.568C20.3547 72.9413 20.44 73.3787 20.44 73.88C20.44 74.9253 20.0507 75.7467 19.272 76.344C18.504 76.9307 17.4907 77.224 16.232 77.224ZM28.3276 75.976C27.6023 76.808 26.637 77.224 25.4316 77.224C24.2263 77.224 23.2556 76.808 22.5196 75.976C21.7943 75.144 21.4316 74.1093 21.4316 72.872C21.4316 71.6347 21.7943 70.6 22.5196 69.768C23.2556 68.936 24.2263 68.52 25.4316 68.52C26.637 68.52 27.6023 68.936 28.3276 69.768C29.053 70.6 29.4156 71.6347 29.4156 72.872C29.4156 74.1093 29.053 75.144 28.3276 75.976ZM23.4476 75.224C23.917 75.832 24.5783 76.136 25.4316 76.136C26.285 76.136 26.941 75.832 27.3996 75.224C27.8583 74.6053 28.0876 73.8213 28.0876 72.872C28.0876 71.912 27.853 71.128 27.3836 70.52C26.925 69.9013 26.2743 69.592 25.4316 69.592C24.5783 69.592 23.917 69.9013 23.4476 70.52C22.989 71.1387 22.7596 71.9227 22.7596 72.872C22.7596 73.8213 22.989 74.6053 23.4476 75.224ZM30.0239 69.784V68.728H31.1599V67.4C31.1599 66.7173 31.3465 66.2267 31.7199 65.928C32.0932 65.6187 32.6372 65.464 33.3519 65.464C33.5545 65.464 33.7732 65.4747 34.0079 65.496V66.6C33.8585 66.5893 33.7199 66.584 33.5919 66.584C33.1759 66.584 32.8825 66.648 32.7119 66.776C32.5412 66.904 32.4559 67.1333 32.4559 67.464V68.728H33.9919V69.784H32.4559V77H31.1599V69.784H30.0239ZM34.5708 69.784V68.728H35.7708V66.12H37.0668V68.728H38.6668V69.784H37.0668V75.16C37.0668 75.672 37.3441 75.928 37.8988 75.928C38.1334 75.928 38.3628 75.8907 38.5868 75.816H38.6348V76.936C38.2828 77.0107 37.9361 77.048 37.5948 77.048C36.3788 77.048 35.7708 76.5147 35.7708 75.448V69.784H34.5708ZM45.7519 77.24C44.6212 77.24 43.7252 76.8507 43.0639 76.072C42.4132 75.2827 42.0879 74.2213 42.0879 72.888C42.0879 71.544 42.4292 70.4827 43.1119 69.704C43.7945 68.9253 44.6639 68.536 45.7199 68.536C46.8399 68.536 47.7039 68.9893 48.3119 69.896H48.3439V65.56H49.6399V77H48.3439V75.992H48.3119C47.6612 76.824 46.8079 77.24 45.7519 77.24ZM45.7999 76.152C46.6852 76.152 47.3412 75.8587 47.7679 75.272C48.2052 74.6853 48.4239 73.896 48.4239 72.904C48.4239 71.9227 48.1892 71.1333 47.7199 70.536C47.2612 69.9387 46.6159 69.64 45.7839 69.64C45.0265 69.64 44.4399 69.944 44.0239 70.552C43.6185 71.1493 43.4159 71.9333 43.4159 72.904C43.4159 73.8747 43.6185 74.6587 44.0239 75.256C44.4399 75.8533 45.0319 76.152 45.7999 76.152ZM52.6916 68.728V70.104H52.7236C52.9903 69.6667 53.337 69.3147 53.7636 69.048C54.1903 68.7707 54.665 68.632 55.1876 68.632C55.3796 68.632 55.5556 68.664 55.7156 68.728V69.976H55.6676C55.5076 69.9227 55.3156 69.896 55.0916 69.896C54.4303 69.896 53.865 70.1307 53.3956 70.6C52.9263 71.0587 52.6916 71.6613 52.6916 72.408V77H51.3956V68.728H52.6916ZM56.88 77V68.728H58.176V77H56.88ZM56.88 67.16V65.56H58.176V67.16H56.88ZM61.2385 68.728V69.816H61.2705C61.9105 68.9627 62.7852 68.536 63.8945 68.536C64.7692 68.536 65.4518 68.7653 65.9425 69.224C66.4332 69.6827 66.6785 70.3387 66.6785 71.192V77H65.3825V71.304C65.3825 70.7707 65.2172 70.36 64.8865 70.072C64.5558 69.7733 64.0972 69.624 63.5105 69.624C62.8492 69.624 62.3052 69.8373 61.8785 70.264C61.4518 70.6907 61.2385 71.24 61.2385 71.912V77H59.9425V68.728H61.2385ZM73.8356 77L70.9076 72.536L69.6916 73.688V77H68.3956V65.56H69.6916V72.264L73.3236 68.728H74.9716L71.8036 71.704L75.3556 77H73.8356Z" fill="#838D8D"/>
</svg>
